<?xml version="1.0" encoding="UTF-8" standalone="no"?>
<!DOCTYPE svg PUBLIC "-//W3C//DTD SVG 1.1//EN" "http://www.w3.org/Graphics/SVG/1.1/DTD/svg11.dtd">
<svg width="100%" height="100%" viewBox="0 0 1158 152" version="1.1" xmlns="http://www.w3.org/2000/svg" xmlns:xlink="http://www.w3.org/1999/xlink" xml:space="preserve" xmlns:serif="http://www.serif.com/" style="fill-rule:evenodd;clip-rule:evenodd;stroke-linejoin:round;stroke-miterlimit:2;">
    <g transform="matrix(1,0,0,1,-22.388,-25.0464)">
        <g transform="matrix(1.68599,0,0,1.63689,-444.522,-262.287)">
            <g transform="matrix(1,0,0,1,2.96561,3.05457)">
                <g transform="matrix(0.351575,0,0,0.351575,239.392,108.044)">
                    <path d="M191.542,254.188L175.672,305.511L228.684,305.511L212.814,254.188C211.914,252.162 210.957,250.698 209.944,249.798C208.931,248.898 207.749,248.447 206.399,248.447L197.957,248.447C196.607,248.447 195.425,248.898 194.412,249.798C193.399,250.698 192.442,252.162 191.542,254.188ZM172.296,414.235C172.296,418.512 171.339,421.607 169.426,423.52C167.512,425.433 164.417,426.39 160.14,426.39L110.505,426.39C106.228,426.39 103.133,425.433 101.22,423.52C99.307,421.607 98.35,418.512 98.35,414.235L98.35,325.094C98.35,318.341 99.419,310.575 101.558,301.796C103.696,293.017 107.016,282.775 111.518,271.07L140.894,194.423C142.245,190.596 144.327,187.783 147.141,185.982C149.954,184.181 153.612,183.281 158.114,183.281L248.943,183.281C253.22,183.281 256.765,184.181 259.579,185.982C262.392,187.783 264.475,190.596 265.825,194.423L295.201,271.07C299.703,282.775 303.023,293.017 305.162,301.796C307.3,310.575 308.369,318.341 308.369,325.094L308.369,414.235C308.369,418.512 307.413,421.607 305.499,423.52C303.586,425.433 300.491,426.39 296.214,426.39L245.229,426.39C240.726,426.39 237.406,425.433 235.268,423.52C233.129,421.607 232.06,418.512 232.06,414.235L232.06,366.963L172.296,366.963L172.296,414.235Z" style="fill:rgb(255,0,0);fill-rule:nonzero;"/>
                    <path d="M511.636,426.39L429.249,426.39C401.111,426.39 380.233,420.763 366.614,409.507C352.996,398.252 346.186,380.92 346.186,357.509L346.186,252.499C346.186,229.089 352.996,211.7 366.614,200.332C380.233,188.964 401.111,183.281 429.249,183.281L511.636,183.281C515.913,183.281 519.008,184.237 520.921,186.151C522.835,188.064 523.791,191.159 523.791,195.436L523.791,236.292C523.791,240.569 522.835,243.664 520.921,245.577C519.008,247.491 515.913,248.447 511.636,248.447L443.768,248.447C436.79,248.447 431.612,249.854 428.236,252.668C424.859,255.482 423.171,259.702 423.171,265.33L423.171,345.691C423.171,351.319 424.859,355.427 428.236,358.016C431.612,360.604 436.79,361.899 443.768,361.899L511.636,361.899C515.913,361.899 519.008,362.855 520.921,364.769C522.835,366.682 523.791,369.777 523.791,374.054L523.791,414.235C523.791,418.512 522.835,421.607 520.921,423.52C519.008,425.433 515.913,426.39 511.636,426.39Z" style="fill:rgb(255,0,0);fill-rule:nonzero;"/>
                    <path d="M650.073,254.188L634.204,305.511L687.215,305.511L671.345,254.188C670.445,252.162 669.488,250.698 668.475,249.798C667.462,248.898 666.281,248.447 664.93,248.447L656.489,248.447C655.138,248.447 653.956,248.898 652.943,249.798C651.93,250.698 650.974,252.162 650.073,254.188ZM630.827,414.235C630.827,418.512 629.87,421.607 627.957,423.52C626.044,425.433 622.949,426.39 618.672,426.39L569.037,426.39C564.76,426.39 561.665,425.433 559.751,423.52C557.838,421.607 556.881,418.512 556.881,414.235L556.881,325.094C556.881,318.341 557.951,310.575 560.089,301.796C562.228,293.017 565.548,282.775 570.05,271.07L599.426,194.423C600.776,190.596 602.858,187.783 605.672,185.982C608.486,184.181 612.144,183.281 616.646,183.281L707.474,183.281C711.751,183.281 715.296,184.181 718.11,185.982C720.924,187.783 723.006,190.596 724.357,194.423L753.732,271.07C758.235,282.775 761.555,293.017 763.693,301.796C765.832,310.575 766.901,318.341 766.901,325.094L766.901,414.235C766.901,418.512 765.944,421.607 764.031,423.52C762.118,425.433 759.022,426.39 754.745,426.39L703.76,426.39C699.258,426.39 695.938,425.433 693.799,423.52C691.661,421.607 690.592,418.512 690.592,414.235L690.592,366.963L630.827,366.963L630.827,414.235Z" style="fill:rgb(255,0,0);fill-rule:nonzero;"/>
                    <path d="M950.246,426.39L820.588,426.39C816.311,426.39 813.216,425.433 811.302,423.52C809.389,421.607 808.432,418.512 808.432,414.235L808.432,195.436C808.432,191.159 809.389,188.064 811.302,186.151C813.216,184.237 816.311,183.281 820.588,183.281L928.299,183.281C950.359,183.281 966.678,187.501 977.258,195.943C987.838,204.384 993.128,217.383 993.128,234.941L993.128,251.149C993.128,260.603 991.496,268.313 988.232,274.278C984.968,280.243 979.959,284.689 973.206,287.615C987.613,288.966 998.305,293.918 1005.28,302.472C1012.26,311.026 1015.75,323.519 1015.75,339.951L1015.75,371.015C1015.75,389.924 1010.4,403.88 999.712,412.884C989.02,421.888 972.531,426.39 950.246,426.39ZM884.404,240.681L884.404,277.148L913.104,277.148C917.381,277.148 920.589,276.022 922.727,273.771C924.866,271.52 925.935,268.144 925.935,263.642L925.935,254.188C925.935,249.685 924.866,246.309 922.727,244.058C920.589,241.807 917.381,240.681 913.104,240.681L884.404,240.681ZM884.404,329.146L884.404,368.989L928.299,368.989C932.576,368.989 935.783,367.864 937.922,365.613C940.06,363.362 941.129,359.985 941.129,355.483L941.129,342.315C941.129,337.813 940.06,334.492 937.922,332.354C935.783,330.215 932.576,329.146 928.299,329.146L884.404,329.146Z" style="fill:rgb(255,0,0);fill-rule:nonzero;"/>
                    <path d="M1135.62,426.39L1067.41,426.39C1063.13,426.39 1060.04,425.433 1058.13,423.52C1056.21,421.607 1055.26,418.512 1055.26,414.235L1055.26,345.691C1055.26,341.414 1056.21,338.319 1058.13,336.406C1060.04,334.492 1063.13,333.536 1067.41,333.536L1135.62,333.536C1139.89,333.536 1142.99,334.492 1144.9,336.406C1146.82,338.319 1147.77,341.414 1147.77,345.691L1147.77,414.235C1147.77,418.512 1146.82,421.607 1144.9,423.52C1142.99,425.433 1139.89,426.39 1135.62,426.39Z" style="fill:rgb(255,0,0);fill-rule:nonzero;"/>
                    <path d="M1351.38,426.39L1268.99,426.39C1240.85,426.39 1219.97,420.763 1206.36,409.507C1192.74,398.252 1185.93,380.92 1185.93,357.509L1185.93,252.499C1185.93,229.089 1192.74,211.7 1206.36,200.332C1219.97,188.964 1240.85,183.281 1268.99,183.281L1351.38,183.281C1355.65,183.281 1358.75,184.237 1360.66,186.151C1362.58,188.064 1363.53,191.159 1363.53,195.436L1363.53,236.292C1363.53,240.569 1362.58,243.664 1360.66,245.577C1358.75,247.491 1355.65,248.447 1351.38,248.447L1283.51,248.447C1276.53,248.447 1271.35,249.854 1267.98,252.668C1264.6,255.482 1262.91,259.702 1262.91,265.33L1262.91,345.691C1262.91,351.319 1264.6,355.427 1267.98,358.016C1271.35,360.604 1276.53,361.899 1283.51,361.899L1351.38,361.899C1355.65,361.899 1358.75,362.855 1360.66,364.769C1362.58,366.682 1363.53,369.777 1363.53,374.054L1363.53,414.235C1363.53,418.512 1362.58,421.607 1360.66,423.52C1358.75,425.433 1355.65,426.39 1351.38,426.39Z" style="fill:rgb(255,0,0);fill-rule:nonzero;"/>
                    <path d="M1408.44,426.39C1404.16,426.39 1401.07,425.433 1399.15,423.52C1397.24,421.607 1396.28,418.512 1396.28,414.235L1396.28,374.054C1396.28,369.777 1397.24,366.682 1399.15,364.769C1401.07,362.855 1404.16,361.899 1408.44,361.899L1441.87,361.899L1441.87,248.447L1408.44,248.447C1404.16,248.447 1401.07,247.491 1399.15,245.577C1397.24,243.664 1396.28,240.569 1396.28,236.292L1396.28,195.436C1396.28,191.159 1397.24,188.064 1399.15,186.151C1401.07,184.237 1404.16,183.281 1408.44,183.281L1552.28,183.281C1556.56,183.281 1559.65,184.237 1561.57,186.151C1563.48,188.064 1564.43,191.159 1564.43,195.436L1564.43,236.292C1564.43,240.569 1563.48,243.664 1561.57,245.577C1559.65,247.491 1556.56,248.447 1552.28,248.447L1519.53,248.447L1519.53,361.899L1552.28,361.899C1556.56,361.899 1559.65,362.855 1561.57,364.769C1563.48,366.682 1564.43,369.777 1564.43,374.054L1564.43,414.235C1564.43,418.512 1563.48,421.607 1561.57,423.52C1559.65,425.433 1556.56,426.39 1552.28,426.39L1408.44,426.39Z" style="fill:rgb(255,0,0);fill-rule:nonzero;"/>
                    <path d="M1720.77,426.39L1666.07,426.39C1661.79,426.39 1658.7,425.433 1656.78,423.52C1654.87,421.607 1653.91,418.512 1653.91,414.235L1653.91,248.447L1604.28,248.447C1600,248.447 1596.91,247.491 1594.99,245.577C1593.08,243.664 1592.12,240.569 1592.12,236.292L1592.12,195.436C1592.12,191.159 1593.08,188.064 1594.99,186.151C1596.91,184.237 1600,183.281 1604.28,183.281L1782.56,183.281C1786.84,183.281 1789.93,184.237 1791.84,186.151C1793.76,188.064 1794.71,191.159 1794.71,195.436L1794.71,236.292C1794.71,240.569 1793.76,243.664 1791.84,245.577C1789.93,247.491 1786.84,248.447 1782.56,248.447L1732.92,248.447L1732.92,414.235C1732.92,418.512 1731.97,421.607 1730.05,423.52C1728.14,425.433 1725.05,426.39 1720.77,426.39Z" style="fill:rgb(255,0,0);fill-rule:nonzero;"/>
                    <path d="M1954.09,426.39L1899.39,426.39C1895.11,426.39 1892.01,425.433 1890.1,423.52C1888.19,421.607 1887.23,418.512 1887.23,414.235L1887.23,371.015L1835.57,301.796C1830.39,294.818 1826.96,288.741 1825.27,283.563C1823.58,278.386 1822.74,270.62 1822.74,260.265L1822.74,195.436C1822.74,191.159 1823.7,188.064 1825.61,186.151C1827.52,184.237 1830.62,183.281 1834.89,183.281L1886.89,183.281C1891.17,183.281 1894.27,184.237 1896.18,186.151C1898.09,188.064 1899.05,191.159 1899.05,195.436L1899.05,250.811C1899.05,253.062 1899.16,255.426 1899.39,257.902C1899.61,260.378 1900.51,262.741 1902.09,264.992L1917.62,289.303C1918.75,291.329 1919.93,292.792 1921.16,293.693C1922.4,294.593 1923.92,295.043 1925.72,295.043L1929.1,295.043C1930.9,295.043 1932.42,294.593 1933.66,293.693C1934.9,292.792 1936.08,291.329 1937.2,289.303L1952.74,264.992C1954.31,262.741 1955.21,260.378 1955.44,257.902C1955.66,255.426 1955.77,253.062 1955.77,250.811L1955.77,195.436C1955.77,191.159 1956.73,188.064 1958.64,186.151C1960.56,184.237 1963.65,183.281 1967.93,183.281L2018.24,183.281C2022.52,183.281 2025.61,184.237 2027.53,186.151C2029.44,188.064 2030.39,191.159 2030.39,195.436L2030.39,260.265C2030.39,270.62 2029.49,278.386 2027.69,283.563C2025.89,288.741 2022.52,294.818 2017.56,301.796L1966.24,371.353L1966.24,414.235C1966.24,418.512 1965.28,421.607 1963.37,423.52C1961.46,425.433 1958.36,426.39 1954.09,426.39Z" style="fill:rgb(255,0,0);fill-rule:nonzero;"/>
                </g>
                <g transform="matrix(0.351575,0,0,0.351575,245.323,114.153)">
                    <path d="M191.542,254.188L175.672,305.511L228.684,305.511L212.814,254.188C211.914,252.162 210.957,250.698 209.944,249.798C208.931,248.898 207.749,248.447 206.399,248.447L197.957,248.447C196.607,248.447 195.425,248.898 194.412,249.798C193.399,250.698 192.442,252.162 191.542,254.188ZM172.296,414.235C172.296,418.512 171.339,421.607 169.426,423.52C167.512,425.433 164.417,426.39 160.14,426.39L110.505,426.39C106.228,426.39 103.133,425.433 101.22,423.52C99.307,421.607 98.35,418.512 98.35,414.235L98.35,325.094C98.35,318.341 99.419,310.575 101.558,301.796C103.696,293.017 107.016,282.775 111.518,271.07L140.894,194.423C142.245,190.596 144.327,187.783 147.141,185.982C149.954,184.181 153.612,183.281 158.114,183.281L248.943,183.281C253.22,183.281 256.765,184.181 259.579,185.982C262.392,187.783 264.475,190.596 265.825,194.423L295.201,271.07C299.703,282.775 303.023,293.017 305.162,301.796C307.3,310.575 308.369,318.341 308.369,325.094L308.369,414.235C308.369,418.512 307.413,421.607 305.499,423.52C303.586,425.433 300.491,426.39 296.214,426.39L245.229,426.39C240.726,426.39 237.406,425.433 235.268,423.52C233.129,421.607 232.06,418.512 232.06,414.235L232.06,366.963L172.296,366.963L172.296,414.235Z" style="fill:white;fill-rule:nonzero;stroke:black;stroke-width:7.13px;"/>
                    <path d="M511.636,426.39L429.249,426.39C401.111,426.39 380.233,420.763 366.614,409.507C352.996,398.252 346.186,380.92 346.186,357.509L346.186,252.499C346.186,229.089 352.996,211.7 366.614,200.332C380.233,188.964 401.111,183.281 429.249,183.281L511.636,183.281C515.913,183.281 519.008,184.237 520.921,186.151C522.835,188.064 523.791,191.159 523.791,195.436L523.791,236.292C523.791,240.569 522.835,243.664 520.921,245.577C519.008,247.491 515.913,248.447 511.636,248.447L443.768,248.447C436.79,248.447 431.612,249.854 428.236,252.668C424.859,255.482 423.171,259.702 423.171,265.33L423.171,345.691C423.171,351.319 424.859,355.427 428.236,358.016C431.612,360.604 436.79,361.899 443.768,361.899L511.636,361.899C515.913,361.899 519.008,362.855 520.921,364.769C522.835,366.682 523.791,369.777 523.791,374.054L523.791,414.235C523.791,418.512 522.835,421.607 520.921,423.52C519.008,425.433 515.913,426.39 511.636,426.39Z" style="fill:white;fill-rule:nonzero;stroke:black;stroke-width:7.13px;"/>
                    <path d="M650.073,254.188L634.204,305.511L687.215,305.511L671.345,254.188C670.445,252.162 669.488,250.698 668.475,249.798C667.462,248.898 666.281,248.447 664.93,248.447L656.489,248.447C655.138,248.447 653.956,248.898 652.943,249.798C651.93,250.698 650.974,252.162 650.073,254.188ZM630.827,414.235C630.827,418.512 629.87,421.607 627.957,423.52C626.044,425.433 622.949,426.39 618.672,426.39L569.037,426.39C564.76,426.39 561.665,425.433 559.751,423.52C557.838,421.607 556.881,418.512 556.881,414.235L556.881,325.094C556.881,318.341 557.951,310.575 560.089,301.796C562.228,293.017 565.548,282.775 570.05,271.07L599.426,194.423C600.776,190.596 602.858,187.783 605.672,185.982C608.486,184.181 612.144,183.281 616.646,183.281L707.474,183.281C711.751,183.281 715.296,184.181 718.11,185.982C720.924,187.783 723.006,190.596 724.357,194.423L753.732,271.07C758.235,282.775 761.555,293.017 763.693,301.796C765.832,310.575 766.901,318.341 766.901,325.094L766.901,414.235C766.901,418.512 765.944,421.607 764.031,423.52C762.118,425.433 759.022,426.39 754.745,426.39L703.76,426.39C699.258,426.39 695.938,425.433 693.799,423.52C691.661,421.607 690.592,418.512 690.592,414.235L690.592,366.963L630.827,366.963L630.827,414.235Z" style="fill:white;fill-rule:nonzero;stroke:black;stroke-width:7.13px;"/>
                    <path d="M950.246,426.39L820.588,426.39C816.311,426.39 813.216,425.433 811.302,423.52C809.389,421.607 808.432,418.512 808.432,414.235L808.432,195.436C808.432,191.159 809.389,188.064 811.302,186.151C813.216,184.237 816.311,183.281 820.588,183.281L928.299,183.281C950.359,183.281 966.678,187.501 977.258,195.943C987.838,204.384 993.128,217.383 993.128,234.941L993.128,251.149C993.128,260.603 991.496,268.313 988.232,274.278C984.968,280.243 979.959,284.689 973.206,287.615C987.613,288.966 998.305,293.918 1005.28,302.472C1012.26,311.026 1015.75,323.519 1015.75,339.951L1015.75,371.015C1015.75,389.924 1010.4,403.88 999.712,412.884C989.02,421.888 972.531,426.39 950.246,426.39ZM884.404,240.681L884.404,277.148L913.104,277.148C917.381,277.148 920.589,276.022 922.727,273.771C924.866,271.52 925.935,268.144 925.935,263.642L925.935,254.188C925.935,249.685 924.866,246.309 922.727,244.058C920.589,241.807 917.381,240.681 913.104,240.681L884.404,240.681ZM884.404,329.146L884.404,368.989L928.299,368.989C932.576,368.989 935.783,367.864 937.922,365.613C940.06,363.362 941.129,359.985 941.129,355.483L941.129,342.315C941.129,337.813 940.06,334.492 937.922,332.354C935.783,330.215 932.576,329.146 928.299,329.146L884.404,329.146Z" style="fill:white;fill-rule:nonzero;stroke:black;stroke-width:7.13px;"/>
                    <path d="M1135.62,426.39L1067.41,426.39C1063.13,426.39 1060.04,425.433 1058.13,423.52C1056.21,421.607 1055.26,418.512 1055.26,414.235L1055.26,345.691C1055.26,341.414 1056.21,338.319 1058.13,336.406C1060.04,334.492 1063.13,333.536 1067.41,333.536L1135.62,333.536C1139.89,333.536 1142.99,334.492 1144.9,336.406C1146.82,338.319 1147.77,341.414 1147.77,345.691L1147.77,414.235C1147.77,418.512 1146.82,421.607 1144.9,423.52C1142.99,425.433 1139.89,426.39 1135.62,426.39Z" style="fill:white;fill-rule:nonzero;stroke:black;stroke-width:7.13px;"/>
                    <path d="M1351.38,426.39L1268.99,426.39C1240.85,426.39 1219.97,420.763 1206.36,409.507C1192.74,398.252 1185.93,380.92 1185.93,357.509L1185.93,252.499C1185.93,229.089 1192.74,211.7 1206.36,200.332C1219.97,188.964 1240.85,183.281 1268.99,183.281L1351.38,183.281C1355.65,183.281 1358.75,184.237 1360.66,186.151C1362.58,188.064 1363.53,191.159 1363.53,195.436L1363.53,236.292C1363.53,240.569 1362.58,243.664 1360.66,245.577C1358.75,247.491 1355.65,248.447 1351.38,248.447L1283.51,248.447C1276.53,248.447 1271.35,249.854 1267.98,252.668C1264.6,255.482 1262.91,259.702 1262.91,265.33L1262.91,345.691C1262.91,351.319 1264.6,355.427 1267.98,358.016C1271.35,360.604 1276.53,361.899 1283.51,361.899L1351.38,361.899C1355.65,361.899 1358.75,362.855 1360.66,364.769C1362.58,366.682 1363.53,369.777 1363.53,374.054L1363.53,414.235C1363.53,418.512 1362.58,421.607 1360.66,423.52C1358.75,425.433 1355.65,426.39 1351.38,426.39Z" style="fill:white;fill-rule:nonzero;stroke:black;stroke-width:7.13px;"/>
                    <path d="M1408.44,426.39C1404.16,426.39 1401.07,425.433 1399.15,423.52C1397.24,421.607 1396.28,418.512 1396.28,414.235L1396.28,374.054C1396.28,369.777 1397.24,366.682 1399.15,364.769C1401.07,362.855 1404.16,361.899 1408.44,361.899L1441.87,361.899L1441.87,248.447L1408.44,248.447C1404.16,248.447 1401.07,247.491 1399.15,245.577C1397.24,243.664 1396.28,240.569 1396.28,236.292L1396.28,195.436C1396.28,191.159 1397.24,188.064 1399.15,186.151C1401.07,184.237 1404.16,183.281 1408.44,183.281L1552.28,183.281C1556.56,183.281 1559.65,184.237 1561.57,186.151C1563.48,188.064 1564.43,191.159 1564.43,195.436L1564.43,236.292C1564.43,240.569 1563.48,243.664 1561.57,245.577C1559.65,247.491 1556.56,248.447 1552.28,248.447L1519.53,248.447L1519.53,361.899L1552.28,361.899C1556.56,361.899 1559.65,362.855 1561.57,364.769C1563.48,366.682 1564.43,369.777 1564.43,374.054L1564.43,414.235C1564.43,418.512 1563.48,421.607 1561.57,423.52C1559.65,425.433 1556.56,426.39 1552.28,426.39L1408.44,426.39Z" style="fill:white;fill-rule:nonzero;stroke:black;stroke-width:7.13px;"/>
                    <path d="M1720.77,426.39L1666.07,426.39C1661.79,426.39 1658.7,425.433 1656.78,423.52C1654.87,421.607 1653.91,418.512 1653.91,414.235L1653.91,248.447L1604.28,248.447C1600,248.447 1596.91,247.491 1594.99,245.577C1593.08,243.664 1592.12,240.569 1592.12,236.292L1592.12,195.436C1592.12,191.159 1593.08,188.064 1594.99,186.151C1596.91,184.237 1600,183.281 1604.28,183.281L1782.56,183.281C1786.84,183.281 1789.93,184.237 1791.84,186.151C1793.76,188.064 1794.71,191.159 1794.71,195.436L1794.71,236.292C1794.71,240.569 1793.76,243.664 1791.84,245.577C1789.93,247.491 1786.84,248.447 1782.56,248.447L1732.92,248.447L1732.92,414.235C1732.92,418.512 1731.97,421.607 1730.05,423.52C1728.14,425.433 1725.05,426.39 1720.77,426.39Z" style="fill:white;fill-rule:nonzero;stroke:black;stroke-width:7.13px;"/>
                    <path d="M1954.09,426.39L1899.39,426.39C1895.11,426.39 1892.01,425.433 1890.1,423.52C1888.19,421.607 1887.23,418.512 1887.23,414.235L1887.23,371.015L1835.57,301.796C1830.39,294.818 1826.96,288.741 1825.27,283.563C1823.58,278.386 1822.74,270.62 1822.74,260.265L1822.74,195.436C1822.74,191.159 1823.7,188.064 1825.61,186.151C1827.52,184.237 1830.62,183.281 1834.89,183.281L1886.89,183.281C1891.17,183.281 1894.27,184.237 1896.18,186.151C1898.09,188.064 1899.05,191.159 1899.05,195.436L1899.05,250.811C1899.05,253.062 1899.16,255.426 1899.39,257.902C1899.61,260.378 1900.51,262.741 1902.09,264.992L1917.62,289.303C1918.75,291.329 1919.93,292.792 1921.16,293.693C1922.4,294.593 1923.92,295.043 1925.72,295.043L1929.1,295.043C1930.9,295.043 1932.42,294.593 1933.66,293.693C1934.9,292.792 1936.08,291.329 1937.2,289.303L1952.74,264.992C1954.31,262.741 1955.21,260.378 1955.44,257.902C1955.66,255.426 1955.77,253.062 1955.77,250.811L1955.77,195.436C1955.77,191.159 1956.73,188.064 1958.64,186.151C1960.56,184.237 1963.65,183.281 1967.93,183.281L2018.24,183.281C2022.52,183.281 2025.61,184.237 2027.53,186.151C2029.44,188.064 2030.39,191.159 2030.39,195.436L2030.39,260.265C2030.39,270.62 2029.49,278.386 2027.69,283.563C2025.89,288.741 2022.52,294.818 2017.56,301.796L1966.24,371.353L1966.24,414.235C1966.24,418.512 1965.28,421.607 1963.37,423.52C1961.46,425.433 1958.36,426.39 1954.09,426.39Z" style="fill:white;fill-rule:nonzero;stroke:black;stroke-width:7.13px;"/>
                </g>
            </g>
        </g>
    </g>
</svg>
