<?xml version="1.0" encoding="UTF-8" standalone="no"?><!DOCTYPE svg PUBLIC "-//W3C//DTD SVG 1.1//EN" "http://www.w3.org/Graphics/SVG/1.1/DTD/svg11.dtd"><svg width="100%" height="100%" viewBox="0 0 1200 200" version="1.1" xmlns="http://www.w3.org/2000/svg" xmlns:xlink="http://www.w3.org/1999/xlink" xml:space="preserve" xmlns:serif="http://www.serif.com/" style="fill-rule:evenodd;clip-rule:evenodd;stroke-linejoin:round;stroke-miterlimit:2;"><g><rect x="0" y="0" width="1200" height="200"/><g><path d="M82.628,70.853l-9.407,29.536l31.423,-0l-9.407,-29.536c-0.534,-1.166 -1.101,-2.008 -1.701,-2.526c-0.601,-0.519 -1.301,-0.778 -2.102,-0.778l-5.004,0c-0.8,0 -1.501,0.259 -2.101,0.778c-0.6,0.518 -1.168,1.36 -1.701,2.526Zm-11.408,92.105c-0,2.462 -0.568,4.243 -1.702,5.344c-1.134,1.101 -2.969,1.652 -5.504,1.652l-29.421,-0c-2.535,-0 -4.37,-0.551 -5.504,-1.652c-1.134,-1.101 -1.701,-2.882 -1.701,-5.344l-0,-51.299c-0,-3.886 0.634,-8.356 1.901,-13.408c1.268,-5.052 3.236,-10.946 5.905,-17.683l17.412,-44.109c0.801,-2.202 2.035,-3.822 3.703,-4.858c1.668,-1.036 3.836,-1.555 6.504,-1.555l53.839,0c2.535,0 4.637,0.519 6.305,1.555c1.668,1.036 2.902,2.656 3.702,4.858l17.413,44.109c2.669,6.737 4.637,12.631 5.904,17.683c1.268,5.052 1.902,9.522 1.902,13.408l-0,51.299c-0,2.462 -0.568,4.243 -1.702,5.344c-1.134,1.101 -2.968,1.652 -5.504,1.652l-30.221,-0c-2.669,-0 -4.637,-0.551 -5.905,-1.652c-1.267,-1.101 -1.901,-2.882 -1.901,-5.344l-0,-27.204l-35.425,0l-0,27.204Z" style="fill:#fff;fill-rule:nonzero;"/><path d="M272.364,169.954l-48.835,-0c-16.679,-0 -29.054,-3.239 -37.127,-9.716c-8.072,-6.477 -12.108,-16.452 -12.108,-29.925l-0,-60.432c-0,-13.472 4.036,-23.48 12.108,-30.022c8.073,-6.542 20.448,-9.813 37.127,-9.813l48.835,0c2.535,0 4.37,0.551 5.504,1.652c1.134,1.101 1.701,2.882 1.701,5.344l0,23.512c0,2.461 -0.567,4.242 -1.701,5.344c-1.134,1.101 -2.969,1.651 -5.504,1.651l-40.229,0c-4.136,0 -7.205,0.81 -9.206,2.429c-2.002,1.62 -3.002,4.048 -3.002,7.287l-0,46.247c-0,3.239 1,5.603 3.002,7.093c2.001,1.489 5.07,2.234 9.206,2.234l40.229,0c2.535,0 4.37,0.551 5.504,1.652c1.134,1.101 1.701,2.882 1.701,5.344l0,23.123c0,2.462 -0.567,4.243 -1.701,5.344c-1.134,1.101 -2.969,1.652 -5.504,1.652Z" style="fill:#fff;fill-rule:nonzero;"/><path d="M354.423,70.853l-9.406,29.536l31.422,-0l-9.407,-29.536c-0.533,-1.166 -1.1,-2.008 -1.701,-2.526c-0.6,-0.519 -1.301,-0.778 -2.101,-0.778l-5.004,0c-0.801,0 -1.501,0.259 -2.101,0.778c-0.601,0.518 -1.168,1.36 -1.702,2.526Zm-11.408,92.105c0,2.462 -0.567,4.243 -1.701,5.344c-1.134,1.101 -2.969,1.652 -5.504,1.652l-29.421,-0c-2.535,-0 -4.37,-0.551 -5.504,-1.652c-1.134,-1.101 -1.701,-2.882 -1.701,-5.344l-0,-51.299c-0,-3.886 0.633,-8.356 1.901,-13.408c1.267,-5.052 3.236,-10.946 5.904,-17.683l17.413,-44.109c0.8,-2.202 2.034,-3.822 3.702,-4.858c1.668,-1.036 3.836,-1.555 6.505,-1.555l53.839,0c2.535,0 4.636,0.519 6.304,1.555c1.668,1.036 2.902,2.656 3.703,4.858l17.413,44.109c2.668,6.737 4.636,12.631 5.904,17.683c1.267,5.052 1.901,9.522 1.901,13.408l0,51.299c0,2.462 -0.567,4.243 -1.701,5.344c-1.134,1.101 -2.969,1.652 -5.504,1.652l-30.222,-0c-2.668,-0 -4.636,-0.551 -5.904,-1.652c-1.268,-1.101 -1.901,-2.882 -1.901,-5.344l-0,-27.204l-35.426,0l0,27.204Z" style="fill:#fff;fill-rule:nonzero;"/><path d="M532.351,169.954l-76.855,-0c-2.535,-0 -4.37,-0.551 -5.504,-1.652c-1.134,-1.101 -1.701,-2.882 -1.701,-5.344l-0,-125.916c-0,-2.462 0.567,-4.243 1.701,-5.344c1.134,-1.101 2.969,-1.652 5.504,-1.652l63.846,0c13.076,0 22.75,2.429 29.021,7.287c6.271,4.858 9.407,12.339 9.407,22.444l-0,9.327c-0,5.441 -0.968,9.878 -2.902,13.31c-1.935,3.433 -4.904,5.992 -8.907,7.676c8.54,0.777 14.877,3.627 19.014,8.55c4.136,4.922 6.204,12.112 6.204,21.569l0,17.877c0,10.882 -3.169,18.913 -9.507,24.095c-6.337,5.182 -16.111,7.773 -29.321,7.773Zm-39.028,-106.874l0,20.986l17.012,0c2.536,0 4.437,-0.648 5.705,-1.943c1.267,-1.295 1.901,-3.239 1.901,-5.83l-0,-5.44c-0,-2.591 -0.634,-4.534 -1.901,-5.83c-1.268,-1.295 -3.169,-1.943 -5.705,-1.943l-17.012,0Zm0,50.911l0,22.929l26.019,-0c2.535,-0 4.436,-0.648 5.704,-1.943c1.268,-1.296 1.901,-3.239 1.901,-5.83l0,-7.578c0,-2.591 -0.633,-4.502 -1.901,-5.732c-1.268,-1.231 -3.169,-1.846 -5.704,-1.846l-26.019,-0Z" style="fill:#fff;fill-rule:nonzero;"/><path d="M642.23,169.954l-40.429,-0c-2.535,-0 -4.37,-0.551 -5.504,-1.652c-1.134,-1.101 -1.701,-2.882 -1.701,-5.344l0,-39.446c0,-2.461 0.567,-4.242 1.701,-5.343c1.134,-1.102 2.969,-1.652 5.504,-1.652l40.429,-0c2.536,-0 4.37,0.55 5.504,1.652c1.134,1.101 1.702,2.882 1.702,5.343l-0,39.446c-0,2.462 -0.568,4.243 -1.702,5.344c-1.134,1.101 -2.968,1.652 -5.504,1.652Z" style="fill:#fff;fill-rule:nonzero;"/><path d="M770.122,169.954l-48.835,-0c-16.678,-0 -29.054,-3.239 -37.126,-9.716c-8.073,-6.477 -12.109,-16.452 -12.109,-29.925l-0,-60.432c-0,-13.472 4.036,-23.48 12.109,-30.022c8.072,-6.542 20.448,-9.813 37.126,-9.813l48.835,0c2.536,0 4.37,0.551 5.504,1.652c1.135,1.101 1.702,2.882 1.702,5.344l-0,23.512c-0,2.461 -0.567,4.242 -1.702,5.344c-1.134,1.101 -2.968,1.651 -5.504,1.651l-40.229,0c-4.136,0 -7.205,0.81 -9.206,2.429c-2.002,1.62 -3.002,4.048 -3.002,7.287l-0,46.247c-0,3.239 1,5.603 3.002,7.093c2.001,1.489 5.07,2.234 9.206,2.234l40.229,0c2.536,0 4.37,0.551 5.504,1.652c1.135,1.101 1.702,2.882 1.702,5.344l-0,23.123c-0,2.462 -0.567,4.243 -1.702,5.344c-1.134,1.101 -2.968,1.652 -5.504,1.652Z" style="fill:#fff;fill-rule:nonzero;"/><path d="M803.947,169.954c-2.535,-0 -4.37,-0.551 -5.504,-1.652c-1.134,-1.101 -1.701,-2.882 -1.701,-5.344l-0,-23.123c-0,-2.462 0.567,-4.243 1.701,-5.344c1.134,-1.101 2.969,-1.652 5.504,-1.652l19.814,0l0,-65.29l-19.814,0c-2.535,0 -4.37,-0.55 -5.504,-1.651c-1.134,-1.102 -1.701,-2.883 -1.701,-5.344l-0,-23.512c-0,-2.462 0.567,-4.243 1.701,-5.344c1.134,-1.101 2.969,-1.652 5.504,-1.652l85.261,0c2.535,0 4.37,0.551 5.504,1.652c1.134,1.101 1.701,2.882 1.701,5.344l0,23.512c0,2.461 -0.567,4.242 -1.701,5.344c-1.134,1.101 -2.969,1.651 -5.504,1.651l-19.414,0l0,65.29l19.414,0c2.535,0 4.37,0.551 5.504,1.652c1.134,1.101 1.701,2.882 1.701,5.344l0,23.123c0,2.462 -0.567,4.243 -1.701,5.344c-1.134,1.101 -2.969,1.652 -5.504,1.652l-85.261,-0Z" style="fill:#fff;fill-rule:nonzero;"/><path d="M989.08,169.954l-32.423,-0c-2.536,-0 -4.37,-0.551 -5.504,-1.652c-1.134,-1.101 -1.702,-2.882 -1.702,-5.344l0,-95.409l-29.421,0c-2.535,0 -4.37,-0.55 -5.504,-1.651c-1.134,-1.102 -1.701,-2.883 -1.701,-5.344l0,-23.512c0,-2.462 0.567,-4.243 1.701,-5.344c1.134,-1.101 2.969,-1.652 5.504,-1.652l105.676,0c2.535,0 4.37,0.551 5.504,1.652c1.134,1.101 1.702,2.882 1.702,5.344l-0,23.512c-0,2.461 -0.568,4.242 -1.702,5.344c-1.134,1.101 -2.969,1.651 -5.504,1.651l-29.421,0l0,95.409c0,2.462 -0.567,4.243 -1.701,5.344c-1.134,1.101 -2.969,1.652 -5.504,1.652Z" style="fill:#fff;fill-rule:nonzero;"/><path d="M1127.38,169.954l-32.423,-0c-2.535,-0 -4.37,-0.551 -5.504,-1.652c-1.134,-1.101 -1.701,-2.882 -1.701,-5.344l-0,-24.872l-30.622,-39.835c-3.069,-4.016 -5.104,-7.513 -6.104,-10.493c-1.001,-2.979 -1.502,-7.449 -1.502,-13.408l0,-37.308c0,-2.462 0.568,-4.243 1.702,-5.344c1.134,-1.101 2.968,-1.652 5.504,-1.652l30.822,0c2.535,0 4.37,0.551 5.504,1.652c1.134,1.101 1.701,2.882 1.701,5.344l0,31.868c0,1.295 0.067,2.655 0.2,4.08c0.134,1.425 0.667,2.785 1.601,4.081l9.207,13.99c0.667,1.166 1.368,2.008 2.101,2.527c0.734,0.518 1.635,0.777 2.702,0.777l2.002,-0c1.067,-0 1.968,-0.259 2.702,-0.777c0.734,-0.519 1.434,-1.361 2.101,-2.527l9.207,-13.99c0.934,-1.296 1.468,-2.656 1.601,-4.081c0.133,-1.425 0.2,-2.785 0.2,-4.08l0,-31.868c0,-2.462 0.567,-4.243 1.701,-5.344c1.135,-1.101 2.969,-1.652 5.504,-1.652l29.822,0c2.535,0 4.37,0.551 5.504,1.652c1.134,1.101 1.701,2.882 1.701,5.344l0,37.308c0,5.959 -0.534,10.429 -1.601,13.408c-1.068,2.98 -3.069,6.477 -6.004,10.493l-30.422,40.029l-0,24.678c-0,2.462 -0.567,4.243 -1.702,5.344c-1.134,1.101 -2.968,1.652 -5.504,1.652Z" style="fill:#fff;fill-rule:nonzero;"/></g></g></svg>