<?xml version="1.0" encoding="UTF-8" standalone="no"?><!DOCTYPE svg PUBLIC "-//W3C//DTD SVG 1.1//EN" "http://www.w3.org/Graphics/SVG/1.1/DTD/svg11.dtd"><svg width="100%" height="100%" viewBox="0 0 332 82" version="1.1" xmlns="http://www.w3.org/2000/svg" xmlns:xlink="http://www.w3.org/1999/xlink" xml:space="preserve" xmlns:serif="http://www.serif.com/" style="fill-rule:evenodd;clip-rule:evenodd;stroke-linejoin:round;stroke-miterlimit:2;"><g><path d="M331.047,20.281c0,-11.193 -9.088,-20.281 -20.281,-20.281l-290.485,0c-11.193,0 -20.281,9.088 -20.281,20.281l-0,40.562c-0,11.194 9.088,20.282 20.281,20.282l290.485,-0c11.193,-0 20.281,-9.088 20.281,-20.282l0,-40.562Z" style="fill:#fff;"/><g><g><path d="M75.159,59.12l-7.99,-0c-0.653,-0 -1.125,-0.146 -1.417,-0.438c-0.293,-0.293 -0.439,-0.765 -0.439,-1.418l0,-33.403c0,-0.653 0.146,-1.126 0.439,-1.418c0.292,-0.292 0.764,-0.438 1.417,-0.438l22.991,-0c0.653,-0 1.125,0.146 1.417,0.438c0.292,0.292 0.438,0.765 0.438,1.418l0,6.134c0,0.653 -0.146,1.125 -0.438,1.417c-0.292,0.293 -0.764,0.439 -1.417,0.439l-13.145,-0l-0,5.361l8.969,-0c0.653,-0 1.126,0.146 1.418,0.438c0.292,0.292 0.438,0.764 0.438,1.417l0,6.186c0,0.653 -0.146,1.126 -0.438,1.418c-0.292,0.292 -0.765,0.438 -1.418,0.438l-8.969,-0l-0,10.155c-0,0.653 -0.146,1.125 -0.438,1.418c-0.292,0.292 -0.765,0.438 -1.418,0.438Z" style="fill-rule:nonzero;"/><path d="M75.159,60.995c1.283,-0 2.17,-0.414 2.744,-0.988c0.574,-0.574 0.987,-1.46 0.987,-2.743c-0,0 -0,-8.28 -0,-8.28c-0,-0 7.094,-0 7.094,-0c1.283,-0 2.17,-0.413 2.744,-0.987c0.574,-0.574 0.987,-1.461 0.987,-2.744l0,-6.186c0,-1.283 -0.413,-2.169 -0.987,-2.743c-0.574,-0.574 -1.461,-0.987 -2.744,-0.987l-7.094,-0c-0,-0 -0,-1.611 -0,-1.611c-0,-0 11.27,-0 11.27,-0c1.283,-0 2.169,-0.414 2.743,-0.988c0.574,-0.574 0.987,-1.46 0.987,-2.743c0,-0 0,-6.134 0,-6.134c0,-1.283 -0.413,-2.17 -0.987,-2.744c-0.574,-0.574 -1.46,-0.987 -2.743,-0.987l-22.991,-0c-1.283,-0 -2.169,0.413 -2.743,0.987c-0.574,0.574 -0.988,1.461 -0.988,2.744l0,33.403c0,1.283 0.414,2.169 0.988,2.743c0.574,0.574 1.46,0.988 2.743,0.988l7.99,-0Zm0,-1.875l-7.99,-0c-0.653,-0 -1.125,-0.146 -1.417,-0.438c-0.293,-0.293 -0.439,-0.765 -0.439,-1.418l0,-33.403c0,-0.653 0.146,-1.126 0.439,-1.418c0.292,-0.292 0.764,-0.438 1.417,-0.438l22.991,-0c0.653,-0 1.125,0.146 1.417,0.438c0.292,0.292 0.438,0.765 0.438,1.418l0,6.134c0,0.653 -0.146,1.125 -0.438,1.417c-0.292,0.293 -0.764,0.439 -1.417,0.439l-13.145,-0l-0,5.361l8.969,-0c0.653,-0 1.126,0.146 1.418,0.438c0.292,0.292 0.438,0.764 0.438,1.417l0,6.186c0,0.653 -0.146,1.126 -0.438,1.418c-0.292,0.292 -0.765,0.438 -1.418,0.438l-8.969,-0l-0,10.155c-0,0.653 -0.146,1.125 -0.438,1.418c-0.292,0.292 -0.765,0.438 -1.418,0.438Z" style="fill:#808080;"/><path d="M125.264,59.12l-26.238,-0c-0.653,-0 -1.125,-0.146 -1.418,-0.438c-0.292,-0.293 -0.438,-0.765 -0.438,-1.418l0,-33.403c0,-0.653 0.146,-1.126 0.438,-1.418c0.293,-0.292 0.765,-0.438 1.418,-0.438l7.99,-0c0.653,-0 1.126,0.146 1.418,0.438c0.292,0.292 0.438,0.765 0.438,1.418l-0,25.516l7.062,0l-0,-8.351c-0,-0.653 0.146,-1.125 0.438,-1.417c0.292,-0.292 0.765,-0.438 1.418,-0.438l7.474,-0c0.653,-0 1.126,0.146 1.418,0.438c0.292,0.292 0.438,0.764 0.438,1.417l-0,16.238c-0,0.653 -0.146,1.125 -0.438,1.418c-0.292,0.292 -0.765,0.438 -1.418,0.438Z" style="fill-rule:nonzero;"/><path d="M125.264,60.995c1.283,-0 2.17,-0.414 2.744,-0.988c0.574,-0.574 0.987,-1.46 0.987,-2.743l-0,-16.238c-0,-1.283 -0.413,-2.169 -0.987,-2.743c-0.574,-0.574 -1.461,-0.987 -2.744,-0.987c0,-0 -7.474,-0 -7.474,-0c-1.283,-0 -2.17,0.413 -2.744,0.987c-0.574,0.574 -0.987,1.46 -0.987,2.743l-0,6.476c-0,0 -3.312,0 -3.312,0c-0,0 -0,-23.641 -0,-23.641c-0,-1.283 -0.414,-2.17 -0.988,-2.744c-0.574,-0.574 -1.46,-0.987 -2.743,-0.987l-7.99,-0c-1.283,-0 -2.169,0.413 -2.743,0.987c-0.574,0.574 -0.988,1.461 -0.988,2.744l0,33.403c0,1.283 0.414,2.169 0.988,2.743c0.574,0.574 1.46,0.988 2.743,0.988l26.238,-0Zm0,-1.875l-26.238,-0c-0.653,-0 -1.125,-0.146 -1.418,-0.438c-0.292,-0.293 -0.438,-0.765 -0.438,-1.418l0,-33.403c0,-0.653 0.146,-1.126 0.438,-1.418c0.293,-0.292 0.765,-0.438 1.418,-0.438l7.99,-0c0.653,-0 1.126,0.146 1.418,0.438c0.292,0.292 0.438,0.765 0.438,1.418l-0,25.516l7.062,0l-0,-8.351c-0,-0.653 0.146,-1.125 0.438,-1.417c0.292,-0.292 0.765,-0.438 1.418,-0.438l7.474,-0c0.653,-0 1.126,0.146 1.418,0.438c0.292,0.292 0.438,0.764 0.438,1.417l-0,16.238c-0,0.653 -0.146,1.125 -0.438,1.418c-0.292,0.292 -0.765,0.438 -1.418,0.438Z" style="fill:#808080;"/><path d="M149.234,59.12l-8.351,-0c-0.653,-0 -1.125,-0.146 -1.417,-0.438c-0.292,-0.293 -0.438,-0.765 -0.438,-1.418l-0,-6.598l-7.887,-10.568c-0.791,-1.065 -1.315,-1.993 -1.572,-2.783c-0.258,-0.791 -0.387,-1.976 -0.387,-3.557l-0,-9.897c-0,-0.653 0.146,-1.126 0.438,-1.418c0.292,-0.292 0.765,-0.438 1.418,-0.438l7.938,-0c0.653,-0 1.126,0.146 1.418,0.438c0.292,0.292 0.438,0.765 0.438,1.418l-0,8.454c-0,0.343 0.017,0.704 0.051,1.082c0.035,0.378 0.172,0.739 0.413,1.083l2.371,3.711c0.172,0.309 0.352,0.533 0.541,0.67c0.189,0.138 0.421,0.206 0.696,0.206l0.516,0c0.275,0 0.507,-0.068 0.696,-0.206c0.189,-0.137 0.369,-0.361 0.541,-0.67l2.371,-3.711c0.241,-0.344 0.378,-0.705 0.412,-1.083c0.035,-0.378 0.052,-0.739 0.052,-1.082l0,-8.454c0,-0.653 0.146,-1.126 0.438,-1.418c0.292,-0.292 0.765,-0.438 1.418,-0.438l7.68,-0c0.653,-0 1.126,0.146 1.418,0.438c0.292,0.292 0.438,0.765 0.438,1.418l0,9.897c0,1.581 -0.137,2.766 -0.412,3.557c-0.275,0.79 -0.791,1.718 -1.547,2.783l-7.835,10.619l0,6.547c0,0.653 -0.146,1.125 -0.438,1.418c-0.292,0.292 -0.765,0.438 -1.418,0.438Z" style="fill-rule:nonzero;"/><path d="M145.162,37.048l-2.286,-3.578c-0.014,-0.022 -0.029,-0.044 -0.044,-0.066c-0.041,-0.057 -0.076,-0.113 -0.081,-0.177c-0.029,-0.318 -0.044,-0.623 -0.044,-0.912l-0,-8.454c-0,-1.283 -0.413,-2.17 -0.987,-2.744c-0.574,-0.574 -1.461,-0.987 -2.744,-0.987l-7.938,-0c-1.283,-0 -2.17,0.413 -2.744,0.987c-0.574,0.574 -0.987,1.461 -0.987,2.744l-0,9.897c-0,1.841 0.179,3.218 0.479,4.138c0.306,0.94 0.909,2.053 1.849,3.32l7.518,10.072c-0,0 -0,5.976 -0,5.976c-0,1.283 0.413,2.169 0.987,2.743c0.574,0.574 1.46,0.988 2.743,0.988l8.351,-0c1.283,-0 2.17,-0.414 2.744,-0.988c0.574,-0.574 0.987,-1.46 0.987,-2.743l0,-5.93c0,0 7.469,-10.122 7.469,-10.122c0.007,-0.01 0.014,-0.019 0.02,-0.028c0.882,-1.242 1.468,-2.332 1.789,-3.253c0.323,-0.928 0.516,-2.317 0.516,-4.173l0,-9.897c0,-1.283 -0.413,-2.17 -0.987,-2.744c-0.574,-0.574 -1.46,-0.987 -2.744,-0.987l-7.68,-0c-1.283,-0 -2.17,0.413 -2.744,0.987c-0.574,0.574 -0.987,1.461 -0.987,2.744l0,8.454c0,0.289 -0.015,0.594 -0.044,0.912c-0.006,0.064 -0.041,0.12 -0.081,0.177c-0.015,0.022 -0.03,0.044 -0.044,0.066l-2.286,3.578Zm4.072,22.072l-8.351,-0c-0.653,-0 -1.125,-0.146 -1.417,-0.438c-0.292,-0.293 -0.438,-0.765 -0.438,-1.418l-0,-6.598l-7.887,-10.568c-0.791,-1.065 -1.315,-1.993 -1.572,-2.783c-0.258,-0.791 -0.387,-1.976 -0.387,-3.557l-0,-9.897c-0,-0.653 0.146,-1.126 0.438,-1.418c0.292,-0.292 0.765,-0.438 1.418,-0.438l7.938,-0c0.653,-0 1.126,0.146 1.418,0.438c0.292,0.292 0.438,0.765 0.438,1.418l-0,8.454c-0,0.343 0.017,0.704 0.051,1.082c0.035,0.378 0.172,0.739 0.413,1.083l2.371,3.711c0.172,0.309 0.352,0.533 0.541,0.67c0.189,0.138 0.421,0.206 0.696,0.206l0.516,0c0.275,0 0.507,-0.068 0.696,-0.206c0.189,-0.137 0.369,-0.361 0.541,-0.67l2.371,-3.711c0.241,-0.344 0.378,-0.705 0.412,-1.083c0.035,-0.378 0.052,-0.739 0.052,-1.082l0,-8.454c0,-0.653 0.146,-1.126 0.438,-1.418c0.292,-0.292 0.765,-0.438 1.418,-0.438l7.68,-0c0.653,-0 1.126,0.146 1.418,0.438c0.292,0.292 0.438,0.765 0.438,1.418l0,9.897c0,1.581 -0.137,2.766 -0.412,3.557c-0.275,0.79 -0.791,1.718 -1.547,2.783l-7.835,10.619l0,6.547c0,0.653 -0.146,1.125 -0.438,1.418c-0.292,0.292 -0.765,0.438 -1.418,0.438Z" style="fill:#808080;"/><path d="M192.535,59.12l-23.919,-0c-0.652,-0 -1.125,-0.146 -1.417,-0.438c-0.292,-0.293 -0.438,-0.765 -0.438,-1.418l-0,-33.403c-0,-0.653 0.146,-1.126 0.438,-1.418c0.292,-0.292 0.765,-0.438 1.417,-0.438l23.919,-0c0.653,-0 1.125,0.146 1.418,0.438c0.292,0.292 0.438,0.765 0.438,1.418l-0,6.031c-0,0.653 -0.146,1.125 -0.438,1.417c-0.293,0.292 -0.765,0.439 -1.418,0.439l-14.227,-0l-0,3.969l10.052,-0c0.652,-0 1.125,0.146 1.417,0.438c0.292,0.292 0.438,0.765 0.438,1.418l0,5.515c0,0.653 -0.146,1.126 -0.438,1.418c-0.292,0.292 -0.765,0.438 -1.417,0.438l-10.052,-0l-0,4.433l14.227,0c0.653,0 1.125,0.146 1.418,0.438c0.292,0.292 0.438,0.765 0.438,1.418l-0,6.031c-0,0.653 -0.146,1.125 -0.438,1.418c-0.293,0.292 -0.765,0.438 -1.418,0.438Z" style="fill-rule:nonzero;"/><path d="M192.535,60.995c1.283,-0 2.169,-0.414 2.743,-0.988c0.574,-0.574 0.988,-1.46 0.988,-2.743c-0,0 -0,-6.031 -0,-6.031c-0,-1.283 -0.414,-2.17 -0.988,-2.744c-0.574,-0.574 -1.46,-0.987 -2.743,-0.987l-12.352,0c-0,0 -0,-0.683 -0,-0.683c-0,-0 8.177,-0 8.177,-0c1.283,-0 2.169,-0.413 2.743,-0.987c0.574,-0.574 0.987,-1.461 0.987,-2.744l0,-5.515c0,-1.284 -0.413,-2.17 -0.987,-2.744c-0.574,-0.574 -1.46,-0.987 -2.743,-0.987c-0,-0 -8.177,-0 -8.177,-0c-0,-0 -0,-0.219 -0,-0.219c-0,-0 12.352,-0 12.352,-0c1.283,-0 2.169,-0.414 2.743,-0.988c0.574,-0.574 0.988,-1.46 0.988,-2.743c-0,-0 -0,-6.031 -0,-6.031c-0,-1.283 -0.414,-2.17 -0.988,-2.744c-0.574,-0.574 -1.46,-0.987 -2.743,-0.987l-23.919,-0c-1.283,-0 -2.169,0.413 -2.743,0.987c-0.574,0.574 -0.987,1.461 -0.987,2.744l-0,33.403c-0,1.283 0.413,2.169 0.987,2.743c0.574,0.574 1.46,0.988 2.743,0.988l23.919,-0Zm-0,-1.875l-23.919,-0c-0.652,-0 -1.125,-0.146 -1.417,-0.438c-0.292,-0.293 -0.438,-0.765 -0.438,-1.418l-0,-33.403c-0,-0.653 0.146,-1.126 0.438,-1.418c0.292,-0.292 0.765,-0.438 1.417,-0.438l23.919,-0c0.653,-0 1.125,0.146 1.418,0.438c0.292,0.292 0.438,0.765 0.438,1.418l-0,6.031c-0,0.653 -0.146,1.125 -0.438,1.417c-0.293,0.292 -0.765,0.439 -1.418,0.439l-14.227,-0l-0,3.969l10.052,-0c0.652,-0 1.125,0.146 1.417,0.438c0.292,0.292 0.438,0.765 0.438,1.418l0,5.515c0,0.653 -0.146,1.126 -0.438,1.418c-0.292,0.292 -0.765,0.438 -1.417,0.438l-10.052,-0l-0,4.433l14.227,0c0.653,0 1.125,0.146 1.418,0.438c0.292,0.292 0.438,0.765 0.438,1.418l-0,6.031c-0,0.653 -0.146,1.125 -0.438,1.418c-0.293,0.292 -0.765,0.438 -1.418,0.438Z" style="fill:#808080;"/><path d="M212.123,31.284l0,6.598l3.867,-0c0.893,-0 1.494,-0.232 1.804,-0.696c0.309,-0.464 0.464,-1.04 0.464,-1.727l-0,-1.753c-0,-0.687 -0.155,-1.263 -0.464,-1.727c-0.31,-0.463 -0.911,-0.695 -1.804,-0.695l-3.867,-0Zm-1.855,27.836l-7.939,-0c-0.653,-0 -1.125,-0.146 -1.417,-0.438c-0.293,-0.293 -0.439,-0.765 -0.439,-1.418l0,-33.403c0,-0.653 0.146,-1.126 0.439,-1.418c0.292,-0.292 0.764,-0.438 1.417,-0.438l17.166,-0c3.849,-0 6.504,0.799 7.964,2.397c1.461,1.598 2.191,3.668 2.191,6.211l-0,2.372c-0,1.443 -0.215,2.672 -0.645,3.685c-0.429,1.014 -1.177,1.744 -2.242,2.191c1.856,0.206 3.359,0.962 4.511,2.268c1.151,1.306 1.726,3.042 1.726,5.207l0,10.928c0,0.653 -0.146,1.125 -0.438,1.418c-0.292,0.292 -0.764,0.438 -1.417,0.438l-7.99,-0c-0.653,-0 -1.126,-0.146 -1.418,-0.438c-0.292,-0.293 -0.438,-0.765 -0.438,-1.418l-0,-7.887c-0,-0.756 -0.146,-1.314 -0.438,-1.675c-0.292,-0.361 -0.799,-0.541 -1.521,-0.541l-7.217,-0l0,10.103c0,0.653 -0.146,1.125 -0.438,1.418c-0.292,0.292 -0.764,0.438 -1.417,0.438Z" style="fill-rule:nonzero;"/><path d="M219.395,49.038c0.015,0.107 0.029,0.234 0.029,0.339c-0,0 -0,7.887 -0,7.887c-0,1.283 0.413,2.169 0.987,2.743c0.574,0.574 1.461,0.988 2.744,0.988l7.99,-0c1.283,-0 2.169,-0.414 2.743,-0.988c0.574,-0.574 0.987,-1.46 0.987,-2.743c0,0 0,-10.928 0,-10.928c0,-2.688 -0.766,-4.825 -2.195,-6.447c-0.665,-0.754 -1.421,-1.367 -2.269,-1.835c0.118,-0.208 0.225,-0.425 0.321,-0.652c0.515,-1.216 0.793,-2.686 0.793,-4.417c-0,-0 -0,-2.372 -0,-2.372c-0,-3.066 -0.921,-5.549 -2.682,-7.476c-1.724,-1.887 -4.804,-3.007 -9.348,-3.007l-17.166,-0c-1.283,-0 -2.169,0.413 -2.743,0.987c-0.574,0.574 -0.988,1.461 -0.988,2.744c0,-0 0,33.403 0,33.403c0,1.283 0.414,2.169 0.988,2.743c0.574,0.574 1.46,0.988 2.743,0.988l7.939,-0c1.283,-0 2.169,-0.414 2.743,-0.988c0.574,-0.574 0.987,-1.46 0.987,-2.743c0,0 0,-8.228 0,-8.228c0,-0 5.342,-0 5.342,-0l0.055,0.002Zm-9.127,10.082l-7.939,-0c-0.653,-0 -1.125,-0.146 -1.417,-0.438c-0.293,-0.293 -0.439,-0.765 -0.439,-1.418l0,-33.403c0,-0.653 0.146,-1.126 0.439,-1.418c0.292,-0.292 0.764,-0.438 1.417,-0.438l17.166,-0c3.849,-0 6.504,0.799 7.964,2.397c1.461,1.598 2.191,3.668 2.191,6.211l-0,2.372c-0,1.443 -0.215,2.672 -0.645,3.685c-0.429,1.014 -1.177,1.744 -2.242,2.191c1.856,0.206 3.359,0.962 4.511,2.268c1.151,1.306 1.726,3.042 1.726,5.207l0,10.928c0,0.653 -0.146,1.125 -0.438,1.418c-0.292,0.292 -0.764,0.438 -1.417,0.438l-7.99,-0c-0.653,-0 -1.126,-0.146 -1.418,-0.438c-0.292,-0.293 -0.438,-0.765 -0.438,-1.418l-0,-7.887c-0,-0.756 -0.146,-1.314 -0.438,-1.675c-0.292,-0.361 -0.799,-0.541 -1.521,-0.541l-7.217,-0l0,10.103c0,0.653 -0.146,1.125 -0.438,1.418c-0.292,0.292 -0.764,0.438 -1.417,0.438Zm1.855,-27.836l0,6.598l3.867,-0c0.893,-0 1.494,-0.232 1.804,-0.696c0.309,-0.464 0.464,-1.04 0.464,-1.727l-0,-1.753c-0,-0.687 -0.155,-1.263 -0.464,-1.727c-0.31,-0.463 -0.911,-0.695 -1.804,-0.695l-3.867,-0Zm4.193,1.904c0.053,0.151 0.067,0.325 0.067,0.518c-0,0 -0,1.753 -0,1.753c-0,0.193 -0.014,0.368 -0.067,0.518c-0.094,0.014 -0.226,0.03 -0.326,0.03c-0,-0 -1.992,-0 -1.992,-0l0,-2.848l1.992,-0c0.1,-0 0.232,0.015 0.326,0.029Z" style="fill:#808080;"/><path d="M255.991,59.12l-16.289,-0c-0.653,-0 -1.126,-0.146 -1.418,-0.438c-0.292,-0.293 -0.438,-0.765 -0.438,-1.418l0,-6.031c0,-0.653 0.146,-1.126 0.438,-1.418c0.292,-0.292 0.765,-0.438 1.418,-0.438l13.866,0c0.447,0 0.782,-0.146 1.006,-0.438c0.223,-0.292 0.335,-0.644 0.335,-1.057c-0,-0.584 -0.112,-1.014 -0.335,-1.289c-0.224,-0.274 -0.559,-0.429 -1.006,-0.463l-7.732,-1.083c-2.406,-0.344 -4.339,-1.134 -5.799,-2.371c-1.461,-1.237 -2.191,-3.299 -2.191,-6.186l0,-5.413c0,-2.921 0.945,-5.163 2.835,-6.727c1.89,-1.563 4.502,-2.345 7.836,-2.345l14.433,-0c0.653,-0 1.126,0.146 1.418,0.438c0.292,0.292 0.438,0.765 0.438,1.418l-0,6.134c-0,0.653 -0.146,1.125 -0.438,1.417c-0.292,0.293 -0.765,0.439 -1.418,0.439l-12.011,-0c-0.446,-0 -0.79,0.146 -1.031,0.438c-0.24,0.292 -0.36,0.661 -0.36,1.108c-0,0.447 0.12,0.825 0.36,1.134c0.241,0.309 0.585,0.481 1.031,0.516l7.681,1.031c2.406,0.343 4.347,1.134 5.825,2.371c1.478,1.237 2.217,3.299 2.217,6.186l-0,5.412c-0,2.921 -0.954,5.164 -2.861,6.727c-1.908,1.564 -4.511,2.346 -7.81,2.346Z" style="fill-rule:nonzero;"/><path d="M249.849,47.502l-10.147,0c-1.283,0 -2.17,0.413 -2.744,0.987c-0.574,0.574 -0.987,1.461 -0.987,2.744l0,6.031c0,1.283 0.413,2.169 0.987,2.743c0.574,0.574 1.461,0.988 2.744,0.988l16.289,-0c3.809,-0 6.796,-0.965 8.998,-2.771c2.326,-1.906 3.548,-4.615 3.548,-8.177c-0,0 -0,-5.412 -0,-5.412c-0,-3.582 -1.055,-6.089 -2.888,-7.624c-1.719,-1.439 -3.965,-2.39 -6.764,-2.79l-3.693,-0.495l7.758,-0c1.283,-0 2.17,-0.414 2.744,-0.988c0.574,-0.574 0.987,-1.46 0.987,-2.743l-0,-6.134c-0,-1.283 -0.413,-2.17 -0.987,-2.744c-0.574,-0.574 -1.461,-0.987 -2.744,-0.987l-14.433,-0c-3.851,-0 -6.848,0.969 -9.031,2.776c-2.303,1.905 -3.515,4.612 -3.515,8.171l0,5.413c0,3.578 1.044,6.083 2.854,7.617c1.702,1.442 3.942,2.396 6.746,2.796l4.278,0.599Zm6.142,11.618l-16.289,-0c-0.653,-0 -1.126,-0.146 -1.418,-0.438c-0.292,-0.293 -0.438,-0.765 -0.438,-1.418l0,-6.031c0,-0.653 0.146,-1.126 0.438,-1.418c0.292,-0.292 0.765,-0.438 1.418,-0.438l13.866,0c0.447,0 0.782,-0.146 1.006,-0.438c0.223,-0.292 0.335,-0.644 0.335,-1.057c-0,-0.584 -0.112,-1.014 -0.335,-1.289c-0.224,-0.274 -0.559,-0.429 -1.006,-0.463l-7.732,-1.083c-2.406,-0.344 -4.339,-1.134 -5.799,-2.371c-1.461,-1.237 -2.191,-3.299 -2.191,-6.186l0,-5.413c0,-2.921 0.945,-5.163 2.835,-6.727c1.89,-1.563 4.502,-2.345 7.836,-2.345l14.433,-0c0.653,-0 1.126,0.146 1.418,0.438c0.292,0.292 0.438,0.765 0.438,1.418l-0,6.134c-0,0.653 -0.146,1.125 -0.438,1.417c-0.292,0.293 -0.765,0.439 -1.418,0.439l-12.011,-0c-0.446,-0 -0.79,0.146 -1.031,0.438c-0.24,0.292 -0.36,0.661 -0.36,1.108c-0,0.447 0.12,0.825 0.36,1.134c0.241,0.309 0.585,0.481 1.031,0.516l7.681,1.031c2.406,0.343 4.347,1.134 5.825,2.371c1.478,1.237 2.217,3.299 2.217,6.186l-0,5.412c-0,2.921 -0.954,5.164 -2.861,6.727c-1.908,1.564 -4.511,2.346 -7.81,2.346Z" style="fill:#808080;"/></g></g></g></svg>