<?xml version="1.0" encoding="UTF-8" standalone="no"?>
<!DOCTYPE svg PUBLIC "-//W3C//DTD SVG 1.1//EN" "http://www.w3.org/Graphics/SVG/1.1/DTD/svg11.dtd">
<svg width="100%" height="100%" viewBox="0 0 224 42" version="1.1" xmlns="http://www.w3.org/2000/svg" xmlns:xlink="http://www.w3.org/1999/xlink" xml:space="preserve" xmlns:serif="http://www.serif.com/" style="fill-rule:evenodd;clip-rule:evenodd;stroke-linejoin:round;stroke-miterlimit:2;">
    <g transform="matrix(1,0,0,1,-366.485,-507.217)">
        <g>
            <path d="M377.015,546.422L368.47,546.422C367.772,546.422 367.266,546.27 366.954,545.967C366.642,545.664 366.485,545.173 366.485,544.495L366.485,509.811C366.485,509.133 366.642,508.642 366.954,508.339C367.266,508.036 367.772,507.884 368.47,507.884L393.058,507.884C393.757,507.884 394.262,508.036 394.574,508.339C394.887,508.642 395.043,509.133 395.043,509.811L395.043,516.18C395.043,516.858 394.887,517.349 394.574,517.652C394.262,517.956 393.757,518.107 393.058,518.107L379,518.107L379,523.674L388.593,523.674C389.291,523.674 389.797,523.825 390.109,524.129C390.421,524.432 390.578,524.923 390.578,525.601L390.578,532.024C390.578,532.702 390.421,533.192 390.109,533.496C389.797,533.799 389.291,533.951 388.593,533.951L379,533.951L379,544.495C379,545.173 378.844,545.664 378.531,545.967C378.219,546.27 377.714,546.422 377.015,546.422ZM430.602,546.422L402.541,546.422C401.843,546.422 401.337,546.27 401.025,545.967C400.712,545.664 400.556,545.173 400.556,544.495L400.556,509.811C400.556,509.133 400.712,508.642 401.025,508.339C401.337,508.036 401.843,507.884 402.541,507.884L411.086,507.884C411.784,507.884 412.29,508.036 412.602,508.339C412.915,508.642 413.071,509.133 413.071,509.811L413.071,536.306L420.624,536.306L420.624,527.635C420.624,526.957 420.78,526.466 421.092,526.163C421.405,525.859 421.91,525.708 422.608,525.708L430.602,525.708C431.301,525.708 431.806,525.859 432.118,526.163C432.431,526.466 432.587,526.957 432.587,527.635L432.587,544.495C432.587,545.173 432.431,545.664 432.118,545.967C431.806,546.27 431.301,546.422 430.602,546.422ZM456.318,546.422L447.387,546.422C446.689,546.422 446.184,546.27 445.871,545.967C445.559,545.664 445.403,545.173 445.403,544.495L445.403,537.644L436.968,526.671C436.122,525.565 435.562,524.602 435.286,523.781C435.01,522.96 434.873,521.729 434.873,520.088L434.873,509.811C434.873,509.133 435.029,508.642 435.341,508.339C435.654,508.036 436.159,507.884 436.857,507.884L445.347,507.884C446.046,507.884 446.551,508.036 446.863,508.339C447.176,508.642 447.332,509.133 447.332,509.811L447.332,518.589C447.332,518.946 447.35,519.32 447.387,519.713C447.424,520.105 447.571,520.48 447.828,520.837L450.364,524.691C450.548,525.012 450.741,525.244 450.943,525.387C451.145,525.529 451.393,525.601 451.687,525.601L452.239,525.601C452.533,525.601 452.781,525.529 452.983,525.387C453.185,525.244 453.378,525.012 453.562,524.691L456.098,520.837C456.355,520.48 456.502,520.105 456.539,519.713C456.576,519.32 456.594,518.946 456.594,518.589L456.594,509.811C456.594,509.133 456.75,508.642 457.063,508.339C457.375,508.036 457.88,507.884 458.579,507.884L466.793,507.884C467.492,507.884 467.997,508.036 468.309,508.339C468.622,508.642 468.778,509.133 468.778,509.811L468.778,520.088C468.778,521.729 468.631,522.96 468.337,523.781C468.043,524.602 467.492,525.565 466.683,526.671L458.303,537.697L458.303,544.495C458.303,545.173 458.147,545.664 457.834,545.967C457.522,546.27 457.017,546.422 456.318,546.422ZM502.628,546.422L477.047,546.422C476.349,546.422 475.844,546.27 475.531,545.967C475.219,545.664 475.063,545.173 475.063,544.495L475.063,509.811C475.063,509.133 475.219,508.642 475.531,508.339C475.844,508.036 476.349,507.884 477.047,507.884L502.628,507.884C503.326,507.884 503.832,508.036 504.144,508.339C504.457,508.642 504.613,509.133 504.613,509.811L504.613,516.073C504.613,516.751 504.457,517.242 504.144,517.545C503.832,517.849 503.326,518 502.628,518L487.412,518L487.412,522.122L498.163,522.122C498.861,522.122 499.366,522.273 499.679,522.577C499.991,522.88 500.147,523.371 500.147,524.049L500.147,529.776C500.147,530.454 499.991,530.944 499.679,531.248C499.366,531.551 498.861,531.703 498.163,531.703L487.412,531.703L487.412,536.306L502.628,536.306C503.326,536.306 503.832,536.457 504.144,536.761C504.457,537.064 504.613,537.555 504.613,538.233L504.613,544.495C504.613,545.173 504.457,545.664 504.144,545.967C503.832,546.27 503.326,546.422 502.628,546.422ZM521.593,546.422L513.103,546.422C512.405,546.422 511.899,546.27 511.587,545.967C511.274,545.664 511.118,545.173 511.118,544.495L511.118,509.811C511.118,509.133 511.274,508.642 511.587,508.339C511.899,508.036 512.405,507.884 513.103,507.884L531.461,507.884C535.578,507.884 538.417,508.714 539.979,510.373C541.541,512.032 542.322,514.182 542.322,516.823L542.322,519.285C542.322,520.783 542.092,522.059 541.633,523.112C541.174,524.164 540.374,524.923 539.235,525.387C541.22,525.601 542.828,526.386 544.059,527.742C545.29,529.098 545.906,530.9 545.906,533.148L545.906,544.495C545.906,545.173 545.749,545.664 545.437,545.967C545.125,546.27 544.619,546.422 543.921,546.422L535.376,546.422C534.677,546.422 534.172,546.27 533.86,545.967C533.547,545.664 533.391,545.173 533.391,544.495L533.391,536.306C533.391,535.521 533.235,534.941 532.922,534.566C532.61,534.192 532.068,534.004 531.296,534.004L523.578,534.004L523.578,544.495C523.578,545.173 523.422,545.664 523.109,545.967C522.797,546.27 522.291,546.422 521.593,546.422ZM523.578,517.518L523.578,524.37L527.713,524.37C528.668,524.37 529.311,524.129 529.642,523.647C529.973,523.165 530.138,522.568 530.138,521.854L530.138,520.034C530.138,519.32 529.973,518.723 529.642,518.241C529.311,517.759 528.668,517.518 527.713,517.518L523.578,517.518ZM570.494,546.422L553.073,546.422C552.374,546.422 551.869,546.27 551.557,545.967C551.244,545.664 551.088,545.173 551.088,544.495L551.088,538.233C551.088,537.555 551.244,537.064 551.557,536.761C551.869,536.457 552.374,536.306 553.073,536.306L567.903,536.306C568.381,536.306 568.739,536.154 568.978,535.851C569.217,535.547 569.336,535.182 569.336,534.754C569.336,534.147 569.217,533.701 568.978,533.415C568.739,533.13 568.381,532.969 567.903,532.934L559.633,531.81C557.06,531.453 554.993,530.632 553.431,529.347C551.869,528.063 551.088,525.922 551.088,522.924L551.088,517.304C551.088,514.271 552.099,511.943 554.12,510.319C556.142,508.696 558.935,507.884 562.5,507.884L577.937,507.884C578.635,507.884 579.14,508.036 579.453,508.339C579.765,508.642 579.921,509.133 579.921,509.811L579.921,516.18C579.921,516.858 579.765,517.349 579.453,517.652C579.14,517.956 578.635,518.107 577.937,518.107L565.091,518.107C564.613,518.107 564.246,518.259 563.988,518.562C563.731,518.865 563.603,519.249 563.603,519.713C563.603,520.177 563.731,520.569 563.988,520.891C564.246,521.212 564.613,521.39 565.091,521.426L573.306,522.496C575.878,522.853 577.955,523.674 579.535,524.958C581.116,526.243 581.906,528.384 581.906,531.381L581.906,537.002C581.906,540.035 580.886,542.363 578.846,543.987C576.806,545.61 574.022,546.422 570.494,546.422Z" style="fill:rgb(255,0,0);"/>
            <path d="M383.015,547.422L374.47,547.422C373.772,547.422 373.266,547.27 372.954,546.967C372.642,546.664 372.485,546.173 372.485,545.495L372.485,510.811C372.485,510.133 372.642,509.642 372.954,509.339C373.266,509.036 373.772,508.884 374.47,508.884L399.058,508.884C399.757,508.884 400.262,509.036 400.574,509.339C400.887,509.642 401.043,510.133 401.043,510.811L401.043,517.18C401.043,517.858 400.887,518.349 400.574,518.652C400.262,518.956 399.757,519.107 399.058,519.107L385,519.107L385,524.674L394.593,524.674C395.291,524.674 395.797,524.825 396.109,525.129C396.421,525.432 396.578,525.923 396.578,526.601L396.578,533.024C396.578,533.702 396.421,534.192 396.109,534.496C395.797,534.799 395.291,534.951 394.593,534.951L385,534.951L385,545.495C385,546.173 384.844,546.664 384.531,546.967C384.219,547.27 383.714,547.422 383.015,547.422Z" style="fill:white;"/>
            <path d="M383.015,549.089L374.47,549.089C373.22,549.089 372.352,548.706 371.793,548.163C371.219,547.605 370.819,546.742 370.819,545.495L370.819,510.811C370.819,509.564 371.219,508.701 371.793,508.143C372.352,507.6 373.22,507.217 374.47,507.217L399.058,507.217C400.308,507.217 401.176,507.6 401.735,508.143C402.31,508.701 402.71,509.564 402.71,510.811L402.71,517.18C402.71,518.427 402.31,519.29 401.735,519.848C401.176,520.391 400.308,520.774 399.058,520.774L386.667,520.774L386.667,523.007L394.593,523.007C395.842,523.007 396.711,523.39 397.27,523.933C397.844,524.491 398.244,525.354 398.244,526.601L398.244,533.024C398.244,534.27 397.844,535.134 397.27,535.691C396.711,536.234 395.842,536.617 394.593,536.617L386.667,536.617L386.667,545.495C386.667,546.742 386.267,547.605 385.692,548.163C385.133,548.706 384.265,549.089 383.015,549.089ZM383.015,547.422C383.714,547.422 384.219,547.27 384.531,546.967C384.844,546.664 385,546.173 385,545.495L385,534.951L394.593,534.951C395.291,534.951 395.797,534.799 396.109,534.496C396.421,534.192 396.578,533.702 396.578,533.024L396.578,526.601C396.578,525.923 396.421,525.432 396.109,525.129C395.797,524.825 395.291,524.674 394.593,524.674L385,524.674L385,519.107L399.058,519.107C399.757,519.107 400.262,518.956 400.574,518.652C400.887,518.349 401.043,517.858 401.043,517.18L401.043,510.811C401.043,510.133 400.887,509.642 400.574,509.339C400.262,509.036 399.757,508.884 399.058,508.884L374.47,508.884C373.772,508.884 373.266,509.036 372.954,509.339C372.642,509.642 372.485,510.133 372.485,510.811L372.485,545.495C372.485,546.173 372.642,546.664 372.954,546.967C373.266,547.27 373.772,547.422 374.47,547.422L383.015,547.422Z"/>
            <path d="M436.602,547.422L408.541,547.422C407.843,547.422 407.337,547.27 407.025,546.967C406.712,546.664 406.556,546.173 406.556,545.495L406.556,510.811C406.556,510.133 406.712,509.642 407.025,509.339C407.337,509.036 407.843,508.884 408.541,508.884L417.086,508.884C417.784,508.884 418.29,509.036 418.602,509.339C418.915,509.642 419.071,510.133 419.071,510.811L419.071,537.306L426.624,537.306L426.624,528.635C426.624,527.957 426.78,527.466 427.092,527.163C427.405,526.859 427.91,526.708 428.608,526.708L436.602,526.708C437.301,526.708 437.806,526.859 438.118,527.163C438.431,527.466 438.587,527.957 438.587,528.635L438.587,545.495C438.587,546.173 438.431,546.664 438.118,546.967C437.806,547.27 437.301,547.422 436.602,547.422Z" style="fill:white;"/>
            <path d="M436.602,549.089L408.541,549.089C407.291,549.089 406.423,548.706 405.864,548.163C405.289,547.605 404.889,546.742 404.889,545.495L404.889,510.811C404.889,509.564 405.289,508.701 405.864,508.143C406.423,507.6 407.291,507.217 408.541,507.217L417.086,507.217C418.336,507.217 419.204,507.6 419.763,508.143C420.338,508.701 420.737,509.564 420.737,510.811L420.737,535.639C420.737,535.639 424.957,535.639 424.957,535.639L424.957,528.635C424.957,527.388 425.357,526.525 425.931,525.967C426.49,525.424 427.359,525.041 428.608,525.041L436.602,525.041C437.852,525.041 438.72,525.424 439.279,525.967C439.854,526.525 440.254,527.388 440.254,528.635L440.254,545.495C440.254,546.742 439.854,547.605 439.279,548.163C438.72,548.706 437.852,549.089 436.602,549.089ZM436.602,547.422C437.301,547.422 437.806,547.27 438.118,546.967C438.431,546.664 438.587,546.173 438.587,545.495L438.587,528.635C438.587,527.957 438.431,527.466 438.118,527.163C437.806,526.859 437.301,526.708 436.602,526.708L428.608,526.708C427.91,526.708 427.405,526.859 427.092,527.163C426.78,527.466 426.624,527.957 426.624,528.635L426.624,537.306L419.071,537.306L419.071,510.811C419.071,510.133 418.915,509.642 418.602,509.339C418.29,509.036 417.784,508.884 417.086,508.884L408.541,508.884C407.843,508.884 407.337,509.036 407.025,509.339C406.712,509.642 406.556,510.133 406.556,510.811L406.556,545.495C406.556,546.173 406.712,546.664 407.025,546.967C407.337,547.27 407.843,547.422 408.541,547.422L436.602,547.422Z"/>
            <path d="M462.318,547.422L453.387,547.422C452.689,547.422 452.184,547.27 451.871,546.967C451.559,546.664 451.403,546.173 451.403,545.495L451.403,538.644L442.968,527.671C442.122,526.565 441.562,525.602 441.286,524.781C441.01,523.96 440.873,522.729 440.873,521.088L440.873,510.811C440.873,510.133 441.029,509.642 441.341,509.339C441.654,509.036 442.159,508.884 442.857,508.884L451.347,508.884C452.046,508.884 452.551,509.036 452.863,509.339C453.176,509.642 453.332,510.133 453.332,510.811L453.332,519.589C453.332,519.946 453.35,520.32 453.387,520.713C453.424,521.105 453.571,521.48 453.828,521.837L456.364,525.691C456.548,526.012 456.741,526.244 456.943,526.387C457.145,526.529 457.393,526.601 457.687,526.601L458.239,526.601C458.533,526.601 458.781,526.529 458.983,526.387C459.185,526.244 459.378,526.012 459.562,525.691L462.098,521.837C462.355,521.48 462.502,521.105 462.539,520.713C462.576,520.32 462.594,519.946 462.594,519.589L462.594,510.811C462.594,510.133 462.75,509.642 463.063,509.339C463.375,509.036 463.88,508.884 464.579,508.884L472.793,508.884C473.492,508.884 473.997,509.036 474.309,509.339C474.622,509.642 474.778,510.133 474.778,510.811L474.778,521.088C474.778,522.729 474.631,523.96 474.337,524.781C474.043,525.602 473.492,526.565 472.683,527.671L464.303,538.697L464.303,545.495C464.303,546.173 464.147,546.664 463.834,546.967C463.522,547.27 463.017,547.422 462.318,547.422Z" style="fill:white;"/>
            <path d="M457.856,524.934L458.071,524.934C458.087,524.91 458.103,524.885 458.115,524.863C458.132,524.833 458.151,524.804 458.17,524.775L460.706,520.921C460.719,520.901 460.732,520.881 460.746,520.862C460.817,520.764 460.869,520.666 460.879,520.558C460.911,520.219 460.927,519.896 460.927,519.589L460.927,510.811C460.927,509.564 461.327,508.701 461.902,508.143C462.461,507.6 463.329,507.217 464.579,507.217L472.793,507.217C474.043,507.217 474.911,507.6 475.47,508.143C476.045,508.701 476.445,509.564 476.445,510.811L476.445,521.088C476.445,522.981 476.245,524.397 475.906,525.343C475.57,526.281 474.953,527.39 474.028,528.655C474.022,528.663 474.016,528.671 474.01,528.68L465.97,539.259L465.97,545.495C465.97,546.742 465.57,547.605 464.995,548.163C464.436,548.706 463.568,549.089 462.318,549.089L453.387,549.089C452.138,549.089 451.269,548.706 450.71,548.163C450.136,547.605 449.736,546.742 449.736,545.495L449.736,539.21L441.646,528.687L441.643,528.683C440.66,527.397 440.027,526.266 439.706,525.312C439.391,524.372 439.206,522.966 439.206,521.088L439.206,510.811C439.206,509.564 439.606,508.701 440.18,508.143C440.739,507.6 441.608,507.217 442.857,507.217L451.347,507.217C452.597,507.217 453.465,507.6 454.024,508.143C454.599,508.701 454.999,509.564 454.999,510.811L454.999,519.589C454.999,519.896 455.015,520.219 455.047,520.558C455.057,520.666 455.109,520.764 455.18,520.862C455.194,520.881 455.207,520.901 455.221,520.921L457.757,524.775C457.776,524.804 457.794,524.833 457.811,524.863C457.823,524.885 457.839,524.91 457.856,524.934ZM462.318,547.422C463.017,547.422 463.522,547.27 463.834,546.967C464.147,546.664 464.303,546.173 464.303,545.495L464.303,538.697L472.683,527.671C473.492,526.565 474.043,525.602 474.337,524.781C474.631,523.96 474.778,522.729 474.778,521.088L474.778,510.811C474.778,510.133 474.622,509.642 474.309,509.339C473.997,509.036 473.492,508.884 472.793,508.884L464.579,508.884C463.88,508.884 463.375,509.036 463.063,509.339C462.75,509.642 462.594,510.133 462.594,510.811L462.594,519.589C462.594,519.946 462.576,520.32 462.539,520.713C462.502,521.105 462.355,521.48 462.098,521.837L459.562,525.691C459.378,526.012 459.185,526.244 458.983,526.387C458.781,526.529 458.533,526.601 458.239,526.601L457.687,526.601C457.393,526.601 457.145,526.529 456.943,526.387C456.741,526.244 456.548,526.012 456.364,525.691L453.828,521.837C453.571,521.48 453.424,521.105 453.387,520.713C453.35,520.32 453.332,519.946 453.332,519.589L453.332,510.811C453.332,510.133 453.176,509.642 452.863,509.339C452.551,509.036 452.046,508.884 451.347,508.884L442.857,508.884C442.159,508.884 441.654,509.036 441.341,509.339C441.029,509.642 440.873,510.133 440.873,510.811L440.873,521.088C440.873,522.729 441.01,523.96 441.286,524.781C441.562,525.602 442.122,526.565 442.968,527.671L451.403,538.644L451.403,545.495C451.403,546.173 451.559,546.664 451.871,546.967C452.184,547.27 452.689,547.422 453.387,547.422L462.318,547.422Z"/>
            <path d="M508.628,547.422L483.047,547.422C482.349,547.422 481.844,547.27 481.531,546.967C481.219,546.664 481.063,546.173 481.063,545.495L481.063,510.811C481.063,510.133 481.219,509.642 481.531,509.339C481.844,509.036 482.349,508.884 483.047,508.884L508.628,508.884C509.326,508.884 509.832,509.036 510.144,509.339C510.457,509.642 510.613,510.133 510.613,510.811L510.613,517.073C510.613,517.751 510.457,518.242 510.144,518.545C509.832,518.849 509.326,519 508.628,519L493.412,519L493.412,523.122L504.163,523.122C504.861,523.122 505.366,523.273 505.679,523.577C505.991,523.88 506.147,524.371 506.147,525.049L506.147,530.776C506.147,531.454 505.991,531.944 505.679,532.248C505.366,532.551 504.861,532.703 504.163,532.703L493.412,532.703L493.412,537.306L508.628,537.306C509.326,537.306 509.832,537.457 510.144,537.761C510.457,538.064 510.613,538.555 510.613,539.233L510.613,545.495C510.613,546.173 510.457,546.664 510.144,546.967C509.832,547.27 509.326,547.422 508.628,547.422Z" style="fill:white;"/>
            <path d="M508.628,549.089L483.047,549.089C481.798,549.089 480.929,548.706 480.37,548.163C479.796,547.605 479.396,546.742 479.396,545.495L479.396,510.811C479.396,509.564 479.796,508.701 480.37,508.143C480.929,507.6 481.798,507.217 483.047,507.217L508.628,507.217C509.878,507.217 510.746,507.6 511.305,508.143C511.88,508.701 512.279,509.564 512.279,510.811L512.279,517.073C512.279,518.32 511.88,519.183 511.305,519.741C510.746,520.284 509.878,520.667 508.628,520.667L495.079,520.667C495.079,520.667 495.079,521.455 495.079,521.455L504.163,521.455C505.412,521.455 506.281,521.838 506.84,522.381C507.414,522.938 507.814,523.802 507.814,525.049L507.814,530.776C507.814,532.022 507.414,532.886 506.84,533.443C506.281,533.986 505.412,534.369 504.163,534.369C504.163,534.369 495.079,534.369 495.079,534.369L495.079,535.639L508.628,535.639C509.878,535.639 510.746,536.022 511.305,536.565C511.88,537.123 512.279,537.986 512.279,539.233L512.279,545.495C512.279,546.742 511.88,547.605 511.305,548.163C510.746,548.706 509.878,549.089 508.628,549.089ZM508.628,547.422C509.326,547.422 509.832,547.27 510.144,546.967C510.457,546.664 510.613,546.173 510.613,545.495L510.613,539.233C510.613,538.555 510.457,538.064 510.144,537.761C509.832,537.457 509.326,537.306 508.628,537.306L493.412,537.306L493.412,532.703L504.163,532.703C504.861,532.703 505.366,532.551 505.679,532.248C505.991,531.944 506.147,531.454 506.147,530.776L506.147,525.049C506.147,524.371 505.991,523.88 505.679,523.577C505.366,523.273 504.861,523.122 504.163,523.122L493.412,523.122L493.412,519L508.628,519C509.326,519 509.832,518.849 510.144,518.545C510.457,518.242 510.613,517.751 510.613,517.073L510.613,510.811C510.613,510.133 510.457,509.642 510.144,509.339C509.832,509.036 509.326,508.884 508.628,508.884L483.047,508.884C482.349,508.884 481.844,509.036 481.531,509.339C481.219,509.642 481.063,510.133 481.063,510.811L481.063,545.495C481.063,546.173 481.219,546.664 481.531,546.967C481.844,547.27 482.349,547.422 483.047,547.422L508.628,547.422Z"/>
            <path d="M527.593,547.422L519.103,547.422C518.405,547.422 517.899,547.27 517.587,546.967C517.274,546.664 517.118,546.173 517.118,545.495L517.118,510.811C517.118,510.133 517.274,509.642 517.587,509.339C517.899,509.036 518.405,508.884 519.103,508.884L537.461,508.884C541.578,508.884 544.417,509.714 545.979,511.373C547.541,513.032 548.322,515.182 548.322,517.823L548.322,520.285C548.322,521.783 548.092,523.059 547.633,524.112C547.174,525.164 546.374,525.923 545.235,526.387C547.22,526.601 548.828,527.386 550.059,528.742C551.29,530.098 551.906,531.9 551.906,534.148L551.906,545.495C551.906,546.173 551.749,546.664 551.437,546.967C551.125,547.27 550.619,547.422 549.921,547.422L541.376,547.422C540.677,547.422 540.172,547.27 539.86,546.967C539.547,546.664 539.391,546.173 539.391,545.495L539.391,537.306C539.391,536.521 539.235,535.941 538.922,535.566C538.61,535.192 538.068,535.004 537.296,535.004L529.578,535.004L529.578,545.495C529.578,546.173 529.422,546.664 529.109,546.967C528.797,547.27 528.291,547.422 527.593,547.422Z" style="fill:white;"/>
            <path d="M537.69,536.714C537.6,536.698 537.426,536.671 537.296,536.671L531.244,536.671L531.244,545.495C531.244,546.742 530.844,547.605 530.27,548.163C529.711,548.706 528.843,549.089 527.593,549.089L519.103,549.089C517.853,549.089 516.985,548.706 516.426,548.163C515.851,547.605 515.452,546.742 515.452,545.495L515.452,510.811C515.452,509.564 515.851,508.701 516.426,508.143C516.985,507.6 517.853,507.217 519.103,507.217L537.461,507.217C542.187,507.217 545.399,508.326 547.193,510.23C549.034,512.187 549.989,514.709 549.989,517.823L549.989,520.285C549.989,522.046 549.7,523.542 549.161,524.778C549.026,525.087 548.87,525.378 548.694,525.651C549.675,526.135 550.54,526.793 551.293,527.621C552.783,529.262 553.572,531.427 553.572,534.148L553.572,545.495C553.572,546.742 553.172,547.605 552.598,548.163C552.039,548.706 551.171,549.089 549.921,549.089L541.376,549.089C540.126,549.089 539.258,548.706 538.699,548.163C538.124,547.605 537.724,546.742 537.724,545.495L537.724,537.306C537.724,537.061 537.749,536.857 537.69,536.714ZM527.593,547.422C528.291,547.422 528.797,547.27 529.109,546.967C529.422,546.664 529.578,546.173 529.578,545.495L529.578,535.004L537.296,535.004C538.068,535.004 538.61,535.192 538.922,535.566C539.235,535.941 539.391,536.521 539.391,537.306L539.391,545.495C539.391,546.173 539.547,546.664 539.86,546.967C540.172,547.27 540.677,547.422 541.376,547.422L549.921,547.422C550.619,547.422 551.125,547.27 551.437,546.967C551.749,546.664 551.906,546.173 551.906,545.495L551.906,534.148C551.906,531.9 551.29,530.098 550.059,528.742C548.828,527.386 547.22,526.601 545.235,526.387C546.374,525.923 547.174,525.164 547.633,524.112C548.092,523.059 548.322,521.783 548.322,520.285L548.322,517.823C548.322,515.182 547.541,513.032 545.979,511.373C544.417,509.714 541.578,508.884 537.461,508.884L519.103,508.884C518.405,508.884 517.899,509.036 517.587,509.339C517.274,509.642 517.118,510.133 517.118,510.811L517.118,545.495C517.118,546.173 517.274,546.664 517.587,546.967C517.899,547.27 518.405,547.422 519.103,547.422L527.593,547.422Z"/>
            <path d="M529.578,518.518L529.578,525.37L533.713,525.37C534.668,525.37 535.311,525.129 535.642,524.647C535.973,524.165 536.138,523.568 536.138,522.854L536.138,521.034C536.138,520.32 535.973,519.723 535.642,519.241C535.311,518.759 534.668,518.518 533.713,518.518L529.578,518.518Z" style="fill:rgb(255,0,0);"/>
            <path d="M529.578,518.518L533.713,518.518C534.668,518.518 535.311,518.759 535.642,519.241C535.973,519.723 536.138,520.32 536.138,521.034L536.138,522.854C536.138,523.568 535.973,524.165 535.642,524.647C535.311,525.129 534.668,525.37 533.713,525.37L529.578,525.37L529.578,518.518ZM534.316,523.625C534.434,523.412 534.472,523.152 534.472,522.854L534.472,521.034C534.472,520.737 534.434,520.476 534.316,520.263C534.216,520.242 533.927,520.185 533.713,520.185L531.244,520.185L531.244,523.703L533.713,523.703C533.927,523.703 534.216,523.646 534.316,523.625Z"/>
            <path d="M576.494,547.422L559.073,547.422C558.374,547.422 557.869,547.27 557.557,546.967C557.244,546.664 557.088,546.173 557.088,545.495L557.088,539.233C557.088,538.555 557.244,538.064 557.557,537.761C557.869,537.457 558.374,537.306 559.073,537.306L573.903,537.306C574.381,537.306 574.739,537.154 574.978,536.851C575.217,536.547 575.336,536.182 575.336,535.754C575.336,535.147 575.217,534.701 574.978,534.415C574.739,534.13 574.381,533.969 573.903,533.934L565.633,532.81C563.06,532.453 560.993,531.632 559.431,530.347C557.869,529.063 557.088,526.922 557.088,523.924L557.088,518.304C557.088,515.271 558.099,512.943 560.12,511.319C562.142,509.696 564.935,508.884 568.5,508.884L583.937,508.884C584.635,508.884 585.14,509.036 585.453,509.339C585.765,509.642 585.921,510.133 585.921,510.811L585.921,517.18C585.921,517.858 585.765,518.349 585.453,518.652C585.14,518.956 584.635,519.107 583.937,519.107L571.091,519.107C570.613,519.107 570.246,519.259 569.988,519.562C569.731,519.865 569.603,520.249 569.603,520.713C569.603,521.177 569.731,521.569 569.988,521.891C570.246,522.212 570.613,522.39 571.091,522.426L579.306,523.496C581.878,523.853 583.955,524.674 585.535,525.958C587.116,527.243 587.906,529.384 587.906,532.381L587.906,538.002C587.906,541.035 586.886,543.363 584.846,544.987C582.806,546.61 580.022,547.422 576.494,547.422Z" style="fill:white;"/>
            <path d="M571.306,520.773L579.521,521.844C579.525,521.844 579.53,521.845 579.535,521.845C582.451,522.25 584.795,523.209 586.587,524.665C588.496,526.218 589.573,528.759 589.573,532.381L589.573,538.002C589.573,541.61 588.311,544.359 585.884,546.291C583.587,548.119 580.468,549.089 576.494,549.089L559.073,549.089C557.823,549.089 556.955,548.706 556.396,548.163C555.821,547.605 555.421,546.742 555.421,545.495L555.421,539.233C555.421,537.986 555.821,537.123 556.396,536.565C556.955,536.022 557.823,535.639 559.073,535.639L573.664,535.639C573.663,535.62 573.661,535.601 573.659,535.583L565.409,534.461L565.404,534.461C562.482,534.055 560.146,533.094 558.372,531.635C556.486,530.084 555.421,527.544 555.421,523.924L555.421,518.304C555.421,514.698 556.673,511.951 559.076,510.02C561.354,508.191 564.483,507.217 568.5,507.217L583.937,507.217C585.186,507.217 586.055,507.6 586.614,508.143C587.188,508.701 587.588,509.564 587.588,510.811L587.588,517.18C587.588,518.427 587.188,519.29 586.614,519.848C586.055,520.391 585.186,520.774 583.937,520.774L571.306,520.773ZM576.494,547.422C580.022,547.422 582.806,546.61 584.846,544.987C586.886,543.363 587.906,541.035 587.906,538.002L587.906,532.381C587.906,529.384 587.116,527.243 585.535,525.958C583.955,524.674 581.878,523.853 579.306,523.496L571.091,522.426C570.613,522.39 570.246,522.212 569.988,521.891C569.731,521.569 569.603,521.177 569.603,520.713C569.603,520.249 569.731,519.865 569.988,519.562C570.246,519.259 570.613,519.107 571.091,519.107L583.937,519.107C584.635,519.107 585.14,518.956 585.453,518.652C585.765,518.349 585.921,517.858 585.921,517.18L585.921,510.811C585.921,510.133 585.765,509.642 585.453,509.339C585.14,509.036 584.635,508.884 583.937,508.884L568.5,508.884C564.935,508.884 562.142,509.696 560.12,511.319C558.099,512.943 557.088,515.271 557.088,518.304L557.088,523.924C557.088,526.922 557.869,529.063 559.431,530.347C560.993,531.632 563.06,532.453 565.633,532.81L573.903,533.934C574.381,533.969 574.739,534.13 574.978,534.415C575.217,534.701 575.336,535.147 575.336,535.754C575.336,536.182 575.217,536.547 574.978,536.851C574.739,537.154 574.381,537.306 573.903,537.306L559.073,537.306C558.374,537.306 557.869,537.457 557.557,537.761C557.244,538.064 557.088,538.555 557.088,539.233L557.088,545.495C557.088,546.173 557.244,546.664 557.557,546.967C557.869,547.27 558.374,547.422 559.073,547.422L576.494,547.422Z"/>
        </g>
    </g>
</svg>
