<?xml version="1.0" encoding="UTF-8" standalone="no"?><!DOCTYPE svg PUBLIC "-//W3C//DTD SVG 1.1//EN" "http://www.w3.org/Graphics/SVG/1.1/DTD/svg11.dtd"><svg width="100%" height="100%" viewBox="0 0 332 82" version="1.1" xmlns="http://www.w3.org/2000/svg" xmlns:xlink="http://www.w3.org/1999/xlink" xml:space="preserve" xmlns:serif="http://www.serif.com/" style="fill-rule:evenodd;clip-rule:evenodd;stroke-linejoin:round;stroke-miterlimit:2;"><g><path d="M331.047,20.281c0,-11.193 -9.088,-20.281 -20.281,-20.281l-290.485,0c-11.193,0 -20.281,9.088 -20.281,20.281l-0,40.562c-0,11.194 9.088,20.282 20.281,20.282l290.485,-0c11.193,-0 20.281,-9.088 20.281,-20.282l0,-40.562Z" style="fill:#fff;"/><g><g transform="matrix(1,0,0,1,-237.05,-448.706)"><text x="275.352px" y="507.439px" style="font-family:'Bungee-Regular', 'Bungee';font-size:51.548px;">JEWELR<tspan x="493.66px " y="507.439px ">Y</tspan></text><path d="M293.913,496.195c-0.181,0.041 -0.932,0.195 -1.602,0.195c-0.791,0 -1.681,-0.189 -1.845,-0.225c-0.107,-0.148 -0.148,-0.327 -0.148,-0.531c-0,0 -0,-6.289 -0,-6.289c-0,-1.213 -0.384,-2.053 -0.926,-2.596c-0.543,-0.542 -1.383,-0.926 -2.596,-0.926c-0,-0 -7.475,-0 -7.475,-0c-1.213,-0 -2.053,0.384 -2.596,0.926c-0.543,0.543 -0.926,1.383 -0.926,2.596c-0,0 -0,8.351 -0,8.351c-0,1.775 0.247,3.385 0.73,4.831c0.528,1.586 1.473,2.944 2.847,4.064c1.272,1.037 3.003,1.872 5.213,2.459c2.055,0.545 4.662,0.829 7.825,0.829c3.197,-0 5.829,-0.284 7.899,-0.828c2.231,-0.587 3.971,-1.423 5.243,-2.46c1.368,-1.115 2.319,-2.466 2.867,-4.045c0.503,-1.452 0.762,-3.068 0.762,-4.85l-0,-25.516c-0,-1.213 -0.384,-2.054 -0.927,-2.596c-0.542,-0.543 -1.383,-0.927 -2.596,-0.927l-8.093,0c-1.213,0 -2.053,0.384 -2.596,0.927c-0.543,0.542 -0.926,1.383 -0.926,2.596c-0,-0 -0,23.454 -0,23.454c-0,0.214 -0.035,0.405 -0.134,0.561Zm13.605,1.501c0,1.581 -0.223,3.016 -0.67,4.304c-0.447,1.289 -1.229,2.389 -2.346,3.3c-1.116,0.91 -2.654,1.623 -4.613,2.139c-1.959,0.515 -4.45,0.773 -7.475,0.773c-2.989,0 -5.455,-0.258 -7.397,-0.773c-1.942,-0.516 -3.471,-1.229 -4.588,-2.139c-1.117,-0.911 -1.89,-2.011 -2.319,-3.3c-0.43,-1.288 -0.645,-2.723 -0.645,-4.304l0,-8.351c0,-0.653 0.146,-1.125 0.438,-1.417c0.293,-0.292 0.765,-0.438 1.418,-0.438l7.475,-0c0.653,-0 1.125,0.146 1.417,0.438c0.292,0.292 0.438,0.764 0.438,1.417l0,6.289c0,0.688 0.215,1.263 0.645,1.727c0.429,0.464 1.434,0.696 3.015,0.696c1.478,-0 2.414,-0.232 2.81,-0.696c0.395,-0.464 0.592,-1.039 0.592,-1.727l0,-23.454c0,-0.653 0.147,-1.126 0.439,-1.418c0.292,-0.292 0.764,-0.438 1.417,-0.438l8.093,-0c0.653,-0 1.126,0.146 1.418,0.438c0.292,0.292 0.438,0.765 0.438,1.418l0,25.516Z" style="fill:#808080;"/><path d="M340.148,509.105c1.213,0 2.054,-0.383 2.596,-0.926c0.543,-0.543 0.927,-1.383 0.927,-2.596c-0,0 -0,-6.031 -0,-6.031c-0,-1.213 -0.384,-2.054 -0.927,-2.596c-0.542,-0.543 -1.383,-0.927 -2.596,-0.927l-12.56,0c-0,0 -0,-1.099 -0,-1.099c-0,-0 8.385,-0 8.385,-0c1.213,-0 2.053,-0.384 2.596,-0.927c0.543,-0.542 0.926,-1.383 0.926,-2.596l0,-5.515c0,-1.213 -0.383,-2.054 -0.926,-2.597c-0.543,-0.542 -1.383,-0.926 -2.596,-0.926c-0,0 -8.385,0 -8.385,0c-0,0 -0,-0.636 -0,-0.636c-0,0 12.56,0 12.56,0c1.213,0 2.054,-0.383 2.596,-0.926c0.543,-0.543 0.927,-1.383 0.927,-2.596c-0,-0 -0,-6.031 -0,-6.031c-0,-1.213 -0.384,-2.054 -0.927,-2.596c-0.542,-0.543 -1.383,-0.927 -2.596,-0.927l-23.918,0c-1.213,0 -2.054,0.384 -2.596,0.927c-0.543,0.542 -0.927,1.383 -0.927,2.596l0,33.403c0,1.213 0.384,2.053 0.927,2.596c0.542,0.543 1.383,0.926 2.596,0.926l23.918,0Zm0,-1.666l-23.918,-0c-0.653,-0 -1.126,-0.146 -1.418,-0.438c-0.292,-0.292 -0.438,-0.765 -0.438,-1.418l-0,-33.403c-0,-0.653 0.146,-1.126 0.438,-1.418c0.292,-0.292 0.765,-0.438 1.418,-0.438l23.918,-0c0.653,-0 1.126,0.146 1.418,0.438c0.292,0.292 0.438,0.765 0.438,1.418l-0,6.031c-0,0.653 -0.146,1.125 -0.438,1.417c-0.292,0.293 -0.765,0.439 -1.418,0.439l-14.227,-0l-0,3.969l10.052,-0c0.653,-0 1.125,0.146 1.417,0.438c0.292,0.292 0.439,0.765 0.439,1.418l-0,5.515c-0,0.653 -0.147,1.126 -0.439,1.418c-0.292,0.292 -0.764,0.438 -1.417,0.438l-10.052,-0l-0,4.433l14.227,0c0.653,0 1.126,0.146 1.418,0.438c0.292,0.292 0.438,0.765 0.438,1.418l-0,6.031c-0,0.653 -0.146,1.126 -0.438,1.418c-0.292,0.292 -0.765,0.438 -1.418,0.438Z" style="fill:#808080;"/><path d="M365.943,499.5l1.927,6.826c0.267,1.037 0.849,1.763 1.695,2.219c0.684,0.368 1.444,0.56 2.286,0.56l6.855,0c1.073,0 1.914,-0.385 2.551,-1.089c0.473,-0.523 0.841,-1.153 1.09,-1.899c-0.006,0.02 2.563,-6.969 2.563,-6.969c0.003,-0.008 0.006,-0.016 0.008,-0.023c0.501,-1.424 0.79,-2.668 0.887,-3.727c0.09,-0.991 0.135,-2.064 0.135,-3.218l0,-20c0,-1.213 -0.383,-2.054 -0.926,-2.596c-0.543,-0.543 -1.383,-0.927 -2.596,-0.927l-7.681,0c-1.213,0 -2.053,0.384 -2.596,0.927c-0.543,0.542 -0.926,1.383 -0.926,2.596l-0,11.406c-0.429,-0.761 -0.981,-1.294 -1.616,-1.636c-0.662,-0.357 -1.471,-0.56 -2.439,-0.56l-2.165,-0c-0.968,-0 -1.778,0.203 -2.44,0.56c-0.635,0.342 -1.187,0.875 -1.616,1.636l0,-11.406c0,-1.213 -0.383,-2.054 -0.926,-2.596c-0.543,-0.543 -1.383,-0.927 -2.596,-0.927l-7.939,0c-1.213,0 -2.053,0.384 -2.596,0.927c-0.542,0.542 -0.926,1.383 -0.926,2.596l0,19.897c0,1.154 0.046,2.227 0.136,3.218c0.096,1.059 0.386,2.303 0.886,3.727l2.572,7.097c0.271,0.847 0.723,1.53 1.335,2.062c0.701,0.61 1.536,0.924 2.511,0.924l6.805,0c0.923,0 1.695,-0.243 2.33,-0.676c0.688,-0.469 1.185,-1.152 1.439,-2.086l1.973,-6.843Zm8.794,-29.176l7.681,-0c0.653,-0 1.125,0.146 1.418,0.438c0.292,0.292 0.438,0.765 0.438,1.418l-0,20c-0,1.1 -0.043,2.123 -0.129,3.068c-0.086,0.945 -0.352,2.053 -0.799,3.324l-2.578,7.011c-0.171,0.516 -0.421,0.954 -0.747,1.315c-0.327,0.36 -0.765,0.541 -1.315,0.541l-6.855,-0c-0.55,-0 -1.049,-0.12 -1.495,-0.361c-0.447,-0.241 -0.739,-0.636 -0.877,-1.186l-2.371,-8.402c-0.103,-0.344 -0.232,-0.576 -0.387,-0.696c-0.154,-0.12 -0.335,-0.18 -0.541,-0.18l-0.464,-0c-0.206,-0 -0.386,0.06 -0.541,0.18c-0.155,0.12 -0.284,0.352 -0.387,0.696l-2.422,8.402c-0.138,0.516 -0.396,0.902 -0.774,1.16c-0.378,0.258 -0.842,0.387 -1.391,0.387l-6.805,-0c-0.55,-0 -1.022,-0.172 -1.417,-0.516c-0.396,-0.343 -0.679,-0.79 -0.851,-1.34l-2.577,-7.114c-0.447,-1.271 -0.713,-2.379 -0.799,-3.325c-0.086,-0.945 -0.129,-1.967 -0.129,-3.067l-0,-19.897c-0,-0.653 0.146,-1.126 0.438,-1.418c0.292,-0.292 0.765,-0.438 1.417,-0.438l7.939,-0c0.653,-0 1.125,0.146 1.418,0.438c0.292,0.292 0.438,0.765 0.438,1.418l-0,18.969l2.99,-6.495c0.274,-0.584 0.635,-0.996 1.082,-1.237c0.447,-0.24 0.997,-0.361 1.65,-0.361l2.165,0c0.653,0 1.202,0.121 1.649,0.361c0.447,0.241 0.808,0.653 1.083,1.237l2.989,6.495l0,-18.969c0,-0.653 0.147,-1.126 0.439,-1.418c0.292,-0.292 0.764,-0.438 1.417,-0.438Z" style="fill:#808080;"/><path d="M416.698,509.105c1.213,0 2.053,-0.383 2.596,-0.926c0.542,-0.543 0.926,-1.383 0.926,-2.596c0,0 0,-6.031 0,-6.031c0,-1.213 -0.384,-2.054 -0.926,-2.596c-0.543,-0.543 -1.383,-0.927 -2.596,-0.927l-12.561,0c-0,0 -0,-1.099 -0,-1.099c-0,-0 8.385,-0 8.385,-0c1.213,-0 2.054,-0.384 2.596,-0.927c0.543,-0.542 0.927,-1.383 0.927,-2.596l-0,-5.515c-0,-1.213 -0.384,-2.054 -0.927,-2.597c-0.542,-0.542 -1.383,-0.926 -2.596,-0.926c0,0 -8.385,0 -8.385,0c-0,0 -0,-0.636 -0,-0.636c-0,0 12.561,0 12.561,0c1.213,0 2.053,-0.383 2.596,-0.926c0.542,-0.543 0.926,-1.383 0.926,-2.596c0,-0 0,-6.031 0,-6.031c0,-1.213 -0.384,-2.054 -0.926,-2.596c-0.543,-0.543 -1.383,-0.927 -2.596,-0.927l-23.919,0c-1.213,0 -2.053,0.384 -2.596,0.927c-0.543,0.542 -0.926,1.383 -0.926,2.596c-0,-0 -0,33.403 -0,33.403c-0,1.213 0.383,2.053 0.926,2.596c0.543,0.543 1.383,0.926 2.596,0.926l23.919,0Zm-0,-1.666l-23.919,-0c-0.653,-0 -1.125,-0.146 -1.417,-0.438c-0.292,-0.292 -0.439,-0.765 -0.439,-1.418l0,-33.403c0,-0.653 0.147,-1.126 0.439,-1.418c0.292,-0.292 0.764,-0.438 1.417,-0.438l23.919,-0c0.653,-0 1.125,0.146 1.417,0.438c0.292,0.292 0.438,0.765 0.438,1.418l0,6.031c0,0.653 -0.146,1.125 -0.438,1.417c-0.292,0.293 -0.764,0.439 -1.417,0.439l-14.228,-0l0,3.969l10.052,-0c0.653,-0 1.126,0.146 1.418,0.438c0.292,0.292 0.438,0.765 0.438,1.418l-0,5.515c-0,0.653 -0.146,1.126 -0.438,1.418c-0.292,0.292 -0.765,0.438 -1.418,0.438l-10.052,-0l0,4.433l14.228,0c0.653,0 1.125,0.146 1.417,0.438c0.292,0.292 0.438,0.765 0.438,1.418l0,6.031c0,0.653 -0.146,1.126 -0.438,1.418c-0.292,0.292 -0.764,0.438 -1.417,0.438Z" style="fill:#808080;"/><path d="M452.73,509.105c1.213,0 2.053,-0.383 2.596,-0.926c0.543,-0.543 0.926,-1.383 0.926,-2.596c0,0 0,-16.238 0,-16.238c0,-1.213 -0.383,-2.053 -0.926,-2.596c-0.543,-0.542 -1.383,-0.926 -2.596,-0.926c0,-0 -7.474,-0 -7.474,-0c-1.213,-0 -2.054,0.384 -2.597,0.926c-0.542,0.543 -0.926,1.383 -0.926,2.596l0,6.684c0,0 -3.729,0 -3.729,0c0,0 0,-23.849 0,-23.849c0,-1.213 -0.383,-2.054 -0.926,-2.596c-0.543,-0.543 -1.383,-0.927 -2.596,-0.927l-7.99,0c-1.213,0 -2.054,0.384 -2.596,0.927c-0.543,0.542 -0.927,1.383 -0.927,2.596c0,-0 0,33.403 0,33.403c0,1.213 0.384,2.053 0.927,2.596c0.542,0.543 1.383,0.926 2.596,0.926l26.238,0Zm0,-1.666l-26.238,-0c-0.653,-0 -1.126,-0.146 -1.418,-0.438c-0.292,-0.292 -0.438,-0.765 -0.438,-1.418l0,-33.403c0,-0.653 0.146,-1.126 0.438,-1.418c0.292,-0.292 0.765,-0.438 1.418,-0.438l7.99,-0c0.653,-0 1.125,0.146 1.417,0.438c0.293,0.292 0.439,0.765 0.439,1.418l-0,25.516l7.062,0l-0,-8.351c-0,-0.653 0.146,-1.125 0.438,-1.417c0.292,-0.292 0.765,-0.438 1.418,-0.438l7.474,-0c0.653,-0 1.126,0.146 1.418,0.438c0.292,0.292 0.438,0.764 0.438,1.417l-0,16.238c-0,0.653 -0.146,1.126 -0.438,1.418c-0.292,0.292 -0.765,0.438 -1.418,0.438Z" style="fill:#808080;"/><path d="M479.606,497.172c0.039,0.131 0.015,0.311 0.015,0.524l0,7.887c0,1.213 0.384,2.053 0.927,2.596c0.542,0.543 1.383,0.926 2.596,0.926l7.99,0c1.213,0 2.053,-0.383 2.596,-0.926c0.542,-0.543 0.926,-1.383 0.926,-2.596c0,0 0,-10.928 0,-10.928c0,-2.63 -0.745,-4.723 -2.143,-6.309c-0.698,-0.791 -1.498,-1.423 -2.403,-1.892c0.157,-0.255 0.297,-0.527 0.419,-0.814c0.506,-1.194 0.776,-2.637 0.776,-4.336c0,-0 0,-2.372 0,-2.372c0,-3.008 -0.899,-5.445 -2.627,-7.336c-1.695,-1.854 -4.727,-2.939 -9.194,-2.939l-17.166,0c-1.213,0 -2.053,0.384 -2.596,0.927c-0.543,0.542 -0.926,1.383 -0.926,2.596c-0,-0 -0,33.403 -0,33.403c-0,1.213 0.383,2.053 0.926,2.596c0.543,0.543 1.383,0.926 2.596,0.926l7.939,0c1.213,0 2.053,-0.383 2.596,-0.926c0.542,-0.543 0.926,-1.383 0.926,-2.596l-0,-8.437c-0,0 5.55,0 5.55,0c0.085,0 0.2,0.014 0.277,0.026Zm-9.349,10.267l-7.939,-0c-0.653,-0 -1.125,-0.146 -1.418,-0.438c-0.292,-0.292 -0.438,-0.765 -0.438,-1.418l0,-33.403c0,-0.653 0.146,-1.126 0.438,-1.418c0.293,-0.292 0.765,-0.438 1.418,-0.438l17.166,-0c3.849,-0 6.503,0.799 7.964,2.397c1.46,1.598 2.191,3.668 2.191,6.211l-0,2.372c-0,1.443 -0.215,2.672 -0.645,3.685c-0.429,1.014 -1.177,1.744 -2.242,2.191c1.856,0.206 3.359,0.962 4.511,2.268c1.151,1.306 1.726,3.042 1.726,5.207l0,10.928c0,0.653 -0.146,1.126 -0.438,1.418c-0.292,0.292 -0.764,0.438 -1.417,0.438l-7.99,-0c-0.653,-0 -1.126,-0.146 -1.418,-0.438c-0.292,-0.292 -0.438,-0.765 -0.438,-1.418l-0,-7.887c-0,-0.756 -0.146,-1.314 -0.438,-1.675c-0.292,-0.361 -0.799,-0.541 -1.521,-0.541l-7.217,-0l0,10.103c0,0.653 -0.146,1.126 -0.438,1.418c-0.292,0.292 -0.765,0.438 -1.417,0.438Zm1.855,-27.836l0,6.598l3.866,-0c0.894,-0 1.495,-0.232 1.805,-0.696c0.309,-0.464 0.464,-1.04 0.464,-1.727l-0,-1.753c-0,-0.687 -0.155,-1.263 -0.464,-1.726c-0.31,-0.464 -0.911,-0.696 -1.805,-0.696l-3.866,-0Zm4.341,1.722c0.097,0.195 0.127,0.432 0.127,0.7l-0,1.753c-0,0.268 -0.03,0.505 -0.127,0.701c-0.1,0.019 -0.314,0.055 -0.475,0.055c0,0 -2.199,0 -2.199,0l-0,-3.265l2.199,0c0.161,0 0.375,0.037 0.475,0.056Z" style="fill:#808080;"/><path d="M511.986,485.72l-0.053,-0l-0.064,-0.107l-2.371,-3.712c-0.013,-0.019 -0.026,-0.039 -0.04,-0.058c-0.062,-0.09 -0.109,-0.179 -0.117,-0.278c-0.03,-0.325 -0.045,-0.636 -0.045,-0.931c-0,-0 -0,-8.454 -0,-8.454c-0,-1.213 -0.384,-2.054 -0.926,-2.596c-0.543,-0.543 -1.384,-0.927 -2.597,-0.927l-7.938,0c-1.213,0 -2.053,0.384 -2.596,0.927c-0.543,0.542 -0.926,1.383 -0.926,2.596l-0,9.897c-0,1.812 0.173,3.168 0.468,4.073c0.301,0.923 0.896,2.017 1.819,3.26l7.558,10.128c0,0 0,6.045 0,6.045c0,1.213 0.384,2.053 0.927,2.596c0.542,0.543 1.383,0.926 2.596,0.926l8.351,0c1.213,0 2.053,-0.383 2.596,-0.926c0.542,-0.543 0.926,-1.383 0.926,-2.596c-0,0 -0,-5.998 -0,-5.998c-0,-0 7.51,-10.178 7.51,-10.178c0.006,-0.008 0.012,-0.017 0.018,-0.025c0.867,-1.222 1.446,-2.294 1.761,-3.201c0.318,-0.913 0.505,-2.278 0.505,-4.104c0,-0 0,-9.897 0,-9.897c0,-1.213 -0.383,-2.054 -0.926,-2.596c-0.543,-0.543 -1.383,-0.927 -2.596,-0.927l-7.681,0c-1.213,0 -2.053,0.384 -2.596,0.927c-0.543,0.542 -0.926,1.383 -0.926,2.596l-0,8.454c-0,0.295 -0.015,0.606 -0.045,0.931c-0.009,0.099 -0.055,0.188 -0.118,0.278c-0.013,0.019 -0.027,0.039 -0.039,0.058l-2.371,3.712l-0.064,0.107Zm4.046,21.719l-8.351,-0c-0.653,-0 -1.126,-0.146 -1.418,-0.438c-0.292,-0.292 -0.438,-0.765 -0.438,-1.418l-0,-6.598l-7.887,-10.568c-0.79,-1.065 -1.314,-1.993 -1.572,-2.783c-0.258,-0.791 -0.387,-1.976 -0.387,-3.557l0,-9.897c0,-0.653 0.146,-1.126 0.438,-1.418c0.292,-0.292 0.765,-0.438 1.418,-0.438l7.938,-0c0.653,-0 1.126,0.146 1.418,0.438c0.292,0.292 0.438,0.765 0.438,1.418l0,8.454c0,0.343 0.017,0.704 0.052,1.082c0.034,0.378 0.172,0.739 0.412,1.083l2.371,3.711c0.172,0.309 0.353,0.533 0.542,0.67c0.189,0.138 0.421,0.206 0.695,0.206l0.516,0c0.275,0 0.507,-0.068 0.696,-0.206c0.189,-0.137 0.369,-0.361 0.541,-0.67l2.371,-3.711c0.241,-0.344 0.378,-0.705 0.413,-1.083c0.034,-0.378 0.051,-0.739 0.051,-1.082l0,-8.454c0,-0.653 0.146,-1.126 0.438,-1.418c0.293,-0.292 0.765,-0.438 1.418,-0.438l7.681,-0c0.653,-0 1.125,0.146 1.417,0.438c0.292,0.292 0.439,0.765 0.439,1.418l-0,9.897c-0,1.581 -0.138,2.766 -0.413,3.557c-0.275,0.79 -0.79,1.718 -1.546,2.783l-7.836,10.619l0,6.547c0,0.653 -0.146,1.126 -0.438,1.418c-0.292,0.292 -0.764,0.438 -1.417,0.438Z" style="fill:#808080;"/></g></g></g></svg>