<?xml version="1.0" encoding="UTF-8" standalone="no"?><!DOCTYPE svg PUBLIC "-//W3C//DTD SVG 1.1//EN" "http://www.w3.org/Graphics/SVG/1.1/DTD/svg11.dtd"><svg width="100%" height="100%" viewBox="0 0 332 82" version="1.1" xmlns="http://www.w3.org/2000/svg" xmlns:xlink="http://www.w3.org/1999/xlink" xml:space="preserve" xmlns:serif="http://www.serif.com/" style="fill-rule:evenodd;clip-rule:evenodd;stroke-linejoin:round;stroke-miterlimit:2;"><g><path d="M331.047,20.281c0,-11.193 -9.088,-20.281 -20.281,-20.281l-290.485,0c-11.193,0 -20.281,9.088 -20.281,20.281l-0,40.562c-0,11.194 9.088,20.282 20.281,20.282l290.485,-0c11.193,-0 20.281,-9.088 20.281,-20.282l0,-40.562Z" style="fill:#fff;"/><g><g><path d="M70.468,48.99c0,1.581 -0.223,3.016 -0.67,4.305c-0.447,1.288 -1.228,2.388 -2.345,3.299c-1.117,0.911 -2.655,1.624 -4.614,2.139c-1.959,0.516 -4.45,0.773 -7.474,0.773c-2.99,0 -5.456,-0.257 -7.398,-0.773c-1.941,-0.515 -3.471,-1.228 -4.587,-2.139c-1.117,-0.911 -1.891,-2.011 -2.32,-3.299c-0.43,-1.289 -0.645,-2.724 -0.645,-4.305l0,-8.35c0,-0.653 0.147,-1.126 0.439,-1.418c0.292,-0.292 0.764,-0.438 1.417,-0.438l7.475,-0c0.653,-0 1.125,0.146 1.417,0.438c0.292,0.292 0.438,0.765 0.438,1.418l0,6.289c0,0.687 0.215,1.262 0.645,1.726c0.429,0.464 1.435,0.696 3.015,0.696c1.478,0 2.415,-0.232 2.81,-0.696c0.395,-0.464 0.593,-1.039 0.593,-1.726l-0,-23.455c-0,-0.653 0.146,-1.125 0.438,-1.418c0.292,-0.292 0.764,-0.438 1.417,-0.438l8.093,0c0.653,0 1.126,0.146 1.418,0.438c0.292,0.293 0.438,0.765 0.438,1.418l0,25.516Z" style="fill-rule:nonzero;"/><path d="M56.863,47.49c-0.181,0.04 -0.932,0.195 -1.602,0.195c-0.791,-0 -1.681,-0.189 -1.845,-0.226c-0.107,-0.147 -0.148,-0.327 -0.148,-0.53c0,-0 0,-6.289 0,-6.289c0,-1.213 -0.384,-2.054 -0.926,-2.596c-0.543,-0.543 -1.383,-0.927 -2.596,-0.927c-0,0 -7.475,0 -7.475,0c-1.213,0 -2.053,0.384 -2.596,0.927c-0.543,0.542 -0.926,1.383 -0.926,2.596c-0,-0 -0,8.35 -0,8.35c-0,1.775 0.247,3.385 0.73,4.832c0.528,1.585 1.473,2.943 2.847,4.064c1.272,1.037 3.003,1.871 5.214,2.458c2.054,0.545 4.661,0.829 7.825,0.829c3.196,0 5.828,-0.283 7.898,-0.828c2.231,-0.587 3.971,-1.422 5.243,-2.459c1.368,-1.116 2.32,-2.467 2.867,-4.045c0.503,-1.453 0.762,-3.069 0.762,-4.851l-0,-25.516c-0,-1.213 -0.384,-2.053 -0.926,-2.596c-0.543,-0.543 -1.384,-0.926 -2.597,-0.926l-8.093,-0c-1.213,-0 -2.053,0.383 -2.596,0.926c-0.542,0.543 -0.926,1.383 -0.926,2.596c-0,-0 -0,23.455 -0,23.455c-0,0.214 -0.035,0.404 -0.134,0.561Zm13.605,1.5c0,1.581 -0.223,3.016 -0.67,4.305c-0.447,1.288 -1.228,2.388 -2.345,3.299c-1.117,0.911 -2.655,1.624 -4.614,2.139c-1.959,0.516 -4.45,0.773 -7.474,0.773c-2.99,0 -5.456,-0.257 -7.398,-0.773c-1.941,-0.515 -3.471,-1.228 -4.587,-2.139c-1.117,-0.911 -1.891,-2.011 -2.32,-3.299c-0.43,-1.289 -0.645,-2.724 -0.645,-4.305l0,-8.35c0,-0.653 0.147,-1.126 0.439,-1.418c0.292,-0.292 0.764,-0.438 1.417,-0.438l7.475,-0c0.653,-0 1.125,0.146 1.417,0.438c0.292,0.292 0.438,0.765 0.438,1.418l0,6.289c0,0.687 0.215,1.262 0.645,1.726c0.429,0.464 1.435,0.696 3.015,0.696c1.478,0 2.415,-0.232 2.81,-0.696c0.395,-0.464 0.593,-1.039 0.593,-1.726l-0,-23.455c-0,-0.653 0.146,-1.125 0.438,-1.418c0.292,-0.292 0.764,-0.438 1.417,-0.438l8.093,0c0.653,0 1.126,0.146 1.418,0.438c0.292,0.293 0.438,0.765 0.438,1.418l0,25.516Z" style="fill:#808080;"/><path d="M103.098,58.733l-23.918,0c-0.653,0 -1.126,-0.146 -1.418,-0.438c-0.292,-0.292 -0.438,-0.765 -0.438,-1.418l0,-33.403c0,-0.653 0.146,-1.125 0.438,-1.418c0.292,-0.292 0.765,-0.438 1.418,-0.438l23.918,0c0.653,0 1.126,0.146 1.418,0.438c0.292,0.293 0.438,0.765 0.438,1.418l0,6.031c0,0.653 -0.146,1.126 -0.438,1.418c-0.292,0.292 -0.765,0.438 -1.418,0.438l-14.227,-0l0,3.969l10.052,0c0.653,0 1.125,0.146 1.418,0.438c0.292,0.292 0.438,0.765 0.438,1.418l-0,5.516c-0,0.653 -0.146,1.125 -0.438,1.417c-0.293,0.292 -0.765,0.438 -1.418,0.438l-10.052,0l0,4.433l14.227,0c0.653,0 1.126,0.147 1.418,0.439c0.292,0.292 0.438,0.764 0.438,1.417l0,6.031c0,0.653 -0.146,1.126 -0.438,1.418c-0.292,0.292 -0.765,0.438 -1.418,0.438Z" style="fill-rule:nonzero;"/><path d="M103.098,60.4c1.213,-0 2.054,-0.384 2.596,-0.927c0.543,-0.542 0.927,-1.383 0.927,-2.596c-0,0 -0,-6.031 -0,-6.031c-0,-1.213 -0.384,-2.053 -0.927,-2.596c-0.542,-0.543 -1.383,-0.926 -2.596,-0.926l-12.56,-0c-0,-0 -0,-1.1 -0,-1.1c-0,-0 8.385,-0 8.385,-0c1.213,-0 2.053,-0.384 2.596,-0.926c0.543,-0.543 0.926,-1.383 0.926,-2.596l0,-5.516c0,-1.213 -0.383,-2.054 -0.926,-2.596c-0.543,-0.543 -1.383,-0.927 -2.596,-0.927c-0,0 -8.385,0 -8.385,0c-0,0 -0,-0.635 -0,-0.635c-0,-0 12.56,-0 12.56,-0c1.213,-0 2.054,-0.384 2.596,-0.927c0.543,-0.542 0.927,-1.383 0.927,-2.596c-0,0 -0,-6.031 -0,-6.031c-0,-1.213 -0.384,-2.053 -0.927,-2.596c-0.542,-0.543 -1.383,-0.926 -2.596,-0.926l-23.918,-0c-1.213,-0 -2.054,0.383 -2.596,0.926c-0.543,0.543 -0.927,1.383 -0.927,2.596l0,33.403c0,1.213 0.384,2.054 0.927,2.596c0.542,0.543 1.383,0.927 2.596,0.927l23.918,-0Zm0,-1.667l-23.918,0c-0.653,0 -1.126,-0.146 -1.418,-0.438c-0.292,-0.292 -0.438,-0.765 -0.438,-1.418l0,-33.403c0,-0.653 0.146,-1.125 0.438,-1.418c0.292,-0.292 0.765,-0.438 1.418,-0.438l23.918,0c0.653,0 1.126,0.146 1.418,0.438c0.292,0.293 0.438,0.765 0.438,1.418l0,6.031c0,0.653 -0.146,1.126 -0.438,1.418c-0.292,0.292 -0.765,0.438 -1.418,0.438l-14.227,-0l0,3.969l10.052,0c0.653,0 1.125,0.146 1.418,0.438c0.292,0.292 0.438,0.765 0.438,1.418l-0,5.516c-0,0.653 -0.146,1.125 -0.438,1.417c-0.293,0.292 -0.765,0.438 -1.418,0.438l-10.052,0l0,4.433l14.227,0c0.653,0 1.126,0.147 1.418,0.439c0.292,0.292 0.438,0.764 0.438,1.417l0,6.031c0,0.653 -0.146,1.126 -0.438,1.418c-0.292,0.292 -0.765,0.438 -1.418,0.438Z" style="fill:#808080;"/><path d="M137.687,21.618l7.681,0c0.653,0 1.126,0.146 1.418,0.438c0.292,0.293 0.438,0.765 0.438,1.418l-0,20.001c-0,1.099 -0.043,2.122 -0.129,3.067c-0.086,0.945 -0.352,2.053 -0.799,3.325l-2.577,7.01c-0.172,0.516 -0.421,0.954 -0.748,1.315c-0.326,0.361 -0.765,0.541 -1.314,0.541l-6.856,0c-0.55,0 -1.048,-0.12 -1.495,-0.361c-0.447,-0.24 -0.739,-0.635 -0.877,-1.185l-2.371,-8.403c-0.103,-0.343 -0.232,-0.575 -0.386,-0.696c-0.155,-0.12 -0.335,-0.18 -0.542,-0.18l-0.464,-0c-0.206,-0 -0.386,0.06 -0.541,0.18c-0.154,0.121 -0.283,0.353 -0.386,0.696l-2.423,8.403c-0.138,0.515 -0.395,0.902 -0.773,1.16c-0.378,0.257 -0.842,0.386 -1.392,0.386l-6.805,0c-0.55,0 -1.022,-0.172 -1.417,-0.515c-0.395,-0.344 -0.679,-0.791 -0.851,-1.341l-2.577,-7.113c-0.447,-1.272 -0.713,-2.38 -0.799,-3.325c-0.086,-0.945 -0.129,-1.968 -0.129,-3.067l-0,-19.898c-0,-0.653 0.146,-1.125 0.438,-1.418c0.292,-0.292 0.765,-0.438 1.418,-0.438l7.938,0c0.653,0 1.126,0.146 1.418,0.438c0.292,0.293 0.438,0.765 0.438,1.418l-0,18.97l2.99,-6.495c0.275,-0.584 0.635,-0.997 1.082,-1.237c0.447,-0.241 0.997,-0.361 1.65,-0.361l2.165,-0c0.653,-0 1.203,0.12 1.649,0.361c0.447,0.24 0.808,0.653 1.083,1.237l2.99,6.495l-0,-18.97c-0,-0.653 0.146,-1.125 0.438,-1.418c0.292,-0.292 0.764,-0.438 1.417,-0.438Z" style="fill-rule:nonzero;"/><path d="M128.893,50.795l1.927,6.826c0.267,1.036 0.849,1.763 1.696,2.219c0.683,0.368 1.443,0.56 2.285,0.56l6.856,-0c1.072,-0 1.913,-0.386 2.55,-1.09c0.473,-0.522 0.841,-1.153 1.09,-1.898c-0.006,0.019 2.563,-6.97 2.563,-6.97c0.003,-0.008 0.006,-0.015 0.008,-0.023c0.501,-1.424 0.791,-2.668 0.887,-3.726c0.09,-0.992 0.136,-2.064 0.136,-3.218l-0,-20.001c-0,-1.213 -0.384,-2.053 -0.927,-2.596c-0.542,-0.543 -1.383,-0.926 -2.596,-0.926l-7.681,-0c-1.213,-0 -2.053,0.383 -2.596,0.926c-0.542,0.543 -0.926,1.383 -0.926,2.596l-0,11.407c-0.429,-0.762 -0.981,-1.295 -1.616,-1.637c-0.662,-0.357 -1.471,-0.56 -2.439,-0.56l-2.165,0c-0.968,0 -1.778,0.203 -2.44,0.56c-0.635,0.342 -1.187,0.875 -1.615,1.637l-0,-11.407c-0,-1.213 -0.384,-2.053 -0.927,-2.596c-0.542,-0.543 -1.383,-0.926 -2.596,-0.926l-7.938,-0c-1.213,-0 -2.054,0.383 -2.596,0.926c-0.543,0.543 -0.927,1.383 -0.927,2.596l0,19.898c0,1.154 0.046,2.226 0.136,3.218c0.096,1.058 0.386,2.302 0.886,3.726l2.572,7.097c0.271,0.847 0.723,1.53 1.335,2.062c0.701,0.61 1.536,0.925 2.511,0.925l6.805,-0c0.924,-0 1.695,-0.243 2.33,-0.676c0.688,-0.469 1.186,-1.153 1.439,-2.086l1.973,-6.843Zm8.794,-29.177l7.681,0c0.653,0 1.126,0.146 1.418,0.438c0.292,0.293 0.438,0.765 0.438,1.418l-0,20.001c-0,1.099 -0.043,2.122 -0.129,3.067c-0.086,0.945 -0.352,2.053 -0.799,3.325l-2.577,7.01c-0.172,0.516 -0.421,0.954 -0.748,1.315c-0.326,0.361 -0.765,0.541 -1.314,0.541l-6.856,0c-0.55,0 -1.048,-0.12 -1.495,-0.361c-0.447,-0.24 -0.739,-0.635 -0.877,-1.185l-2.371,-8.403c-0.103,-0.343 -0.232,-0.575 -0.386,-0.696c-0.155,-0.12 -0.335,-0.18 -0.542,-0.18l-0.464,-0c-0.206,-0 -0.386,0.06 -0.541,0.18c-0.154,0.121 -0.283,0.353 -0.386,0.696l-2.423,8.403c-0.138,0.515 -0.395,0.902 -0.773,1.16c-0.378,0.257 -0.842,0.386 -1.392,0.386l-6.805,0c-0.55,0 -1.022,-0.172 -1.417,-0.515c-0.395,-0.344 -0.679,-0.791 -0.851,-1.341l-2.577,-7.113c-0.447,-1.272 -0.713,-2.38 -0.799,-3.325c-0.086,-0.945 -0.129,-1.968 -0.129,-3.067l-0,-19.898c-0,-0.653 0.146,-1.125 0.438,-1.418c0.292,-0.292 0.765,-0.438 1.418,-0.438l7.938,0c0.653,0 1.126,0.146 1.418,0.438c0.292,0.293 0.438,0.765 0.438,1.418l-0,18.97l2.99,-6.495c0.275,-0.584 0.635,-0.997 1.082,-1.237c0.447,-0.241 0.997,-0.361 1.65,-0.361l2.165,-0c0.653,-0 1.203,0.12 1.649,0.361c0.447,0.24 0.808,0.653 1.083,1.237l2.99,6.495l-0,-18.97c-0,-0.653 0.146,-1.125 0.438,-1.418c0.292,-0.292 0.764,-0.438 1.417,-0.438Z" style="fill:#808080;"/><path d="M179.648,58.733l-23.919,0c-0.653,0 -1.125,-0.146 -1.417,-0.438c-0.292,-0.292 -0.438,-0.765 -0.438,-1.418l-0,-33.403c-0,-0.653 0.146,-1.125 0.438,-1.418c0.292,-0.292 0.764,-0.438 1.417,-0.438l23.919,0c0.653,0 1.125,0.146 1.417,0.438c0.293,0.293 0.439,0.765 0.439,1.418l-0,6.031c-0,0.653 -0.146,1.126 -0.439,1.418c-0.292,0.292 -0.764,0.438 -1.417,0.438l-14.228,-0l0,3.969l10.052,0c0.653,0 1.126,0.146 1.418,0.438c0.292,0.292 0.438,0.765 0.438,1.418l0,5.516c0,0.653 -0.146,1.125 -0.438,1.417c-0.292,0.292 -0.765,0.438 -1.418,0.438l-10.052,0l0,4.433l14.228,0c0.653,0 1.125,0.147 1.417,0.439c0.293,0.292 0.439,0.764 0.439,1.417l-0,6.031c-0,0.653 -0.146,1.126 -0.439,1.418c-0.292,0.292 -0.764,0.438 -1.417,0.438Z" style="fill-rule:nonzero;"/><path d="M179.648,60.4c1.213,-0 2.053,-0.384 2.596,-0.927c0.543,-0.542 0.926,-1.383 0.926,-2.596c0,0 0,-6.031 0,-6.031c0,-1.213 -0.383,-2.053 -0.926,-2.596c-0.543,-0.543 -1.383,-0.926 -2.596,-0.926l-12.561,-0c0,-0 0,-1.1 0,-1.1c0,-0 8.385,-0 8.385,-0c1.213,-0 2.054,-0.384 2.597,-0.926c0.542,-0.543 0.926,-1.383 0.926,-2.596l-0,-5.516c-0,-1.213 -0.384,-2.054 -0.926,-2.596c-0.543,-0.543 -1.384,-0.927 -2.597,-0.927c0,0 -8.385,0 -8.385,0c0,0 0,-0.635 0,-0.635c0,-0 12.561,-0 12.561,-0c1.213,-0 2.053,-0.384 2.596,-0.927c0.543,-0.542 0.926,-1.383 0.926,-2.596c0,0 0,-6.031 0,-6.031c0,-1.213 -0.383,-2.053 -0.926,-2.596c-0.543,-0.543 -1.383,-0.926 -2.596,-0.926l-23.919,-0c-1.213,-0 -2.053,0.383 -2.596,0.926c-0.542,0.543 -0.926,1.383 -0.926,2.596c-0,-0 -0,33.403 -0,33.403c-0,1.213 0.384,2.054 0.926,2.596c0.543,0.543 1.383,0.927 2.596,0.927l23.919,-0Zm-0,-1.667l-23.919,0c-0.653,0 -1.125,-0.146 -1.417,-0.438c-0.292,-0.292 -0.438,-0.765 -0.438,-1.418l-0,-33.403c-0,-0.653 0.146,-1.125 0.438,-1.418c0.292,-0.292 0.764,-0.438 1.417,-0.438l23.919,0c0.653,0 1.125,0.146 1.417,0.438c0.293,0.293 0.439,0.765 0.439,1.418l-0,6.031c-0,0.653 -0.146,1.126 -0.439,1.418c-0.292,0.292 -0.764,0.438 -1.417,0.438l-14.228,-0l0,3.969l10.052,0c0.653,0 1.126,0.146 1.418,0.438c0.292,0.292 0.438,0.765 0.438,1.418l0,5.516c0,0.653 -0.146,1.125 -0.438,1.417c-0.292,0.292 -0.765,0.438 -1.418,0.438l-10.052,0l0,4.433l14.228,0c0.653,0 1.125,0.147 1.417,0.439c0.293,0.292 0.439,0.764 0.439,1.417l-0,6.031c-0,0.653 -0.146,1.126 -0.439,1.418c-0.292,0.292 -0.764,0.438 -1.417,0.438Z" style="fill:#808080;"/><path d="M215.68,58.733l-26.238,0c-0.653,0 -1.125,-0.146 -1.418,-0.438c-0.292,-0.292 -0.438,-0.765 -0.438,-1.418l0,-33.403c0,-0.653 0.146,-1.125 0.438,-1.418c0.293,-0.292 0.765,-0.438 1.418,-0.438l7.99,0c0.653,0 1.126,0.146 1.418,0.438c0.292,0.293 0.438,0.765 0.438,1.418l-0,25.516l7.062,0l-0,-8.35c-0,-0.653 0.146,-1.126 0.438,-1.418c0.292,-0.292 0.765,-0.438 1.418,-0.438l7.474,-0c0.653,-0 1.126,0.146 1.418,0.438c0.292,0.292 0.438,0.765 0.438,1.418l-0,16.237c-0,0.653 -0.146,1.126 -0.438,1.418c-0.292,0.292 -0.765,0.438 -1.418,0.438Z" style="fill-rule:nonzero;"/><path d="M215.68,60.4c1.213,-0 2.054,-0.384 2.596,-0.927c0.543,-0.542 0.927,-1.383 0.927,-2.596c-0,0 -0,-16.237 -0,-16.237c-0,-1.213 -0.384,-2.054 -0.927,-2.596c-0.542,-0.543 -1.383,-0.927 -2.596,-0.927c0,0 -7.474,0 -7.474,0c-1.213,0 -2.054,0.384 -2.596,0.927c-0.543,0.542 -0.927,1.383 -0.927,2.596l0,6.684c0,-0 -3.729,-0 -3.729,-0c0,-0 0,-23.85 0,-23.85c0,-1.213 -0.383,-2.053 -0.926,-2.596c-0.542,-0.543 -1.383,-0.926 -2.596,-0.926l-7.99,-0c-1.213,-0 -2.053,0.383 -2.596,0.926c-0.543,0.543 -0.926,1.383 -0.926,2.596c-0,-0 -0,33.403 -0,33.403c-0,1.213 0.383,2.054 0.926,2.596c0.543,0.543 1.383,0.927 2.596,0.927l26.238,-0Zm0,-1.667l-26.238,0c-0.653,0 -1.125,-0.146 -1.418,-0.438c-0.292,-0.292 -0.438,-0.765 -0.438,-1.418l0,-33.403c0,-0.653 0.146,-1.125 0.438,-1.418c0.293,-0.292 0.765,-0.438 1.418,-0.438l7.99,0c0.653,0 1.126,0.146 1.418,0.438c0.292,0.293 0.438,0.765 0.438,1.418l-0,25.516l7.062,0l-0,-8.35c-0,-0.653 0.146,-1.126 0.438,-1.418c0.292,-0.292 0.765,-0.438 1.418,-0.438l7.474,-0c0.653,-0 1.126,0.146 1.418,0.438c0.292,0.292 0.438,0.765 0.438,1.418l-0,16.237c-0,0.653 -0.146,1.126 -0.438,1.418c-0.292,0.292 -0.765,0.438 -1.418,0.438Z" style="fill:#808080;"/><path d="M235.062,30.897l0,6.598l3.867,0c0.893,0 1.494,-0.232 1.804,-0.696c0.309,-0.464 0.464,-1.039 0.464,-1.727l-0,-1.752c-0,-0.688 -0.155,-1.263 -0.464,-1.727c-0.31,-0.464 -0.911,-0.696 -1.804,-0.696l-3.867,-0Zm-1.855,27.836l-7.939,0c-0.653,0 -1.125,-0.146 -1.417,-0.438c-0.292,-0.292 -0.439,-0.765 -0.439,-1.418l0,-33.403c0,-0.653 0.147,-1.125 0.439,-1.418c0.292,-0.292 0.764,-0.438 1.417,-0.438l17.166,0c3.849,0 6.504,0.799 7.964,2.397c1.461,1.598 2.191,3.669 2.191,6.212l-0,2.371c-0,1.443 -0.215,2.672 -0.644,3.686c-0.43,1.014 -1.177,1.744 -2.243,2.191c1.856,0.206 3.359,0.962 4.511,2.268c1.151,1.306 1.727,3.041 1.727,5.206l-0,10.928c-0,0.653 -0.146,1.126 -0.439,1.418c-0.292,0.292 -0.764,0.438 -1.417,0.438l-7.99,0c-0.653,0 -1.126,-0.146 -1.418,-0.438c-0.292,-0.292 -0.438,-0.765 -0.438,-1.418l0,-7.887c0,-0.756 -0.146,-1.314 -0.438,-1.675c-0.292,-0.361 -0.799,-0.541 -1.521,-0.541l-7.217,-0l0,10.103c0,0.653 -0.146,1.126 -0.438,1.418c-0.292,0.292 -0.764,0.438 -1.417,0.438Z" style="fill-rule:nonzero;"/><path d="M242.556,48.466c0.039,0.132 0.015,0.312 0.015,0.524l0,7.887c0,1.213 0.384,2.054 0.927,2.596c0.542,0.543 1.383,0.927 2.596,0.927l7.99,-0c1.213,-0 2.053,-0.384 2.596,-0.927c0.543,-0.542 0.926,-1.383 0.926,-2.596c0,0 0,-10.928 0,-10.928c0,-2.63 -0.745,-4.722 -2.143,-6.308c-0.698,-0.792 -1.498,-1.424 -2.403,-1.892c0.158,-0.256 0.297,-0.527 0.419,-0.815c0.506,-1.193 0.777,-2.637 0.777,-4.336c-0,0 -0,-2.371 -0,-2.371c-0,-3.009 -0.9,-5.446 -2.628,-7.336c-1.695,-1.855 -4.727,-2.939 -9.194,-2.939l-17.166,-0c-1.213,-0 -2.053,0.383 -2.596,0.926c-0.543,0.543 -0.926,1.383 -0.926,2.596c-0,-0 -0,33.403 -0,33.403c-0,1.213 0.383,2.054 0.926,2.596c0.543,0.543 1.383,0.927 2.596,0.927l7.939,-0c1.213,-0 2.053,-0.384 2.596,-0.927c0.542,-0.542 0.926,-1.383 0.926,-2.596l0,-8.436c0,-0 5.55,-0 5.55,-0c0.085,-0 0.2,0.014 0.277,0.025Zm-9.349,10.267l-7.939,0c-0.653,0 -1.125,-0.146 -1.417,-0.438c-0.292,-0.292 -0.439,-0.765 -0.439,-1.418l0,-33.403c0,-0.653 0.147,-1.125 0.439,-1.418c0.292,-0.292 0.764,-0.438 1.417,-0.438l17.166,0c3.849,0 6.504,0.799 7.964,2.397c1.461,1.598 2.191,3.669 2.191,6.212l-0,2.371c-0,1.443 -0.215,2.672 -0.644,3.686c-0.43,1.014 -1.177,1.744 -2.243,2.191c1.856,0.206 3.359,0.962 4.511,2.268c1.151,1.306 1.727,3.041 1.727,5.206l-0,10.928c-0,0.653 -0.146,1.126 -0.439,1.418c-0.292,0.292 -0.764,0.438 -1.417,0.438l-7.99,0c-0.653,0 -1.126,-0.146 -1.418,-0.438c-0.292,-0.292 -0.438,-0.765 -0.438,-1.418l0,-7.887c0,-0.756 -0.146,-1.314 -0.438,-1.675c-0.292,-0.361 -0.799,-0.541 -1.521,-0.541l-7.217,-0l0,10.103c0,0.653 -0.146,1.126 -0.438,1.418c-0.292,0.292 -0.764,0.438 -1.417,0.438Zm1.855,-27.836l0,6.598l3.867,0c0.893,0 1.494,-0.232 1.804,-0.696c0.309,-0.464 0.464,-1.039 0.464,-1.727l-0,-1.752c-0,-0.688 -0.155,-1.263 -0.464,-1.727c-0.31,-0.464 -0.911,-0.696 -1.804,-0.696l-3.867,-0Zm4.341,1.722c0.097,0.196 0.127,0.432 0.127,0.701l0,1.752c0,0.269 -0.03,0.505 -0.127,0.701c-0.1,0.019 -0.313,0.056 -0.474,0.056c-0,-0 -2.2,-0 -2.2,-0l0,-3.265l2.2,-0c0.161,-0 0.374,0.036 0.474,0.055Z" style="fill:#808080;"/><path d="M278.982,58.733l-8.351,0c-0.653,0 -1.126,-0.146 -1.418,-0.438c-0.292,-0.292 -0.438,-0.765 -0.438,-1.418l0,-6.598l-7.887,-10.567c-0.79,-1.066 -1.314,-1.993 -1.572,-2.784c-0.258,-0.79 -0.387,-1.976 -0.387,-3.557l0,-9.897c0,-0.653 0.146,-1.125 0.439,-1.418c0.292,-0.292 0.764,-0.438 1.417,-0.438l7.939,0c0.653,0 1.125,0.146 1.417,0.438c0.292,0.293 0.438,0.765 0.438,1.418l0,8.454c0,0.344 0.018,0.704 0.052,1.082c0.034,0.378 0.172,0.739 0.412,1.083l2.371,3.711c0.172,0.31 0.353,0.533 0.542,0.671c0.189,0.137 0.421,0.206 0.696,0.206l0.515,-0c0.275,-0 0.507,-0.069 0.696,-0.206c0.189,-0.138 0.369,-0.361 0.541,-0.671l2.372,-3.711c0.24,-0.344 0.378,-0.705 0.412,-1.083c0.034,-0.378 0.051,-0.738 0.051,-1.082l0,-8.454c0,-0.653 0.147,-1.125 0.439,-1.418c0.292,-0.292 0.764,-0.438 1.417,-0.438l7.681,0c0.653,0 1.125,0.146 1.418,0.438c0.292,0.293 0.438,0.765 0.438,1.418l-0,9.897c-0,1.581 -0.138,2.767 -0.413,3.557c-0.275,0.791 -0.79,1.718 -1.546,2.784l-7.836,10.619l0,6.546c0,0.653 -0.146,1.126 -0.438,1.418c-0.292,0.292 -0.764,0.438 -1.417,0.438Z" style="fill-rule:nonzero;"/><path d="M274.936,37.014l-0.053,0l-0.064,-0.107l-2.371,-3.711c-0.013,-0.02 -0.026,-0.04 -0.039,-0.059c-0.063,-0.089 -0.109,-0.179 -0.118,-0.277c-0.03,-0.326 -0.045,-0.636 -0.045,-0.932c-0,-0 -0,-8.454 -0,-8.454c-0,-1.213 -0.384,-2.053 -0.926,-2.596c-0.543,-0.543 -1.383,-0.926 -2.596,-0.926l-7.939,-0c-1.213,-0 -2.053,0.383 -2.596,0.926c-0.543,0.543 -0.926,1.383 -0.926,2.596l-0,9.897c-0,1.812 0.173,3.168 0.468,4.074c0.301,0.923 0.896,2.016 1.819,3.26l7.558,10.128c0,-0 0,6.044 0,6.044c0,1.213 0.384,2.054 0.927,2.596c0.542,0.543 1.383,0.927 2.596,0.927l8.351,-0c1.213,-0 2.053,-0.384 2.596,-0.927c0.542,-0.542 0.926,-1.383 0.926,-2.596c0,0 0,-5.998 0,-5.998c0,0 7.51,-10.178 7.51,-10.178c0.006,-0.008 0.012,-0.016 0.018,-0.025c0.867,-1.222 1.446,-2.293 1.761,-3.2c0.318,-0.913 0.505,-2.279 0.505,-4.105c0,0 0,-9.897 0,-9.897c0,-1.213 -0.383,-2.053 -0.926,-2.596c-0.543,-0.543 -1.383,-0.926 -2.596,-0.926l-7.681,-0c-1.213,-0 -2.053,0.383 -2.596,0.926c-0.543,0.543 -0.926,1.383 -0.926,2.596l-0,8.454c-0,0.296 -0.015,0.606 -0.045,0.932c-0.009,0.098 -0.055,0.188 -0.118,0.277c-0.013,0.019 -0.026,0.039 -0.039,0.059l-2.371,3.711l-0.064,0.107Zm4.046,21.719l-8.351,0c-0.653,0 -1.126,-0.146 -1.418,-0.438c-0.292,-0.292 -0.438,-0.765 -0.438,-1.418l0,-6.598l-7.887,-10.567c-0.79,-1.066 -1.314,-1.993 -1.572,-2.784c-0.258,-0.79 -0.387,-1.976 -0.387,-3.557l0,-9.897c0,-0.653 0.146,-1.125 0.439,-1.418c0.292,-0.292 0.764,-0.438 1.417,-0.438l7.939,0c0.653,0 1.125,0.146 1.417,0.438c0.292,0.293 0.438,0.765 0.438,1.418l0,8.454c0,0.344 0.018,0.704 0.052,1.082c0.034,0.378 0.172,0.739 0.412,1.083l2.371,3.711c0.172,0.31 0.353,0.533 0.542,0.671c0.189,0.137 0.421,0.206 0.696,0.206l0.515,-0c0.275,-0 0.507,-0.069 0.696,-0.206c0.189,-0.138 0.369,-0.361 0.541,-0.671l2.372,-3.711c0.24,-0.344 0.378,-0.705 0.412,-1.083c0.034,-0.378 0.051,-0.738 0.051,-1.082l0,-8.454c0,-0.653 0.147,-1.125 0.439,-1.418c0.292,-0.292 0.764,-0.438 1.417,-0.438l7.681,0c0.653,0 1.125,0.146 1.418,0.438c0.292,0.293 0.438,0.765 0.438,1.418l-0,9.897c-0,1.581 -0.138,2.767 -0.413,3.557c-0.275,0.791 -0.79,1.718 -1.546,2.784l-7.836,10.619l0,6.546c0,0.653 -0.146,1.126 -0.438,1.418c-0.292,0.292 -0.764,0.438 -1.417,0.438Z" style="fill:#808080;"/></g></g></g></svg>