<?xml version="1.0" encoding="UTF-8" standalone="no"?>
<!DOCTYPE svg PUBLIC "-//W3C//DTD SVG 1.1//EN" "http://www.w3.org/Graphics/SVG/1.1/DTD/svg11.dtd">
<svg width="100%" height="100%" viewBox="0 0 276 43" version="1.1" xmlns="http://www.w3.org/2000/svg" xmlns:xlink="http://www.w3.org/1999/xlink" xml:space="preserve" xmlns:serif="http://www.serif.com/" style="fill-rule:evenodd;clip-rule:evenodd;stroke-linejoin:round;stroke-miterlimit:2;">
    <g transform="matrix(1,0,0,1,-364.942,-357.595)">
        <g>
            <path d="M397.083,386.684C397.083,388.325 396.844,389.815 396.366,391.153C395.888,392.491 395.052,393.633 393.858,394.579C392.663,395.524 391.019,396.265 388.924,396.8C386.829,397.335 384.164,397.603 380.93,397.603C377.732,397.603 375.095,397.335 373.018,396.8C370.942,396.265 369.306,395.524 368.112,394.579C366.917,393.633 366.09,392.491 365.631,391.153C365.171,389.815 364.942,388.325 364.942,386.684L364.942,378.013C364.942,377.335 365.098,376.844 365.41,376.541C365.723,376.237 366.228,376.086 366.926,376.086L374.92,376.086C375.619,376.086 376.124,376.237 376.437,376.541C376.749,376.844 376.905,377.335 376.905,378.013L376.905,384.543C376.905,385.256 377.135,385.854 377.594,386.336C378.054,386.818 379.129,387.058 380.819,387.058C382.4,387.058 383.401,386.818 383.824,386.336C384.247,385.854 384.458,385.256 384.458,384.543L384.458,360.189C384.458,359.511 384.614,359.02 384.927,358.717C385.239,358.414 385.744,358.262 386.443,358.262L395.098,358.262C395.797,358.262 396.302,358.414 396.614,358.717C396.927,359.02 397.083,359.511 397.083,360.189L397.083,386.684ZM431.981,396.8L406.4,396.8C405.702,396.8 405.196,396.648 404.884,396.345C404.572,396.042 404.415,395.551 404.415,394.873L404.415,360.189C404.415,359.511 404.572,359.02 404.884,358.717C405.196,358.414 405.702,358.262 406.4,358.262L431.981,358.262C432.679,358.262 433.184,358.414 433.497,358.717C433.809,359.02 433.965,359.511 433.965,360.189L433.965,366.451C433.965,367.129 433.809,367.62 433.497,367.923C433.184,368.226 432.679,368.378 431.981,368.378L416.765,368.378L416.765,372.5L427.515,372.5C428.213,372.5 428.719,372.651 429.031,372.955C429.344,373.258 429.5,373.748 429.5,374.426L429.5,380.154C429.5,380.832 429.344,381.322 429.031,381.626C428.719,381.929 428.213,382.081 427.515,382.081L416.765,382.081L416.765,386.684L431.981,386.684C432.679,386.684 433.184,386.835 433.497,387.139C433.809,387.442 433.965,387.933 433.965,388.611L433.965,394.873C433.965,395.551 433.809,396.042 433.497,396.345C433.184,396.648 432.679,396.8 431.981,396.8ZM468.973,358.262L477.188,358.262C477.886,358.262 478.391,358.414 478.704,358.717C479.016,359.02 479.172,359.511 479.172,360.189L479.172,380.957C479.172,382.098 479.126,383.16 479.035,384.141C478.943,385.123 478.658,386.273 478.18,387.594L475.424,394.873C475.24,395.408 474.973,395.863 474.624,396.238C474.275,396.613 473.806,396.8 473.218,396.8L465.886,396.8C465.298,396.8 464.765,396.675 464.287,396.425C463.809,396.176 463.497,395.765 463.35,395.194L460.814,386.47C460.704,386.113 460.566,385.872 460.4,385.747C460.235,385.622 460.042,385.56 459.822,385.56L459.325,385.56C459.105,385.56 458.912,385.622 458.747,385.747C458.581,385.872 458.443,386.113 458.333,386.47L455.742,395.194C455.595,395.729 455.319,396.131 454.915,396.399C454.511,396.666 454.014,396.8 453.426,396.8L446.149,396.8C445.561,396.8 445.056,396.622 444.633,396.265C444.21,395.908 443.907,395.444 443.723,394.873L440.967,387.487C440.489,386.166 440.204,385.016 440.112,384.034C440.021,383.053 439.975,381.991 439.975,380.849L439.975,360.189C439.975,359.511 440.131,359.02 440.443,358.717C440.756,358.414 441.261,358.262 441.959,358.262L450.449,358.262C451.148,358.262 451.653,358.414 451.965,358.717C452.278,359.02 452.434,359.511 452.434,360.189L452.434,379.886L455.632,373.142C455.926,372.535 456.312,372.107 456.789,371.857C457.267,371.607 457.855,371.483 458.554,371.483L460.869,371.483C461.567,371.483 462.155,371.607 462.633,371.857C463.111,372.107 463.497,372.535 463.791,373.142L466.989,379.886L466.989,360.189C466.989,359.511 467.145,359.02 467.457,358.717C467.77,358.414 468.275,358.262 468.973,358.262ZM513.85,396.8L488.269,396.8C487.571,396.8 487.065,396.648 486.753,396.345C486.44,396.042 486.284,395.551 486.284,394.873L486.284,360.189C486.284,359.511 486.44,359.02 486.753,358.717C487.065,358.414 487.571,358.262 488.269,358.262L513.85,358.262C514.548,358.262 515.053,358.414 515.366,358.717C515.678,359.02 515.834,359.511 515.834,360.189L515.834,366.451C515.834,367.129 515.678,367.62 515.366,367.923C515.053,368.226 514.548,368.378 513.85,368.378L498.634,368.378L498.634,372.5L509.384,372.5C510.082,372.5 510.588,372.651 510.9,372.955C511.213,373.258 511.369,373.748 511.369,374.426L511.369,380.154C511.369,380.832 511.213,381.322 510.9,381.626C510.588,381.929 510.082,382.081 509.384,382.081L498.634,382.081L498.634,386.684L513.85,386.684C514.548,386.684 515.053,386.835 515.366,387.139C515.678,387.442 515.834,387.933 515.834,388.611L515.834,394.873C515.834,395.551 515.678,396.042 515.366,396.345C515.053,396.648 514.548,396.8 513.85,396.8ZM552.386,396.8L524.324,396.8C523.626,396.8 523.121,396.648 522.808,396.345C522.496,396.042 522.34,395.551 522.34,394.873L522.34,360.189C522.34,359.511 522.496,359.02 522.808,358.717C523.121,358.414 523.626,358.262 524.324,358.262L532.87,358.262C533.568,358.262 534.073,358.414 534.386,358.717C534.698,359.02 534.854,359.511 534.854,360.189L534.854,386.684L542.407,386.684L542.407,378.013C542.407,377.335 542.563,376.844 542.876,376.541C543.188,376.237 543.694,376.086 544.392,376.086L552.386,376.086C553.084,376.086 553.59,376.237 553.902,376.541C554.214,376.844 554.371,377.335 554.371,378.013L554.371,394.873C554.371,395.551 554.214,396.042 553.902,396.345C553.59,396.648 553.084,396.8 552.386,396.8ZM571.13,396.8L562.64,396.8C561.942,396.8 561.437,396.648 561.124,396.345C560.812,396.042 560.656,395.551 560.656,394.873L560.656,360.189C560.656,359.511 560.812,359.02 561.124,358.717C561.437,358.414 561.942,358.262 562.64,358.262L580.999,358.262C585.115,358.262 587.954,359.091 589.516,360.751C591.078,362.41 591.859,364.56 591.859,367.201L591.859,369.663C591.859,371.161 591.63,372.437 591.17,373.49C590.711,374.542 589.911,375.301 588.772,375.765C590.757,375.979 592.365,376.764 593.596,378.12C594.827,379.476 595.443,381.278 595.443,383.526L595.443,394.873C595.443,395.551 595.287,396.042 594.974,396.345C594.662,396.648 594.157,396.8 593.458,396.8L584.913,396.8C584.215,396.8 583.709,396.648 583.397,396.345C583.084,396.042 582.928,395.551 582.928,394.873L582.928,386.684C582.928,385.899 582.772,385.319 582.46,384.944C582.147,384.569 581.605,384.382 580.833,384.382L573.115,384.382L573.115,394.873C573.115,395.551 572.959,396.042 572.646,396.345C572.334,396.648 571.829,396.8 571.13,396.8ZM573.115,367.896L573.115,374.748L577.25,374.748C578.205,374.748 578.849,374.507 579.179,374.025C579.51,373.543 579.676,372.946 579.676,372.232L579.676,370.412C579.676,369.698 579.51,369.101 579.179,368.619C578.849,368.137 578.205,367.896 577.25,367.896L573.115,367.896ZM620.134,396.8L611.203,396.8C610.505,396.8 610,396.648 609.687,396.345C609.375,396.042 609.219,395.551 609.219,394.873L609.219,388.022L600.784,377.049C599.938,375.943 599.378,374.98 599.102,374.159C598.826,373.338 598.689,372.107 598.689,370.466L598.689,360.189C598.689,359.511 598.845,359.02 599.157,358.717C599.47,358.414 599.975,358.262 600.673,358.262L609.163,358.262C609.862,358.262 610.367,358.414 610.68,358.717C610.992,359.02 611.148,359.511 611.148,360.189L611.148,368.967C611.148,369.324 611.167,369.698 611.203,370.091C611.24,370.483 611.387,370.858 611.644,371.215L614.18,375.069C614.364,375.39 614.557,375.622 614.759,375.765C614.961,375.907 615.209,375.979 615.504,375.979L616.055,375.979C616.349,375.979 616.597,375.907 616.799,375.765C617.001,375.622 617.194,375.39 617.378,375.069L619.914,371.215C620.171,370.858 620.318,370.483 620.355,370.091C620.392,369.698 620.41,369.324 620.41,368.967L620.41,360.189C620.41,359.511 620.566,359.02 620.879,358.717C621.191,358.414 621.697,358.262 622.395,358.262L630.609,358.262C631.308,358.262 631.813,358.414 632.125,358.717C632.438,359.02 632.594,359.511 632.594,360.189L632.594,370.466C632.594,372.107 632.447,373.338 632.153,374.159C631.859,374.98 631.308,375.943 630.499,377.049L622.119,388.075L622.119,394.873C622.119,395.551 621.963,396.042 621.651,396.345C621.338,396.648 620.833,396.8 620.134,396.8Z" style="fill:rgb(255,0,0);"/>
            <path d="M403.083,387.684C403.083,389.325 402.844,390.815 402.366,392.153C401.888,393.491 401.052,394.633 399.858,395.579C398.663,396.524 397.019,397.265 394.924,397.8C392.829,398.335 390.164,398.603 386.93,398.603C383.732,398.603 381.095,398.335 379.018,397.8C376.942,397.265 375.306,396.524 374.112,395.579C372.917,394.633 372.09,393.491 371.631,392.153C371.171,390.815 370.942,389.325 370.942,387.684L370.942,379.013C370.942,378.335 371.098,377.844 371.41,377.541C371.723,377.237 372.228,377.086 372.926,377.086L380.92,377.086C381.619,377.086 382.124,377.237 382.437,377.541C382.749,377.844 382.905,378.335 382.905,379.013L382.905,385.543C382.905,386.256 383.135,386.854 383.594,387.336C384.054,387.818 385.129,388.058 386.819,388.058C388.4,388.058 389.401,387.818 389.824,387.336C390.247,386.854 390.458,386.256 390.458,385.543L390.458,361.189C390.458,360.511 390.614,360.02 390.927,359.717C391.239,359.414 391.744,359.262 392.443,359.262L401.098,359.262C401.797,359.262 402.302,359.414 402.614,359.717C402.927,360.02 403.083,360.511 403.083,361.189L403.083,387.684Z" style="fill:white;fill-rule:nonzero;"/>
            <path d="M384.759,386.138C384.818,386.161 384.986,386.224 385.109,386.251C385.552,386.351 386.123,386.392 386.819,386.392C387.592,386.392 388.458,386.205 388.626,386.167C388.746,385.994 388.791,385.782 388.791,385.543L388.791,361.189C388.791,359.942 389.191,359.079 389.766,358.521C390.325,357.978 391.193,357.595 392.443,357.595L401.098,357.595C402.348,357.595 403.216,357.978 403.775,358.521C404.35,359.079 404.75,359.942 404.75,361.189L404.75,387.684C404.75,389.531 404.474,391.207 403.936,392.714C403.355,394.341 402.345,395.735 400.892,396.885C399.545,397.952 397.7,398.811 395.336,399.415C393.133,399.978 390.331,400.27 386.93,400.27C383.564,400.27 380.788,399.977 378.602,399.414C376.26,398.81 374.425,397.952 373.077,396.885C371.618,395.73 370.616,394.329 370.055,392.694C369.539,391.194 369.275,389.524 369.275,387.684L369.275,379.013C369.275,377.766 369.675,376.903 370.249,376.345C370.808,375.802 371.677,375.419 372.926,375.419L380.92,375.419C382.17,375.419 383.038,375.802 383.597,376.345C384.172,376.903 384.572,377.766 384.572,379.013L384.572,385.543C384.572,385.773 384.626,385.975 384.759,386.138ZM403.083,387.684L403.083,361.189C403.083,360.511 402.927,360.02 402.614,359.717C402.302,359.414 401.797,359.262 401.098,359.262L392.443,359.262C391.744,359.262 391.239,359.414 390.927,359.717C390.614,360.02 390.458,360.511 390.458,361.189L390.458,385.543C390.458,386.256 390.247,386.854 389.824,387.336C389.401,387.818 388.4,388.058 386.819,388.058C385.129,388.058 384.054,387.818 383.594,387.336C383.135,386.854 382.905,386.256 382.905,385.543L382.905,379.013C382.905,378.335 382.749,377.844 382.437,377.541C382.124,377.237 381.619,377.086 380.92,377.086L372.926,377.086C372.228,377.086 371.723,377.237 371.41,377.541C371.098,377.844 370.942,378.335 370.942,379.013L370.942,387.684C370.942,389.325 371.171,390.815 371.631,392.153C372.09,393.491 372.917,394.633 374.112,395.579C375.306,396.524 376.942,397.265 379.018,397.8C381.095,398.335 383.732,398.603 386.93,398.603C390.164,398.603 392.829,398.335 394.924,397.8C397.019,397.265 398.663,396.524 399.858,395.579C401.052,394.633 401.888,393.491 402.366,392.153C402.844,390.815 403.083,389.325 403.083,387.684Z"/>
            <path d="M437.981,397.8L412.4,397.8C411.702,397.8 411.196,397.648 410.884,397.345C410.572,397.042 410.415,396.551 410.415,395.873L410.415,361.189C410.415,360.511 410.572,360.02 410.884,359.717C411.196,359.414 411.702,359.262 412.4,359.262L437.981,359.262C438.679,359.262 439.184,359.414 439.497,359.717C439.809,360.02 439.965,360.511 439.965,361.189L439.965,367.451C439.965,368.129 439.809,368.62 439.497,368.923C439.184,369.226 438.679,369.378 437.981,369.378L422.765,369.378L422.765,373.5L433.515,373.5C434.213,373.5 434.719,373.651 435.031,373.955C435.344,374.258 435.5,374.748 435.5,375.426L435.5,381.154C435.5,381.832 435.344,382.322 435.031,382.626C434.719,382.929 434.213,383.081 433.515,383.081L422.765,383.081L422.765,387.684L437.981,387.684C438.679,387.684 439.184,387.835 439.497,388.139C439.809,388.442 439.965,388.933 439.965,389.611L439.965,395.873C439.965,396.551 439.809,397.042 439.497,397.345C439.184,397.648 438.679,397.8 437.981,397.8Z" style="fill:white;fill-rule:nonzero;"/>
            <path d="M437.981,399.467L412.4,399.467C411.15,399.467 410.282,399.084 409.723,398.541C409.149,397.983 408.749,397.12 408.749,395.873L408.749,361.189C408.749,359.942 409.149,359.079 409.723,358.521C410.282,357.978 411.15,357.595 412.4,357.595L437.981,357.595C439.23,357.595 440.099,357.978 440.658,358.521C441.232,359.079 441.632,359.942 441.632,361.189L441.632,367.451C441.632,368.698 441.232,369.561 440.658,370.119C440.099,370.662 439.23,371.045 437.981,371.045L424.431,371.045C424.431,371.045 424.431,371.833 424.431,371.833L433.515,371.833C434.765,371.833 435.633,372.216 436.192,372.759C436.766,373.316 437.166,374.18 437.166,375.426L437.166,381.154C437.166,382.4 436.766,383.264 436.192,383.821C435.633,384.364 434.765,384.747 433.515,384.747C433.515,384.747 424.431,384.747 424.431,384.747L424.431,386.017L437.981,386.017C439.23,386.017 440.099,386.4 440.658,386.943C441.232,387.501 441.632,388.364 441.632,389.611L441.632,395.873C441.632,397.12 441.232,397.983 440.658,398.541C440.099,399.084 439.23,399.467 437.981,399.467ZM437.981,397.8C438.679,397.8 439.184,397.648 439.497,397.345C439.809,397.042 439.965,396.551 439.965,395.873L439.965,389.611C439.965,388.933 439.809,388.442 439.497,388.139C439.184,387.835 438.679,387.684 437.981,387.684L422.765,387.684L422.765,383.081L433.515,383.081C434.213,383.081 434.719,382.929 435.031,382.626C435.344,382.322 435.5,381.832 435.5,381.154L435.5,375.426C435.5,374.748 435.344,374.258 435.031,373.955C434.719,373.651 434.213,373.5 433.515,373.5L422.765,373.5L422.765,369.378L437.981,369.378C438.679,369.378 439.184,369.226 439.497,368.923C439.809,368.62 439.965,368.129 439.965,367.451L439.965,361.189C439.965,360.511 439.809,360.02 439.497,359.717C439.184,359.414 438.679,359.262 437.981,359.262L412.4,359.262C411.702,359.262 411.196,359.414 410.884,359.717C410.572,360.02 410.415,360.511 410.415,361.189L410.415,395.873C410.415,396.551 410.572,397.042 410.884,397.345C411.196,397.648 411.702,397.8 412.4,397.8L437.981,397.8Z"/>
            <path d="M474.973,359.262L483.188,359.262C483.886,359.262 484.391,359.414 484.704,359.717C485.016,360.02 485.172,360.511 485.172,361.189L485.172,381.957C485.172,383.098 485.126,384.16 485.035,385.141C484.943,386.123 484.658,387.273 484.18,388.594L481.424,395.873C481.24,396.408 480.973,396.863 480.624,397.238C480.275,397.613 479.806,397.8 479.218,397.8L471.886,397.8C471.298,397.8 470.765,397.675 470.287,397.425C469.809,397.176 469.497,396.765 469.35,396.194L466.814,387.47C466.704,387.113 466.566,386.872 466.4,386.747C466.235,386.622 466.042,386.56 465.822,386.56L465.325,386.56C465.105,386.56 464.912,386.622 464.747,386.747C464.581,386.872 464.443,387.113 464.333,387.47L461.742,396.194C461.595,396.729 461.319,397.131 460.915,397.399C460.511,397.666 460.014,397.8 459.426,397.8L452.149,397.8C451.561,397.8 451.056,397.622 450.633,397.265C450.21,396.908 449.907,396.444 449.723,395.873L446.967,388.487C446.489,387.166 446.204,386.016 446.112,385.034C446.021,384.053 445.975,382.991 445.975,381.849L445.975,361.189C445.975,360.511 446.131,360.02 446.443,359.717C446.756,359.414 447.261,359.262 447.959,359.262L456.449,359.262C457.148,359.262 457.653,359.414 457.965,359.717C458.278,360.02 458.434,360.511 458.434,361.189L458.434,380.886L461.632,374.142C461.926,373.535 462.312,373.107 462.789,372.857C463.267,372.607 463.855,372.483 464.554,372.483L466.869,372.483C467.567,372.483 468.155,372.607 468.633,372.857C469.111,373.107 469.497,373.535 469.791,374.142L472.989,380.886L472.989,361.189C472.989,360.511 473.145,360.02 473.457,359.717C473.77,359.414 474.275,359.262 474.973,359.262Z" style="fill:white;fill-rule:nonzero;"/>
            <path d="M465.57,389.16C464.86,391.548 463.343,396.657 463.343,396.657C463.076,397.611 462.558,398.31 461.835,398.788C461.179,399.223 460.381,399.467 459.426,399.467L452.149,399.467C451.142,399.467 450.282,399.149 449.558,398.538C448.912,397.993 448.437,397.291 448.15,396.423L445.405,389.069C445.404,389.064 445.402,389.059 445.4,389.054C444.865,387.577 444.556,386.287 444.453,385.19C444.357,384.16 444.308,383.047 444.308,381.849L444.308,361.189C444.308,359.942 444.708,359.079 445.282,358.521C445.841,357.978 446.71,357.595 447.959,357.595L456.449,357.595C457.699,357.595 458.567,357.978 459.126,358.521C459.701,359.079 460.101,359.942 460.101,361.189L460.101,373.48L460.126,373.428C460.128,373.424 460.13,373.419 460.132,373.415C460.604,372.442 461.251,371.781 462.017,371.38C462.706,371.02 463.548,370.816 464.554,370.816L466.869,370.816C467.875,370.816 468.717,371.02 469.405,371.38C470.172,371.781 470.819,372.442 471.291,373.415C471.293,373.419 471.295,373.424 471.297,373.428L471.322,373.48L471.322,361.189C471.322,359.942 471.722,359.079 472.296,358.521C472.855,357.978 473.724,357.595 474.973,357.595L483.188,357.595C484.437,357.595 485.306,357.978 485.865,358.521C486.439,359.079 486.839,359.942 486.839,361.189L486.839,381.957C486.839,383.154 486.79,384.267 486.694,385.297C486.591,386.394 486.282,387.684 485.747,389.161C485.744,389.169 485.742,389.176 485.739,389.184C485.739,389.184 482.99,396.442 482.997,396.421C482.733,397.188 482.344,397.837 481.843,398.374C481.188,399.078 480.323,399.467 479.218,399.467L471.886,399.467C471.013,399.467 470.224,399.273 469.515,398.902C468.627,398.438 468.023,397.695 467.744,396.64C467.744,396.64 466.266,391.556 465.57,389.16ZM474.973,359.262C474.275,359.262 473.77,359.414 473.457,359.717C473.145,360.02 472.989,360.511 472.989,361.189L472.989,380.886L469.791,374.142C469.497,373.535 469.111,373.107 468.633,372.857C468.155,372.607 467.567,372.483 466.869,372.483L464.554,372.483C463.855,372.483 463.267,372.607 462.789,372.857C462.312,373.107 461.926,373.535 461.632,374.142L458.434,380.886L458.434,361.189C458.434,360.511 458.278,360.02 457.965,359.717C457.653,359.414 457.148,359.262 456.449,359.262L447.959,359.262C447.261,359.262 446.756,359.414 446.443,359.717C446.131,360.02 445.975,360.511 445.975,361.189L445.975,381.849C445.975,382.991 446.021,384.053 446.112,385.034C446.204,386.016 446.489,387.166 446.967,388.487L449.723,395.873C449.907,396.444 450.21,396.908 450.633,397.265C451.056,397.622 451.561,397.8 452.149,397.8L459.426,397.8C460.014,397.8 460.511,397.666 460.915,397.399C461.319,397.131 461.595,396.729 461.742,396.194L464.333,387.47C464.443,387.113 464.581,386.872 464.747,386.747C464.912,386.622 465.105,386.56 465.325,386.56L465.822,386.56C466.042,386.56 466.235,386.622 466.4,386.747C466.566,386.872 466.704,387.113 466.814,387.47L469.35,396.194C469.497,396.765 469.809,397.176 470.287,397.425C470.765,397.675 471.298,397.8 471.886,397.8L479.218,397.8C479.806,397.8 480.275,397.613 480.624,397.238C480.973,396.863 481.24,396.408 481.424,395.873L484.18,388.594C484.658,387.273 484.943,386.123 485.035,385.141C485.126,384.16 485.172,383.098 485.172,381.957L485.172,361.189C485.172,360.511 485.016,360.02 484.704,359.717C484.391,359.414 483.886,359.262 483.188,359.262L474.973,359.262Z"/>
            <path d="M519.85,397.8L494.269,397.8C493.571,397.8 493.065,397.648 492.753,397.345C492.44,397.042 492.284,396.551 492.284,395.873L492.284,361.189C492.284,360.511 492.44,360.02 492.753,359.717C493.065,359.414 493.571,359.262 494.269,359.262L519.85,359.262C520.548,359.262 521.053,359.414 521.366,359.717C521.678,360.02 521.834,360.511 521.834,361.189L521.834,367.451C521.834,368.129 521.678,368.62 521.366,368.923C521.053,369.226 520.548,369.378 519.85,369.378L504.634,369.378L504.634,373.5L515.384,373.5C516.082,373.5 516.588,373.651 516.9,373.955C517.213,374.258 517.369,374.748 517.369,375.426L517.369,381.154C517.369,381.832 517.213,382.322 516.9,382.626C516.588,382.929 516.082,383.081 515.384,383.081L504.634,383.081L504.634,387.684L519.85,387.684C520.548,387.684 521.053,387.835 521.366,388.139C521.678,388.442 521.834,388.933 521.834,389.611L521.834,395.873C521.834,396.551 521.678,397.042 521.366,397.345C521.053,397.648 520.548,397.8 519.85,397.8Z" style="fill:white;fill-rule:nonzero;"/>
            <path d="M519.85,399.467L494.269,399.467C493.019,399.467 492.151,399.084 491.592,398.541C491.018,397.983 490.618,397.12 490.618,395.873L490.618,361.189C490.618,359.942 491.018,359.079 491.592,358.521C492.151,357.978 493.019,357.595 494.269,357.595L519.85,357.595C521.099,357.595 521.968,357.978 522.527,358.521C523.101,359.079 523.501,359.942 523.501,361.189L523.501,367.451C523.501,368.698 523.101,369.561 522.527,370.119C521.968,370.662 521.099,371.045 519.85,371.045L506.3,371.045C506.3,371.045 506.3,371.833 506.3,371.833L515.384,371.833C516.634,371.833 517.502,372.216 518.061,372.759C518.635,373.316 519.035,374.18 519.035,375.426L519.035,381.154C519.035,382.4 518.635,383.264 518.061,383.821C517.502,384.364 516.634,384.747 515.384,384.747C515.384,384.747 506.3,384.747 506.3,384.747L506.3,386.017L519.85,386.017C521.099,386.017 521.968,386.4 522.527,386.943C523.101,387.501 523.501,388.364 523.501,389.611L523.501,395.873C523.501,397.12 523.101,397.983 522.527,398.541C521.968,399.084 521.099,399.467 519.85,399.467ZM519.85,397.8C520.548,397.8 521.053,397.648 521.366,397.345C521.678,397.042 521.834,396.551 521.834,395.873L521.834,389.611C521.834,388.933 521.678,388.442 521.366,388.139C521.053,387.835 520.548,387.684 519.85,387.684L504.634,387.684L504.634,383.081L515.384,383.081C516.082,383.081 516.588,382.929 516.9,382.626C517.213,382.322 517.369,381.832 517.369,381.154L517.369,375.426C517.369,374.748 517.213,374.258 516.9,373.955C516.588,373.651 516.082,373.5 515.384,373.5L504.634,373.5L504.634,369.378L519.85,369.378C520.548,369.378 521.053,369.226 521.366,368.923C521.678,368.62 521.834,368.129 521.834,367.451L521.834,361.189C521.834,360.511 521.678,360.02 521.366,359.717C521.053,359.414 520.548,359.262 519.85,359.262L494.269,359.262C493.571,359.262 493.065,359.414 492.753,359.717C492.44,360.02 492.284,360.511 492.284,361.189L492.284,395.873C492.284,396.551 492.44,397.042 492.753,397.345C493.065,397.648 493.571,397.8 494.269,397.8L519.85,397.8Z"/>
            <path d="M558.386,397.8L530.324,397.8C529.626,397.8 529.121,397.648 528.808,397.345C528.496,397.042 528.34,396.551 528.34,395.873L528.34,361.189C528.34,360.511 528.496,360.02 528.808,359.717C529.121,359.414 529.626,359.262 530.324,359.262L538.87,359.262C539.568,359.262 540.073,359.414 540.386,359.717C540.698,360.02 540.854,360.511 540.854,361.189L540.854,387.684L548.407,387.684L548.407,379.013C548.407,378.335 548.563,377.844 548.876,377.541C549.188,377.237 549.694,377.086 550.392,377.086L558.386,377.086C559.084,377.086 559.59,377.237 559.902,377.541C560.214,377.844 560.371,378.335 560.371,379.013L560.371,395.873C560.371,396.551 560.214,397.042 559.902,397.345C559.59,397.648 559.084,397.8 558.386,397.8Z" style="fill:white;fill-rule:nonzero;"/>
            <path d="M558.386,399.467L530.324,399.467C529.075,399.467 528.206,399.084 527.647,398.541C527.073,397.983 526.673,397.12 526.673,395.873L526.673,361.189C526.673,359.942 527.073,359.079 527.647,358.521C528.206,357.978 529.075,357.595 530.324,357.595L538.87,357.595C540.119,357.595 540.988,357.978 541.547,358.521C542.121,359.079 542.521,359.942 542.521,361.189L542.521,386.017C542.521,386.017 546.741,386.017 546.741,386.017L546.741,379.013C546.741,377.766 547.141,376.903 547.715,376.345C548.274,375.802 549.142,375.419 550.392,375.419L558.386,375.419C559.636,375.419 560.504,375.802 561.063,376.345C561.637,376.903 562.037,377.766 562.037,379.013L562.037,395.873C562.037,397.12 561.637,397.983 561.063,398.541C560.504,399.084 559.636,399.467 558.386,399.467ZM558.386,397.8C559.084,397.8 559.59,397.648 559.902,397.345C560.214,397.042 560.371,396.551 560.371,395.873L560.371,379.013C560.371,378.335 560.214,377.844 559.902,377.541C559.59,377.237 559.084,377.086 558.386,377.086L550.392,377.086C549.694,377.086 549.188,377.237 548.876,377.541C548.563,377.844 548.407,378.335 548.407,379.013L548.407,387.684L540.854,387.684L540.854,361.189C540.854,360.511 540.698,360.02 540.386,359.717C540.073,359.414 539.568,359.262 538.87,359.262L530.324,359.262C529.626,359.262 529.121,359.414 528.808,359.717C528.496,360.02 528.34,360.511 528.34,361.189L528.34,395.873C528.34,396.551 528.496,397.042 528.808,397.345C529.121,397.648 529.626,397.8 530.324,397.8L558.386,397.8Z"/>
            <path d="M577.13,397.8L568.64,397.8C567.942,397.8 567.437,397.648 567.124,397.345C566.812,397.042 566.656,396.551 566.656,395.873L566.656,361.189C566.656,360.511 566.812,360.02 567.124,359.717C567.437,359.414 567.942,359.262 568.64,359.262L586.999,359.262C591.115,359.262 593.954,360.091 595.516,361.751C597.078,363.41 597.859,365.56 597.859,368.201L597.859,370.663C597.859,372.161 597.63,373.437 597.17,374.49C596.711,375.542 595.911,376.301 594.772,376.765C596.757,376.979 598.365,377.764 599.596,379.12C600.827,380.476 601.443,382.278 601.443,384.526L601.443,395.873C601.443,396.551 601.287,397.042 600.974,397.345C600.662,397.648 600.157,397.8 599.458,397.8L590.913,397.8C590.215,397.8 589.709,397.648 589.397,397.345C589.084,397.042 588.928,396.551 588.928,395.873L588.928,387.684C588.928,386.899 588.772,386.319 588.46,385.944C588.147,385.569 587.605,385.382 586.833,385.382L579.115,385.382L579.115,395.873C579.115,396.551 578.959,397.042 578.646,397.345C578.334,397.648 577.829,397.8 577.13,397.8Z" style="fill:white;fill-rule:nonzero;"/>
            <path d="M587.227,387.092C587.137,387.076 586.963,387.049 586.833,387.049L580.782,387.049L580.782,395.873C580.782,397.12 580.382,397.983 579.807,398.541C579.248,399.084 578.38,399.467 577.13,399.467L568.64,399.467C567.391,399.467 566.522,399.084 565.963,398.541C565.389,397.983 564.989,397.12 564.989,395.873L564.989,361.189C564.989,359.942 565.389,359.079 565.963,358.521C566.522,357.978 567.391,357.595 568.64,357.595L586.999,357.595C591.724,357.595 594.937,358.704 596.73,360.608C598.572,362.565 599.526,365.087 599.526,368.201L599.526,370.663C599.526,372.424 599.238,373.919 598.698,375.156C598.563,375.465 598.408,375.756 598.232,376.029C599.212,376.513 600.078,377.171 600.83,377.999C602.32,379.64 603.11,381.805 603.11,384.526L603.11,395.873C603.11,397.12 602.71,397.983 602.135,398.541C601.576,399.084 600.708,399.467 599.458,399.467L590.913,399.467C589.663,399.467 588.795,399.084 588.236,398.541C587.662,397.983 587.262,397.12 587.262,395.873L587.262,387.684C587.262,387.439 587.286,387.235 587.227,387.092ZM577.13,397.8C577.829,397.8 578.334,397.648 578.646,397.345C578.959,397.042 579.115,396.551 579.115,395.873L579.115,385.382L586.833,385.382C587.605,385.382 588.147,385.569 588.46,385.944C588.772,386.319 588.928,386.899 588.928,387.684L588.928,395.873C588.928,396.551 589.084,397.042 589.397,397.345C589.709,397.648 590.215,397.8 590.913,397.8L599.458,397.8C600.157,397.8 600.662,397.648 600.974,397.345C601.287,397.042 601.443,396.551 601.443,395.873L601.443,384.526C601.443,382.278 600.827,380.476 599.596,379.12C598.365,377.764 596.757,376.979 594.772,376.765C595.911,376.301 596.711,375.542 597.17,374.49C597.63,373.437 597.859,372.161 597.859,370.663L597.859,368.201C597.859,365.56 597.078,363.41 595.516,361.751C593.954,360.091 591.115,359.262 586.999,359.262L568.64,359.262C567.942,359.262 567.437,359.414 567.124,359.717C566.812,360.02 566.656,360.511 566.656,361.189L566.656,395.873C566.656,396.551 566.812,397.042 567.124,397.345C567.437,397.648 567.942,397.8 568.64,397.8L577.13,397.8Z"/>
            <path d="M579.115,368.896L579.115,375.748L583.25,375.748C584.205,375.748 584.849,375.507 585.179,375.025C585.51,374.543 585.676,373.946 585.676,373.232L585.676,371.412C585.676,370.698 585.51,370.101 585.179,369.619C584.849,369.137 584.205,368.896 583.25,368.896L579.115,368.896Z" style="fill:rgb(255,0,0);fill-rule:nonzero;"/>
            <path d="M579.115,368.896L583.25,368.896C584.205,368.896 584.849,369.137 585.179,369.619C585.51,370.101 585.676,370.698 585.676,371.412L585.676,373.232C585.676,373.946 585.51,374.543 585.179,375.025C584.849,375.507 584.205,375.748 583.25,375.748L579.115,375.748L579.115,368.896ZM583.854,374.003C583.971,373.79 584.009,373.53 584.009,373.232L584.009,371.412C584.009,371.114 583.971,370.854 583.854,370.641C583.753,370.62 583.464,370.563 583.25,370.563L580.782,370.563L580.782,374.081L583.25,374.081C583.464,374.081 583.753,374.024 583.854,374.003Z"/>
            <path d="M626.134,397.8L617.203,397.8C616.505,397.8 616,397.648 615.687,397.345C615.375,397.042 615.219,396.551 615.219,395.873L615.219,389.022L606.784,378.049C605.938,376.943 605.378,375.98 605.102,375.159C604.826,374.338 604.689,373.107 604.689,371.466L604.689,361.189C604.689,360.511 604.845,360.02 605.157,359.717C605.47,359.414 605.975,359.262 606.673,359.262L615.163,359.262C615.862,359.262 616.367,359.414 616.68,359.717C616.992,360.02 617.148,360.511 617.148,361.189L617.148,369.967C617.148,370.324 617.167,370.698 617.203,371.091C617.24,371.483 617.387,371.858 617.644,372.215L620.18,376.069C620.364,376.39 620.557,376.622 620.759,376.765C620.961,376.907 621.209,376.979 621.504,376.979L622.055,376.979C622.349,376.979 622.597,376.907 622.799,376.765C623.001,376.622 623.194,376.39 623.378,376.069L625.914,372.215C626.171,371.858 626.318,371.483 626.355,371.091C626.392,370.698 626.41,370.324 626.41,369.967L626.41,361.189C626.41,360.511 626.566,360.02 626.879,359.717C627.191,359.414 627.697,359.262 628.395,359.262L636.609,359.262C637.308,359.262 637.813,359.414 638.125,359.717C638.438,360.02 638.594,360.511 638.594,361.189L638.594,371.466C638.594,373.107 638.447,374.338 638.153,375.159C637.859,375.98 637.308,376.943 636.499,378.049L628.119,389.075L628.119,395.873C628.119,396.551 627.963,397.042 627.651,397.345C627.338,397.648 626.833,397.8 626.134,397.8Z" style="fill:white;fill-rule:nonzero;"/>
            <path d="M621.672,375.312L621.887,375.312C621.903,375.288 621.919,375.263 621.931,375.241C621.949,375.211 621.967,375.181 621.986,375.153L624.522,371.299C624.535,371.279 624.548,371.259 624.562,371.24C624.633,371.142 624.685,371.044 624.696,370.936C624.727,370.597 624.743,370.274 624.743,369.967L624.743,361.189C624.743,359.942 625.143,359.079 625.718,358.521C626.277,357.978 627.145,357.595 628.395,357.595L636.609,357.595C637.859,357.595 638.727,357.978 639.286,358.521C639.861,359.079 640.261,359.942 640.261,361.189L640.261,371.466C640.261,373.359 640.061,374.774 639.722,375.721C639.386,376.659 638.769,377.768 637.845,379.033C637.838,379.041 637.832,379.049 637.826,379.058L629.786,389.637L629.786,395.873C629.786,397.12 629.386,397.983 628.812,398.541C628.252,399.084 627.384,399.467 626.134,399.467L617.203,399.467C615.954,399.467 615.085,399.084 614.526,398.541C613.952,397.983 613.552,397.12 613.552,395.873L613.552,389.588L605.462,379.065L605.459,379.061C604.476,377.775 603.843,376.644 603.522,375.689C603.207,374.75 603.022,373.344 603.022,371.466L603.022,361.189C603.022,359.942 603.422,359.079 603.996,358.521C604.555,357.978 605.424,357.595 606.673,357.595L615.163,357.595C616.413,357.595 617.281,357.978 617.841,358.521C618.415,359.079 618.815,359.942 618.815,361.189L618.815,369.967C618.815,370.274 618.831,370.597 618.863,370.936C618.873,371.044 618.925,371.142 618.996,371.24C619.01,371.259 619.024,371.279 619.037,371.299L621.573,375.153C621.592,375.181 621.61,375.211 621.627,375.241C621.639,375.263 621.655,375.288 621.672,375.312ZM626.134,397.8C626.833,397.8 627.338,397.648 627.651,397.345C627.963,397.042 628.119,396.551 628.119,395.873L628.119,389.075L636.499,378.049C637.308,376.943 637.859,375.98 638.153,375.159C638.447,374.338 638.594,373.107 638.594,371.466L638.594,361.189C638.594,360.511 638.438,360.02 638.125,359.717C637.813,359.414 637.308,359.262 636.609,359.262L628.395,359.262C627.697,359.262 627.191,359.414 626.879,359.717C626.566,360.02 626.41,360.511 626.41,361.189L626.41,369.967C626.41,370.324 626.392,370.698 626.355,371.091C626.318,371.483 626.171,371.858 625.914,372.215L623.378,376.069C623.194,376.39 623.001,376.622 622.799,376.765C622.597,376.907 622.349,376.979 622.055,376.979L621.504,376.979C621.209,376.979 620.961,376.907 620.759,376.765C620.557,376.622 620.364,376.39 620.18,376.069L617.644,372.215C617.387,371.858 617.24,371.483 617.203,371.091C617.167,370.698 617.148,370.324 617.148,369.967L617.148,361.189C617.148,360.511 616.992,360.02 616.68,359.717C616.367,359.414 615.862,359.262 615.163,359.262L606.673,359.262C605.975,359.262 605.47,359.414 605.157,359.717C604.845,360.02 604.689,360.511 604.689,361.189L604.689,371.466C604.689,373.107 604.826,374.338 605.102,375.159C605.378,375.98 605.938,376.943 606.784,378.049L615.219,389.022L615.219,395.873C615.219,396.551 615.375,397.042 615.687,397.345C616,397.648 616.505,397.8 617.203,397.8L626.134,397.8Z"/>
        </g>
    </g>
</svg>
