<?xml version="1.0" encoding="UTF-8" standalone="no"?><!DOCTYPE svg PUBLIC "-//W3C//DTD SVG 1.1//EN" "http://www.w3.org/Graphics/SVG/1.1/DTD/svg11.dtd"><svg width="100%" height="100%" viewBox="0 0 107 107" version="1.1" xmlns="http://www.w3.org/2000/svg" xmlns:xlink="http://www.w3.org/1999/xlink" xml:space="preserve" xmlns:serif="http://www.serif.com/" style="fill-rule:evenodd;clip-rule:evenodd;stroke-linecap:round;stroke-linejoin:round;stroke-miterlimit:1.5;"><g><circle cx="53.125" cy="53.125" r="50" style="fill:#fff;stroke:#000;stroke-width:6.25px;"/><g><path d="M63.617,55.173c0.044,0.072 0.086,0.144 0.128,0.216c2.164,3.734 2.647,7.571 1.698,11.112c-0.949,3.541 -3.285,6.622 -7.026,8.773c-5.157,2.966 -14.07,4.096 -23.514,1.566c-0.814,-0.219 -1.611,-0.458 -2.391,-0.718l-1.504,-9.568c1.835,0.889 3.871,1.652 6.052,2.236c9.857,2.641 18.968,0.649 20.334,-4.446c0.39,-1.456 0.105,-3.01 -0.73,-4.546l6.953,-4.625Z"/><path id="_-Curve-" serif:id="(Curve)" d="M55.075,60.854c0.193,1.31 0.703,2.431 1.556,3.283c2.779,2.78 8.422,1.917 14.104,-1.69l2.676,8.039c-4.373,2.411 -8.693,3.623 -12.202,3.629c-4.315,0.007 -7.879,-1.493 -10.471,-4.085c-1.772,-1.772 -3.034,-3.999 -3.653,-6.609l6.423,-1.524l1.567,-1.043Z"/><path d="M56.724,60.611c-0.083,-0.565 -0.45,-1.047 -0.971,-1.28c-0.521,-0.232 -1.125,-0.181 -1.601,0.135l-1.319,0.878c-0,-0 -6.133,1.455 -6.133,1.455c-0.895,0.213 -1.449,1.111 -1.236,2.006c0.693,2.925 2.11,5.418 4.096,7.403c2.886,2.887 6.846,4.582 11.652,4.574c3.737,-0.006 8.346,-1.268 13.004,-3.837c0.703,-0.388 1.03,-1.223 0.776,-1.986l-2.676,-8.039c-0.162,-0.486 -0.539,-0.871 -1.022,-1.044c-0.483,-0.172 -1.019,-0.111 -1.452,0.164c-2.607,1.654 -5.196,2.701 -7.461,2.994c-1.882,0.243 -3.513,-0.016 -4.572,-1.075c-0.607,-0.607 -0.947,-1.416 -1.085,-2.348Zm-1.649,0.243c0.193,1.31 0.703,2.431 1.556,3.283c2.779,2.78 8.422,1.917 14.104,-1.69l2.676,8.039c-4.373,2.411 -8.693,3.623 -12.202,3.629c-4.315,0.007 -7.879,-1.493 -10.471,-4.085c-1.772,-1.772 -3.034,-3.999 -3.653,-6.609l6.423,-1.524l1.567,-1.043Z" style="fill:#fff;"/><path d="M47.085,63.421c-0.286,-1.208 -0.435,-2.498 -0.432,-3.862c0.01,-5.95 3.488,-14.233 10.401,-21.147c6.913,-6.913 15.197,-10.391 21.146,-10.401c4.315,-0.007 7.879,1.493 10.471,4.085c2.593,2.593 4.093,6.157 4.086,10.472c-0.01,5.949 -3.488,14.233 -10.401,21.146c-2.837,2.837 -5.904,5.095 -8.945,6.772l-2.676,-8.039c1.942,-1.233 3.889,-2.787 5.728,-4.626c7.216,-7.215 10.046,-16.102 6.316,-19.832c-3.73,-3.73 -12.617,-0.9 -19.832,6.316c-5.568,5.567 -8.524,12.128 -7.872,16.549l-1.567,1.043l-6.423,1.524Z"/><path d="M28.358,77.962c0.551,0.184 1.159,0.067 1.603,-0.309c0.444,-0.376 0.66,-0.956 0.569,-1.531l-1.504,-9.568c-0.085,-0.54 -0.428,-1.003 -0.919,-1.241c-3.534,-1.713 -2.648,-4.158 -4.041,-6.446c-0.754,-1.239 -1.097,-2.487 -0.782,-3.663c0.421,-1.572 1.886,-2.663 3.874,-3.394c3.613,-1.328 8.89,-1.355 14.418,0.126c6.512,1.745 11.692,5.104 13.624,8.657c0.223,0.411 -0.36,-0.647 0.094,-0.535c0.454,0.113 0.934,0.029 1.324,-0.23l6.953,-4.624c0.742,-0.493 0.965,-1.483 0.506,-2.246c-1.236,-2.055 -2.12,-2.798 -4.491,-4.755c-3.807,-3.143 -8.945,-5.916 -14.99,-7.536c-9.953,-2.667 -19.341,-1.395 -24.776,1.731c-4.166,2.396 -6.748,5.843 -7.805,9.787c-1.057,3.943 -0.544,8.22 1.866,12.378c2.877,4.965 5.762,10.499 14.477,13.399Zm0.526,-1.581c-8.255,-2.748 -10.835,-7.95 -13.561,-12.654c-2.164,-3.734 -2.647,-7.57 -1.698,-11.111c0.949,-3.541 3.285,-6.622 7.026,-8.774c5.157,-2.966 14.07,-4.095 23.513,-1.565c5.85,1.567 10.82,4.249 14.466,7.286c2.158,1.798 2.882,2.364 4.018,4.253l-6.953,4.625c-2.088,-3.842 -6.647,-6.228 -13.687,-8.115c-9.857,-2.641 -18.968,-0.648 -20.334,4.447c-1.063,3.967 2.882,8.654 9.334,11.781l-2.124,9.827Z" style="fill:#fff;"/><path d="M32.512,76.122c-8.255,-2.748 -14.463,-7.691 -17.189,-12.395c-2.164,-3.734 -2.647,-7.57 -1.698,-11.111c0.949,-3.541 3.285,-6.622 7.026,-8.774c5.157,-2.966 14.07,-4.095 23.513,-1.565c9.312,2.495 16.397,7.814 19.453,12.896l-6.953,4.625c-2.088,-3.842 -7.616,-7.585 -14.656,-9.472c-9.857,-2.641 -18.968,-0.648 -20.334,4.447c-1.063,3.967 2.882,8.654 9.334,11.781l1.504,9.568Z"/></g></g></svg>