<?xml version="1.0" encoding="UTF-8" standalone="no"?><!DOCTYPE svg PUBLIC "-//W3C//DTD SVG 1.1//EN" "http://www.w3.org/Graphics/SVG/1.1/DTD/svg11.dtd"><svg width="100%" height="100%" viewBox="0 0 332 82" version="1.1" xmlns="http://www.w3.org/2000/svg" xmlns:xlink="http://www.w3.org/1999/xlink" xml:space="preserve" xmlns:serif="http://www.serif.com/" style="fill-rule:evenodd;clip-rule:evenodd;stroke-linejoin:round;stroke-miterlimit:2;"><g><path d="M331.047,20.281c0,-11.193 -9.088,-20.281 -20.281,-20.281l-290.485,0c-11.193,0 -20.281,9.088 -20.281,20.281l0,40.562c0,11.194 9.088,20.282 20.281,20.282l290.485,-0c11.193,-0 20.281,-9.088 20.281,-20.282l0,-40.562Z" style="fill:#fff;"/><g><path d="M29.59,59.12l-7.732,-0c-0.653,-0 -1.125,-0.146 -1.418,-0.438c-0.292,-0.293 -0.438,-0.765 -0.438,-1.418l0,-33.403c0,-0.653 0.146,-1.126 0.438,-1.418c0.293,-0.292 0.765,-0.438 1.418,-0.438l5.361,-0c0.653,-0 1.211,0.103 1.675,0.309c0.464,0.206 0.92,0.567 1.366,1.083l10.001,11.443l-0,-10.979c-0,-0.653 0.146,-1.126 0.438,-1.418c0.292,-0.292 0.765,-0.438 1.418,-0.438l7.732,-0c0.653,-0 1.125,0.146 1.417,0.438c0.293,0.292 0.439,0.765 0.439,1.418l-0,33.403c-0,0.653 -0.146,1.125 -0.439,1.418c-0.292,0.292 -0.764,0.438 -1.417,0.438l-7.732,-0c-0.653,-0 -1.126,-0.146 -1.418,-0.438c-0.292,-0.293 -0.438,-0.765 -0.438,-1.418l-0,-6.34l-8.815,-10.671l0,17.011c0,0.653 -0.146,1.125 -0.438,1.418c-0.292,0.292 -0.765,0.438 -1.418,0.438Z" style="fill-rule:nonzero;"/><path d="M29.59,60.786c1.213,0 2.054,-0.383 2.596,-0.926c0.543,-0.543 0.927,-1.383 0.927,-2.596l-0,-12.377c-0,0 5.481,6.636 5.481,6.636c0,-0 0,5.741 0,5.741c0,1.213 0.384,2.053 0.926,2.596c0.543,0.543 1.384,0.926 2.597,0.926c-0,0 7.732,0 7.732,0c1.213,0 2.053,-0.383 2.596,-0.926c0.543,-0.543 0.926,-1.383 0.926,-2.596l0,-33.403c0,-1.213 -0.383,-2.054 -0.926,-2.596c-0.543,-0.543 -1.383,-0.927 -2.596,-0.927l-7.732,0c-1.213,0 -2.054,0.384 -2.597,0.927c-0.542,0.542 -0.926,1.383 -0.926,2.596l0,6.539c0,0 -7.079,-8.1 -7.079,-8.1c-0.628,-0.725 -1.287,-1.217 -1.944,-1.509c-0.652,-0.29 -1.434,-0.453 -2.352,-0.453l-5.361,0c-1.213,0 -2.053,0.384 -2.596,0.927c-0.543,0.542 -0.926,1.383 -0.926,2.596l-0,33.403c-0,1.213 0.383,2.053 0.926,2.596c0.543,0.543 1.383,0.926 2.596,0.926c0,0 7.732,0 7.732,0Zm0,-1.666l-7.732,-0c-0.653,-0 -1.125,-0.146 -1.418,-0.438c-0.292,-0.293 -0.438,-0.765 -0.438,-1.418l0,-33.403c0,-0.653 0.146,-1.126 0.438,-1.418c0.293,-0.292 0.765,-0.438 1.418,-0.438l5.361,-0c0.653,-0 1.211,0.103 1.675,0.309c0.464,0.206 0.92,0.567 1.366,1.083l10.001,11.443l-0,-10.979c-0,-0.653 0.146,-1.126 0.438,-1.418c0.292,-0.292 0.765,-0.438 1.418,-0.438l7.732,-0c0.653,-0 1.125,0.146 1.417,0.438c0.293,0.292 0.439,0.765 0.439,1.418l-0,33.403c-0,0.653 -0.146,1.125 -0.439,1.418c-0.292,0.292 -0.764,0.438 -1.417,0.438l-7.732,-0c-0.653,-0 -1.126,-0.146 -1.418,-0.438c-0.292,-0.293 -0.438,-0.765 -0.438,-1.418l-0,-6.34l-8.815,-10.671l0,17.011c0,0.653 -0.146,1.125 -0.438,1.418c-0.292,0.292 -0.765,0.438 -1.418,0.438Z" style="fill:#808080;"/><path d="M84.592,59.12l-23.918,-0c-0.653,-0 -1.125,-0.146 -1.418,-0.438c-0.292,-0.293 -0.438,-0.765 -0.438,-1.418l0,-33.403c0,-0.653 0.146,-1.126 0.438,-1.418c0.293,-0.292 0.765,-0.438 1.418,-0.438l23.918,-0c0.653,-0 1.126,0.146 1.418,0.438c0.292,0.292 0.438,0.765 0.438,1.418l0,6.031c0,0.653 -0.146,1.125 -0.438,1.417c-0.292,0.292 -0.765,0.439 -1.418,0.439l-14.227,-0l0,3.969l10.052,-0c0.653,-0 1.126,0.146 1.418,0.438c0.292,0.292 0.438,0.765 0.438,1.418l-0,5.515c-0,0.653 -0.146,1.126 -0.438,1.418c-0.292,0.292 -0.765,0.438 -1.418,0.438l-10.052,-0l0,4.433l14.227,0c0.653,0 1.126,0.146 1.418,0.438c0.292,0.292 0.438,0.765 0.438,1.418l0,6.031c0,0.653 -0.146,1.125 -0.438,1.418c-0.292,0.292 -0.765,0.438 -1.418,0.438Z" style="fill-rule:nonzero;"/><path d="M84.592,60.786c1.213,0 2.054,-0.383 2.597,-0.926c0.542,-0.543 0.926,-1.383 0.926,-2.596c-0,0 -0,-6.031 -0,-6.031c-0,-1.213 -0.384,-2.054 -0.926,-2.596c-0.543,-0.543 -1.384,-0.927 -2.597,-0.927l-12.56,0c-0,0 -0,-1.099 -0,-1.099c-0,-0 8.385,-0 8.385,-0c1.213,-0 2.054,-0.384 2.596,-0.927c0.543,-0.542 0.926,-1.383 0.926,-2.596l0,-5.515c0,-1.213 -0.383,-2.054 -0.926,-2.597c-0.542,-0.542 -1.383,-0.926 -2.596,-0.926l-8.385,0c-0,0 -0,-0.636 -0,-0.636c-0,0 12.56,0 12.56,0c1.213,0 2.054,-0.383 2.597,-0.926c0.542,-0.543 0.926,-1.383 0.926,-2.596c-0,-0 -0,-6.031 -0,-6.031c-0,-1.213 -0.384,-2.054 -0.926,-2.596c-0.543,-0.543 -1.384,-0.927 -2.597,-0.927l-23.918,0c-1.213,0 -2.053,0.384 -2.596,0.927c-0.543,0.542 -0.926,1.383 -0.926,2.596c-0,-0 -0,33.403 -0,33.403c-0,1.213 0.383,2.053 0.926,2.596c0.543,0.543 1.383,0.926 2.596,0.926c0,0 23.918,0 23.918,0Zm0,-1.666l-23.918,-0c-0.653,-0 -1.125,-0.146 -1.418,-0.438c-0.292,-0.293 -0.438,-0.765 -0.438,-1.418l0,-33.403c0,-0.653 0.146,-1.126 0.438,-1.418c0.293,-0.292 0.765,-0.438 1.418,-0.438l23.918,-0c0.653,-0 1.126,0.146 1.418,0.438c0.292,0.292 0.438,0.765 0.438,1.418l0,6.031c0,0.653 -0.146,1.125 -0.438,1.417c-0.292,0.292 -0.765,0.439 -1.418,0.439l-14.227,-0l0,3.969l10.052,-0c0.653,-0 1.126,0.146 1.418,0.438c0.292,0.292 0.438,0.765 0.438,1.418l-0,5.515c-0,0.653 -0.146,1.126 -0.438,1.418c-0.292,0.292 -0.765,0.438 -1.418,0.438l-10.052,-0l0,4.433l14.227,0c0.653,0 1.126,0.146 1.418,0.438c0.292,0.292 0.438,0.765 0.438,1.418l0,6.031c0,0.653 -0.146,1.125 -0.438,1.418c-0.292,0.292 -0.765,0.438 -1.418,0.438Z" style="fill:#808080;"/><path d="M103.614,57.264c-0,0.653 -0.146,1.125 -0.438,1.418c-0.292,0.292 -0.765,0.438 -1.418,0.438l-7.835,-0c-0.653,-0 -1.126,-0.146 -1.418,-0.438c-0.292,-0.293 -0.438,-0.765 -0.438,-1.418l0,-5.516c0,-1.58 0.137,-2.766 0.412,-3.557c0.275,-0.79 0.791,-1.718 1.547,-2.783l4.175,-5.619l-4.175,-5.619c-0.791,-1.065 -1.315,-1.993 -1.572,-2.783c-0.258,-0.791 -0.387,-1.976 -0.387,-3.557l0,-3.969c0,-0.653 0.146,-1.126 0.438,-1.418c0.292,-0.292 0.765,-0.438 1.418,-0.438l7.938,-0c0.653,-0 1.126,0.146 1.418,0.438c0.292,0.292 0.438,0.765 0.438,1.418l-0,3.556c-0,0.344 0.017,0.705 0.052,1.083c0.034,0.378 0.171,0.739 0.412,1.082l2.268,3.248c0.172,0.275 0.352,0.49 0.541,0.644c0.189,0.155 0.421,0.232 0.696,0.232l0.619,0c0.275,0 0.498,-0.077 0.67,-0.232c0.172,-0.154 0.361,-0.369 0.567,-0.644l2.32,-3.248c0.24,-0.343 0.378,-0.704 0.412,-1.082c0.034,-0.378 0.052,-0.739 0.052,-1.083l-0,-3.556c-0,-0.653 0.146,-1.126 0.438,-1.418c0.292,-0.292 0.764,-0.438 1.417,-0.438l7.836,-0c0.653,-0 1.125,0.146 1.417,0.438c0.292,0.292 0.438,0.765 0.438,1.418l0,3.969c0,1.581 -0.137,2.766 -0.412,3.557c-0.275,0.79 -0.79,1.718 -1.546,2.783l-4.176,5.671l4.176,5.567c0.79,1.065 1.314,1.993 1.572,2.783c0.258,0.791 0.386,1.977 0.386,3.557l0,5.516c0,0.653 -0.146,1.125 -0.438,1.418c-0.292,0.292 -0.764,0.438 -1.417,0.438l-7.836,-0c-0.653,-0 -1.125,-0.146 -1.417,-0.438c-0.292,-0.293 -0.438,-0.765 -0.438,-1.418l-0,-5.103c-0,-0.344 -0.018,-0.705 -0.052,-1.083c-0.034,-0.378 -0.172,-0.739 -0.412,-1.082l-2.269,-3.248c-0.206,-0.309 -0.395,-0.533 -0.567,-0.67c-0.171,-0.137 -0.395,-0.206 -0.67,-0.206l-0.721,-0c-0.275,-0 -0.499,0.069 -0.67,0.206c-0.172,0.137 -0.361,0.361 -0.568,0.67l-2.319,3.248c-0.241,0.343 -0.378,0.704 -0.413,1.082c-0.034,0.378 -0.051,0.739 -0.051,1.083l-0,5.103Z" style="fill-rule:nonzero;"/><path d="M107.874,47.538l0.243,0c0.028,0.041 0.057,0.086 0.09,0.135l2.289,3.278c0.063,0.09 0.109,0.18 0.118,0.278c0.03,0.325 0.045,0.636 0.045,0.932l-0,5.103c-0,1.213 0.384,2.053 0.926,2.596c0.543,0.543 1.383,0.926 2.596,0.926c0,0 7.836,0 7.836,0c1.213,0 2.053,-0.383 2.596,-0.926c0.542,-0.543 0.926,-1.383 0.926,-2.596c0,0 0,-5.516 0,-5.516c0,-1.811 -0.173,-3.167 -0.469,-4.073c-0.301,-0.923 -0.895,-2.016 -1.818,-3.26l-3.437,-4.583l3.458,-4.697c0.867,-1.222 1.446,-2.294 1.761,-3.201c0.318,-0.913 0.505,-2.278 0.505,-4.104c0,-0 0,-3.969 0,-3.969c0,-1.213 -0.384,-2.054 -0.926,-2.596c-0.543,-0.543 -1.383,-0.927 -2.596,-0.927l-7.836,0c-1.213,0 -2.053,0.384 -2.596,0.927c-0.542,0.542 -0.926,1.383 -0.926,2.596l-0,3.556c-0,0.296 -0.015,0.607 -0.045,0.932c-0.008,0.095 -0.052,0.181 -0.111,0.268c-0.004,0.006 -2.305,3.227 -2.305,3.227c-0.054,0.072 -0.105,0.137 -0.155,0.196l-0.12,-0l-0.108,-0.164l-2.269,-3.249c-0.062,-0.09 -0.109,-0.179 -0.118,-0.278c-0.029,-0.325 -0.044,-0.636 -0.044,-0.932c-0,0 -0,-3.556 -0,-3.556c-0,-1.213 -0.384,-2.054 -0.927,-2.596c-0.542,-0.543 -1.383,-0.927 -2.596,-0.927l-7.938,0c-1.213,0 -2.054,0.384 -2.596,0.927c-0.543,0.542 -0.927,1.383 -0.927,2.596l0,3.969c0,1.812 0.174,3.168 0.469,4.073c0.301,0.923 0.895,2.016 1.818,3.26l3.438,4.626c-0,0 -3.437,4.625 -3.437,4.625c-0.007,0.01 -0.014,0.019 -0.021,0.029c-0.868,1.223 -1.446,2.294 -1.762,3.201c-0.317,0.913 -0.505,2.279 -0.505,4.104l0,5.516c0,1.213 0.384,2.053 0.927,2.596c0.542,0.543 1.383,0.926 2.596,0.926c-0,0 7.835,0 7.835,0c1.213,0 2.054,-0.383 2.596,-0.926c0.543,-0.543 0.927,-1.383 0.927,-2.596l-0,-5.103c-0,-0.296 0.015,-0.607 0.044,-0.932c0.009,-0.095 0.052,-0.181 0.111,-0.267c0.005,-0.007 2.318,-3.245 2.318,-3.245l0.12,-0.179Zm-4.26,9.726c-0,0.653 -0.146,1.125 -0.438,1.418c-0.292,0.292 -0.765,0.438 -1.418,0.438l-7.835,-0c-0.653,-0 -1.126,-0.146 -1.418,-0.438c-0.292,-0.293 -0.438,-0.765 -0.438,-1.418l0,-5.516c0,-1.58 0.137,-2.766 0.412,-3.557c0.275,-0.79 0.791,-1.718 1.547,-2.783l4.175,-5.619l-4.175,-5.619c-0.791,-1.065 -1.315,-1.993 -1.572,-2.783c-0.258,-0.791 -0.387,-1.976 -0.387,-3.557l0,-3.969c0,-0.653 0.146,-1.126 0.438,-1.418c0.292,-0.292 0.765,-0.438 1.418,-0.438l7.938,-0c0.653,-0 1.126,0.146 1.418,0.438c0.292,0.292 0.438,0.765 0.438,1.418l-0,3.556c-0,0.344 0.017,0.705 0.052,1.083c0.034,0.378 0.171,0.739 0.412,1.082l2.268,3.248c0.172,0.275 0.352,0.49 0.541,0.644c0.189,0.155 0.421,0.232 0.696,0.232l0.619,0c0.275,0 0.498,-0.077 0.67,-0.232c0.172,-0.154 0.361,-0.369 0.567,-0.644l2.32,-3.248c0.24,-0.343 0.378,-0.704 0.412,-1.082c0.034,-0.378 0.052,-0.739 0.052,-1.083l-0,-3.556c-0,-0.653 0.146,-1.126 0.438,-1.418c0.292,-0.292 0.764,-0.438 1.417,-0.438l7.836,-0c0.653,-0 1.125,0.146 1.417,0.438c0.292,0.292 0.438,0.765 0.438,1.418l0,3.969c0,1.581 -0.137,2.766 -0.412,3.557c-0.275,0.79 -0.79,1.718 -1.546,2.783l-4.176,5.671l4.176,5.567c0.79,1.065 1.314,1.993 1.572,2.783c0.258,0.791 0.386,1.977 0.386,3.557l0,5.516c0,0.653 -0.146,1.125 -0.438,1.418c-0.292,0.292 -0.764,0.438 -1.417,0.438l-7.836,-0c-0.653,-0 -1.125,-0.146 -1.417,-0.438c-0.292,-0.293 -0.438,-0.765 -0.438,-1.418l-0,-5.103c-0,-0.344 -0.018,-0.705 -0.052,-1.083c-0.034,-0.378 -0.172,-0.739 -0.412,-1.082l-2.269,-3.248c-0.206,-0.309 -0.395,-0.533 -0.567,-0.67c-0.171,-0.137 -0.395,-0.206 -0.67,-0.206l-0.721,-0c-0.275,-0 -0.499,0.069 -0.67,0.206c-0.172,0.137 -0.361,0.361 -0.568,0.67l-2.319,3.248c-0.241,0.343 -0.378,0.704 -0.413,1.082c-0.034,0.378 -0.051,0.739 -0.051,1.083l-0,5.103Z" style="fill:#808080;"/><path d="M147.275,59.12l-8.35,-0c-0.653,-0 -1.126,-0.146 -1.418,-0.438c-0.292,-0.293 -0.438,-0.765 -0.438,-1.418l-0,-25.31l-7.578,-0c-0.653,-0 -1.125,-0.146 -1.417,-0.438c-0.292,-0.293 -0.439,-0.765 -0.439,-1.418l0,-6.237c0,-0.653 0.147,-1.126 0.439,-1.418c0.292,-0.292 0.764,-0.438 1.417,-0.438l27.218,-0c0.653,-0 1.125,0.146 1.417,0.438c0.292,0.292 0.439,0.765 0.439,1.418l-0,6.237c-0,0.653 -0.147,1.125 -0.439,1.418c-0.292,0.292 -0.764,0.438 -1.417,0.438l-7.578,-0l0,25.31c0,0.653 -0.146,1.125 -0.438,1.418c-0.292,0.292 -0.765,0.438 -1.418,0.438Z" style="fill-rule:nonzero;"/><path d="M147.275,60.786c1.213,0 2.054,-0.383 2.597,-0.926c0.542,-0.543 0.926,-1.383 0.926,-2.596l-0,-23.644c-0,0 5.911,0 5.911,0c1.213,0 2.053,-0.383 2.596,-0.926c0.543,-0.543 0.926,-1.383 0.926,-2.596l0,-6.237c0,-1.213 -0.383,-2.054 -0.926,-2.596c-0.543,-0.543 -1.383,-0.927 -2.596,-0.927l-27.218,0c-1.213,0 -2.053,0.384 -2.596,0.927c-0.543,0.542 -0.926,1.383 -0.926,2.596c-0,-0 -0,6.237 -0,6.237c-0,1.213 0.383,2.053 0.926,2.596c0.543,0.543 1.383,0.926 2.596,0.926c0,0 5.911,0 5.911,0c0,0 0,23.644 0,23.644c0,1.213 0.384,2.053 0.926,2.596c0.543,0.543 1.384,0.926 2.597,0.926c-0,0 8.35,0 8.35,0Zm0,-1.666l-8.35,-0c-0.653,-0 -1.126,-0.146 -1.418,-0.438c-0.292,-0.293 -0.438,-0.765 -0.438,-1.418l-0,-25.31l-7.578,-0c-0.653,-0 -1.125,-0.146 -1.417,-0.438c-0.292,-0.293 -0.439,-0.765 -0.439,-1.418l0,-6.237c0,-0.653 0.147,-1.126 0.439,-1.418c0.292,-0.292 0.764,-0.438 1.417,-0.438l27.218,-0c0.653,-0 1.125,0.146 1.417,0.438c0.292,0.292 0.439,0.765 0.439,1.418l-0,6.237c-0,0.653 -0.147,1.125 -0.439,1.418c-0.292,0.292 -0.764,0.438 -1.417,0.438l-7.578,-0l0,25.31c0,0.653 -0.146,1.125 -0.438,1.418c-0.292,0.292 -0.765,0.438 -1.418,0.438Z" style="fill:#808080;"/><path d="M184.493,59.12l-7.99,-0c-0.653,-0 -1.125,-0.146 -1.417,-0.438c-0.292,-0.293 -0.438,-0.765 -0.438,-1.418l-0,-33.403c-0,-0.653 0.146,-1.126 0.438,-1.418c0.292,-0.292 0.764,-0.438 1.417,-0.438l15.774,-0c4.674,-0 7.87,0.928 9.588,2.783c1.719,1.856 2.578,4.279 2.578,7.269l-0,6.598c-0,2.99 -0.859,5.413 -2.578,7.268c-1.718,1.856 -4.914,2.784 -9.588,2.784l-5.928,-0l0,8.557c0,0.653 -0.146,1.125 -0.438,1.418c-0.292,0.292 -0.765,0.438 -1.418,0.438Zm1.753,-27.476l0,7.784l4.639,0c0.997,0 1.65,-0.257 1.959,-0.773c0.31,-0.515 0.464,-1.1 0.464,-1.753l0,-2.732c0,-0.653 -0.154,-1.237 -0.464,-1.752c-0.309,-0.516 -0.962,-0.774 -1.959,-0.774l-4.639,0Z" style="fill-rule:nonzero;"/><path d="M184.493,60.786c1.213,0 2.054,-0.383 2.596,-0.926c0.543,-0.543 0.927,-1.383 0.927,-2.596l-0,-6.89c-0,-0 4.261,-0 4.261,-0c5.294,-0 8.865,-1.216 10.811,-3.318c1.989,-2.149 3.021,-4.94 3.021,-8.401l0,-6.598c0,-3.461 -1.032,-6.253 -3.021,-8.401c-1.946,-2.102 -5.517,-3.318 -10.811,-3.318l-15.774,0c-1.213,0 -2.053,0.384 -2.596,0.927c-0.542,0.542 -0.926,1.383 -0.926,2.596c-0,-0 -0,33.403 -0,33.403c-0,1.213 0.384,2.053 0.926,2.596c0.543,0.543 1.383,0.926 2.596,0.926c0,0 7.99,0 7.99,0Zm0,-1.666l-7.99,-0c-0.653,-0 -1.125,-0.146 -1.417,-0.438c-0.292,-0.293 -0.438,-0.765 -0.438,-1.418l-0,-33.403c-0,-0.653 0.146,-1.126 0.438,-1.418c0.292,-0.292 0.764,-0.438 1.417,-0.438l15.774,-0c4.674,-0 7.87,0.928 9.588,2.783c1.719,1.856 2.578,4.279 2.578,7.269l-0,6.598c-0,2.99 -0.859,5.413 -2.578,7.268c-1.718,1.856 -4.914,2.784 -9.588,2.784l-5.928,-0l0,8.557c0,0.653 -0.146,1.125 -0.438,1.418c-0.292,0.292 -0.765,0.438 -1.418,0.438Zm1.753,-27.476l0,7.784l4.639,0c0.997,0 1.65,-0.257 1.959,-0.773c0.31,-0.515 0.464,-1.1 0.464,-1.753l0,-2.732c0,-0.653 -0.154,-1.237 -0.464,-1.752c-0.309,-0.516 -0.962,-0.774 -1.959,-0.774l-4.639,0Zm5.228,1.74c0.116,0.236 0.168,0.499 0.168,0.786l-0,2.732c-0,0.288 -0.052,0.551 -0.168,0.786c-0.113,0.024 -0.383,0.074 -0.589,0.074c0,-0 -2.972,-0 -2.972,-0l-0,-4.451l2.972,0c0.206,0 0.476,0.05 0.589,0.073Z" style="fill:#808080;"/><path d="M222.742,32.83l-2.422,7.835l8.093,0l-2.423,-7.835c-0.138,-0.309 -0.284,-0.533 -0.438,-0.67c-0.155,-0.138 -0.335,-0.206 -0.542,-0.206l-1.288,-0c-0.206,-0 -0.387,0.068 -0.541,0.206c-0.155,0.137 -0.301,0.361 -0.439,0.67Zm-2.938,24.434c0,0.653 -0.146,1.125 -0.438,1.418c-0.292,0.292 -0.765,0.438 -1.418,0.438l-7.577,-0c-0.653,-0 -1.126,-0.146 -1.418,-0.438c-0.292,-0.293 -0.438,-0.765 -0.438,-1.418l-0,-13.609c-0,-1.031 0.163,-2.216 0.49,-3.557c0.326,-1.34 0.833,-2.904 1.52,-4.691l4.485,-11.701c0.206,-0.584 0.524,-1.014 0.954,-1.289c0.429,-0.275 0.988,-0.412 1.675,-0.412l13.867,-0c0.653,-0 1.194,0.137 1.623,0.412c0.43,0.275 0.748,0.705 0.954,1.289l4.485,11.701c0.687,1.787 1.194,3.351 1.52,4.691c0.327,1.341 0.49,2.526 0.49,3.557l0,13.609c0,0.653 -0.146,1.125 -0.438,1.418c-0.292,0.292 -0.765,0.438 -1.418,0.438l-7.783,-0c-0.688,-0 -1.195,-0.146 -1.521,-0.438c-0.327,-0.293 -0.49,-0.765 -0.49,-1.418l0,-7.217l-9.124,0l0,7.217Z" style="fill-rule:nonzero;"/><path d="M221.471,57.264l-0,-5.55c-0,-0 5.79,-0 5.79,-0c0.001,-0 0.001,5.55 0.001,5.55c-0,1.244 0.423,2.103 1.045,2.66c0.571,0.511 1.429,0.862 2.632,0.862c-0,0 7.783,0 7.783,0c1.213,0 2.054,-0.383 2.596,-0.926c0.543,-0.543 0.927,-1.383 0.927,-2.596l-0,-13.609c-0,-1.145 -0.175,-2.463 -0.537,-3.951c-0.341,-1.398 -0.868,-3.03 -1.585,-4.895c0.001,0.002 -4.477,-11.683 -4.477,-11.683c-0.347,-0.966 -0.905,-1.656 -1.618,-2.113c-0.67,-0.428 -1.505,-0.675 -2.522,-0.675l-13.867,0c-1.06,0 -1.911,0.251 -2.574,0.675c-0.717,0.459 -1.277,1.154 -1.623,2.127c0.005,-0.014 -4.473,11.671 -4.473,11.671c-0.716,1.863 -1.243,3.495 -1.584,4.893c-0.362,1.488 -0.537,2.806 -0.537,3.951l0,13.609c0,1.213 0.384,2.053 0.927,2.596c0.542,0.543 1.383,0.926 2.596,0.926c-0,0 7.577,0 7.577,0c1.213,0 2.054,-0.383 2.596,-0.926c0.543,-0.543 0.927,-1.383 0.927,-2.596Zm-1.667,0c0,0.653 -0.146,1.125 -0.438,1.418c-0.292,0.292 -0.765,0.438 -1.418,0.438l-7.577,-0c-0.653,-0 -1.126,-0.146 -1.418,-0.438c-0.292,-0.293 -0.438,-0.765 -0.438,-1.418l-0,-13.609c-0,-1.031 0.163,-2.216 0.49,-3.557c0.326,-1.34 0.833,-2.904 1.52,-4.691l4.485,-11.701c0.206,-0.584 0.524,-1.014 0.954,-1.289c0.429,-0.275 0.988,-0.412 1.675,-0.412l13.867,-0c0.653,-0 1.194,0.137 1.623,0.412c0.43,0.275 0.748,0.705 0.954,1.289l4.485,11.701c0.687,1.787 1.194,3.351 1.52,4.691c0.327,1.341 0.49,2.526 0.49,3.557l0,13.609c0,0.653 -0.146,1.125 -0.438,1.418c-0.292,0.292 -0.765,0.438 -1.418,0.438l-7.783,-0c-0.688,-0 -1.195,-0.146 -1.521,-0.438c-0.327,-0.293 -0.49,-0.765 -0.49,-1.418l0,-7.217l-9.124,0l0,7.217Zm2.938,-24.434l-2.422,7.835l8.093,0l-2.423,-7.835c-0.138,-0.309 -0.284,-0.533 -0.438,-0.67c-0.155,-0.138 -0.335,-0.206 -0.542,-0.206l-1.288,-0c-0.206,-0 -0.387,0.068 -0.541,0.206c-0.155,0.137 -0.301,0.361 -0.439,0.67Zm1.747,0.79l1.664,5.379c-0,-0 -3.574,-0 -3.574,-0l1.663,-5.379l0.247,0Z" style="fill:#808080;"/><path d="M275.27,59.12l-16.238,-0c-4.295,-0 -7.483,-0.859 -9.562,-2.578c-2.079,-1.718 -3.118,-4.364 -3.118,-7.938l-0,-16.083c-0,-3.574 1.039,-6.22 3.118,-7.939c2.079,-1.718 5.267,-2.577 9.562,-2.577l12.888,-0c0.653,-0 1.125,0.146 1.417,0.438c0.292,0.292 0.438,0.765 0.438,1.418l0,6.237c0,0.653 -0.146,1.125 -0.438,1.418c-0.292,0.292 -0.764,0.438 -1.417,0.438l-10.722,-0c-1.066,-0 -1.856,0.215 -2.372,0.644c-0.515,0.43 -0.773,1.074 -0.773,1.933l0,12.32c0,0.859 0.198,1.495 0.593,1.908c0.395,0.412 0.988,0.618 1.778,0.618l5,0l0,-8.041c0,-0.653 0.147,-1.126 0.439,-1.418c0.292,-0.292 0.764,-0.438 1.417,-0.438l7.99,-0c0.653,-0 1.126,0.146 1.418,0.438c0.292,0.292 0.438,0.765 0.438,1.418l-0,15.928c-0,0.653 -0.146,1.125 -0.438,1.418c-0.292,0.292 -0.765,0.438 -1.418,0.438Z" style="fill-rule:nonzero;"/><path d="M275.27,60.786c1.213,0 2.054,-0.383 2.596,-0.926c0.543,-0.543 0.927,-1.383 0.927,-2.596c-0,0 -0,-15.928 -0,-15.928c-0,-1.213 -0.384,-2.054 -0.927,-2.597c-0.542,-0.542 -1.383,-0.926 -2.596,-0.926l-7.99,0c-1.213,0 -2.053,0.384 -2.596,0.926c-0.543,0.543 -0.926,1.384 -0.926,2.597c-0,-0 -0,6.374 -0,6.374c-0,0 -3.334,0 -3.334,0c-0.245,0 -0.452,0.023 -0.575,-0.105c-0.151,-0.158 -0.129,-0.425 -0.129,-0.754c-0,0 -0,-12.32 -0,-12.32c-0,-0.279 0.006,-0.513 0.173,-0.653c0.279,-0.232 0.728,-0.258 1.305,-0.258c-0,0 10.722,0 10.722,0c1.213,0 2.053,-0.383 2.596,-0.926c0.542,-0.543 0.926,-1.383 0.926,-2.596l-0,-6.237c-0,-1.213 -0.384,-2.054 -0.926,-2.596c-0.543,-0.543 -1.383,-0.927 -2.596,-0.927l-12.888,0c-4.783,0 -8.308,1.046 -10.624,2.96c-2.424,2.003 -3.723,5.055 -3.723,9.223l-0,16.083c-0,4.168 1.299,7.219 3.723,9.223c2.316,1.914 5.841,2.959 10.624,2.959c0,0 16.238,0 16.238,0Zm0,-1.666l-16.238,-0c-4.295,-0 -7.483,-0.859 -9.562,-2.578c-2.079,-1.718 -3.118,-4.364 -3.118,-7.938l-0,-16.083c-0,-3.574 1.039,-6.22 3.118,-7.939c2.079,-1.718 5.267,-2.577 9.562,-2.577l12.888,-0c0.653,-0 1.125,0.146 1.417,0.438c0.292,0.292 0.438,0.765 0.438,1.418l0,6.237c0,0.653 -0.146,1.125 -0.438,1.418c-0.292,0.292 -0.764,0.438 -1.417,0.438l-10.722,-0c-1.066,-0 -1.856,0.215 -2.372,0.644c-0.515,0.43 -0.773,1.074 -0.773,1.933l0,12.32c0,0.859 0.198,1.495 0.593,1.908c0.395,0.412 0.988,0.618 1.778,0.618l5,0l0,-8.041c0,-0.653 0.147,-1.126 0.439,-1.418c0.292,-0.292 0.764,-0.438 1.417,-0.438l7.99,-0c0.653,-0 1.126,0.146 1.418,0.438c0.292,0.292 0.438,0.765 0.438,1.418l-0,15.928c-0,0.653 -0.146,1.125 -0.438,1.418c-0.292,0.292 -0.765,0.438 -1.418,0.438Z" style="fill:#808080;"/><path d="M309.189,59.12l-23.918,-0c-0.653,-0 -1.126,-0.146 -1.418,-0.438c-0.292,-0.293 -0.438,-0.765 -0.438,-1.418l-0,-33.403c-0,-0.653 0.146,-1.126 0.438,-1.418c0.292,-0.292 0.765,-0.438 1.418,-0.438l23.918,-0c0.653,-0 1.126,0.146 1.418,0.438c0.292,0.292 0.438,0.765 0.438,1.418l-0,6.031c-0,0.653 -0.146,1.125 -0.438,1.417c-0.292,0.292 -0.765,0.439 -1.418,0.439l-14.227,-0l-0,3.969l10.052,-0c0.653,-0 1.125,0.146 1.417,0.438c0.292,0.292 0.438,0.765 0.438,1.418l0,5.515c0,0.653 -0.146,1.126 -0.438,1.418c-0.292,0.292 -0.764,0.438 -1.417,0.438l-10.052,-0l-0,4.433l14.227,0c0.653,0 1.126,0.146 1.418,0.438c0.292,0.292 0.438,0.765 0.438,1.418l-0,6.031c-0,0.653 -0.146,1.125 -0.438,1.418c-0.292,0.292 -0.765,0.438 -1.418,0.438Z" style="fill-rule:nonzero;"/><path d="M309.189,60.786c1.213,0 2.054,-0.383 2.596,-0.926c0.543,-0.543 0.927,-1.383 0.927,-2.596c-0,0 -0,-6.031 -0,-6.031c-0,-1.213 -0.384,-2.054 -0.927,-2.596c-0.542,-0.543 -1.383,-0.927 -2.596,-0.927l-12.561,0c0,0 0,-1.099 0,-1.099c0,-0 8.386,-0 8.386,-0c1.213,-0 2.053,-0.384 2.596,-0.927c0.542,-0.542 0.926,-1.383 0.926,-2.596c0,0 0,-5.515 0,-5.515c0,-1.213 -0.384,-2.054 -0.926,-2.597c-0.543,-0.542 -1.383,-0.926 -2.596,-0.926l-8.386,0c0,0 0,-0.636 0,-0.636c0,0 12.561,0 12.561,0c1.213,0 2.054,-0.383 2.596,-0.926c0.543,-0.543 0.927,-1.383 0.927,-2.596c-0,-0 -0,-6.031 -0,-6.031c-0,-1.213 -0.384,-2.054 -0.927,-2.596c-0.542,-0.543 -1.383,-0.927 -2.596,-0.927l-23.918,0c-1.213,0 -2.054,0.384 -2.596,0.927c-0.543,0.542 -0.927,1.383 -0.927,2.596l0,33.403c0,1.213 0.384,2.053 0.927,2.596c0.542,0.543 1.383,0.926 2.596,0.926c-0,0 23.918,0 23.918,0Zm0,-1.666l-23.918,-0c-0.653,-0 -1.126,-0.146 -1.418,-0.438c-0.292,-0.293 -0.438,-0.765 -0.438,-1.418l-0,-33.403c-0,-0.653 0.146,-1.126 0.438,-1.418c0.292,-0.292 0.765,-0.438 1.418,-0.438l23.918,-0c0.653,-0 1.126,0.146 1.418,0.438c0.292,0.292 0.438,0.765 0.438,1.418l-0,6.031c-0,0.653 -0.146,1.125 -0.438,1.417c-0.292,0.292 -0.765,0.439 -1.418,0.439l-14.227,-0l-0,3.969l10.052,-0c0.653,-0 1.125,0.146 1.417,0.438c0.292,0.292 0.438,0.765 0.438,1.418l0,5.515c0,0.653 -0.146,1.126 -0.438,1.418c-0.292,0.292 -0.764,0.438 -1.417,0.438l-10.052,-0l-0,4.433l14.227,0c0.653,0 1.126,0.146 1.418,0.438c0.292,0.292 0.438,0.765 0.438,1.418l-0,6.031c-0,0.653 -0.146,1.125 -0.438,1.418c-0.292,0.292 -0.765,0.438 -1.418,0.438Z" style="fill:#808080;"/></g></g></svg>