<?xml version="1.0" encoding="UTF-8" standalone="no"?>
<!DOCTYPE svg PUBLIC "-//W3C//DTD SVG 1.1//EN" "http://www.w3.org/Graphics/SVG/1.1/DTD/svg11.dtd">
<svg width="100%" height="100%" viewBox="0 0 319 42" version="1.1" xmlns="http://www.w3.org/2000/svg" xmlns:xlink="http://www.w3.org/1999/xlink" xml:space="preserve" xmlns:serif="http://www.serif.com/" style="fill-rule:evenodd;clip-rule:evenodd;stroke-linejoin:round;stroke-miterlimit:2;">
    <g transform="matrix(1,0,0,1,-695.107,-284.769)">
        <g>
            <path d="M705.362,323.974L697.092,323.974C696.394,323.974 695.888,323.822 695.576,323.519C695.264,323.215 695.107,322.725 695.107,322.047L695.107,287.362C695.107,286.684 695.264,286.194 695.576,285.89C695.888,285.587 696.394,285.435 697.092,285.435L702.826,285.435C703.524,285.435 704.121,285.542 704.617,285.757C705.114,285.971 705.601,286.345 706.078,286.881L716.774,298.763L716.774,287.362C716.774,286.684 716.93,286.194 717.242,285.89C717.555,285.587 718.06,285.435 718.758,285.435L727.028,285.435C727.726,285.435 728.232,285.587 728.544,285.89C728.856,286.194 729.013,286.684 729.013,287.362L729.013,322.047C729.013,322.725 728.856,323.215 728.544,323.519C728.232,323.822 727.726,323.974 727.028,323.974L718.758,323.974C718.06,323.974 717.555,323.822 717.242,323.519C716.93,323.215 716.774,322.725 716.774,322.047L716.774,315.463L707.346,304.383L707.346,322.047C707.346,322.725 707.19,323.215 706.878,323.519C706.565,323.822 706.06,323.974 705.362,323.974ZM764.186,323.974L738.605,323.974C737.907,323.974 737.402,323.822 737.089,323.519C736.777,323.215 736.621,322.725 736.621,322.047L736.621,287.362C736.621,286.684 736.777,286.194 737.089,285.89C737.402,285.587 737.907,285.435 738.605,285.435L764.186,285.435C764.884,285.435 765.39,285.587 765.702,285.89C766.014,286.194 766.171,286.684 766.171,287.362L766.171,293.625C766.171,294.303 766.014,294.793 765.702,295.097C765.39,295.4 764.884,295.552 764.186,295.552L748.97,295.552L748.97,299.673L759.72,299.673C760.419,299.673 760.924,299.825 761.237,300.128C761.549,300.431 761.705,300.922 761.705,301.6L761.705,307.327C761.705,308.005 761.549,308.496 761.237,308.799C760.924,309.102 760.419,309.254 759.72,309.254L748.97,309.254L748.97,313.857L764.186,313.857C764.884,313.857 765.39,314.009 765.702,314.312C766.014,314.616 766.171,315.106 766.171,315.784L766.171,322.047C766.171,322.725 766.014,323.215 765.702,323.519C765.39,323.822 764.884,323.974 764.186,323.974ZM784.529,322.047C784.529,322.725 784.373,323.215 784.061,323.519C783.748,323.822 783.243,323.974 782.544,323.974L774.165,323.974C773.466,323.974 772.961,323.822 772.649,323.519C772.336,323.215 772.18,322.725 772.18,322.047L772.18,316.319C772.18,314.678 772.327,313.447 772.621,312.626C772.915,311.805 773.466,310.842 774.275,309.736L778.74,303.902L774.275,298.067C773.43,296.961 772.869,295.998 772.593,295.177C772.318,294.356 772.18,293.125 772.18,291.484L772.18,287.362C772.18,286.684 772.336,286.194 772.649,285.89C772.961,285.587 773.466,285.435 774.165,285.435L782.655,285.435C783.353,285.435 783.858,285.587 784.171,285.89C784.483,286.194 784.639,286.684 784.639,287.362L784.639,291.056C784.639,291.412 784.658,291.787 784.695,292.18C784.731,292.572 784.878,292.947 785.136,293.304L787.561,296.676C787.745,296.961 787.938,297.184 788.14,297.345C788.342,297.505 788.59,297.586 788.885,297.586L789.546,297.586C789.84,297.586 790.079,297.505 790.263,297.345C790.447,297.184 790.649,296.961 790.869,296.676L793.35,293.304C793.607,292.947 793.754,292.572 793.791,292.18C793.828,291.787 793.846,291.412 793.846,291.056L793.846,287.362C793.846,286.684 794.002,286.194 794.315,285.89C794.627,285.587 795.133,285.435 795.831,285.435L804.211,285.435C804.909,285.435 805.415,285.587 805.727,285.89C806.039,286.194 806.196,286.684 806.196,287.362L806.196,291.484C806.196,293.125 806.049,294.356 805.754,295.177C805.46,295.998 804.909,296.961 804.101,298.067L799.635,303.955L804.101,309.736C804.946,310.842 805.506,311.805 805.782,312.626C806.058,313.447 806.196,314.678 806.196,316.319L806.196,322.047C806.196,322.725 806.039,323.215 805.727,323.519C805.415,323.822 804.909,323.974 804.211,323.974L795.831,323.974C795.133,323.974 794.627,323.822 794.315,323.519C794.002,323.215 793.846,322.725 793.846,322.047L793.846,316.748C793.846,316.391 793.828,316.016 793.791,315.624C793.754,315.231 793.607,314.856 793.35,314.5L790.924,311.127C790.704,310.806 790.502,310.574 790.318,310.432C790.134,310.289 789.895,310.218 789.601,310.218L788.829,310.218C788.535,310.218 788.296,310.289 788.113,310.432C787.929,310.574 787.727,310.806 787.506,311.127L785.025,314.5C784.768,314.856 784.621,315.231 784.584,315.624C784.548,316.016 784.529,316.391 784.529,316.748L784.529,322.047ZM831.249,323.974L822.318,323.974C821.619,323.974 821.114,323.822 820.802,323.519C820.489,323.215 820.333,322.725 820.333,322.047L820.333,295.766L812.229,295.766C811.531,295.766 811.025,295.614 810.713,295.311C810.4,295.007 810.244,294.517 810.244,293.839L810.244,287.362C810.244,286.684 810.4,286.194 810.713,285.89C811.025,285.587 811.531,285.435 812.229,285.435L841.338,285.435C842.036,285.435 842.542,285.587 842.854,285.89C843.166,286.194 843.323,286.684 843.323,287.362L843.323,293.839C843.323,294.517 843.166,295.007 842.854,295.311C842.542,295.614 842.036,295.766 841.338,295.766L833.234,295.766L833.234,322.047C833.234,322.725 833.077,323.215 832.765,323.519C832.453,323.822 831.947,323.974 831.249,323.974ZM871.069,323.974L862.524,323.974C861.826,323.974 861.32,323.822 861.008,323.519C860.696,323.215 860.539,322.725 860.539,322.047L860.539,287.362C860.539,286.684 860.696,286.194 861.008,285.89C861.32,285.587 861.826,285.435 862.524,285.435L879.394,285.435C884.393,285.435 887.811,286.399 889.648,288.326C891.486,290.253 892.405,292.768 892.405,295.873L892.405,302.724C892.405,305.828 891.486,308.344 889.648,310.271C887.811,312.198 884.393,313.161 879.394,313.161L873.054,313.161L873.054,322.047C873.054,322.725 872.898,323.215 872.585,323.519C872.273,323.822 871.768,323.974 871.069,323.974ZM872.944,295.445L872.944,303.527L877.905,303.527C878.971,303.527 879.67,303.259 880,302.724C880.331,302.189 880.497,301.582 880.497,300.904L880.497,298.067C880.497,297.389 880.331,296.783 880,296.247C879.67,295.712 878.971,295.445 877.905,295.445L872.944,295.445ZM908.85,322.047C908.85,322.725 908.694,323.215 908.381,323.519C908.069,323.822 907.563,323.974 906.865,323.974L898.761,323.974C898.063,323.974 897.557,323.822 897.245,323.519C896.932,323.215 896.776,322.725 896.776,322.047L896.776,307.916C896.776,306.845 896.951,305.614 897.3,304.223C897.649,302.831 898.191,301.207 898.926,299.352L903.723,287.202C903.943,286.595 904.283,286.149 904.743,285.864C905.202,285.578 905.799,285.435 906.534,285.435L921.364,285.435C922.063,285.435 922.642,285.578 923.101,285.864C923.561,286.149 923.9,286.595 924.121,287.202L928.917,299.352C929.652,301.207 930.195,302.831 930.544,304.223C930.893,305.614 931.067,306.845 931.067,307.916L931.067,322.047C931.067,322.725 930.911,323.215 930.599,323.519C930.286,323.822 929.781,323.974 929.083,323.974L920.758,323.974C920.023,323.974 919.481,323.822 919.132,323.519C918.783,323.215 918.608,322.725 918.608,322.047L918.608,314.553L908.85,314.553L908.85,322.047ZM911.992,296.676L909.401,304.812L918.057,304.812L915.465,296.676C915.318,296.355 915.162,296.123 914.997,295.98C914.831,295.837 914.639,295.766 914.418,295.766L913.04,295.766C912.819,295.766 912.626,295.837 912.461,295.98C912.295,296.123 912.139,296.355 911.992,296.676ZM968.17,323.974L950.804,323.974C946.21,323.974 942.801,323.081 940.577,321.297C938.354,319.513 937.242,316.765 937.242,313.054L937.242,296.355C937.242,292.643 938.354,289.896 940.577,288.112C942.801,286.327 946.21,285.435 950.804,285.435L964.587,285.435C965.285,285.435 965.791,285.587 966.103,285.89C966.415,286.194 966.572,286.684 966.572,287.362L966.572,293.839C966.572,294.517 966.415,295.007 966.103,295.311C965.791,295.614 965.285,295.766 964.587,295.766L953.12,295.766C951.98,295.766 951.135,295.989 950.584,296.435C950.032,296.881 949.757,297.55 949.757,298.442L949.757,311.235C949.757,312.127 949.968,312.787 950.391,313.215C950.813,313.643 951.447,313.857 952.293,313.857L957.64,313.857L957.64,305.507C957.64,304.829 957.797,304.339 958.109,304.035C958.421,303.732 958.927,303.58 959.625,303.58L968.17,303.58C968.869,303.58 969.374,303.732 969.686,304.035C969.999,304.339 970.155,304.829 970.155,305.507L970.155,322.047C970.155,322.725 969.999,323.215 969.686,323.519C969.374,323.822 968.869,323.974 968.17,323.974ZM1004.45,323.974L978.866,323.974C978.167,323.974 977.662,323.822 977.35,323.519C977.037,323.215 976.881,322.725 976.881,322.047L976.881,287.362C976.881,286.684 977.037,286.194 977.35,285.89C977.662,285.587 978.167,285.435 978.866,285.435L1004.45,285.435C1005.14,285.435 1005.65,285.587 1005.96,285.89C1006.27,286.194 1006.43,286.684 1006.43,287.362L1006.43,293.625C1006.43,294.303 1006.27,294.793 1005.96,295.097C1005.65,295.4 1005.14,295.552 1004.45,295.552L989.23,295.552L989.23,299.673L999.981,299.673C1000.68,299.673 1001.18,299.825 1001.5,300.128C1001.81,300.431 1001.97,300.922 1001.97,301.6L1001.97,307.327C1001.97,308.005 1001.81,308.496 1001.5,308.799C1001.18,309.102 1000.68,309.254 999.981,309.254L989.23,309.254L989.23,313.857L1004.45,313.857C1005.14,313.857 1005.65,314.009 1005.96,314.312C1006.27,314.616 1006.43,315.106 1006.43,315.784L1006.43,322.047C1006.43,322.725 1006.27,323.215 1005.96,323.519C1005.65,323.822 1005.14,323.974 1004.45,323.974Z" style="fill:rgb(255,0,0);"/>
            <path d="M711.362,324.974L703.092,324.974C702.394,324.974 701.888,324.822 701.576,324.519C701.264,324.215 701.107,323.725 701.107,323.047L701.107,288.362C701.107,287.684 701.264,287.194 701.576,286.89C701.888,286.587 702.394,286.435 703.092,286.435L708.826,286.435C709.524,286.435 710.121,286.542 710.617,286.757C711.114,286.971 711.601,287.345 712.078,287.881L722.774,299.763L722.774,288.362C722.774,287.684 722.93,287.194 723.242,286.89C723.555,286.587 724.06,286.435 724.758,286.435L733.028,286.435C733.726,286.435 734.232,286.587 734.544,286.89C734.856,287.194 735.013,287.684 735.013,288.362L735.013,323.047C735.013,323.725 734.856,324.215 734.544,324.519C734.232,324.822 733.726,324.974 733.028,324.974L724.758,324.974C724.06,324.974 723.555,324.822 723.242,324.519C722.93,324.215 722.774,323.725 722.774,323.047L722.774,316.463L713.346,305.383L713.346,323.047C713.346,323.725 713.19,324.215 712.878,324.519C712.565,324.822 712.06,324.974 711.362,324.974Z" style="fill:white;"/>
            <path d="M711.362,326.64L703.092,326.64C701.842,326.64 700.974,326.257 700.415,325.714C699.841,325.157 699.441,324.293 699.441,323.047L699.441,288.362C699.441,287.116 699.841,286.252 700.415,285.695C700.974,285.152 701.842,284.769 703.092,284.769L708.826,284.769C709.783,284.769 710.598,284.933 711.278,285.226C711.967,285.524 712.658,286.027 713.317,286.766L721.107,295.42L721.107,288.362C721.107,287.116 721.507,286.252 722.081,285.695C722.64,285.152 723.509,284.769 724.758,284.769L733.028,284.769C734.278,284.769 735.146,285.152 735.705,285.695C736.279,286.252 736.679,287.116 736.679,288.362L736.679,323.047C736.679,324.293 736.279,325.157 735.705,325.714C735.146,326.257 734.278,326.64 733.028,326.64L724.758,326.64C723.509,326.64 722.64,326.257 722.081,325.714C721.507,325.157 721.107,324.293 721.107,323.047L721.107,317.076C721.107,317.076 715.013,309.914 715.013,309.914L715.013,323.047C715.013,324.293 714.613,325.157 714.039,325.714C713.48,326.257 712.611,326.64 711.362,326.64ZM711.362,324.974C712.06,324.974 712.565,324.822 712.878,324.519C713.19,324.215 713.346,323.725 713.346,323.047L713.346,305.383L722.774,316.463L722.774,323.047C722.774,323.725 722.93,324.215 723.242,324.519C723.555,324.822 724.06,324.974 724.758,324.974L733.028,324.974C733.726,324.974 734.232,324.822 734.544,324.519C734.856,324.215 735.013,323.725 735.013,323.047L735.013,288.362C735.013,287.684 734.856,287.194 734.544,286.89C734.232,286.587 733.726,286.435 733.028,286.435L724.758,286.435C724.06,286.435 723.555,286.587 723.242,286.89C722.93,287.194 722.774,287.684 722.774,288.362L722.774,299.763L712.078,287.881C711.601,287.345 711.114,286.971 710.617,286.757C710.121,286.542 709.524,286.435 708.826,286.435L703.092,286.435C702.394,286.435 701.888,286.587 701.576,286.89C701.264,287.194 701.107,287.684 701.107,288.362L701.107,323.047C701.107,323.725 701.264,324.215 701.576,324.519C701.888,324.822 702.394,324.974 703.092,324.974L711.362,324.974Z"/>
            <path d="M770.186,324.974L744.605,324.974C743.907,324.974 743.402,324.822 743.089,324.519C742.777,324.215 742.621,323.725 742.621,323.047L742.621,288.362C742.621,287.684 742.777,287.194 743.089,286.89C743.402,286.587 743.907,286.435 744.605,286.435L770.186,286.435C770.884,286.435 771.39,286.587 771.702,286.89C772.014,287.194 772.171,287.684 772.171,288.362L772.171,294.625C772.171,295.303 772.014,295.793 771.702,296.097C771.39,296.4 770.884,296.552 770.186,296.552L754.97,296.552L754.97,300.673L765.72,300.673C766.419,300.673 766.924,300.825 767.237,301.128C767.549,301.431 767.705,301.922 767.705,302.6L767.705,308.327C767.705,309.005 767.549,309.496 767.237,309.799C766.924,310.102 766.419,310.254 765.72,310.254L754.97,310.254L754.97,314.857L770.186,314.857C770.884,314.857 771.39,315.009 771.702,315.312C772.014,315.616 772.171,316.106 772.171,316.784L772.171,323.047C772.171,323.725 772.014,324.215 771.702,324.519C771.39,324.822 770.884,324.974 770.186,324.974Z" style="fill:white;"/>
            <path d="M770.186,326.64L744.605,326.64C743.356,326.64 742.487,326.257 741.928,325.714C741.354,325.157 740.954,324.293 740.954,323.047L740.954,288.362C740.954,287.116 741.354,286.252 741.928,285.695C742.487,285.152 743.356,284.769 744.605,284.769L770.186,284.769C771.436,284.769 772.304,285.152 772.863,285.695C773.437,286.252 773.837,287.116 773.837,288.362L773.837,294.625C773.837,295.871 773.437,296.735 772.863,297.292C772.304,297.835 771.436,298.218 770.186,298.218L756.637,298.218C756.637,298.218 756.637,299.006 756.637,299.006L765.72,299.006C766.97,299.006 767.838,299.389 768.397,299.932C768.972,300.49 769.372,301.353 769.372,302.6L769.372,308.327C769.372,309.574 768.972,310.437 768.397,310.995C767.838,311.538 766.97,311.921 765.72,311.921C765.72,311.921 756.637,311.921 756.637,311.921L756.637,313.191L770.186,313.191C771.436,313.191 772.304,313.574 772.863,314.116C773.437,314.674 773.837,315.538 773.837,316.784L773.837,323.047C773.837,324.293 773.437,325.157 772.863,325.714C772.304,326.257 771.436,326.64 770.186,326.64ZM770.186,324.974C770.884,324.974 771.39,324.822 771.702,324.519C772.014,324.215 772.171,323.725 772.171,323.047L772.171,316.784C772.171,316.106 772.014,315.616 771.702,315.312C771.39,315.009 770.884,314.857 770.186,314.857L754.97,314.857L754.97,310.254L765.72,310.254C766.419,310.254 766.924,310.102 767.237,309.799C767.549,309.496 767.705,309.005 767.705,308.327L767.705,302.6C767.705,301.922 767.549,301.431 767.237,301.128C766.924,300.825 766.419,300.673 765.72,300.673L754.97,300.673L754.97,296.552L770.186,296.552C770.884,296.552 771.39,296.4 771.702,296.097C772.014,295.793 772.171,295.303 772.171,294.625L772.171,288.362C772.171,287.684 772.014,287.194 771.702,286.89C771.39,286.587 770.884,286.435 770.186,286.435L744.605,286.435C743.907,286.435 743.402,286.587 743.089,286.89C742.777,287.194 742.621,287.684 742.621,288.362L742.621,323.047C742.621,323.725 742.777,324.215 743.089,324.519C743.402,324.822 743.907,324.974 744.605,324.974L770.186,324.974Z"/>
            <path d="M790.529,323.047C790.529,323.725 790.373,324.215 790.061,324.519C789.748,324.822 789.243,324.974 788.544,324.974L780.165,324.974C779.466,324.974 778.961,324.822 778.649,324.519C778.336,324.215 778.18,323.725 778.18,323.047L778.18,317.319C778.18,315.678 778.327,314.447 778.621,313.626C778.915,312.805 779.466,311.842 780.275,310.736L784.74,304.902L780.275,299.067C779.43,297.961 778.869,296.998 778.593,296.177C778.318,295.356 778.18,294.125 778.18,292.484L778.18,288.362C778.18,287.684 778.336,287.194 778.649,286.89C778.961,286.587 779.466,286.435 780.165,286.435L788.655,286.435C789.353,286.435 789.858,286.587 790.171,286.89C790.483,287.194 790.639,287.684 790.639,288.362L790.639,292.056C790.639,292.412 790.658,292.787 790.695,293.18C790.731,293.572 790.878,293.947 791.136,294.304L793.561,297.676C793.745,297.961 793.938,298.184 794.14,298.345C794.342,298.505 794.59,298.586 794.885,298.586L795.546,298.586C795.84,298.586 796.079,298.505 796.263,298.345C796.447,298.184 796.649,297.961 796.869,297.676L799.35,294.304C799.607,293.947 799.754,293.572 799.791,293.18C799.828,292.787 799.846,292.412 799.846,292.056L799.846,288.362C799.846,287.684 800.002,287.194 800.315,286.89C800.627,286.587 801.133,286.435 801.831,286.435L810.211,286.435C810.909,286.435 811.415,286.587 811.727,286.89C812.039,287.194 812.196,287.684 812.196,288.362L812.196,292.484C812.196,294.125 812.049,295.356 811.754,296.177C811.46,296.998 810.909,297.961 810.101,299.067L805.635,304.955L810.101,310.736C810.946,311.842 811.506,312.805 811.782,313.626C812.058,314.447 812.196,315.678 812.196,317.319L812.196,323.047C812.196,323.725 812.039,324.215 811.727,324.519C811.415,324.822 810.909,324.974 810.211,324.974L801.831,324.974C801.133,324.974 800.627,324.822 800.315,324.519C800.002,324.215 799.846,323.725 799.846,323.047L799.846,317.748C799.846,317.391 799.828,317.016 799.791,316.624C799.754,316.231 799.607,315.856 799.35,315.5L796.924,312.127C796.704,311.806 796.502,311.574 796.318,311.432C796.134,311.289 795.895,311.218 795.601,311.218L794.829,311.218C794.535,311.218 794.296,311.289 794.113,311.432C793.929,311.574 793.727,311.806 793.506,312.127L791.025,315.5C790.768,315.856 790.621,316.231 790.584,316.624C790.548,317.016 790.529,317.391 790.529,317.748L790.529,323.047Z" style="fill:white;"/>
            <path d="M795.063,296.919L795.335,296.919C795.4,296.846 795.468,296.763 795.539,296.671C795.539,296.671 798.001,293.325 798.006,293.318C798.073,293.223 798.122,293.128 798.132,293.024C798.163,292.686 798.18,292.363 798.18,292.056L798.18,288.362C798.18,287.116 798.58,286.252 799.154,285.695C799.713,285.152 800.581,284.769 801.831,284.769L810.211,284.769C811.461,284.769 812.329,285.152 812.888,285.695C813.462,286.252 813.862,287.116 813.862,288.362L813.862,292.484C813.862,294.377 813.663,295.793 813.323,296.739C812.987,297.677 812.37,298.786 811.446,300.051C811.44,300.059 811.434,300.067 811.428,300.075L807.734,304.946L811.42,309.717L811.425,309.724C812.408,311.01 813.041,312.141 813.362,313.096C813.677,314.035 813.862,315.441 813.862,317.319L813.862,323.047C813.862,324.293 813.462,325.157 812.888,325.714C812.329,326.257 811.461,326.64 810.211,326.64L801.831,326.64C800.581,326.64 799.713,326.257 799.154,325.714C798.58,325.157 798.18,324.293 798.18,323.047L798.18,317.748C798.18,317.44 798.163,317.117 798.132,316.779C798.122,316.671 798.069,316.573 797.998,316.474L795.571,313.101C795.564,313.091 795.557,313.081 795.55,313.071C795.503,313.001 795.46,312.938 795.42,312.884L795.01,312.884C794.97,312.938 794.928,313.001 794.88,313.071C794.87,313.086 794.859,313.101 794.849,313.115C794.849,313.115 792.375,316.478 792.369,316.485C792.303,316.58 792.253,316.675 792.244,316.779C792.212,317.117 792.196,317.44 792.196,317.748L792.196,323.047C792.196,324.293 791.796,325.157 791.222,325.714C790.662,326.257 789.794,326.64 788.544,326.64L780.165,326.64C778.915,326.64 778.047,326.257 777.488,325.714C776.913,325.157 776.513,324.293 776.513,323.047L776.513,317.319C776.513,315.427 776.713,314.011 777.052,313.064C777.388,312.126 778.005,311.017 778.929,309.752C778.937,309.742 778.944,309.733 778.951,309.723L782.642,304.902L778.951,300.08C777.968,298.793 777.334,297.662 777.013,296.708C776.698,295.768 776.513,294.362 776.513,292.484L776.513,288.362C776.513,287.116 776.913,286.252 777.488,285.695C778.047,285.152 778.915,284.769 780.165,284.769L788.655,284.769C789.904,284.769 790.773,285.152 791.332,285.695C791.906,286.252 792.306,287.116 792.306,288.362L792.306,292.056C792.306,292.363 792.322,292.686 792.354,293.024C792.364,293.132 792.417,293.231 792.488,293.329L794.914,296.702C794.931,296.726 794.947,296.749 794.963,296.774C794.997,296.826 795.029,296.875 795.063,296.919ZM790.529,323.047L790.529,317.748C790.529,317.391 790.548,317.016 790.584,316.624C790.621,316.231 790.768,315.856 791.025,315.5L793.506,312.127C793.727,311.806 793.929,311.574 794.113,311.432C794.296,311.289 794.535,311.218 794.829,311.218L795.601,311.218C795.895,311.218 796.134,311.289 796.318,311.432C796.502,311.574 796.704,311.806 796.924,312.127L799.35,315.5C799.607,315.856 799.754,316.231 799.791,316.624C799.828,317.016 799.846,317.391 799.846,317.748L799.846,323.047C799.846,323.725 800.002,324.215 800.315,324.519C800.627,324.822 801.133,324.974 801.831,324.974L810.211,324.974C810.909,324.974 811.415,324.822 811.727,324.519C812.039,324.215 812.196,323.725 812.196,323.047L812.196,317.319C812.196,315.678 812.058,314.447 811.782,313.626C811.506,312.805 810.946,311.842 810.101,310.736L805.635,304.955L810.101,299.067C810.909,297.961 811.46,296.998 811.754,296.177C812.049,295.356 812.196,294.125 812.196,292.484L812.196,288.362C812.196,287.684 812.039,287.194 811.727,286.89C811.415,286.587 810.909,286.435 810.211,286.435L801.831,286.435C801.133,286.435 800.627,286.587 800.315,286.89C800.002,287.194 799.846,287.684 799.846,288.362L799.846,292.056C799.846,292.412 799.828,292.787 799.791,293.18C799.754,293.572 799.607,293.947 799.35,294.304L796.869,297.676C796.649,297.961 796.447,298.184 796.263,298.345C796.079,298.505 795.84,298.586 795.546,298.586L794.885,298.586C794.59,298.586 794.342,298.505 794.14,298.345C793.938,298.184 793.745,297.961 793.561,297.676L791.136,294.304C790.878,293.947 790.731,293.572 790.695,293.18C790.658,292.787 790.639,292.412 790.639,292.056L790.639,288.362C790.639,287.684 790.483,287.194 790.171,286.89C789.858,286.587 789.353,286.435 788.655,286.435L780.165,286.435C779.466,286.435 778.961,286.587 778.649,286.89C778.336,287.194 778.18,287.684 778.18,288.362L778.18,292.484C778.18,294.125 778.318,295.356 778.593,296.177C778.869,296.998 779.43,297.961 780.275,299.067L784.74,304.902L780.275,310.736C779.466,311.842 778.915,312.805 778.621,313.626C778.327,314.447 778.18,315.678 778.18,317.319L778.18,323.047C778.18,323.725 778.336,324.215 778.649,324.519C778.961,324.822 779.466,324.974 780.165,324.974L788.544,324.974C789.243,324.974 789.748,324.822 790.061,324.519C790.373,324.215 790.529,323.725 790.529,323.047Z"/>
            <path d="M837.249,324.974L828.318,324.974C827.619,324.974 827.114,324.822 826.802,324.519C826.489,324.215 826.333,323.725 826.333,323.047L826.333,296.766L818.229,296.766C817.531,296.766 817.025,296.614 816.713,296.311C816.4,296.007 816.244,295.517 816.244,294.839L816.244,288.362C816.244,287.684 816.4,287.194 816.713,286.89C817.025,286.587 817.531,286.435 818.229,286.435L847.338,286.435C848.036,286.435 848.542,286.587 848.854,286.89C849.166,287.194 849.323,287.684 849.323,288.362L849.323,294.839C849.323,295.517 849.166,296.007 848.854,296.311C848.542,296.614 848.036,296.766 847.338,296.766L839.234,296.766L839.234,323.047C839.234,323.725 839.077,324.215 838.765,324.519C838.453,324.822 837.947,324.974 837.249,324.974Z" style="fill:white;"/>
            <path d="M837.249,326.64L828.318,326.64C827.068,326.64 826.2,326.257 825.641,325.714C825.066,325.157 824.666,324.293 824.666,323.047L824.666,298.432L818.229,298.432C816.979,298.432 816.111,298.049 815.552,297.507C814.977,296.949 814.577,296.085 814.577,294.839L814.577,288.362C814.577,287.116 814.977,286.252 815.552,285.695C816.111,285.152 816.979,284.769 818.229,284.769L847.338,284.769C848.587,284.769 849.456,285.152 850.015,285.695C850.589,286.252 850.989,287.116 850.989,288.362L850.989,294.839C850.989,296.085 850.589,296.949 850.015,297.507C849.456,298.049 848.587,298.432 847.338,298.432L840.9,298.432L840.9,323.047C840.9,324.293 840.5,325.157 839.926,325.714C839.367,326.257 838.499,326.64 837.249,326.64ZM837.249,324.974C837.947,324.974 838.453,324.822 838.765,324.519C839.077,324.215 839.234,323.725 839.234,323.047L839.234,296.766L847.338,296.766C848.036,296.766 848.542,296.614 848.854,296.311C849.166,296.007 849.323,295.517 849.323,294.839L849.323,288.362C849.323,287.684 849.166,287.194 848.854,286.89C848.542,286.587 848.036,286.435 847.338,286.435L818.229,286.435C817.531,286.435 817.025,286.587 816.713,286.89C816.4,287.194 816.244,287.684 816.244,288.362L816.244,294.839C816.244,295.517 816.4,296.007 816.713,296.311C817.025,296.614 817.531,296.766 818.229,296.766L826.333,296.766L826.333,323.047C826.333,323.725 826.489,324.215 826.802,324.519C827.114,324.822 827.619,324.974 828.318,324.974L837.249,324.974Z"/>
            <path d="M877.069,324.974L868.524,324.974C867.826,324.974 867.32,324.822 867.008,324.519C866.696,324.215 866.539,323.725 866.539,323.047L866.539,288.362C866.539,287.684 866.696,287.194 867.008,286.89C867.32,286.587 867.826,286.435 868.524,286.435L885.394,286.435C890.393,286.435 893.811,287.399 895.648,289.326C897.486,291.253 898.405,293.768 898.405,296.873L898.405,303.724C898.405,306.828 897.486,309.344 895.648,311.271C893.811,313.198 890.393,314.161 885.394,314.161L879.054,314.161L879.054,323.047C879.054,323.725 878.898,324.215 878.585,324.519C878.273,324.822 877.768,324.974 877.069,324.974Z" style="fill:white;"/>
            <path d="M877.069,326.64L868.524,326.64C867.274,326.64 866.406,326.257 865.847,325.714C865.273,325.157 864.873,324.293 864.873,323.047L864.873,288.362C864.873,287.116 865.273,286.252 865.847,285.695C866.406,285.152 867.274,284.769 868.524,284.769L885.394,284.769C891.003,284.769 894.792,286.013 896.854,288.176C898.975,290.399 900.072,293.29 900.072,296.873L900.072,303.724C900.072,307.307 898.975,310.197 896.854,312.421C894.792,314.584 891.003,315.828 885.394,315.828C885.394,315.828 880.721,315.828 880.721,315.828L880.721,323.047C880.721,324.293 880.321,325.157 879.746,325.714C879.187,326.257 878.319,326.64 877.069,326.64ZM877.069,324.974C877.768,324.974 878.273,324.822 878.585,324.519C878.898,324.215 879.054,323.725 879.054,323.047L879.054,314.161L885.394,314.161C890.393,314.161 893.811,313.198 895.648,311.271C897.486,309.344 898.405,306.828 898.405,303.724L898.405,296.873C898.405,293.768 897.486,291.253 895.648,289.326C893.811,287.399 890.393,286.435 885.394,286.435L868.524,286.435C867.826,286.435 867.32,286.587 867.008,286.89C866.696,287.194 866.539,287.684 866.539,288.362L866.539,323.047C866.539,323.725 866.696,324.215 867.008,324.519C867.32,324.822 867.826,324.974 868.524,324.974L877.069,324.974Z"/>
            <path d="M878.944,296.445L878.944,304.527L883.905,304.527C884.971,304.527 885.67,304.259 886,303.724C886.331,303.189 886.497,302.582 886.497,301.904L886.497,299.067C886.497,298.389 886.331,297.783 886,297.247C885.67,296.712 884.971,296.445 883.905,296.445L878.944,296.445Z" style="fill:rgb(255,0,0);"/>
            <path d="M878.944,296.445L883.905,296.445C884.971,296.445 885.67,296.712 886,297.247C886.331,297.783 886.497,298.389 886.497,299.067L886.497,301.904C886.497,302.582 886.331,303.189 886,303.724C885.67,304.259 884.971,304.527 883.905,304.527L878.944,304.527L878.944,296.445ZM884.631,302.763C884.768,302.507 884.83,302.22 884.83,301.904L884.83,299.067C884.83,298.752 884.768,298.464 884.631,298.208C884.522,298.184 884.178,298.111 883.905,298.111L880.61,298.111L880.61,302.86L883.905,302.86C884.178,302.86 884.522,302.788 884.631,302.763Z"/>
            <path d="M914.85,323.047C914.85,323.725 914.694,324.215 914.381,324.519C914.069,324.822 913.563,324.974 912.865,324.974L904.761,324.974C904.063,324.974 903.557,324.822 903.245,324.519C902.932,324.215 902.776,323.725 902.776,323.047L902.776,308.916C902.776,307.845 902.951,306.614 903.3,305.223C903.649,303.831 904.191,302.207 904.926,300.352L909.723,288.202C909.943,287.595 910.283,287.149 910.743,286.864C911.202,286.578 911.799,286.435 912.534,286.435L927.364,286.435C928.063,286.435 928.642,286.578 929.101,286.864C929.561,287.149 929.9,287.595 930.121,288.202L934.917,300.352C935.652,302.207 936.195,303.831 936.544,305.223C936.893,306.614 937.067,307.845 937.067,308.916L937.067,323.047C937.067,323.725 936.911,324.215 936.599,324.519C936.286,324.822 935.781,324.974 935.083,324.974L926.758,324.974C926.023,324.974 925.481,324.822 925.132,324.519C924.783,324.215 924.608,323.725 924.608,323.047L924.608,315.553L914.85,315.553L914.85,323.047Z" style="fill:white;"/>
            <path d="M916.516,323.047C916.516,324.293 916.117,325.157 915.542,325.714C914.983,326.257 914.115,326.64 912.865,326.64L904.761,326.64C903.511,326.64 902.643,326.257 902.084,325.714C901.509,325.157 901.11,324.293 901.11,323.047L901.11,308.916C901.11,307.728 901.296,306.361 901.683,304.817C902.047,303.366 902.61,301.673 903.376,299.74C903.376,299.74 908.166,287.607 908.161,287.621C908.524,286.627 909.109,285.916 909.863,285.448C910.55,285.021 911.434,284.769 912.534,284.769L927.364,284.769C928.42,284.769 929.286,285.017 929.981,285.448C930.731,285.914 931.314,286.621 931.678,287.607L936.467,299.738C937.233,301.673 937.796,303.366 938.16,304.817C938.548,306.361 938.734,307.728 938.734,308.916L938.734,323.047C938.734,324.293 938.334,325.157 937.76,325.714C937.201,326.257 936.332,326.64 935.083,326.64L926.758,326.64C925.516,326.64 924.629,326.289 924.039,325.777C923.381,325.206 922.941,324.324 922.941,323.047L922.941,317.22L916.516,317.22L916.516,323.047ZM914.85,323.047L914.85,315.553L924.608,315.553L924.608,323.047C924.608,323.725 924.783,324.215 925.132,324.519C925.481,324.822 926.023,324.974 926.758,324.974L935.083,324.974C935.781,324.974 936.286,324.822 936.599,324.519C936.911,324.215 937.067,323.725 937.067,323.047L937.067,308.916C937.067,307.845 936.893,306.614 936.544,305.223C936.195,303.831 935.652,302.207 934.917,300.352L930.121,288.202C929.9,287.595 929.561,287.149 929.101,286.864C928.642,286.578 928.063,286.435 927.364,286.435L912.534,286.435C911.799,286.435 911.202,286.578 910.743,286.864C910.283,287.149 909.943,287.595 909.723,288.202L904.926,300.352C904.191,302.207 903.649,303.831 903.3,305.223C902.951,306.614 902.776,307.845 902.776,308.916L902.776,323.047C902.776,323.725 902.932,324.215 903.245,324.519C903.557,324.822 904.063,324.974 904.761,324.974L912.865,324.974C913.563,324.974 914.069,324.822 914.381,324.519C914.694,324.215 914.85,323.725 914.85,323.047Z"/>
            <path d="M917.992,297.676L915.401,305.812L924.057,305.812L921.465,297.676C921.318,297.355 921.162,297.123 920.997,296.98C920.831,296.837 920.639,296.766 920.418,296.766L919.04,296.766C918.819,296.766 918.626,296.837 918.461,296.98C918.295,297.123 918.139,297.355 917.992,297.676Z" style="fill:rgb(255,0,0);"/>
            <path d="M917.992,297.676C918.139,297.355 918.295,297.123 918.461,296.98C918.626,296.837 918.819,296.766 919.04,296.766L920.418,296.766C920.639,296.766 920.831,296.837 920.997,296.98C921.162,297.123 921.318,297.355 921.465,297.676L924.057,305.812L915.401,305.812L917.992,297.676ZM919.957,298.432L919.5,298.432L917.681,304.145L921.777,304.145C921.777,304.145 920.237,299.311 919.957,298.432Z"/>
            <path d="M974.17,324.974L956.804,324.974C952.21,324.974 948.801,324.081 946.577,322.297C944.354,320.513 943.242,317.765 943.242,314.054L943.242,297.355C943.242,293.643 944.354,290.896 946.577,289.112C948.801,287.327 952.21,286.435 956.804,286.435L970.587,286.435C971.285,286.435 971.791,286.587 972.103,286.89C972.415,287.194 972.572,287.684 972.572,288.362L972.572,294.839C972.572,295.517 972.415,296.007 972.103,296.311C971.791,296.614 971.285,296.766 970.587,296.766L959.12,296.766C957.98,296.766 957.135,296.989 956.584,297.435C956.032,297.881 955.757,298.55 955.757,299.442L955.757,312.235C955.757,313.127 955.968,313.787 956.391,314.215C956.813,314.643 957.447,314.857 958.293,314.857L963.64,314.857L963.64,306.507C963.64,305.829 963.797,305.339 964.109,305.035C964.421,304.732 964.927,304.58 965.625,304.58L974.17,304.58C974.869,304.58 975.374,304.732 975.686,305.035C975.999,305.339 976.155,305.829 976.155,306.507L976.155,323.047C976.155,323.725 975.999,324.215 975.686,324.519C975.374,324.822 974.869,324.974 974.17,324.974Z" style="fill:white;"/>
            <path d="M974.17,326.64L956.804,326.64C951.731,326.64 947.99,325.567 945.534,323.597C942.951,321.524 941.575,318.366 941.575,314.054L941.575,297.355C941.575,293.043 942.951,289.885 945.534,287.812C947.99,285.842 951.731,284.769 956.804,284.769L970.587,284.769C971.837,284.769 972.705,285.152 973.264,285.695C973.838,286.252 974.238,287.116 974.238,288.362L974.238,294.839C974.238,296.085 973.838,296.949 973.264,297.507C972.705,298.049 971.837,298.432 970.587,298.432L959.12,298.432C958.461,298.432 957.951,298.472 957.632,298.731C957.444,298.883 957.423,299.137 957.423,299.442L957.423,312.235C957.423,312.588 957.409,312.874 957.577,313.044C957.731,313.2 957.985,313.191 958.293,313.191L961.974,313.191L961.974,306.507C961.974,305.261 962.374,304.397 962.948,303.84C963.507,303.297 964.375,302.914 965.625,302.914L974.17,302.914C975.42,302.914 976.288,303.297 976.847,303.84C977.422,304.397 977.822,305.261 977.822,306.507L977.822,323.047C977.822,324.293 977.422,325.157 976.847,325.714C976.288,326.257 975.42,326.64 974.17,326.64ZM974.17,324.974C974.869,324.974 975.374,324.822 975.686,324.519C975.999,324.215 976.155,323.725 976.155,323.047L976.155,306.507C976.155,305.829 975.999,305.339 975.686,305.035C975.374,304.732 974.869,304.58 974.17,304.58L965.625,304.58C964.927,304.58 964.421,304.732 964.109,305.035C963.797,305.339 963.64,305.829 963.64,306.507L963.64,314.857L958.293,314.857C957.447,314.857 956.813,314.643 956.391,314.215C955.968,313.787 955.757,313.127 955.757,312.235L955.757,299.442C955.757,298.55 956.032,297.881 956.584,297.435C957.135,296.989 957.98,296.766 959.12,296.766L970.587,296.766C971.285,296.766 971.791,296.614 972.103,296.311C972.415,296.007 972.572,295.517 972.572,294.839L972.572,288.362C972.572,287.684 972.415,287.194 972.103,286.89C971.791,286.587 971.285,286.435 970.587,286.435L956.804,286.435C952.21,286.435 948.801,287.327 946.577,289.112C944.354,290.896 943.242,293.643 943.242,297.355L943.242,314.054C943.242,317.765 944.354,320.513 946.577,322.297C948.801,324.081 952.21,324.974 956.804,324.974L974.17,324.974Z"/>
            <path d="M1010.45,324.974L984.866,324.974C984.167,324.974 983.662,324.822 983.35,324.519C983.037,324.215 982.881,323.725 982.881,323.047L982.881,288.362C982.881,287.684 983.037,287.194 983.35,286.89C983.662,286.587 984.167,286.435 984.866,286.435L1010.45,286.435C1011.14,286.435 1011.65,286.587 1011.96,286.89C1012.27,287.194 1012.43,287.684 1012.43,288.362L1012.43,294.625C1012.43,295.303 1012.27,295.793 1011.96,296.097C1011.65,296.4 1011.14,296.552 1010.45,296.552L995.23,296.552L995.23,300.673L1005.98,300.673C1006.68,300.673 1007.18,300.825 1007.5,301.128C1007.81,301.431 1007.97,301.922 1007.97,302.6L1007.97,308.327C1007.97,309.005 1007.81,309.496 1007.5,309.799C1007.18,310.102 1006.68,310.254 1005.98,310.254L995.23,310.254L995.23,314.857L1010.45,314.857C1011.14,314.857 1011.65,315.009 1011.96,315.312C1012.27,315.616 1012.43,316.106 1012.43,316.784L1012.43,323.047C1012.43,323.725 1012.27,324.215 1011.96,324.519C1011.65,324.822 1011.14,324.974 1010.45,324.974Z" style="fill:white;"/>
            <path d="M1010.45,326.64L984.866,326.64C983.616,326.64 982.748,326.257 982.189,325.714C981.614,325.157 981.214,324.293 981.214,323.047L981.214,288.362C981.214,287.116 981.614,286.252 982.189,285.695C982.748,285.152 983.616,284.769 984.866,284.769L1010.45,284.769C1011.7,284.769 1012.56,285.152 1013.12,285.695C1013.7,286.252 1014.1,287.116 1014.1,288.362L1014.1,294.625C1014.1,295.871 1013.7,296.735 1013.12,297.292C1012.56,297.835 1011.7,298.218 1010.45,298.218L996.897,298.218C996.897,298.218 996.897,299.006 996.897,299.006L1005.98,299.006C1007.23,299.006 1008.1,299.389 1008.66,299.932C1009.23,300.49 1009.63,301.353 1009.63,302.6L1009.63,308.327C1009.63,309.574 1009.23,310.437 1008.66,310.995C1008.1,311.538 1007.23,311.921 1005.98,311.921C1005.98,311.921 996.897,311.921 996.897,311.921L996.897,313.191L1010.45,313.191C1011.7,313.191 1012.56,313.574 1013.12,314.116C1013.7,314.674 1014.1,315.538 1014.1,316.784L1014.1,323.047C1014.1,324.293 1013.7,325.157 1013.12,325.714C1012.56,326.257 1011.7,326.64 1010.45,326.64ZM1010.45,324.974C1011.14,324.974 1011.65,324.822 1011.96,324.519C1012.27,324.215 1012.43,323.725 1012.43,323.047L1012.43,316.784C1012.43,316.106 1012.27,315.616 1011.96,315.312C1011.65,315.009 1011.14,314.857 1010.45,314.857L995.23,314.857L995.23,310.254L1005.98,310.254C1006.68,310.254 1007.18,310.102 1007.5,309.799C1007.81,309.496 1007.97,309.005 1007.97,308.327L1007.97,302.6C1007.97,301.922 1007.81,301.431 1007.5,301.128C1007.18,300.825 1006.68,300.673 1005.98,300.673L995.23,300.673L995.23,296.552L1010.45,296.552C1011.14,296.552 1011.65,296.4 1011.96,296.097C1012.27,295.793 1012.43,295.303 1012.43,294.625L1012.43,288.362C1012.43,287.684 1012.27,287.194 1011.96,286.89C1011.65,286.587 1011.14,286.435 1010.45,286.435L984.866,286.435C984.167,286.435 983.662,286.587 983.35,286.89C983.037,287.194 982.881,287.684 982.881,288.362L982.881,323.047C982.881,323.725 983.037,324.215 983.35,324.519C983.662,324.822 984.167,324.974 984.866,324.974L1010.45,324.974Z"/>
        </g>
    </g>
</svg>
