<?xml version="1.0" encoding="UTF-8" standalone="no"?>
<!DOCTYPE svg PUBLIC "-//W3C//DTD SVG 1.1//EN" "http://www.w3.org/Graphics/SVG/1.1/DTD/svg11.dtd">
<svg width="100%" height="100%" viewBox="0 0 305 82" version="1.1" xmlns="http://www.w3.org/2000/svg" xmlns:xlink="http://www.w3.org/1999/xlink" xml:space="preserve" xmlns:serif="http://www.serif.com/" style="fill-rule:evenodd;clip-rule:evenodd;stroke-linejoin:round;stroke-miterlimit:2;">
    <g transform="matrix(1,0,0,1,-759.373,-244.032)">
        <g transform="matrix(1,0,0,1,-376.46,35.3392)">
            <g transform="matrix(0.991771,0,0,1,879.779,-241.307)">
                <g transform="matrix(1.40321,0,0,1,-87.1019,0)">
                    <path d="M464.72,470.281C464.72,459.088 458.19,450 450.147,450L260.638,450C252.595,450 246.065,459.088 246.065,470.281L246.065,510.843C246.065,522.037 252.595,531.125 260.638,531.125L450.147,531.125C458.19,531.125 464.72,522.037 464.72,510.843L464.72,470.281Z" style="fill:white;"/>
                </g>
                <g transform="matrix(1.82676,0,0,1,-424.449,91.6052)">
                    <path d="M393.88,417.898L384.379,417.898C383.999,417.898 383.723,417.749 383.553,417.451C383.382,417.153 383.297,416.671 383.297,416.004L383.297,409.848C383.297,409.182 383.382,408.7 383.553,408.401C383.723,408.103 383.999,407.954 384.379,407.954L392.467,407.954C392.728,407.954 392.923,407.805 393.053,407.507C393.184,407.209 393.249,406.849 393.249,406.428C393.249,405.832 393.184,405.394 393.053,405.113C392.923,404.832 392.728,404.675 392.467,404.639L387.957,403.535C386.554,403.184 385.427,402.377 384.575,401.114C383.723,399.852 383.297,397.747 383.297,394.801L383.297,389.276C383.297,386.294 383.848,384.006 384.951,382.41C386.053,380.814 387.576,380.016 389.521,380.016L397.939,380.016C398.32,380.016 398.595,380.165 398.766,380.463C398.936,380.761 399.021,381.243 399.021,381.91L399.021,388.171C399.021,388.838 398.936,389.32 398.766,389.618C398.595,389.916 398.32,390.065 397.939,390.065L390.934,390.065C390.673,390.065 390.473,390.214 390.332,390.512C390.192,390.811 390.122,391.188 390.122,391.644C390.122,392.1 390.192,392.485 390.332,392.801C390.473,393.117 390.673,393.292 390.934,393.327L395.413,394.38C396.816,394.73 397.949,395.537 398.811,396.8C399.673,398.063 400.104,400.167 400.104,403.114L400.104,408.638C400.104,411.62 399.547,413.908 398.435,415.504C397.323,417.1 395.804,417.898 393.88,417.898Z" style="fill-rule:nonzero;"/>
                    <path d="M393.077,391.94L395.547,392.52C395.549,392.521 395.552,392.522 395.555,392.522C397.171,392.926 398.469,393.887 399.462,395.342C400.53,396.907 401.139,399.463 401.139,403.114L401.139,408.638C401.139,412.268 400.432,415.031 399.078,416.974C397.806,418.799 396.08,419.773 393.88,419.773L384.379,419.773C383.657,419.773 383.157,419.365 382.834,418.8C382.499,418.215 382.262,417.312 382.262,416.004L382.262,409.848C382.262,408.541 382.499,407.638 382.834,407.053C383.157,406.487 383.657,406.079 384.379,406.079L390.621,406.079L387.818,405.393L387.816,405.392C386.196,404.987 384.903,404.023 383.919,402.565C382.865,401.002 382.262,398.448 382.262,394.801L382.262,389.276C382.262,385.648 382.963,382.887 384.305,380.945C385.565,379.12 387.297,378.141 389.521,378.141L397.939,378.141C398.661,378.141 399.162,378.549 399.485,379.114C399.819,379.699 400.056,380.602 400.056,381.91L400.056,388.171C400.056,389.479 399.819,390.382 399.485,390.967C399.162,391.532 398.661,391.94 397.939,391.94L393.077,391.94ZM393.88,417.898C395.804,417.898 397.323,417.1 398.435,415.504C399.547,413.908 400.104,411.62 400.104,408.638L400.104,403.114C400.104,400.167 399.673,398.063 398.811,396.8C397.949,395.537 396.816,394.73 395.413,394.38L390.934,393.327C390.673,393.292 390.473,393.117 390.332,392.801C390.192,392.485 390.122,392.1 390.122,391.644C390.122,391.188 390.192,390.811 390.332,390.512C390.473,390.214 390.673,390.065 390.934,390.065L397.939,390.065C398.32,390.065 398.595,389.916 398.766,389.618C398.936,389.32 399.021,388.838 399.021,388.171L399.021,381.91C399.021,381.243 398.936,380.761 398.766,380.463C398.595,380.165 398.32,380.016 397.939,380.016L389.521,380.016C387.576,380.016 386.053,380.814 384.951,382.41C383.848,384.006 383.297,386.294 383.297,389.276L383.297,394.801C383.297,397.747 383.723,399.852 384.575,401.114C385.427,402.377 386.554,403.184 387.957,403.535L392.467,404.639C392.728,404.675 392.923,404.832 393.053,405.113C393.184,405.394 393.249,405.832 393.249,406.428C393.249,406.849 393.184,407.209 393.053,407.507C392.923,407.805 392.728,407.954 392.467,407.954L384.379,407.954C383.999,407.954 383.723,408.103 383.553,408.401C383.382,408.7 383.297,409.182 383.297,409.848L383.297,416.004C383.297,416.671 383.382,417.153 383.553,417.451C383.723,417.749 383.999,417.898 384.379,417.898L393.88,417.898Z" style="fill:rgb(128,128,128);"/>
                    <path d="M411.228,391.065L409.815,399.062L414.535,399.062L413.122,391.065C413.042,390.749 412.957,390.521 412.867,390.381C412.776,390.241 412.671,390.17 412.551,390.17L411.799,390.17C411.679,390.17 411.574,390.241 411.483,390.381C411.393,390.521 411.308,390.749 411.228,391.065ZM409.514,416.004C409.514,416.671 409.429,417.153 409.259,417.451C409.088,417.749 408.813,417.898 408.432,417.898L404.012,417.898C403.631,417.898 403.356,417.749 403.185,417.451C403.015,417.153 402.93,416.671 402.93,416.004L402.93,402.114C402.93,401.062 403.025,399.852 403.215,398.484C403.406,397.116 403.702,395.52 404.102,393.696L406.718,381.752C406.838,381.156 407.024,380.717 407.274,380.437C407.525,380.156 407.851,380.016 408.251,380.016L416.339,380.016C416.72,380.016 417.036,380.156 417.286,380.437C417.537,380.717 417.722,381.156 417.842,381.752L420.458,393.696C420.859,395.52 421.155,397.116 421.345,398.484C421.535,399.852 421.631,401.062 421.631,402.114L421.631,416.004C421.631,416.671 421.545,417.153 421.375,417.451C421.205,417.749 420.929,417.898 420.548,417.898L416.008,417.898C415.607,417.898 415.312,417.749 415.121,417.451C414.931,417.153 414.836,416.671 414.836,416.004L414.836,408.638L409.514,408.638L409.514,416.004Z" style="fill-rule:nonzero;"/>
                    <path d="M410.549,416.004C410.549,417.312 410.312,418.215 409.978,418.8C409.655,419.365 409.154,419.773 408.432,419.773L404.012,419.773C403.29,419.773 402.79,419.365 402.466,418.8C402.132,418.215 401.895,417.312 401.895,416.004L401.895,402.114C401.895,400.929 401.998,399.565 402.212,398.025C402.412,396.59 402.72,394.915 403.14,393.004C403.14,393.004 405.752,381.08 405.749,381.093C405.959,380.063 406.296,379.328 406.73,378.842C407.122,378.403 407.625,378.141 408.251,378.141L416.339,378.141C416.941,378.141 417.435,378.398 417.83,378.842C418.262,379.326 418.599,380.057 418.809,381.08L421.42,393.002C421.84,394.915 422.149,396.59 422.349,398.025C422.563,399.565 422.666,400.929 422.666,402.114L422.666,416.004C422.666,417.312 422.428,418.215 422.094,418.8C421.771,419.365 421.271,419.773 420.548,419.773L416.008,419.773C415.294,419.773 414.784,419.401 414.445,418.87C414.061,418.27 413.801,417.346 413.801,416.004L413.801,410.513L410.549,410.513L410.549,416.004ZM409.514,416.004L409.514,408.638L414.836,408.638L414.836,416.004C414.836,416.671 414.931,417.153 415.121,417.451C415.312,417.749 415.607,417.898 416.008,417.898L420.548,417.898C420.929,417.898 421.205,417.749 421.375,417.451C421.545,417.153 421.631,416.671 421.631,416.004L421.631,402.114C421.631,401.062 421.535,399.852 421.345,398.484C421.155,397.116 420.859,395.52 420.458,393.696L417.842,381.752C417.722,381.156 417.537,380.717 417.286,380.437C417.036,380.156 416.72,380.016 416.339,380.016L408.251,380.016C407.851,380.016 407.525,380.156 407.274,380.437C407.024,380.717 406.838,381.156 406.718,381.752L404.102,393.696C403.702,395.52 403.406,397.116 403.215,398.484C403.025,399.852 402.93,401.062 402.93,402.114L402.93,416.004C402.93,416.671 403.015,417.153 403.185,417.451C403.356,417.749 403.631,417.898 404.012,417.898L408.432,417.898C408.813,417.898 409.088,417.749 409.259,417.451C409.429,417.153 409.514,416.671 409.514,416.004Z" style="fill:rgb(128,128,128);"/>
                    <path d="M437.611,417.898L429.793,417.898C429.413,417.898 429.097,417.776 428.846,417.53C428.596,417.285 428.4,416.829 428.26,416.162L425.314,403.272C425.133,402.5 424.983,401.825 424.863,401.246C424.742,400.667 424.642,400.115 424.562,399.588C424.482,399.062 424.427,398.51 424.397,397.931C424.367,397.352 424.352,396.642 424.352,395.8L424.352,381.91C424.352,381.243 424.437,380.761 424.607,380.463C424.778,380.165 425.053,380.016 425.434,380.016L430.214,380.016C430.595,380.016 430.886,380.165 431.086,380.463C431.287,380.761 431.387,381.243 431.387,381.91L431.387,396.432C431.387,396.782 431.407,397.133 431.447,397.484C431.487,397.835 431.547,398.203 431.627,398.589L433.041,405.955C433.101,406.306 433.171,406.542 433.251,406.665C433.331,406.788 433.451,406.849 433.612,406.849L433.943,406.849C434.103,406.849 434.223,406.788 434.303,406.665C434.383,406.542 434.454,406.306 434.514,405.955L435.927,398.536C436.007,398.15 436.067,397.782 436.107,397.431C436.147,397.081 436.167,396.73 436.167,396.379L436.167,381.91C436.167,381.243 436.253,380.761 436.423,380.463C436.593,380.165 436.869,380.016 437.25,380.016L441.97,380.016C442.351,380.016 442.626,380.165 442.797,380.463C442.967,380.761 443.052,381.243 443.052,381.91L443.052,395.8C443.052,396.642 443.037,397.352 443.007,397.931C442.977,398.51 442.922,399.062 442.842,399.588C442.762,400.115 442.662,400.667 442.541,401.246C442.421,401.825 442.271,402.5 442.09,403.272L439.144,416.162C439.004,416.829 438.808,417.285 438.558,417.53C438.307,417.776 437.991,417.898 437.611,417.898Z" style="fill-rule:nonzero;"/>
                    <path d="M433.776,404.079L434.949,397.925C434.952,397.908 434.955,397.892 434.958,397.876C435.018,397.588 435.064,397.313 435.094,397.051C435.119,396.827 435.132,396.603 435.132,396.379L435.132,381.91C435.132,380.602 435.37,379.699 435.704,379.114C436.027,378.549 436.527,378.141 437.25,378.141L441.97,378.141C442.692,378.141 443.193,378.549 443.516,379.114C443.85,379.699 444.087,380.602 444.087,381.91L444.087,395.8C444.087,396.711 444.07,397.48 444.038,398.107C444.002,398.799 443.935,399.459 443.84,400.087C443.752,400.665 443.642,401.271 443.51,401.906C443.386,402.503 443.231,403.2 443.045,403.995C443.045,403.995 440.105,416.86 440.108,416.844C439.862,418.004 439.487,418.751 439.05,419.179C438.668,419.554 438.191,419.773 437.611,419.773L429.793,419.773C429.213,419.773 428.736,419.554 428.354,419.179C427.919,418.753 427.545,418.011 427.299,416.86L424.359,403.995C424.173,403.2 424.018,402.503 423.894,401.906C423.762,401.271 423.652,400.665 423.564,400.087C423.469,399.459 423.402,398.799 423.366,398.107C423.334,397.48 423.317,396.711 423.317,395.8L423.317,381.91C423.317,380.602 423.554,379.699 423.888,379.114C424.211,378.549 424.712,378.141 425.434,378.141L430.214,378.141C430.888,378.141 431.388,378.486 431.743,379.014C432.151,379.621 432.422,380.554 432.422,381.91L432.422,396.432C432.422,396.656 432.435,396.88 432.46,397.104C432.49,397.366 432.536,397.64 432.596,397.928C432.599,397.943 432.602,397.958 432.605,397.973L433.776,404.079ZM437.611,417.898C437.991,417.898 438.307,417.776 438.558,417.53C438.808,417.285 439.004,416.829 439.144,416.162L442.09,403.272C442.271,402.5 442.421,401.825 442.541,401.246C442.662,400.667 442.762,400.115 442.842,399.588C442.922,399.062 442.977,398.51 443.007,397.931C443.037,397.352 443.052,396.642 443.052,395.8L443.052,381.91C443.052,381.243 442.967,380.761 442.797,380.463C442.626,380.165 442.351,380.016 441.97,380.016L437.25,380.016C436.869,380.016 436.593,380.165 436.423,380.463C436.253,380.761 436.167,381.243 436.167,381.91L436.167,396.379C436.167,396.73 436.147,397.081 436.107,397.431C436.067,397.782 436.007,398.15 435.927,398.536L434.514,405.955C434.454,406.306 434.383,406.542 434.303,406.665C434.223,406.788 434.103,406.849 433.943,406.849L433.612,406.849C433.451,406.849 433.331,406.788 433.251,406.665C433.171,406.542 433.101,406.306 433.041,405.955L431.627,398.589C431.547,398.203 431.487,397.835 431.447,397.484C431.407,397.133 431.387,396.782 431.387,396.432L431.387,381.91C431.387,381.243 431.287,380.761 431.086,380.463C430.886,380.165 430.595,380.016 430.214,380.016L425.434,380.016C425.053,380.016 424.778,380.165 424.607,380.463C424.437,380.761 424.352,381.243 424.352,381.91L424.352,395.8C424.352,396.642 424.367,397.352 424.397,397.931C424.427,398.51 424.482,399.062 424.562,399.588C424.642,400.115 424.742,400.667 424.863,401.246C424.983,401.825 425.133,402.5 425.314,403.272L428.26,416.162C428.4,416.829 428.596,417.285 428.846,417.53C429.097,417.776 429.413,417.898 429.793,417.898L437.611,417.898Z" style="fill:rgb(128,128,128);"/>
                    <path d="M461.783,417.898L447.833,417.898C447.452,417.898 447.176,417.749 447.006,417.451C446.836,417.153 446.75,416.671 446.75,416.004L446.75,381.91C446.75,381.243 446.836,380.761 447.006,380.463C447.176,380.165 447.452,380.016 447.833,380.016L461.783,380.016C462.164,380.016 462.44,380.165 462.61,380.463C462.78,380.761 462.866,381.243 462.866,381.91L462.866,388.066C462.866,388.732 462.78,389.215 462.61,389.513C462.44,389.811 462.164,389.96 461.783,389.96L453.485,389.96L453.485,394.011L459.348,394.011C459.729,394.011 460.004,394.16 460.175,394.459C460.345,394.757 460.43,395.239 460.43,395.905L460.43,401.535C460.43,402.202 460.345,402.684 460.175,402.982C460.004,403.28 459.729,403.429 459.348,403.429L453.485,403.429L453.485,407.954L461.783,407.954C462.164,407.954 462.44,408.103 462.61,408.401C462.78,408.7 462.866,409.182 462.866,409.848L462.866,416.004C462.866,416.671 462.78,417.153 462.61,417.451C462.44,417.749 462.164,417.898 461.783,417.898Z" style="fill-rule:nonzero;"/>
                    <path d="M461.783,419.773L447.833,419.773C447.111,419.773 446.61,419.365 446.287,418.8C445.953,418.215 445.716,417.312 445.716,416.004L445.716,381.91C445.716,380.602 445.953,379.699 446.287,379.114C446.61,378.549 447.111,378.141 447.833,378.141L461.783,378.141C462.506,378.141 463.006,378.549 463.329,379.114C463.663,379.699 463.901,380.602 463.901,381.91L463.901,388.066C463.901,389.374 463.663,390.276 463.329,390.861C463.006,391.427 462.506,391.835 461.783,391.835L454.52,391.835C454.52,391.835 454.52,392.136 454.52,392.136L459.348,392.136C460.07,392.136 460.571,392.544 460.894,393.11C461.228,393.695 461.465,394.598 461.465,395.905L461.465,401.535C461.465,402.843 461.228,403.746 460.894,404.331C460.571,404.896 460.07,405.304 459.348,405.304L454.52,405.304C454.52,405.304 454.52,406.079 454.52,406.079L461.783,406.079C462.506,406.079 463.006,406.487 463.329,407.053C463.663,407.638 463.901,408.541 463.901,409.848L463.901,416.004C463.901,417.312 463.663,418.215 463.329,418.8C463.006,419.365 462.506,419.773 461.783,419.773ZM461.783,417.898C462.164,417.898 462.44,417.749 462.61,417.451C462.78,417.153 462.866,416.671 462.866,416.004L462.866,409.848C462.866,409.182 462.78,408.7 462.61,408.401C462.44,408.103 462.164,407.954 461.783,407.954L453.485,407.954L453.485,403.429L459.348,403.429C459.729,403.429 460.004,403.28 460.175,402.982C460.345,402.684 460.43,402.202 460.43,401.535L460.43,395.905C460.43,395.239 460.345,394.757 460.175,394.459C460.004,394.16 459.729,394.011 459.348,394.011L453.485,394.011L453.485,389.96L461.783,389.96C462.164,389.96 462.44,389.811 462.61,389.513C462.78,389.215 462.866,388.732 462.866,388.066L462.866,381.91C462.866,381.243 462.78,380.761 462.61,380.463C462.44,380.165 462.164,380.016 461.783,380.016L447.833,380.016C447.452,380.016 447.176,380.165 447.006,380.463C446.836,380.761 446.75,381.243 446.75,381.91L446.75,416.004C446.75,416.671 446.836,417.153 447.006,417.451C447.176,417.749 447.452,417.898 447.833,417.898L461.783,417.898Z" style="fill:rgb(128,128,128);"/>
                    <path d="M483.22,417.898L473.719,417.898C473.338,417.898 473.063,417.749 472.893,417.451C472.722,417.153 472.637,416.671 472.637,416.004L472.637,409.848C472.637,409.182 472.722,408.7 472.893,408.401C473.063,408.103 473.338,407.954 473.719,407.954L481.807,407.954C482.068,407.954 482.263,407.805 482.393,407.507C482.524,407.209 482.589,406.849 482.589,406.428C482.589,405.832 482.524,405.394 482.393,405.113C482.263,404.832 482.068,404.675 481.807,404.639L477.297,403.535C475.894,403.184 474.767,402.377 473.915,401.114C473.063,399.852 472.637,397.747 472.637,394.801L472.637,389.276C472.637,386.294 473.188,384.006 474.291,382.41C475.393,380.814 476.916,380.016 478.861,380.016L487.279,380.016C487.66,380.016 487.935,380.165 488.106,380.463C488.276,380.761 488.361,381.243 488.361,381.91L488.361,388.171C488.361,388.838 488.276,389.32 488.106,389.618C487.935,389.916 487.66,390.065 487.279,390.065L480.274,390.065C480.013,390.065 479.813,390.214 479.672,390.512C479.532,390.811 479.462,391.188 479.462,391.644C479.462,392.1 479.532,392.485 479.672,392.801C479.813,393.117 480.013,393.292 480.274,393.327L484.753,394.38C486.156,394.73 487.289,395.537 488.151,396.8C489.013,398.063 489.444,400.167 489.444,403.114L489.444,408.638C489.444,411.62 488.887,413.908 487.775,415.504C486.663,417.1 485.144,417.898 483.22,417.898Z" style="fill-rule:nonzero;"/>
                    <path d="M482.417,391.94L484.886,392.52C484.889,392.521 484.892,392.522 484.895,392.522C486.511,392.926 487.809,393.887 488.802,395.342C489.87,396.907 490.479,399.463 490.479,403.114L490.479,408.638C490.479,412.268 489.772,415.031 488.417,416.974C487.146,418.799 485.42,419.773 483.22,419.773L473.719,419.773C472.997,419.773 472.497,419.365 472.173,418.8C471.839,418.215 471.602,417.312 471.602,416.004L471.602,409.848C471.602,408.541 471.839,407.638 472.173,407.053C472.497,406.487 472.997,406.079 473.719,406.079L479.961,406.079L477.158,405.393L477.156,405.392C475.536,404.987 474.242,404.023 473.259,402.565C472.205,401.002 471.602,398.448 471.602,394.801L471.602,389.276C471.602,385.648 472.303,382.887 473.644,380.945C474.905,379.12 476.637,378.141 478.861,378.141L487.279,378.141C488.001,378.141 488.502,378.549 488.825,379.114C489.159,379.699 489.396,380.602 489.396,381.91L489.396,388.171C489.396,389.479 489.159,390.382 488.825,390.967C488.502,391.532 488.001,391.94 487.279,391.94L482.417,391.94ZM483.22,417.898C485.144,417.898 486.663,417.1 487.775,415.504C488.887,413.908 489.444,411.62 489.444,408.638L489.444,403.114C489.444,400.167 489.013,398.063 488.151,396.8C487.289,395.537 486.156,394.73 484.753,394.38L480.274,393.327C480.013,393.292 479.813,393.117 479.672,392.801C479.532,392.485 479.462,392.1 479.462,391.644C479.462,391.188 479.532,390.811 479.672,390.512C479.813,390.214 480.013,390.065 480.274,390.065L487.279,390.065C487.66,390.065 487.935,389.916 488.106,389.618C488.276,389.32 488.361,388.838 488.361,388.171L488.361,381.91C488.361,381.243 488.276,380.761 488.106,380.463C487.935,380.165 487.66,380.016 487.279,380.016L478.861,380.016C476.916,380.016 475.393,380.814 474.291,382.41C473.188,384.006 472.637,386.294 472.637,389.276L472.637,394.801C472.637,397.747 473.063,399.852 473.915,401.114C474.767,402.377 475.894,403.184 477.297,403.535L481.807,404.639C482.068,404.675 482.263,404.832 482.393,405.113C482.524,405.394 482.589,405.832 482.589,406.428C482.589,406.849 482.524,407.209 482.393,407.507C482.263,407.805 482.068,407.954 481.807,407.954L473.719,407.954C473.338,407.954 473.063,408.103 472.893,408.401C472.722,408.7 472.637,409.182 472.637,409.848L472.637,416.004C472.637,416.671 472.722,417.153 472.893,417.451C473.063,417.749 473.338,417.898 473.719,417.898L483.22,417.898Z" style="fill:rgb(128,128,128);"/>
                    <path d="M505.266,417.898L497.449,417.898C497.068,417.898 496.752,417.776 496.502,417.53C496.251,417.285 496.056,416.829 495.915,416.162L492.969,403.272C492.788,402.5 492.638,401.825 492.518,401.246C492.398,400.667 492.297,400.115 492.217,399.588C492.137,399.062 492.082,398.51 492.052,397.931C492.022,397.352 492.007,396.642 492.007,395.8L492.007,381.91C492.007,381.243 492.092,380.761 492.262,380.463C492.433,380.165 492.708,380.016 493.089,380.016L497.87,380.016C498.25,380.016 498.541,380.165 498.741,380.463C498.942,380.761 499.042,381.243 499.042,381.91L499.042,396.432C499.042,396.782 499.062,397.133 499.102,397.484C499.142,397.835 499.202,398.203 499.283,398.589L500.696,405.955C500.756,406.306 500.826,406.542 500.906,406.665C500.986,406.788 501.107,406.849 501.267,406.849L501.598,406.849C501.758,406.849 501.878,406.788 501.958,406.665C502.039,406.542 502.109,406.306 502.169,405.955L503.582,398.536C503.662,398.15 503.722,397.782 503.762,397.431C503.802,397.081 503.822,396.73 503.822,396.379L503.822,381.91C503.822,381.243 503.908,380.761 504.078,380.463C504.248,380.165 504.524,380.016 504.905,380.016L509.625,380.016C510.006,380.016 510.282,380.165 510.452,380.463C510.622,380.761 510.708,381.243 510.708,381.91L510.708,395.8C510.708,396.642 510.692,397.352 510.662,397.931C510.632,398.51 510.577,399.062 510.497,399.588C510.417,400.115 510.317,400.667 510.196,401.246C510.076,401.825 509.926,402.5 509.745,403.272L506.799,416.162C506.659,416.829 506.463,417.285 506.213,417.53C505.962,417.776 505.646,417.898 505.266,417.898Z" style="fill-rule:nonzero;"/>
                    <path d="M501.431,404.079L502.604,397.925C502.607,397.908 502.61,397.892 502.613,397.876C502.673,397.588 502.719,397.313 502.749,397.051C502.775,396.827 502.788,396.603 502.788,396.379L502.788,381.91C502.788,380.602 503.025,379.699 503.359,379.114C503.682,378.549 504.183,378.141 504.905,378.141L509.625,378.141C510.347,378.141 510.848,378.549 511.171,379.114C511.505,379.699 511.742,380.602 511.742,381.91L511.742,395.8C511.742,396.711 511.725,397.48 511.693,398.107C511.657,398.799 511.59,399.459 511.495,400.087C511.407,400.665 511.297,401.271 511.165,401.906C511.041,402.503 510.886,403.2 510.7,403.995C510.7,403.995 507.76,416.86 507.763,416.844C507.517,418.004 507.142,418.751 506.705,419.179C506.323,419.554 505.846,419.773 505.266,419.773L497.449,419.773C496.868,419.773 496.391,419.554 496.009,419.179C495.574,418.753 495.201,418.011 494.955,416.86L492.014,403.995C491.828,403.2 491.673,402.503 491.549,401.906C491.417,401.271 491.308,400.665 491.22,400.087C491.124,399.459 491.057,398.799 491.021,398.107C490.989,397.48 490.972,396.711 490.972,395.8L490.972,381.91C490.972,380.602 491.209,379.699 491.543,379.114C491.866,378.549 492.367,378.141 493.089,378.141L497.87,378.141C498.543,378.141 499.044,378.486 499.398,379.014C499.806,379.621 500.077,380.554 500.077,381.91L500.077,396.432C500.077,396.656 500.09,396.88 500.116,397.104C500.146,397.366 500.191,397.64 500.251,397.928C500.254,397.943 500.257,397.958 500.26,397.973L501.431,404.079ZM505.266,417.898C505.646,417.898 505.962,417.776 506.213,417.53C506.463,417.285 506.659,416.829 506.799,416.162L509.745,403.272C509.926,402.5 510.076,401.825 510.196,401.246C510.317,400.667 510.417,400.115 510.497,399.588C510.577,399.062 510.632,398.51 510.662,397.931C510.692,397.352 510.708,396.642 510.708,395.8L510.708,381.91C510.708,381.243 510.622,380.761 510.452,380.463C510.282,380.165 510.006,380.016 509.625,380.016L504.905,380.016C504.524,380.016 504.248,380.165 504.078,380.463C503.908,380.761 503.822,381.243 503.822,381.91L503.822,396.379C503.822,396.73 503.802,397.081 503.762,397.431C503.722,397.782 503.662,398.15 503.582,398.536L502.169,405.955C502.109,406.306 502.039,406.542 501.958,406.665C501.878,406.788 501.758,406.849 501.598,406.849L501.267,406.849C501.107,406.849 500.986,406.788 500.906,406.665C500.826,406.542 500.756,406.306 500.696,405.955L499.283,398.589C499.202,398.203 499.142,397.835 499.102,397.484C499.062,397.133 499.042,396.782 499.042,396.432L499.042,381.91C499.042,381.243 498.942,380.761 498.741,380.463C498.541,380.165 498.25,380.016 497.87,380.016L493.089,380.016C492.708,380.016 492.433,380.165 492.262,380.463C492.092,380.761 492.007,381.243 492.007,381.91L492.007,395.8C492.007,396.642 492.022,397.352 492.052,397.931C492.082,398.51 492.137,399.062 492.217,399.588C492.297,400.115 492.398,400.667 492.518,401.246C492.638,401.825 492.788,402.5 492.969,403.272L495.915,416.162C496.056,416.829 496.251,417.285 496.502,417.53C496.752,417.776 497.068,417.898 497.449,417.898L505.266,417.898Z" style="fill:rgb(128,128,128);"/>
                    <path d="M530.942,417.898L521.471,417.898C518.966,417.898 517.106,417.022 515.894,415.268C514.681,413.514 514.075,410.813 514.075,407.165L514.075,390.749C514.075,387.101 514.681,384.4 515.894,382.647C517.106,380.893 518.966,380.016 521.471,380.016L528.987,380.016C529.368,380.016 529.644,380.165 529.814,380.463C529.985,380.761 530.07,381.243 530.07,381.91L530.07,388.276C530.07,388.943 529.985,389.425 529.814,389.723C529.644,390.021 529.368,390.17 528.987,390.17L522.734,390.17C522.112,390.17 521.651,390.39 521.351,390.828C521.05,391.267 520.9,391.924 520.9,392.801L520.9,405.376C520.9,406.253 521.015,406.902 521.246,407.323C521.476,407.744 521.822,407.954 522.283,407.954L525.199,407.954L525.199,399.746C525.199,399.08 525.284,398.598 525.455,398.299C525.625,398.001 525.901,397.852 526.282,397.852L530.942,397.852C531.323,397.852 531.598,398.001 531.768,398.299C531.939,398.598 532.024,399.08 532.024,399.746L532.024,416.004C532.024,416.671 531.939,417.153 531.768,417.451C531.598,417.749 531.323,417.898 530.942,417.898Z" style="fill-rule:nonzero;"/>
                    <path d="M530.942,419.773L521.471,419.773C518.669,419.773 516.604,418.694 515.248,416.733C513.81,414.654 513.04,411.49 513.04,407.165L513.04,390.749C513.04,386.424 513.81,383.261 515.248,381.181C516.604,379.22 518.669,378.141 521.471,378.141L528.987,378.141C529.71,378.141 530.21,378.549 530.533,379.114C530.868,379.699 531.105,380.602 531.105,381.91L531.105,388.276C531.105,389.584 530.868,390.487 530.533,391.072C530.21,391.637 529.71,392.045 528.987,392.045L522.734,392.045C522.409,392.045 522.157,392.06 522,392.289C521.926,392.397 521.935,392.585 521.935,392.801L521.935,405.376C521.935,405.647 521.909,405.872 521.98,406.002C522.045,406.12 522.154,406.079 522.283,406.079L524.164,406.079L524.164,399.746C524.164,398.439 524.401,397.536 524.736,396.951C525.059,396.385 525.559,395.977 526.282,395.977L530.942,395.977C531.664,395.977 532.164,396.385 532.487,396.951C532.822,397.536 533.059,398.439 533.059,399.746L533.059,416.004C533.059,417.312 532.822,418.215 532.487,418.8C532.164,419.365 531.664,419.773 530.942,419.773ZM530.942,417.898C531.323,417.898 531.598,417.749 531.768,417.451C531.939,417.153 532.024,416.671 532.024,416.004L532.024,399.746C532.024,399.08 531.939,398.598 531.768,398.299C531.598,398.001 531.323,397.852 530.942,397.852L526.282,397.852C525.901,397.852 525.625,398.001 525.455,398.299C525.284,398.598 525.199,399.08 525.199,399.746L525.199,407.954L522.283,407.954C521.822,407.954 521.476,407.744 521.246,407.323C521.015,406.902 520.9,406.253 520.9,405.376L520.9,392.801C520.9,391.924 521.05,391.267 521.351,390.828C521.651,390.39 522.112,390.17 522.734,390.17L528.987,390.17C529.368,390.17 529.644,390.021 529.814,389.723C529.985,389.425 530.07,388.943 530.07,388.276L530.07,381.91C530.07,381.243 529.985,380.761 529.814,380.463C529.644,380.165 529.368,380.016 528.987,380.016L521.471,380.016C518.966,380.016 517.106,380.893 515.894,382.647C514.681,384.4 514.075,387.101 514.075,390.749L514.075,407.165C514.075,410.813 514.681,413.514 515.894,415.268C517.106,417.022 518.966,417.898 521.471,417.898L530.942,417.898Z" style="fill:rgb(128,128,128);"/>
                </g>
            </g>
        </g>
    </g>
</svg>
