<?xml version="1.0" encoding="UTF-8" standalone="no"?>
<!DOCTYPE svg PUBLIC "-//W3C//DTD SVG 1.1//EN" "http://www.w3.org/Graphics/SVG/1.1/DTD/svg11.dtd">
<svg width="100%" height="100%" viewBox="0 0 282 42" version="1.1" xmlns="http://www.w3.org/2000/svg" xmlns:xlink="http://www.w3.org/1999/xlink" xml:space="preserve" xmlns:serif="http://www.serif.com/" style="fill-rule:evenodd;clip-rule:evenodd;stroke-linejoin:round;stroke-miterlimit:2;">
    <g transform="matrix(1,0,0,1,-694.115,-505.624)">
        <g>
            <path d="M713.521,544.829L696.1,544.829C695.401,544.829 694.896,544.678 694.584,544.374C694.271,544.071 694.115,543.58 694.115,542.902L694.115,536.64C694.115,535.962 694.271,535.471 694.584,535.168C694.896,534.865 695.401,534.713 696.1,534.713L710.93,534.713C711.408,534.713 711.766,534.561 712.005,534.258C712.244,533.955 712.363,533.589 712.363,533.161C712.363,532.554 712.244,532.108 712.005,531.823C711.766,531.537 711.408,531.377 710.93,531.341L702.66,530.217C700.087,529.86 698.02,529.039 696.458,527.755C694.896,526.47 694.115,524.329 694.115,521.332L694.115,515.712C694.115,512.678 695.126,510.35 697.147,508.727C699.169,507.103 701.962,506.291 705.527,506.291L720.964,506.291C721.662,506.291 722.167,506.443 722.48,506.746C722.792,507.049 722.948,507.54 722.948,508.218L722.948,514.588C722.948,515.266 722.792,515.756 722.48,516.06C722.167,516.363 721.662,516.514 720.964,516.514L708.118,516.514C707.64,516.514 707.273,516.666 707.016,516.969C706.758,517.273 706.63,517.656 706.63,518.12C706.63,518.584 706.758,518.977 707.016,519.298C707.273,519.619 707.64,519.797 708.118,519.833L716.333,520.904C718.905,521.26 720.982,522.081 722.562,523.366C724.143,524.65 724.933,526.791 724.933,529.789L724.933,535.409C724.933,538.442 723.913,540.77 721.873,542.394C719.833,544.017 717.049,544.829 713.521,544.829ZM745.331,517.531L742.74,525.667L751.396,525.667L748.805,517.531C748.658,517.21 748.501,516.978 748.336,516.836C748.171,516.693 747.978,516.622 747.757,516.622L746.379,516.622C746.158,516.622 745.965,516.693 745.8,516.836C745.635,516.978 745.478,517.21 745.331,517.531ZM742.189,542.902C742.189,543.58 742.033,544.071 741.72,544.374C741.408,544.678 740.902,544.829 740.204,544.829L732.1,544.829C731.402,544.829 730.896,544.678 730.584,544.374C730.271,544.071 730.115,543.58 730.115,542.902L730.115,528.772C730.115,527.701 730.29,526.47 730.639,525.078C730.988,523.687 731.53,522.063 732.265,520.208L737.062,508.057C737.282,507.451 737.622,507.005 738.082,506.719C738.541,506.434 739.138,506.291 739.873,506.291L754.704,506.291C755.402,506.291 755.981,506.434 756.44,506.719C756.9,507.005 757.24,507.451 757.46,508.057L762.256,520.208C762.991,522.063 763.534,523.687 763.883,525.078C764.232,526.47 764.407,527.701 764.407,528.772L764.407,542.902C764.407,543.58 764.25,544.071 763.938,544.374C763.625,544.678 763.12,544.829 762.422,544.829L754.097,544.829C753.362,544.829 752.82,544.678 752.471,544.374C752.122,544.071 751.947,543.58 751.947,542.902L751.947,535.409L742.189,535.409L742.189,542.902ZM794.138,544.829L779.804,544.829C779.106,544.829 778.527,544.704 778.067,544.455C777.608,544.205 777.25,543.741 776.992,543.063L771.59,529.949C771.259,529.164 770.983,528.477 770.763,527.889C770.542,527.3 770.358,526.738 770.211,526.203C770.064,525.667 769.963,525.105 769.908,524.516C769.853,523.928 769.825,523.205 769.825,522.349L769.825,508.218C769.825,507.54 769.982,507.049 770.294,506.746C770.606,506.443 771.112,506.291 771.81,506.291L780.576,506.291C781.274,506.291 781.807,506.443 782.175,506.746C782.542,507.049 782.726,507.54 782.726,508.218L782.726,522.991C782.726,523.348 782.763,523.705 782.836,524.062C782.91,524.418 783.02,524.793 783.167,525.186L785.758,532.679C785.868,533.036 785.997,533.277 786.144,533.402C786.291,533.527 786.512,533.589 786.806,533.589L787.412,533.589C787.706,533.589 787.927,533.527 788.074,533.402C788.221,533.277 788.349,533.036 788.46,532.679L791.051,525.132C791.198,524.739 791.308,524.365 791.381,524.008C791.455,523.651 791.492,523.294 791.492,522.937L791.492,508.218C791.492,507.54 791.648,507.049 791.96,506.746C792.273,506.443 792.778,506.291 793.476,506.291L802.132,506.291C802.83,506.291 803.336,506.443 803.648,506.746C803.96,507.049 804.117,507.54 804.117,508.218L804.117,522.349C804.117,523.205 804.089,523.928 804.034,524.516C803.979,525.105 803.878,525.667 803.731,526.203C803.584,526.738 803.4,527.3 803.179,527.889C802.959,528.477 802.683,529.164 802.352,529.949L796.95,543.063C796.692,543.741 796.334,544.205 795.875,544.455C795.415,544.704 794.836,544.829 794.138,544.829ZM838.463,544.829L812.882,544.829C812.184,544.829 811.679,544.678 811.366,544.374C811.054,544.071 810.898,543.58 810.898,542.902L810.898,508.218C810.898,507.54 811.054,507.049 811.366,506.746C811.679,506.443 812.184,506.291 812.882,506.291L838.463,506.291C839.161,506.291 839.667,506.443 839.979,506.746C840.291,507.049 840.448,507.54 840.448,508.218L840.448,514.481C840.448,515.158 840.291,515.649 839.979,515.952C839.667,516.256 839.161,516.407 838.463,516.407L823.247,516.407L823.247,520.529L833.997,520.529C834.696,520.529 835.201,520.681 835.514,520.984C835.826,521.287 835.982,521.778 835.982,522.456L835.982,528.183C835.982,528.861 835.826,529.352 835.514,529.655C835.201,529.958 834.696,530.11 833.997,530.11L823.247,530.11L823.247,534.713L838.463,534.713C839.161,534.713 839.667,534.865 839.979,535.168C840.291,535.471 840.448,535.962 840.448,536.64L840.448,542.902C840.448,543.58 840.291,544.071 839.979,544.374C839.667,544.678 839.161,544.829 838.463,544.829ZM877.771,544.829L860.35,544.829C859.652,544.829 859.146,544.678 858.834,544.374C858.521,544.071 858.365,543.58 858.365,542.902L858.365,536.64C858.365,535.962 858.521,535.471 858.834,535.168C859.146,534.865 859.652,534.713 860.35,534.713L875.18,534.713C875.658,534.713 876.016,534.561 876.255,534.258C876.494,533.955 876.613,533.589 876.613,533.161C876.613,532.554 876.494,532.108 876.255,531.823C876.016,531.537 875.658,531.377 875.18,531.341L866.91,530.217C864.338,529.86 862.27,529.039 860.708,527.755C859.146,526.47 858.365,524.329 858.365,521.332L858.365,515.712C858.365,512.678 859.376,510.35 861.397,508.727C863.419,507.103 866.212,506.291 869.777,506.291L885.214,506.291C885.912,506.291 886.417,506.443 886.73,506.746C887.042,507.049 887.198,507.54 887.198,508.218L887.198,514.588C887.198,515.266 887.042,515.756 886.73,516.06C886.417,516.363 885.912,516.514 885.214,516.514L872.368,516.514C871.891,516.514 871.523,516.666 871.266,516.969C871.008,517.273 870.88,517.656 870.88,518.12C870.88,518.584 871.008,518.977 871.266,519.298C871.523,519.619 871.891,519.797 872.368,519.833L880.583,520.904C883.156,521.26 885.232,522.081 886.813,523.366C888.393,524.65 889.183,526.791 889.183,529.789L889.183,535.409C889.183,538.442 888.163,540.77 886.123,542.394C884.084,544.017 881.299,544.829 877.771,544.829ZM918.41,544.829L904.076,544.829C903.378,544.829 902.799,544.704 902.34,544.455C901.88,544.205 901.522,543.741 901.265,543.063L895.862,529.949C895.531,529.164 895.256,528.477 895.035,527.889C894.815,527.3 894.631,526.738 894.484,526.203C894.337,525.667 894.236,525.105 894.181,524.516C894.125,523.928 894.098,523.205 894.098,522.349L894.098,508.218C894.098,507.54 894.254,507.049 894.566,506.746C894.879,506.443 895.384,506.291 896.083,506.291L904.848,506.291C905.547,506.291 906.08,506.443 906.447,506.746C906.815,507.049 906.998,507.54 906.998,508.218L906.998,522.991C906.998,523.348 907.035,523.705 907.109,524.062C907.182,524.418 907.292,524.793 907.439,525.186L910.031,532.679C910.141,533.036 910.269,533.277 910.416,533.402C910.564,533.527 910.784,533.589 911.078,533.589L911.684,533.589C911.979,533.589 912.199,533.527 912.346,533.402C912.493,533.277 912.622,533.036 912.732,532.679L915.323,525.132C915.47,524.739 915.58,524.365 915.654,524.008C915.727,523.651 915.764,523.294 915.764,522.937L915.764,508.218C915.764,507.54 915.92,507.049 916.233,506.746C916.545,506.443 917.051,506.291 917.749,506.291L926.404,506.291C927.103,506.291 927.608,506.443 927.92,506.746C928.233,507.049 928.389,507.54 928.389,508.218L928.389,522.349C928.389,523.205 928.362,523.928 928.306,524.516C928.251,525.105 928.15,525.667 928.003,526.203C927.856,526.738 927.672,527.3 927.452,527.889C927.231,528.477 926.956,529.164 926.625,529.949L921.222,543.063C920.965,543.741 920.606,544.205 920.147,544.455C919.688,544.704 919.109,544.829 918.41,544.829ZM965.492,544.829L948.126,544.829C943.532,544.829 940.123,543.937 937.899,542.153C935.676,540.369 934.564,537.621 934.564,533.91L934.564,517.21C934.564,513.499 935.676,510.752 937.899,508.967C940.123,507.183 943.532,506.291 948.126,506.291L961.908,506.291C962.607,506.291 963.112,506.443 963.425,506.746C963.737,507.049 963.893,507.54 963.893,508.218L963.893,514.695C963.893,515.373 963.737,515.863 963.425,516.167C963.112,516.47 962.607,516.622 961.908,516.622L950.441,516.622C949.302,516.622 948.457,516.845 947.905,517.291C947.354,517.737 947.078,518.406 947.078,519.298L947.078,532.09C947.078,532.982 947.29,533.643 947.712,534.071C948.135,534.499 948.769,534.713 949.614,534.713L954.962,534.713L954.962,526.363C954.962,525.685 955.118,525.194 955.431,524.891C955.743,524.588 956.248,524.436 956.947,524.436L965.492,524.436C966.19,524.436 966.696,524.588 967.008,524.891C967.32,525.194 967.477,525.685 967.477,526.363L967.477,542.902C967.477,543.58 967.32,544.071 967.008,544.374C966.696,544.678 966.19,544.829 965.492,544.829Z" style="fill:rgb(255,0,0);fill-rule:nonzero;"/>
            <path d="M719.521,545.829L702.1,545.829C701.401,545.829 700.896,545.678 700.584,545.374C700.271,545.071 700.115,544.58 700.115,543.902L700.115,537.64C700.115,536.962 700.271,536.471 700.584,536.168C700.896,535.865 701.401,535.713 702.1,535.713L716.93,535.713C717.408,535.713 717.766,535.561 718.005,535.258C718.244,534.955 718.363,534.589 718.363,534.161C718.363,533.554 718.244,533.108 718.005,532.823C717.766,532.537 717.408,532.377 716.93,532.341L708.66,531.217C706.087,530.86 704.02,530.039 702.458,528.755C700.896,527.47 700.115,525.329 700.115,522.332L700.115,516.712C700.115,513.678 701.126,511.35 703.147,509.727C705.169,508.103 707.962,507.291 711.527,507.291L726.964,507.291C727.662,507.291 728.167,507.443 728.48,507.746C728.792,508.049 728.948,508.54 728.948,509.218L728.948,515.588C728.948,516.266 728.792,516.756 728.48,517.06C728.167,517.363 727.662,517.514 726.964,517.514L714.118,517.514C713.64,517.514 713.273,517.666 713.016,517.969C712.758,518.273 712.63,518.656 712.63,519.12C712.63,519.584 712.758,519.977 713.016,520.298C713.273,520.619 713.64,520.797 714.118,520.833L722.333,521.904C724.905,522.26 726.982,523.081 728.562,524.366C730.143,525.65 730.933,527.791 730.933,530.789L730.933,536.409C730.933,539.442 729.913,541.77 727.873,543.394C725.833,545.017 723.049,545.829 719.521,545.829Z" style="fill:white;fill-rule:nonzero;"/>
            <path d="M714.334,519.181L722.548,520.251C722.553,520.251 722.557,520.252 722.562,520.253C725.479,520.657 727.822,521.616 729.614,523.072C731.524,524.625 732.6,527.166 732.6,530.789L732.6,536.409C732.6,540.017 731.338,542.766 728.911,544.698C726.614,546.526 723.495,547.496 719.521,547.496L702.1,547.496C700.85,547.496 699.982,547.113 699.423,546.57C698.848,546.012 698.448,545.149 698.448,543.902L698.448,537.64C698.448,536.393 698.848,535.53 699.423,534.972C699.982,534.429 700.85,534.046 702.1,534.046L716.691,534.046C716.69,534.027 716.688,534.008 716.686,533.99L708.436,532.868L708.431,532.868C705.509,532.463 703.173,531.501 701.399,530.042C699.513,528.491 698.448,525.951 698.448,522.332L698.448,516.712C698.448,513.105 699.7,510.358 702.103,508.427C704.381,506.598 707.511,505.624 711.527,505.624L726.964,505.624C728.213,505.624 729.082,506.008 729.641,506.55C730.215,507.108 730.615,507.972 730.615,509.218L730.615,515.588C730.615,516.834 730.215,517.698 729.641,518.255C729.082,518.798 728.213,519.181 726.964,519.181L714.334,519.181ZM719.521,545.829C723.049,545.829 725.833,545.017 727.873,543.394C729.913,541.77 730.933,539.442 730.933,536.409L730.933,530.789C730.933,527.791 730.143,525.65 728.562,524.366C726.982,523.081 724.905,522.26 722.333,521.904L714.118,520.833C713.64,520.797 713.273,520.619 713.016,520.298C712.758,519.977 712.63,519.584 712.63,519.12C712.63,518.656 712.758,518.273 713.016,517.969C713.273,517.666 713.64,517.514 714.118,517.514L726.964,517.514C727.662,517.514 728.167,517.363 728.48,517.06C728.792,516.756 728.948,516.266 728.948,515.588L728.948,509.218C728.948,508.54 728.792,508.049 728.48,507.746C728.167,507.443 727.662,507.291 726.964,507.291L711.527,507.291C707.962,507.291 705.169,508.103 703.147,509.727C701.126,511.35 700.115,513.678 700.115,516.712L700.115,522.332C700.115,525.329 700.896,527.47 702.458,528.755C704.02,530.039 706.087,530.86 708.66,531.217L716.93,532.341C717.408,532.377 717.766,532.537 718.005,532.823C718.244,533.108 718.363,533.554 718.363,534.161C718.363,534.589 718.244,534.955 718.005,535.258C717.766,535.561 717.408,535.713 716.93,535.713L702.1,535.713C701.401,535.713 700.896,535.865 700.584,536.168C700.271,536.471 700.115,536.962 700.115,537.64L700.115,543.902C700.115,544.58 700.271,545.071 700.584,545.374C700.896,545.678 701.401,545.829 702.1,545.829L719.521,545.829Z"/>
            <path d="M748.189,543.902C748.189,544.58 748.033,545.071 747.72,545.374C747.408,545.678 746.902,545.829 746.204,545.829L738.1,545.829C737.402,545.829 736.896,545.678 736.584,545.374C736.271,545.071 736.115,544.58 736.115,543.902L736.115,529.772C736.115,528.701 736.29,527.47 736.639,526.078C736.988,524.687 737.53,523.063 738.265,521.208L743.062,509.057C743.282,508.451 743.622,508.005 744.082,507.719C744.541,507.434 745.138,507.291 745.873,507.291L760.704,507.291C761.402,507.291 761.981,507.434 762.44,507.719C762.9,508.005 763.24,508.451 763.46,509.057L768.256,521.208C768.991,523.063 769.534,524.687 769.883,526.078C770.232,527.47 770.407,528.701 770.407,529.772L770.407,543.902C770.407,544.58 770.25,545.071 769.938,545.374C769.625,545.678 769.12,545.829 768.422,545.829L760.097,545.829C759.362,545.829 758.82,545.678 758.471,545.374C758.122,545.071 757.947,544.58 757.947,543.902L757.947,536.409L748.189,536.409L748.189,543.902Z" style="fill:white;fill-rule:nonzero;"/>
            <path d="M749.856,543.902C749.856,545.149 749.456,546.012 748.881,546.57C748.322,547.113 747.454,547.496 746.204,547.496L738.1,547.496C736.85,547.496 735.982,547.113 735.423,546.57C734.849,546.012 734.449,545.149 734.449,543.902L734.449,529.772C734.449,528.584 734.635,527.217 735.022,525.673C735.386,524.222 735.949,522.528 736.715,520.596C736.715,520.596 741.505,508.462 741.5,508.476C741.863,507.483 742.448,506.772 743.202,506.304C743.889,505.877 744.774,505.624 745.873,505.624L760.704,505.624C761.759,505.624 762.625,505.872 763.32,506.304C764.07,506.77 764.653,507.476 765.017,508.462L769.806,520.594C770.572,522.528 771.135,524.222 771.499,525.673C771.887,527.217 772.073,528.584 772.073,529.772L772.073,543.902C772.073,545.149 771.673,546.012 771.099,546.57C770.54,547.113 769.671,547.496 768.422,547.496L760.097,547.496C758.855,547.496 757.968,547.145 757.378,546.633C756.72,546.061 756.28,545.179 756.28,543.902L756.28,538.076L749.856,538.076L749.856,543.902ZM748.189,543.902L748.189,536.409L757.947,536.409L757.947,543.902C757.947,544.58 758.122,545.071 758.471,545.374C758.82,545.678 759.362,545.829 760.097,545.829L768.422,545.829C769.12,545.829 769.625,545.678 769.938,545.374C770.25,545.071 770.407,544.58 770.407,543.902L770.407,529.772C770.407,528.701 770.232,527.47 769.883,526.078C769.534,524.687 768.991,523.063 768.256,521.208L763.46,509.057C763.24,508.451 762.9,508.005 762.44,507.719C761.981,507.434 761.402,507.291 760.704,507.291L745.873,507.291C745.138,507.291 744.541,507.434 744.082,507.719C743.622,508.005 743.282,508.451 743.062,509.057L738.265,521.208C737.53,523.063 736.988,524.687 736.639,526.078C736.29,527.47 736.115,528.701 736.115,529.772L736.115,543.902C736.115,544.58 736.271,545.071 736.584,545.374C736.896,545.678 737.402,545.829 738.1,545.829L746.204,545.829C746.902,545.829 747.408,545.678 747.72,545.374C748.033,545.071 748.189,544.58 748.189,543.902Z"/>
            <path d="M751.331,518.531L748.74,526.667L757.396,526.667L754.805,518.531C754.658,518.21 754.501,517.978 754.336,517.836C754.171,517.693 753.978,517.622 753.757,517.622L752.379,517.622C752.158,517.622 751.965,517.693 751.8,517.836C751.635,517.978 751.478,518.21 751.331,518.531Z" style="fill:rgb(255,0,0);fill-rule:nonzero;"/>
            <path d="M751.331,518.531C751.478,518.21 751.635,517.978 751.8,517.836C751.965,517.693 752.158,517.622 752.379,517.622L753.757,517.622C753.978,517.622 754.171,517.693 754.336,517.836C754.501,517.978 754.658,518.21 754.805,518.531L757.396,526.667L748.74,526.667L751.331,518.531ZM753.296,519.288L752.839,519.288L751.02,525.001L755.116,525.001C755.116,525.001 753.576,520.167 753.296,519.288Z"/>
            <path d="M800.138,545.829L785.804,545.829C785.106,545.829 784.527,545.704 784.067,545.455C783.608,545.205 783.25,544.741 782.992,544.063L777.59,530.949C777.259,530.164 776.983,529.477 776.763,528.889C776.542,528.3 776.358,527.738 776.211,527.203C776.064,526.667 775.963,526.105 775.908,525.516C775.853,524.928 775.825,524.205 775.825,523.349L775.825,509.218C775.825,508.54 775.982,508.049 776.294,507.746C776.606,507.443 777.112,507.291 777.81,507.291L786.576,507.291C787.274,507.291 787.807,507.443 788.175,507.746C788.542,508.049 788.726,508.54 788.726,509.218L788.726,523.991C788.726,524.348 788.763,524.705 788.836,525.062C788.91,525.418 789.02,525.793 789.167,526.186L791.758,533.679C791.868,534.036 791.997,534.277 792.144,534.402C792.291,534.527 792.512,534.589 792.806,534.589L793.412,534.589C793.706,534.589 793.927,534.527 794.074,534.402C794.221,534.277 794.349,534.036 794.46,533.679L797.051,526.132C797.198,525.739 797.308,525.365 797.381,525.008C797.455,524.651 797.492,524.294 797.492,523.937L797.492,509.218C797.492,508.54 797.648,508.049 797.96,507.746C798.273,507.443 798.778,507.291 799.476,507.291L808.132,507.291C808.83,507.291 809.336,507.443 809.648,507.746C809.96,508.049 810.117,508.54 810.117,509.218L810.117,523.349C810.117,524.205 810.089,524.928 810.034,525.516C809.979,526.105 809.878,526.667 809.731,527.203C809.584,527.738 809.4,528.3 809.179,528.889C808.959,529.477 808.683,530.164 808.352,530.949L802.95,544.063C802.692,544.741 802.334,545.205 801.875,545.455C801.415,545.704 800.836,545.829 800.138,545.829Z" style="fill:white;fill-rule:nonzero;"/>
            <path d="M793.108,532.483L795.474,525.591C795.479,525.576 795.484,525.562 795.49,525.547C795.604,525.241 795.692,524.95 795.749,524.672C795.799,524.427 795.825,524.182 795.825,523.937L795.825,509.218C795.825,507.972 796.225,507.108 796.799,506.55C797.358,506.008 798.227,505.624 799.476,505.624L808.132,505.624C809.382,505.624 810.25,506.008 810.809,506.55C811.383,507.108 811.783,507.972 811.783,509.218L811.783,523.349C811.783,524.267 811.752,525.041 811.693,525.672C811.629,526.361 811.51,527.018 811.338,527.644C811.178,528.225 810.979,528.834 810.74,529.473C810.514,530.078 810.231,530.784 809.891,531.589C809.891,531.589 804.498,544.68 804.504,544.664C804.078,545.783 803.43,546.506 802.671,546.919C801.999,547.284 801.159,547.496 800.138,547.496L785.804,547.496C784.783,547.496 783.943,547.284 783.271,546.919C782.515,546.508 781.871,545.79 781.444,544.68L776.051,531.589C775.711,530.784 775.428,530.078 775.202,529.473C774.963,528.834 774.764,528.225 774.604,527.644C774.432,527.018 774.313,526.361 774.249,525.672C774.19,525.041 774.159,524.267 774.159,523.349L774.159,509.218C774.159,507.972 774.559,507.108 775.133,506.55C775.692,506.008 776.56,505.624 777.81,505.624L786.576,505.624C787.747,505.624 788.619,505.952 789.235,506.461C789.935,507.038 790.393,507.928 790.393,509.218L790.393,523.991C790.393,524.236 790.418,524.48 790.469,524.725C790.526,525.003 790.613,525.295 790.728,525.601C790.733,525.614 790.738,525.628 790.742,525.641L793.108,532.483ZM800.138,545.829C800.836,545.829 801.415,545.704 801.875,545.455C802.334,545.205 802.692,544.741 802.95,544.063L808.352,530.949C808.683,530.164 808.959,529.477 809.179,528.889C809.4,528.3 809.584,527.738 809.731,527.203C809.878,526.667 809.979,526.105 810.034,525.516C810.089,524.928 810.117,524.205 810.117,523.349L810.117,509.218C810.117,508.54 809.96,508.049 809.648,507.746C809.336,507.443 808.83,507.291 808.132,507.291L799.476,507.291C798.778,507.291 798.273,507.443 797.96,507.746C797.648,508.049 797.492,508.54 797.492,509.218L797.492,523.937C797.492,524.294 797.455,524.651 797.381,525.008C797.308,525.365 797.198,525.739 797.051,526.132L794.46,533.679C794.349,534.036 794.221,534.277 794.074,534.402C793.927,534.527 793.706,534.589 793.412,534.589L792.806,534.589C792.512,534.589 792.291,534.527 792.144,534.402C791.997,534.277 791.868,534.036 791.758,533.679L789.167,526.186C789.02,525.793 788.91,525.418 788.836,525.062C788.763,524.705 788.726,524.348 788.726,523.991L788.726,509.218C788.726,508.54 788.542,508.049 788.175,507.746C787.807,507.443 787.274,507.291 786.576,507.291L777.81,507.291C777.112,507.291 776.606,507.443 776.294,507.746C775.982,508.049 775.825,508.54 775.825,509.218L775.825,523.349C775.825,524.205 775.853,524.928 775.908,525.516C775.963,526.105 776.064,526.667 776.211,527.203C776.358,527.738 776.542,528.3 776.763,528.889C776.983,529.477 777.259,530.164 777.59,530.949L782.992,544.063C783.25,544.741 783.608,545.205 784.067,545.455C784.527,545.704 785.106,545.829 785.804,545.829L800.138,545.829Z"/>
            <path d="M844.463,545.829L818.882,545.829C818.184,545.829 817.679,545.678 817.366,545.374C817.054,545.071 816.898,544.58 816.898,543.902L816.898,509.218C816.898,508.54 817.054,508.049 817.366,507.746C817.679,507.443 818.184,507.291 818.882,507.291L844.463,507.291C845.161,507.291 845.667,507.443 845.979,507.746C846.291,508.049 846.448,508.54 846.448,509.218L846.448,515.481C846.448,516.158 846.291,516.649 845.979,516.952C845.667,517.256 845.161,517.407 844.463,517.407L829.247,517.407L829.247,521.529L839.997,521.529C840.696,521.529 841.201,521.681 841.514,521.984C841.826,522.287 841.982,522.778 841.982,523.456L841.982,529.183C841.982,529.861 841.826,530.352 841.514,530.655C841.201,530.958 840.696,531.11 839.997,531.11L829.247,531.11L829.247,535.713L844.463,535.713C845.161,535.713 845.667,535.865 845.979,536.168C846.291,536.471 846.448,536.962 846.448,537.64L846.448,543.902C846.448,544.58 846.291,545.071 845.979,545.374C845.667,545.678 845.161,545.829 844.463,545.829Z" style="fill:white;fill-rule:nonzero;"/>
            <path d="M844.463,547.496L818.882,547.496C817.633,547.496 816.764,547.113 816.205,546.57C815.631,546.012 815.231,545.149 815.231,543.902L815.231,509.218C815.231,507.972 815.631,507.108 816.205,506.55C816.764,506.008 817.633,505.624 818.882,505.624L844.463,505.624C845.713,505.624 846.581,506.008 847.14,506.55C847.714,507.108 848.114,507.972 848.114,509.218L848.114,515.481C848.114,516.727 847.714,517.591 847.14,518.148C846.581,518.691 845.713,519.074 844.463,519.074L830.914,519.074C830.914,519.074 830.914,519.862 830.914,519.862L839.997,519.862C841.247,519.862 842.115,520.245 842.674,520.788C843.249,521.346 843.649,522.209 843.649,523.456L843.649,529.183C843.649,530.429 843.249,531.293 842.674,531.851C842.115,532.393 841.247,532.777 839.997,532.777C839.997,532.777 830.914,532.777 830.914,532.777L830.914,534.046L844.463,534.046C845.713,534.046 846.581,534.429 847.14,534.972C847.714,535.53 848.114,536.393 848.114,537.64L848.114,543.902C848.114,545.149 847.714,546.012 847.14,546.57C846.581,547.113 845.713,547.496 844.463,547.496ZM844.463,545.829C845.161,545.829 845.667,545.678 845.979,545.374C846.291,545.071 846.448,544.58 846.448,543.902L846.448,537.64C846.448,536.962 846.291,536.471 845.979,536.168C845.667,535.865 845.161,535.713 844.463,535.713L829.247,535.713L829.247,531.11L839.997,531.11C840.696,531.11 841.201,530.958 841.514,530.655C841.826,530.352 841.982,529.861 841.982,529.183L841.982,523.456C841.982,522.778 841.826,522.287 841.514,521.984C841.201,521.681 840.696,521.529 839.997,521.529L829.247,521.529L829.247,517.407L844.463,517.407C845.161,517.407 845.667,517.256 845.979,516.952C846.291,516.649 846.448,516.158 846.448,515.481L846.448,509.218C846.448,508.54 846.291,508.049 845.979,507.746C845.667,507.443 845.161,507.291 844.463,507.291L818.882,507.291C818.184,507.291 817.679,507.443 817.366,507.746C817.054,508.049 816.898,508.54 816.898,509.218L816.898,543.902C816.898,544.58 817.054,545.071 817.366,545.374C817.679,545.678 818.184,545.829 818.882,545.829L844.463,545.829Z"/>
            <path d="M883.771,545.829L866.35,545.829C865.652,545.829 865.146,545.678 864.834,545.374C864.521,545.071 864.365,544.58 864.365,543.902L864.365,537.64C864.365,536.962 864.521,536.471 864.834,536.168C865.146,535.865 865.652,535.713 866.35,535.713L881.18,535.713C881.658,535.713 882.016,535.561 882.255,535.258C882.494,534.955 882.613,534.589 882.613,534.161C882.613,533.554 882.494,533.108 882.255,532.823C882.016,532.537 881.658,532.377 881.18,532.341L872.91,531.217C870.338,530.86 868.27,530.039 866.708,528.755C865.146,527.47 864.365,525.329 864.365,522.332L864.365,516.712C864.365,513.678 865.376,511.35 867.397,509.727C869.419,508.103 872.212,507.291 875.777,507.291L891.214,507.291C891.912,507.291 892.417,507.443 892.73,507.746C893.042,508.049 893.198,508.54 893.198,509.218L893.198,515.588C893.198,516.266 893.042,516.756 892.73,517.06C892.417,517.363 891.912,517.514 891.214,517.514L878.368,517.514C877.891,517.514 877.523,517.666 877.266,517.969C877.008,518.273 876.88,518.656 876.88,519.12C876.88,519.584 877.008,519.977 877.266,520.298C877.523,520.619 877.891,520.797 878.368,520.833L886.583,521.904C889.156,522.26 891.232,523.081 892.813,524.366C894.393,525.65 895.183,527.791 895.183,530.789L895.183,536.409C895.183,539.442 894.163,541.77 892.123,543.394C890.084,545.017 887.299,545.829 883.771,545.829Z" style="fill:white;fill-rule:nonzero;"/>
            <path d="M878.584,519.181L886.798,520.251C886.803,520.251 886.807,520.252 886.812,520.253C889.729,520.657 892.072,521.616 893.864,523.072C895.774,524.625 896.85,527.166 896.85,530.789L896.85,536.409C896.85,540.017 895.588,542.766 893.161,544.698C890.864,546.526 887.745,547.496 883.771,547.496L866.35,547.496C865.1,547.496 864.232,547.113 863.673,546.57C863.098,546.012 862.698,545.149 862.698,543.902L862.698,537.64C862.698,536.393 863.098,535.53 863.673,534.972C864.232,534.429 865.1,534.046 866.35,534.046L880.941,534.046C880.94,534.027 880.938,534.008 880.936,533.99L872.686,532.868L872.681,532.868C869.76,532.463 867.424,531.501 865.65,530.042C863.763,528.491 862.698,525.951 862.698,522.332L862.698,516.712C862.698,513.105 863.95,510.358 866.354,508.427C868.631,506.598 871.761,505.624 875.777,505.624L891.214,505.624C892.463,505.624 893.332,506.008 893.891,506.55C894.465,507.108 894.865,507.972 894.865,509.218L894.865,515.588C894.865,516.834 894.465,517.698 893.891,518.255C893.332,518.798 892.463,519.181 891.214,519.181L878.584,519.181ZM883.771,545.829C887.299,545.829 890.084,545.017 892.123,543.394C894.163,541.77 895.183,539.442 895.183,536.409L895.183,530.789C895.183,527.791 894.393,525.65 892.813,524.366C891.232,523.081 889.156,522.26 886.583,521.904L878.368,520.833C877.891,520.797 877.523,520.619 877.266,520.298C877.008,519.977 876.88,519.584 876.88,519.12C876.88,518.656 877.008,518.273 877.266,517.969C877.523,517.666 877.891,517.514 878.368,517.514L891.214,517.514C891.912,517.514 892.417,517.363 892.73,517.06C893.042,516.756 893.198,516.266 893.198,515.588L893.198,509.218C893.198,508.54 893.042,508.049 892.73,507.746C892.417,507.443 891.912,507.291 891.214,507.291L875.777,507.291C872.212,507.291 869.419,508.103 867.397,509.727C865.376,511.35 864.365,513.678 864.365,516.712L864.365,522.332C864.365,525.329 865.146,527.47 866.708,528.755C868.27,530.039 870.338,530.86 872.91,531.217L881.18,532.341C881.658,532.377 882.016,532.537 882.255,532.823C882.494,533.108 882.613,533.554 882.613,534.161C882.613,534.589 882.494,534.955 882.255,535.258C882.016,535.561 881.658,535.713 881.18,535.713L866.35,535.713C865.652,535.713 865.146,535.865 864.834,536.168C864.521,536.471 864.365,536.962 864.365,537.64L864.365,543.902C864.365,544.58 864.521,545.071 864.834,545.374C865.146,545.678 865.652,545.829 866.35,545.829L883.771,545.829Z"/>
            <path d="M924.41,545.829L910.076,545.829C909.378,545.829 908.799,545.704 908.34,545.455C907.88,545.205 907.522,544.741 907.265,544.063L901.862,530.949C901.531,530.164 901.256,529.477 901.035,528.889C900.815,528.3 900.631,527.738 900.484,527.203C900.337,526.667 900.236,526.105 900.181,525.516C900.125,524.928 900.098,524.205 900.098,523.349L900.098,509.218C900.098,508.54 900.254,508.049 900.566,507.746C900.879,507.443 901.384,507.291 902.083,507.291L910.848,507.291C911.547,507.291 912.08,507.443 912.447,507.746C912.815,508.049 912.998,508.54 912.998,509.218L912.998,523.991C912.998,524.348 913.035,524.705 913.109,525.062C913.182,525.418 913.292,525.793 913.439,526.186L916.031,533.679C916.141,534.036 916.269,534.277 916.416,534.402C916.564,534.527 916.784,534.589 917.078,534.589L917.684,534.589C917.979,534.589 918.199,534.527 918.346,534.402C918.493,534.277 918.622,534.036 918.732,533.679L921.323,526.132C921.47,525.739 921.58,525.365 921.654,525.008C921.727,524.651 921.764,524.294 921.764,523.937L921.764,509.218C921.764,508.54 921.92,508.049 922.233,507.746C922.545,507.443 923.051,507.291 923.749,507.291L932.404,507.291C933.103,507.291 933.608,507.443 933.92,507.746C934.233,508.049 934.389,508.54 934.389,509.218L934.389,523.349C934.389,524.205 934.362,524.928 934.306,525.516C934.251,526.105 934.15,526.667 934.003,527.203C933.856,527.738 933.672,528.3 933.452,528.889C933.231,529.477 932.956,530.164 932.625,530.949L927.222,544.063C926.965,544.741 926.606,545.205 926.147,545.455C925.688,545.704 925.109,545.829 924.41,545.829Z" style="fill:white;fill-rule:nonzero;"/>
            <path d="M917.38,532.483L919.747,525.591C919.752,525.576 919.757,525.562 919.762,525.547C919.877,525.241 919.964,524.95 920.022,524.672C920.072,524.427 920.097,524.182 920.097,523.937L920.097,509.218C920.097,507.972 920.497,507.108 921.072,506.55C921.631,506.008 922.499,505.624 923.749,505.624L932.404,505.624C933.654,505.624 934.522,506.008 935.081,506.55C935.656,507.108 936.056,507.972 936.056,509.218L936.056,523.349C936.056,524.267 936.025,525.041 935.966,525.672C935.901,526.361 935.782,527.018 935.61,527.644C935.451,528.225 935.252,528.834 935.013,529.473C934.786,530.078 934.503,530.784 934.164,531.589C934.164,531.589 928.77,544.68 928.777,544.664C928.35,545.783 927.703,546.506 926.943,546.919C926.271,547.284 925.431,547.496 924.41,547.496L910.076,547.496C909.055,547.496 908.216,547.284 907.544,546.919C906.788,546.508 906.143,545.79 905.717,544.68L900.323,531.589C899.984,530.784 899.701,530.078 899.474,529.473C899.235,528.834 899.036,528.225 898.877,527.644C898.705,527.018 898.586,526.361 898.521,525.672C898.462,525.041 898.431,524.267 898.431,523.349L898.431,509.218C898.431,507.972 898.831,507.108 899.405,506.55C899.965,506.008 900.833,505.624 902.083,505.624L910.848,505.624C912.02,505.624 912.891,505.952 913.508,506.461C914.207,507.038 914.665,507.928 914.665,509.218L914.665,523.991C914.665,524.236 914.691,524.48 914.741,524.725C914.798,525.003 914.886,525.295 915,525.601C915.005,525.614 915.01,525.628 915.015,525.641L917.38,532.483ZM924.41,545.829C925.109,545.829 925.688,545.704 926.147,545.455C926.606,545.205 926.965,544.741 927.222,544.063L932.625,530.949C932.956,530.164 933.231,529.477 933.452,528.889C933.672,528.3 933.856,527.738 934.003,527.203C934.15,526.667 934.251,526.105 934.306,525.516C934.362,524.928 934.389,524.205 934.389,523.349L934.389,509.218C934.389,508.54 934.233,508.049 933.92,507.746C933.608,507.443 933.103,507.291 932.404,507.291L923.749,507.291C923.051,507.291 922.545,507.443 922.233,507.746C921.92,508.049 921.764,508.54 921.764,509.218L921.764,523.937C921.764,524.294 921.727,524.651 921.654,525.008C921.58,525.365 921.47,525.739 921.323,526.132L918.732,533.679C918.622,534.036 918.493,534.277 918.346,534.402C918.199,534.527 917.979,534.589 917.684,534.589L917.078,534.589C916.784,534.589 916.564,534.527 916.416,534.402C916.269,534.277 916.141,534.036 916.031,533.679L913.439,526.186C913.292,525.793 913.182,525.418 913.109,525.062C913.035,524.705 912.998,524.348 912.998,523.991L912.998,509.218C912.998,508.54 912.815,508.049 912.447,507.746C912.08,507.443 911.547,507.291 910.848,507.291L902.083,507.291C901.384,507.291 900.879,507.443 900.566,507.746C900.254,508.049 900.098,508.54 900.098,509.218L900.098,523.349C900.098,524.205 900.125,524.928 900.181,525.516C900.236,526.105 900.337,526.667 900.484,527.203C900.631,527.738 900.815,528.3 901.035,528.889C901.256,529.477 901.531,530.164 901.862,530.949L907.265,544.063C907.522,544.741 907.88,545.205 908.34,545.455C908.799,545.704 909.378,545.829 910.076,545.829L924.41,545.829Z"/>
            <path d="M971.492,545.829L954.126,545.829C949.532,545.829 946.123,544.937 943.899,543.153C941.676,541.369 940.564,538.621 940.564,534.91L940.564,518.21C940.564,514.499 941.676,511.752 943.899,509.967C946.123,508.183 949.532,507.291 954.126,507.291L967.908,507.291C968.607,507.291 969.112,507.443 969.425,507.746C969.737,508.049 969.893,508.54 969.893,509.218L969.893,515.695C969.893,516.373 969.737,516.863 969.425,517.167C969.112,517.47 968.607,517.622 967.908,517.622L956.441,517.622C955.302,517.622 954.457,517.845 953.905,518.291C953.354,518.737 953.078,519.406 953.078,520.298L953.078,533.09C953.078,533.982 953.29,534.643 953.712,535.071C954.135,535.499 954.769,535.713 955.614,535.713L960.962,535.713L960.962,527.363C960.962,526.685 961.118,526.194 961.431,525.891C961.743,525.588 962.248,525.436 962.947,525.436L971.492,525.436C972.19,525.436 972.696,525.588 973.008,525.891C973.32,526.194 973.477,526.685 973.477,527.363L973.477,543.902C973.477,544.58 973.32,545.071 973.008,545.374C972.696,545.678 972.19,545.829 971.492,545.829Z" style="fill:white;fill-rule:nonzero;"/>
            <path d="M971.492,547.496L954.126,547.496C949.053,547.496 945.312,546.423 942.856,544.453C940.273,542.38 938.897,539.222 938.897,534.91L938.897,518.21C938.897,513.899 940.273,510.74 942.856,508.667C945.312,506.697 949.053,505.624 954.126,505.624L967.908,505.624C969.158,505.624 970.026,506.008 970.586,506.55C971.16,507.108 971.56,507.972 971.56,509.218L971.56,515.695C971.56,516.941 971.16,517.805 970.586,518.362C970.026,518.905 969.158,519.288 967.908,519.288L956.441,519.288C955.782,519.288 955.273,519.328 954.954,519.586C954.765,519.739 954.745,519.993 954.745,520.298L954.745,533.09C954.745,533.444 954.731,533.73 954.899,533.9C955.052,534.056 955.307,534.046 955.614,534.046L959.295,534.046L959.295,527.363C959.295,526.117 959.695,525.253 960.27,524.695C960.829,524.153 961.697,523.77 962.947,523.77L971.492,523.77C972.742,523.77 973.61,524.153 974.169,524.695C974.743,525.253 975.143,526.117 975.143,527.363L975.143,543.902C975.143,545.149 974.743,546.012 974.169,546.57C973.61,547.113 972.742,547.496 971.492,547.496ZM971.492,545.829C972.19,545.829 972.696,545.678 973.008,545.374C973.32,545.071 973.477,544.58 973.477,543.902L973.477,527.363C973.477,526.685 973.32,526.194 973.008,525.891C972.696,525.588 972.19,525.436 971.492,525.436L962.947,525.436C962.248,525.436 961.743,525.588 961.431,525.891C961.118,526.194 960.962,526.685 960.962,527.363L960.962,535.713L955.614,535.713C954.769,535.713 954.135,535.499 953.712,535.071C953.29,534.643 953.078,533.982 953.078,533.09L953.078,520.298C953.078,519.406 953.354,518.737 953.905,518.291C954.457,517.845 955.302,517.622 956.441,517.622L967.908,517.622C968.607,517.622 969.112,517.47 969.425,517.167C969.737,516.863 969.893,516.373 969.893,515.695L969.893,509.218C969.893,508.54 969.737,508.049 969.425,507.746C969.112,507.443 968.607,507.291 967.908,507.291L954.126,507.291C949.532,507.291 946.123,508.183 943.899,509.967C941.676,511.752 940.564,514.499 940.564,518.21L940.564,534.91C940.564,538.621 941.676,541.369 943.899,543.153C946.123,544.937 949.532,545.829 954.126,545.829L971.492,545.829Z"/>
        </g>
    </g>
</svg>
