<?xml version="1.0" encoding="UTF-8" standalone="no"?><!DOCTYPE svg PUBLIC "-//W3C//DTD SVG 1.1//EN" "http://www.w3.org/Graphics/SVG/1.1/DTD/svg11.dtd"><svg width="100%" height="100%" viewBox="0 0 437 82" version="1.1" xmlns="http://www.w3.org/2000/svg" xmlns:xlink="http://www.w3.org/1999/xlink" xml:space="preserve" xmlns:serif="http://www.serif.com/" style="fill-rule:evenodd;clip-rule:evenodd;stroke-linejoin:round;stroke-miterlimit:2;"><g><path d="M436.81,20.281c0,-11.193 -9.087,-20.281 -20.281,-20.281l-396.248,0c-11.193,0 -20.281,9.088 -20.281,20.281l-0,40.562c-0,11.194 9.088,20.282 20.281,20.282l396.248,-0c11.194,-0 20.281,-9.088 20.281,-20.282l0,-40.562Z" style="fill:#fff;"/><g><g><path d="M34.56,59.504l-17.213,-0c-0.69,-0 -1.189,-0.149 -1.498,-0.448c-0.309,-0.298 -0.463,-0.78 -0.463,-1.446l0,-6.156c0,-0.667 0.154,-1.149 0.463,-1.447c0.309,-0.298 0.808,-0.448 1.498,-0.448l14.653,0c0.472,0 0.826,-0.149 1.062,-0.447c0.236,-0.298 0.354,-0.657 0.354,-1.078c-0,-0.597 -0.118,-1.035 -0.354,-1.316c-0.236,-0.28 -0.59,-0.438 -1.062,-0.473l-8.171,-1.105c-2.542,-0.351 -4.585,-1.158 -6.128,-2.42c-1.543,-1.263 -2.315,-3.368 -2.315,-6.314l0,-5.525c0,-2.981 0.999,-5.27 2.996,-6.866c1.997,-1.596 4.757,-2.394 8.28,-2.394l15.251,-0c0.69,-0 1.19,0.149 1.498,0.447c0.309,0.298 0.463,0.781 0.463,1.447l0,6.261c0,0.667 -0.154,1.149 -0.463,1.447c-0.308,0.298 -0.808,0.447 -1.498,0.447l-12.691,0c-0.472,0 -0.836,0.149 -1.09,0.448c-0.254,0.298 -0.381,0.675 -0.381,1.131c-0,0.456 0.127,0.842 0.381,1.157c0.254,0.316 0.618,0.491 1.09,0.527l8.116,1.052c2.542,0.351 4.594,1.157 6.155,2.42c1.561,1.263 2.342,3.367 2.342,6.314l0,5.524c0,2.982 -1.007,5.271 -3.023,6.867c-2.015,1.596 -4.766,2.394 -8.252,2.394Z" style="fill-rule:nonzero;"/><path d="M31.741,47.892l0,0.001l-14.394,-0c-1.24,-0 -2.101,0.379 -2.656,0.915c-0.572,0.553 -0.972,1.409 -0.972,2.646c0,-0 0,6.156 0,6.156c0,1.236 0.4,2.092 0.972,2.645c0.555,0.536 1.416,0.915 2.656,0.915c0,0 17.213,0 17.213,0c3.93,0 7.015,-0.955 9.287,-2.754c2.405,-1.904 3.655,-4.615 3.655,-8.173l-0,-5.524c-0,-3.573 -1.068,-6.079 -2.961,-7.61c-1.772,-1.433 -4.09,-2.377 -6.975,-2.775l-7.688,-0.997l12.035,0c1.24,0 2.102,-0.379 2.656,-0.915c0.573,-0.553 0.972,-1.409 0.972,-2.646l-0,-6.261c-0,-1.236 -0.399,-2.092 -0.972,-2.646c-0.554,-0.535 -1.416,-0.915 -2.656,-0.915l-15.251,0c-3.973,0 -7.068,0.959 -9.32,2.759c-2.383,1.904 -3.623,4.612 -3.623,8.168c0,0 0,5.525 0,5.525c0,3.569 1.057,6.074 2.927,7.603c1.754,1.436 4.065,2.383 6.955,2.782l8.14,1.101Zm2.819,11.612l-17.213,-0c-0.69,-0 -1.189,-0.149 -1.498,-0.448c-0.309,-0.298 -0.463,-0.78 -0.463,-1.446l0,-6.156c0,-0.667 0.154,-1.149 0.463,-1.447c0.309,-0.298 0.808,-0.448 1.498,-0.448l14.653,0c0.472,0 0.826,-0.149 1.062,-0.447c0.236,-0.298 0.354,-0.657 0.354,-1.078c-0,-0.597 -0.118,-1.035 -0.354,-1.316c-0.236,-0.28 -0.59,-0.438 -1.062,-0.473l-8.171,-1.105c-2.542,-0.351 -4.585,-1.158 -6.128,-2.42c-1.543,-1.263 -2.315,-3.368 -2.315,-6.314l0,-5.525c0,-2.981 0.999,-5.27 2.996,-6.866c1.997,-1.596 4.757,-2.394 8.28,-2.394l15.251,-0c0.69,-0 1.19,0.149 1.498,0.447c0.309,0.298 0.463,0.781 0.463,1.447l0,6.261c0,0.667 -0.154,1.149 -0.463,1.447c-0.308,0.298 -0.808,0.447 -1.498,0.447l-12.691,0c-0.472,0 -0.836,0.149 -1.09,0.448c-0.254,0.298 -0.381,0.675 -0.381,1.131c-0,0.456 0.127,0.842 0.381,1.157c0.254,0.316 0.618,0.491 1.09,0.527l8.116,1.052c2.542,0.351 4.594,1.157 6.155,2.42c1.561,1.263 2.342,3.367 2.342,6.314l0,5.524c0,2.982 -1.007,5.271 -3.023,6.867c-2.015,1.596 -4.766,2.394 -8.252,2.394Z" style="fill:#808080;"/><path d="M65.989,32.67l-2.56,7.998l8.552,-0l-2.56,-7.998c-0.145,-0.316 -0.3,-0.544 -0.463,-0.684c-0.163,-0.14 -0.354,-0.21 -0.572,-0.21l-1.362,-0c-0.218,-0 -0.408,0.07 -0.572,0.21c-0.163,0.14 -0.317,0.368 -0.463,0.684Zm-3.104,24.94c-0,0.666 -0.155,1.148 -0.463,1.446c-0.309,0.299 -0.808,0.448 -1.498,0.448l-8.008,-0c-0.69,-0 -1.189,-0.149 -1.498,-0.448c-0.308,-0.298 -0.463,-0.78 -0.463,-1.446l0,-13.891c0,-1.052 0.173,-2.262 0.518,-3.63c0.345,-1.368 0.881,-2.964 1.607,-4.788l4.739,-11.944c0.218,-0.596 0.554,-1.034 1.008,-1.315c0.453,-0.281 1.044,-0.421 1.77,-0.421l14.652,-0c0.69,-0 1.262,0.14 1.716,0.421c0.454,0.281 0.79,0.719 1.008,1.315l4.739,11.944c0.726,1.824 1.262,3.42 1.607,4.788c0.345,1.368 0.517,2.578 0.517,3.63l0,13.891c0,0.666 -0.154,1.148 -0.463,1.446c-0.308,0.299 -0.808,0.448 -1.498,0.448l-8.225,-0c-0.726,-0 -1.262,-0.149 -1.607,-0.448c-0.345,-0.298 -0.517,-0.78 -0.517,-1.446l-0,-7.367l-9.641,0l-0,7.367Z" style="fill-rule:nonzero;"/><path d="M64.551,57.61l0,-5.7c0,0 6.308,0 6.308,0c0,0 0,5.7 0,5.7c0,1.266 0.439,2.141 1.095,2.707c0.585,0.506 1.465,0.853 2.696,0.853c0,0 8.225,0 8.225,0c1.24,0 2.102,-0.379 2.656,-0.915c0.573,-0.553 0.972,-1.409 0.972,-2.645l-0,-13.891c-0,-1.17 -0.184,-2.517 -0.568,-4.038c-0.36,-1.427 -0.917,-3.093 -1.675,-4.997c0.001,0.002 -4.731,-11.924 -4.731,-11.924c-0.362,-0.976 -0.941,-1.674 -1.687,-2.136c-0.688,-0.425 -1.547,-0.67 -2.593,-0.67l-14.652,0c-1.09,0 -1.966,0.249 -2.647,0.67c-0.749,0.464 -1.331,1.167 -1.692,2.149c0.005,-0.013 -4.727,11.913 -4.727,11.913c-0.757,1.902 -1.314,3.568 -1.674,4.995c-0.384,1.521 -0.568,2.868 -0.568,4.038l-0,13.891c-0,1.236 0.399,2.092 0.972,2.645c0.554,0.536 1.416,0.915 2.655,0.915c0,0 8.008,0 8.008,0c1.239,0 2.101,-0.379 2.655,-0.915c0.573,-0.553 0.972,-1.409 0.972,-2.645Zm-1.666,-0c-0,0.666 -0.155,1.148 -0.463,1.446c-0.309,0.299 -0.808,0.448 -1.498,0.448l-8.008,-0c-0.69,-0 -1.189,-0.149 -1.498,-0.448c-0.308,-0.298 -0.463,-0.78 -0.463,-1.446l0,-13.891c0,-1.052 0.173,-2.262 0.518,-3.63c0.345,-1.368 0.881,-2.964 1.607,-4.788l4.739,-11.944c0.218,-0.596 0.554,-1.034 1.008,-1.315c0.453,-0.281 1.044,-0.421 1.77,-0.421l14.652,-0c0.69,-0 1.262,0.14 1.716,0.421c0.454,0.281 0.79,0.719 1.008,1.315l4.739,11.944c0.726,1.824 1.262,3.42 1.607,4.788c0.345,1.368 0.517,2.578 0.517,3.63l0,13.891c0,0.666 -0.154,1.148 -0.463,1.446c-0.308,0.299 -0.808,0.448 -1.498,0.448l-8.225,-0c-0.726,-0 -1.262,-0.149 -1.607,-0.448c-0.345,-0.298 -0.517,-0.78 -0.517,-1.446l-0,-7.367l-9.641,0l-0,7.367Zm3.104,-24.94l-2.56,7.998l8.552,-0l-2.56,-7.998c-0.145,-0.316 -0.3,-0.544 -0.463,-0.684c-0.163,-0.14 -0.354,-0.21 -0.572,-0.21l-1.362,-0c-0.218,-0 -0.408,0.07 -0.572,0.21c-0.163,0.14 -0.317,0.368 -0.463,0.684Zm1.929,0.772l1.78,5.559c-0,-0 -3.985,-0 -3.985,-0l1.779,-5.559l0.426,0Z" style="fill:#808080;"/><path d="M113.788,59.504l-14.163,-0c-0.69,-0 -1.262,-0.123 -1.716,-0.369c-0.454,-0.245 -0.808,-0.701 -1.062,-1.368l-5.338,-12.89c-0.327,-0.772 -0.599,-1.447 -0.817,-2.026c-0.218,-0.579 -0.4,-1.131 -0.545,-1.657c-0.145,-0.526 -0.245,-1.079 -0.299,-1.658c-0.055,-0.578 -0.082,-1.289 -0.082,-2.131l-0,-13.89c-0,-0.666 0.154,-1.149 0.463,-1.447c0.309,-0.298 0.808,-0.447 1.498,-0.447l8.661,-0c0.69,-0 1.216,0.149 1.579,0.447c0.363,0.298 0.545,0.781 0.545,1.447l0,14.522c0,0.351 0.036,0.701 0.109,1.052c0.073,0.351 0.182,0.719 0.327,1.105l2.56,7.366c0.109,0.351 0.236,0.588 0.381,0.71c0.146,0.123 0.363,0.185 0.654,0.185l0.599,-0c0.291,-0 0.508,-0.062 0.654,-0.185c0.145,-0.122 0.272,-0.359 0.381,-0.71l2.56,-7.419c0.145,-0.385 0.254,-0.754 0.327,-1.105c0.073,-0.35 0.109,-0.701 0.109,-1.052l-0,-14.469c-0,-0.666 0.154,-1.149 0.463,-1.447c0.309,-0.298 0.808,-0.447 1.498,-0.447l8.552,-0c0.69,-0 1.189,0.149 1.498,0.447c0.308,0.298 0.463,0.781 0.463,1.447l-0,13.89c-0,0.842 -0.028,1.553 -0.082,2.131c-0.054,0.579 -0.154,1.132 -0.3,1.658c-0.145,0.526 -0.326,1.078 -0.544,1.657c-0.218,0.579 -0.491,1.254 -0.817,2.026l-5.338,12.89c-0.255,0.667 -0.609,1.123 -1.063,1.368c-0.454,0.246 -1.026,0.369 -1.715,0.369Z" style="fill-rule:nonzero;"/><path d="M106.842,46.321l-2.32,-6.674c-0.005,-0.014 -0.009,-0.027 -0.014,-0.04c-0.113,-0.299 -0.199,-0.584 -0.255,-0.856c-0.049,-0.238 -0.074,-0.476 -0.074,-0.714l-0,-14.522c-0,-1.279 -0.457,-2.162 -1.154,-2.735c-0.611,-0.502 -1.476,-0.826 -2.637,-0.826l-8.661,0c-1.24,0 -2.101,0.38 -2.656,0.915c-0.573,0.554 -0.972,1.41 -0.972,2.646l0,13.89c0,0.904 0.031,1.666 0.089,2.287c0.064,0.68 0.182,1.328 0.353,1.945c0.157,0.572 0.354,1.172 0.591,1.801c0.224,0.595 0.504,1.289 0.839,2.082c0,-0 5.329,12.867 5.329,12.867c0.424,1.098 1.065,1.808 1.816,2.214c0.666,0.36 1.498,0.569 2.509,0.569c0,0 14.163,0 14.163,0c1.011,0 1.843,-0.209 2.508,-0.569c0.756,-0.408 1.399,-1.123 1.823,-2.23c-0.006,0.016 5.322,-12.851 5.322,-12.851c0.336,-0.793 0.616,-1.487 0.84,-2.082c0.236,-0.629 0.433,-1.229 0.591,-1.801c0.17,-0.617 0.288,-1.265 0.352,-1.945c0.059,-0.621 0.089,-1.383 0.089,-2.287l0,-13.89c0,-1.236 -0.399,-2.092 -0.971,-2.646c-0.555,-0.535 -1.416,-0.915 -2.656,-0.915l-8.552,0c-1.24,0 -2.101,0.38 -2.656,0.915c-0.573,0.554 -0.972,1.41 -0.972,2.646l0,14.469c0,0.238 -0.025,0.476 -0.074,0.715c-0.056,0.271 -0.142,0.556 -0.255,0.855c-0.005,0.015 -0.01,0.029 -0.015,0.044l-2.32,6.723Zm6.946,13.183l-14.163,-0c-0.69,-0 -1.262,-0.123 -1.716,-0.369c-0.454,-0.245 -0.808,-0.701 -1.062,-1.368l-5.338,-12.89c-0.327,-0.772 -0.599,-1.447 -0.817,-2.026c-0.218,-0.579 -0.4,-1.131 -0.545,-1.657c-0.145,-0.526 -0.245,-1.079 -0.299,-1.658c-0.055,-0.578 -0.082,-1.289 -0.082,-2.131l-0,-13.89c-0,-0.666 0.154,-1.149 0.463,-1.447c0.309,-0.298 0.808,-0.447 1.498,-0.447l8.661,-0c0.69,-0 1.216,0.149 1.579,0.447c0.363,0.298 0.545,0.781 0.545,1.447l0,14.522c0,0.351 0.036,0.701 0.109,1.052c0.073,0.351 0.182,0.719 0.327,1.105l2.56,7.366c0.109,0.351 0.236,0.588 0.381,0.71c0.146,0.123 0.363,0.185 0.654,0.185l0.599,-0c0.291,-0 0.508,-0.062 0.654,-0.185c0.145,-0.122 0.272,-0.359 0.381,-0.71l2.56,-7.419c0.145,-0.385 0.254,-0.754 0.327,-1.105c0.073,-0.35 0.109,-0.701 0.109,-1.052l-0,-14.469c-0,-0.666 0.154,-1.149 0.463,-1.447c0.309,-0.298 0.808,-0.447 1.498,-0.447l8.552,-0c0.69,-0 1.189,0.149 1.498,0.447c0.308,0.298 0.463,0.781 0.463,1.447l-0,13.89c-0,0.842 -0.028,1.553 -0.082,2.131c-0.054,0.579 -0.154,1.132 -0.3,1.658c-0.145,0.526 -0.326,1.078 -0.544,1.657c-0.218,0.579 -0.491,1.254 -0.817,2.026l-5.338,12.89c-0.255,0.667 -0.609,1.123 -1.063,1.368c-0.454,0.246 -1.026,0.369 -1.715,0.369Z" style="fill:#808080;"/><path d="M157.582,59.504l-25.274,-0c-0.69,-0 -1.19,-0.149 -1.498,-0.448c-0.309,-0.298 -0.463,-0.78 -0.463,-1.446l-0,-34.095c-0,-0.666 0.154,-1.149 0.463,-1.447c0.308,-0.298 0.808,-0.447 1.498,-0.447l25.274,-0c0.69,-0 1.189,0.149 1.498,0.447c0.309,0.298 0.463,0.781 0.463,1.447l-0,6.156c-0,0.666 -0.154,1.149 -0.463,1.447c-0.309,0.298 -0.808,0.447 -1.498,0.447l-15.034,0l0,4.052l10.622,-0c0.69,-0 1.189,0.149 1.498,0.447c0.308,0.298 0.463,0.78 0.463,1.447l-0,5.629c-0,0.667 -0.155,1.149 -0.463,1.447c-0.309,0.298 -0.808,0.448 -1.498,0.448l-10.622,-0l0,4.524l15.034,0c0.69,0 1.189,0.15 1.498,0.448c0.309,0.298 0.463,0.78 0.463,1.447l-0,6.156c-0,0.666 -0.154,1.148 -0.463,1.446c-0.309,0.299 -0.808,0.448 -1.498,0.448Z" style="fill-rule:nonzero;"/><path d="M157.582,61.17c1.24,0 2.101,-0.379 2.656,-0.915c0.573,-0.553 0.972,-1.409 0.972,-2.645l-0,-6.156c-0,-1.237 -0.399,-2.093 -0.972,-2.646c-0.555,-0.536 -1.416,-0.915 -2.656,-0.915l-13.367,-0c-0,-0 -0,-1.192 -0,-1.192c-0,0 8.955,0 8.955,0c1.24,0 2.101,-0.379 2.656,-0.915c0.572,-0.553 0.971,-1.409 0.971,-2.646l0,-5.629c0,-1.237 -0.399,-2.093 -0.971,-2.646c-0.555,-0.536 -1.416,-0.915 -2.656,-0.915l-8.955,-0c-0,-0 -0,-0.718 -0,-0.718c-0,-0 13.367,-0 13.367,-0c1.24,-0 2.101,-0.38 2.656,-0.915c0.573,-0.553 0.972,-1.41 0.972,-2.646l-0,-6.156c-0,-1.236 -0.399,-2.092 -0.972,-2.646c-0.555,-0.535 -1.416,-0.915 -2.656,-0.915l-25.274,0c-1.24,0 -2.102,0.38 -2.656,0.915c-0.573,0.554 -0.972,1.41 -0.972,2.646c-0,0 -0,34.095 -0,34.095c-0,1.236 0.399,2.092 0.972,2.645c0.554,0.536 1.416,0.915 2.656,0.915c-0,0 25.274,0 25.274,0Zm-0,-1.666l-25.274,-0c-0.69,-0 -1.19,-0.149 -1.498,-0.448c-0.309,-0.298 -0.463,-0.78 -0.463,-1.446l-0,-34.095c-0,-0.666 0.154,-1.149 0.463,-1.447c0.308,-0.298 0.808,-0.447 1.498,-0.447l25.274,-0c0.69,-0 1.189,0.149 1.498,0.447c0.309,0.298 0.463,0.781 0.463,1.447l-0,6.156c-0,0.666 -0.154,1.149 -0.463,1.447c-0.309,0.298 -0.808,0.447 -1.498,0.447l-15.034,0l0,4.052l10.622,-0c0.69,-0 1.189,0.149 1.498,0.447c0.308,0.298 0.463,0.78 0.463,1.447l-0,5.629c-0,0.667 -0.155,1.149 -0.463,1.447c-0.309,0.298 -0.808,0.448 -1.498,0.448l-10.622,-0l0,4.524l15.034,0c0.69,0 1.189,0.15 1.498,0.448c0.309,0.298 0.463,0.78 0.463,1.447l-0,6.156c-0,0.666 -0.154,1.148 -0.463,1.446c-0.309,0.299 -0.808,0.448 -1.498,0.448Z" style="fill:#808080;"/></g><g><path d="M201.904,60.285l-15.926,0c-0.776,0 -1.419,-0.128 -1.93,-0.383c-0.51,-0.256 -0.908,-0.731 -1.194,-1.425l-6.003,-13.422c-0.368,-0.804 -0.674,-1.507 -0.919,-2.11c-0.245,-0.602 -0.449,-1.177 -0.613,-1.725c-0.163,-0.548 -0.275,-1.123 -0.336,-1.726c-0.062,-0.603 -0.092,-1.342 -0.092,-2.219l-0,-14.463c-0,-0.694 0.173,-1.196 0.52,-1.507c0.347,-0.31 0.909,-0.466 1.685,-0.466l9.739,0c0.776,0 1.368,0.156 1.777,0.466c0.408,0.311 0.612,0.813 0.612,1.507l0,15.121c0,0.365 0.041,0.73 0.123,1.095c0.081,0.366 0.204,0.749 0.367,1.151l2.879,7.67c0.123,0.365 0.266,0.612 0.429,0.739c0.163,0.128 0.408,0.192 0.735,0.192l0.674,0c0.327,0 0.572,-0.064 0.735,-0.192c0.163,-0.127 0.306,-0.374 0.429,-0.739l2.879,-7.725c0.163,-0.402 0.286,-0.785 0.367,-1.15c0.082,-0.366 0.123,-0.731 0.123,-1.096l-0,-15.066c-0,-0.694 0.173,-1.196 0.52,-1.507c0.348,-0.31 0.909,-0.466 1.685,-0.466l9.617,0c0.776,0 1.337,0.156 1.684,0.466c0.348,0.311 0.521,0.813 0.521,1.507l0,14.463c0,0.877 -0.031,1.616 -0.092,2.219c-0.061,0.603 -0.173,1.178 -0.337,1.726c-0.163,0.548 -0.367,1.123 -0.612,1.725c-0.245,0.603 -0.551,1.306 -0.919,2.11l-6.003,13.422c-0.286,0.694 -0.684,1.169 -1.194,1.425c-0.511,0.255 -1.154,0.383 -1.93,0.383Z" style="fill-rule:nonzero;stroke:#808080;stroke-width:1.67px;"/><path d="M251.153,60.285l-28.422,0c-0.776,0 -1.338,-0.155 -1.685,-0.465c-0.347,-0.311 -0.521,-0.813 -0.521,-1.507l0,-35.501c0,-0.694 0.174,-1.196 0.521,-1.507c0.347,-0.31 0.909,-0.466 1.685,-0.466l28.422,0c0.776,0 1.337,0.156 1.684,0.466c0.347,0.311 0.521,0.813 0.521,1.507l0,6.41c0,0.694 -0.174,1.196 -0.521,1.506c-0.347,0.311 -0.908,0.466 -1.684,0.466l-16.906,-0l-0,4.218l11.944,0c0.776,0 1.338,0.156 1.685,0.466c0.347,0.311 0.52,0.813 0.52,1.507l0,5.862c0,0.694 -0.173,1.196 -0.52,1.506c-0.347,0.311 -0.909,0.466 -1.685,0.466l-11.944,0l-0,4.712l16.906,-0c0.776,-0 1.337,0.155 1.684,0.465c0.347,0.311 0.521,0.813 0.521,1.507l0,6.41c0,0.694 -0.174,1.196 -0.521,1.507c-0.347,0.31 -0.908,0.465 -1.684,0.465Z" style="fill-rule:nonzero;stroke:#808080;stroke-width:1.67px;"/><path d="M289.391,60.285l-14.946,0c-5.105,0 -8.892,-0.913 -11.363,-2.739c-2.47,-1.826 -3.706,-4.639 -3.706,-8.437l0,-17.039c0,-3.798 1.236,-6.619 3.706,-8.464c2.471,-1.844 6.258,-2.767 11.363,-2.767l14.946,0c0.776,0 1.338,0.156 1.685,0.466c0.347,0.311 0.52,0.813 0.52,1.507l0,6.629c0,0.694 -0.173,1.196 -0.52,1.506c-0.347,0.311 -0.909,0.466 -1.685,0.466l-12.312,0c-1.266,0 -2.205,0.228 -2.818,0.685c-0.612,0.456 -0.919,1.141 -0.919,2.054l0,13.039c0,0.914 0.307,1.58 0.919,2c0.613,0.42 1.552,0.63 2.818,0.63l12.312,0c0.776,0 1.338,0.155 1.685,0.466c0.347,0.31 0.52,0.812 0.52,1.506l0,6.52c0,0.694 -0.173,1.196 -0.52,1.507c-0.347,0.31 -0.909,0.465 -1.685,0.465Z" style="fill-rule:nonzero;stroke:#808080;stroke-width:1.67px;"/><path d="M319.345,60.285l-9.924,0c-0.775,0 -1.337,-0.155 -1.684,-0.465c-0.347,-0.311 -0.521,-0.813 -0.521,-1.507l0,-26.9l-9.004,0c-0.776,0 -1.338,-0.155 -1.685,-0.466c-0.347,-0.31 -0.52,-0.812 -0.52,-1.506l-0,-6.629c-0,-0.694 0.173,-1.196 0.52,-1.507c0.347,-0.31 0.909,-0.466 1.685,-0.466l32.342,0c0.776,0 1.338,0.156 1.685,0.466c0.347,0.311 0.521,0.813 0.521,1.507l-0,6.629c-0,0.694 -0.174,1.196 -0.521,1.506c-0.347,0.311 -0.909,0.466 -1.685,0.466l-9.004,0l-0,26.9c-0,0.694 -0.174,1.196 -0.521,1.507c-0.347,0.31 -0.908,0.465 -1.684,0.465Z" style="fill-rule:nonzero;stroke:#808080;stroke-width:1.67px;"/><path d="M375.531,49.931c-0,1.68 -0.276,3.205 -0.827,4.574c-0.551,1.37 -1.532,2.539 -2.94,3.507c-1.409,0.968 -3.349,1.725 -5.82,2.273c-2.47,0.548 -5.604,0.822 -9.402,0.822c-3.798,0 -6.942,-0.274 -9.433,-0.822c-2.492,-0.548 -4.441,-1.305 -5.85,-2.273c-1.409,-0.968 -2.389,-2.137 -2.941,-3.507c-0.551,-1.369 -0.826,-2.894 -0.826,-4.574l-0,-18.682c-0,-1.68 0.275,-3.205 0.826,-4.575c0.552,-1.37 1.532,-2.547 2.941,-3.534c1.409,-0.986 3.358,-1.753 5.85,-2.301c2.491,-0.547 5.635,-0.821 9.433,-0.821c3.798,-0 6.932,0.274 9.402,0.821c2.471,0.548 4.411,1.315 5.82,2.301c1.408,0.987 2.389,2.164 2.94,3.534c0.551,1.37 0.827,2.895 0.827,4.575l-0,18.682Zm-24.135,-1.973c0,0.731 0.307,1.343 0.919,1.836c0.613,0.493 2.022,0.739 4.227,0.739c2.205,0 3.614,-0.246 4.226,-0.739c0.613,-0.493 0.919,-1.105 0.919,-1.836l0,-14.737c0,-0.694 -0.306,-1.287 -0.919,-1.781c-0.612,-0.493 -2.021,-0.739 -4.226,-0.739c-2.205,-0 -3.614,0.246 -4.227,0.739c-0.612,0.494 -0.919,1.087 -0.919,1.781l0,14.737Z" style="fill-rule:nonzero;stroke:#808080;stroke-width:1.67px;"/><path d="M397.154,30.701l-0,7.012l4.594,0c1.062,0 1.776,-0.246 2.144,-0.739c0.367,-0.493 0.551,-1.105 0.551,-1.835l0,-1.863c0,-0.731 -0.184,-1.342 -0.551,-1.836c-0.368,-0.493 -1.082,-0.739 -2.144,-0.739l-4.594,-0Zm-2.205,29.584l-9.434,0c-0.776,0 -1.337,-0.155 -1.684,-0.465c-0.347,-0.311 -0.521,-0.813 -0.521,-1.507l0,-35.501c0,-0.694 0.174,-1.196 0.521,-1.507c0.347,-0.31 0.908,-0.466 1.684,-0.466l20.398,0c4.574,0 7.728,0.85 9.464,2.548c1.736,1.698 2.603,3.899 2.603,6.602l0,2.52c0,1.534 -0.255,2.84 -0.765,3.917c-0.511,1.077 -1.399,1.854 -2.665,2.328c2.205,0.22 3.992,1.023 5.36,2.411c1.368,1.388 2.052,3.232 2.052,5.533l-0,11.615c-0,0.694 -0.174,1.196 -0.521,1.507c-0.347,0.31 -0.908,0.465 -1.684,0.465l-9.495,0c-0.776,0 -1.337,-0.155 -1.684,-0.465c-0.347,-0.311 -0.521,-0.813 -0.521,-1.507l0,-8.382c0,-0.804 -0.174,-1.397 -0.521,-1.781c-0.347,-0.383 -0.949,-0.575 -1.807,-0.575l-8.575,-0l-0,10.738c-0,0.694 -0.174,1.196 -0.521,1.507c-0.347,0.31 -0.909,0.465 -1.684,0.465Z" style="fill-rule:nonzero;stroke:#808080;stroke-width:1.67px;"/></g></g></g></svg>