<?xml version="1.0" encoding="UTF-8" standalone="no"?><!DOCTYPE svg PUBLIC "-//W3C//DTD SVG 1.1//EN" "http://www.w3.org/Graphics/SVG/1.1/DTD/svg11.dtd"><svg width="100%" height="100%" viewBox="0 0 437 82" version="1.1" xmlns="http://www.w3.org/2000/svg" xmlns:xlink="http://www.w3.org/1999/xlink" xml:space="preserve" xmlns:serif="http://www.serif.com/" style="fill-rule:evenodd;clip-rule:evenodd;stroke-linejoin:round;stroke-miterlimit:2;"><g><path d="M436.81,20.281c0,-11.193 -9.087,-20.281 -20.281,-20.281l-396.248,0c-11.193,0 -20.281,9.088 -20.281,20.281l0,40.562c0,11.194 9.088,20.282 20.281,20.282l396.248,-0c11.194,-0 20.281,-9.088 20.281,-20.282l0,-40.562Z" style="fill:#fff;"/><g><path d="M47.816,59.504l-17.212,-0c-0.69,-0 -1.19,-0.149 -1.498,-0.448c-0.309,-0.298 -0.463,-0.78 -0.463,-1.446l-0,-6.156c-0,-0.667 0.154,-1.149 0.463,-1.447c0.308,-0.298 0.808,-0.448 1.498,-0.448l14.652,0c0.472,0 0.826,-0.149 1.062,-0.447c0.237,-0.298 0.355,-0.657 0.355,-1.078c-0,-0.597 -0.118,-1.035 -0.355,-1.316c-0.236,-0.28 -0.59,-0.438 -1.062,-0.473l-8.17,-1.105c-2.542,-0.351 -4.585,-1.158 -6.128,-2.42c-1.544,-1.263 -2.315,-3.368 -2.315,-6.314l-0,-5.525c-0,-2.981 0.998,-5.27 2.996,-6.866c1.997,-1.596 4.757,-2.394 8.279,-2.394l15.252,-0c0.69,-0 1.189,0.149 1.498,0.447c0.309,0.298 0.463,0.781 0.463,1.447l-0,6.261c-0,0.667 -0.154,1.149 -0.463,1.447c-0.309,0.298 -0.808,0.447 -1.498,0.447l-12.692,0c-0.472,0 -0.835,0.149 -1.089,0.448c-0.254,0.298 -0.381,0.675 -0.381,1.131c-0,0.456 0.127,0.842 0.381,1.157c0.254,0.316 0.617,0.491 1.089,0.527l8.116,1.052c2.542,0.351 4.594,1.157 6.156,2.42c1.561,1.263 2.342,3.367 2.342,6.314l-0,5.524c-0,2.982 -1.008,5.271 -3.023,6.867c-2.016,1.596 -4.766,2.394 -8.253,2.394Z" style="fill-rule:nonzero;"/><path d="M44.998,47.892l-0,0.001l-14.394,-0c-1.24,-0 -2.102,0.379 -2.656,0.915c-0.573,0.553 -0.972,1.409 -0.972,2.646l0,6.156c0,1.236 0.399,2.092 0.972,2.645c0.554,0.536 1.416,0.915 2.656,0.915l17.212,0c3.93,0 7.015,-0.955 9.287,-2.754c2.406,-1.904 3.656,-4.615 3.656,-8.173l-0,-5.524c-0,-3.573 -1.068,-6.079 -2.961,-7.61c-1.773,-1.433 -4.09,-2.377 -6.976,-2.775l-7.687,-0.997l12.035,0c1.24,0 2.101,-0.379 2.656,-0.915c0.572,-0.553 0.972,-1.409 0.972,-2.646c-0,0 -0,-6.261 -0,-6.261c-0,-1.236 -0.4,-2.092 -0.972,-2.646c-0.555,-0.535 -1.416,-0.915 -2.656,-0.915l-15.252,0c-3.972,0 -7.067,0.959 -9.32,2.759c-2.382,1.904 -3.622,4.612 -3.622,8.168l0,5.525c0,3.569 1.057,6.074 2.926,7.603c1.755,1.436 4.066,2.383 6.956,2.782l8.14,1.101Zm2.818,11.612l-17.212,-0c-0.69,-0 -1.19,-0.149 -1.498,-0.448c-0.309,-0.298 -0.463,-0.78 -0.463,-1.446l-0,-6.156c-0,-0.667 0.154,-1.149 0.463,-1.447c0.308,-0.298 0.808,-0.448 1.498,-0.448l14.652,0c0.472,0 0.826,-0.149 1.062,-0.447c0.237,-0.298 0.355,-0.657 0.355,-1.078c-0,-0.597 -0.118,-1.035 -0.355,-1.316c-0.236,-0.28 -0.59,-0.438 -1.062,-0.473l-8.17,-1.105c-2.542,-0.351 -4.585,-1.158 -6.128,-2.42c-1.544,-1.263 -2.315,-3.368 -2.315,-6.314l-0,-5.525c-0,-2.981 0.998,-5.27 2.996,-6.866c1.997,-1.596 4.757,-2.394 8.279,-2.394l15.252,-0c0.69,-0 1.189,0.149 1.498,0.447c0.309,0.298 0.463,0.781 0.463,1.447l-0,6.261c-0,0.667 -0.154,1.149 -0.463,1.447c-0.309,0.298 -0.808,0.447 -1.498,0.447l-12.692,0c-0.472,0 -0.835,0.149 -1.089,0.448c-0.254,0.298 -0.381,0.675 -0.381,1.131c-0,0.456 0.127,0.842 0.381,1.157c0.254,0.316 0.617,0.491 1.089,0.527l8.116,1.052c2.542,0.351 4.594,1.157 6.156,2.42c1.561,1.263 2.342,3.367 2.342,6.314l-0,5.524c-0,2.982 -1.008,5.271 -3.023,6.867c-2.016,1.596 -4.766,2.394 -8.253,2.394Z" style="fill:#808080;"/><path d="M79.246,32.67l-2.56,7.998l8.552,-0l-2.56,-7.998c-0.146,-0.316 -0.3,-0.544 -0.463,-0.684c-0.164,-0.14 -0.354,-0.21 -0.572,-0.21l-1.362,-0c-0.218,-0 -0.409,0.07 -0.572,0.21c-0.163,0.14 -0.318,0.368 -0.463,0.684Zm-3.105,24.94c0,0.666 -0.154,1.148 -0.463,1.446c-0.308,0.299 -0.808,0.448 -1.498,0.448l-8.007,-0c-0.69,-0 -1.189,-0.149 -1.498,-0.448c-0.309,-0.298 -0.463,-0.78 -0.463,-1.446l0,-13.891c0,-1.052 0.173,-2.262 0.518,-3.63c0.345,-1.368 0.88,-2.964 1.606,-4.788l4.739,-11.944c0.218,-0.596 0.554,-1.034 1.008,-1.315c0.454,-0.281 1.044,-0.421 1.77,-0.421l14.653,-0c0.69,-0 1.262,0.14 1.716,0.421c0.454,0.281 0.79,0.719 1.008,1.315l4.739,11.944c0.726,1.824 1.261,3.42 1.606,4.788c0.345,1.368 0.518,2.578 0.518,3.63l-0,13.891c-0,0.666 -0.154,1.148 -0.463,1.446c-0.309,0.299 -0.808,0.448 -1.498,0.448l-8.225,-0c-0.726,-0 -1.262,-0.149 -1.607,-0.448c-0.345,-0.298 -0.517,-0.78 -0.517,-1.446l-0,-7.367l-9.642,0l0,7.367Z" style="fill-rule:nonzero;"/><path d="M77.808,57.61l-0,-5.7c-0,0 6.308,0 6.308,0c-0,0 -0,5.7 -0,5.7c-0,1.266 0.439,2.141 1.094,2.707c0.585,0.506 1.465,0.853 2.697,0.853l8.225,0c1.24,0 2.101,-0.379 2.656,-0.915c0.572,-0.553 0.972,-1.409 0.972,-2.645l-0,-13.891c-0,-1.17 -0.185,-2.517 -0.568,-4.038c-0.36,-1.427 -0.917,-3.093 -1.675,-4.997c0.001,0.002 -4.731,-11.924 -4.731,-11.924c-0.362,-0.976 -0.942,-1.674 -1.688,-2.136c-0.688,-0.425 -1.546,-0.67 -2.592,-0.67l-14.653,0c-1.089,0 -1.965,0.249 -2.646,0.67c-0.75,0.464 -1.331,1.167 -1.693,2.149c0.005,-0.013 -4.727,11.913 -4.727,11.913c-0.757,1.902 -1.313,3.568 -1.673,4.995c-0.384,1.521 -0.569,2.868 -0.569,4.038l0,13.891c0,1.236 0.4,2.092 0.972,2.645c0.555,0.536 1.416,0.915 2.656,0.915l8.007,0c1.24,0 2.101,-0.379 2.656,-0.915c0.573,-0.553 0.972,-1.409 0.972,-2.645Zm-1.667,-0c0,0.666 -0.154,1.148 -0.463,1.446c-0.308,0.299 -0.808,0.448 -1.498,0.448l-8.007,-0c-0.69,-0 -1.189,-0.149 -1.498,-0.448c-0.309,-0.298 -0.463,-0.78 -0.463,-1.446l0,-13.891c0,-1.052 0.173,-2.262 0.518,-3.63c0.345,-1.368 0.88,-2.964 1.606,-4.788l4.739,-11.944c0.218,-0.596 0.554,-1.034 1.008,-1.315c0.454,-0.281 1.044,-0.421 1.77,-0.421l14.653,-0c0.69,-0 1.262,0.14 1.716,0.421c0.454,0.281 0.79,0.719 1.008,1.315l4.739,11.944c0.726,1.824 1.261,3.42 1.606,4.788c0.345,1.368 0.518,2.578 0.518,3.63l-0,13.891c-0,0.666 -0.154,1.148 -0.463,1.446c-0.309,0.299 -0.808,0.448 -1.498,0.448l-8.225,-0c-0.726,-0 -1.262,-0.149 -1.607,-0.448c-0.345,-0.298 -0.517,-0.78 -0.517,-1.446l-0,-7.367l-9.642,0l0,7.367Zm3.105,-24.94l-2.56,7.998l8.552,-0l-2.56,-7.998c-0.146,-0.316 -0.3,-0.544 -0.463,-0.684c-0.164,-0.14 -0.354,-0.21 -0.572,-0.21l-1.362,-0c-0.218,-0 -0.409,0.07 -0.572,0.21c-0.163,0.14 -0.318,0.368 -0.463,0.684Zm1.928,0.772l1.78,5.559c0,-0 -3.985,-0 -3.985,-0l1.78,-5.559l0.425,0Z" style="fill:#808080;"/><path d="M127.044,59.504l-14.162,-0c-0.69,-0 -1.262,-0.123 -1.716,-0.369c-0.454,-0.245 -0.808,-0.701 -1.062,-1.368l-5.338,-12.89c-0.327,-0.772 -0.6,-1.447 -0.817,-2.026c-0.218,-0.579 -0.4,-1.131 -0.545,-1.657c-0.145,-0.526 -0.245,-1.079 -0.3,-1.658c-0.054,-0.578 -0.081,-1.289 -0.081,-2.131l-0,-13.89c-0,-0.666 0.154,-1.149 0.463,-1.447c0.308,-0.298 0.808,-0.447 1.497,-0.447l8.661,-0c0.69,-0 1.217,0.149 1.58,0.447c0.363,0.298 0.545,0.781 0.545,1.447l-0,14.522c-0,0.351 0.036,0.701 0.109,1.052c0.072,0.351 0.181,0.719 0.326,1.105l2.561,7.366c0.109,0.351 0.236,0.588 0.381,0.71c0.145,0.123 0.363,0.185 0.654,0.185l0.599,-0c0.29,-0 0.508,-0.062 0.653,-0.185c0.146,-0.122 0.273,-0.359 0.382,-0.71l2.56,-7.419c0.145,-0.385 0.254,-0.754 0.327,-1.105c0.072,-0.35 0.109,-0.701 0.109,-1.052l-0,-14.469c-0,-0.666 0.154,-1.149 0.463,-1.447c0.308,-0.298 0.808,-0.447 1.497,-0.447l8.552,-0c0.69,-0 1.19,0.149 1.498,0.447c0.309,0.298 0.463,0.781 0.463,1.447l0,13.89c0,0.842 -0.027,1.553 -0.081,2.131c-0.055,0.579 -0.155,1.132 -0.3,1.658c-0.145,0.526 -0.327,1.078 -0.545,1.657c-0.218,0.579 -0.49,1.254 -0.817,2.026l-5.338,12.89c-0.254,0.667 -0.608,1.123 -1.062,1.368c-0.454,0.246 -1.026,0.369 -1.716,0.369Z" style="fill-rule:nonzero;"/><path d="M120.098,46.321l-2.319,-6.674c-0.005,-0.014 -0.01,-0.027 -0.015,-0.04c-0.112,-0.299 -0.198,-0.584 -0.254,-0.856c-0.05,-0.238 -0.075,-0.476 -0.075,-0.714l0,-14.522c0,-1.279 -0.456,-2.162 -1.153,-2.735c-0.612,-0.502 -1.476,-0.826 -2.638,-0.826l-8.661,0c-1.239,0 -2.101,0.38 -2.655,0.915c-0.573,0.554 -0.972,1.41 -0.972,2.646l-0,13.89c-0,0.904 0.03,1.666 0.089,2.287c0.064,0.68 0.182,1.328 0.352,1.945c0.158,0.572 0.355,1.172 0.592,1.801c0.224,0.595 0.503,1.289 0.839,2.082c-0,-0 5.329,12.867 5.329,12.867c0.424,1.098 1.064,1.808 1.816,2.214c0.665,0.36 1.497,0.569 2.509,0.569l14.162,0c1.012,0 1.844,-0.209 2.509,-0.569c0.755,-0.408 1.398,-1.123 1.823,-2.23c-0.007,0.016 5.322,-12.851 5.322,-12.851c0.336,-0.793 0.615,-1.487 0.839,-2.082c0.237,-0.629 0.434,-1.229 0.592,-1.801c0.17,-0.617 0.288,-1.265 0.352,-1.945c0.058,-0.621 0.089,-1.383 0.089,-2.287c0,0 0,-13.89 0,-13.89c0,-1.236 -0.399,-2.092 -0.972,-2.646c-0.554,-0.535 -1.416,-0.915 -2.656,-0.915l-8.552,0c-1.239,0 -2.101,0.38 -2.655,0.915c-0.573,0.554 -0.972,1.41 -0.972,2.646l-0,14.469c-0,0.238 -0.025,0.476 -0.074,0.715c-0.057,0.271 -0.142,0.556 -0.255,0.855c-0.005,0.015 -0.011,0.029 -0.016,0.044l-2.32,6.723Zm6.946,13.183l-14.162,-0c-0.69,-0 -1.262,-0.123 -1.716,-0.369c-0.454,-0.245 -0.808,-0.701 -1.062,-1.368l-5.338,-12.89c-0.327,-0.772 -0.6,-1.447 -0.817,-2.026c-0.218,-0.579 -0.4,-1.131 -0.545,-1.657c-0.145,-0.526 -0.245,-1.079 -0.3,-1.658c-0.054,-0.578 -0.081,-1.289 -0.081,-2.131l-0,-13.89c-0,-0.666 0.154,-1.149 0.463,-1.447c0.308,-0.298 0.808,-0.447 1.497,-0.447l8.661,-0c0.69,-0 1.217,0.149 1.58,0.447c0.363,0.298 0.545,0.781 0.545,1.447l-0,14.522c-0,0.351 0.036,0.701 0.109,1.052c0.072,0.351 0.181,0.719 0.326,1.105l2.561,7.366c0.109,0.351 0.236,0.588 0.381,0.71c0.145,0.123 0.363,0.185 0.654,0.185l0.599,-0c0.29,-0 0.508,-0.062 0.653,-0.185c0.146,-0.122 0.273,-0.359 0.382,-0.71l2.56,-7.419c0.145,-0.385 0.254,-0.754 0.327,-1.105c0.072,-0.35 0.109,-0.701 0.109,-1.052l-0,-14.469c-0,-0.666 0.154,-1.149 0.463,-1.447c0.308,-0.298 0.808,-0.447 1.497,-0.447l8.552,-0c0.69,-0 1.19,0.149 1.498,0.447c0.309,0.298 0.463,0.781 0.463,1.447l0,13.89c0,0.842 -0.027,1.553 -0.081,2.131c-0.055,0.579 -0.155,1.132 -0.3,1.658c-0.145,0.526 -0.327,1.078 -0.545,1.657c-0.218,0.579 -0.49,1.254 -0.817,2.026l-5.338,12.89c-0.254,0.667 -0.608,1.123 -1.062,1.368c-0.454,0.246 -1.026,0.369 -1.716,0.369Z" style="fill:#808080;"/><path d="M170.839,59.504l-25.275,-0c-0.69,-0 -1.189,-0.149 -1.498,-0.448c-0.308,-0.298 -0.463,-0.78 -0.463,-1.446l0,-34.095c0,-0.666 0.155,-1.149 0.463,-1.447c0.309,-0.298 0.808,-0.447 1.498,-0.447l25.275,-0c0.69,-0 1.189,0.149 1.498,0.447c0.308,0.298 0.463,0.781 0.463,1.447l-0,6.156c-0,0.666 -0.155,1.149 -0.463,1.447c-0.309,0.298 -0.808,0.447 -1.498,0.447l-15.034,0l-0,4.052l10.621,-0c0.69,-0 1.19,0.149 1.498,0.447c0.309,0.298 0.463,0.78 0.463,1.447l0,5.629c0,0.667 -0.154,1.149 -0.463,1.447c-0.308,0.298 -0.808,0.448 -1.498,0.448l-10.621,-0l-0,4.524l15.034,0c0.69,0 1.189,0.15 1.498,0.448c0.308,0.298 0.463,0.78 0.463,1.447l-0,6.156c-0,0.666 -0.155,1.148 -0.463,1.446c-0.309,0.299 -0.808,0.448 -1.498,0.448Z" style="fill-rule:nonzero;"/><path d="M170.839,61.17c1.239,0 2.101,-0.379 2.655,-0.915c0.573,-0.553 0.972,-1.409 0.972,-2.645c0,-0 0,-6.156 0,-6.156c0,-1.237 -0.399,-2.093 -0.972,-2.646c-0.554,-0.536 -1.416,-0.915 -2.655,-0.915c-0,-0 -13.368,-0 -13.368,-0c0,-0 0,-1.192 0,-1.192c0,0 8.955,0 8.955,0c1.24,0 2.102,-0.379 2.656,-0.915c0.573,-0.553 0.972,-1.409 0.972,-2.646c0,0 0,-5.629 0,-5.629c0,-1.237 -0.399,-2.093 -0.972,-2.646c-0.554,-0.536 -1.416,-0.915 -2.656,-0.915l-8.955,-0c0,-0 0,-0.718 0,-0.718c0,-0 13.368,-0 13.368,-0c1.239,-0 2.101,-0.38 2.655,-0.915c0.573,-0.553 0.972,-1.41 0.972,-2.646c0,0 0,-6.156 0,-6.156c0,-1.236 -0.399,-2.092 -0.972,-2.646c-0.554,-0.535 -1.416,-0.915 -2.655,-0.915l-25.275,0c-1.24,0 -2.101,0.38 -2.656,0.915c-0.572,0.554 -0.971,1.41 -0.971,2.646c-0,0 -0,34.095 -0,34.095c-0,1.236 0.399,2.092 0.971,2.645c0.555,0.536 1.416,0.915 2.656,0.915l25.275,0Zm-0,-1.666l-25.275,-0c-0.69,-0 -1.189,-0.149 -1.498,-0.448c-0.308,-0.298 -0.463,-0.78 -0.463,-1.446l0,-34.095c0,-0.666 0.155,-1.149 0.463,-1.447c0.309,-0.298 0.808,-0.447 1.498,-0.447l25.275,-0c0.69,-0 1.189,0.149 1.498,0.447c0.308,0.298 0.463,0.781 0.463,1.447l-0,6.156c-0,0.666 -0.155,1.149 -0.463,1.447c-0.309,0.298 -0.808,0.447 -1.498,0.447l-15.034,0l-0,4.052l10.621,-0c0.69,-0 1.19,0.149 1.498,0.447c0.309,0.298 0.463,0.78 0.463,1.447l0,5.629c0,0.667 -0.154,1.149 -0.463,1.447c-0.308,0.298 -0.808,0.448 -1.498,0.448l-10.621,-0l-0,4.524l15.034,0c0.69,0 1.189,0.15 1.498,0.448c0.308,0.298 0.463,0.78 0.463,1.447l-0,6.156c-0,0.666 -0.155,1.148 -0.463,1.446c-0.309,0.299 -0.808,0.448 -1.498,0.448Z" style="fill:#808080;"/><path d="M211.801,59.504l-18.357,-0c-0.69,-0 -1.189,-0.149 -1.498,-0.448c-0.309,-0.298 -0.463,-0.78 -0.463,-1.446l0,-34.095c0,-0.666 0.154,-1.149 0.463,-1.447c0.309,-0.298 0.808,-0.447 1.498,-0.447l18.357,-0c4.539,-0 7.907,0.877 10.104,2.631c2.197,1.754 3.295,4.454 3.295,8.102l0,16.416c0,3.648 -1.098,6.349 -3.295,8.103c-2.197,1.754 -5.565,2.631 -10.104,2.631Zm-7.953,-27.834l-0,17.889l6.482,0c0.871,0 1.516,-0.21 1.934,-0.631c0.417,-0.421 0.626,-1.07 0.626,-1.947l0,-12.785c0,-0.877 -0.209,-1.517 -0.626,-1.921c-0.418,-0.403 -1.063,-0.605 -1.934,-0.605l-6.482,0Z" style="fill-rule:nonzero;"/><path d="M211.801,61.17c5.016,0 8.716,-1.056 11.144,-2.995c2.559,-2.043 3.922,-5.155 3.922,-9.405c0,0 0,-16.416 0,-16.416c0,-4.249 -1.363,-7.362 -3.922,-9.405c-2.428,-1.938 -6.128,-2.995 -11.144,-2.995l-18.357,0c-1.24,0 -2.101,0.38 -2.656,0.915c-0.573,0.554 -0.972,1.41 -0.972,2.646l0,34.095c0,1.236 0.399,2.092 0.972,2.645c0.555,0.536 1.416,0.915 2.656,0.915l18.357,0Zm-0,-1.666l-18.357,-0c-0.69,-0 -1.189,-0.149 -1.498,-0.448c-0.309,-0.298 -0.463,-0.78 -0.463,-1.446l0,-34.095c0,-0.666 0.154,-1.149 0.463,-1.447c0.309,-0.298 0.808,-0.447 1.498,-0.447l18.357,-0c4.539,-0 7.907,0.877 10.104,2.631c2.197,1.754 3.295,4.454 3.295,8.102l0,16.416c0,3.648 -1.098,6.349 -3.295,8.103c-2.197,1.754 -5.565,2.631 -10.104,2.631Zm-7.953,-27.834l-0,17.889l6.482,0c0.871,0 1.516,-0.21 1.934,-0.631c0.417,-0.421 0.626,-1.07 0.626,-1.947l0,-12.785c0,-0.877 -0.209,-1.517 -0.626,-1.921c-0.418,-0.403 -1.063,-0.605 -1.934,-0.605l-6.482,0Zm1.667,1.667l4.815,0c0.339,0 0.613,-0.02 0.776,0.137c0.151,0.146 0.117,0.404 0.117,0.722l0,12.785c0,0.337 0.018,0.611 -0.143,0.773c-0.156,0.158 -0.423,0.139 -0.75,0.139c-0,-0 -4.815,-0 -4.815,-0l-0,-14.556Z" style="fill:#808080;"/><path d="M259.354,59.504l-25.275,-0c-0.69,-0 -1.189,-0.149 -1.498,-0.448c-0.308,-0.298 -0.463,-0.78 -0.463,-1.446l0,-34.095c0,-0.666 0.155,-1.149 0.463,-1.447c0.309,-0.298 0.808,-0.447 1.498,-0.447l25.275,-0c0.69,-0 1.189,0.149 1.498,0.447c0.308,0.298 0.463,0.781 0.463,1.447l-0,6.156c-0,0.666 -0.155,1.149 -0.463,1.447c-0.309,0.298 -0.808,0.447 -1.498,0.447l-15.034,0l-0,4.052l10.621,-0c0.69,-0 1.19,0.149 1.498,0.447c0.309,0.298 0.463,0.78 0.463,1.447l0,5.629c0,0.667 -0.154,1.149 -0.463,1.447c-0.308,0.298 -0.808,0.448 -1.498,0.448l-10.621,-0l-0,4.524l15.034,0c0.69,0 1.189,0.15 1.498,0.448c0.308,0.298 0.463,0.78 0.463,1.447l-0,6.156c-0,0.666 -0.155,1.148 -0.463,1.446c-0.309,0.299 -0.808,0.448 -1.498,0.448Z" style="fill-rule:nonzero;"/><path d="M259.354,61.17c1.239,0 2.101,-0.379 2.655,-0.915c0.573,-0.553 0.972,-1.409 0.972,-2.645c0,-0 0,-6.156 0,-6.156c0,-1.237 -0.399,-2.093 -0.972,-2.646c-0.554,-0.536 -1.416,-0.915 -2.655,-0.915c-0,-0 -13.368,-0 -13.368,-0c0,-0 0,-1.192 0,-1.192c0,0 8.955,0 8.955,0c1.24,0 2.102,-0.379 2.656,-0.915c0.573,-0.553 0.972,-1.409 0.972,-2.646c0,0 0,-5.629 0,-5.629c0,-1.237 -0.399,-2.093 -0.972,-2.646c-0.554,-0.536 -1.416,-0.915 -2.656,-0.915l-8.955,-0c0,-0 0,-0.718 0,-0.718c0,-0 13.368,-0 13.368,-0c1.239,-0 2.101,-0.38 2.655,-0.915c0.573,-0.553 0.972,-1.41 0.972,-2.646c0,0 0,-6.156 0,-6.156c0,-1.236 -0.399,-2.092 -0.972,-2.646c-0.554,-0.535 -1.416,-0.915 -2.655,-0.915l-25.275,0c-1.24,0 -2.101,0.38 -2.656,0.915c-0.572,0.554 -0.971,1.41 -0.971,2.646c-0,0 -0,34.095 -0,34.095c-0,1.236 0.399,2.092 0.971,2.645c0.555,0.536 1.416,0.915 2.656,0.915l25.275,0Zm-0,-1.666l-25.275,-0c-0.69,-0 -1.189,-0.149 -1.498,-0.448c-0.308,-0.298 -0.463,-0.78 -0.463,-1.446l0,-34.095c0,-0.666 0.155,-1.149 0.463,-1.447c0.309,-0.298 0.808,-0.447 1.498,-0.447l25.275,-0c0.69,-0 1.189,0.149 1.498,0.447c0.308,0.298 0.463,0.781 0.463,1.447l-0,6.156c-0,0.666 -0.155,1.149 -0.463,1.447c-0.309,0.298 -0.808,0.447 -1.498,0.447l-15.034,0l-0,4.052l10.621,-0c0.69,-0 1.19,0.149 1.498,0.447c0.309,0.298 0.463,0.78 0.463,1.447l0,5.629c0,0.667 -0.154,1.149 -0.463,1.447c-0.308,0.298 -0.808,0.448 -1.498,0.448l-10.621,-0l-0,4.524l15.034,0c0.69,0 1.189,0.15 1.498,0.448c0.308,0.298 0.463,0.78 0.463,1.447l-0,6.156c-0,0.666 -0.155,1.148 -0.463,1.446c-0.309,0.299 -0.808,0.448 -1.498,0.448Z" style="fill:#808080;"/><path d="M285.935,59.504l-17.212,-0c-0.69,-0 -1.19,-0.149 -1.498,-0.448c-0.309,-0.298 -0.463,-0.78 -0.463,-1.446l-0,-6.156c-0,-0.667 0.154,-1.149 0.463,-1.447c0.308,-0.298 0.808,-0.448 1.498,-0.448l14.652,0c0.472,0 0.826,-0.149 1.062,-0.447c0.236,-0.298 0.354,-0.657 0.354,-1.078c0,-0.597 -0.118,-1.035 -0.354,-1.316c-0.236,-0.28 -0.59,-0.438 -1.062,-0.473l-8.17,-1.105c-2.542,-0.351 -4.585,-1.158 -6.128,-2.42c-1.544,-1.263 -2.315,-3.368 -2.315,-6.314l-0,-5.525c-0,-2.981 0.998,-5.27 2.996,-6.866c1.997,-1.596 4.757,-2.394 8.279,-2.394l15.252,-0c0.69,-0 1.189,0.149 1.498,0.447c0.309,0.298 0.463,0.781 0.463,1.447l-0,6.261c-0,0.667 -0.154,1.149 -0.463,1.447c-0.309,0.298 -0.808,0.447 -1.498,0.447l-12.692,0c-0.472,0 -0.835,0.149 -1.089,0.448c-0.254,0.298 -0.382,0.675 -0.382,1.131c0,0.456 0.128,0.842 0.382,1.157c0.254,0.316 0.617,0.491 1.089,0.527l8.116,1.052c2.542,0.351 4.594,1.157 6.156,2.42c1.561,1.263 2.342,3.367 2.342,6.314l-0,5.524c-0,2.982 -1.008,5.271 -3.023,6.867c-2.016,1.596 -4.767,2.394 -8.253,2.394Z" style="fill-rule:nonzero;"/><path d="M283.116,47.892l0.001,0.001l-14.394,-0c-1.24,-0 -2.102,0.379 -2.656,0.915c-0.573,0.553 -0.972,1.409 -0.972,2.646c-0,-0 -0,6.156 -0,6.156c-0,1.236 0.399,2.092 0.972,2.645c0.554,0.536 1.416,0.915 2.656,0.915l17.212,0c3.93,0 7.015,-0.955 9.287,-2.754c2.405,-1.904 3.655,-4.615 3.655,-8.173c0,0 0,-5.524 0,-5.524c0,-3.573 -1.067,-6.079 -2.96,-7.61c-1.773,-1.433 -4.091,-2.377 -6.976,-2.775l-7.687,-0.997l12.035,0c1.24,0 2.101,-0.379 2.656,-0.915c0.572,-0.553 0.972,-1.409 0.972,-2.646c-0,0 -0,-6.261 -0,-6.261c-0,-1.236 -0.4,-2.092 -0.972,-2.646c-0.555,-0.535 -1.416,-0.915 -2.656,-0.915l-15.252,0c-3.972,0 -7.068,0.959 -9.32,2.759c-2.382,1.904 -3.622,4.612 -3.622,8.168c-0,0 -0,5.525 -0,5.525c-0,3.569 1.056,6.074 2.926,7.603c1.755,1.436 4.066,2.383 6.956,2.782l8.139,1.101Zm2.819,11.612l-17.212,-0c-0.69,-0 -1.19,-0.149 -1.498,-0.448c-0.309,-0.298 -0.463,-0.78 -0.463,-1.446l-0,-6.156c-0,-0.667 0.154,-1.149 0.463,-1.447c0.308,-0.298 0.808,-0.448 1.498,-0.448l14.652,0c0.472,0 0.826,-0.149 1.062,-0.447c0.236,-0.298 0.354,-0.657 0.354,-1.078c0,-0.597 -0.118,-1.035 -0.354,-1.316c-0.236,-0.28 -0.59,-0.438 -1.062,-0.473l-8.17,-1.105c-2.542,-0.351 -4.585,-1.158 -6.128,-2.42c-1.544,-1.263 -2.315,-3.368 -2.315,-6.314l-0,-5.525c-0,-2.981 0.998,-5.27 2.996,-6.866c1.997,-1.596 4.757,-2.394 8.279,-2.394l15.252,-0c0.69,-0 1.189,0.149 1.498,0.447c0.309,0.298 0.463,0.781 0.463,1.447l-0,6.261c-0,0.667 -0.154,1.149 -0.463,1.447c-0.309,0.298 -0.808,0.447 -1.498,0.447l-12.692,0c-0.472,0 -0.835,0.149 -1.089,0.448c-0.254,0.298 -0.382,0.675 -0.382,1.131c0,0.456 0.128,0.842 0.382,1.157c0.254,0.316 0.617,0.491 1.089,0.527l8.116,1.052c2.542,0.351 4.594,1.157 6.156,2.42c1.561,1.263 2.342,3.367 2.342,6.314l-0,5.524c-0,2.982 -1.008,5.271 -3.023,6.867c-2.016,1.596 -4.767,2.394 -8.253,2.394Z" style="fill:#808080;"/><path d="M304.238,59.504c-0.69,-0 -1.19,-0.149 -1.498,-0.448c-0.309,-0.298 -0.463,-0.78 -0.463,-1.446l-0,-6.262c-0,-0.666 0.154,-1.148 0.463,-1.447c0.308,-0.298 0.808,-0.447 1.498,-0.447l5.392,0l0,-17.678l-5.392,-0c-0.69,-0 -1.19,-0.149 -1.498,-0.448c-0.309,-0.298 -0.463,-0.78 -0.463,-1.446l-0,-6.367c-0,-0.666 0.154,-1.149 0.463,-1.447c0.308,-0.298 0.808,-0.447 1.498,-0.447l23.204,-0c0.69,-0 1.189,0.149 1.498,0.447c0.309,0.298 0.463,0.781 0.463,1.447l0,6.367c0,0.666 -0.154,1.148 -0.463,1.446c-0.309,0.299 -0.808,0.448 -1.498,0.448l-5.284,-0l0,17.678l5.284,0c0.69,0 1.189,0.149 1.498,0.447c0.309,0.299 0.463,0.781 0.463,1.447l0,6.262c0,0.666 -0.154,1.148 -0.463,1.446c-0.309,0.299 -0.808,0.448 -1.498,0.448l-23.204,-0Z" style="fill-rule:nonzero;"/><path d="M304.238,61.17l23.204,0c1.24,0 2.101,-0.379 2.656,-0.915c0.573,-0.553 0.972,-1.409 0.972,-2.645l-0,-6.262c-0,-1.236 -0.399,-2.092 -0.972,-2.645c-0.555,-0.536 -1.416,-0.915 -2.656,-0.915l-3.617,-0c0,-0 0,-14.346 0,-14.346c0,0 3.617,0 3.617,0c1.24,0 2.101,-0.379 2.656,-0.915c0.573,-0.553 0.972,-1.409 0.972,-2.645l-0,-6.367c-0,-1.236 -0.399,-2.092 -0.972,-2.646c-0.555,-0.535 -1.416,-0.915 -2.656,-0.915l-23.204,0c-1.24,0 -2.102,0.38 -2.656,0.915c-0.573,0.554 -0.972,1.41 -0.972,2.646c-0,0 -0,6.367 -0,6.367c-0,1.236 0.399,2.092 0.972,2.645c0.554,0.536 1.416,0.915 2.656,0.915c-0,0 3.725,0 3.725,0c0,0 0,14.346 0,14.346c0,-0 -3.725,-0 -3.725,-0c-1.24,-0 -2.102,0.379 -2.656,0.915c-0.573,0.553 -0.972,1.409 -0.972,2.645c-0,0 -0,6.262 -0,6.262c-0,1.236 0.399,2.092 0.972,2.645c0.554,0.536 1.416,0.915 2.656,0.915Zm-0,-1.666c-0.69,-0 -1.19,-0.149 -1.498,-0.448c-0.309,-0.298 -0.463,-0.78 -0.463,-1.446l-0,-6.262c-0,-0.666 0.154,-1.148 0.463,-1.447c0.308,-0.298 0.808,-0.447 1.498,-0.447l5.392,0l0,-17.678l-5.392,-0c-0.69,-0 -1.19,-0.149 -1.498,-0.448c-0.309,-0.298 -0.463,-0.78 -0.463,-1.446l-0,-6.367c-0,-0.666 0.154,-1.149 0.463,-1.447c0.308,-0.298 0.808,-0.447 1.498,-0.447l23.204,-0c0.69,-0 1.189,0.149 1.498,0.447c0.309,0.298 0.463,0.781 0.463,1.447l0,6.367c0,0.666 -0.154,1.148 -0.463,1.446c-0.309,0.299 -0.808,0.448 -1.498,0.448l-5.284,-0l0,17.678l5.284,0c0.69,0 1.189,0.149 1.498,0.447c0.309,0.299 0.463,0.781 0.463,1.447l0,6.262c0,0.666 -0.154,1.148 -0.463,1.446c-0.309,0.299 -0.808,0.448 -1.498,0.448l-23.204,-0Z" style="fill:#808080;"/><path d="M366.062,59.504l-17.158,-0c-4.54,-0 -7.908,-0.877 -10.105,-2.631c-2.197,-1.754 -3.295,-4.455 -3.295,-8.103l-0,-16.416c-0,-3.648 1.098,-6.348 3.295,-8.102c2.197,-1.754 5.565,-2.631 10.105,-2.631l13.617,-0c0.69,-0 1.189,0.149 1.498,0.447c0.309,0.298 0.463,0.781 0.463,1.447l0,6.367c0,0.666 -0.154,1.148 -0.463,1.446c-0.309,0.299 -0.808,0.448 -1.498,0.448l-11.33,-0c-1.125,-0 -1.961,0.219 -2.505,0.657c-0.545,0.439 -0.817,1.096 -0.817,1.973l-0,12.575c-0,0.877 0.208,1.526 0.626,1.947c0.418,0.421 1.044,0.631 1.879,0.631l5.284,0l-0,-8.207c-0,-0.667 0.154,-1.149 0.463,-1.447c0.309,-0.299 0.808,-0.448 1.498,-0.448l8.443,0c0.69,0 1.189,0.149 1.498,0.448c0.308,0.298 0.463,0.78 0.463,1.447l-0,16.258c-0,0.666 -0.155,1.148 -0.463,1.446c-0.309,0.299 -0.808,0.448 -1.498,0.448Z" style="fill-rule:nonzero;"/><path d="M366.062,61.17c1.24,0 2.101,-0.379 2.656,-0.915c0.572,-0.553 0.971,-1.409 0.971,-2.645c0,-0 0,-16.258 0,-16.258c0,-1.237 -0.399,-2.093 -0.971,-2.646c-0.555,-0.536 -1.416,-0.915 -2.656,-0.915c-0,-0 -8.443,-0 -8.443,-0c-1.24,-0 -2.101,0.379 -2.656,0.915c-0.573,0.553 -0.972,1.409 -0.972,2.646l0,6.541c0,-0 -3.617,-0 -3.617,-0c-0.299,-0 -0.546,0.012 -0.696,-0.139c-0.16,-0.162 -0.143,-0.436 -0.143,-0.773l0,-12.575c0,-0.288 0.017,-0.53 0.196,-0.674c0.313,-0.252 0.813,-0.29 1.46,-0.29c0,0 11.33,0 11.33,0c1.24,0 2.101,-0.379 2.656,-0.915c0.573,-0.553 0.972,-1.409 0.972,-2.645c-0,-0 -0,-6.367 -0,-6.367c-0,-1.236 -0.399,-2.092 -0.972,-2.646c-0.555,-0.535 -1.416,-0.915 -2.656,-0.915l-13.617,0c-5.017,0 -8.716,1.057 -11.145,2.995c-2.559,2.043 -3.922,5.156 -3.922,9.405l0,16.416c0,4.25 1.363,7.362 3.922,9.405c2.429,1.939 6.128,2.995 11.145,2.995l17.158,0Zm-0,-1.666l-17.158,-0c-4.54,-0 -7.908,-0.877 -10.105,-2.631c-2.197,-1.754 -3.295,-4.455 -3.295,-8.103l-0,-16.416c-0,-3.648 1.098,-6.348 3.295,-8.102c2.197,-1.754 5.565,-2.631 10.105,-2.631l13.617,-0c0.69,-0 1.189,0.149 1.498,0.447c0.309,0.298 0.463,0.781 0.463,1.447l0,6.367c0,0.666 -0.154,1.148 -0.463,1.446c-0.309,0.299 -0.808,0.448 -1.498,0.448l-11.33,-0c-1.125,-0 -1.961,0.219 -2.505,0.657c-0.545,0.439 -0.817,1.096 -0.817,1.973l-0,12.575c-0,0.877 0.208,1.526 0.626,1.947c0.418,0.421 1.044,0.631 1.879,0.631l5.284,0l-0,-8.207c-0,-0.667 0.154,-1.149 0.463,-1.447c0.309,-0.299 0.808,-0.448 1.498,-0.448l8.443,0c0.69,0 1.189,0.149 1.498,0.448c0.308,0.298 0.463,0.78 0.463,1.447l-0,16.258c-0,0.666 -0.155,1.148 -0.463,1.446c-0.309,0.299 -0.808,0.448 -1.498,0.448Z" style="fill:#808080;"/><path d="M384.8,59.504l-8.171,-0c-0.69,-0 -1.189,-0.149 -1.498,-0.448c-0.308,-0.298 -0.463,-0.78 -0.463,-1.446l0,-34.095c0,-0.666 0.155,-1.149 0.463,-1.447c0.309,-0.298 0.808,-0.447 1.498,-0.447l5.665,-0c0.69,-0 1.28,0.105 1.77,0.316c0.491,0.21 0.972,0.578 1.444,1.105l10.567,11.68l0,-11.207c0,-0.666 0.155,-1.149 0.463,-1.447c0.309,-0.298 0.808,-0.447 1.498,-0.447l8.171,-0c0.69,-0 1.189,0.149 1.498,0.447c0.308,0.298 0.463,0.781 0.463,1.447l-0,34.095c-0,0.666 -0.155,1.148 -0.463,1.446c-0.309,0.299 -0.808,0.448 -1.498,0.448l-8.171,-0c-0.69,-0 -1.189,-0.149 -1.498,-0.448c-0.308,-0.298 -0.463,-0.78 -0.463,-1.446l0,-6.472l-9.314,-10.891l-0,17.363c-0,0.666 -0.155,1.148 -0.463,1.446c-0.309,0.299 -0.808,0.448 -1.498,0.448Z" style="fill-rule:nonzero;"/><path d="M384.8,61.17c1.24,0 2.101,-0.379 2.656,-0.915c0.572,-0.553 0.971,-1.409 0.971,-2.645c0,-0 0,-12.85 0,-12.85c0,-0 5.982,6.993 5.982,6.993c-0,0 -0,5.857 -0,5.857c-0,1.236 0.399,2.092 0.971,2.645c0.555,0.536 1.416,0.915 2.656,0.915l8.171,0c1.24,0 2.101,-0.379 2.656,-0.915c0.572,-0.553 0.971,-1.409 0.971,-2.645l0,-34.095c0,-1.236 -0.399,-2.092 -0.971,-2.646c-0.555,-0.535 -1.416,-0.915 -2.656,-0.915l-8.171,0c-1.24,0 -2.101,0.38 -2.656,0.915c-0.572,0.554 -0.971,1.41 -0.971,2.646c-0,0 -0,6.881 -0,6.881c-0,-0 -7.665,-8.473 -7.665,-8.473c-0.654,-0.728 -1.338,-1.224 -2.022,-1.518c-0.673,-0.289 -1.48,-0.451 -2.428,-0.451l-5.665,0c-1.24,0 -2.101,0.38 -2.656,0.915c-0.572,0.554 -0.971,1.41 -0.971,2.646c-0,0 -0,34.095 -0,34.095c-0,1.236 0.399,2.092 0.971,2.645c0.555,0.536 1.416,0.915 2.656,0.915l8.171,0Zm-0,-1.666l-8.171,-0c-0.69,-0 -1.189,-0.149 -1.498,-0.448c-0.308,-0.298 -0.463,-0.78 -0.463,-1.446l0,-34.095c0,-0.666 0.155,-1.149 0.463,-1.447c0.309,-0.298 0.808,-0.447 1.498,-0.447l5.665,-0c0.69,-0 1.28,0.105 1.77,0.316c0.491,0.21 0.972,0.578 1.444,1.105l10.567,11.68l0,-11.207c0,-0.666 0.155,-1.149 0.463,-1.447c0.309,-0.298 0.808,-0.447 1.498,-0.447l8.171,-0c0.69,-0 1.189,0.149 1.498,0.447c0.308,0.298 0.463,0.781 0.463,1.447l-0,34.095c-0,0.666 -0.155,1.148 -0.463,1.446c-0.309,0.299 -0.808,0.448 -1.498,0.448l-8.171,-0c-0.69,-0 -1.189,-0.149 -1.498,-0.448c-0.308,-0.298 -0.463,-0.78 -0.463,-1.446l0,-6.472l-9.314,-10.891l-0,17.363c-0,0.666 -0.155,1.148 -0.463,1.446c-0.309,0.299 -0.808,0.448 -1.498,0.448Z" style="fill:#808080;"/></g></g></svg>