<?xml version="1.0" encoding="UTF-8" standalone="no"?><!DOCTYPE svg PUBLIC "-//W3C//DTD SVG 1.1//EN" "http://www.w3.org/Graphics/SVG/1.1/DTD/svg11.dtd"><svg width="100%" height="100%" viewBox="0 0 437 82" version="1.1" xmlns="http://www.w3.org/2000/svg" xmlns:xlink="http://www.w3.org/1999/xlink" xml:space="preserve" xmlns:serif="http://www.serif.com/" style="fill-rule:evenodd;clip-rule:evenodd;stroke-linejoin:round;stroke-miterlimit:2;"><g><path d="M436.81,20.281c0,-11.193 -9.087,-20.281 -20.281,-20.281l-396.248,0c-11.193,0 -20.281,9.088 -20.281,20.281l-0,40.562c-0,11.194 9.088,20.282 20.281,20.282l396.248,-0c11.194,-0 20.281,-9.088 20.281,-20.282l0,-40.562Z" style="fill:#fff;"/><g><path d="M40.567,59.504l-17.213,-0c-0.69,-0 -1.189,-0.149 -1.498,-0.448c-0.308,-0.298 -0.463,-0.78 -0.463,-1.446l0,-6.156c0,-0.667 0.155,-1.149 0.463,-1.447c0.309,-0.298 0.808,-0.448 1.498,-0.448l14.653,0c0.472,0 0.826,-0.149 1.062,-0.447c0.236,-0.298 0.354,-0.657 0.354,-1.078c0,-0.597 -0.118,-1.035 -0.354,-1.316c-0.236,-0.28 -0.59,-0.438 -1.062,-0.473l-8.171,-1.105c-2.542,-0.351 -4.584,-1.158 -6.128,-2.42c-1.543,-1.263 -2.315,-3.368 -2.315,-6.314l0,-5.525c0,-2.981 0.999,-5.27 2.996,-6.866c1.998,-1.596 4.757,-2.394 8.28,-2.394l15.252,-0c0.69,-0 1.189,0.149 1.498,0.447c0.308,0.298 0.463,0.781 0.463,1.447l-0,6.261c-0,0.667 -0.155,1.149 -0.463,1.447c-0.309,0.298 -0.808,0.447 -1.498,0.447l-12.692,0c-0.472,0 -0.835,0.149 -1.089,0.448c-0.255,0.298 -0.382,0.675 -0.382,1.131c0,0.456 0.127,0.842 0.382,1.157c0.254,0.316 0.617,0.491 1.089,0.527l8.116,1.052c2.542,0.351 4.594,1.157 6.155,2.42c1.562,1.263 2.343,3.367 2.343,6.314l-0,5.524c-0,2.982 -1.008,5.271 -3.024,6.867c-2.015,1.596 -4.766,2.394 -8.252,2.394Z" style="fill-rule:nonzero;"/><path d="M37.748,47.892l0,0.001l-14.394,-0c-1.239,-0 -2.101,0.379 -2.655,0.915c-0.573,0.553 -0.972,1.409 -0.972,2.646l-0,6.156c-0,1.236 0.399,2.092 0.972,2.645c0.554,0.536 1.416,0.915 2.655,0.915c0,0 17.213,0 17.213,0c3.93,0 7.015,-0.955 9.287,-2.754c2.405,-1.904 3.655,-4.615 3.655,-8.173l0,-5.524c0,-3.573 -1.067,-6.079 -2.961,-7.61c-1.772,-1.433 -4.09,-2.377 -6.975,-2.775l-7.687,-0.997l12.035,0c1.24,0 2.101,-0.379 2.656,-0.915c0.572,-0.553 0.971,-1.409 0.971,-2.646c0,0 0,-6.261 0,-6.261c0,-1.236 -0.399,-2.092 -0.971,-2.646c-0.555,-0.535 -1.416,-0.915 -2.656,-0.915l-15.252,0c-3.973,0 -7.068,0.959 -9.32,2.759c-2.382,1.904 -3.622,4.612 -3.622,8.168l-0,5.525c-0,3.569 1.056,6.074 2.926,7.603c1.755,1.436 4.065,2.383 6.956,2.782l8.139,1.101Zm2.819,11.612l-17.213,-0c-0.69,-0 -1.189,-0.149 -1.498,-0.448c-0.308,-0.298 -0.463,-0.78 -0.463,-1.446l0,-6.156c0,-0.667 0.155,-1.149 0.463,-1.447c0.309,-0.298 0.808,-0.448 1.498,-0.448l14.653,0c0.472,0 0.826,-0.149 1.062,-0.447c0.236,-0.298 0.354,-0.657 0.354,-1.078c0,-0.597 -0.118,-1.035 -0.354,-1.316c-0.236,-0.28 -0.59,-0.438 -1.062,-0.473l-8.171,-1.105c-2.542,-0.351 -4.584,-1.158 -6.128,-2.42c-1.543,-1.263 -2.315,-3.368 -2.315,-6.314l0,-5.525c0,-2.981 0.999,-5.27 2.996,-6.866c1.998,-1.596 4.757,-2.394 8.28,-2.394l15.252,-0c0.69,-0 1.189,0.149 1.498,0.447c0.308,0.298 0.463,0.781 0.463,1.447l-0,6.261c-0,0.667 -0.155,1.149 -0.463,1.447c-0.309,0.298 -0.808,0.447 -1.498,0.447l-12.692,0c-0.472,0 -0.835,0.149 -1.089,0.448c-0.255,0.298 -0.382,0.675 -0.382,1.131c0,0.456 0.127,0.842 0.382,1.157c0.254,0.316 0.617,0.491 1.089,0.527l8.116,1.052c2.542,0.351 4.594,1.157 6.155,2.42c1.562,1.263 2.343,3.367 2.343,6.314l-0,5.524c-0,2.982 -1.008,5.271 -3.024,6.867c-2.015,1.596 -4.766,2.394 -8.252,2.394Z" style="fill:#808080;"/><path d="M71.997,32.67l-2.56,7.998l8.552,-0l-2.561,-7.998c-0.145,-0.316 -0.299,-0.544 -0.463,-0.684c-0.163,-0.14 -0.354,-0.21 -0.572,-0.21l-1.361,-0c-0.218,-0 -0.409,0.07 -0.572,0.21c-0.164,0.14 -0.318,0.368 -0.463,0.684Zm-3.105,24.94c-0,0.666 -0.154,1.148 -0.463,1.446c-0.309,0.299 -0.808,0.448 -1.498,0.448l-8.007,-0c-0.69,-0 -1.189,-0.149 -1.498,-0.448c-0.309,-0.298 -0.463,-0.78 -0.463,-1.446l-0,-13.891c-0,-1.052 0.172,-2.262 0.517,-3.63c0.345,-1.368 0.881,-2.964 1.607,-4.788l4.739,-11.944c0.218,-0.596 0.554,-1.034 1.008,-1.315c0.454,-0.281 1.044,-0.421 1.77,-0.421l14.653,-0c0.69,-0 1.262,0.14 1.716,0.421c0.454,0.281 0.789,0.719 1.007,1.315l4.739,11.944c0.727,1.824 1.262,3.42 1.607,4.788c0.345,1.368 0.518,2.578 0.518,3.63l-0,13.891c-0,0.666 -0.155,1.148 -0.463,1.446c-0.309,0.299 -0.808,0.448 -1.498,0.448l-8.225,-0c-0.727,-0 -1.262,-0.149 -1.607,-0.448c-0.345,-0.298 -0.518,-0.78 -0.518,-1.446l0,-7.367l-9.641,0l-0,7.367Z" style="fill-rule:nonzero;"/><path d="M70.559,57.61l-0,-5.7c-0,0 6.308,0 6.308,0c-0,0 -0,5.7 -0,5.7c-0,1.266 0.438,2.141 1.094,2.707c0.585,0.506 1.465,0.853 2.697,0.853c-0,0 8.225,0 8.225,0c1.24,0 2.101,-0.379 2.656,-0.915c0.572,-0.553 0.971,-1.409 0.971,-2.645l0,-13.891c0,-1.17 -0.184,-2.517 -0.568,-4.038c-0.36,-1.427 -0.916,-3.093 -1.674,-4.997c0,0.002 -4.732,-11.924 -4.732,-11.924c-0.362,-0.976 -0.941,-1.674 -1.687,-2.136c-0.688,-0.425 -1.547,-0.67 -2.592,-0.67l-14.653,0c-1.09,0 -1.965,0.249 -2.647,0.67c-0.749,0.464 -1.33,1.167 -1.692,2.149c0.005,-0.013 -4.727,11.913 -4.727,11.913c-0.757,1.902 -1.314,3.568 -1.674,4.995c-0.383,1.521 -0.568,2.868 -0.568,4.038l0,13.891c0,1.236 0.399,2.092 0.972,2.645c0.555,0.536 1.416,0.915 2.656,0.915c-0,0 8.007,0 8.007,0c1.24,0 2.101,-0.379 2.656,-0.915c0.573,-0.553 0.972,-1.409 0.972,-2.645Zm-1.667,-0c-0,0.666 -0.154,1.148 -0.463,1.446c-0.309,0.299 -0.808,0.448 -1.498,0.448l-8.007,-0c-0.69,-0 -1.189,-0.149 -1.498,-0.448c-0.309,-0.298 -0.463,-0.78 -0.463,-1.446l-0,-13.891c-0,-1.052 0.172,-2.262 0.517,-3.63c0.345,-1.368 0.881,-2.964 1.607,-4.788l4.739,-11.944c0.218,-0.596 0.554,-1.034 1.008,-1.315c0.454,-0.281 1.044,-0.421 1.77,-0.421l14.653,-0c0.69,-0 1.262,0.14 1.716,0.421c0.454,0.281 0.789,0.719 1.007,1.315l4.739,11.944c0.727,1.824 1.262,3.42 1.607,4.788c0.345,1.368 0.518,2.578 0.518,3.63l-0,13.891c-0,0.666 -0.155,1.148 -0.463,1.446c-0.309,0.299 -0.808,0.448 -1.498,0.448l-8.225,-0c-0.727,-0 -1.262,-0.149 -1.607,-0.448c-0.345,-0.298 -0.518,-0.78 -0.518,-1.446l0,-7.367l-9.641,0l-0,7.367Zm3.105,-24.94l-2.56,7.998l8.552,-0l-2.561,-7.998c-0.145,-0.316 -0.299,-0.544 -0.463,-0.684c-0.163,-0.14 -0.354,-0.21 -0.572,-0.21l-1.361,-0c-0.218,-0 -0.409,0.07 -0.572,0.21c-0.164,0.14 -0.318,0.368 -0.463,0.684Zm1.928,0.772l1.78,5.559c0,-0 -3.985,-0 -3.985,-0l1.78,-5.559l0.425,0Z" style="fill:#808080;"/><path d="M119.795,59.504l-14.163,-0c-0.69,-0 -1.261,-0.123 -1.715,-0.369c-0.454,-0.245 -0.808,-0.701 -1.063,-1.368l-5.338,-12.89c-0.327,-0.772 -0.599,-1.447 -0.817,-2.026c-0.218,-0.579 -0.399,-1.131 -0.544,-1.657c-0.146,-0.526 -0.246,-1.079 -0.3,-1.658c-0.055,-0.578 -0.082,-1.289 -0.082,-2.131l0,-13.89c0,-0.666 0.155,-1.149 0.463,-1.447c0.309,-0.298 0.808,-0.447 1.498,-0.447l8.661,-0c0.69,-0 1.217,0.149 1.58,0.447c0.363,0.298 0.544,0.781 0.544,1.447l0,14.522c0,0.351 0.037,0.701 0.109,1.052c0.073,0.351 0.182,0.719 0.327,1.105l2.56,7.366c0.109,0.351 0.236,0.588 0.382,0.71c0.145,0.123 0.363,0.185 0.653,0.185l0.599,-0c0.291,-0 0.509,-0.062 0.654,-0.185c0.145,-0.122 0.272,-0.359 0.381,-0.71l2.56,-7.419c0.146,-0.385 0.255,-0.754 0.327,-1.105c0.073,-0.35 0.109,-0.701 0.109,-1.052l0,-14.469c0,-0.666 0.155,-1.149 0.463,-1.447c0.309,-0.298 0.808,-0.447 1.498,-0.447l8.552,-0c0.69,-0 1.189,0.149 1.498,0.447c0.309,0.298 0.463,0.781 0.463,1.447l0,13.89c0,0.842 -0.027,1.553 -0.082,2.131c-0.054,0.579 -0.154,1.132 -0.299,1.658c-0.145,0.526 -0.327,1.078 -0.545,1.657c-0.218,0.579 -0.49,1.254 -0.817,2.026l-5.338,12.89c-0.254,0.667 -0.608,1.123 -1.062,1.368c-0.454,0.246 -1.026,0.369 -1.716,0.369Z" style="fill-rule:nonzero;"/><path d="M112.849,46.321l-2.32,-6.674c-0.004,-0.014 -0.009,-0.027 -0.014,-0.04c-0.113,-0.299 -0.198,-0.584 -0.255,-0.856c-0.049,-0.238 -0.074,-0.476 -0.074,-0.714c0,-0 0,-14.522 0,-14.522c0,-1.279 -0.456,-2.162 -1.154,-2.735c-0.611,-0.502 -1.476,-0.826 -2.637,-0.826l-8.661,0c-1.24,0 -2.101,0.38 -2.656,0.915c-0.572,0.554 -0.971,1.41 -0.971,2.646c-0,0 -0,13.89 -0,13.89c-0,0.904 0.03,1.666 0.089,2.287c0.064,0.68 0.182,1.328 0.352,1.945c0.158,0.572 0.355,1.172 0.591,1.801c0.224,0.595 0.504,1.289 0.84,2.082c-0,-0 5.328,12.867 5.328,12.867c0.425,1.098 1.065,1.808 1.817,2.214c0.665,0.36 1.497,0.569 2.508,0.569c0,0 14.163,0 14.163,0c1.011,0 1.843,-0.209 2.509,-0.569c0.755,-0.408 1.398,-1.123 1.822,-2.23c-0.006,0.016 5.323,-12.851 5.323,-12.851c0.335,-0.793 0.615,-1.487 0.839,-2.082c0.237,-0.629 0.433,-1.229 0.591,-1.801c0.171,-0.617 0.289,-1.265 0.353,-1.945c0.058,-0.621 0.089,-1.383 0.089,-2.287c-0,0 -0,-13.89 -0,-13.89c-0,-1.236 -0.399,-2.092 -0.972,-2.646c-0.555,-0.535 -1.416,-0.915 -2.656,-0.915l-8.552,0c-1.24,0 -2.101,0.38 -2.656,0.915c-0.572,0.554 -0.971,1.41 -0.971,2.646c-0,0 -0,14.469 -0,14.469c-0,0.238 -0.025,0.476 -0.075,0.715c-0.056,0.271 -0.142,0.556 -0.254,0.855c-0.006,0.015 -0.011,0.029 -0.016,0.044l-2.32,6.723Zm6.946,13.183l-14.163,-0c-0.69,-0 -1.261,-0.123 -1.715,-0.369c-0.454,-0.245 -0.808,-0.701 -1.063,-1.368l-5.338,-12.89c-0.327,-0.772 -0.599,-1.447 -0.817,-2.026c-0.218,-0.579 -0.399,-1.131 -0.544,-1.657c-0.146,-0.526 -0.246,-1.079 -0.3,-1.658c-0.055,-0.578 -0.082,-1.289 -0.082,-2.131l0,-13.89c0,-0.666 0.155,-1.149 0.463,-1.447c0.309,-0.298 0.808,-0.447 1.498,-0.447l8.661,-0c0.69,-0 1.217,0.149 1.58,0.447c0.363,0.298 0.544,0.781 0.544,1.447l0,14.522c0,0.351 0.037,0.701 0.109,1.052c0.073,0.351 0.182,0.719 0.327,1.105l2.56,7.366c0.109,0.351 0.236,0.588 0.382,0.71c0.145,0.123 0.363,0.185 0.653,0.185l0.599,-0c0.291,-0 0.509,-0.062 0.654,-0.185c0.145,-0.122 0.272,-0.359 0.381,-0.71l2.56,-7.419c0.146,-0.385 0.255,-0.754 0.327,-1.105c0.073,-0.35 0.109,-0.701 0.109,-1.052l0,-14.469c0,-0.666 0.155,-1.149 0.463,-1.447c0.309,-0.298 0.808,-0.447 1.498,-0.447l8.552,-0c0.69,-0 1.189,0.149 1.498,0.447c0.309,0.298 0.463,0.781 0.463,1.447l0,13.89c0,0.842 -0.027,1.553 -0.082,2.131c-0.054,0.579 -0.154,1.132 -0.299,1.658c-0.145,0.526 -0.327,1.078 -0.545,1.657c-0.218,0.579 -0.49,1.254 -0.817,2.026l-5.338,12.89c-0.254,0.667 -0.608,1.123 -1.062,1.368c-0.454,0.246 -1.026,0.369 -1.716,0.369Z" style="fill:#808080;"/><path d="M163.589,59.504l-25.274,-0c-0.69,-0 -1.189,-0.149 -1.498,-0.448c-0.309,-0.298 -0.463,-0.78 -0.463,-1.446l-0,-34.095c-0,-0.666 0.154,-1.149 0.463,-1.447c0.309,-0.298 0.808,-0.447 1.498,-0.447l25.274,-0c0.69,-0 1.19,0.149 1.498,0.447c0.309,0.298 0.463,0.781 0.463,1.447l0,6.156c0,0.666 -0.154,1.149 -0.463,1.447c-0.308,0.298 -0.808,0.447 -1.498,0.447l-15.034,0l0,4.052l10.622,-0c0.69,-0 1.189,0.149 1.498,0.447c0.309,0.298 0.463,0.78 0.463,1.447l0,5.629c0,0.667 -0.154,1.149 -0.463,1.447c-0.309,0.298 -0.808,0.448 -1.498,0.448l-10.622,-0l0,4.524l15.034,0c0.69,0 1.19,0.15 1.498,0.448c0.309,0.298 0.463,0.78 0.463,1.447l0,6.156c0,0.666 -0.154,1.148 -0.463,1.446c-0.308,0.299 -0.808,0.448 -1.498,0.448Z" style="fill-rule:nonzero;"/><path d="M163.589,61.17c1.24,0 2.102,-0.379 2.656,-0.915c0.573,-0.553 0.972,-1.409 0.972,-2.645l-0,-6.156c-0,-1.237 -0.399,-2.093 -0.972,-2.646c-0.554,-0.536 -1.416,-0.915 -2.656,-0.915l-13.367,-0c0,-0 0,-1.192 0,-1.192c0,0 8.955,0 8.955,0c1.24,0 2.101,-0.379 2.656,-0.915c0.573,-0.553 0.972,-1.409 0.972,-2.646c-0,0 -0,-5.629 -0,-5.629c-0,-1.237 -0.399,-2.093 -0.972,-2.646c-0.555,-0.536 -1.416,-0.915 -2.656,-0.915l-8.955,-0c0,-0 0,-0.718 0,-0.718c0,-0 13.367,-0 13.367,-0c1.24,-0 2.102,-0.38 2.656,-0.915c0.573,-0.553 0.972,-1.41 0.972,-2.646l-0,-6.156c-0,-1.236 -0.399,-2.092 -0.972,-2.646c-0.554,-0.535 -1.416,-0.915 -2.656,-0.915l-25.274,0c-1.24,0 -2.101,0.38 -2.656,0.915c-0.573,0.554 -0.972,1.41 -0.972,2.646c0,0 0,34.095 0,34.095c0,1.236 0.399,2.092 0.972,2.645c0.555,0.536 1.416,0.915 2.656,0.915c-0,0 25.274,0 25.274,0Zm0,-1.666l-25.274,-0c-0.69,-0 -1.189,-0.149 -1.498,-0.448c-0.309,-0.298 -0.463,-0.78 -0.463,-1.446l-0,-34.095c-0,-0.666 0.154,-1.149 0.463,-1.447c0.309,-0.298 0.808,-0.447 1.498,-0.447l25.274,-0c0.69,-0 1.19,0.149 1.498,0.447c0.309,0.298 0.463,0.781 0.463,1.447l0,6.156c0,0.666 -0.154,1.149 -0.463,1.447c-0.308,0.298 -0.808,0.447 -1.498,0.447l-15.034,0l0,4.052l10.622,-0c0.69,-0 1.189,0.149 1.498,0.447c0.309,0.298 0.463,0.78 0.463,1.447l0,5.629c0,0.667 -0.154,1.149 -0.463,1.447c-0.309,0.298 -0.808,0.448 -1.498,0.448l-10.622,-0l0,4.524l15.034,0c0.69,0 1.19,0.15 1.498,0.448c0.309,0.298 0.463,0.78 0.463,1.447l0,6.156c0,0.666 -0.154,1.148 -0.463,1.446c-0.308,0.299 -0.808,0.448 -1.498,0.448Z" style="fill:#808080;"/><path d="M209.369,59.341l-15.164,0c-0.739,0 -1.351,-0.122 -1.837,-0.365c-0.486,-0.243 -0.865,-0.696 -1.137,-1.356l-5.716,-12.78c-0.35,-0.765 -0.642,-1.435 -0.875,-2.009c-0.233,-0.573 -0.428,-1.121 -0.583,-1.643c-0.156,-0.521 -0.262,-1.069 -0.321,-1.643c-0.058,-0.574 -0.087,-1.278 -0.087,-2.112l-0,-13.772c-0,-0.66 0.165,-1.138 0.495,-1.434c0.331,-0.296 0.866,-0.443 1.604,-0.443l9.274,-0c0.738,-0 1.302,0.147 1.691,0.443c0.389,0.296 0.583,0.774 0.583,1.434l0,14.397c0,0.348 0.039,0.696 0.117,1.044c0.078,0.347 0.194,0.713 0.35,1.095l2.741,7.303c0.117,0.348 0.253,0.583 0.408,0.704c0.156,0.122 0.389,0.183 0.7,0.183l0.642,-0c0.311,-0 0.544,-0.061 0.699,-0.183c0.156,-0.121 0.292,-0.356 0.409,-0.704l2.741,-7.355c0.155,-0.383 0.272,-0.748 0.35,-1.095c0.078,-0.348 0.116,-0.696 0.116,-1.044l0,-14.345c0,-0.66 0.166,-1.138 0.496,-1.434c0.331,-0.296 0.865,-0.443 1.604,-0.443l9.157,-0c0.738,-0 1.273,0.147 1.604,0.443c0.33,0.296 0.495,0.774 0.495,1.434l0,13.772c0,0.834 -0.029,1.538 -0.087,2.112c-0.059,0.574 -0.165,1.122 -0.321,1.643c-0.156,0.522 -0.35,1.07 -0.583,1.643c-0.234,0.574 -0.525,1.244 -0.875,2.009l-5.716,12.78c-0.272,0.66 -0.651,1.113 -1.137,1.356c-0.486,0.243 -1.098,0.365 -1.837,0.365Z" style="fill-rule:nonzero;stroke:#808080;stroke-width:1.67px;"/><path d="M256.26,59.341l-27.061,0c-0.739,0 -1.274,-0.148 -1.604,-0.443c-0.331,-0.296 -0.496,-0.774 -0.496,-1.435l-0,-33.802c-0,-0.66 0.165,-1.138 0.496,-1.434c0.33,-0.296 0.865,-0.443 1.604,-0.443l27.061,-0c0.739,-0 1.274,0.147 1.604,0.443c0.331,0.296 0.496,0.774 0.496,1.434l-0,6.104c-0,0.66 -0.165,1.138 -0.496,1.434c-0.33,0.296 -0.865,0.443 -1.604,0.443l-16.097,0l0,4.017l11.373,-0c0.739,-0 1.273,0.148 1.604,0.443c0.33,0.296 0.496,0.774 0.496,1.435l-0,5.581c-0,0.661 -0.166,1.139 -0.496,1.435c-0.331,0.295 -0.865,0.443 -1.604,0.443l-11.373,0l0,4.486l16.097,0c0.739,0 1.274,0.148 1.604,0.444c0.331,0.295 0.496,0.773 0.496,1.434l-0,6.103c-0,0.661 -0.165,1.139 -0.496,1.435c-0.33,0.295 -0.865,0.443 -1.604,0.443Z" style="fill-rule:nonzero;stroke:#808080;stroke-width:1.67px;"/><path d="M292.668,59.341l-14.231,0c-4.86,0 -8.466,-0.869 -10.819,-2.608c-2.352,-1.739 -3.528,-4.417 -3.528,-8.033l-0,-16.223c-0,-3.617 1.176,-6.303 3.528,-8.059c2.353,-1.756 5.959,-2.634 10.819,-2.634l14.231,-0c0.739,-0 1.273,0.147 1.604,0.443c0.33,0.296 0.496,0.774 0.496,1.434l-0,6.312c-0,0.661 -0.166,1.139 -0.496,1.435c-0.331,0.295 -0.865,0.443 -1.604,0.443l-11.723,0c-1.205,0 -2.099,0.217 -2.683,0.652c-0.583,0.435 -0.875,1.087 -0.875,1.956l0,12.415c0,0.869 0.292,1.504 0.875,1.904c0.584,0.4 1.478,0.6 2.683,0.6l11.723,-0c0.739,-0 1.273,0.148 1.604,0.443c0.33,0.296 0.496,0.774 0.496,1.435l-0,6.207c-0,0.661 -0.166,1.139 -0.496,1.435c-0.331,0.295 -0.865,0.443 -1.604,0.443Z" style="fill-rule:nonzero;stroke:#808080;stroke-width:1.67px;"/><path d="M321.188,59.341l-9.449,0c-0.738,0 -1.273,-0.148 -1.604,-0.443c-0.33,-0.296 -0.495,-0.774 -0.495,-1.435l-0,-25.612l-8.574,0c-0.738,0 -1.273,-0.148 -1.604,-0.443c-0.33,-0.296 -0.495,-0.774 -0.495,-1.435l-0,-6.312c-0,-0.66 0.165,-1.138 0.495,-1.434c0.331,-0.296 0.866,-0.443 1.604,-0.443l30.795,-0c0.738,-0 1.273,0.147 1.603,0.443c0.331,0.296 0.496,0.774 0.496,1.434l0,6.312c0,0.661 -0.165,1.139 -0.496,1.435c-0.33,0.295 -0.865,0.443 -1.603,0.443l-8.574,0l0,25.612c0,0.661 -0.165,1.139 -0.496,1.435c-0.33,0.295 -0.865,0.443 -1.603,0.443Z" style="fill-rule:nonzero;stroke:#808080;stroke-width:1.67px;"/><path d="M374.684,49.482c-0,1.6 -0.263,3.052 -0.788,4.356c-0.524,1.304 -1.458,2.417 -2.799,3.338c-1.341,0.922 -3.188,1.643 -5.541,2.165c-2.352,0.522 -5.336,0.783 -8.952,0.783c-3.616,-0 -6.61,-0.261 -8.982,-0.783c-2.372,-0.522 -4.228,-1.243 -5.57,-2.165c-1.341,-0.921 -2.274,-2.034 -2.799,-3.338c-0.525,-1.304 -0.787,-2.756 -0.787,-4.356l-0,-17.787c-0,-1.6 0.262,-3.052 0.787,-4.356c0.525,-1.304 1.458,-2.426 2.799,-3.365c1.342,-0.939 3.198,-1.669 5.57,-2.19c2.372,-0.522 5.366,-0.783 8.982,-0.783c3.616,0 6.6,0.261 8.952,0.783c2.353,0.521 4.2,1.251 5.541,2.19c1.341,0.939 2.275,2.061 2.799,3.365c0.525,1.304 0.788,2.756 0.788,4.356l-0,17.787Zm-22.979,-1.878c-0,0.696 0.291,1.278 0.875,1.748c0.583,0.469 1.924,0.704 4.024,0.704c2.1,0 3.441,-0.235 4.024,-0.704c0.583,-0.47 0.875,-1.052 0.875,-1.748l-0,-14.032c-0,-0.66 -0.292,-1.225 -0.875,-1.695c-0.583,-0.469 -1.924,-0.704 -4.024,-0.704c-2.1,-0 -3.441,0.235 -4.024,0.704c-0.584,0.47 -0.875,1.035 -0.875,1.695l-0,14.032Z" style="fill-rule:nonzero;stroke:#808080;stroke-width:1.67px;"/><path d="M395.272,31.173l-0,6.677l4.374,-0c1.011,-0 1.691,-0.235 2.041,-0.704c0.35,-0.47 0.525,-1.052 0.525,-1.748l0,-1.773c0,-0.696 -0.175,-1.278 -0.525,-1.748c-0.35,-0.469 -1.03,-0.704 -2.041,-0.704l-4.374,-0Zm-2.1,28.168l-8.982,0c-0.738,0 -1.273,-0.148 -1.603,-0.443c-0.331,-0.296 -0.496,-0.774 -0.496,-1.435l-0,-33.802c-0,-0.66 0.165,-1.138 0.496,-1.434c0.33,-0.296 0.865,-0.443 1.603,-0.443l19.422,-0c4.355,-0 7.358,0.808 9.011,2.425c1.652,1.617 2.478,3.712 2.478,6.286l0,2.399c0,1.461 -0.243,2.704 -0.729,3.73c-0.486,1.026 -1.331,1.765 -2.537,2.217c2.1,0.209 3.801,0.974 5.103,2.295c1.303,1.322 1.954,3.078 1.954,5.269l0,11.058c0,0.661 -0.165,1.139 -0.495,1.435c-0.331,0.295 -0.866,0.443 -1.604,0.443l-9.04,0c-0.739,0 -1.274,-0.148 -1.604,-0.443c-0.331,-0.296 -0.496,-0.774 -0.496,-1.435l0,-7.981c0,-0.765 -0.165,-1.33 -0.496,-1.695c-0.33,-0.365 -0.904,-0.548 -1.72,-0.548l-8.165,0l-0,10.224c-0,0.661 -0.166,1.139 -0.496,1.435c-0.331,0.295 -0.865,0.443 -1.604,0.443Z" style="fill-rule:nonzero;stroke:#808080;stroke-width:1.67px;"/></g></g></svg>