<?xml version="1.0" encoding="UTF-8" standalone="no"?>
<!DOCTYPE svg PUBLIC "-//W3C//DTD SVG 1.1//EN" "http://www.w3.org/Graphics/SVG/1.1/DTD/svg11.dtd">
<svg width="100%" height="100%" viewBox="0 0 472 43" version="1.1" xmlns="http://www.w3.org/2000/svg" xmlns:xlink="http://www.w3.org/1999/xlink" xml:space="preserve" xmlns:serif="http://www.serif.com/" style="fill-rule:evenodd;clip-rule:evenodd;stroke-linejoin:round;stroke-miterlimit:2;">
    <g transform="matrix(1,0,0,1,-694.115,-579.16)">
        <g>
            <path d="M713.521,618.365L696.1,618.365C695.401,618.365 694.896,618.213 694.584,617.91C694.271,617.606 694.115,617.116 694.115,616.438L694.115,610.175C694.115,609.497 694.271,609.007 694.584,608.703C694.896,608.4 695.401,608.248 696.1,608.248L710.93,608.248C711.408,608.248 711.766,608.097 712.005,607.794C712.244,607.49 712.363,607.124 712.363,606.696C712.363,606.09 712.244,605.644 712.005,605.358C711.766,605.073 711.408,604.912 710.93,604.876L702.66,603.752C700.087,603.396 698.02,602.575 696.458,601.29C694.896,600.006 694.115,597.865 694.115,594.867L694.115,589.247C694.115,586.214 695.126,583.886 697.147,582.262C699.169,580.638 701.962,579.827 705.527,579.827L720.964,579.827C721.662,579.827 722.167,579.978 722.48,580.282C722.792,580.585 722.948,581.076 722.948,581.754L722.948,588.123C722.948,588.801 722.792,589.292 722.48,589.595C722.167,589.898 721.662,590.05 720.964,590.05L708.118,590.05C707.64,590.05 707.273,590.202 707.016,590.505C706.758,590.808 706.63,591.192 706.63,591.656C706.63,592.12 706.758,592.512 707.016,592.833C707.273,593.154 707.64,593.333 708.118,593.368L716.333,594.439C718.905,594.796 720.982,595.617 722.562,596.901C724.143,598.186 724.933,600.327 724.933,603.324L724.933,608.944C724.933,611.977 723.913,614.306 721.873,615.929C719.833,617.553 717.049,618.365 713.521,618.365ZM745.331,591.067L742.74,599.203L751.396,599.203L748.805,591.067C748.658,590.746 748.501,590.514 748.336,590.371C748.171,590.228 747.978,590.157 747.757,590.157L746.379,590.157C746.158,590.157 745.965,590.228 745.8,590.371C745.635,590.514 745.478,590.746 745.331,591.067ZM742.189,616.438C742.189,617.116 742.033,617.606 741.72,617.91C741.408,618.213 740.902,618.365 740.204,618.365L732.1,618.365C731.402,618.365 730.896,618.213 730.584,617.91C730.271,617.606 730.115,617.116 730.115,616.438L730.115,602.307C730.115,601.237 730.29,600.006 730.639,598.614C730.988,597.222 731.53,595.599 732.265,593.743L737.062,581.593C737.282,580.986 737.622,580.54 738.082,580.255C738.541,579.969 739.138,579.827 739.873,579.827L754.704,579.827C755.402,579.827 755.981,579.969 756.44,580.255C756.9,580.54 757.24,580.986 757.46,581.593L762.256,593.743C762.991,595.599 763.534,597.222 763.883,598.614C764.232,600.006 764.407,601.237 764.407,602.307L764.407,616.438C764.407,617.116 764.25,617.606 763.938,617.91C763.625,618.213 763.12,618.365 762.422,618.365L754.097,618.365C753.362,618.365 752.82,618.213 752.471,617.91C752.122,617.606 751.947,617.116 751.947,616.438L751.947,608.944L742.189,608.944L742.189,616.438ZM794.138,618.365L779.804,618.365C779.106,618.365 778.527,618.24 778.067,617.99C777.608,617.74 777.25,617.276 776.992,616.598L771.59,603.485C771.259,602.7 770.983,602.013 770.763,601.424C770.542,600.835 770.358,600.273 770.211,599.738C770.064,599.203 769.963,598.641 769.908,598.052C769.853,597.463 769.825,596.741 769.825,595.884L769.825,581.754C769.825,581.076 769.982,580.585 770.294,580.282C770.606,579.978 771.112,579.827 771.81,579.827L780.576,579.827C781.274,579.827 781.807,579.978 782.175,580.282C782.542,580.585 782.726,581.076 782.726,581.754L782.726,596.526C782.726,596.883 782.763,597.24 782.836,597.597C782.91,597.954 783.02,598.328 783.167,598.721L785.758,606.215C785.868,606.571 785.997,606.812 786.144,606.937C786.291,607.062 786.512,607.124 786.806,607.124L787.412,607.124C787.706,607.124 787.927,607.062 788.074,606.937C788.221,606.812 788.349,606.571 788.46,606.215L791.051,598.667C791.198,598.275 791.308,597.9 791.381,597.543C791.455,597.187 791.492,596.83 791.492,596.473L791.492,581.754C791.492,581.076 791.648,580.585 791.96,580.282C792.273,579.978 792.778,579.827 793.476,579.827L802.132,579.827C802.83,579.827 803.336,579.978 803.648,580.282C803.96,580.585 804.117,581.076 804.117,581.754L804.117,595.884C804.117,596.741 804.089,597.463 804.034,598.052C803.979,598.641 803.878,599.203 803.731,599.738C803.584,600.273 803.4,600.835 803.179,601.424C802.959,602.013 802.683,602.7 802.352,603.485L796.95,616.598C796.692,617.276 796.334,617.74 795.875,617.99C795.415,618.24 794.836,618.365 794.138,618.365ZM838.463,618.365L812.882,618.365C812.184,618.365 811.679,618.213 811.366,617.91C811.054,617.606 810.898,617.116 810.898,616.438L810.898,581.754C810.898,581.076 811.054,580.585 811.366,580.282C811.679,579.978 812.184,579.827 812.882,579.827L838.463,579.827C839.161,579.827 839.667,579.978 839.979,580.282C840.291,580.585 840.448,581.076 840.448,581.754L840.448,588.016C840.448,588.694 840.291,589.185 839.979,589.488C839.667,589.791 839.161,589.943 838.463,589.943L823.247,589.943L823.247,594.064L833.997,594.064C834.696,594.064 835.201,594.216 835.514,594.519C835.826,594.823 835.982,595.313 835.982,595.991L835.982,601.718C835.982,602.396 835.826,602.887 835.514,603.19C835.201,603.494 834.696,603.645 833.997,603.645L823.247,603.645L823.247,608.248L838.463,608.248C839.161,608.248 839.667,608.4 839.979,608.703C840.291,609.007 840.448,609.497 840.448,610.175L840.448,616.438C840.448,617.116 840.291,617.606 839.979,617.91C839.667,618.213 839.161,618.365 838.463,618.365ZM869.887,618.365L861.342,618.365C860.644,618.365 860.139,618.213 859.826,617.91C859.514,617.606 859.358,617.116 859.358,616.438L859.358,581.754C859.358,581.076 859.514,580.585 859.826,580.282C860.139,579.978 860.644,579.827 861.342,579.827L885.93,579.827C886.629,579.827 887.134,579.978 887.447,580.282C887.759,580.585 887.915,581.076 887.915,581.754L887.915,588.123C887.915,588.801 887.759,589.292 887.447,589.595C887.134,589.898 886.629,590.05 885.93,590.05L871.872,590.05L871.872,595.617L881.465,595.617C882.163,595.617 882.669,595.768 882.981,596.072C883.293,596.375 883.45,596.865 883.45,597.543L883.45,603.966C883.45,604.644 883.293,605.135 882.981,605.438C882.669,605.742 882.163,605.893 881.465,605.893L871.872,605.893L871.872,616.438C871.872,617.116 871.716,617.606 871.404,617.91C871.091,618.213 870.586,618.365 869.887,618.365ZM927.223,608.248C927.223,609.89 926.975,611.38 926.479,612.718C925.983,614.056 925.101,615.198 923.833,616.143C922.565,617.089 920.828,617.829 918.623,618.365C916.418,618.9 913.606,619.168 910.188,619.168C906.77,619.168 903.958,618.9 901.753,618.365C899.548,617.829 897.811,617.089 896.543,616.143C895.275,615.198 894.393,614.056 893.897,612.718C893.401,611.38 893.153,609.89 893.153,608.248L893.153,581.754C893.153,581.076 893.309,580.585 893.621,580.282C893.934,579.978 894.439,579.827 895.137,579.827L903.793,579.827C904.491,579.827 904.996,579.978 905.309,580.282C905.621,580.585 905.777,581.076 905.777,581.754L905.777,606.161C905.777,606.875 906.053,607.472 906.604,607.954C907.156,608.436 908.387,608.677 910.298,608.677C912.246,608.677 913.496,608.436 914.047,607.954C914.598,607.472 914.874,606.875 914.874,606.161L914.874,581.754C914.874,581.076 915.03,580.585 915.343,580.282C915.655,579.978 916.16,579.827 916.859,579.827L925.239,579.827C925.937,579.827 926.442,579.978 926.755,580.282C927.067,580.585 927.223,581.076 927.223,581.754L927.223,608.248ZM964.602,618.365L936.54,618.365C935.842,618.365 935.337,618.213 935.024,617.91C934.712,617.606 934.556,617.116 934.556,616.438L934.556,581.754C934.556,581.076 934.712,580.585 935.024,580.282C935.337,579.978 935.842,579.827 936.54,579.827L945.086,579.827C945.784,579.827 946.289,579.978 946.602,580.282C946.914,580.585 947.07,581.076 947.07,581.754L947.07,608.248L954.623,608.248L954.623,599.577C954.623,598.899 954.779,598.409 955.092,598.105C955.404,597.802 955.91,597.651 956.608,597.651L964.602,597.651C965.3,597.651 965.806,597.802 966.118,598.105C966.43,598.409 966.587,598.899 966.587,599.577L966.587,616.438C966.587,617.116 966.43,617.606 966.118,617.91C965.806,618.213 965.3,618.365 964.602,618.365ZM1002.92,618.365L974.856,618.365C974.158,618.365 973.652,618.213 973.34,617.91C973.028,617.606 972.871,617.116 972.871,616.438L972.871,581.754C972.871,581.076 973.028,580.585 973.34,580.282C973.652,579.978 974.158,579.827 974.856,579.827L983.401,579.827C984.1,579.827 984.605,579.978 984.918,580.282C985.23,580.585 985.386,581.076 985.386,581.754L985.386,608.248L992.939,608.248L992.939,599.577C992.939,598.899 993.095,598.409 993.408,598.105C993.72,597.802 994.225,597.651 994.924,597.651L1002.92,597.651C1003.62,597.651 1004.12,597.802 1004.43,598.105C1004.75,598.409 1004.9,598.899 1004.9,599.577L1004.9,616.438C1004.9,617.116 1004.75,617.606 1004.43,617.91C1004.12,618.213 1003.62,618.365 1002.92,618.365ZM1041.47,618.365L1024.05,618.365C1023.35,618.365 1022.85,618.213 1022.53,617.91C1022.22,617.606 1022.06,617.116 1022.06,616.438L1022.06,610.175C1022.06,609.497 1022.22,609.007 1022.53,608.703C1022.85,608.4 1023.35,608.248 1024.05,608.248L1038.88,608.248C1039.36,608.248 1039.71,608.097 1039.95,607.794C1040.19,607.49 1040.31,607.124 1040.31,606.696C1040.31,606.09 1040.19,605.644 1039.95,605.358C1039.71,605.073 1039.36,604.912 1038.88,604.876L1030.61,603.752C1028.04,603.396 1025.97,602.575 1024.41,601.29C1022.85,600.006 1022.06,597.865 1022.06,594.867L1022.06,589.247C1022.06,586.214 1023.08,583.886 1025.1,582.262C1027.12,580.638 1029.91,579.827 1033.48,579.827L1048.91,579.827C1049.61,579.827 1050.12,579.978 1050.43,580.282C1050.74,580.585 1050.9,581.076 1050.9,581.754L1050.9,588.123C1050.9,588.801 1050.74,589.292 1050.43,589.595C1050.12,589.898 1049.61,590.05 1048.91,590.05L1036.07,590.05C1035.59,590.05 1035.22,590.202 1034.96,590.505C1034.71,590.808 1034.58,591.192 1034.58,591.656C1034.58,592.12 1034.71,592.512 1034.96,592.833C1035.22,593.154 1035.59,593.333 1036.07,593.368L1044.28,594.439C1046.85,594.796 1048.93,595.617 1050.51,596.901C1052.09,598.186 1052.88,600.327 1052.88,603.324L1052.88,608.944C1052.88,611.977 1051.86,614.306 1049.82,615.929C1047.78,617.553 1045,618.365 1041.47,618.365ZM1059.99,618.365C1059.3,618.365 1058.79,618.213 1058.48,617.91C1058.16,617.606 1058.01,617.116 1058.01,616.438L1058.01,610.068C1058.01,609.39 1058.16,608.9 1058.48,608.596C1058.79,608.293 1059.3,608.141 1059.99,608.141L1065.45,608.141L1065.45,590.157L1059.99,590.157C1059.3,590.157 1058.79,590.005 1058.48,589.702C1058.16,589.399 1058.01,588.908 1058.01,588.23L1058.01,581.754C1058.01,581.076 1058.16,580.585 1058.48,580.282C1058.79,579.978 1059.3,579.827 1059.99,579.827L1083.48,579.827C1084.18,579.827 1084.68,579.978 1085,580.282C1085.31,580.585 1085.46,581.076 1085.46,581.754L1085.46,588.23C1085.46,588.908 1085.31,589.399 1085,589.702C1084.68,590.005 1084.18,590.157 1083.48,590.157L1078.13,590.157L1078.13,608.141L1083.48,608.141C1084.18,608.141 1084.68,608.293 1085,608.596C1085.31,608.9 1085.46,609.39 1085.46,610.068L1085.46,616.438C1085.46,617.116 1085.31,617.606 1085,617.91C1084.68,618.213 1084.18,618.365 1083.48,618.365L1059.99,618.365ZM1120.31,618.365L1092.96,618.365C1092.26,618.365 1091.76,618.213 1091.45,617.91C1091.13,617.606 1090.98,617.116 1090.98,616.438L1090.98,609.265C1090.98,608.587 1091.09,607.99 1091.31,607.472C1091.53,606.955 1091.88,606.446 1092.36,605.947L1105.75,590.157L1093.95,590.157C1093.26,590.157 1092.75,590.005 1092.44,589.702C1092.13,589.399 1091.97,588.908 1091.97,588.23L1091.97,581.754C1091.97,581.076 1092.13,580.585 1092.44,580.282C1092.75,579.978 1093.26,579.827 1093.95,579.827L1119.31,579.827C1120.01,579.827 1120.52,579.978 1120.83,580.282C1121.14,580.585 1121.3,581.076 1121.3,581.754L1121.3,589.729C1121.3,590.442 1121.19,591.058 1120.97,591.575C1120.75,592.093 1120.4,592.601 1119.92,593.101L1107.13,608.141L1120.31,608.141C1121.01,608.141 1121.51,608.293 1121.82,608.596C1122.13,608.9 1122.29,609.39 1122.29,610.068L1122.29,616.438C1122.29,617.116 1122.13,617.606 1121.82,617.91C1121.51,618.213 1121.01,618.365 1120.31,618.365ZM1156.2,618.365L1130.62,618.365C1129.92,618.365 1129.41,618.213 1129.1,617.91C1128.79,617.606 1128.63,617.116 1128.63,616.438L1128.63,581.754C1128.63,581.076 1128.79,580.585 1129.1,580.282C1129.41,579.978 1129.92,579.827 1130.62,579.827L1156.2,579.827C1156.89,579.827 1157.4,579.978 1157.71,580.282C1158.03,580.585 1158.18,581.076 1158.18,581.754L1158.18,588.016C1158.18,588.694 1158.03,589.185 1157.71,589.488C1157.4,589.791 1156.89,589.943 1156.2,589.943L1140.98,589.943L1140.98,594.064L1151.73,594.064C1152.43,594.064 1152.93,594.216 1153.25,594.519C1153.56,594.823 1153.72,595.313 1153.72,595.991L1153.72,601.718C1153.72,602.396 1153.56,602.887 1153.25,603.19C1152.93,603.494 1152.43,603.645 1151.73,603.645L1140.98,603.645L1140.98,608.248L1156.2,608.248C1156.89,608.248 1157.4,608.4 1157.71,608.703C1158.03,609.007 1158.18,609.497 1158.18,610.175L1158.18,616.438C1158.18,617.116 1158.03,617.606 1157.71,617.91C1157.4,618.213 1156.89,618.365 1156.2,618.365Z" style="fill:rgb(255,0,0);fill-rule:nonzero;"/>
            <path d="M719.521,619.365L702.1,619.365C701.401,619.365 700.896,619.213 700.584,618.91C700.271,618.606 700.115,618.116 700.115,617.438L700.115,611.175C700.115,610.497 700.271,610.007 700.584,609.703C700.896,609.4 701.401,609.248 702.1,609.248L716.93,609.248C717.408,609.248 717.766,609.097 718.005,608.794C718.244,608.49 718.363,608.124 718.363,607.696C718.363,607.09 718.244,606.644 718.005,606.358C717.766,606.073 717.408,605.912 716.93,605.876L708.66,604.752C706.087,604.396 704.02,603.575 702.458,602.29C700.896,601.006 700.115,598.865 700.115,595.867L700.115,590.247C700.115,587.214 701.126,584.886 703.147,583.262C705.169,581.638 707.962,580.827 711.527,580.827L726.964,580.827C727.662,580.827 728.167,580.978 728.48,581.282C728.792,581.585 728.948,582.076 728.948,582.754L728.948,589.123C728.948,589.801 728.792,590.292 728.48,590.595C728.167,590.898 727.662,591.05 726.964,591.05L714.118,591.05C713.64,591.05 713.273,591.202 713.016,591.505C712.758,591.808 712.63,592.192 712.63,592.656C712.63,593.12 712.758,593.512 713.016,593.833C713.273,594.154 713.64,594.333 714.118,594.368L722.333,595.439C724.905,595.796 726.982,596.617 728.562,597.901C730.143,599.186 730.933,601.327 730.933,604.324L730.933,609.944C730.933,612.977 729.913,615.306 727.873,616.929C725.833,618.553 723.049,619.365 719.521,619.365Z" style="fill:white;"/>
            <path d="M714.334,592.716L722.548,593.786C722.553,593.787 722.557,593.788 722.562,593.788C725.479,594.193 727.822,595.151 729.614,596.608C731.524,598.16 732.6,600.702 732.6,604.324L732.6,609.944C732.6,613.553 731.338,616.302 728.911,618.233C726.614,620.062 723.495,621.031 719.521,621.031L702.1,621.031C700.85,621.031 699.982,620.648 699.423,620.106C698.848,619.548 698.448,618.684 698.448,617.438L698.448,611.175C698.448,609.929 698.848,609.065 699.423,608.508C699.982,607.965 700.85,607.582 702.1,607.582L716.691,607.582C716.69,607.563 716.688,607.544 716.686,607.525L708.436,606.404L708.431,606.403C705.509,605.998 703.173,605.036 701.399,603.577C699.513,602.026 698.448,599.487 698.448,595.867L698.448,590.247C698.448,586.64 699.7,583.893 702.103,581.963C704.381,580.133 707.511,579.16 711.527,579.16L726.964,579.16C728.213,579.16 729.082,579.543 729.641,580.086C730.215,580.643 730.615,581.507 730.615,582.754L730.615,589.123C730.615,590.37 730.215,591.233 729.641,591.791C729.082,592.334 728.213,592.717 726.964,592.717L714.334,592.716ZM719.521,619.365C723.049,619.365 725.833,618.553 727.873,616.929C729.913,615.306 730.933,612.977 730.933,609.944L730.933,604.324C730.933,601.327 730.143,599.186 728.562,597.901C726.982,596.617 724.905,595.796 722.333,595.439L714.118,594.368C713.64,594.333 713.273,594.154 713.016,593.833C712.758,593.512 712.63,593.12 712.63,592.656C712.63,592.192 712.758,591.808 713.016,591.505C713.273,591.202 713.64,591.05 714.118,591.05L726.964,591.05C727.662,591.05 728.167,590.898 728.48,590.595C728.792,590.292 728.948,589.801 728.948,589.123L728.948,582.754C728.948,582.076 728.792,581.585 728.48,581.282C728.167,580.978 727.662,580.827 726.964,580.827L711.527,580.827C707.962,580.827 705.169,581.638 703.147,583.262C701.126,584.886 700.115,587.214 700.115,590.247L700.115,595.867C700.115,598.865 700.896,601.006 702.458,602.29C704.02,603.575 706.087,604.396 708.66,604.752L716.93,605.876C717.408,605.912 717.766,606.073 718.005,606.358C718.244,606.644 718.363,607.09 718.363,607.696C718.363,608.124 718.244,608.49 718.005,608.794C717.766,609.097 717.408,609.248 716.93,609.248L702.1,609.248C701.401,609.248 700.896,609.4 700.584,609.703C700.271,610.007 700.115,610.497 700.115,611.175L700.115,617.438C700.115,618.116 700.271,618.606 700.584,618.91C700.896,619.213 701.401,619.365 702.1,619.365L719.521,619.365Z"/>
            <path d="M748.189,617.438C748.189,618.116 748.033,618.606 747.72,618.91C747.408,619.213 746.902,619.365 746.204,619.365L738.1,619.365C737.402,619.365 736.896,619.213 736.584,618.91C736.271,618.606 736.115,618.116 736.115,617.438L736.115,603.307C736.115,602.237 736.29,601.006 736.639,599.614C736.988,598.222 737.53,596.599 738.265,594.743L743.062,582.593C743.282,581.986 743.622,581.54 744.082,581.255C744.541,580.969 745.138,580.827 745.873,580.827L760.704,580.827C761.402,580.827 761.981,580.969 762.44,581.255C762.9,581.54 763.24,581.986 763.46,582.593L768.256,594.743C768.991,596.599 769.534,598.222 769.883,599.614C770.232,601.006 770.407,602.237 770.407,603.307L770.407,617.438C770.407,618.116 770.25,618.606 769.938,618.91C769.625,619.213 769.12,619.365 768.422,619.365L760.097,619.365C759.362,619.365 758.82,619.213 758.471,618.91C758.122,618.606 757.947,618.116 757.947,617.438L757.947,609.944L748.189,609.944L748.189,617.438Z" style="fill:white;"/>
            <path d="M749.856,617.438C749.856,618.684 749.456,619.548 748.881,620.106C748.322,620.648 747.454,621.031 746.204,621.031L738.1,621.031C736.85,621.031 735.982,620.648 735.423,620.106C734.849,619.548 734.449,618.684 734.449,617.438L734.449,603.307C734.449,602.119 734.635,600.752 735.022,599.208C735.386,597.757 735.949,596.064 736.715,594.131C736.715,594.131 741.505,581.998 741.5,582.012C741.863,581.019 742.448,580.308 743.202,579.839C743.889,579.412 744.774,579.16 745.873,579.16L760.704,579.16C761.759,579.16 762.625,579.408 763.32,579.839C764.07,580.305 764.653,581.012 765.017,581.998L769.806,594.129C770.572,596.064 771.135,597.757 771.499,599.208C771.887,600.752 772.073,602.119 772.073,603.307L772.073,617.438C772.073,618.684 771.673,619.548 771.099,620.106C770.54,620.648 769.671,621.031 768.422,621.031L760.097,621.031C758.855,621.031 757.968,620.68 757.378,620.168C756.72,619.597 756.28,618.715 756.28,617.438L756.28,611.611L749.856,611.611L749.856,617.438ZM748.189,617.438L748.189,609.944L757.947,609.944L757.947,617.438C757.947,618.116 758.122,618.606 758.471,618.91C758.82,619.213 759.362,619.365 760.097,619.365L768.422,619.365C769.12,619.365 769.625,619.213 769.938,618.91C770.25,618.606 770.407,618.116 770.407,617.438L770.407,603.307C770.407,602.237 770.232,601.006 769.883,599.614C769.534,598.222 768.991,596.599 768.256,594.743L763.46,582.593C763.24,581.986 762.9,581.54 762.44,581.255C761.981,580.969 761.402,580.827 760.704,580.827L745.873,580.827C745.138,580.827 744.541,580.969 744.082,581.255C743.622,581.54 743.282,581.986 743.062,582.593L738.265,594.743C737.53,596.599 736.988,598.222 736.639,599.614C736.29,601.006 736.115,602.237 736.115,603.307L736.115,617.438C736.115,618.116 736.271,618.606 736.584,618.91C736.896,619.213 737.402,619.365 738.1,619.365L746.204,619.365C746.902,619.365 747.408,619.213 747.72,618.91C748.033,618.606 748.189,618.116 748.189,617.438Z"/>
            <path d="M751.331,592.067L748.74,600.203L757.396,600.203L754.805,592.067C754.658,591.746 754.501,591.514 754.336,591.371C754.171,591.228 753.978,591.157 753.757,591.157L752.379,591.157C752.158,591.157 751.965,591.228 751.8,591.371C751.635,591.514 751.478,591.746 751.331,592.067Z" style="fill:rgb(255,0,0);"/>
            <path d="M751.331,592.067C751.478,591.746 751.635,591.514 751.8,591.371C751.965,591.228 752.158,591.157 752.379,591.157L753.757,591.157C753.978,591.157 754.171,591.228 754.336,591.371C754.501,591.514 754.658,591.746 754.805,592.067L757.396,600.203L748.74,600.203L751.331,592.067ZM753.296,592.824L752.839,592.824L751.02,598.536L755.116,598.536C755.116,598.536 753.576,593.702 753.296,592.824Z"/>
            <path d="M800.138,619.365L785.804,619.365C785.106,619.365 784.527,619.24 784.067,618.99C783.608,618.74 783.25,618.276 782.992,617.598L777.59,604.485C777.259,603.7 776.983,603.013 776.763,602.424C776.542,601.835 776.358,601.273 776.211,600.738C776.064,600.203 775.963,599.641 775.908,599.052C775.853,598.463 775.825,597.741 775.825,596.884L775.825,582.754C775.825,582.076 775.982,581.585 776.294,581.282C776.606,580.978 777.112,580.827 777.81,580.827L786.576,580.827C787.274,580.827 787.807,580.978 788.175,581.282C788.542,581.585 788.726,582.076 788.726,582.754L788.726,597.526C788.726,597.883 788.763,598.24 788.836,598.597C788.91,598.954 789.02,599.328 789.167,599.721L791.758,607.215C791.868,607.571 791.997,607.812 792.144,607.937C792.291,608.062 792.512,608.124 792.806,608.124L793.412,608.124C793.706,608.124 793.927,608.062 794.074,607.937C794.221,607.812 794.349,607.571 794.46,607.215L797.051,599.667C797.198,599.275 797.308,598.9 797.381,598.543C797.455,598.187 797.492,597.83 797.492,597.473L797.492,582.754C797.492,582.076 797.648,581.585 797.96,581.282C798.273,580.978 798.778,580.827 799.476,580.827L808.132,580.827C808.83,580.827 809.336,580.978 809.648,581.282C809.96,581.585 810.117,582.076 810.117,582.754L810.117,596.884C810.117,597.741 810.089,598.463 810.034,599.052C809.979,599.641 809.878,600.203 809.731,600.738C809.584,601.273 809.4,601.835 809.179,602.424C808.959,603.013 808.683,603.7 808.352,604.485L802.95,617.598C802.692,618.276 802.334,618.74 801.875,618.99C801.415,619.24 800.836,619.365 800.138,619.365Z" style="fill:white;"/>
            <path d="M793.108,606.018L795.474,599.126C795.479,599.112 795.484,599.097 795.49,599.083C795.604,598.777 795.692,598.485 795.749,598.207C795.799,597.962 795.825,597.718 795.825,597.473L795.825,582.754C795.825,581.507 796.225,580.643 796.799,580.086C797.358,579.543 798.227,579.16 799.476,579.16L808.132,579.16C809.382,579.16 810.25,579.543 810.809,580.086C811.383,580.643 811.783,581.507 811.783,582.754L811.783,596.884C811.783,597.802 811.752,598.576 811.693,599.207C811.629,599.896 811.51,600.553 811.338,601.179C811.178,601.76 810.979,602.37 810.74,603.009C810.514,603.614 810.231,604.319 809.891,605.125C809.891,605.125 804.498,618.216 804.504,618.199C804.078,619.318 803.43,620.041 802.671,620.454C801.999,620.82 801.159,621.031 800.138,621.031L785.804,621.031C784.783,621.031 783.943,620.82 783.271,620.454C782.515,620.043 781.871,619.325 781.444,618.216L776.051,605.125C775.711,604.319 775.428,603.614 775.202,603.009C774.963,602.37 774.764,601.76 774.604,601.179C774.432,600.553 774.313,599.896 774.249,599.207C774.19,598.576 774.159,597.802 774.159,596.884L774.159,582.754C774.159,581.507 774.559,580.643 775.133,580.086C775.692,579.543 776.56,579.16 777.81,579.16L786.576,579.16C787.747,579.16 788.619,579.487 789.235,579.996C789.935,580.573 790.393,581.464 790.393,582.754L790.393,597.526C790.393,597.771 790.418,598.016 790.469,598.261C790.526,598.539 790.613,598.83 790.728,599.136C790.733,599.15 790.738,599.163 790.742,599.176L793.108,606.018ZM800.138,619.365C800.836,619.365 801.415,619.24 801.875,618.99C802.334,618.74 802.692,618.276 802.95,617.598L808.352,604.485C808.683,603.7 808.959,603.013 809.179,602.424C809.4,601.835 809.584,601.273 809.731,600.738C809.878,600.203 809.979,599.641 810.034,599.052C810.089,598.463 810.117,597.741 810.117,596.884L810.117,582.754C810.117,582.076 809.96,581.585 809.648,581.282C809.336,580.978 808.83,580.827 808.132,580.827L799.476,580.827C798.778,580.827 798.273,580.978 797.96,581.282C797.648,581.585 797.492,582.076 797.492,582.754L797.492,597.473C797.492,597.83 797.455,598.187 797.381,598.543C797.308,598.9 797.198,599.275 797.051,599.667L794.46,607.215C794.349,607.571 794.221,607.812 794.074,607.937C793.927,608.062 793.706,608.124 793.412,608.124L792.806,608.124C792.512,608.124 792.291,608.062 792.144,607.937C791.997,607.812 791.868,607.571 791.758,607.215L789.167,599.721C789.02,599.328 788.91,598.954 788.836,598.597C788.763,598.24 788.726,597.883 788.726,597.526L788.726,582.754C788.726,582.076 788.542,581.585 788.175,581.282C787.807,580.978 787.274,580.827 786.576,580.827L777.81,580.827C777.112,580.827 776.606,580.978 776.294,581.282C775.982,581.585 775.825,582.076 775.825,582.754L775.825,596.884C775.825,597.741 775.853,598.463 775.908,599.052C775.963,599.641 776.064,600.203 776.211,600.738C776.358,601.273 776.542,601.835 776.763,602.424C776.983,603.013 777.259,603.7 777.59,604.485L782.992,617.598C783.25,618.276 783.608,618.74 784.067,618.99C784.527,619.24 785.106,619.365 785.804,619.365L800.138,619.365Z"/>
            <path d="M844.463,619.365L818.882,619.365C818.184,619.365 817.679,619.213 817.366,618.91C817.054,618.606 816.898,618.116 816.898,617.438L816.898,582.754C816.898,582.076 817.054,581.585 817.366,581.282C817.679,580.978 818.184,580.827 818.882,580.827L844.463,580.827C845.161,580.827 845.667,580.978 845.979,581.282C846.291,581.585 846.448,582.076 846.448,582.754L846.448,589.016C846.448,589.694 846.291,590.185 845.979,590.488C845.667,590.791 845.161,590.943 844.463,590.943L829.247,590.943L829.247,595.064L839.997,595.064C840.696,595.064 841.201,595.216 841.514,595.519C841.826,595.823 841.982,596.313 841.982,596.991L841.982,602.718C841.982,603.396 841.826,603.887 841.514,604.19C841.201,604.494 840.696,604.645 839.997,604.645L829.247,604.645L829.247,609.248L844.463,609.248C845.161,609.248 845.667,609.4 845.979,609.703C846.291,610.007 846.448,610.497 846.448,611.175L846.448,617.438C846.448,618.116 846.291,618.606 845.979,618.91C845.667,619.213 845.161,619.365 844.463,619.365Z" style="fill:white;"/>
            <path d="M844.463,621.031L818.882,621.031C817.633,621.031 816.764,620.648 816.205,620.106C815.631,619.548 815.231,618.684 815.231,617.438L815.231,582.754C815.231,581.507 815.631,580.643 816.205,580.086C816.764,579.543 817.633,579.16 818.882,579.16L844.463,579.16C845.713,579.16 846.581,579.543 847.14,580.086C847.714,580.643 848.114,581.507 848.114,582.754L848.114,589.016C848.114,590.262 847.714,591.126 847.14,591.684C846.581,592.227 845.713,592.61 844.463,592.61L830.914,592.61C830.914,592.61 830.914,593.398 830.914,593.398L839.997,593.398C841.247,593.398 842.115,593.781 842.674,594.323C843.249,594.881 843.649,595.745 843.649,596.991L843.649,602.718C843.649,603.965 843.249,604.829 842.674,605.386C842.115,605.929 841.247,606.312 839.997,606.312C839.997,606.312 830.914,606.312 830.914,606.312L830.914,607.582L844.463,607.582C845.713,607.582 846.581,607.965 847.14,608.508C847.714,609.065 848.114,609.929 848.114,611.175L848.114,617.438C848.114,618.684 847.714,619.548 847.14,620.106C846.581,620.648 845.713,621.031 844.463,621.031ZM844.463,619.365C845.161,619.365 845.667,619.213 845.979,618.91C846.291,618.606 846.448,618.116 846.448,617.438L846.448,611.175C846.448,610.497 846.291,610.007 845.979,609.703C845.667,609.4 845.161,609.248 844.463,609.248L829.247,609.248L829.247,604.645L839.997,604.645C840.696,604.645 841.201,604.494 841.514,604.19C841.826,603.887 841.982,603.396 841.982,602.718L841.982,596.991C841.982,596.313 841.826,595.823 841.514,595.519C841.201,595.216 840.696,595.064 839.997,595.064L829.247,595.064L829.247,590.943L844.463,590.943C845.161,590.943 845.667,590.791 845.979,590.488C846.291,590.185 846.448,589.694 846.448,589.016L846.448,582.754C846.448,582.076 846.291,581.585 845.979,581.282C845.667,580.978 845.161,580.827 844.463,580.827L818.882,580.827C818.184,580.827 817.679,580.978 817.366,581.282C817.054,581.585 816.898,582.076 816.898,582.754L816.898,617.438C816.898,618.116 817.054,618.606 817.366,618.91C817.679,619.213 818.184,619.365 818.882,619.365L844.463,619.365Z"/>
            <path d="M875.887,619.365L867.342,619.365C866.644,619.365 866.139,619.213 865.826,618.91C865.514,618.606 865.358,618.116 865.358,617.438L865.358,582.754C865.358,582.076 865.514,581.585 865.826,581.282C866.139,580.978 866.644,580.827 867.342,580.827L891.93,580.827C892.629,580.827 893.134,580.978 893.447,581.282C893.759,581.585 893.915,582.076 893.915,582.754L893.915,589.123C893.915,589.801 893.759,590.292 893.447,590.595C893.134,590.898 892.629,591.05 891.93,591.05L877.872,591.05L877.872,596.617L887.465,596.617C888.163,596.617 888.669,596.768 888.981,597.072C889.293,597.375 889.45,597.865 889.45,598.543L889.45,604.966C889.45,605.644 889.293,606.135 888.981,606.438C888.669,606.742 888.163,606.893 887.465,606.893L877.872,606.893L877.872,617.438C877.872,618.116 877.716,618.606 877.404,618.91C877.091,619.213 876.586,619.365 875.887,619.365Z" style="fill:white;"/>
            <path d="M875.887,621.031L867.342,621.031C866.093,621.031 865.224,620.648 864.665,620.106C864.091,619.548 863.691,618.684 863.691,617.438L863.691,582.754C863.691,581.507 864.091,580.643 864.665,580.086C865.224,579.543 866.093,579.16 867.342,579.16L891.93,579.16C893.18,579.16 894.048,579.543 894.608,580.086C895.182,580.643 895.582,581.507 895.582,582.754L895.582,589.123C895.582,590.37 895.182,591.233 894.608,591.791C894.048,592.334 893.18,592.717 891.93,592.717L879.539,592.717L879.539,594.95L887.465,594.95C888.715,594.95 889.583,595.333 890.142,595.876C890.716,596.433 891.116,597.297 891.116,598.543L891.116,604.966C891.116,606.213 890.716,607.077 890.142,607.634C889.583,608.177 888.715,608.56 887.465,608.56L879.539,608.56L879.539,617.438C879.539,618.684 879.139,619.548 878.565,620.106C878.005,620.648 877.137,621.031 875.887,621.031ZM875.887,619.365C876.586,619.365 877.091,619.213 877.404,618.91C877.716,618.606 877.872,618.116 877.872,617.438L877.872,606.893L887.465,606.893C888.163,606.893 888.669,606.742 888.981,606.438C889.293,606.135 889.45,605.644 889.45,604.966L889.45,598.543C889.45,597.865 889.293,597.375 888.981,597.072C888.669,596.768 888.163,596.617 887.465,596.617L877.872,596.617L877.872,591.05L891.93,591.05C892.629,591.05 893.134,590.898 893.447,590.595C893.759,590.292 893.915,589.801 893.915,589.123L893.915,582.754C893.915,582.076 893.759,581.585 893.447,581.282C893.134,580.978 892.629,580.827 891.93,580.827L867.342,580.827C866.644,580.827 866.139,580.978 865.826,581.282C865.514,581.585 865.358,582.076 865.358,582.754L865.358,617.438C865.358,618.116 865.514,618.606 865.826,618.91C866.139,619.213 866.644,619.365 867.342,619.365L875.887,619.365Z"/>
            <path d="M933.223,609.248C933.223,610.89 932.975,612.38 932.479,613.718C931.983,615.056 931.101,616.198 929.833,617.143C928.565,618.089 926.828,618.829 924.623,619.365C922.418,619.9 919.606,620.168 916.188,620.168C912.77,620.168 909.958,619.9 907.753,619.365C905.548,618.829 903.811,618.089 902.543,617.143C901.275,616.198 900.393,615.056 899.897,613.718C899.401,612.38 899.153,610.89 899.153,609.248L899.153,582.754C899.153,582.076 899.309,581.585 899.621,581.282C899.934,580.978 900.439,580.827 901.137,580.827L909.793,580.827C910.491,580.827 910.996,580.978 911.309,581.282C911.621,581.585 911.777,582.076 911.777,582.754L911.777,607.161C911.777,607.875 912.053,608.472 912.604,608.954C913.156,609.436 914.387,609.677 916.298,609.677C918.246,609.677 919.496,609.436 920.047,608.954C920.598,608.472 920.874,607.875 920.874,607.161L920.874,582.754C920.874,582.076 921.03,581.585 921.343,581.282C921.655,580.978 922.16,580.827 922.859,580.827L931.239,580.827C931.937,580.827 932.442,580.978 932.755,581.282C933.067,581.585 933.223,582.076 933.223,582.754L933.223,609.248Z" style="fill:white;"/>
            <path d="M934.89,609.248C934.89,611.103 934.602,612.785 934.042,614.297C933.437,615.928 932.374,617.327 930.829,618.48C929.412,619.536 927.481,620.386 925.016,620.984C922.708,621.545 919.766,621.834 916.188,621.834C912.61,621.834 909.668,621.545 907.36,620.984C904.895,620.386 902.964,619.536 901.547,618.48C900.002,617.327 898.939,615.928 898.334,614.297C897.774,612.785 897.486,611.103 897.486,609.248L897.486,582.754C897.486,581.507 897.886,580.643 898.46,580.086C899.019,579.543 899.888,579.16 901.137,579.16L909.793,579.16C911.042,579.16 911.911,579.543 912.47,580.086C913.044,580.643 913.444,581.507 913.444,582.754L913.444,607.161C913.444,607.377 913.535,607.554 913.701,607.699C913.813,607.796 914.013,607.812 914.261,607.86C914.793,607.964 915.473,608.01 916.298,608.01C917.144,608.01 917.838,607.964 918.381,607.859C918.635,607.811 918.838,607.797 918.95,607.699C919.117,607.554 919.207,607.377 919.207,607.161L919.207,582.754C919.207,581.507 919.607,580.643 920.182,580.086C920.741,579.543 921.609,579.16 922.859,579.16L931.239,579.16C932.488,579.16 933.357,579.543 933.916,580.086C934.49,580.643 934.89,581.507 934.89,582.754L934.89,609.248ZM933.223,609.248L933.223,582.754C933.223,582.076 933.067,581.585 932.755,581.282C932.442,580.978 931.937,580.827 931.239,580.827L922.859,580.827C922.16,580.827 921.655,580.978 921.343,581.282C921.03,581.585 920.874,582.076 920.874,582.754L920.874,607.161C920.874,607.875 920.598,608.472 920.047,608.954C919.496,609.436 918.246,609.677 916.298,609.677C914.387,609.677 913.156,609.436 912.604,608.954C912.053,608.472 911.777,607.875 911.777,607.161L911.777,582.754C911.777,582.076 911.621,581.585 911.309,581.282C910.996,580.978 910.491,580.827 909.793,580.827L901.137,580.827C900.439,580.827 899.934,580.978 899.621,581.282C899.309,581.585 899.153,582.076 899.153,582.754L899.153,609.248C899.153,610.89 899.401,612.38 899.897,613.718C900.393,615.056 901.275,616.198 902.543,617.143C903.811,618.089 905.548,618.829 907.753,619.365C909.958,619.9 912.77,620.168 916.188,620.168C919.606,620.168 922.418,619.9 924.623,619.365C926.828,618.829 928.565,618.089 929.833,617.143C931.101,616.198 931.983,615.056 932.479,613.718C932.975,612.38 933.223,610.89 933.223,609.248Z"/>
            <path d="M970.602,619.365L942.54,619.365C941.842,619.365 941.337,619.213 941.024,618.91C940.712,618.606 940.556,618.116 940.556,617.438L940.556,582.754C940.556,582.076 940.712,581.585 941.024,581.282C941.337,580.978 941.842,580.827 942.54,580.827L951.086,580.827C951.784,580.827 952.289,580.978 952.602,581.282C952.914,581.585 953.07,582.076 953.07,582.754L953.07,609.248L960.623,609.248L960.623,600.577C960.623,599.899 960.779,599.409 961.092,599.105C961.404,598.802 961.91,598.651 962.608,598.651L970.602,598.651C971.3,598.651 971.806,598.802 972.118,599.105C972.43,599.409 972.587,599.899 972.587,600.577L972.587,617.438C972.587,618.116 972.43,618.606 972.118,618.91C971.806,619.213 971.3,619.365 970.602,619.365Z" style="fill:white;"/>
            <path d="M970.602,621.031L942.54,621.031C941.291,621.031 940.422,620.648 939.863,620.106C939.289,619.548 938.889,618.684 938.889,617.438L938.889,582.754C938.889,581.507 939.289,580.643 939.863,580.086C940.422,579.543 941.291,579.16 942.54,579.16L951.086,579.16C952.335,579.16 953.204,579.543 953.763,580.086C954.337,580.643 954.737,581.507 954.737,582.754L954.737,607.582C954.737,607.582 958.957,607.582 958.957,607.582L958.957,600.577C958.957,599.331 959.356,598.467 959.931,597.91C960.49,597.367 961.358,596.984 962.608,596.984L970.602,596.984C971.852,596.984 972.72,597.367 973.279,597.91C973.853,598.467 974.253,599.331 974.253,600.577L974.253,617.438C974.253,618.684 973.853,619.548 973.279,620.106C972.72,620.648 971.852,621.031 970.602,621.031ZM970.602,619.365C971.3,619.365 971.806,619.213 972.118,618.91C972.43,618.606 972.587,618.116 972.587,617.438L972.587,600.577C972.587,599.899 972.43,599.409 972.118,599.105C971.806,598.802 971.3,598.651 970.602,598.651L962.608,598.651C961.91,598.651 961.404,598.802 961.092,599.105C960.779,599.409 960.623,599.899 960.623,600.577L960.623,609.248L953.07,609.248L953.07,582.754C953.07,582.076 952.914,581.585 952.602,581.282C952.289,580.978 951.784,580.827 951.086,580.827L942.54,580.827C941.842,580.827 941.337,580.978 941.024,581.282C940.712,581.585 940.556,582.076 940.556,582.754L940.556,617.438C940.556,618.116 940.712,618.606 941.024,618.91C941.337,619.213 941.842,619.365 942.54,619.365L970.602,619.365Z"/>
            <path d="M1008.92,619.365L980.856,619.365C980.158,619.365 979.652,619.213 979.34,618.91C979.028,618.606 978.871,618.116 978.871,617.438L978.871,582.754C978.871,582.076 979.028,581.585 979.34,581.282C979.652,580.978 980.158,580.827 980.856,580.827L989.401,580.827C990.1,580.827 990.605,580.978 990.918,581.282C991.23,581.585 991.386,582.076 991.386,582.754L991.386,609.248L998.939,609.248L998.939,600.577C998.939,599.899 999.095,599.409 999.408,599.105C999.72,598.802 1000.23,598.651 1000.92,598.651L1008.92,598.651C1009.62,598.651 1010.12,598.802 1010.43,599.105C1010.75,599.409 1010.9,599.899 1010.9,600.577L1010.9,617.438C1010.9,618.116 1010.75,618.606 1010.43,618.91C1010.12,619.213 1009.62,619.365 1008.92,619.365Z" style="fill:white;"/>
            <path d="M1008.92,621.031L980.856,621.031C979.606,621.031 978.738,620.648 978.179,620.106C977.605,619.548 977.205,618.684 977.205,617.438L977.205,582.754C977.205,581.507 977.605,580.643 978.179,580.086C978.738,579.543 979.606,579.16 980.856,579.16L989.401,579.16C990.651,579.16 991.519,579.543 992.078,580.086C992.653,580.643 993.053,581.507 993.053,582.754L993.053,607.582C993.053,607.582 997.272,607.582 997.272,607.582L997.272,600.577C997.272,599.331 997.672,598.467 998.247,597.91C998.806,597.367 999.674,596.984 1000.92,596.984L1008.92,596.984C1010.17,596.984 1011.04,597.367 1011.6,597.91C1012.17,598.467 1012.57,599.331 1012.57,600.577L1012.57,617.438C1012.57,618.684 1012.17,619.548 1011.6,620.106C1011.04,620.648 1010.17,621.031 1008.92,621.031ZM1008.92,619.365C1009.62,619.365 1010.12,619.213 1010.43,618.91C1010.75,618.606 1010.9,618.116 1010.9,617.438L1010.9,600.577C1010.9,599.899 1010.75,599.409 1010.43,599.105C1010.12,598.802 1009.62,598.651 1008.92,598.651L1000.92,598.651C1000.23,598.651 999.72,598.802 999.408,599.105C999.095,599.409 998.939,599.899 998.939,600.577L998.939,609.248L991.386,609.248L991.386,582.754C991.386,582.076 991.23,581.585 990.918,581.282C990.605,580.978 990.1,580.827 989.401,580.827L980.856,580.827C980.158,580.827 979.652,580.978 979.34,581.282C979.028,581.585 978.871,582.076 978.871,582.754L978.871,617.438C978.871,618.116 979.028,618.606 979.34,618.91C979.652,619.213 980.158,619.365 980.856,619.365L1008.92,619.365Z"/>
            <path d="M1047.47,619.365L1030.05,619.365C1029.35,619.365 1028.85,619.213 1028.53,618.91C1028.22,618.606 1028.06,618.116 1028.06,617.438L1028.06,611.175C1028.06,610.497 1028.22,610.007 1028.53,609.703C1028.85,609.4 1029.35,609.248 1030.05,609.248L1044.88,609.248C1045.36,609.248 1045.71,609.097 1045.95,608.794C1046.19,608.49 1046.31,608.124 1046.31,607.696C1046.31,607.09 1046.19,606.644 1045.95,606.358C1045.71,606.073 1045.36,605.912 1044.88,605.876L1036.61,604.752C1034.04,604.396 1031.97,603.575 1030.41,602.29C1028.85,601.006 1028.06,598.865 1028.06,595.867L1028.06,590.247C1028.06,587.214 1029.08,584.886 1031.1,583.262C1033.12,581.638 1035.91,580.827 1039.48,580.827L1054.91,580.827C1055.61,580.827 1056.12,580.978 1056.43,581.282C1056.74,581.585 1056.9,582.076 1056.9,582.754L1056.9,589.123C1056.9,589.801 1056.74,590.292 1056.43,590.595C1056.12,590.898 1055.61,591.05 1054.91,591.05L1042.07,591.05C1041.59,591.05 1041.22,591.202 1040.96,591.505C1040.71,591.808 1040.58,592.192 1040.58,592.656C1040.58,593.12 1040.71,593.512 1040.96,593.833C1041.22,594.154 1041.59,594.333 1042.07,594.368L1050.28,595.439C1052.85,595.796 1054.93,596.617 1056.51,597.901C1058.09,599.186 1058.88,601.327 1058.88,604.324L1058.88,609.944C1058.88,612.977 1057.86,615.306 1055.82,616.929C1053.78,618.553 1051,619.365 1047.47,619.365Z" style="fill:white;"/>
            <path d="M1042.28,592.716L1050.5,593.786C1050.5,593.787 1050.51,593.788 1050.51,593.788C1053.43,594.193 1055.77,595.151 1057.56,596.608C1059.47,598.16 1060.55,600.702 1060.55,604.324L1060.55,609.944C1060.55,613.553 1059.29,616.302 1056.86,618.233C1054.56,620.062 1051.44,621.031 1047.47,621.031L1030.05,621.031C1028.8,621.031 1027.93,620.648 1027.37,620.106C1026.8,619.548 1026.4,618.684 1026.4,617.438L1026.4,611.175C1026.4,609.929 1026.8,609.065 1027.37,608.508C1027.93,607.965 1028.8,607.582 1030.05,607.582L1044.64,607.582C1044.64,607.563 1044.64,607.544 1044.63,607.525L1036.38,606.404L1036.38,606.403C1033.46,605.998 1031.12,605.036 1029.35,603.577C1027.46,602.026 1026.4,599.487 1026.4,595.867L1026.4,590.247C1026.4,586.64 1027.65,583.893 1030.05,581.963C1032.33,580.133 1035.46,579.16 1039.48,579.16L1054.91,579.16C1056.16,579.16 1057.03,579.543 1057.59,580.086C1058.16,580.643 1058.56,581.507 1058.56,582.754L1058.56,589.123C1058.56,590.37 1058.16,591.233 1057.59,591.791C1057.03,592.334 1056.16,592.717 1054.91,592.717L1042.28,592.716ZM1047.47,619.365C1051,619.365 1053.78,618.553 1055.82,616.929C1057.86,615.306 1058.88,612.977 1058.88,609.944L1058.88,604.324C1058.88,601.327 1058.09,599.186 1056.51,597.901C1054.93,596.617 1052.85,595.796 1050.28,595.439L1042.07,594.368C1041.59,594.333 1041.22,594.154 1040.96,593.833C1040.71,593.512 1040.58,593.12 1040.58,592.656C1040.58,592.192 1040.71,591.808 1040.96,591.505C1041.22,591.202 1041.59,591.05 1042.07,591.05L1054.91,591.05C1055.61,591.05 1056.12,590.898 1056.43,590.595C1056.74,590.292 1056.9,589.801 1056.9,589.123L1056.9,582.754C1056.9,582.076 1056.74,581.585 1056.43,581.282C1056.12,580.978 1055.61,580.827 1054.91,580.827L1039.48,580.827C1035.91,580.827 1033.12,581.638 1031.1,583.262C1029.08,584.886 1028.06,587.214 1028.06,590.247L1028.06,595.867C1028.06,598.865 1028.85,601.006 1030.41,602.29C1031.97,603.575 1034.04,604.396 1036.61,604.752L1044.88,605.876C1045.36,605.912 1045.71,606.073 1045.95,606.358C1046.19,606.644 1046.31,607.09 1046.31,607.696C1046.31,608.124 1046.19,608.49 1045.95,608.794C1045.71,609.097 1045.36,609.248 1044.88,609.248L1030.05,609.248C1029.35,609.248 1028.85,609.4 1028.53,609.703C1028.22,610.007 1028.06,610.497 1028.06,611.175L1028.06,617.438C1028.06,618.116 1028.22,618.606 1028.53,618.91C1028.85,619.213 1029.35,619.365 1030.05,619.365L1047.47,619.365Z"/>
            <path d="M1065.99,619.365C1065.3,619.365 1064.79,619.213 1064.48,618.91C1064.16,618.606 1064.01,618.116 1064.01,617.438L1064.01,611.068C1064.01,610.39 1064.16,609.9 1064.48,609.596C1064.79,609.293 1065.3,609.141 1065.99,609.141L1071.45,609.141L1071.45,591.157L1065.99,591.157C1065.3,591.157 1064.79,591.005 1064.48,590.702C1064.16,590.399 1064.01,589.908 1064.01,589.23L1064.01,582.754C1064.01,582.076 1064.16,581.585 1064.48,581.282C1064.79,580.978 1065.3,580.827 1065.99,580.827L1089.48,580.827C1090.18,580.827 1090.68,580.978 1091,581.282C1091.31,581.585 1091.46,582.076 1091.46,582.754L1091.46,589.23C1091.46,589.908 1091.31,590.399 1091,590.702C1090.68,591.005 1090.18,591.157 1089.48,591.157L1084.13,591.157L1084.13,609.141L1089.48,609.141C1090.18,609.141 1090.68,609.293 1091,609.596C1091.31,609.9 1091.46,610.39 1091.46,611.068L1091.46,617.438C1091.46,618.116 1091.31,618.606 1091,618.91C1090.68,619.213 1090.18,619.365 1089.48,619.365L1065.99,619.365Z" style="fill:white;"/>
            <path d="M1065.99,621.031C1064.74,621.031 1063.88,620.648 1063.32,620.106C1062.74,619.548 1062.34,618.684 1062.34,617.438L1062.34,611.068C1062.34,609.822 1062.74,608.958 1063.32,608.401C1063.88,607.858 1064.74,607.475 1065.99,607.475L1069.79,607.475L1069.79,592.824L1065.99,592.824C1064.74,592.824 1063.88,592.441 1063.32,591.898C1062.74,591.34 1062.34,590.477 1062.34,589.23L1062.34,582.754C1062.34,581.507 1062.74,580.643 1063.32,580.086C1063.88,579.543 1064.74,579.16 1065.99,579.16L1089.48,579.16C1090.73,579.16 1091.6,579.543 1092.16,580.086C1092.73,580.643 1093.13,581.507 1093.13,582.754L1093.13,589.23C1093.13,590.477 1092.73,591.34 1092.16,591.898C1091.6,592.441 1090.73,592.824 1089.48,592.824L1085.8,592.824L1085.8,607.475L1089.48,607.475C1090.73,607.475 1091.6,607.858 1092.16,608.401C1092.73,608.958 1093.13,609.822 1093.13,611.068L1093.13,617.438C1093.13,618.684 1092.73,619.548 1092.16,620.106C1091.6,620.648 1090.73,621.031 1089.48,621.031L1065.99,621.031ZM1065.99,619.365L1089.48,619.365C1090.18,619.365 1090.68,619.213 1091,618.91C1091.31,618.606 1091.46,618.116 1091.46,617.438L1091.46,611.068C1091.46,610.39 1091.31,609.9 1091,609.596C1090.68,609.293 1090.18,609.141 1089.48,609.141L1084.13,609.141L1084.13,591.157L1089.48,591.157C1090.18,591.157 1090.68,591.005 1091,590.702C1091.31,590.399 1091.46,589.908 1091.46,589.23L1091.46,582.754C1091.46,582.076 1091.31,581.585 1091,581.282C1090.68,580.978 1090.18,580.827 1089.48,580.827L1065.99,580.827C1065.3,580.827 1064.79,580.978 1064.48,581.282C1064.16,581.585 1064.01,582.076 1064.01,582.754L1064.01,589.23C1064.01,589.908 1064.16,590.399 1064.48,590.702C1064.79,591.005 1065.3,591.157 1065.99,591.157L1071.45,591.157L1071.45,609.141L1065.99,609.141C1065.3,609.141 1064.79,609.293 1064.48,609.596C1064.16,609.9 1064.01,610.39 1064.01,611.068L1064.01,617.438C1064.01,618.116 1064.16,618.606 1064.48,618.91C1064.79,619.213 1065.3,619.365 1065.99,619.365Z"/>
            <path d="M1126.31,619.365L1098.96,619.365C1098.26,619.365 1097.76,619.213 1097.45,618.91C1097.13,618.606 1096.98,618.116 1096.98,617.438L1096.98,610.265C1096.98,609.587 1097.09,608.99 1097.31,608.472C1097.53,607.955 1097.88,607.446 1098.36,606.947L1111.75,591.157L1099.95,591.157C1099.26,591.157 1098.75,591.005 1098.44,590.702C1098.13,590.399 1097.97,589.908 1097.97,589.23L1097.97,582.754C1097.97,582.076 1098.13,581.585 1098.44,581.282C1098.75,580.978 1099.26,580.827 1099.95,580.827L1125.31,580.827C1126.01,580.827 1126.52,580.978 1126.83,581.282C1127.14,581.585 1127.3,582.076 1127.3,582.754L1127.3,590.729C1127.3,591.442 1127.19,592.058 1126.97,592.575C1126.75,593.093 1126.4,593.601 1125.92,594.101L1113.13,609.141L1126.31,609.141C1127.01,609.141 1127.51,609.293 1127.82,609.596C1128.13,609.9 1128.29,610.39 1128.29,611.068L1128.29,617.438C1128.29,618.116 1128.13,618.606 1127.82,618.91C1127.51,619.213 1127.01,619.365 1126.31,619.365Z" style="fill:white;"/>
            <path d="M1126.31,621.031L1098.96,621.031C1097.71,621.031 1096.84,620.648 1096.29,620.106C1095.71,619.548 1095.31,618.684 1095.31,617.438L1095.31,610.265C1095.31,609.34 1095.47,608.526 1095.78,607.819C1096.06,607.147 1096.5,606.481 1097.12,605.833L1108.15,592.824L1099.95,592.824C1098.7,592.824 1097.84,592.441 1097.28,591.898C1096.7,591.34 1096.3,590.477 1096.3,589.23L1096.3,582.754C1096.3,581.507 1096.7,580.643 1097.28,580.086C1097.84,579.543 1098.7,579.16 1099.95,579.16L1125.31,579.16C1126.56,579.16 1127.43,579.543 1127.99,580.086C1128.57,580.643 1128.97,581.507 1128.97,582.754L1128.97,590.729C1128.97,591.696 1128.8,592.528 1128.5,593.229C1128.21,593.901 1127.77,594.567 1127.16,595.215L1116.74,607.475L1126.31,607.475C1127.56,607.475 1128.42,607.858 1128.98,608.401C1129.56,608.958 1129.96,609.822 1129.96,611.068L1129.96,617.438C1129.96,618.684 1129.56,619.548 1128.98,620.106C1128.42,620.648 1127.56,621.031 1126.31,621.031ZM1126.31,619.365C1127.01,619.365 1127.51,619.213 1127.82,618.91C1128.13,618.606 1128.29,618.116 1128.29,617.438L1128.29,611.068C1128.29,610.39 1128.13,609.9 1127.82,609.596C1127.51,609.293 1127.01,609.141 1126.31,609.141L1113.13,609.141L1125.92,594.101C1126.4,593.601 1126.75,593.093 1126.97,592.575C1127.19,592.058 1127.3,591.442 1127.3,590.729L1127.3,582.754C1127.3,582.076 1127.14,581.585 1126.83,581.282C1126.52,580.978 1126.01,580.827 1125.31,580.827L1099.95,580.827C1099.26,580.827 1098.75,580.978 1098.44,581.282C1098.13,581.585 1097.97,582.076 1097.97,582.754L1097.97,589.23C1097.97,589.908 1098.13,590.399 1098.44,590.702C1098.75,591.005 1099.26,591.157 1099.95,591.157L1111.75,591.157L1098.36,606.947C1097.88,607.446 1097.53,607.955 1097.31,608.472C1097.09,608.99 1096.98,609.587 1096.98,610.265L1096.98,617.438C1096.98,618.116 1097.13,618.606 1097.45,618.91C1097.76,619.213 1098.26,619.365 1098.96,619.365L1126.31,619.365Z"/>
            <path d="M1162.2,619.365L1136.62,619.365C1135.92,619.365 1135.41,619.213 1135.1,618.91C1134.79,618.606 1134.63,618.116 1134.63,617.438L1134.63,582.754C1134.63,582.076 1134.79,581.585 1135.1,581.282C1135.41,580.978 1135.92,580.827 1136.62,580.827L1162.2,580.827C1162.89,580.827 1163.4,580.978 1163.71,581.282C1164.03,581.585 1164.18,582.076 1164.18,582.754L1164.18,589.016C1164.18,589.694 1164.03,590.185 1163.71,590.488C1163.4,590.791 1162.89,590.943 1162.2,590.943L1146.98,590.943L1146.98,595.064L1157.73,595.064C1158.43,595.064 1158.93,595.216 1159.25,595.519C1159.56,595.823 1159.72,596.313 1159.72,596.991L1159.72,602.718C1159.72,603.396 1159.56,603.887 1159.25,604.19C1158.93,604.494 1158.43,604.645 1157.73,604.645L1146.98,604.645L1146.98,609.248L1162.2,609.248C1162.89,609.248 1163.4,609.4 1163.71,609.703C1164.03,610.007 1164.18,610.497 1164.18,611.175L1164.18,617.438C1164.18,618.116 1164.03,618.606 1163.71,618.91C1163.4,619.213 1162.89,619.365 1162.2,619.365Z" style="fill:white;"/>
            <path d="M1162.2,621.031L1136.62,621.031C1135.37,621.031 1134.5,620.648 1133.94,620.106C1133.37,619.548 1132.96,618.684 1132.96,617.438L1132.96,582.754C1132.96,581.507 1133.37,580.643 1133.94,580.086C1134.5,579.543 1135.37,579.16 1136.62,579.16L1162.2,579.16C1163.45,579.16 1164.32,579.543 1164.87,580.086C1165.45,580.643 1165.85,581.507 1165.85,582.754L1165.85,589.016C1165.85,590.262 1165.45,591.126 1164.87,591.684C1164.32,592.227 1163.45,592.61 1162.2,592.61L1148.65,592.61C1148.65,592.61 1148.65,593.398 1148.65,593.398L1157.73,593.398C1158.98,593.398 1159.85,593.781 1160.41,594.323C1160.98,594.881 1161.38,595.745 1161.38,596.991L1161.38,602.718C1161.38,603.965 1160.98,604.829 1160.41,605.386C1159.85,605.929 1158.98,606.312 1157.73,606.312C1157.73,606.312 1148.65,606.312 1148.65,606.312L1148.65,607.582L1162.2,607.582C1163.45,607.582 1164.32,607.965 1164.87,608.508C1165.45,609.065 1165.85,609.929 1165.85,611.175L1165.85,617.438C1165.85,618.684 1165.45,619.548 1164.87,620.106C1164.32,620.648 1163.45,621.031 1162.2,621.031ZM1162.2,619.365C1162.89,619.365 1163.4,619.213 1163.71,618.91C1164.03,618.606 1164.18,618.116 1164.18,617.438L1164.18,611.175C1164.18,610.497 1164.03,610.007 1163.71,609.703C1163.4,609.4 1162.89,609.248 1162.2,609.248L1146.98,609.248L1146.98,604.645L1157.73,604.645C1158.43,604.645 1158.93,604.494 1159.25,604.19C1159.56,603.887 1159.72,603.396 1159.72,602.718L1159.72,596.991C1159.72,596.313 1159.56,595.823 1159.25,595.519C1158.93,595.216 1158.43,595.064 1157.73,595.064L1146.98,595.064L1146.98,590.943L1162.2,590.943C1162.89,590.943 1163.4,590.791 1163.71,590.488C1164.03,590.185 1164.18,589.694 1164.18,589.016L1164.18,582.754C1164.18,582.076 1164.03,581.585 1163.71,581.282C1163.4,580.978 1162.89,580.827 1162.2,580.827L1136.62,580.827C1135.92,580.827 1135.41,580.978 1135.1,581.282C1134.79,581.585 1134.63,582.076 1134.63,582.754L1134.63,617.438C1134.63,618.116 1134.79,618.606 1135.1,618.91C1135.41,619.213 1135.92,619.365 1136.62,619.365L1162.2,619.365Z"/>
        </g>
    </g>
</svg>
