<?xml version="1.0" encoding="UTF-8" standalone="no"?><!DOCTYPE svg PUBLIC "-//W3C//DTD SVG 1.1//EN" "http://www.w3.org/Graphics/SVG/1.1/DTD/svg11.dtd"><svg width="100%" height="100%" viewBox="0 0 502 82" version="1.1" xmlns="http://www.w3.org/2000/svg" xmlns:xlink="http://www.w3.org/1999/xlink" xml:space="preserve" xmlns:serif="http://www.serif.com/" style="fill-rule:evenodd;clip-rule:evenodd;stroke-linejoin:round;stroke-miterlimit:2;"><g><path d="M501.367,20.281c-0,-11.193 -9.088,-20.281 -20.282,-20.281l-460.804,0c-11.193,0 -20.281,9.088 -20.281,20.281l-0,40.562c-0,11.194 9.088,20.282 20.281,20.282l460.804,-0c11.194,-0 20.282,-9.088 20.282,-20.282l-0,-40.562Z" style="fill:#fff;"/><g><g><g><path d="M36.18,59.504l-17.213,-0c-0.69,-0 -1.189,-0.149 -1.498,-0.448c-0.308,-0.298 -0.463,-0.78 -0.463,-1.446l0,-6.156c0,-0.667 0.155,-1.149 0.463,-1.447c0.309,-0.298 0.808,-0.448 1.498,-0.448l14.653,0c0.472,0 0.826,-0.149 1.062,-0.447c0.236,-0.298 0.354,-0.657 0.354,-1.078c0,-0.597 -0.118,-1.035 -0.354,-1.316c-0.236,-0.28 -0.59,-0.438 -1.062,-0.473l-8.171,-1.105c-2.542,-0.351 -4.584,-1.158 -6.128,-2.42c-1.543,-1.263 -2.315,-3.368 -2.315,-6.314l0,-5.525c0,-2.981 0.999,-5.27 2.996,-6.866c1.997,-1.596 4.757,-2.394 8.28,-2.394l15.252,-0c0.69,-0 1.189,0.149 1.498,0.447c0.308,0.298 0.463,0.781 0.463,1.447l-0,6.261c-0,0.667 -0.155,1.149 -0.463,1.447c-0.309,0.298 -0.808,0.447 -1.498,0.447l-12.692,0c-0.472,0 -0.835,0.149 -1.09,0.448c-0.254,0.298 -0.381,0.675 -0.381,1.131c0,0.456 0.127,0.842 0.381,1.157c0.255,0.316 0.618,0.491 1.09,0.527l8.116,1.052c2.542,0.351 4.594,1.157 6.155,2.42c1.562,1.263 2.342,3.367 2.342,6.314l0,5.524c0,2.982 -1.007,5.271 -3.023,6.867c-2.015,1.596 -4.766,2.394 -8.252,2.394Z" style="fill-rule:nonzero;"/><path d="M30.275,47.684l-11.308,0c-1.308,0 -2.215,0.409 -2.8,0.974c-0.606,0.585 -1.036,1.488 -1.036,2.796c0,-0 0,6.156 0,6.156c0,1.307 0.43,2.21 1.036,2.795c0.585,0.566 1.492,0.974 2.8,0.974c0,-0 17.213,-0 17.213,-0c3.986,-0 7.112,-0.975 9.416,-2.799c2.454,-1.944 3.734,-4.706 3.734,-8.337l0,-5.524c0,-3.651 -1.103,-6.207 -3.038,-7.772c-1.799,-1.454 -4.149,-2.416 -7.078,-2.82l-4.488,-0.582l8.808,0c1.308,0 2.215,-0.408 2.8,-0.973c0.606,-0.585 1.036,-1.488 1.036,-2.796l-0,-6.261c-0,-1.308 -0.43,-2.21 -1.036,-2.795c-0.585,-0.566 -1.492,-0.974 -2.8,-0.974l-15.252,-0c-4.029,-0 -7.166,0.979 -9.45,2.804c-2.431,1.942 -3.701,4.703 -3.701,8.331c0,0 0,5.525 0,5.525c0,3.647 1.092,6.201 3.003,7.765c1.781,1.457 4.125,2.421 7.059,2.826l5.082,0.687Zm5.905,11.82l-17.213,-0c-0.69,-0 -1.189,-0.149 -1.498,-0.448c-0.308,-0.298 -0.463,-0.78 -0.463,-1.446l0,-6.156c0,-0.667 0.155,-1.149 0.463,-1.447c0.309,-0.298 0.808,-0.448 1.498,-0.448l14.653,0c0.472,0 0.826,-0.149 1.062,-0.447c0.236,-0.298 0.354,-0.657 0.354,-1.078c0,-0.597 -0.118,-1.035 -0.354,-1.316c-0.236,-0.28 -0.59,-0.438 -1.062,-0.473l-8.171,-1.105c-2.542,-0.351 -4.584,-1.158 -6.128,-2.42c-1.543,-1.263 -2.315,-3.368 -2.315,-6.314l0,-5.525c0,-2.981 0.999,-5.27 2.996,-6.866c1.997,-1.596 4.757,-2.394 8.28,-2.394l15.252,-0c0.69,-0 1.189,0.149 1.498,0.447c0.308,0.298 0.463,0.781 0.463,1.447l-0,6.261c-0,0.667 -0.155,1.149 -0.463,1.447c-0.309,0.298 -0.808,0.447 -1.498,0.447l-12.692,0c-0.472,0 -0.835,0.149 -1.09,0.448c-0.254,0.298 -0.381,0.675 -0.381,1.131c0,0.456 0.127,0.842 0.381,1.157c0.255,0.316 0.618,0.491 1.09,0.527l8.116,1.052c2.542,0.351 4.594,1.157 6.155,2.42c1.562,1.263 2.342,3.367 2.342,6.314l0,5.524c0,2.982 -1.007,5.271 -3.023,6.867c-2.015,1.596 -4.766,2.394 -8.252,2.394Z" style="fill:#808080;"/><path d="M67.61,32.67l-2.56,7.998l8.551,-0l-2.56,-7.998c-0.145,-0.316 -0.299,-0.544 -0.463,-0.684c-0.163,-0.14 -0.354,-0.21 -0.572,-0.21l-1.361,-0c-0.218,-0 -0.409,0.07 -0.572,0.21c-0.164,0.14 -0.318,0.368 -0.463,0.684Zm-3.105,24.94c-0,0.666 -0.155,1.148 -0.463,1.446c-0.309,0.299 -0.808,0.448 -1.498,0.448l-8.007,-0c-0.69,-0 -1.19,-0.149 -1.498,-0.448c-0.309,-0.298 -0.463,-0.78 -0.463,-1.446l-0,-13.891c-0,-1.052 0.172,-2.262 0.517,-3.63c0.345,-1.368 0.881,-2.964 1.607,-4.788l4.739,-11.944c0.218,-0.596 0.554,-1.034 1.008,-1.315c0.454,-0.281 1.044,-0.421 1.77,-0.421l14.653,-0c0.69,-0 1.262,0.14 1.716,0.421c0.453,0.281 0.789,0.719 1.007,1.315l4.739,11.944c0.726,1.824 1.262,3.42 1.607,4.788c0.345,1.368 0.518,2.578 0.518,3.63l-0,13.891c-0,0.666 -0.155,1.148 -0.463,1.446c-0.309,0.299 -0.808,0.448 -1.498,0.448l-8.225,-0c-0.727,-0 -1.262,-0.149 -1.607,-0.448c-0.345,-0.298 -0.518,-0.78 -0.518,-1.446l0,-7.367l-9.641,0l-0,7.367Z" style="fill-rule:nonzero;"/><path d="M66.38,57.61l-0,-5.492c-0,0 5.891,0 5.891,0c0,0 0,5.492 0,5.492c0,1.341 0.472,2.265 1.167,2.865c0.615,0.532 1.538,0.904 2.833,0.904c-0,-0 8.225,-0 8.225,-0c1.308,-0 2.215,-0.408 2.8,-0.974c0.606,-0.585 1.036,-1.488 1.036,-2.795c-0,-0 -0,-13.891 -0,-13.891c-0,-1.185 -0.186,-2.548 -0.575,-4.089c-0.362,-1.435 -0.921,-3.11 -1.683,-5.023c0.001,0.002 -4.73,-11.922 -4.73,-11.922c-0.38,-1.023 -0.99,-1.754 -1.773,-2.238c-0.717,-0.443 -1.611,-0.701 -2.701,-0.701l-14.653,-0c-1.135,-0 -2.047,0.262 -2.756,0.701c-0.786,0.486 -1.398,1.221 -1.777,2.251c0.005,-0.013 -4.727,11.911 -4.727,11.911c-0.761,1.911 -1.32,3.586 -1.682,5.021c-0.388,1.541 -0.574,2.904 -0.574,4.089l-0,13.891c-0,1.307 0.429,2.21 1.035,2.795c0.586,0.566 1.492,0.974 2.801,0.974c-0,-0 8.007,-0 8.007,-0c1.309,-0 2.215,-0.408 2.8,-0.974c0.606,-0.585 1.036,-1.488 1.036,-2.795Zm-1.875,-0c-0,0.666 -0.155,1.148 -0.463,1.446c-0.309,0.299 -0.808,0.448 -1.498,0.448l-8.007,-0c-0.69,-0 -1.19,-0.149 -1.498,-0.448c-0.309,-0.298 -0.463,-0.78 -0.463,-1.446l-0,-13.891c-0,-1.052 0.172,-2.262 0.517,-3.63c0.345,-1.368 0.881,-2.964 1.607,-4.788l4.739,-11.944c0.218,-0.596 0.554,-1.034 1.008,-1.315c0.454,-0.281 1.044,-0.421 1.77,-0.421l14.653,-0c0.69,-0 1.262,0.14 1.716,0.421c0.453,0.281 0.789,0.719 1.007,1.315l4.739,11.944c0.726,1.824 1.262,3.42 1.607,4.788c0.345,1.368 0.518,2.578 0.518,3.63l-0,13.891c-0,0.666 -0.155,1.148 -0.463,1.446c-0.309,0.299 -0.808,0.448 -1.498,0.448l-8.225,-0c-0.727,-0 -1.262,-0.149 -1.607,-0.448c-0.345,-0.298 -0.518,-0.78 -0.518,-1.446l0,-7.367l-9.641,0l-0,7.367Zm3.105,-24.94l-2.56,7.998l8.551,-0l-2.56,-7.998c-0.145,-0.316 -0.299,-0.544 -0.463,-0.684c-0.163,-0.14 -0.354,-0.21 -0.572,-0.21l-1.361,-0c-0.218,-0 -0.409,0.07 -0.572,0.21c-0.164,0.14 -0.318,0.368 -0.463,0.684Zm1.776,0.981l1.646,5.142c0.001,-0 -3.414,-0 -3.414,-0l1.646,-5.142l0.122,-0Z" style="fill:#808080;"/><path d="M115.408,59.504l-14.163,-0c-0.69,-0 -1.262,-0.123 -1.715,-0.369c-0.454,-0.245 -0.808,-0.701 -1.063,-1.368l-5.338,-12.89c-0.327,-0.772 -0.599,-1.447 -0.817,-2.026c-0.218,-0.579 -0.399,-1.131 -0.545,-1.657c-0.145,-0.526 -0.245,-1.079 -0.299,-1.658c-0.055,-0.578 -0.082,-1.289 -0.082,-2.131l0,-13.89c0,-0.666 0.154,-1.149 0.463,-1.447c0.309,-0.298 0.808,-0.447 1.498,-0.447l8.661,-0c0.69,-0 1.216,0.149 1.58,0.447c0.363,0.298 0.544,0.781 0.544,1.447l0,14.522c0,0.351 0.037,0.701 0.109,1.052c0.073,0.351 0.182,0.719 0.327,1.105l2.56,7.366c0.109,0.351 0.236,0.588 0.381,0.71c0.146,0.123 0.364,0.185 0.654,0.185l0.599,-0c0.291,-0 0.509,-0.062 0.654,-0.185c0.145,-0.122 0.272,-0.359 0.381,-0.71l2.56,-7.419c0.146,-0.385 0.255,-0.754 0.327,-1.105c0.073,-0.35 0.109,-0.701 0.109,-1.052l0,-14.469c0,-0.666 0.154,-1.149 0.463,-1.447c0.309,-0.298 0.808,-0.447 1.498,-0.447l8.552,-0c0.69,-0 1.189,0.149 1.498,0.447c0.309,0.298 0.463,0.781 0.463,1.447l-0,13.89c-0,0.842 -0.027,1.553 -0.082,2.131c-0.054,0.579 -0.154,1.132 -0.299,1.658c-0.146,0.526 -0.327,1.078 -0.545,1.657c-0.218,0.579 -0.49,1.254 -0.817,2.026l-5.338,12.89c-0.254,0.667 -0.609,1.123 -1.062,1.368c-0.454,0.246 -1.026,0.369 -1.716,0.369Z" style="fill-rule:nonzero;"/><path d="M108.461,45.684l-2.122,-6.106c-0.005,-0.015 -0.011,-0.03 -0.016,-0.045c-0.109,-0.288 -0.191,-0.562 -0.246,-0.824c-0.046,-0.224 -0.07,-0.448 -0.07,-0.672c0,-0 0,-14.522 0,-14.522c0,-1.356 -0.491,-2.289 -1.23,-2.896c-0.642,-0.527 -1.549,-0.873 -2.769,-0.873l-8.661,-0c-1.309,-0 -2.215,0.408 -2.801,0.974c-0.605,0.585 -1.035,1.487 -1.035,2.795l0,13.89c0,0.912 0.031,1.681 0.09,2.307c0.065,0.692 0.185,1.352 0.359,1.981c0.159,0.577 0.358,1.184 0.597,1.819c0.225,0.597 0.506,1.293 0.842,2.088c0,0 5.328,12.865 5.328,12.865c0.445,1.151 1.122,1.893 1.91,2.32c0.692,0.374 1.557,0.594 2.608,0.594c0,-0 14.163,-0 14.163,-0c1.051,-0 1.916,-0.22 2.608,-0.594c0.792,-0.429 1.471,-1.176 1.917,-2.336c-0.007,0.016 5.321,-12.849 5.321,-12.849c0.336,-0.795 0.617,-1.491 0.842,-2.088c0.239,-0.635 0.438,-1.242 0.597,-1.819c0.174,-0.629 0.294,-1.289 0.359,-1.981c0.059,-0.626 0.09,-1.395 0.09,-2.307l-0,-13.89c-0,-1.308 -0.43,-2.21 -1.035,-2.795c-0.586,-0.566 -1.492,-0.974 -2.801,-0.974l-8.552,-0c-1.309,-0 -2.215,0.408 -2.8,0.974c-0.606,0.585 -1.036,1.487 -1.036,2.795l0,14.469c0,0.224 -0.023,0.448 -0.07,0.672c-0.054,0.262 -0.137,0.537 -0.245,0.825c-0.006,0.016 -0.012,0.032 -0.018,0.049l-2.124,6.154Zm6.947,13.82l-14.163,-0c-0.69,-0 -1.262,-0.123 -1.715,-0.369c-0.454,-0.245 -0.808,-0.701 -1.063,-1.368l-5.338,-12.89c-0.327,-0.772 -0.599,-1.447 -0.817,-2.026c-0.218,-0.579 -0.399,-1.131 -0.545,-1.657c-0.145,-0.526 -0.245,-1.079 -0.299,-1.658c-0.055,-0.578 -0.082,-1.289 -0.082,-2.131l0,-13.89c0,-0.666 0.154,-1.149 0.463,-1.447c0.309,-0.298 0.808,-0.447 1.498,-0.447l8.661,-0c0.69,-0 1.216,0.149 1.58,0.447c0.363,0.298 0.544,0.781 0.544,1.447l0,14.522c0,0.351 0.037,0.701 0.109,1.052c0.073,0.351 0.182,0.719 0.327,1.105l2.56,7.366c0.109,0.351 0.236,0.588 0.381,0.71c0.146,0.123 0.364,0.185 0.654,0.185l0.599,-0c0.291,-0 0.509,-0.062 0.654,-0.185c0.145,-0.122 0.272,-0.359 0.381,-0.71l2.56,-7.419c0.146,-0.385 0.255,-0.754 0.327,-1.105c0.073,-0.35 0.109,-0.701 0.109,-1.052l0,-14.469c0,-0.666 0.154,-1.149 0.463,-1.447c0.309,-0.298 0.808,-0.447 1.498,-0.447l8.552,-0c0.69,-0 1.189,0.149 1.498,0.447c0.309,0.298 0.463,0.781 0.463,1.447l-0,13.89c-0,0.842 -0.027,1.553 -0.082,2.131c-0.054,0.579 -0.154,1.132 -0.299,1.658c-0.146,0.526 -0.327,1.078 -0.545,1.657c-0.218,0.579 -0.49,1.254 -0.817,2.026l-5.338,12.89c-0.254,0.667 -0.609,1.123 -1.062,1.368c-0.454,0.246 -1.026,0.369 -1.716,0.369Z" style="fill:#808080;"/><path d="M159.202,59.504l-25.274,-0c-0.69,-0 -1.189,-0.149 -1.498,-0.448c-0.309,-0.298 -0.463,-0.78 -0.463,-1.446l-0,-34.095c-0,-0.666 0.154,-1.149 0.463,-1.447c0.309,-0.298 0.808,-0.447 1.498,-0.447l25.274,-0c0.69,-0 1.19,0.149 1.498,0.447c0.309,0.298 0.463,0.781 0.463,1.447l0,6.156c0,0.666 -0.154,1.149 -0.463,1.447c-0.308,0.298 -0.808,0.447 -1.498,0.447l-15.034,0l0,4.052l10.622,-0c0.69,-0 1.189,0.149 1.498,0.447c0.309,0.298 0.463,0.78 0.463,1.447l0,5.629c0,0.667 -0.154,1.149 -0.463,1.447c-0.309,0.298 -0.808,0.448 -1.498,0.448l-10.622,-0l0,4.524l15.034,0c0.69,0 1.19,0.15 1.498,0.448c0.309,0.298 0.463,0.78 0.463,1.447l0,6.156c0,0.666 -0.154,1.148 -0.463,1.446c-0.308,0.299 -0.808,0.448 -1.498,0.448Z" style="fill-rule:nonzero;"/><path d="M159.202,61.379c1.309,-0 2.215,-0.408 2.801,-0.974c0.606,-0.585 1.035,-1.488 1.035,-2.795c0,-0 0,-6.156 0,-6.156c0,-1.308 -0.429,-2.211 -1.035,-2.796c-0.586,-0.565 -1.492,-0.974 -2.801,-0.974c0,0 -13.159,0 -13.159,0c0,0 0,-0.774 0,-0.774c0,-0 8.747,-0 8.747,-0c1.309,-0 2.215,-0.409 2.801,-0.974c0.605,-0.585 1.035,-1.488 1.035,-2.796c0,0 0,-5.629 0,-5.629c0,-1.308 -0.43,-2.211 -1.035,-2.796c-0.586,-0.565 -1.492,-0.973 -2.801,-0.973l-8.747,-0c0,-0 0,-0.302 0,-0.302c0,0 13.159,0 13.159,0c1.309,0 2.215,-0.408 2.801,-0.973c0.606,-0.586 1.035,-1.488 1.035,-2.796c0,0 0,-6.156 0,-6.156c0,-1.308 -0.429,-2.21 -1.035,-2.795c-0.586,-0.566 -1.492,-0.974 -2.801,-0.974l-25.274,-0c-1.309,-0 -2.215,0.408 -2.801,0.974c-0.605,0.585 -1.035,1.487 -1.035,2.795c-0,0 -0,34.095 -0,34.095c-0,1.307 0.43,2.21 1.035,2.795c0.586,0.566 1.492,0.974 2.801,0.974c-0,-0 25.274,-0 25.274,-0Zm0,-1.875l-25.274,-0c-0.69,-0 -1.189,-0.149 -1.498,-0.448c-0.309,-0.298 -0.463,-0.78 -0.463,-1.446l-0,-34.095c-0,-0.666 0.154,-1.149 0.463,-1.447c0.309,-0.298 0.808,-0.447 1.498,-0.447l25.274,-0c0.69,-0 1.19,0.149 1.498,0.447c0.309,0.298 0.463,0.781 0.463,1.447l0,6.156c0,0.666 -0.154,1.149 -0.463,1.447c-0.308,0.298 -0.808,0.447 -1.498,0.447l-15.034,0l0,4.052l10.622,-0c0.69,-0 1.189,0.149 1.498,0.447c0.309,0.298 0.463,0.78 0.463,1.447l0,5.629c0,0.667 -0.154,1.149 -0.463,1.447c-0.309,0.298 -0.808,0.448 -1.498,0.448l-10.622,-0l0,4.524l15.034,0c0.69,0 1.19,0.15 1.498,0.448c0.309,0.298 0.463,0.78 0.463,1.447l0,6.156c0,0.666 -0.154,1.148 -0.463,1.446c-0.308,0.299 -0.808,0.448 -1.498,0.448Z" style="fill:#808080;"/></g></g><g><path d="M192.543,60.527l-9.611,0c-0.785,0 -1.353,-0.157 -1.705,-0.471c-0.351,-0.314 -0.527,-0.823 -0.527,-1.525l0,-35.937c0,-0.703 0.176,-1.211 0.527,-1.525c0.352,-0.314 0.92,-0.472 1.705,-0.472l9.611,0c0.786,0 1.354,0.158 1.706,0.472c0.351,0.314 0.527,0.822 0.527,1.525l-0,12.034l10.355,0l-0,-12.034c-0,-0.703 0.175,-1.211 0.527,-1.525c0.351,-0.314 0.92,-0.472 1.705,-0.472l9.611,0c0.785,0 1.354,0.158 1.705,0.472c0.352,0.314 0.527,0.822 0.527,1.525l0,35.937c0,0.702 -0.175,1.211 -0.527,1.525c-0.351,0.314 -0.92,0.471 -1.705,0.471l-9.611,0c-0.785,0 -1.354,-0.157 -1.705,-0.471c-0.352,-0.314 -0.527,-0.823 -0.527,-1.525l-0,-12.312l-10.355,0l-0,12.312c-0,0.702 -0.176,1.211 -0.527,1.525c-0.352,0.314 -0.92,0.471 -1.706,0.471Z" style="fill-rule:nonzero;stroke:#808080;stroke-width:1.87px;"/><path d="M229.003,60.527c-0.785,0 -1.354,-0.157 -1.705,-0.471c-0.351,-0.314 -0.527,-0.823 -0.527,-1.525l0,-6.6c0,-0.702 0.176,-1.211 0.527,-1.525c0.351,-0.314 0.92,-0.471 1.705,-0.471l6.139,-0l-0,-18.634l-6.139,-0c-0.785,-0 -1.354,-0.157 -1.705,-0.472c-0.351,-0.314 -0.527,-0.822 -0.527,-1.525l0,-6.71c0,-0.703 0.176,-1.211 0.527,-1.525c0.351,-0.314 0.92,-0.472 1.705,-0.472l26.415,0c0.785,0 1.354,0.158 1.705,0.472c0.352,0.314 0.527,0.822 0.527,1.525l0,6.71c0,0.703 -0.175,1.211 -0.527,1.525c-0.351,0.315 -0.92,0.472 -1.705,0.472l-6.015,-0l0,18.634l6.015,-0c0.785,-0 1.354,0.157 1.705,0.471c0.352,0.314 0.527,0.823 0.527,1.525l0,6.6c0,0.702 -0.175,1.211 -0.527,1.525c-0.351,0.314 -0.92,0.471 -1.705,0.471l-26.415,0Z" style="fill-rule:nonzero;stroke:#808080;stroke-width:1.87px;"/><path d="M299.381,60.527l-19.533,0c-5.167,0 -9.001,-0.924 -11.502,-2.773c-2.501,-1.848 -3.751,-4.695 -3.751,-8.54l-0,-17.303c-0,-3.845 1.25,-6.692 3.751,-8.541c2.501,-1.848 6.335,-2.773 11.502,-2.773l15.502,0c0.786,0 1.354,0.158 1.705,0.472c0.352,0.314 0.527,0.822 0.527,1.525l0,6.71c0,0.703 -0.175,1.211 -0.527,1.525c-0.351,0.315 -0.919,0.472 -1.705,0.472l-12.897,-0c-1.282,-0 -2.232,0.231 -2.853,0.693c-0.62,0.462 -0.93,1.155 -0.93,2.08l0,13.254c0,0.925 0.238,1.608 0.713,2.052c0.476,0.444 1.189,0.666 2.14,0.666l6.014,-0l0,-8.652c0,-0.702 0.176,-1.211 0.527,-1.525c0.352,-0.314 0.92,-0.471 1.706,-0.471l9.611,-0c0.785,-0 1.353,0.157 1.705,0.471c0.351,0.314 0.527,0.823 0.527,1.525l-0,17.137c-0,0.702 -0.176,1.211 -0.527,1.525c-0.352,0.314 -0.92,0.471 -1.705,0.471Z" style="fill-rule:nonzero;stroke:#808080;stroke-width:1.87px;"/><path d="M321.021,60.527l-9.611,0c-0.786,0 -1.354,-0.157 -1.705,-0.471c-0.352,-0.314 -0.527,-0.823 -0.527,-1.525l-0,-35.937c-0,-0.703 0.175,-1.211 0.527,-1.525c0.351,-0.314 0.919,-0.472 1.705,-0.472l9.611,0c0.785,0 1.354,0.158 1.705,0.472c0.351,0.314 0.527,0.822 0.527,1.525l-0,12.034l10.355,0l0,-12.034c0,-0.703 0.176,-1.211 0.527,-1.525c0.351,-0.314 0.92,-0.472 1.705,-0.472l9.611,0c0.786,0 1.354,0.158 1.705,0.472c0.352,0.314 0.528,0.822 0.528,1.525l-0,35.937c-0,0.702 -0.176,1.211 -0.528,1.525c-0.351,0.314 -0.919,0.471 -1.705,0.471l-9.611,0c-0.785,0 -1.354,-0.157 -1.705,-0.471c-0.351,-0.314 -0.527,-0.823 -0.527,-1.525l0,-12.312l-10.355,0l-0,12.312c-0,0.702 -0.176,1.211 -0.527,1.525c-0.351,0.314 -0.92,0.471 -1.705,0.471Z" style="fill-rule:nonzero;stroke:#808080;stroke-width:1.87px;"/><path d="M378.205,30.58l0,7.098l4.651,0c1.075,0 1.798,-0.249 2.17,-0.748c0.372,-0.499 0.558,-1.119 0.558,-1.858l0,-1.886c0,-0.739 -0.186,-1.358 -0.558,-1.857c-0.372,-0.5 -1.095,-0.749 -2.17,-0.749l-4.651,-0Zm-2.232,29.947l-9.549,0c-0.785,0 -1.354,-0.157 -1.705,-0.471c-0.351,-0.314 -0.527,-0.823 -0.527,-1.525l-0,-35.937c-0,-0.703 0.176,-1.211 0.527,-1.525c0.351,-0.314 0.92,-0.472 1.705,-0.472l20.648,0c4.63,0 7.823,0.86 9.58,2.579c1.757,1.719 2.635,3.947 2.635,6.683l0,2.551c0,1.553 -0.258,2.875 -0.775,3.965c-0.516,1.091 -1.415,1.877 -2.697,2.357c2.232,0.222 4.041,1.035 5.426,2.44c1.384,1.405 2.077,3.272 2.077,5.602l-0,11.757c-0,0.702 -0.176,1.211 -0.527,1.525c-0.352,0.314 -0.92,0.471 -1.705,0.471l-9.611,0c-0.786,0 -1.354,-0.157 -1.706,-0.471c-0.351,-0.314 -0.527,-0.823 -0.527,-1.525l0,-8.485c0,-0.814 -0.175,-1.415 -0.527,-1.803c-0.351,-0.388 -0.961,-0.582 -1.829,-0.582l-8.681,-0l0,10.87c0,0.702 -0.175,1.211 -0.527,1.525c-0.351,0.314 -0.92,0.471 -1.705,0.471Z" style="fill-rule:nonzero;stroke:#808080;stroke-width:1.87px;"/><path d="M441.266,60.527l-28.771,0c-0.786,0 -1.354,-0.157 -1.705,-0.471c-0.352,-0.314 -0.527,-0.823 -0.527,-1.525l-0,-35.937c-0,-0.703 0.175,-1.211 0.527,-1.525c0.351,-0.314 0.919,-0.472 1.705,-0.472l28.771,0c0.785,0 1.354,0.158 1.705,0.472c0.351,0.314 0.527,0.822 0.527,1.525l0,6.488c0,0.703 -0.176,1.211 -0.527,1.526c-0.351,0.314 -0.92,0.471 -1.705,0.471l-17.114,-0l0,4.27l12.091,0c0.786,0 1.354,0.157 1.705,0.472c0.352,0.314 0.528,0.822 0.528,1.525l-0,5.934c-0,0.702 -0.176,1.211 -0.528,1.525c-0.351,0.314 -0.919,0.471 -1.705,0.471l-12.091,0l0,4.77l17.114,-0c0.785,-0 1.354,0.157 1.705,0.471c0.351,0.314 0.527,0.823 0.527,1.525l0,6.489c0,0.702 -0.176,1.211 -0.527,1.525c-0.351,0.314 -0.92,0.471 -1.705,0.471Z" style="fill-rule:nonzero;stroke:#808080;stroke-width:1.87px;"/><path d="M471.525,60.527l-19.594,0c-0.785,0 -1.354,-0.157 -1.705,-0.471c-0.352,-0.314 -0.527,-0.823 -0.527,-1.525l-0,-6.489c-0,-0.702 0.175,-1.211 0.527,-1.525c0.351,-0.314 0.92,-0.471 1.705,-0.471l16.68,-0c0.537,-0 0.94,-0.157 1.209,-0.472c0.268,-0.314 0.403,-0.693 0.403,-1.137c-0,-0.628 -0.135,-1.09 -0.403,-1.386c-0.269,-0.296 -0.672,-0.462 -1.209,-0.499l-9.301,-1.165c-2.894,-0.37 -5.219,-1.22 -6.976,-2.551c-1.757,-1.331 -2.635,-3.549 -2.635,-6.655l-0,-5.823c-0,-3.143 1.136,-5.555 3.41,-7.237c2.274,-1.683 5.415,-2.524 9.425,-2.524l17.362,0c0.785,0 1.354,0.158 1.705,0.472c0.351,0.314 0.527,0.822 0.527,1.525l0,6.599c0,0.703 -0.176,1.211 -0.527,1.525c-0.351,0.315 -0.92,0.472 -1.705,0.472l-14.448,-0c-0.537,-0 -0.95,0.157 -1.24,0.471c-0.289,0.315 -0.434,0.712 -0.434,1.193c0,0.48 0.145,0.887 0.434,1.22c0.29,0.332 0.703,0.517 1.24,0.554l9.239,1.109c2.894,0.37 5.229,1.221 7.007,2.552c1.778,1.331 2.666,3.549 2.666,6.655l0,5.823c0,3.142 -1.147,5.555 -3.441,7.237c-2.294,1.682 -5.426,2.523 -9.394,2.523Z" style="fill-rule:nonzero;stroke:#808080;stroke-width:1.87px;"/></g></g></g></svg>