<?xml version="1.0" encoding="UTF-8" standalone="no"?>
<!DOCTYPE svg PUBLIC "-//W3C//DTD SVG 1.1//EN" "http://www.w3.org/Graphics/SVG/1.1/DTD/svg11.dtd">
<svg width="100%" height="100%" viewBox="0 0 281 42" version="1.1" xmlns="http://www.w3.org/2000/svg" xmlns:xlink="http://www.w3.org/1999/xlink" xml:space="preserve" xmlns:serif="http://www.serif.com/" style="fill-rule:evenodd;clip-rule:evenodd;stroke-linejoin:round;stroke-miterlimit:2;">
    <g transform="matrix(1,0,0,1,-694.115,-430.372)">
        <g>
            <path d="M713.521,469.576L696.1,469.576C695.401,469.576 694.896,469.425 694.584,469.121C694.271,468.818 694.115,468.327 694.115,467.649L694.115,461.387C694.115,460.709 694.271,460.218 694.584,459.915C694.896,459.612 695.401,459.46 696.1,459.46L710.93,459.46C711.408,459.46 711.766,459.308 712.005,459.005C712.244,458.702 712.363,458.336 712.363,457.908C712.363,457.301 712.244,456.855 712.005,456.57C711.766,456.284 711.408,456.124 710.93,456.088L702.66,454.964C700.087,454.607 698.02,453.786 696.458,452.502C694.896,451.217 694.115,449.076 694.115,446.079L694.115,440.459C694.115,437.426 695.126,435.097 697.147,433.474C699.169,431.85 701.962,431.038 705.527,431.038L720.964,431.038C721.662,431.038 722.167,431.19 722.48,431.493C722.792,431.797 722.948,432.287 722.948,432.965L722.948,439.335C722.948,440.013 722.792,440.503 722.48,440.807C722.167,441.11 721.662,441.262 720.964,441.262L708.118,441.262C707.64,441.262 707.273,441.413 707.016,441.717C706.758,442.02 706.63,442.403 706.63,442.867C706.63,443.331 706.758,443.724 707.016,444.045C707.273,444.366 707.64,444.544 708.118,444.58L716.333,445.651C718.905,446.007 720.982,446.828 722.562,448.113C724.143,449.397 724.933,451.538 724.933,454.536L724.933,460.156C724.933,463.189 723.913,465.517 721.873,467.141C719.833,468.765 717.049,469.576 713.521,469.576ZM742.189,467.649C742.189,468.327 742.033,468.818 741.72,469.121C741.408,469.425 740.902,469.576 740.204,469.576L732.1,469.576C731.402,469.576 730.896,469.425 730.584,469.121C730.271,468.818 730.115,468.327 730.115,467.649L730.115,453.519C730.115,452.448 730.29,451.217 730.639,449.826C730.988,448.434 731.53,446.81 732.265,444.955L737.062,432.805C737.282,432.198 737.622,431.752 738.082,431.466C738.541,431.181 739.138,431.038 739.873,431.038L754.704,431.038C755.402,431.038 755.981,431.181 756.44,431.466C756.9,431.752 757.24,432.198 757.46,432.805L762.256,444.955C762.991,446.81 763.534,448.434 763.883,449.826C764.232,451.217 764.407,452.448 764.407,453.519L764.407,467.649C764.407,468.327 764.25,468.818 763.938,469.121C763.625,469.425 763.12,469.576 762.422,469.576L754.097,469.576C753.362,469.576 752.82,469.425 752.471,469.121C752.122,468.818 751.947,468.327 751.947,467.649L751.947,460.156L742.189,460.156L742.189,467.649ZM745.331,442.279L742.74,450.414L751.396,450.414L748.805,442.279C748.658,441.957 748.501,441.725 748.336,441.583C748.171,441.44 747.978,441.369 747.757,441.369L746.379,441.369C746.158,441.369 745.965,441.44 745.8,441.583C745.635,441.725 745.478,441.957 745.331,442.279ZM794.138,469.576L779.804,469.576C779.106,469.576 778.527,469.451 778.067,469.202C777.608,468.952 777.25,468.488 776.992,467.81L771.59,454.696C771.259,453.911 770.983,453.224 770.763,452.636C770.542,452.047 770.358,451.485 770.211,450.95C770.064,450.414 769.963,449.852 769.908,449.264C769.853,448.675 769.825,447.952 769.825,447.096L769.825,432.965C769.825,432.287 769.982,431.797 770.294,431.493C770.606,431.19 771.112,431.038 771.81,431.038L780.576,431.038C781.274,431.038 781.807,431.19 782.175,431.493C782.542,431.797 782.726,432.287 782.726,432.965L782.726,447.738C782.726,448.095 782.763,448.452 782.836,448.809C782.91,449.165 783.02,449.54 783.167,449.933L785.758,457.426C785.868,457.783 785.997,458.024 786.144,458.149C786.291,458.274 786.512,458.336 786.806,458.336L787.412,458.336C787.706,458.336 787.927,458.274 788.074,458.149C788.221,458.024 788.349,457.783 788.46,457.426L791.051,449.879C791.198,449.487 791.308,449.112 791.381,448.755C791.455,448.398 791.492,448.041 791.492,447.685L791.492,432.965C791.492,432.287 791.648,431.797 791.96,431.493C792.273,431.19 792.778,431.038 793.476,431.038L802.132,431.038C802.83,431.038 803.336,431.19 803.648,431.493C803.96,431.797 804.117,432.287 804.117,432.965L804.117,447.096C804.117,447.952 804.089,448.675 804.034,449.264C803.979,449.852 803.878,450.414 803.731,450.95C803.584,451.485 803.4,452.047 803.179,452.636C802.959,453.224 802.683,453.911 802.352,454.696L796.95,467.81C796.692,468.488 796.334,468.952 795.875,469.202C795.415,469.451 794.836,469.576 794.138,469.576ZM838.463,469.576L812.882,469.576C812.184,469.576 811.679,469.425 811.366,469.121C811.054,468.818 810.898,468.327 810.898,467.649L810.898,432.965C810.898,432.287 811.054,431.797 811.366,431.493C811.679,431.19 812.184,431.038 812.882,431.038L838.463,431.038C839.161,431.038 839.667,431.19 839.979,431.493C840.291,431.797 840.448,432.287 840.448,432.965L840.448,439.228C840.448,439.906 840.291,440.396 839.979,440.7C839.667,441.003 839.161,441.155 838.463,441.155L823.247,441.155L823.247,445.276L833.997,445.276C834.696,445.276 835.201,445.428 835.514,445.731C835.826,446.034 835.982,446.525 835.982,447.203L835.982,452.93C835.982,453.608 835.826,454.099 835.514,454.402C835.201,454.705 834.696,454.857 833.997,454.857L823.247,454.857L823.247,459.46L838.463,459.46C839.161,459.46 839.667,459.612 839.979,459.915C840.291,460.218 840.448,460.709 840.448,461.387L840.448,467.649C840.448,468.327 840.291,468.818 839.979,469.121C839.667,469.425 839.161,469.576 838.463,469.576ZM869.887,469.576L861.342,469.576C860.644,469.576 860.139,469.425 859.826,469.121C859.514,468.818 859.358,468.327 859.358,467.649L859.358,432.965C859.358,432.287 859.514,431.797 859.826,431.493C860.139,431.19 860.644,431.038 861.342,431.038L878.212,431.038C883.211,431.038 886.629,432.002 888.466,433.929C890.304,435.856 891.223,438.371 891.223,441.476L891.223,448.327C891.223,451.431 890.304,453.947 888.466,455.874C886.629,457.801 883.211,458.764 878.212,458.764L871.872,458.764L871.872,467.649C871.872,468.327 871.716,468.818 871.404,469.121C871.091,469.425 870.586,469.576 869.887,469.576ZM871.762,441.047L871.762,449.13L876.724,449.13C877.79,449.13 878.488,448.862 878.819,448.327C879.149,447.792 879.315,447.185 879.315,446.507L879.315,443.67C879.315,442.992 879.149,442.386 878.819,441.85C878.488,441.315 877.79,441.047 876.724,441.047L871.762,441.047ZM917.52,469.576L898.941,469.576C898.243,469.576 897.738,469.425 897.425,469.121C897.113,468.818 896.957,468.327 896.957,467.649L896.957,432.965C896.957,432.287 897.113,431.797 897.425,431.493C897.738,431.19 898.243,431.038 898.941,431.038L917.52,431.038C922.115,431.038 925.523,431.93 927.747,433.715C929.971,435.499 931.082,438.246 931.082,441.957L931.082,458.657C931.082,462.368 929.971,465.116 927.747,466.9C925.523,468.684 922.115,469.576 917.52,469.576ZM909.471,441.262L909.471,459.46L916.032,459.46C916.914,459.46 917.566,459.246 917.989,458.818C918.412,458.39 918.623,457.729 918.623,456.837L918.623,443.831C918.623,442.939 918.412,442.287 917.989,441.877C917.566,441.467 916.914,441.262 916.032,441.262L909.471,441.262ZM948.614,469.576L940.069,469.576C939.37,469.576 938.865,469.425 938.553,469.121C938.24,468.818 938.084,468.327 938.084,467.649L938.084,432.965C938.084,432.287 938.24,431.797 938.553,431.493C938.865,431.19 939.37,431.038 940.069,431.038L964.657,431.038C965.355,431.038 965.861,431.19 966.173,431.493C966.486,431.797 966.642,432.287 966.642,432.965L966.642,439.335C966.642,440.013 966.486,440.503 966.173,440.807C965.861,441.11 965.355,441.262 964.657,441.262L950.599,441.262L950.599,446.828L960.191,446.828C960.89,446.828 961.395,446.98 961.708,447.283C962.02,447.586 962.176,448.077 962.176,448.755L962.176,455.178C962.176,455.856 962.02,456.347 961.708,456.65C961.395,456.953 960.89,457.105 960.191,457.105L950.599,457.105L950.599,467.649C950.599,468.327 950.442,468.818 950.13,469.121C949.818,469.425 949.312,469.576 948.614,469.576Z" style="fill:rgb(255,0,0);"/>
            <path d="M719.521,470.576L702.1,470.576C701.401,470.576 700.896,470.425 700.584,470.121C700.271,469.818 700.115,469.327 700.115,468.649L700.115,462.387C700.115,461.709 700.271,461.218 700.584,460.915C700.896,460.612 701.401,460.46 702.1,460.46L716.93,460.46C717.408,460.46 717.766,460.308 718.005,460.005C718.244,459.702 718.363,459.336 718.363,458.908C718.363,458.301 718.244,457.855 718.005,457.57C717.766,457.284 717.408,457.124 716.93,457.088L708.66,455.964C706.087,455.607 704.02,454.786 702.458,453.502C700.896,452.217 700.115,450.076 700.115,447.079L700.115,441.459C700.115,438.426 701.126,436.097 703.147,434.474C705.169,432.85 707.962,432.038 711.527,432.038L726.964,432.038C727.662,432.038 728.167,432.19 728.48,432.493C728.792,432.797 728.948,433.287 728.948,433.965L728.948,440.335C728.948,441.013 728.792,441.503 728.48,441.807C728.167,442.11 727.662,442.262 726.964,442.262L714.118,442.262C713.64,442.262 713.273,442.413 713.016,442.717C712.758,443.02 712.63,443.403 712.63,443.867C712.63,444.331 712.758,444.724 713.016,445.045C713.273,445.366 713.64,445.544 714.118,445.58L722.333,446.651C724.905,447.007 726.982,447.828 728.562,449.113C730.143,450.397 730.933,452.538 730.933,455.536L730.933,461.156C730.933,464.189 729.913,466.517 727.873,468.141C725.833,469.765 723.049,470.576 719.521,470.576Z" style="fill:white;"/>
            <path d="M714.334,443.928L722.548,444.998C722.553,444.999 722.557,444.999 722.562,445C725.479,445.404 727.822,446.363 729.614,447.819C731.524,449.372 732.6,451.913 732.6,455.536L732.6,461.156C732.6,464.765 731.338,467.513 728.911,469.445C726.614,471.274 723.495,472.243 719.521,472.243L702.1,472.243C700.85,472.243 699.982,471.86 699.423,471.317C698.848,470.76 698.448,469.896 698.448,468.649L698.448,462.387C698.448,461.141 698.848,460.277 699.423,459.719C699.982,459.177 700.85,458.793 702.1,458.793L716.691,458.793C716.69,458.775 716.688,458.756 716.686,458.737L708.436,457.615L708.431,457.615C705.509,457.21 703.173,456.248 701.399,454.789C699.513,453.238 698.448,450.698 698.448,447.079L698.448,441.459C698.448,437.852 699.7,435.105 702.103,433.174C704.381,431.345 707.511,430.372 711.527,430.372L726.964,430.372C728.213,430.372 729.082,430.755 729.641,431.297C730.215,431.855 730.615,432.719 730.615,433.965L730.615,440.335C730.615,441.581 730.215,442.445 729.641,443.002C729.082,443.545 728.213,443.928 726.964,443.928L714.334,443.928ZM719.521,470.576C723.049,470.576 725.833,469.765 727.873,468.141C729.913,466.517 730.933,464.189 730.933,461.156L730.933,455.536C730.933,452.538 730.143,450.397 728.562,449.113C726.982,447.828 724.905,447.007 722.333,446.651L714.118,445.58C713.64,445.544 713.273,445.366 713.016,445.045C712.758,444.724 712.63,444.331 712.63,443.867C712.63,443.403 712.758,443.02 713.016,442.717C713.273,442.413 713.64,442.262 714.118,442.262L726.964,442.262C727.662,442.262 728.167,442.11 728.48,441.807C728.792,441.503 728.948,441.013 728.948,440.335L728.948,433.965C728.948,433.287 728.792,432.797 728.48,432.493C728.167,432.19 727.662,432.038 726.964,432.038L711.527,432.038C707.962,432.038 705.169,432.85 703.147,434.474C701.126,436.097 700.115,438.426 700.115,441.459L700.115,447.079C700.115,450.076 700.896,452.217 702.458,453.502C704.02,454.786 706.087,455.607 708.66,455.964L716.93,457.088C717.408,457.124 717.766,457.284 718.005,457.57C718.244,457.855 718.363,458.301 718.363,458.908C718.363,459.336 718.244,459.702 718.005,460.005C717.766,460.308 717.408,460.46 716.93,460.46L702.1,460.46C701.401,460.46 700.896,460.612 700.584,460.915C700.271,461.218 700.115,461.709 700.115,462.387L700.115,468.649C700.115,469.327 700.271,469.818 700.584,470.121C700.896,470.425 701.401,470.576 702.1,470.576L719.521,470.576Z"/>
            <path d="M748.189,468.649C748.189,469.327 748.033,469.818 747.72,470.121C747.408,470.425 746.902,470.576 746.204,470.576L738.1,470.576C737.402,470.576 736.896,470.425 736.584,470.121C736.271,469.818 736.115,469.327 736.115,468.649L736.115,454.519C736.115,453.448 736.29,452.217 736.639,450.826C736.988,449.434 737.53,447.81 738.265,445.955L743.062,433.805C743.282,433.198 743.622,432.752 744.082,432.466C744.541,432.181 745.138,432.038 745.873,432.038L760.704,432.038C761.402,432.038 761.981,432.181 762.44,432.466C762.9,432.752 763.24,433.198 763.46,433.805L768.256,445.955C768.991,447.81 769.534,449.434 769.883,450.826C770.232,452.217 770.407,453.448 770.407,454.519L770.407,468.649C770.407,469.327 770.25,469.818 769.938,470.121C769.625,470.425 769.12,470.576 768.422,470.576L760.097,470.576C759.362,470.576 758.82,470.425 758.471,470.121C758.122,469.818 757.947,469.327 757.947,468.649L757.947,461.156L748.189,461.156L748.189,468.649Z" style="fill:white;"/>
            <path d="M749.856,468.65C749.856,469.896 749.456,470.76 748.881,471.317C748.322,471.86 747.454,472.243 746.204,472.243L738.1,472.243C736.85,472.243 735.982,471.86 735.423,471.317C734.849,470.76 734.449,469.896 734.449,468.649L734.449,454.519C734.449,453.331 734.635,451.964 735.022,450.42C735.386,448.969 735.949,447.276 736.715,445.343C736.715,445.343 741.505,433.21 741.5,433.224C741.863,432.23 742.448,431.519 743.202,431.051C743.889,430.624 744.774,430.372 745.873,430.372L760.704,430.372C761.759,430.372 762.625,430.619 763.32,431.051C764.07,431.517 764.653,432.224 765.017,433.21L769.806,445.341C770.572,447.276 771.135,448.969 771.499,450.42C771.887,451.964 772.073,453.331 772.073,454.519L772.073,468.649C772.073,469.896 771.673,470.76 771.099,471.317C770.54,471.86 769.671,472.243 768.422,472.243L760.097,472.243C758.855,472.243 757.968,471.892 757.378,471.38C756.72,470.808 756.28,469.926 756.28,468.649L756.28,462.823L749.856,462.823L749.856,468.65ZM748.189,468.649L748.189,461.156L757.947,461.156L757.947,468.649C757.947,469.327 758.122,469.818 758.471,470.121C758.82,470.425 759.362,470.576 760.097,470.576L768.422,470.576C769.12,470.576 769.625,470.425 769.938,470.121C770.25,469.818 770.407,469.327 770.407,468.649L770.407,454.519C770.407,453.448 770.232,452.217 769.883,450.826C769.534,449.434 768.991,447.81 768.256,445.955L763.46,433.805C763.24,433.198 762.9,432.752 762.44,432.466C761.981,432.181 761.402,432.038 760.704,432.038L745.873,432.038C745.138,432.038 744.541,432.181 744.082,432.466C743.622,432.752 743.282,433.198 743.062,433.805L738.265,445.955C737.53,447.81 736.988,449.434 736.639,450.826C736.29,452.217 736.115,453.448 736.115,454.519L736.115,468.649C736.115,469.327 736.271,469.818 736.584,470.121C736.896,470.425 737.402,470.576 738.1,470.576L746.204,470.576C746.902,470.576 747.408,470.425 747.72,470.121C748.033,469.818 748.189,469.327 748.189,468.649Z"/>
            <path d="M751.331,443.279L748.74,451.414L757.396,451.414L754.805,443.279C754.658,442.957 754.501,442.725 754.336,442.583C754.171,442.44 753.978,442.369 753.757,442.369L752.379,442.369C752.158,442.369 751.965,442.44 751.8,442.583C751.635,442.725 751.478,442.957 751.331,443.279Z" style="fill:rgb(255,0,0);"/>
            <path d="M751.331,443.279C751.478,442.957 751.635,442.725 751.8,442.583C751.965,442.44 752.158,442.369 752.379,442.369L753.757,442.369C753.978,442.369 754.171,442.44 754.336,442.583C754.501,442.725 754.658,442.957 754.805,443.279L757.396,451.414L748.74,451.414L751.331,443.279ZM753.296,444.035L752.839,444.035L751.02,449.748L755.116,449.748C755.116,449.748 753.576,444.914 753.296,444.035Z"/>
            <path d="M800.138,470.576L785.804,470.576C785.106,470.576 784.527,470.451 784.067,470.202C783.608,469.952 783.25,469.488 782.992,468.81L777.59,455.696C777.259,454.911 776.983,454.224 776.763,453.636C776.542,453.047 776.358,452.485 776.211,451.95C776.064,451.414 775.963,450.852 775.908,450.264C775.853,449.675 775.825,448.952 775.825,448.096L775.825,433.965C775.825,433.287 775.982,432.797 776.294,432.493C776.606,432.19 777.112,432.038 777.81,432.038L786.576,432.038C787.274,432.038 787.807,432.19 788.175,432.493C788.542,432.797 788.726,433.287 788.726,433.965L788.726,448.738C788.726,449.095 788.763,449.452 788.836,449.809C788.91,450.165 789.02,450.54 789.167,450.933L791.758,458.426C791.868,458.783 791.997,459.024 792.144,459.149C792.291,459.274 792.512,459.336 792.806,459.336L793.412,459.336C793.706,459.336 793.927,459.274 794.074,459.149C794.221,459.024 794.349,458.783 794.46,458.426L797.051,450.879C797.198,450.487 797.308,450.112 797.381,449.755C797.455,449.398 797.492,449.041 797.492,448.685L797.492,433.965C797.492,433.287 797.648,432.797 797.96,432.493C798.273,432.19 798.778,432.038 799.476,432.038L808.132,432.038C808.83,432.038 809.336,432.19 809.648,432.493C809.96,432.797 810.117,433.287 810.117,433.965L810.117,448.096C810.117,448.952 810.089,449.675 810.034,450.264C809.979,450.852 809.878,451.414 809.731,451.95C809.584,452.485 809.4,453.047 809.179,453.636C808.959,454.224 808.683,454.911 808.352,455.696L802.95,468.81C802.692,469.488 802.334,469.952 801.875,470.202C801.415,470.451 800.836,470.576 800.138,470.576Z" style="fill:white;"/>
            <path d="M793.108,457.23L795.474,450.338C795.479,450.323 795.484,450.309 795.49,450.295C795.604,449.989 795.692,449.697 795.749,449.419C795.799,449.174 795.825,448.929 795.825,448.685L795.825,433.965C795.825,432.719 796.225,431.855 796.799,431.297C797.358,430.755 798.227,430.372 799.476,430.372L808.132,430.372C809.382,430.372 810.25,430.755 810.809,431.297C811.383,431.855 811.783,432.719 811.783,433.965L811.783,448.096C811.783,449.014 811.752,449.788 811.693,450.419C811.629,451.108 811.51,451.765 811.338,452.391C811.178,452.972 810.979,453.582 810.74,454.22C810.514,454.825 810.231,455.531 809.891,456.337C809.891,456.337 804.498,469.427 804.504,469.411C804.078,470.53 803.43,471.253 802.671,471.666C801.999,472.031 801.159,472.243 800.138,472.243L785.804,472.243C784.783,472.243 783.943,472.031 783.271,471.666C782.515,471.255 781.871,470.537 781.444,469.427L776.051,456.337C775.711,455.531 775.428,454.825 775.202,454.22C774.963,453.582 774.764,452.972 774.604,452.391C774.432,451.765 774.313,451.108 774.249,450.419C774.19,449.788 774.159,449.014 774.159,448.096L774.159,433.965C774.159,432.719 774.559,431.855 775.133,431.297C775.692,430.755 776.56,430.372 777.81,430.372L786.576,430.372C787.747,430.372 788.619,430.699 789.235,431.208C789.935,431.785 790.393,432.675 790.393,433.965L790.393,448.738C790.393,448.983 790.418,449.228 790.469,449.472C790.526,449.75 790.613,450.042 790.728,450.348C790.733,450.361 790.738,450.375 790.742,450.388L793.108,457.23ZM800.138,470.576C800.836,470.576 801.415,470.451 801.875,470.202C802.334,469.952 802.692,469.488 802.95,468.81L808.352,455.696C808.683,454.911 808.959,454.224 809.179,453.636C809.4,453.047 809.584,452.485 809.731,451.95C809.878,451.414 809.979,450.852 810.034,450.264C810.089,449.675 810.117,448.952 810.117,448.096L810.117,433.965C810.117,433.287 809.96,432.797 809.648,432.493C809.336,432.19 808.83,432.038 808.132,432.038L799.476,432.038C798.778,432.038 798.273,432.19 797.96,432.493C797.648,432.797 797.492,433.287 797.492,433.965L797.492,448.685C797.492,449.041 797.455,449.398 797.381,449.755C797.308,450.112 797.198,450.487 797.051,450.879L794.46,458.426C794.349,458.783 794.221,459.024 794.074,459.149C793.927,459.274 793.706,459.336 793.412,459.336L792.806,459.336C792.512,459.336 792.291,459.274 792.144,459.149C791.997,459.024 791.868,458.783 791.758,458.426L789.167,450.933C789.02,450.54 788.91,450.165 788.836,449.809C788.763,449.452 788.726,449.095 788.726,448.738L788.726,433.965C788.726,433.287 788.542,432.797 788.175,432.493C787.807,432.19 787.274,432.038 786.576,432.038L777.81,432.038C777.112,432.038 776.606,432.19 776.294,432.493C775.982,432.797 775.825,433.287 775.825,433.965L775.825,448.096C775.825,448.952 775.853,449.675 775.908,450.264C775.963,450.852 776.064,451.414 776.211,451.95C776.358,452.485 776.542,453.047 776.763,453.636C776.983,454.224 777.259,454.911 777.59,455.696L782.992,468.81C783.25,469.488 783.608,469.952 784.067,470.202C784.527,470.451 785.106,470.576 785.804,470.576L800.138,470.576Z"/>
            <path d="M844.463,470.576L818.882,470.576C818.184,470.576 817.679,470.425 817.366,470.121C817.054,469.818 816.898,469.327 816.898,468.649L816.898,433.965C816.898,433.287 817.054,432.797 817.366,432.493C817.679,432.19 818.184,432.038 818.882,432.038L844.463,432.038C845.161,432.038 845.667,432.19 845.979,432.493C846.291,432.797 846.448,433.287 846.448,433.965L846.448,440.228C846.448,440.906 846.291,441.396 845.979,441.7C845.667,442.003 845.161,442.155 844.463,442.155L829.247,442.155L829.247,446.276L839.997,446.276C840.696,446.276 841.201,446.428 841.514,446.731C841.826,447.034 841.982,447.525 841.982,448.203L841.982,453.93C841.982,454.608 841.826,455.099 841.514,455.402C841.201,455.705 840.696,455.857 839.997,455.857L829.247,455.857L829.247,460.46L844.463,460.46C845.161,460.46 845.667,460.612 845.979,460.915C846.291,461.218 846.448,461.709 846.448,462.387L846.448,468.649C846.448,469.327 846.291,469.818 845.979,470.121C845.667,470.425 845.161,470.576 844.463,470.576Z" style="fill:white;"/>
            <path d="M844.463,472.243L818.882,472.243C817.633,472.243 816.764,471.86 816.205,471.317C815.631,470.76 815.231,469.896 815.231,468.649L815.231,433.965C815.231,432.719 815.631,431.855 816.205,431.297C816.764,430.755 817.633,430.372 818.882,430.372L844.463,430.372C845.713,430.372 846.581,430.755 847.14,431.297C847.714,431.855 848.114,432.719 848.114,433.965L848.114,440.228C848.114,441.474 847.714,442.338 847.14,442.895C846.581,443.438 845.713,443.821 844.463,443.821L830.914,443.821C830.914,443.821 830.914,444.609 830.914,444.609L839.997,444.609C841.247,444.609 842.115,444.992 842.674,445.535C843.249,446.093 843.649,446.956 843.649,448.203L843.649,453.93C843.649,455.177 843.249,456.04 842.674,456.598C842.115,457.141 841.247,457.524 839.997,457.524C839.997,457.524 830.914,457.524 830.914,457.524L830.914,458.793L844.463,458.793C845.713,458.793 846.581,459.177 847.14,459.719C847.714,460.277 848.114,461.141 848.114,462.387L848.114,468.649C848.114,469.896 847.714,470.76 847.14,471.317C846.581,471.86 845.713,472.243 844.463,472.243ZM844.463,470.576C845.161,470.576 845.667,470.425 845.979,470.121C846.291,469.818 846.448,469.327 846.448,468.649L846.448,462.387C846.448,461.709 846.291,461.218 845.979,460.915C845.667,460.612 845.161,460.46 844.463,460.46L829.247,460.46L829.247,455.857L839.997,455.857C840.696,455.857 841.201,455.705 841.514,455.402C841.826,455.099 841.982,454.608 841.982,453.93L841.982,448.203C841.982,447.525 841.826,447.034 841.514,446.731C841.201,446.428 840.696,446.276 839.997,446.276L829.247,446.276L829.247,442.155L844.463,442.155C845.161,442.155 845.667,442.003 845.979,441.7C846.291,441.396 846.448,440.906 846.448,440.228L846.448,433.965C846.448,433.287 846.291,432.797 845.979,432.493C845.667,432.19 845.161,432.038 844.463,432.038L818.882,432.038C818.184,432.038 817.679,432.19 817.366,432.493C817.054,432.797 816.898,433.287 816.898,433.965L816.898,468.649C816.898,469.327 817.054,469.818 817.366,470.121C817.679,470.425 818.184,470.576 818.882,470.576L844.463,470.576Z"/>
            <path d="M875.887,470.576L867.342,470.576C866.644,470.576 866.139,470.425 865.826,470.121C865.514,469.818 865.358,469.327 865.358,468.649L865.358,433.965C865.358,433.287 865.514,432.797 865.826,432.493C866.139,432.19 866.644,432.038 867.342,432.038L884.212,432.038C889.211,432.038 892.629,433.002 894.466,434.929C896.304,436.856 897.223,439.371 897.223,442.476L897.223,449.327C897.223,452.431 896.304,454.947 894.466,456.874C892.629,458.801 889.211,459.764 884.212,459.764L877.872,459.764L877.872,468.649C877.872,469.327 877.716,469.818 877.404,470.121C877.091,470.425 876.586,470.576 875.887,470.576Z" style="fill:white;"/>
            <path d="M875.887,472.243L867.342,472.243C866.093,472.243 865.224,471.86 864.665,471.317C864.091,470.76 863.691,469.896 863.691,468.649L863.691,433.965C863.691,432.719 864.091,431.855 864.665,431.297C865.224,430.755 866.093,430.372 867.342,430.372L884.212,430.372C889.822,430.372 893.61,431.616 895.673,433.778C897.794,436.002 898.89,438.893 898.89,442.476L898.89,449.327C898.89,452.91 897.794,455.8 895.673,458.024C893.61,460.187 889.822,461.431 884.212,461.431C884.212,461.431 879.539,461.431 879.539,461.431L879.539,468.649C879.539,469.896 879.139,470.76 878.565,471.317C878.005,471.86 877.137,472.243 875.887,472.243ZM875.887,470.576C876.586,470.576 877.091,470.425 877.404,470.121C877.716,469.818 877.872,469.327 877.872,468.649L877.872,459.764L884.212,459.764C889.211,459.764 892.629,458.801 894.466,456.874C896.304,454.947 897.223,452.431 897.223,449.327L897.223,442.476C897.223,439.371 896.304,436.856 894.466,434.929C892.629,433.002 889.211,432.038 884.212,432.038L867.342,432.038C866.644,432.038 866.139,432.19 865.826,432.493C865.514,432.797 865.358,433.287 865.358,433.965L865.358,468.649C865.358,469.327 865.514,469.818 865.826,470.121C866.139,470.425 866.644,470.576 867.342,470.576L875.887,470.576Z"/>
            <path d="M877.762,442.047L877.762,450.13L882.724,450.13C883.79,450.13 884.488,449.862 884.819,449.327C885.149,448.792 885.315,448.185 885.315,447.507L885.315,444.67C885.315,443.992 885.149,443.386 884.819,442.85C884.488,442.315 883.79,442.047 882.724,442.047L877.762,442.047Z" style="fill:rgb(255,0,0);"/>
            <path d="M877.762,442.047L882.724,442.047C883.79,442.047 884.488,442.315 884.819,442.85C885.149,443.386 885.315,443.992 885.315,444.67L885.315,447.507C885.315,448.185 885.149,448.792 884.819,449.327C884.488,449.862 883.79,450.13 882.724,450.13L877.762,450.13L877.762,442.047ZM883.45,448.366C883.586,448.11 883.648,447.822 883.648,447.507L883.648,444.67C883.648,444.355 883.586,444.067 883.45,443.811C883.34,443.786 882.996,443.714 882.724,443.714L879.429,443.714L879.429,448.463L882.724,448.463C882.996,448.463 883.34,448.391 883.45,448.366Z"/>
            <path d="M923.52,470.576L904.941,470.576C904.243,470.576 903.738,470.425 903.425,470.121C903.113,469.818 902.957,469.327 902.957,468.649L902.957,433.965C902.957,433.287 903.113,432.797 903.425,432.493C903.738,432.19 904.243,432.038 904.941,432.038L923.52,432.038C928.115,432.038 931.523,432.93 933.747,434.715C935.971,436.499 937.082,439.246 937.082,442.957L937.082,459.657C937.082,463.368 935.971,466.116 933.747,467.9C931.523,469.684 928.115,470.576 923.52,470.576Z" style="fill:white;"/>
            <path d="M923.52,472.243L904.941,472.243C903.692,472.243 902.823,471.86 902.264,471.317C901.69,470.76 901.29,469.896 901.29,468.649L901.29,433.965C901.29,432.719 901.69,431.855 902.264,431.297C902.823,430.755 903.692,430.372 904.941,430.372L923.52,430.372C928.594,430.372 932.335,431.444 934.79,433.415C937.374,435.488 938.749,438.646 938.749,442.957L938.749,459.657C938.749,463.969 937.374,467.127 934.79,469.2C932.335,471.17 928.594,472.243 923.52,472.243ZM923.52,470.576C928.115,470.576 931.523,469.684 933.747,467.9C935.971,466.116 937.082,463.368 937.082,459.657L937.082,442.957C937.082,439.246 935.971,436.499 933.747,434.715C931.523,432.93 928.115,432.038 923.52,432.038L904.941,432.038C904.243,432.038 903.738,432.19 903.425,432.493C903.113,432.797 902.957,433.287 902.957,433.965L902.957,468.649C902.957,469.327 903.113,469.818 903.425,470.121C903.738,470.425 904.243,470.576 904.941,470.576L923.52,470.576Z"/>
            <path d="M915.471,442.262L915.471,460.46L922.032,460.46C922.914,460.46 923.566,460.246 923.989,459.818C924.412,459.39 924.623,458.729 924.623,457.837L924.623,444.831C924.623,443.939 924.412,443.287 923.989,442.877C923.566,442.467 922.914,442.262 922.032,442.262L915.471,442.262Z" style="fill:rgb(255,0,0);"/>
            <path d="M915.471,442.262L922.032,442.262C922.914,442.262 923.566,442.467 923.989,442.877C924.412,443.287 924.623,443.939 924.623,444.831L924.623,457.837C924.623,458.729 924.412,459.39 923.989,459.818C923.566,460.246 922.914,460.46 922.032,460.46L915.471,460.46L915.471,442.262ZM917.138,443.928L917.138,458.793L922.032,458.793C922.368,458.793 922.642,458.81 922.803,458.647C922.97,458.477 922.956,458.191 922.956,457.837L922.956,444.831C922.956,444.497 922.986,444.226 922.828,444.073C922.661,443.911 922.38,443.928 922.032,443.928L917.138,443.928Z"/>
            <path d="M954.614,470.576L946.069,470.576C945.37,470.576 944.865,470.425 944.553,470.121C944.24,469.818 944.084,469.327 944.084,468.649L944.084,433.965C944.084,433.287 944.24,432.797 944.553,432.493C944.865,432.19 945.37,432.038 946.069,432.038L970.657,432.038C971.355,432.038 971.861,432.19 972.173,432.493C972.486,432.797 972.642,433.287 972.642,433.965L972.642,440.335C972.642,441.013 972.486,441.503 972.173,441.807C971.861,442.11 971.355,442.262 970.657,442.262L956.599,442.262L956.599,447.828L966.191,447.828C966.89,447.828 967.395,447.98 967.708,448.283C968.02,448.586 968.176,449.077 968.176,449.755L968.176,456.178C968.176,456.856 968.02,457.347 967.708,457.65C967.395,457.953 966.89,458.105 966.191,458.105L956.599,458.105L956.599,468.649C956.599,469.327 956.442,469.818 956.13,470.121C955.818,470.425 955.312,470.576 954.614,470.576Z" style="fill:white;"/>
            <path d="M954.614,472.243L946.069,472.243C944.819,472.243 943.951,471.86 943.392,471.317C942.817,470.76 942.417,469.896 942.417,468.649L942.417,433.965C942.417,432.719 942.817,431.855 943.392,431.297C943.951,430.755 944.819,430.372 946.069,430.372L970.657,430.372C971.907,430.372 972.775,430.755 973.334,431.297C973.908,431.855 974.308,432.719 974.308,433.965L974.308,440.335C974.308,441.581 973.908,442.445 973.334,443.002C972.775,443.545 971.907,443.928 970.657,443.928L958.265,443.928L958.265,446.162L966.191,446.162C967.441,446.162 968.309,446.545 968.868,447.087C969.443,447.645 969.843,448.509 969.843,449.755L969.843,456.178C969.843,457.425 969.443,458.288 968.868,458.846C968.309,459.389 967.441,459.772 966.191,459.772L958.265,459.772L958.265,468.649C958.265,469.896 957.865,470.76 957.291,471.317C956.732,471.86 955.864,472.243 954.614,472.243ZM954.614,470.576C955.312,470.576 955.818,470.425 956.13,470.121C956.442,469.818 956.599,469.327 956.599,468.649L956.599,458.105L966.191,458.105C966.89,458.105 967.395,457.953 967.708,457.65C968.02,457.347 968.176,456.856 968.176,456.178L968.176,449.755C968.176,449.077 968.02,448.586 967.708,448.283C967.395,447.98 966.89,447.828 966.191,447.828L956.599,447.828L956.599,442.262L970.657,442.262C971.355,442.262 971.861,442.11 972.173,441.807C972.486,441.503 972.642,441.013 972.642,440.335L972.642,433.965C972.642,433.287 972.486,432.797 972.173,432.493C971.861,432.19 971.355,432.038 970.657,432.038L946.069,432.038C945.37,432.038 944.865,432.19 944.553,432.493C944.24,432.797 944.084,433.287 944.084,433.965L944.084,468.649C944.084,469.327 944.24,469.818 944.553,470.121C944.865,470.425 945.37,470.576 946.069,470.576L954.614,470.576Z"/>
        </g>
    </g>
</svg>
