<?xml version="1.0" encoding="UTF-8" standalone="no"?>
<!DOCTYPE svg PUBLIC "-//W3C//DTD SVG 1.1//EN" "http://www.w3.org/Graphics/SVG/1.1/DTD/svg11.dtd">
<svg width="100%" height="100%" viewBox="0 0 305 82" version="1.1" xmlns="http://www.w3.org/2000/svg" xmlns:xlink="http://www.w3.org/1999/xlink" xml:space="preserve" xmlns:serif="http://www.serif.com/" style="fill-rule:evenodd;clip-rule:evenodd;stroke-linejoin:round;stroke-miterlimit:2;">
    <g transform="matrix(1,0,0,1,-420.84,-244.032)">
        <g transform="matrix(1,0,0,1,-376.46,35.3392)">
            <g transform="matrix(0.991771,0,0,1,541.246,-241.307)">
                <g transform="matrix(1.40321,0,0,1,-87.1019,0)">
                    <path d="M464.72,470.281C464.72,459.088 458.19,450 450.147,450L260.638,450C252.595,450 246.065,459.088 246.065,470.281L246.065,510.843C246.065,522.037 252.595,531.125 260.638,531.125L450.147,531.125C458.19,531.125 464.72,522.037 464.72,510.843L464.72,470.281Z" style="fill:white;"/>
                </g>
                <g transform="matrix(1.82676,0,0,1,-425.053,91.6052)">
                    <path d="M394.38,417.898L384.879,417.898C384.498,417.898 384.223,417.749 384.052,417.451C383.882,417.153 383.797,416.671 383.797,416.004L383.797,409.848C383.797,409.182 383.882,408.7 384.052,408.401C384.223,408.103 384.498,407.954 384.879,407.954L392.967,407.954C393.227,407.954 393.423,407.805 393.553,407.507C393.683,407.209 393.749,406.849 393.749,406.428C393.749,405.832 393.683,405.394 393.553,405.113C393.423,404.832 393.227,404.675 392.967,404.639L388.457,403.535C387.054,403.184 385.926,402.377 385.075,401.114C384.223,399.852 383.797,397.747 383.797,394.801L383.797,389.276C383.797,386.294 384.348,384.006 385.45,382.41C386.553,380.814 388.076,380.016 390.02,380.016L398.439,380.016C398.82,380.016 399.095,380.165 399.266,380.463C399.436,380.761 399.521,381.243 399.521,381.91L399.521,388.171C399.521,388.838 399.436,389.32 399.266,389.618C399.095,389.916 398.82,390.065 398.439,390.065L391.433,390.065C391.173,390.065 390.972,390.214 390.832,390.512C390.692,390.811 390.622,391.188 390.622,391.644C390.622,392.1 390.692,392.485 390.832,392.801C390.972,393.117 391.173,393.292 391.433,393.327L395.913,394.38C397.316,394.73 398.449,395.537 399.311,396.8C400.173,398.063 400.604,400.167 400.604,403.114L400.604,408.638C400.604,411.62 400.047,413.908 398.935,415.504C397.822,417.1 396.304,417.898 394.38,417.898Z" style="fill-rule:nonzero;"/>
                    <path d="M393.577,391.94L396.046,392.52C396.049,392.521 396.052,392.522 396.055,392.522C397.671,392.926 398.969,393.887 399.961,395.342C401.029,396.907 401.638,399.463 401.638,403.114L401.638,408.638C401.638,412.268 400.932,415.031 399.577,416.974C398.306,418.799 396.58,419.773 394.38,419.773L384.879,419.773C384.157,419.773 383.657,419.365 383.333,418.8C382.999,418.215 382.762,417.312 382.762,416.004L382.762,409.848C382.762,408.541 382.999,407.638 383.333,407.053C383.657,406.487 384.157,406.079 384.879,406.079L391.121,406.079L388.318,405.393L388.316,405.392C386.696,404.987 385.402,404.023 384.419,402.565C383.365,401.002 382.762,398.448 382.762,394.801L382.762,389.276C382.762,385.648 383.463,382.887 384.804,380.945C386.065,379.12 387.797,378.141 390.02,378.141L398.439,378.141C399.161,378.141 399.661,378.549 399.985,379.114C400.319,379.699 400.556,380.602 400.556,381.91L400.556,388.171C400.556,389.479 400.319,390.382 399.985,390.967C399.661,391.532 399.161,391.94 398.439,391.94L393.577,391.94ZM394.38,417.898C396.304,417.898 397.822,417.1 398.935,415.504C400.047,413.908 400.604,411.62 400.604,408.638L400.604,403.114C400.604,400.167 400.173,398.063 399.311,396.8C398.449,395.537 397.316,394.73 395.913,394.38L391.433,393.327C391.173,393.292 390.972,393.117 390.832,392.801C390.692,392.485 390.622,392.1 390.622,391.644C390.622,391.188 390.692,390.811 390.832,390.512C390.972,390.214 391.173,390.065 391.433,390.065L398.439,390.065C398.82,390.065 399.095,389.916 399.266,389.618C399.436,389.32 399.521,388.838 399.521,388.171L399.521,381.91C399.521,381.243 399.436,380.761 399.266,380.463C399.095,380.165 398.82,380.016 398.439,380.016L390.02,380.016C388.076,380.016 386.553,380.814 385.45,382.41C384.348,384.006 383.797,386.294 383.797,389.276L383.797,394.801C383.797,397.747 384.223,399.852 385.075,401.114C385.926,402.377 387.054,403.184 388.457,403.535L392.967,404.639C393.227,404.675 393.423,404.832 393.553,405.113C393.683,405.394 393.749,405.832 393.749,406.428C393.749,406.849 393.683,407.209 393.553,407.507C393.423,407.805 393.227,407.954 392.967,407.954L384.879,407.954C384.498,407.954 384.223,408.103 384.052,408.401C383.882,408.7 383.797,409.182 383.797,409.848L383.797,416.004C383.797,416.671 383.882,417.153 384.052,417.451C384.223,417.749 384.498,417.898 384.879,417.898L394.38,417.898Z" style="fill:rgb(128,128,128);"/>
                    <path d="M411.728,391.065L410.315,399.062L415.035,399.062L413.622,391.065C413.542,390.749 413.457,390.521 413.366,390.381C413.276,390.241 413.171,390.17 413.051,390.17L412.299,390.17C412.179,390.17 412.074,390.241 411.983,390.381C411.893,390.521 411.808,390.749 411.728,391.065ZM410.014,416.004C410.014,416.671 409.929,417.153 409.758,417.451C409.588,417.749 409.313,417.898 408.932,417.898L404.512,417.898C404.131,417.898 403.856,417.749 403.685,417.451C403.515,417.153 403.43,416.671 403.43,416.004L403.43,402.114C403.43,401.062 403.525,399.852 403.715,398.484C403.906,397.116 404.201,395.52 404.602,393.696L407.218,381.752C407.338,381.156 407.524,380.717 407.774,380.437C408.025,380.156 408.35,380.016 408.751,380.016L416.839,380.016C417.22,380.016 417.535,380.156 417.786,380.437C418.037,380.717 418.222,381.156 418.342,381.752L420.958,393.696C421.359,395.52 421.654,397.116 421.845,398.484C422.035,399.852 422.13,401.062 422.13,402.114L422.13,416.004C422.13,416.671 422.045,417.153 421.875,417.451C421.705,417.749 421.429,417.898 421.048,417.898L416.508,417.898C416.107,417.898 415.812,417.749 415.621,417.451C415.431,417.153 415.336,416.671 415.336,416.004L415.336,408.638L410.014,408.638L410.014,416.004Z" style="fill-rule:nonzero;"/>
                    <path d="M411.049,416.004C411.049,417.312 410.812,418.215 410.477,418.8C410.154,419.365 409.654,419.773 408.932,419.773L404.512,419.773C403.79,419.773 403.289,419.365 402.966,418.8C402.632,418.215 402.395,417.312 402.395,416.004L402.395,402.114C402.395,400.929 402.497,399.565 402.712,398.025C402.912,396.59 403.22,394.915 403.64,393.004C403.64,393.004 406.252,381.08 406.249,381.093C406.459,380.063 406.796,379.328 407.23,378.842C407.622,378.403 408.125,378.141 408.751,378.141L416.839,378.141C417.441,378.141 417.934,378.398 418.33,378.842C418.762,379.326 419.099,380.057 419.308,381.08L421.919,393.002C422.34,394.915 422.649,396.59 422.848,398.025C423.063,399.565 423.165,400.929 423.165,402.114L423.165,416.004C423.165,417.312 422.928,418.215 422.594,418.8C422.271,419.365 421.77,419.773 421.048,419.773L416.508,419.773C415.794,419.773 415.284,419.401 414.945,418.87C414.561,418.27 414.301,417.346 414.301,416.004L414.301,410.513L411.049,410.513L411.049,416.004ZM410.014,416.004L410.014,408.638L415.336,408.638L415.336,416.004C415.336,416.671 415.431,417.153 415.621,417.451C415.812,417.749 416.107,417.898 416.508,417.898L421.048,417.898C421.429,417.898 421.705,417.749 421.875,417.451C422.045,417.153 422.13,416.671 422.13,416.004L422.13,402.114C422.13,401.062 422.035,399.852 421.845,398.484C421.654,397.116 421.359,395.52 420.958,393.696L418.342,381.752C418.222,381.156 418.037,380.717 417.786,380.437C417.535,380.156 417.22,380.016 416.839,380.016L408.751,380.016C408.35,380.016 408.025,380.156 407.774,380.437C407.524,380.717 407.338,381.156 407.218,381.752L404.602,393.696C404.201,395.52 403.906,397.116 403.715,398.484C403.525,399.852 403.43,401.062 403.43,402.114L403.43,416.004C403.43,416.671 403.515,417.153 403.685,417.451C403.856,417.749 404.131,417.898 404.512,417.898L408.932,417.898C409.313,417.898 409.588,417.749 409.758,417.451C409.929,417.153 410.014,416.671 410.014,416.004Z" style="fill:rgb(128,128,128);"/>
                    <path d="M438.11,417.898L430.293,417.898C429.912,417.898 429.597,417.776 429.346,417.53C429.096,417.285 428.9,416.829 428.76,416.162L425.814,403.272C425.633,402.5 425.483,401.825 425.363,401.246C425.242,400.667 425.142,400.115 425.062,399.588C424.982,399.062 424.927,398.51 424.897,397.931C424.866,397.352 424.851,396.642 424.851,395.8L424.851,381.91C424.851,381.243 424.937,380.761 425.107,380.463C425.277,380.165 425.553,380.016 425.934,380.016L430.714,380.016C431.095,380.016 431.386,380.165 431.586,380.463C431.787,380.761 431.887,381.243 431.887,381.91L431.887,396.432C431.887,396.782 431.907,397.133 431.947,397.484C431.987,397.835 432.047,398.203 432.127,398.589L433.54,405.955C433.601,406.306 433.671,406.542 433.751,406.665C433.831,406.788 433.951,406.849 434.112,406.849L434.442,406.849C434.603,406.849 434.723,406.788 434.803,406.665C434.883,406.542 434.953,406.306 435.014,405.955L436.427,398.536C436.507,398.15 436.567,397.782 436.607,397.431C436.647,397.081 436.667,396.73 436.667,396.379L436.667,381.91C436.667,381.243 436.752,380.761 436.923,380.463C437.093,380.165 437.369,380.016 437.75,380.016L442.47,380.016C442.851,380.016 443.126,380.165 443.297,380.463C443.467,380.761 443.552,381.243 443.552,381.91L443.552,395.8C443.552,396.642 443.537,397.352 443.507,397.931C443.477,398.51 443.422,399.062 443.342,399.588C443.262,400.115 443.161,400.667 443.041,401.246C442.921,401.825 442.771,402.5 442.59,403.272L439.644,416.162C439.503,416.829 439.308,417.285 439.057,417.53C438.807,417.776 438.491,417.898 438.11,417.898Z" style="fill-rule:nonzero;"/>
                    <path d="M434.276,404.079L435.448,397.925C435.451,397.908 435.455,397.892 435.458,397.876C435.518,397.588 435.564,397.313 435.594,397.051C435.619,396.827 435.632,396.603 435.632,396.379L435.632,381.91C435.632,380.602 435.869,379.699 436.204,379.114C436.527,378.549 437.027,378.141 437.75,378.141L442.47,378.141C443.192,378.141 443.693,378.549 444.016,379.114C444.35,379.699 444.587,380.602 444.587,381.91L444.587,395.8C444.587,396.711 444.57,397.48 444.537,398.107C444.502,398.799 444.435,399.459 444.339,400.087C444.251,400.665 444.142,401.271 444.01,401.906C443.886,402.503 443.731,403.2 443.545,403.995C443.545,403.995 440.604,416.86 440.608,416.844C440.362,418.004 439.987,418.751 439.55,419.179C439.168,419.554 438.691,419.773 438.11,419.773L430.293,419.773C429.713,419.773 429.236,419.554 428.854,419.179C428.418,418.753 428.045,418.011 427.799,416.86L424.859,403.995C424.673,403.2 424.518,402.503 424.394,401.906C424.262,401.271 424.152,400.665 424.064,400.087C423.968,399.459 423.902,398.799 423.866,398.107C423.834,397.48 423.816,396.711 423.816,395.8L423.816,381.91C423.816,380.602 424.054,379.699 424.388,379.114C424.711,378.549 425.211,378.141 425.934,378.141L430.714,378.141C431.388,378.141 431.888,378.486 432.243,379.014C432.651,379.621 432.922,380.554 432.922,381.91L432.922,396.432C432.922,396.656 432.935,396.88 432.96,397.104C432.99,397.366 433.036,397.64 433.096,397.928C433.099,397.943 433.102,397.958 433.105,397.973L434.276,404.079ZM438.11,417.898C438.491,417.898 438.807,417.776 439.057,417.53C439.308,417.285 439.503,416.829 439.644,416.162L442.59,403.272C442.771,402.5 442.921,401.825 443.041,401.246C443.161,400.667 443.262,400.115 443.342,399.588C443.422,399.062 443.477,398.51 443.507,397.931C443.537,397.352 443.552,396.642 443.552,395.8L443.552,381.91C443.552,381.243 443.467,380.761 443.297,380.463C443.126,380.165 442.851,380.016 442.47,380.016L437.75,380.016C437.369,380.016 437.093,380.165 436.923,380.463C436.752,380.761 436.667,381.243 436.667,381.91L436.667,396.379C436.667,396.73 436.647,397.081 436.607,397.431C436.567,397.782 436.507,398.15 436.427,398.536L435.014,405.955C434.953,406.306 434.883,406.542 434.803,406.665C434.723,406.788 434.603,406.849 434.442,406.849L434.112,406.849C433.951,406.849 433.831,406.788 433.751,406.665C433.671,406.542 433.601,406.306 433.54,405.955L432.127,398.589C432.047,398.203 431.987,397.835 431.947,397.484C431.907,397.133 431.887,396.782 431.887,396.432L431.887,381.91C431.887,381.243 431.787,380.761 431.586,380.463C431.386,380.165 431.095,380.016 430.714,380.016L425.934,380.016C425.553,380.016 425.277,380.165 425.107,380.463C424.937,380.761 424.851,381.243 424.851,381.91L424.851,395.8C424.851,396.642 424.866,397.352 424.897,397.931C424.927,398.51 424.982,399.062 425.062,399.588C425.142,400.115 425.242,400.667 425.363,401.246C425.483,401.825 425.633,402.5 425.814,403.272L428.76,416.162C428.9,416.829 429.096,417.285 429.346,417.53C429.597,417.776 429.912,417.898 430.293,417.898L438.11,417.898Z" style="fill:rgb(128,128,128);"/>
                    <path d="M462.283,417.898L448.333,417.898C447.952,417.898 447.676,417.749 447.506,417.451C447.335,417.153 447.25,416.671 447.25,416.004L447.25,381.91C447.25,381.243 447.335,380.761 447.506,380.463C447.676,380.165 447.952,380.016 448.333,380.016L462.283,380.016C462.664,380.016 462.94,380.165 463.11,380.463C463.28,380.761 463.365,381.243 463.365,381.91L463.365,388.066C463.365,388.732 463.28,389.215 463.11,389.513C462.94,389.811 462.664,389.96 462.283,389.96L453.985,389.96L453.985,394.011L459.848,394.011C460.229,394.011 460.504,394.16 460.675,394.459C460.845,394.757 460.93,395.239 460.93,395.905L460.93,401.535C460.93,402.202 460.845,402.684 460.675,402.982C460.504,403.28 460.229,403.429 459.848,403.429L453.985,403.429L453.985,407.954L462.283,407.954C462.664,407.954 462.94,408.103 463.11,408.401C463.28,408.7 463.365,409.182 463.365,409.848L463.365,416.004C463.365,416.671 463.28,417.153 463.11,417.451C462.94,417.749 462.664,417.898 462.283,417.898Z" style="fill-rule:nonzero;"/>
                    <path d="M462.283,419.773L448.333,419.773C447.61,419.773 447.11,419.365 446.787,418.8C446.453,418.215 446.215,417.312 446.215,416.004L446.215,381.91C446.215,380.602 446.453,379.699 446.787,379.114C447.11,378.549 447.61,378.141 448.333,378.141L462.283,378.141C463.005,378.141 463.506,378.549 463.829,379.114C464.163,379.699 464.4,380.602 464.4,381.91L464.4,388.066C464.4,389.374 464.163,390.276 463.829,390.861C463.506,391.427 463.005,391.835 462.283,391.835L455.02,391.835C455.02,391.835 455.02,392.136 455.02,392.136L459.848,392.136C460.57,392.136 461.07,392.544 461.394,393.11C461.728,393.695 461.965,394.598 461.965,395.905L461.965,401.535C461.965,402.843 461.728,403.746 461.394,404.331C461.07,404.896 460.57,405.304 459.848,405.304L455.02,405.304C455.02,405.304 455.02,406.079 455.02,406.079L462.283,406.079C463.005,406.079 463.506,406.487 463.829,407.053C464.163,407.638 464.4,408.541 464.4,409.848L464.4,416.004C464.4,417.312 464.163,418.215 463.829,418.8C463.506,419.365 463.005,419.773 462.283,419.773ZM462.283,417.898C462.664,417.898 462.94,417.749 463.11,417.451C463.28,417.153 463.365,416.671 463.365,416.004L463.365,409.848C463.365,409.182 463.28,408.7 463.11,408.401C462.94,408.103 462.664,407.954 462.283,407.954L453.985,407.954L453.985,403.429L459.848,403.429C460.229,403.429 460.504,403.28 460.675,402.982C460.845,402.684 460.93,402.202 460.93,401.535L460.93,395.905C460.93,395.239 460.845,394.757 460.675,394.459C460.504,394.16 460.229,394.011 459.848,394.011L453.985,394.011L453.985,389.96L462.283,389.96C462.664,389.96 462.94,389.811 463.11,389.513C463.28,389.215 463.365,388.732 463.365,388.066L463.365,381.91C463.365,381.243 463.28,380.761 463.11,380.463C462.94,380.165 462.664,380.016 462.283,380.016L448.333,380.016C447.952,380.016 447.676,380.165 447.506,380.463C447.335,380.761 447.25,381.243 447.25,381.91L447.25,416.004C447.25,416.671 447.335,417.153 447.506,417.451C447.676,417.749 447.952,417.898 448.333,417.898L462.283,417.898Z" style="fill:rgb(128,128,128);"/>
                    <path d="M479.42,417.898L474.76,417.898C474.379,417.898 474.104,417.749 473.934,417.451C473.763,417.153 473.678,416.671 473.678,416.004L473.678,381.91C473.678,381.243 473.763,380.761 473.934,380.463C474.104,380.165 474.379,380.016 474.76,380.016L483.96,380.016C486.686,380.016 488.55,380.963 489.553,382.857C490.555,384.751 491.056,387.224 491.056,390.276L491.056,397.01C491.056,400.062 490.555,402.535 489.553,404.429C488.55,406.323 486.686,407.27 483.96,407.27L480.503,407.27L480.503,416.004C480.503,416.671 480.418,417.153 480.247,417.451C480.077,417.749 479.801,417.898 479.42,417.898ZM480.443,389.855L480.443,397.8L483.149,397.8C483.73,397.8 484.111,397.536 484.291,397.01C484.472,396.484 484.562,395.888 484.562,395.221L484.562,392.433C484.562,391.766 484.472,391.17 484.291,390.644C484.111,390.118 483.73,389.855 483.149,389.855L480.443,389.855Z" style="fill-rule:nonzero;"/>
                    <path d="M479.42,419.773L474.76,419.773C474.038,419.773 473.538,419.365 473.215,418.8C472.88,418.215 472.643,417.312 472.643,416.004L472.643,381.91C472.643,380.602 472.88,379.699 473.215,379.114C473.538,378.549 474.038,378.141 474.76,378.141L483.96,378.141C487.065,378.141 489.158,379.402 490.3,381.559C491.479,383.789 492.091,386.684 492.091,390.276L492.091,397.01C492.091,400.602 491.479,403.497 490.3,405.727C489.158,407.884 487.065,409.145 483.96,409.145C483.96,409.145 481.538,409.145 481.538,409.145L481.538,416.004C481.538,417.312 481.301,418.215 480.966,418.8C480.643,419.365 480.143,419.773 479.42,419.773ZM479.42,417.898C479.801,417.898 480.077,417.749 480.247,417.451C480.418,417.153 480.503,416.671 480.503,416.004L480.503,407.27L483.96,407.27C486.686,407.27 488.55,406.323 489.553,404.429C490.555,402.535 491.056,400.062 491.056,397.01L491.056,390.276C491.056,387.224 490.555,384.751 489.553,382.857C488.55,380.963 486.686,380.016 483.96,380.016L474.76,380.016C474.379,380.016 474.104,380.165 473.934,380.463C473.763,380.761 473.678,381.243 473.678,381.91L473.678,416.004C473.678,416.671 473.763,417.153 473.934,417.451C474.104,417.749 474.379,417.898 474.76,417.898L479.42,417.898Z" style="fill:rgb(128,128,128);"/>
                    <path d="M505.397,417.898L495.265,417.898C494.884,417.898 494.609,417.749 494.438,417.451C494.268,417.153 494.183,416.671 494.183,416.004L494.183,381.91C494.183,381.243 494.268,380.761 494.438,380.463C494.609,380.165 494.884,380.016 495.265,380.016L505.397,380.016C507.903,380.016 509.762,380.893 510.974,382.647C512.187,384.4 512.793,387.101 512.793,390.749L512.793,407.165C512.793,410.813 512.187,413.514 510.974,415.268C509.762,417.022 507.903,417.898 505.397,417.898ZM501.008,390.065L501.008,407.954L504.585,407.954C505.066,407.954 505.422,407.744 505.653,407.323C505.883,406.902 505.998,406.253 505.998,405.376L505.998,392.591C505.998,391.714 505.883,391.074 505.653,390.67C505.422,390.267 505.066,390.065 504.585,390.065L501.008,390.065Z" style="fill-rule:nonzero;"/>
                    <path d="M505.397,419.773L495.265,419.773C494.543,419.773 494.042,419.365 493.719,418.8C493.385,418.215 493.148,417.312 493.148,416.004L493.148,381.91C493.148,380.602 493.385,379.699 493.719,379.114C494.042,378.549 494.543,378.141 495.265,378.141L505.397,378.141C508.199,378.141 510.264,379.22 511.62,381.181C513.058,383.261 513.828,386.424 513.828,390.749L513.828,407.165C513.828,411.49 513.058,414.654 511.62,416.733C510.264,418.694 508.199,419.773 505.397,419.773ZM505.397,417.898C507.903,417.898 509.762,417.022 510.974,415.268C512.187,413.514 512.793,410.813 512.793,407.165L512.793,390.749C512.793,387.101 512.187,384.4 510.974,382.647C509.762,380.893 507.903,380.016 505.397,380.016L495.265,380.016C494.884,380.016 494.609,380.165 494.438,380.463C494.268,380.761 494.183,381.243 494.183,381.91L494.183,416.004C494.183,416.671 494.268,417.153 494.438,417.451C494.609,417.749 494.884,417.898 495.265,417.898L505.397,417.898Z" style="fill:rgb(128,128,128);"/>
                    <path d="M522.354,417.898L517.694,417.898C517.313,417.898 517.038,417.749 516.867,417.451C516.697,417.153 516.612,416.671 516.612,416.004L516.612,381.91C516.612,381.243 516.697,380.761 516.867,380.463C517.038,380.165 517.313,380.016 517.694,380.016L531.103,380.016C531.484,380.016 531.76,380.165 531.93,380.463C532.1,380.761 532.186,381.243 532.186,381.91L532.186,388.171C532.186,388.838 532.1,389.32 531.93,389.618C531.76,389.916 531.484,390.065 531.103,390.065L523.437,390.065L523.437,395.537L528.668,395.537C529.049,395.537 529.324,395.686 529.495,395.984C529.665,396.283 529.75,396.765 529.75,397.431L529.75,403.745C529.75,404.411 529.665,404.894 529.495,405.192C529.324,405.49 529.049,405.639 528.668,405.639L523.437,405.639L523.437,416.004C523.437,416.671 523.351,417.153 523.181,417.451C523.011,417.749 522.735,417.898 522.354,417.898Z" style="fill-rule:nonzero;"/>
                    <path d="M522.354,419.773L517.694,419.773C516.972,419.773 516.471,419.365 516.148,418.8C515.814,418.215 515.577,417.312 515.577,416.004L515.577,381.91C515.577,380.602 515.814,379.699 516.148,379.114C516.471,378.549 516.972,378.141 517.694,378.141L531.103,378.141C531.826,378.141 532.326,378.549 532.649,379.114C532.983,379.699 533.221,380.602 533.221,381.91L533.221,388.171C533.221,389.479 532.983,390.382 532.649,390.967C532.326,391.532 531.826,391.94 531.103,391.94C531.103,391.94 524.471,391.94 524.471,391.94C524.471,391.94 524.471,393.662 524.471,393.662L528.668,393.662C529.39,393.662 529.891,394.07 530.214,394.636C530.548,395.221 530.785,396.123 530.785,397.431L530.785,403.745C530.785,405.053 530.548,405.955 530.214,406.541C529.891,407.106 529.39,407.514 528.668,407.514L524.471,407.514L524.471,416.004C524.471,417.312 524.234,418.215 523.9,418.8C523.577,419.365 523.076,419.773 522.354,419.773ZM522.354,417.898C522.735,417.898 523.011,417.749 523.181,417.451C523.351,417.153 523.437,416.671 523.437,416.004L523.437,405.639L528.668,405.639C529.049,405.639 529.324,405.49 529.495,405.192C529.665,404.894 529.75,404.411 529.75,403.745L529.75,397.431C529.75,396.765 529.665,396.283 529.495,395.984C529.324,395.686 529.049,395.537 528.668,395.537L523.437,395.537L523.437,390.065L531.103,390.065C531.484,390.065 531.76,389.916 531.93,389.618C532.1,389.32 532.186,388.838 532.186,388.171L532.186,381.91C532.186,381.243 532.1,380.761 531.93,380.463C531.76,380.165 531.484,380.016 531.103,380.016L517.694,380.016C517.313,380.016 517.038,380.165 516.867,380.463C516.697,380.761 516.612,381.243 516.612,381.91L516.612,416.004C516.612,416.671 516.697,417.153 516.867,417.451C517.038,417.749 517.313,417.898 517.694,417.898L522.354,417.898Z" style="fill:rgb(128,128,128);"/>
                </g>
            </g>
        </g>
    </g>
</svg>
