<?xml version="1.0" encoding="UTF-8" standalone="no"?><!DOCTYPE svg PUBLIC "-//W3C//DTD SVG 1.1//EN" "http://www.w3.org/Graphics/SVG/1.1/DTD/svg11.dtd"><svg width="100%" height="100%" viewBox="0 0 502 82" version="1.1" xmlns="http://www.w3.org/2000/svg" xmlns:xlink="http://www.w3.org/1999/xlink" xml:space="preserve" xmlns:serif="http://www.serif.com/" style="fill-rule:evenodd;clip-rule:evenodd;stroke-linejoin:round;stroke-miterlimit:2;"><g><path d="M501.367,20.281c-0,-11.193 -9.088,-20.281 -20.282,-20.281l-460.804,0c-11.193,0 -20.281,9.088 -20.281,20.281l-0,40.562c-0,11.194 9.088,20.282 20.281,20.282l460.804,-0c11.194,-0 20.282,-9.088 20.282,-20.282l-0,-40.562Z" style="fill:#fff;"/><g><path d="M42.91,59.504l-17.213,-0c-0.69,-0 -1.189,-0.149 -1.498,-0.448c-0.308,-0.298 -0.463,-0.78 -0.463,-1.446l0,-6.156c0,-0.667 0.155,-1.149 0.463,-1.447c0.309,-0.298 0.808,-0.448 1.498,-0.448l14.653,0c0.472,0 0.826,-0.149 1.062,-0.447c0.236,-0.298 0.354,-0.657 0.354,-1.078c0,-0.597 -0.118,-1.035 -0.354,-1.316c-0.236,-0.28 -0.59,-0.438 -1.062,-0.473l-8.171,-1.105c-2.542,-0.351 -4.584,-1.158 -6.128,-2.42c-1.543,-1.263 -2.315,-3.368 -2.315,-6.314l0,-5.525c0,-2.981 0.999,-5.27 2.996,-6.866c1.997,-1.596 4.757,-2.394 8.28,-2.394l15.252,-0c0.69,-0 1.189,0.149 1.498,0.447c0.308,0.298 0.463,0.781 0.463,1.447l-0,6.261c-0,0.667 -0.155,1.149 -0.463,1.447c-0.309,0.298 -0.808,0.447 -1.498,0.447l-12.692,0c-0.472,0 -0.835,0.149 -1.09,0.448c-0.254,0.298 -0.381,0.675 -0.381,1.131c0,0.456 0.127,0.842 0.381,1.157c0.255,0.316 0.618,0.491 1.09,0.527l8.116,1.052c2.542,0.351 4.594,1.157 6.155,2.42c1.562,1.263 2.342,3.367 2.342,6.314l0,5.524c0,2.982 -1.007,5.271 -3.023,6.867c-2.015,1.596 -4.766,2.394 -8.252,2.394Z" style="fill-rule:nonzero;"/><path d="M37.005,47.684l-11.308,0c-1.308,0 -2.215,0.409 -2.8,0.974c-0.606,0.585 -1.036,1.488 -1.036,2.796l0,6.156c0,1.307 0.43,2.21 1.036,2.795c0.585,0.566 1.492,0.974 2.8,0.974c0,-0 17.213,-0 17.213,-0c3.986,-0 7.112,-0.975 9.416,-2.799c2.454,-1.944 3.734,-4.706 3.734,-8.337l0,-5.524c0,-3.651 -1.103,-6.207 -3.038,-7.772c-1.799,-1.454 -4.149,-2.416 -7.078,-2.82l-4.488,-0.582l8.808,0c1.308,0 2.215,-0.408 2.8,-0.973c0.606,-0.585 1.036,-1.488 1.036,-2.796c-0,0 -0,-6.261 -0,-6.261c-0,-1.308 -0.43,-2.21 -1.036,-2.795c-0.585,-0.566 -1.492,-0.974 -2.8,-0.974l-15.252,-0c-4.029,-0 -7.166,0.979 -9.45,2.804c-2.431,1.942 -3.701,4.703 -3.701,8.331l0,5.525c0,3.647 1.092,6.201 3.003,7.765c1.781,1.457 4.125,2.421 7.059,2.826l5.082,0.687Zm5.905,11.82l-17.213,-0c-0.69,-0 -1.189,-0.149 -1.498,-0.448c-0.308,-0.298 -0.463,-0.78 -0.463,-1.446l0,-6.156c0,-0.667 0.155,-1.149 0.463,-1.447c0.309,-0.298 0.808,-0.448 1.498,-0.448l14.653,0c0.472,0 0.826,-0.149 1.062,-0.447c0.236,-0.298 0.354,-0.657 0.354,-1.078c0,-0.597 -0.118,-1.035 -0.354,-1.316c-0.236,-0.28 -0.59,-0.438 -1.062,-0.473l-8.171,-1.105c-2.542,-0.351 -4.584,-1.158 -6.128,-2.42c-1.543,-1.263 -2.315,-3.368 -2.315,-6.314l0,-5.525c0,-2.981 0.999,-5.27 2.996,-6.866c1.997,-1.596 4.757,-2.394 8.28,-2.394l15.252,-0c0.69,-0 1.189,0.149 1.498,0.447c0.308,0.298 0.463,0.781 0.463,1.447l-0,6.261c-0,0.667 -0.155,1.149 -0.463,1.447c-0.309,0.298 -0.808,0.447 -1.498,0.447l-12.692,0c-0.472,0 -0.835,0.149 -1.09,0.448c-0.254,0.298 -0.381,0.675 -0.381,1.131c0,0.456 0.127,0.842 0.381,1.157c0.255,0.316 0.618,0.491 1.09,0.527l8.116,1.052c2.542,0.351 4.594,1.157 6.155,2.42c1.562,1.263 2.342,3.367 2.342,6.314l0,5.524c0,2.982 -1.007,5.271 -3.023,6.867c-2.015,1.596 -4.766,2.394 -8.252,2.394Z" style="fill:#808080;"/><path d="M74.34,32.67l-2.56,7.998l8.551,-0l-2.56,-7.998c-0.145,-0.316 -0.299,-0.544 -0.463,-0.684c-0.163,-0.14 -0.354,-0.21 -0.572,-0.21l-1.361,-0c-0.218,-0 -0.409,0.07 -0.572,0.21c-0.164,0.14 -0.318,0.368 -0.463,0.684Zm-3.105,24.94c-0,0.666 -0.155,1.148 -0.463,1.446c-0.309,0.299 -0.808,0.448 -1.498,0.448l-8.007,-0c-0.69,-0 -1.19,-0.149 -1.498,-0.448c-0.309,-0.298 -0.463,-0.78 -0.463,-1.446l-0,-13.891c-0,-1.052 0.172,-2.262 0.517,-3.63c0.345,-1.368 0.881,-2.964 1.607,-4.788l4.739,-11.944c0.218,-0.596 0.554,-1.034 1.008,-1.315c0.454,-0.281 1.044,-0.421 1.77,-0.421l14.653,-0c0.69,-0 1.262,0.14 1.716,0.421c0.453,0.281 0.789,0.719 1.007,1.315l4.739,11.944c0.726,1.824 1.262,3.42 1.607,4.788c0.345,1.368 0.518,2.578 0.518,3.63l-0,13.891c-0,0.666 -0.155,1.148 -0.463,1.446c-0.309,0.299 -0.808,0.448 -1.498,0.448l-8.225,-0c-0.727,-0 -1.262,-0.149 -1.607,-0.448c-0.345,-0.298 -0.518,-0.78 -0.518,-1.446l0,-7.367l-9.641,0l-0,7.367Z" style="fill-rule:nonzero;"/><path d="M73.11,57.61l-0,-5.492c-0,0 5.891,0 5.891,0c0,0 0,5.492 0,5.492c0,1.341 0.472,2.265 1.167,2.865c0.615,0.532 1.538,0.904 2.833,0.904c-0,-0 8.225,-0 8.225,-0c1.308,-0 2.215,-0.408 2.8,-0.974c0.606,-0.585 1.036,-1.488 1.036,-2.795c-0,-0 -0,-13.891 -0,-13.891c-0,-1.185 -0.186,-2.548 -0.575,-4.089c-0.362,-1.435 -0.921,-3.11 -1.683,-5.023c0.001,0.002 -4.73,-11.922 -4.73,-11.922c-0.38,-1.023 -0.99,-1.754 -1.773,-2.238c-0.717,-0.443 -1.611,-0.701 -2.701,-0.701l-14.653,-0c-1.135,-0 -2.047,0.262 -2.756,0.701c-0.786,0.486 -1.398,1.221 -1.777,2.251c0.005,-0.013 -4.727,11.911 -4.727,11.911c-0.761,1.911 -1.32,3.586 -1.682,5.021c-0.388,1.541 -0.574,2.904 -0.574,4.089c-0,0 -0,13.891 -0,13.891c-0,1.307 0.429,2.21 1.035,2.795c0.586,0.566 1.492,0.974 2.801,0.974c-0,-0 8.007,-0 8.007,-0c1.308,-0 2.215,-0.408 2.8,-0.974c0.606,-0.585 1.036,-1.488 1.036,-2.795Zm-1.875,-0c-0,0.666 -0.155,1.148 -0.463,1.446c-0.309,0.299 -0.808,0.448 -1.498,0.448l-8.007,-0c-0.69,-0 -1.19,-0.149 -1.498,-0.448c-0.309,-0.298 -0.463,-0.78 -0.463,-1.446l-0,-13.891c-0,-1.052 0.172,-2.262 0.517,-3.63c0.345,-1.368 0.881,-2.964 1.607,-4.788l4.739,-11.944c0.218,-0.596 0.554,-1.034 1.008,-1.315c0.454,-0.281 1.044,-0.421 1.77,-0.421l14.653,-0c0.69,-0 1.262,0.14 1.716,0.421c0.453,0.281 0.789,0.719 1.007,1.315l4.739,11.944c0.726,1.824 1.262,3.42 1.607,4.788c0.345,1.368 0.518,2.578 0.518,3.63l-0,13.891c-0,0.666 -0.155,1.148 -0.463,1.446c-0.309,0.299 -0.808,0.448 -1.498,0.448l-8.225,-0c-0.727,-0 -1.262,-0.149 -1.607,-0.448c-0.345,-0.298 -0.518,-0.78 -0.518,-1.446l0,-7.367l-9.641,0l-0,7.367Zm3.105,-24.94l-2.56,7.998l8.551,-0l-2.56,-7.998c-0.145,-0.316 -0.299,-0.544 -0.463,-0.684c-0.163,-0.14 -0.354,-0.21 -0.572,-0.21l-1.361,-0c-0.218,-0 -0.409,0.07 -0.572,0.21c-0.164,0.14 -0.318,0.368 -0.463,0.684Zm1.776,0.981l1.646,5.142c0.001,-0 -3.414,-0 -3.414,-0l1.646,-5.142l0.122,-0Z" style="fill:#808080;"/><path d="M122.138,59.504l-14.163,-0c-0.69,-0 -1.262,-0.123 -1.715,-0.369c-0.454,-0.245 -0.808,-0.701 -1.063,-1.368l-5.338,-12.89c-0.327,-0.772 -0.599,-1.447 -0.817,-2.026c-0.218,-0.579 -0.399,-1.131 -0.545,-1.657c-0.145,-0.526 -0.245,-1.079 -0.299,-1.658c-0.055,-0.578 -0.082,-1.289 -0.082,-2.131l0,-13.89c0,-0.666 0.154,-1.149 0.463,-1.447c0.309,-0.298 0.808,-0.447 1.498,-0.447l8.661,-0c0.69,-0 1.216,0.149 1.58,0.447c0.363,0.298 0.544,0.781 0.544,1.447l0,14.522c0,0.351 0.037,0.701 0.109,1.052c0.073,0.351 0.182,0.719 0.327,1.105l2.56,7.366c0.109,0.351 0.236,0.588 0.381,0.71c0.146,0.123 0.364,0.185 0.654,0.185l0.599,-0c0.291,-0 0.509,-0.062 0.654,-0.185c0.145,-0.122 0.272,-0.359 0.381,-0.71l2.56,-7.419c0.146,-0.385 0.255,-0.754 0.327,-1.105c0.073,-0.35 0.109,-0.701 0.109,-1.052l0,-14.469c0,-0.666 0.154,-1.149 0.463,-1.447c0.309,-0.298 0.808,-0.447 1.498,-0.447l8.552,-0c0.69,-0 1.189,0.149 1.498,0.447c0.309,0.298 0.463,0.781 0.463,1.447l-0,13.89c-0,0.842 -0.027,1.553 -0.082,2.131c-0.054,0.579 -0.154,1.132 -0.299,1.658c-0.146,0.526 -0.327,1.078 -0.545,1.657c-0.218,0.579 -0.49,1.254 -0.817,2.026l-5.338,12.89c-0.254,0.667 -0.609,1.123 -1.062,1.368c-0.454,0.246 -1.026,0.369 -1.716,0.369Z" style="fill-rule:nonzero;"/><path d="M115.191,45.684l-2.122,-6.106c-0.005,-0.015 -0.011,-0.03 -0.016,-0.045c-0.109,-0.288 -0.191,-0.562 -0.246,-0.824c-0.046,-0.224 -0.07,-0.448 -0.07,-0.672l0,-14.522c0,-1.356 -0.491,-2.289 -1.23,-2.896c-0.642,-0.527 -1.549,-0.873 -2.769,-0.873l-8.661,-0c-1.309,-0 -2.215,0.408 -2.801,0.974c-0.605,0.585 -1.035,1.487 -1.035,2.795c0,0 0,13.89 0,13.89c0,0.912 0.031,1.681 0.09,2.307c0.065,0.692 0.185,1.352 0.359,1.981c0.159,0.577 0.358,1.184 0.597,1.819c0.225,0.597 0.506,1.293 0.842,2.088c0,0 5.328,12.865 5.328,12.865c0.445,1.151 1.122,1.893 1.91,2.32c0.692,0.374 1.557,0.594 2.608,0.594c0,-0 14.163,-0 14.163,-0c1.051,-0 1.916,-0.22 2.608,-0.594c0.792,-0.429 1.471,-1.176 1.917,-2.336c-0.007,0.016 5.321,-12.849 5.321,-12.849c0.336,-0.795 0.617,-1.491 0.842,-2.088c0.239,-0.635 0.438,-1.242 0.597,-1.819c0.174,-0.629 0.294,-1.289 0.359,-1.981c0.059,-0.626 0.09,-1.395 0.09,-2.307l-0,-13.89c-0,-1.308 -0.43,-2.21 -1.035,-2.795c-0.586,-0.566 -1.492,-0.974 -2.801,-0.974l-8.552,-0c-1.309,-0 -2.215,0.408 -2.801,0.974c-0.605,0.585 -1.035,1.487 -1.035,2.795l0,14.469c0,0.224 -0.023,0.448 -0.07,0.672c-0.054,0.262 -0.137,0.537 -0.245,0.825c-0.007,0.016 -0.012,0.032 -0.018,0.049l-2.124,6.154Zm6.947,13.82l-14.163,-0c-0.69,-0 -1.262,-0.123 -1.715,-0.369c-0.454,-0.245 -0.808,-0.701 -1.063,-1.368l-5.338,-12.89c-0.327,-0.772 -0.599,-1.447 -0.817,-2.026c-0.218,-0.579 -0.399,-1.131 -0.545,-1.657c-0.145,-0.526 -0.245,-1.079 -0.299,-1.658c-0.055,-0.578 -0.082,-1.289 -0.082,-2.131l0,-13.89c0,-0.666 0.154,-1.149 0.463,-1.447c0.309,-0.298 0.808,-0.447 1.498,-0.447l8.661,-0c0.69,-0 1.216,0.149 1.58,0.447c0.363,0.298 0.544,0.781 0.544,1.447l0,14.522c0,0.351 0.037,0.701 0.109,1.052c0.073,0.351 0.182,0.719 0.327,1.105l2.56,7.366c0.109,0.351 0.236,0.588 0.381,0.71c0.146,0.123 0.364,0.185 0.654,0.185l0.599,-0c0.291,-0 0.509,-0.062 0.654,-0.185c0.145,-0.122 0.272,-0.359 0.381,-0.71l2.56,-7.419c0.146,-0.385 0.255,-0.754 0.327,-1.105c0.073,-0.35 0.109,-0.701 0.109,-1.052l0,-14.469c0,-0.666 0.154,-1.149 0.463,-1.447c0.309,-0.298 0.808,-0.447 1.498,-0.447l8.552,-0c0.69,-0 1.189,0.149 1.498,0.447c0.309,0.298 0.463,0.781 0.463,1.447l-0,13.89c-0,0.842 -0.027,1.553 -0.082,2.131c-0.054,0.579 -0.154,1.132 -0.299,1.658c-0.146,0.526 -0.327,1.078 -0.545,1.657c-0.218,0.579 -0.49,1.254 -0.817,2.026l-5.338,12.89c-0.254,0.667 -0.609,1.123 -1.062,1.368c-0.454,0.246 -1.026,0.369 -1.716,0.369Z" style="fill:#808080;"/><path d="M165.932,59.504l-25.274,-0c-0.69,-0 -1.189,-0.149 -1.498,-0.448c-0.309,-0.298 -0.463,-0.78 -0.463,-1.446l-0,-34.095c-0,-0.666 0.154,-1.149 0.463,-1.447c0.309,-0.298 0.808,-0.447 1.498,-0.447l25.274,-0c0.69,-0 1.19,0.149 1.498,0.447c0.309,0.298 0.463,0.781 0.463,1.447l0,6.156c0,0.666 -0.154,1.149 -0.463,1.447c-0.308,0.298 -0.808,0.447 -1.498,0.447l-15.034,0l0,4.052l10.622,-0c0.69,-0 1.189,0.149 1.498,0.447c0.309,0.298 0.463,0.78 0.463,1.447l0,5.629c0,0.667 -0.154,1.149 -0.463,1.447c-0.309,0.298 -0.808,0.448 -1.498,0.448l-10.622,-0l0,4.524l15.034,0c0.69,0 1.19,0.15 1.498,0.448c0.309,0.298 0.463,0.78 0.463,1.447l0,6.156c0,0.666 -0.154,1.148 -0.463,1.446c-0.308,0.299 -0.808,0.448 -1.498,0.448Z" style="fill-rule:nonzero;"/><path d="M165.932,61.379c1.309,-0 2.215,-0.408 2.801,-0.974c0.606,-0.585 1.035,-1.488 1.035,-2.795l0,-6.156c0,-1.308 -0.429,-2.211 -1.035,-2.796c-0.586,-0.565 -1.492,-0.974 -2.801,-0.974c0,0 -13.159,0 -13.159,0c0,0 0,-0.774 0,-0.774c0,-0 8.747,-0 8.747,-0c1.309,-0 2.215,-0.409 2.801,-0.974c0.605,-0.585 1.035,-1.488 1.035,-2.796l0,-5.629c0,-1.308 -0.43,-2.211 -1.035,-2.796c-0.586,-0.565 -1.492,-0.973 -2.801,-0.973l-8.747,-0c0,-0 0,-0.302 0,-0.302c0,0 13.159,0 13.159,0c1.309,0 2.215,-0.408 2.801,-0.973c0.606,-0.586 1.035,-1.488 1.035,-2.796l0,-6.156c0,-1.308 -0.429,-2.21 -1.035,-2.795c-0.586,-0.566 -1.492,-0.974 -2.801,-0.974l-25.274,-0c-1.309,-0 -2.215,0.408 -2.801,0.974c-0.605,0.585 -1.035,1.487 -1.035,2.795l-0,34.095c-0,1.307 0.43,2.21 1.035,2.795c0.586,0.566 1.492,0.974 2.801,0.974c-0,-0 25.274,-0 25.274,-0Zm0,-1.875l-25.274,-0c-0.69,-0 -1.189,-0.149 -1.498,-0.448c-0.309,-0.298 -0.463,-0.78 -0.463,-1.446l-0,-34.095c-0,-0.666 0.154,-1.149 0.463,-1.447c0.309,-0.298 0.808,-0.447 1.498,-0.447l25.274,-0c0.69,-0 1.19,0.149 1.498,0.447c0.309,0.298 0.463,0.781 0.463,1.447l0,6.156c0,0.666 -0.154,1.149 -0.463,1.447c-0.308,0.298 -0.808,0.447 -1.498,0.447l-15.034,0l0,4.052l10.622,-0c0.69,-0 1.189,0.149 1.498,0.447c0.309,0.298 0.463,0.78 0.463,1.447l0,5.629c0,0.667 -0.154,1.149 -0.463,1.447c-0.309,0.298 -0.808,0.448 -1.498,0.448l-10.622,-0l0,4.524l15.034,0c0.69,0 1.19,0.15 1.498,0.448c0.309,0.298 0.463,0.78 0.463,1.447l0,6.156c0,0.666 -0.154,1.148 -0.463,1.446c-0.308,0.299 -0.808,0.448 -1.498,0.448Z" style="fill:#808080;"/><path d="M197.508,59.341l-9.04,0c-0.739,0 -1.274,-0.148 -1.604,-0.443c-0.331,-0.296 -0.496,-0.774 -0.496,-1.435l0,-33.802c0,-0.66 0.165,-1.138 0.496,-1.434c0.33,-0.296 0.865,-0.443 1.604,-0.443l9.04,-0c0.738,-0 1.273,0.147 1.603,0.443c0.331,0.296 0.496,0.774 0.496,1.434l0,11.32l9.74,-0l0,-11.32c0,-0.66 0.165,-1.138 0.496,-1.434c0.33,-0.296 0.865,-0.443 1.604,-0.443l9.04,-0c0.738,-0 1.273,0.147 1.604,0.443c0.33,0.296 0.495,0.774 0.495,1.434l0,33.802c0,0.661 -0.165,1.139 -0.495,1.435c-0.331,0.295 -0.866,0.443 -1.604,0.443l-9.04,0c-0.739,0 -1.274,-0.148 -1.604,-0.443c-0.331,-0.296 -0.496,-0.774 -0.496,-1.435l0,-11.58l-9.74,-0l0,11.58c0,0.661 -0.165,1.139 -0.496,1.435c-0.33,0.295 -0.865,0.443 -1.603,0.443Z" style="fill-rule:nonzero;stroke:#808080;stroke-width:1.87px;"/><path d="M231.801,59.341c-0.739,0 -1.273,-0.148 -1.604,-0.443c-0.33,-0.296 -0.495,-0.774 -0.495,-1.435l-0,-6.207c-0,-0.661 0.165,-1.139 0.495,-1.435c0.331,-0.295 0.865,-0.443 1.604,-0.443l5.774,-0l0,-17.527l-5.774,0c-0.739,0 -1.273,-0.148 -1.604,-0.443c-0.33,-0.296 -0.495,-0.774 -0.495,-1.435l-0,-6.312c-0,-0.66 0.165,-1.138 0.495,-1.434c0.331,-0.296 0.865,-0.443 1.604,-0.443l24.846,-0c0.738,-0 1.273,0.147 1.603,0.443c0.331,0.296 0.496,0.774 0.496,1.434l0,6.312c0,0.661 -0.165,1.139 -0.496,1.435c-0.33,0.295 -0.865,0.443 -1.603,0.443l-5.658,0l0,17.527l5.658,-0c0.738,-0 1.273,0.148 1.603,0.443c0.331,0.296 0.496,0.774 0.496,1.435l0,6.207c0,0.661 -0.165,1.139 -0.496,1.435c-0.33,0.295 -0.865,0.443 -1.603,0.443l-24.846,0Z" style="fill-rule:nonzero;stroke:#808080;stroke-width:1.87px;"/><path d="M297.997,59.341l-18.371,0c-4.861,0 -8.467,-0.869 -10.819,-2.608c-2.353,-1.739 -3.529,-4.417 -3.529,-8.033l0,-16.275c0,-3.617 1.176,-6.295 3.529,-8.033c2.352,-1.739 5.958,-2.608 10.819,-2.608l14.58,-0c0.739,-0 1.274,0.147 1.604,0.443c0.331,0.296 0.496,0.774 0.496,1.434l-0,6.312c-0,0.661 -0.165,1.139 -0.496,1.435c-0.33,0.295 -0.865,0.443 -1.604,0.443l-12.131,0c-1.205,0 -2.099,0.217 -2.683,0.652c-0.583,0.435 -0.875,1.087 -0.875,1.956l0,12.467c0,0.87 0.224,1.513 0.671,1.93c0.447,0.418 1.118,0.626 2.012,0.626l5.658,0l-0,-8.137c-0,-0.661 0.165,-1.139 0.495,-1.435c0.331,-0.295 0.865,-0.443 1.604,-0.443l9.04,-0c0.739,-0 1.274,0.148 1.604,0.443c0.331,0.296 0.496,0.774 0.496,1.435l-0,16.118c-0,0.661 -0.165,1.139 -0.496,1.435c-0.33,0.295 -0.865,0.443 -1.604,0.443Z" style="fill-rule:nonzero;stroke:#808080;stroke-width:1.87px;"/><path d="M318.352,59.341l-9.04,0c-0.739,0 -1.274,-0.148 -1.604,-0.443c-0.331,-0.296 -0.496,-0.774 -0.496,-1.435l0,-33.802c0,-0.66 0.165,-1.138 0.496,-1.434c0.33,-0.296 0.865,-0.443 1.604,-0.443l9.04,-0c0.738,-0 1.273,0.147 1.604,0.443c0.33,0.296 0.495,0.774 0.495,1.434l0,11.32l9.74,-0l0,-11.32c0,-0.66 0.165,-1.138 0.496,-1.434c0.33,-0.296 0.865,-0.443 1.604,-0.443l9.04,-0c0.738,-0 1.273,0.147 1.604,0.443c0.33,0.296 0.495,0.774 0.495,1.434l0,33.802c0,0.661 -0.165,1.139 -0.495,1.435c-0.331,0.295 -0.866,0.443 -1.604,0.443l-9.04,0c-0.739,0 -1.274,-0.148 -1.604,-0.443c-0.331,-0.296 -0.496,-0.774 -0.496,-1.435l0,-11.58l-9.74,-0l0,11.58c0,0.661 -0.165,1.139 -0.495,1.435c-0.331,0.295 -0.866,0.443 -1.604,0.443Z" style="fill-rule:nonzero;stroke:#808080;stroke-width:1.87px;"/><path d="M377.782,31.173l0,6.677l4.374,-0c1.011,-0 1.692,-0.235 2.042,-0.704c0.35,-0.47 0.525,-1.052 0.525,-1.748l-0,-1.773c-0,-0.696 -0.175,-1.278 -0.525,-1.748c-0.35,-0.469 -1.031,-0.704 -2.042,-0.704l-4.374,-0Zm-2.099,28.168l-8.982,0c-0.739,0 -1.273,-0.148 -1.604,-0.443c-0.33,-0.296 -0.496,-0.774 -0.496,-1.435l0,-33.802c0,-0.66 0.166,-1.138 0.496,-1.434c0.331,-0.296 0.865,-0.443 1.604,-0.443l19.421,-0c4.355,-0 7.359,0.808 9.011,2.425c1.653,1.617 2.479,3.712 2.479,6.286l-0,2.399c-0,1.461 -0.243,2.704 -0.729,3.73c-0.486,1.026 -1.332,1.765 -2.537,2.217c2.099,0.209 3.801,0.974 5.103,2.295c1.303,1.322 1.954,3.078 1.954,5.269l-0,11.058c-0,0.661 -0.165,1.139 -0.496,1.435c-0.33,0.295 -0.865,0.443 -1.604,0.443l-9.04,0c-0.738,0 -1.273,-0.148 -1.604,-0.443c-0.33,-0.296 -0.495,-0.774 -0.495,-1.435l-0,-7.981c-0,-0.765 -0.166,-1.33 -0.496,-1.695c-0.331,-0.365 -0.904,-0.548 -1.721,-0.548l-8.165,0l0,10.224c0,0.661 -0.165,1.139 -0.495,1.435c-0.331,0.295 -0.866,0.443 -1.604,0.443Z" style="fill-rule:nonzero;stroke:#808080;stroke-width:1.87px;"/><path d="M437.096,59.341l-27.061,0c-0.739,0 -1.274,-0.148 -1.604,-0.443c-0.331,-0.296 -0.496,-0.774 -0.496,-1.435l-0,-33.802c-0,-0.66 0.165,-1.138 0.496,-1.434c0.33,-0.296 0.865,-0.443 1.604,-0.443l27.061,-0c0.739,-0 1.274,0.147 1.604,0.443c0.331,0.296 0.496,0.774 0.496,1.434l-0,6.104c-0,0.66 -0.165,1.138 -0.496,1.434c-0.33,0.296 -0.865,0.443 -1.604,0.443l-16.097,0l0,4.017l11.373,-0c0.739,-0 1.273,0.148 1.604,0.443c0.33,0.296 0.496,0.774 0.496,1.435l-0,5.581c-0,0.661 -0.166,1.139 -0.496,1.435c-0.331,0.295 -0.865,0.443 -1.604,0.443l-11.373,0l0,4.486l16.097,0c0.739,0 1.274,0.148 1.604,0.444c0.331,0.295 0.496,0.773 0.496,1.434l-0,6.103c-0,0.661 -0.165,1.139 -0.496,1.435c-0.33,0.295 -0.865,0.443 -1.604,0.443Z" style="fill-rule:nonzero;stroke:#808080;stroke-width:1.87px;"/><path d="M465.558,59.341l-18.43,0c-0.739,0 -1.274,-0.148 -1.604,-0.443c-0.331,-0.296 -0.496,-0.774 -0.496,-1.435l0,-6.103c0,-0.661 0.165,-1.139 0.496,-1.434c0.33,-0.296 0.865,-0.444 1.604,-0.444l15.688,0c0.506,0 0.885,-0.148 1.138,-0.443c0.252,-0.296 0.379,-0.652 0.379,-1.07c-0,-0.591 -0.127,-1.025 -0.379,-1.304c-0.253,-0.278 -0.632,-0.434 -1.138,-0.469l-8.748,-1.095c-2.722,-0.348 -4.909,-1.148 -6.561,-2.4c-1.653,-1.252 -2.479,-3.338 -2.479,-6.26l0,-5.477c0,-2.956 1.069,-5.225 3.208,-6.807c2.138,-1.582 5.093,-2.373 8.865,-2.373l16.33,-0c0.739,-0 1.273,0.147 1.604,0.443c0.33,0.296 0.496,0.774 0.496,1.434l-0,6.208c-0,0.661 -0.166,1.139 -0.496,1.434c-0.331,0.296 -0.865,0.444 -1.604,0.444l-13.589,-0c-0.506,-0 -0.894,0.148 -1.167,0.443c-0.272,0.296 -0.408,0.67 -0.408,1.122c0,0.452 0.136,0.834 0.408,1.147c0.273,0.313 0.661,0.487 1.167,0.522l8.69,1.043c2.722,0.348 4.919,1.148 6.59,2.4c1.672,1.252 2.508,3.338 2.508,6.259l0,5.477c0,2.956 -1.079,5.225 -3.237,6.808c-2.158,1.582 -5.103,2.373 -8.835,2.373Z" style="fill-rule:nonzero;stroke:#808080;stroke-width:1.87px;"/></g></g></svg>