<?xml version="1.0" encoding="UTF-8" standalone="no"?>
<!DOCTYPE svg PUBLIC "-//W3C//DTD SVG 1.1//EN" "http://www.w3.org/Graphics/SVG/1.1/DTD/svg11.dtd">
<svg width="100%" height="100%" viewBox="0 0 231 42" version="1.1" xmlns="http://www.w3.org/2000/svg" xmlns:xlink="http://www.w3.org/1999/xlink" xml:space="preserve" xmlns:serif="http://www.serif.com/" style="fill-rule:evenodd;clip-rule:evenodd;stroke-linejoin:round;stroke-miterlimit:2;">
    <g transform="matrix(1,0,0,1,-692.613,-358.595)">
        <g>
            <path d="M712.019,397.8L694.597,397.8C693.899,397.8 693.394,397.648 693.081,397.345C692.769,397.042 692.613,396.551 692.613,395.873L692.613,389.611C692.613,388.933 692.769,388.442 693.081,388.139C693.394,387.835 693.899,387.684 694.597,387.684L709.428,387.684C709.905,387.684 710.264,387.532 710.503,387.229C710.742,386.925 710.861,386.56 710.861,386.131C710.861,385.525 710.742,385.079 710.503,384.793C710.264,384.508 709.905,384.347 709.428,384.312L701.158,383.188C698.585,382.831 696.518,382.01 694.956,380.725C693.394,379.441 692.613,377.3 692.613,374.302L692.613,368.682C692.613,365.649 693.624,363.321 695.645,361.697C697.666,360.074 700.46,359.262 704.025,359.262L719.461,359.262C720.16,359.262 720.665,359.414 720.977,359.717C721.29,360.02 721.446,360.511 721.446,361.189L721.446,367.558C721.446,368.236 721.29,368.727 720.977,369.03C720.665,369.334 720.16,369.485 719.461,369.485L706.616,369.485C706.138,369.485 705.771,369.637 705.513,369.94C705.256,370.243 705.127,370.627 705.127,371.091C705.127,371.555 705.256,371.947 705.513,372.268C705.771,372.59 706.138,372.768 706.616,372.804L714.83,373.874C717.403,374.231 719.48,375.052 721.06,376.336C722.641,377.621 723.431,379.762 723.431,382.759L723.431,388.38C723.431,391.413 722.411,393.741 720.371,395.365C718.331,396.988 715.547,397.8 712.019,397.8ZM757.005,397.8L731.425,397.8C730.726,397.8 730.221,397.648 729.909,397.345C729.596,397.042 729.44,396.551 729.44,395.873L729.44,361.189C729.44,360.511 729.596,360.02 729.909,359.717C730.221,359.414 730.726,359.262 731.425,359.262L757.005,359.262C757.704,359.262 758.209,359.414 758.521,359.717C758.834,360.02 758.99,360.511 758.99,361.189L758.99,367.451C758.99,368.129 758.834,368.62 758.521,368.923C758.209,369.226 757.704,369.378 757.005,369.378L741.789,369.378L741.789,373.5L752.54,373.5C753.238,373.5 753.743,373.651 754.056,373.955C754.368,374.258 754.524,374.748 754.524,375.426L754.524,381.154C754.524,381.832 754.368,382.322 754.056,382.626C753.743,382.929 753.238,383.081 752.54,383.081L741.789,383.081L741.789,387.684L757.005,387.684C757.704,387.684 758.209,387.835 758.521,388.139C758.834,388.442 758.99,388.933 758.99,389.611L758.99,395.873C758.99,396.551 758.834,397.042 758.521,397.345C758.209,397.648 757.704,397.8 757.005,397.8ZM779.885,370.502L777.293,378.638L785.949,378.638L783.358,370.502C783.211,370.181 783.055,369.949 782.889,369.806C782.724,369.664 782.531,369.592 782.31,369.592L780.932,369.592C780.712,369.592 780.519,369.664 780.353,369.806C780.188,369.949 780.032,370.181 779.885,370.502ZM776.742,395.873C776.742,396.551 776.586,397.042 776.274,397.345C775.961,397.648 775.456,397.8 774.757,397.8L766.653,397.8C765.955,397.8 765.45,397.648 765.137,397.345C764.825,397.042 764.669,396.551 764.669,395.873L764.669,381.742C764.669,380.672 764.843,379.441 765.192,378.049C765.541,376.658 766.084,375.034 766.819,373.178L771.615,361.028C771.835,360.422 772.175,359.976 772.635,359.69C773.094,359.405 773.692,359.262 774.427,359.262L789.257,359.262C789.955,359.262 790.534,359.405 790.993,359.69C791.453,359.976 791.793,360.422 792.013,361.028L796.81,373.178C797.545,375.034 798.087,376.658 798.436,378.049C798.785,379.441 798.96,380.672 798.96,381.742L798.96,395.873C798.96,396.551 798.804,397.042 798.491,397.345C798.179,397.648 797.673,397.8 796.975,397.8L788.65,397.8C787.915,397.8 787.373,397.648 787.024,397.345C786.675,397.042 786.5,396.551 786.5,395.873L786.5,388.38L776.742,388.38L776.742,395.873ZM818.2,368.896L818.2,375.748L822.335,375.748C823.291,375.748 823.934,375.507 824.265,375.025C824.596,374.543 824.761,373.946 824.761,373.232L824.761,371.412C824.761,370.698 824.596,370.101 824.265,369.619C823.934,369.137 823.291,368.896 822.335,368.896L818.2,368.896ZM816.216,397.8L807.726,397.8C807.027,397.8 806.522,397.648 806.209,397.345C805.897,397.042 805.741,396.551 805.741,395.873L805.741,361.189C805.741,360.511 805.897,360.02 806.209,359.717C806.522,359.414 807.027,359.262 807.726,359.262L826.084,359.262C830.2,359.262 833.04,360.091 834.602,361.751C836.164,363.41 836.945,365.56 836.945,368.201L836.945,370.663C836.945,372.161 836.715,373.437 836.256,374.49C835.796,375.542 834.997,376.301 833.857,376.765C835.842,376.979 837.45,377.764 838.681,379.12C839.913,380.476 840.528,382.278 840.528,384.526L840.528,395.873C840.528,396.551 840.372,397.042 840.06,397.345C839.747,397.648 839.242,397.8 838.544,397.8L829.998,397.8C829.3,397.8 828.795,397.648 828.482,397.345C828.17,397.042 828.014,396.551 828.014,395.873L828.014,387.684C828.014,386.899 827.857,386.319 827.545,385.944C827.233,385.569 826.69,385.382 825.919,385.382L818.2,385.382L818.2,395.873C818.2,396.551 818.044,397.042 817.732,397.345C817.419,397.648 816.914,397.8 816.216,397.8ZM872.843,397.8L859.391,397.8C854.797,397.8 851.388,396.908 849.164,395.124C846.941,393.34 845.829,390.592 845.829,386.881L845.829,370.235C845.829,366.523 846.941,363.767 849.164,361.965C851.388,360.163 854.797,359.262 859.391,359.262L872.843,359.262C873.541,359.262 874.047,359.414 874.359,359.717C874.671,360.02 874.828,360.511 874.828,361.189L874.828,367.665C874.828,368.343 874.671,368.834 874.359,369.137C874.047,369.441 873.541,369.592 872.843,369.592L861.762,369.592C860.622,369.592 859.777,369.815 859.226,370.261C858.674,370.707 858.399,371.376 858.399,372.268L858.399,385.007C858.399,385.9 858.674,386.551 859.226,386.961C859.777,387.371 860.622,387.577 861.762,387.577L872.843,387.577C873.541,387.577 874.047,387.728 874.359,388.032C874.671,388.335 874.828,388.826 874.828,389.504L874.828,395.873C874.828,396.551 874.671,397.042 874.359,397.345C874.047,397.648 873.541,397.8 872.843,397.8ZM891.587,397.8L883.042,397.8C882.344,397.8 881.838,397.648 881.526,397.345C881.213,397.042 881.057,396.551 881.057,395.873L881.057,361.189C881.057,360.511 881.213,360.02 881.526,359.717C881.838,359.414 882.344,359.262 883.042,359.262L891.587,359.262C892.286,359.262 892.791,359.414 893.103,359.717C893.416,360.02 893.572,360.511 893.572,361.189L893.572,372.804L902.779,372.804L902.779,361.189C902.779,360.511 902.935,360.02 903.247,359.717C903.56,359.414 904.065,359.262 904.763,359.262L913.309,359.262C914.007,359.262 914.512,359.414 914.825,359.717C915.137,360.02 915.293,360.511 915.293,361.189L915.293,395.873C915.293,396.551 915.137,397.042 914.825,397.345C914.512,397.648 914.007,397.8 913.309,397.8L904.763,397.8C904.065,397.8 903.56,397.648 903.247,397.345C902.935,397.042 902.779,396.551 902.779,395.873L902.779,383.99L893.572,383.99L893.572,395.873C893.572,396.551 893.416,397.042 893.103,397.345C892.791,397.648 892.286,397.8 891.587,397.8Z" style="fill:rgb(255,0,0);fill-rule:nonzero;"/>
            <path d="M718.019,398.8L700.597,398.8C699.899,398.8 699.394,398.648 699.081,398.345C698.769,398.042 698.613,397.551 698.613,396.873L698.613,390.611C698.613,389.933 698.769,389.442 699.081,389.139C699.394,388.835 699.899,388.684 700.597,388.684L715.428,388.684C715.905,388.684 716.264,388.532 716.503,388.229C716.742,387.925 716.861,387.56 716.861,387.131C716.861,386.525 716.742,386.079 716.503,385.793C716.264,385.508 715.905,385.347 715.428,385.312L707.158,384.188C704.585,383.831 702.518,383.01 700.956,381.725C699.394,380.441 698.613,378.3 698.613,375.302L698.613,369.682C698.613,366.649 699.624,364.321 701.645,362.697C703.666,361.074 706.46,360.262 710.025,360.262L725.461,360.262C726.16,360.262 726.665,360.414 726.977,360.717C727.29,361.02 727.446,361.511 727.446,362.189L727.446,368.558C727.446,369.236 727.29,369.727 726.977,370.03C726.665,370.334 726.16,370.485 725.461,370.485L712.616,370.485C712.138,370.485 711.771,370.637 711.513,370.94C711.256,371.243 711.127,371.627 711.127,372.091C711.127,372.555 711.256,372.947 711.513,373.268C711.771,373.59 712.138,373.768 712.616,373.804L720.83,374.874C723.403,375.231 725.48,376.052 727.06,377.336C728.641,378.621 729.431,380.762 729.431,383.759L729.431,389.38C729.431,392.413 728.411,394.741 726.371,396.365C724.331,397.988 721.547,398.8 718.019,398.8Z" style="fill:white;fill-rule:nonzero;"/>
            <path d="M712.831,372.151L721.046,373.222C721.05,373.222 721.055,373.223 721.059,373.223C723.976,373.628 726.32,374.587 728.111,376.043C730.021,377.595 731.097,380.137 731.097,383.759L731.097,389.38C731.097,392.988 729.836,395.737 727.409,397.669C725.112,399.497 721.992,400.467 718.019,400.467L700.597,400.467C699.348,400.467 698.479,400.084 697.92,399.541C697.346,398.983 696.946,398.12 696.946,396.873L696.946,390.611C696.946,389.364 697.346,388.501 697.92,387.943C698.479,387.4 699.348,387.017 700.597,387.017L715.189,387.017C715.187,386.998 715.186,386.979 715.184,386.96L706.934,385.839L706.929,385.838C704.007,385.433 701.671,384.472 699.897,383.013C698.011,381.462 696.946,378.922 696.946,375.302L696.946,369.682C696.946,366.076 698.198,363.328 700.601,361.398C702.879,359.569 706.008,358.595 710.025,358.595L725.461,358.595C726.711,358.595 727.579,358.978 728.138,359.521C728.713,360.079 729.113,360.942 729.113,362.189L729.113,368.558C729.113,369.805 728.713,370.668 728.138,371.226C727.579,371.769 726.711,372.152 725.461,372.152L712.831,372.151ZM718.019,398.8C721.547,398.8 724.331,397.988 726.371,396.365C728.411,394.741 729.431,392.413 729.431,389.38L729.431,383.759C729.431,380.762 728.641,378.621 727.06,377.336C725.48,376.052 723.403,375.231 720.83,374.874L712.616,373.804C712.138,373.768 711.771,373.59 711.513,373.268C711.256,372.947 711.127,372.555 711.127,372.091C711.127,371.627 711.256,371.243 711.513,370.94C711.771,370.637 712.138,370.485 712.616,370.485L725.461,370.485C726.16,370.485 726.665,370.334 726.977,370.03C727.29,369.727 727.446,369.236 727.446,368.558L727.446,362.189C727.446,361.511 727.29,361.02 726.977,360.717C726.665,360.414 726.16,360.262 725.461,360.262L710.025,360.262C706.46,360.262 703.666,361.074 701.645,362.697C699.624,364.321 698.613,366.649 698.613,369.682L698.613,375.302C698.613,378.3 699.394,380.441 700.956,381.725C702.518,383.01 704.585,383.831 707.158,384.188L715.428,385.312C715.905,385.347 716.264,385.508 716.503,385.793C716.742,386.079 716.861,386.525 716.861,387.131C716.861,387.56 716.742,387.925 716.503,388.229C716.264,388.532 715.905,388.684 715.428,388.684L700.597,388.684C699.899,388.684 699.394,388.835 699.081,389.139C698.769,389.442 698.613,389.933 698.613,390.611L698.613,396.873C698.613,397.551 698.769,398.042 699.081,398.345C699.394,398.648 699.899,398.8 700.597,398.8L718.019,398.8Z"/>
            <path d="M763.005,398.8L737.425,398.8C736.726,398.8 736.221,398.648 735.909,398.345C735.596,398.042 735.44,397.551 735.44,396.873L735.44,362.189C735.44,361.511 735.596,361.02 735.909,360.717C736.221,360.414 736.726,360.262 737.425,360.262L763.005,360.262C763.704,360.262 764.209,360.414 764.521,360.717C764.834,361.02 764.99,361.511 764.99,362.189L764.99,368.451C764.99,369.129 764.834,369.62 764.521,369.923C764.209,370.226 763.704,370.378 763.005,370.378L747.789,370.378L747.789,374.5L758.54,374.5C759.238,374.5 759.743,374.651 760.056,374.955C760.368,375.258 760.524,375.748 760.524,376.426L760.524,382.154C760.524,382.832 760.368,383.322 760.056,383.626C759.743,383.929 759.238,384.081 758.54,384.081L747.789,384.081L747.789,388.684L763.005,388.684C763.704,388.684 764.209,388.835 764.521,389.139C764.834,389.442 764.99,389.933 764.99,390.611L764.99,396.873C764.99,397.551 764.834,398.042 764.521,398.345C764.209,398.648 763.704,398.8 763.005,398.8Z" style="fill:white;fill-rule:nonzero;"/>
            <path d="M763.005,400.467L737.425,400.467C736.175,400.467 735.307,400.084 734.748,399.541C734.173,398.983 733.773,398.12 733.773,396.873L733.773,362.189C733.773,360.942 734.173,360.079 734.748,359.521C735.307,358.978 736.175,358.595 737.425,358.595L763.005,358.595C764.255,358.595 765.123,358.978 765.682,359.521C766.257,360.079 766.657,360.942 766.657,362.189L766.657,368.451C766.657,369.698 766.257,370.561 765.682,371.119C765.123,371.662 764.255,372.045 763.005,372.045L749.456,372.045C749.456,372.045 749.456,372.833 749.456,372.833L758.54,372.833C759.789,372.833 760.658,373.216 761.217,373.759C761.791,374.316 762.191,375.18 762.191,376.426L762.191,382.154C762.191,383.4 761.791,384.264 761.217,384.821C760.658,385.364 759.789,385.747 758.54,385.747C758.54,385.747 749.456,385.747 749.456,385.747L749.456,387.017L763.005,387.017C764.255,387.017 765.123,387.4 765.682,387.943C766.257,388.501 766.657,389.364 766.657,390.611L766.657,396.873C766.657,398.12 766.257,398.983 765.682,399.541C765.123,400.084 764.255,400.467 763.005,400.467ZM763.005,398.8C763.704,398.8 764.209,398.648 764.521,398.345C764.834,398.042 764.99,397.551 764.99,396.873L764.99,390.611C764.99,389.933 764.834,389.442 764.521,389.139C764.209,388.835 763.704,388.684 763.005,388.684L747.789,388.684L747.789,384.081L758.54,384.081C759.238,384.081 759.743,383.929 760.056,383.626C760.368,383.322 760.524,382.832 760.524,382.154L760.524,376.426C760.524,375.748 760.368,375.258 760.056,374.955C759.743,374.651 759.238,374.5 758.54,374.5L747.789,374.5L747.789,370.378L763.005,370.378C763.704,370.378 764.209,370.226 764.521,369.923C764.834,369.62 764.99,369.129 764.99,368.451L764.99,362.189C764.99,361.511 764.834,361.02 764.521,360.717C764.209,360.414 763.704,360.262 763.005,360.262L737.425,360.262C736.726,360.262 736.221,360.414 735.909,360.717C735.596,361.02 735.44,361.511 735.44,362.189L735.44,396.873C735.44,397.551 735.596,398.042 735.909,398.345C736.221,398.648 736.726,398.8 737.425,398.8L763.005,398.8Z"/>
            <path d="M782.742,396.873C782.742,397.551 782.586,398.042 782.274,398.345C781.961,398.648 781.456,398.8 780.757,398.8L772.653,398.8C771.955,398.8 771.45,398.648 771.137,398.345C770.825,398.042 770.669,397.551 770.669,396.873L770.669,382.742C770.669,381.672 770.843,380.441 771.192,379.049C771.541,377.658 772.084,376.034 772.819,374.178L777.615,362.028C777.835,361.422 778.175,360.976 778.635,360.69C779.094,360.405 779.692,360.262 780.427,360.262L795.257,360.262C795.955,360.262 796.534,360.405 796.993,360.69C797.453,360.976 797.793,361.422 798.013,362.028L802.81,374.178C803.545,376.034 804.087,377.658 804.436,379.049C804.785,380.441 804.96,381.672 804.96,382.742L804.96,396.873C804.96,397.551 804.804,398.042 804.491,398.345C804.179,398.648 803.673,398.8 802.975,398.8L794.65,398.8C793.915,398.8 793.373,398.648 793.024,398.345C792.675,398.042 792.5,397.551 792.5,396.873L792.5,389.38L782.742,389.38L782.742,396.873Z" style="fill:white;fill-rule:nonzero;"/>
            <path d="M784.409,396.873C784.409,398.12 784.009,398.983 783.434,399.541C782.875,400.084 782.007,400.467 780.757,400.467L772.653,400.467C771.404,400.467 770.535,400.084 769.976,399.541C769.402,398.983 769.002,398.12 769.002,396.873L769.002,382.742C769.002,381.555 769.188,380.188 769.576,378.644C769.94,377.193 770.503,375.499 771.268,373.566C771.268,373.566 776.058,361.433 776.053,361.447C776.416,360.454 777.001,359.743 777.755,359.274C778.443,358.847 779.327,358.595 780.427,358.595L795.257,358.595C796.312,358.595 797.179,358.843 797.873,359.274C798.623,359.741 799.206,360.447 799.57,361.433L804.359,373.565C805.126,375.499 805.689,377.193 806.053,378.644C806.44,380.188 806.626,381.555 806.626,382.742L806.626,396.873C806.626,398.12 806.227,398.983 805.652,399.541C805.093,400.084 804.225,400.467 802.975,400.467L794.65,400.467C793.408,400.467 792.521,400.116 791.931,399.603C791.273,399.032 790.834,398.15 790.834,396.873L790.834,391.046L784.409,391.046L784.409,396.873ZM782.742,396.873L782.742,389.38L792.5,389.38L792.5,396.873C792.5,397.551 792.675,398.042 793.024,398.345C793.373,398.648 793.915,398.8 794.65,398.8L802.975,398.8C803.673,398.8 804.179,398.648 804.491,398.345C804.804,398.042 804.96,397.551 804.96,396.873L804.96,382.742C804.96,381.672 804.785,380.441 804.436,379.049C804.087,377.658 803.545,376.034 802.81,374.178L798.013,362.028C797.793,361.422 797.453,360.976 796.993,360.69C796.534,360.405 795.955,360.262 795.257,360.262L780.427,360.262C779.692,360.262 779.094,360.405 778.635,360.69C778.175,360.976 777.835,361.422 777.615,362.028L772.819,374.178C772.084,376.034 771.541,377.658 771.192,379.049C770.843,380.441 770.669,381.672 770.669,382.742L770.669,396.873C770.669,397.551 770.825,398.042 771.137,398.345C771.45,398.648 771.955,398.8 772.653,398.8L780.757,398.8C781.456,398.8 781.961,398.648 782.274,398.345C782.586,398.042 782.742,397.551 782.742,396.873Z"/>
            <path d="M785.885,371.502L783.293,379.638L791.949,379.638L789.358,371.502C789.211,371.181 789.055,370.949 788.889,370.806C788.724,370.664 788.531,370.592 788.31,370.592L786.932,370.592C786.712,370.592 786.519,370.664 786.353,370.806C786.188,370.949 786.032,371.181 785.885,371.502Z" style="fill:rgb(255,0,0);fill-rule:nonzero;"/>
            <path d="M785.885,371.502C786.032,371.181 786.188,370.949 786.353,370.806C786.519,370.664 786.712,370.592 786.932,370.592L788.31,370.592C788.531,370.592 788.724,370.664 788.889,370.806C789.055,370.949 789.211,371.181 789.358,371.502L791.949,379.638L783.293,379.638L785.885,371.502ZM787.849,372.259L787.393,372.259L785.573,377.971L789.669,377.971C789.669,377.971 788.13,373.138 787.849,372.259Z"/>
            <path d="M822.216,398.8L813.726,398.8C813.027,398.8 812.522,398.648 812.209,398.345C811.897,398.042 811.741,397.551 811.741,396.873L811.741,362.189C811.741,361.511 811.897,361.02 812.209,360.717C812.522,360.414 813.027,360.262 813.726,360.262L832.084,360.262C836.2,360.262 839.04,361.091 840.602,362.751C842.164,364.41 842.945,366.56 842.945,369.201L842.945,371.663C842.945,373.161 842.715,374.437 842.256,375.49C841.796,376.542 840.997,377.301 839.857,377.765C841.842,377.979 843.45,378.764 844.681,380.12C845.913,381.476 846.528,383.278 846.528,385.526L846.528,396.873C846.528,397.551 846.372,398.042 846.06,398.345C845.747,398.648 845.242,398.8 844.544,398.8L835.998,398.8C835.3,398.8 834.795,398.648 834.482,398.345C834.17,398.042 834.014,397.551 834.014,396.873L834.014,388.684C834.014,387.899 833.857,387.319 833.545,386.944C833.233,386.569 832.69,386.382 831.919,386.382L824.2,386.382L824.2,396.873C824.2,397.551 824.044,398.042 823.732,398.345C823.419,398.648 822.914,398.8 822.216,398.8Z" style="fill:white;fill-rule:nonzero;"/>
            <path d="M832.313,388.092C832.223,388.076 832.048,388.049 831.919,388.049L825.867,388.049L825.867,396.873C825.867,398.12 825.467,398.983 824.893,399.541C824.334,400.084 823.465,400.467 822.216,400.467L813.726,400.467C812.476,400.467 811.608,400.084 811.048,399.541C810.474,398.983 810.074,398.12 810.074,396.873L810.074,362.189C810.074,360.942 810.474,360.079 811.048,359.521C811.608,358.978 812.476,358.595 813.726,358.595L832.084,358.595C836.81,358.595 840.022,359.704 841.815,361.608C843.657,363.565 844.611,366.087 844.611,369.201L844.611,371.663C844.611,373.424 844.323,374.919 843.783,376.156C843.648,376.465 843.493,376.756 843.317,377.029C844.298,377.513 845.163,378.171 845.915,378.999C847.405,380.64 848.195,382.805 848.195,385.526L848.195,396.873C848.195,398.12 847.795,398.983 847.221,399.541C846.662,400.084 845.793,400.467 844.544,400.467L835.998,400.467C834.749,400.467 833.88,400.084 833.321,399.541C832.747,398.983 832.347,398.12 832.347,396.873L832.347,388.684C832.347,388.439 832.371,388.235 832.313,388.092ZM822.216,398.8C822.914,398.8 823.419,398.648 823.732,398.345C824.044,398.042 824.2,397.551 824.2,396.873L824.2,386.382L831.919,386.382C832.69,386.382 833.233,386.569 833.545,386.944C833.857,387.319 834.014,387.899 834.014,388.684L834.014,396.873C834.014,397.551 834.17,398.042 834.482,398.345C834.795,398.648 835.3,398.8 835.998,398.8L844.544,398.8C845.242,398.8 845.747,398.648 846.06,398.345C846.372,398.042 846.528,397.551 846.528,396.873L846.528,385.526C846.528,383.278 845.913,381.476 844.681,380.12C843.45,378.764 841.842,377.979 839.857,377.765C840.997,377.301 841.796,376.542 842.256,375.49C842.715,374.437 842.945,373.161 842.945,371.663L842.945,369.201C842.945,366.56 842.164,364.41 840.602,362.751C839.04,361.091 836.2,360.262 832.084,360.262L813.726,360.262C813.027,360.262 812.522,360.414 812.209,360.717C811.897,361.02 811.741,361.511 811.741,362.189L811.741,396.873C811.741,397.551 811.897,398.042 812.209,398.345C812.522,398.648 813.027,398.8 813.726,398.8L822.216,398.8Z"/>
            <path d="M824.2,369.896L824.2,376.748L828.335,376.748C829.291,376.748 829.934,376.507 830.265,376.025C830.596,375.543 830.761,374.946 830.761,374.232L830.761,372.412C830.761,371.698 830.596,371.101 830.265,370.619C829.934,370.137 829.291,369.896 828.335,369.896L824.2,369.896Z" style="fill:rgb(255,0,0);fill-rule:nonzero;"/>
            <path d="M824.2,369.896L828.335,369.896C829.291,369.896 829.934,370.137 830.265,370.619C830.596,371.101 830.761,371.698 830.761,372.412L830.761,374.232C830.761,374.946 830.596,375.543 830.265,376.025C829.934,376.507 829.291,376.748 828.335,376.748L824.2,376.748L824.2,369.896ZM828.939,375.003C829.056,374.79 829.094,374.53 829.094,374.232L829.094,372.412C829.094,372.114 829.056,371.854 828.939,371.641C828.839,371.62 828.549,371.563 828.335,371.563L825.867,371.563L825.867,375.081L828.335,375.081C828.549,375.081 828.839,375.024 828.939,375.003Z"/>
            <path d="M878.843,398.8L865.391,398.8C860.797,398.8 857.388,397.908 855.164,396.124C852.941,394.34 851.829,391.592 851.829,387.881L851.829,371.235C851.829,367.523 852.941,364.767 855.164,362.965C857.388,361.163 860.797,360.262 865.391,360.262L878.843,360.262C879.541,360.262 880.047,360.414 880.359,360.717C880.671,361.02 880.828,361.511 880.828,362.189L880.828,368.665C880.828,369.343 880.671,369.834 880.359,370.137C880.047,370.441 879.541,370.592 878.843,370.592L867.762,370.592C866.622,370.592 865.777,370.815 865.226,371.261C864.674,371.707 864.399,372.376 864.399,373.268L864.399,386.007C864.399,386.9 864.674,387.551 865.226,387.961C865.777,388.371 866.622,388.577 867.762,388.577L878.843,388.577C879.541,388.577 880.047,388.728 880.359,389.032C880.671,389.335 880.828,389.826 880.828,390.504L880.828,396.873C880.828,397.551 880.671,398.042 880.359,398.345C880.047,398.648 879.541,398.8 878.843,398.8Z" style="fill:white;fill-rule:nonzero;"/>
            <path d="M878.843,400.467L865.391,400.467C860.318,400.467 856.577,399.394 854.121,397.424C851.538,395.351 850.162,392.193 850.162,387.881L850.162,371.235C850.162,366.927 851.534,363.761 854.115,361.67C856.572,359.679 860.315,358.595 865.391,358.595L878.843,358.595C880.093,358.595 880.961,358.978 881.52,359.521C882.094,360.079 882.494,360.942 882.494,362.189L882.494,368.665C882.494,369.912 882.094,370.775 881.52,371.333C880.961,371.876 880.093,372.259 878.843,372.259L867.762,372.259C867.102,372.259 866.593,372.299 866.274,372.557C866.086,372.709 866.065,372.964 866.065,373.268L866.065,386.007C866.065,386.275 866.055,386.501 866.221,386.624C866.552,386.871 867.077,386.91 867.762,386.91L878.843,386.91C880.093,386.91 880.961,387.293 881.52,387.836C882.094,388.393 882.494,389.257 882.494,390.504L882.494,396.873C882.494,398.12 882.094,398.983 881.52,399.541C880.961,400.084 880.093,400.467 878.843,400.467ZM878.843,398.8C879.541,398.8 880.047,398.648 880.359,398.345C880.671,398.042 880.828,397.551 880.828,396.873L880.828,390.504C880.828,389.826 880.671,389.335 880.359,389.032C880.047,388.728 879.541,388.577 878.843,388.577L867.762,388.577C866.622,388.577 865.777,388.371 865.226,387.961C864.674,387.551 864.399,386.9 864.399,386.007L864.399,373.268C864.399,372.376 864.674,371.707 865.226,371.261C865.777,370.815 866.622,370.592 867.762,370.592L878.843,370.592C879.541,370.592 880.047,370.441 880.359,370.137C880.671,369.834 880.828,369.343 880.828,368.665L880.828,362.189C880.828,361.511 880.671,361.02 880.359,360.717C880.047,360.414 879.541,360.262 878.843,360.262L865.391,360.262C860.797,360.262 857.388,361.163 855.164,362.965C852.941,364.767 851.829,367.523 851.829,371.235L851.829,387.881C851.829,391.592 852.941,394.34 855.164,396.124C857.388,397.908 860.797,398.8 865.391,398.8L878.843,398.8Z"/>
            <path d="M897.587,398.8L889.042,398.8C888.344,398.8 887.838,398.648 887.526,398.345C887.213,398.042 887.057,397.551 887.057,396.873L887.057,362.189C887.057,361.511 887.213,361.02 887.526,360.717C887.838,360.414 888.344,360.262 889.042,360.262L897.587,360.262C898.286,360.262 898.791,360.414 899.103,360.717C899.416,361.02 899.572,361.511 899.572,362.189L899.572,373.804L908.779,373.804L908.779,362.189C908.779,361.511 908.935,361.02 909.247,360.717C909.56,360.414 910.065,360.262 910.763,360.262L919.309,360.262C920.007,360.262 920.512,360.414 920.825,360.717C921.137,361.02 921.293,361.511 921.293,362.189L921.293,396.873C921.293,397.551 921.137,398.042 920.825,398.345C920.512,398.648 920.007,398.8 919.309,398.8L910.763,398.8C910.065,398.8 909.56,398.648 909.247,398.345C908.935,398.042 908.779,397.551 908.779,396.873L908.779,384.99L899.572,384.99L899.572,396.873C899.572,397.551 899.416,398.042 899.103,398.345C898.791,398.648 898.286,398.8 897.587,398.8Z" style="fill:white;fill-rule:nonzero;"/>
            <path d="M897.587,400.467L889.042,400.467C887.792,400.467 886.924,400.084 886.365,399.541C885.791,398.983 885.391,398.12 885.391,396.873L885.391,362.189C885.391,360.942 885.791,360.079 886.365,359.521C886.924,358.978 887.792,358.595 889.042,358.595L897.587,358.595C898.837,358.595 899.705,358.978 900.264,359.521C900.839,360.079 901.239,360.942 901.239,362.189L901.239,372.137C901.239,372.137 907.112,372.137 907.112,372.137L907.112,362.189C907.112,360.942 907.512,360.079 908.086,359.521C908.645,358.978 909.514,358.595 910.763,358.595L919.309,358.595C920.558,358.595 921.427,358.978 921.986,359.521C922.56,360.079 922.96,360.942 922.96,362.189L922.96,396.873C922.96,398.12 922.56,398.983 921.986,399.541C921.427,400.084 920.558,400.467 919.309,400.467L910.763,400.467C909.514,400.467 908.645,400.084 908.086,399.541C907.512,398.983 907.112,398.12 907.112,396.873L907.112,386.657L901.239,386.657L901.239,396.873C901.239,398.12 900.839,398.983 900.264,399.541C899.705,400.084 898.837,400.467 897.587,400.467ZM897.587,398.8C898.286,398.8 898.791,398.648 899.103,398.345C899.416,398.042 899.572,397.551 899.572,396.873L899.572,384.99L908.779,384.99L908.779,396.873C908.779,397.551 908.935,398.042 909.247,398.345C909.56,398.648 910.065,398.8 910.763,398.8L919.309,398.8C920.007,398.8 920.512,398.648 920.825,398.345C921.137,398.042 921.293,397.551 921.293,396.873L921.293,362.189C921.293,361.511 921.137,361.02 920.825,360.717C920.512,360.414 920.007,360.262 919.309,360.262L910.763,360.262C910.065,360.262 909.56,360.414 909.247,360.717C908.935,361.02 908.779,361.511 908.779,362.189L908.779,373.804L899.572,373.804L899.572,362.189C899.572,361.511 899.416,361.02 899.103,360.717C898.791,360.414 898.286,360.262 897.587,360.262L889.042,360.262C888.344,360.262 887.838,360.414 887.526,360.717C887.213,361.02 887.057,361.511 887.057,362.189L887.057,396.873C887.057,397.551 887.213,398.042 887.526,398.345C887.838,398.648 888.344,398.8 889.042,398.8L897.587,398.8Z"/>
        </g>
    </g>
</svg>
