<?xml version="1.0" encoding="UTF-8" standalone="no"?>
<!DOCTYPE svg PUBLIC "-//W3C//DTD SVG 1.1//EN" "http://www.w3.org/Graphics/SVG/1.1/DTD/svg11.dtd">
<svg width="100%" height="100%" viewBox="0 0 332 82" version="1.1" xmlns="http://www.w3.org/2000/svg" xmlns:xlink="http://www.w3.org/1999/xlink" xml:space="preserve" xmlns:serif="http://www.serif.com/" style="fill-rule:evenodd;clip-rule:evenodd;stroke-linejoin:round;stroke-miterlimit:2;">
    <g transform="matrix(1,0,0,1,-396.971,-733.086)">
        <g transform="matrix(1,0,0,1,-376.46,35.3392)">
            <g transform="matrix(1,0,0,1,527.367,247.747)">
                <g transform="matrix(1.51401,0,0,1,-126.48,0)">
                    <path d="M464.72,470.281C464.72,459.088 458.718,450 451.325,450L259.46,450C252.067,450 246.065,459.088 246.065,470.281L246.065,510.843C246.065,522.037 252.067,531.125 259.46,531.125L451.325,531.125C458.718,531.125 464.72,522.037 464.72,510.843L464.72,470.281Z" style="fill:white;"/>
                </g>
                <g transform="matrix(1.6673,0,0,0.94954,-269.69,-146.512)">
                    <g>
                        <path d="M356.57,690.473L346.768,690.473C346.375,690.473 346.09,690.319 345.914,690.011C345.739,689.704 345.651,689.206 345.651,688.518L345.651,682.167C345.651,681.479 345.739,680.981 345.914,680.674C346.09,680.366 346.375,680.212 346.768,680.212L355.112,680.212C355.381,680.212 355.583,680.059 355.717,679.751C355.852,679.443 355.919,679.072 355.919,678.638C355.919,678.023 355.852,677.57 355.717,677.281C355.583,676.991 355.381,676.828 355.112,676.792L350.459,675.652C349.011,675.29 347.848,674.458 346.969,673.155C346.09,671.852 345.651,669.681 345.651,666.64L345.651,660.94C345.651,657.864 346.22,655.502 347.357,653.856C348.494,652.209 350.066,651.386 352.072,651.386L360.758,651.386C361.151,651.386 361.436,651.539 361.611,651.847C361.787,652.155 361.875,652.652 361.875,653.34L361.875,659.8C361.875,660.488 361.787,660.985 361.611,661.293C361.436,661.601 361.151,661.754 360.758,661.754L353.53,661.754C353.261,661.754 353.055,661.908 352.91,662.216C352.765,662.524 352.693,662.913 352.693,663.383C352.693,663.854 352.765,664.252 352.91,664.577C353.055,664.903 353.261,665.084 353.53,665.12L358.152,666.206C359.6,666.568 360.769,667.4 361.658,668.703C362.547,670.006 362.992,672.178 362.992,675.218L362.992,680.918C362.992,683.994 362.418,686.356 361.27,688.003C360.122,689.649 358.556,690.473 356.57,690.473Z" style="fill-rule:nonzero;"/>
                        <path d="M354.213,663.51L358.285,664.466C358.288,664.467 358.291,664.468 358.293,664.468C359.95,664.883 361.281,665.865 362.298,667.356C363.378,668.938 363.991,671.527 363.991,675.218L363.991,680.918C363.991,684.595 363.274,687.394 361.903,689.362C360.598,691.234 358.827,692.228 356.57,692.228L346.768,692.228C346.039,692.228 345.535,691.825 345.209,691.255C344.882,690.683 344.651,689.797 344.651,688.518L344.651,682.167C344.651,680.888 344.882,680.003 345.209,679.431C345.535,678.86 346.039,678.457 346.768,678.457L354.674,678.457L350.321,677.391L350.318,677.39C348.659,676.975 347.332,675.99 346.324,674.496C345.258,672.916 344.651,670.328 344.651,666.64L344.651,660.94C344.651,657.265 345.362,654.468 346.721,652.501C348.014,650.629 349.791,649.63 352.072,649.63L360.758,649.63C361.487,649.63 361.991,650.034 362.317,650.604C362.644,651.176 362.875,652.061 362.875,653.34L362.875,659.8C362.875,661.079 362.644,661.964 362.317,662.536C361.991,663.106 361.487,663.51 360.758,663.51L354.213,663.51ZM356.57,690.473C358.556,690.473 360.122,689.649 361.27,688.003C362.418,686.356 362.992,683.994 362.992,680.918L362.992,675.218C362.992,672.178 362.547,670.006 361.658,668.703C360.769,667.4 359.6,666.568 358.152,666.206L353.53,665.12C353.261,665.084 353.055,664.903 352.91,664.577C352.765,664.252 352.693,663.854 352.693,663.383C352.693,662.913 352.765,662.524 352.91,662.216C353.055,661.908 353.261,661.754 353.53,661.754L360.758,661.754C361.151,661.754 361.436,661.601 361.611,661.293C361.787,660.985 361.875,660.488 361.875,659.8L361.875,653.34C361.875,652.652 361.787,652.155 361.611,651.847C361.436,651.539 361.151,651.386 360.758,651.386L352.072,651.386C350.066,651.386 348.494,652.209 347.357,653.856C346.22,655.502 345.651,657.864 345.651,660.94L345.651,666.64C345.651,669.681 346.09,671.852 346.969,673.155C347.848,674.458 349.011,675.29 350.459,675.652L355.112,676.792C355.381,676.828 355.583,676.991 355.717,677.281C355.852,677.57 355.919,678.023 355.919,678.638C355.919,679.072 355.852,679.443 355.717,679.751C355.583,680.059 355.381,680.212 355.112,680.212L346.768,680.212C346.375,680.212 346.09,680.366 345.914,680.674C345.739,680.981 345.651,681.479 345.651,682.167L345.651,688.518C345.651,689.206 345.739,689.704 345.914,690.011C346.09,690.319 346.375,690.473 346.768,690.473L356.57,690.473Z" style="fill:rgb(128,128,128);"/>
                        <path d="M381.884,690.473L367.49,690.473C367.097,690.473 366.813,690.319 366.637,690.011C366.461,689.704 366.373,689.206 366.373,688.518L366.373,653.34C366.373,652.652 366.461,652.155 366.637,651.847C366.813,651.539 367.097,651.386 367.49,651.386L381.884,651.386C382.277,651.386 382.561,651.539 382.737,651.847C382.913,652.155 383.001,652.652 383.001,653.34L383.001,659.692C383.001,660.379 382.913,660.877 382.737,661.184C382.561,661.492 382.277,661.646 381.884,661.646L373.322,661.646L373.322,665.826L379.371,665.826C379.764,665.826 380.049,665.98 380.224,666.288C380.4,666.595 380.488,667.093 380.488,667.78L380.488,673.589C380.488,674.277 380.4,674.775 380.224,675.082C380.049,675.39 379.764,675.544 379.371,675.544L373.322,675.544L373.322,680.212L381.884,680.212C382.277,680.212 382.561,680.366 382.737,680.674C382.913,680.981 383.001,681.479 383.001,682.167L383.001,688.518C383.001,689.206 382.913,689.704 382.737,690.011C382.561,690.319 382.277,690.473 381.884,690.473Z" style="fill-rule:nonzero;"/>
                        <path d="M381.884,692.228L367.49,692.228C366.762,692.228 366.257,691.825 365.931,691.255C365.604,690.683 365.374,689.797 365.374,688.518L365.374,653.34C365.374,652.061 365.604,651.176 365.931,650.604C366.257,650.034 366.762,649.63 367.49,649.63L381.884,649.63C382.612,649.63 383.117,650.034 383.443,650.604C383.77,651.176 384,652.061 384,653.34L384,659.692C384,660.97 383.77,661.856 383.443,662.428C383.117,662.998 382.612,663.401 381.884,663.401L374.322,663.401L374.322,664.071L379.371,664.071C380.1,664.071 380.604,664.474 380.93,665.044C381.257,665.616 381.488,666.502 381.488,667.78L381.488,673.589C381.488,674.868 381.257,675.753 380.93,676.325C380.604,676.896 380.1,677.299 379.371,677.299L374.322,677.299L374.322,678.457L381.884,678.457C382.612,678.457 383.117,678.86 383.443,679.431C383.77,680.003 384,680.888 384,682.167L384,688.518C384,689.797 383.77,690.683 383.443,691.255C383.117,691.825 382.612,692.228 381.884,692.228ZM381.884,690.473C382.277,690.473 382.561,690.319 382.737,690.011C382.913,689.704 383.001,689.206 383.001,688.518L383.001,682.167C383.001,681.479 382.913,680.981 382.737,680.674C382.561,680.366 382.277,680.212 381.884,680.212L373.322,680.212L373.322,675.544L379.371,675.544C379.764,675.544 380.049,675.39 380.224,675.082C380.4,674.775 380.488,674.277 380.488,673.589L380.488,667.78C380.488,667.093 380.4,666.595 380.224,666.288C380.049,665.98 379.764,665.826 379.371,665.826L373.322,665.826L373.322,661.646L381.884,661.646C382.277,661.646 382.561,661.492 382.737,661.184C382.913,660.877 383.001,660.379 383.001,659.692L383.001,653.34C383.001,652.652 382.913,652.155 382.737,651.847C382.561,651.539 382.277,651.386 381.884,651.386L367.49,651.386C367.097,651.386 366.813,651.539 366.637,651.847C366.461,652.155 366.373,652.652 366.373,653.34L366.373,688.518C366.373,689.206 366.461,689.704 366.637,690.011C366.813,690.319 367.097,690.473 367.49,690.473L381.884,690.473Z" style="fill:rgb(128,128,128);"/>
                        <g transform="matrix(0.599774,0,0,1.05314,71.2434,-143.832)">
                            <path d="M536.446,790.35C536.446,791.003 536.3,791.475 536.006,791.767C535.713,792.059 535.239,792.205 534.584,792.205L526.981,792.205C526.326,792.205 525.852,792.059 525.559,791.767C525.265,791.475 525.119,791.003 525.119,790.35L525.119,776.741C525.119,775.71 525.283,774.524 525.61,773.184C525.938,771.844 526.446,770.28 527.136,768.493L531.636,756.792C531.843,756.207 532.162,755.778 532.593,755.503C533.024,755.228 533.584,755.091 534.274,755.091L548.187,755.091C548.842,755.091 549.385,755.228 549.816,755.503C550.247,755.778 550.566,756.207 550.773,756.792L555.273,768.493C555.963,770.28 556.471,771.844 556.799,773.184C557.126,774.524 557.29,775.71 557.29,776.741L557.29,790.35C557.29,791.003 557.144,791.475 556.85,791.767C556.557,792.059 556.083,792.205 555.428,792.205L547.618,792.205C546.928,792.205 546.42,792.059 546.092,791.767C545.765,791.475 545.601,791.003 545.601,790.35L545.601,783.133L536.446,783.133L536.446,790.35Z" style="fill-rule:nonzero;"/>
                            <path d="M538.113,790.35C538.113,791.564 537.728,792.405 537.183,792.948C536.64,793.489 535.798,793.872 534.584,793.872L526.981,793.872C525.767,793.872 524.925,793.489 524.382,792.948C523.837,792.405 523.452,791.564 523.452,790.35L523.452,776.741C523.452,775.595 523.627,774.277 523.991,772.788C524.333,771.39 524.862,769.758 525.58,767.895C525.58,767.895 530.074,756.21 530.069,756.224C530.416,755.251 530.977,754.557 531.696,754.098C532.36,753.675 533.212,753.424 534.274,753.424L548.187,753.424C549.206,753.424 550.042,753.67 550.713,754.098C551.428,754.554 551.988,755.245 552.335,756.21L556.828,767.893C557.547,769.758 558.076,771.39 558.418,772.788C558.782,774.277 558.957,775.595 558.957,776.741L558.957,790.35C558.957,791.564 558.572,792.405 558.027,792.948C557.484,793.489 556.642,793.872 555.428,793.872L547.618,793.872C546.414,793.872 545.555,793.521 544.983,793.011C544.358,792.454 543.934,791.595 543.934,790.35L543.934,784.8L538.113,784.8L538.113,790.35ZM536.446,790.35L536.446,783.133L545.601,783.133L545.601,790.35C545.601,791.003 545.765,791.475 546.092,791.767C546.42,792.059 546.928,792.205 547.618,792.205L555.428,792.205C556.083,792.205 556.557,792.059 556.85,791.767C557.144,791.475 557.29,791.003 557.29,790.35L557.29,776.741C557.29,775.71 557.126,774.524 556.799,773.184C556.471,771.844 555.963,770.28 555.273,768.493L550.773,756.792C550.566,756.207 550.247,755.778 549.816,755.503C549.385,755.228 548.842,755.091 548.187,755.091L534.274,755.091C533.584,755.091 533.024,755.228 532.593,755.503C532.162,755.778 531.843,756.207 531.636,756.792L527.136,768.493C526.446,770.28 525.938,771.844 525.61,773.184C525.283,774.524 525.119,775.71 525.119,776.741L525.119,790.35C525.119,791.003 525.265,791.475 525.559,791.767C525.852,792.059 526.326,792.205 526.981,792.205L534.584,792.205C535.239,792.205 535.713,792.059 536.006,791.767C536.3,791.475 536.446,791.003 536.446,790.35Z" style="fill:rgb(128,128,128);"/>
                        </g>
                        <g transform="matrix(0.599774,0,0,1.05314,71.2434,-143.832)">
                            <path d="M539.394,765.916L536.963,773.751L545.084,773.751L542.653,765.916C542.515,765.606 542.368,765.383 542.213,765.246C542.058,765.108 541.877,765.039 541.67,765.039L540.377,765.039C540.17,765.039 539.989,765.108 539.834,765.246C539.679,765.383 539.532,765.606 539.394,765.916Z" style="fill:white;fill-rule:nonzero;"/>
                            <path d="M539.394,765.916C539.532,765.606 539.679,765.383 539.834,765.246C539.989,765.108 540.17,765.039 540.377,765.039L541.67,765.039C541.877,765.039 542.058,765.108 542.213,765.246C542.368,765.383 542.515,765.606 542.653,765.916L545.084,773.751L536.963,773.751L539.394,765.916ZM541.152,766.706L540.894,766.706L539.225,772.084C539.225,772.084 542.822,772.084 542.822,772.084C542.822,772.084 541.452,767.671 541.152,766.706Z" style="fill:rgb(128,128,128);"/>
                        </g>
                        <g transform="matrix(0.599774,0,0,1.05314,71.2434,-143.832)">
                            <path d="M573.479,792.205L565.514,792.205C564.859,792.205 564.385,792.059 564.092,791.767C563.798,791.475 563.652,791.003 563.652,790.35L563.652,756.946C563.652,756.293 563.798,755.821 564.092,755.529C564.385,755.237 564.859,755.091 565.514,755.091L582.737,755.091C586.599,755.091 589.263,755.89 590.728,757.488C592.194,759.086 592.927,761.156 592.927,763.699L592.927,766.07C592.927,767.514 592.711,768.742 592.28,769.756C591.849,770.77 591.099,771.5 590.03,771.947C591.892,772.153 593.401,772.909 594.556,774.215C595.711,775.521 596.289,777.256 596.289,779.421L596.289,790.35C596.289,791.003 596.142,791.475 595.849,791.767C595.556,792.059 595.082,792.205 594.427,792.205L586.41,792.205C585.755,792.205 585.28,792.059 584.987,791.767C584.694,791.475 584.548,791.003 584.548,790.35L584.548,782.463C584.548,781.707 584.401,781.148 584.108,780.787C583.815,780.427 583.306,780.246 582.582,780.246L575.341,780.246L575.341,790.35C575.341,791.003 575.195,791.475 574.901,791.767C574.608,792.059 574.134,792.205 573.479,792.205Z" style="fill-rule:nonzero;"/>
                            <path d="M582.866,781.939C582.788,781.927 582.672,781.913 582.582,781.913C582.582,781.913 577.008,781.913 577.008,781.913L577.008,790.35C577.008,791.564 576.623,792.405 576.078,792.948C575.535,793.489 574.693,793.872 573.479,793.872L565.514,793.872C564.3,793.872 563.458,793.489 562.915,792.948C562.37,792.405 561.985,791.564 561.985,790.35L561.985,756.946C561.985,755.732 562.37,754.891 562.915,754.348C563.458,753.807 564.3,753.424 565.514,753.424L582.737,753.424C587.216,753.424 590.257,754.508 591.957,756.361C593.691,758.252 594.593,760.69 594.593,763.699L594.593,766.07C594.593,767.77 594.322,769.214 593.814,770.408C593.692,770.695 593.553,770.965 593.395,771.22C594.302,771.689 595.105,772.32 595.804,773.111C597.208,774.697 597.955,776.791 597.955,779.421L597.955,790.35C597.955,791.564 597.57,792.405 597.025,792.948C596.482,793.489 595.641,793.872 594.427,793.872L586.41,793.872C585.195,793.872 584.354,793.489 583.811,792.948C583.266,792.405 582.881,791.564 582.881,790.35L582.881,782.463C582.881,782.25 582.905,782.07 582.866,781.939ZM573.479,792.205C574.134,792.205 574.608,792.059 574.901,791.767C575.195,791.475 575.341,791.003 575.341,790.35L575.341,780.246L582.582,780.246C583.306,780.246 583.815,780.427 584.108,780.787C584.401,781.148 584.548,781.707 584.548,782.463L584.548,790.35C584.548,791.003 584.694,791.475 584.987,791.767C585.28,792.059 585.755,792.205 586.41,792.205L594.427,792.205C595.082,792.205 595.556,792.059 595.849,791.767C596.142,791.475 596.289,791.003 596.289,790.35L596.289,779.421C596.289,777.256 595.711,775.521 594.556,774.215C593.401,772.909 591.892,772.153 590.03,771.947C591.099,771.5 591.849,770.77 592.28,769.756C592.711,768.742 592.927,767.514 592.927,766.07L592.927,763.699C592.927,761.156 592.194,759.086 590.728,757.488C589.263,755.89 586.599,755.091 582.737,755.091L565.514,755.091C564.859,755.091 564.385,755.237 564.092,755.529C563.798,755.821 563.652,756.293 563.652,756.946L563.652,790.35C563.652,791.003 563.798,791.475 564.092,791.767C564.385,792.059 564.859,792.205 565.514,792.205L573.479,792.205Z" style="fill:rgb(128,128,128);"/>
                        </g>
                        <g transform="matrix(0.599774,0,0,1.05314,71.2434,-143.832)">
                            <path d="M575.341,764.369L575.341,770.967L579.22,770.967C580.117,770.967 580.72,770.735 581.031,770.272C581.341,769.808 581.496,769.232 581.496,768.545L581.496,766.792C581.496,766.105 581.341,765.529 581.031,765.065C580.72,764.601 580.117,764.369 579.22,764.369L575.341,764.369Z" style="fill:white;fill-rule:nonzero;"/>
                            <path d="M575.341,764.369L579.22,764.369C580.117,764.369 580.72,764.601 581.031,765.065C581.341,765.529 581.496,766.105 581.496,766.792L581.496,768.545C581.496,769.232 581.341,769.808 581.031,770.272C580.72,770.735 580.117,770.967 579.22,770.967L575.341,770.967L575.341,764.369ZM579.703,769.244C579.799,769.048 579.829,768.812 579.829,768.545L579.829,766.792C579.829,766.524 579.799,766.288 579.703,766.093C579.602,766.074 579.385,766.036 579.22,766.036L577.008,766.036C577.008,766.036 577.008,769.301 577.008,769.301L579.22,769.301C579.385,769.301 579.602,769.263 579.703,769.244Z" style="fill:rgb(128,128,128);"/>
                        </g>
                        <path d="M446.944,690.473L439.375,690.473C436.79,690.473 434.871,689.568 433.62,687.758C432.369,685.949 431.743,683.162 431.743,679.398L431.743,662.515C431.743,658.751 432.369,655.955 433.62,654.127C434.871,652.299 436.79,651.386 439.375,651.386L446.944,651.386C447.337,651.386 447.621,651.539 447.797,651.847C447.973,652.155 448.061,652.652 448.061,653.34L448.061,659.909C448.061,660.596 447.973,661.094 447.797,661.402C447.621,661.709 447.337,661.863 446.944,661.863L440.709,661.863C440.068,661.863 439.592,662.089 439.282,662.542C438.972,662.994 438.816,663.673 438.816,664.577L438.816,677.498C438.816,678.403 438.972,679.063 439.282,679.479C439.592,679.896 440.068,680.104 440.709,680.104L446.944,680.104C447.337,680.104 447.621,680.258 447.797,680.565C447.973,680.873 448.061,681.37 448.061,682.058L448.061,688.518C448.061,689.206 447.973,689.704 447.797,690.011C447.621,690.319 447.337,690.473 446.944,690.473Z" style="fill-rule:nonzero;"/>
                        <path d="M446.944,692.228L439.375,692.228C436.498,692.228 434.377,691.127 432.985,689.113C431.525,687.002 430.744,683.788 430.744,679.398L430.744,662.515C430.744,658.129 431.523,654.907 432.981,652.778C434.374,650.742 436.496,649.63 439.375,649.63L446.944,649.63C447.672,649.63 448.177,650.034 448.503,650.604C448.83,651.176 449.06,652.061 449.06,653.34L449.06,659.909C449.06,661.187 448.83,662.073 448.503,662.645C448.177,663.215 447.672,663.618 446.944,663.618L440.709,663.618C440.36,663.618 440.089,663.646 439.92,663.892C439.82,664.038 439.816,664.285 439.816,664.577L439.816,677.498C439.816,677.751 439.802,677.968 439.889,678.085C440.065,678.321 440.345,678.349 440.709,678.349L446.944,678.349C447.672,678.349 448.177,678.752 448.503,679.322C448.83,679.894 449.06,680.78 449.06,682.058L449.06,688.518C449.06,689.797 448.83,690.683 448.503,691.255C448.177,691.825 447.672,692.228 446.944,692.228ZM446.944,690.473C447.337,690.473 447.621,690.319 447.797,690.011C447.973,689.704 448.061,689.206 448.061,688.518L448.061,682.058C448.061,681.37 447.973,680.873 447.797,680.565C447.621,680.258 447.337,680.104 446.944,680.104L440.709,680.104C440.068,680.104 439.592,679.896 439.282,679.479C438.972,679.063 438.816,678.403 438.816,677.498L438.816,664.577C438.816,663.673 438.972,662.994 439.282,662.542C439.592,662.089 440.068,661.863 440.709,661.863L446.944,661.863C447.337,661.863 447.621,661.709 447.797,661.402C447.973,661.094 448.061,660.596 448.061,659.909L448.061,653.34C448.061,652.652 447.973,652.155 447.797,651.847C447.621,651.539 447.337,651.386 446.944,651.386L439.375,651.386C436.79,651.386 434.871,652.299 433.62,654.127C432.369,655.955 431.743,658.751 431.743,662.515L431.743,679.398C431.743,683.162 432.369,685.949 433.62,687.758C434.871,689.568 436.79,690.473 439.375,690.473L446.944,690.473Z" style="fill:rgb(128,128,128);"/>
                        <path d="M457.491,690.473L452.683,690.473C452.29,690.473 452.006,690.319 451.83,690.011C451.654,689.704 451.566,689.206 451.566,688.518L451.566,653.34C451.566,652.652 451.654,652.155 451.83,651.847C452.006,651.539 452.29,651.386 452.683,651.386L457.491,651.386C457.884,651.386 458.169,651.539 458.345,651.847C458.52,652.155 458.608,652.652 458.608,653.34L458.608,665.12L463.789,665.12L463.789,653.34C463.789,652.652 463.877,652.155 464.052,651.847C464.228,651.539 464.513,651.386 464.906,651.386L469.714,651.386C470.107,651.386 470.391,651.539 470.567,651.847C470.743,652.155 470.831,652.652 470.831,653.34L470.831,688.518C470.831,689.206 470.743,689.704 470.567,690.011C470.391,690.319 470.107,690.473 469.714,690.473L464.906,690.473C464.513,690.473 464.228,690.319 464.052,690.011C463.877,689.704 463.789,689.206 463.789,688.518L463.789,676.466L458.608,676.466L458.608,688.518C458.608,689.206 458.52,689.704 458.345,690.011C458.169,690.319 457.884,690.473 457.491,690.473Z" style="fill-rule:nonzero;"/>
                        <path d="M457.491,692.228L452.683,692.228C451.955,692.228 451.45,691.825 451.124,691.255C450.797,690.683 450.567,689.797 450.567,688.518L450.567,653.34C450.567,652.061 450.797,651.176 451.124,650.604C451.45,650.034 451.955,649.63 452.683,649.63L457.491,649.63C458.22,649.63 458.724,650.034 459.05,650.604C459.377,651.176 459.608,652.061 459.608,653.34L459.608,663.365L462.789,663.365L462.789,653.34C462.789,652.061 463.02,651.176 463.347,650.604C463.673,650.034 464.177,649.63 464.906,649.63L469.714,649.63C470.442,649.63 470.947,650.034 471.273,650.604C471.6,651.176 471.83,652.061 471.83,653.34L471.83,688.518C471.83,689.797 471.6,690.683 471.273,691.255C470.947,691.825 470.442,692.228 469.714,692.228L464.906,692.228C464.177,692.228 463.673,691.825 463.347,691.255C463.02,690.683 462.789,689.797 462.789,688.518L462.789,678.222L459.608,678.222L459.608,688.518C459.608,689.797 459.377,690.683 459.05,691.255C458.724,691.825 458.22,692.228 457.491,692.228ZM457.491,690.473C457.884,690.473 458.169,690.319 458.345,690.011C458.52,689.704 458.608,689.206 458.608,688.518L458.608,676.466L463.789,676.466L463.789,688.518C463.789,689.206 463.877,689.704 464.052,690.011C464.228,690.319 464.513,690.473 464.906,690.473L469.714,690.473C470.107,690.473 470.391,690.319 470.567,690.011C470.743,689.704 470.831,689.206 470.831,688.518L470.831,653.34C470.831,652.652 470.743,652.155 470.567,651.847C470.391,651.539 470.107,651.386 469.714,651.386L464.906,651.386C464.513,651.386 464.228,651.539 464.052,651.847C463.877,652.155 463.789,652.652 463.789,653.34L463.789,665.12L458.608,665.12L458.608,653.34C458.608,652.652 458.52,652.155 458.345,651.847C458.169,651.539 457.884,651.386 457.491,651.386L452.683,651.386C452.29,651.386 452.006,651.539 451.83,651.847C451.654,652.155 451.566,652.652 451.566,653.34L451.566,688.518C451.566,689.206 451.654,689.704 451.83,690.011C452.006,690.319 452.29,690.473 452.683,690.473L457.491,690.473Z" style="fill:rgb(128,128,128);"/>
                    </g>
                </g>
            </g>
        </g>
    </g>
</svg>
