<?xml version="1.0" encoding="UTF-8" standalone="no"?><!DOCTYPE svg PUBLIC "-//W3C//DTD SVG 1.1//EN" "http://www.w3.org/Graphics/SVG/1.1/DTD/svg11.dtd"><svg width="100%" height="100%" viewBox="0 0 107 107" version="1.1" xmlns="http://www.w3.org/2000/svg" xmlns:xlink="http://www.w3.org/1999/xlink" xml:space="preserve" xmlns:serif="http://www.serif.com/" style="fill-rule:evenodd;clip-rule:evenodd;stroke-linecap:round;stroke-linejoin:round;stroke-miterlimit:1.5;"><g><circle cx="53.125" cy="53.125" r="50" style="fill:#fff;stroke:#000;stroke-width:6.25px;"/><g><path d="M69.059,77.779l-37.971,-24.654l37.971,-24.654" style="fill:none;stroke:#000;stroke-width:10.42px;"/><circle cx="69.059" cy="28.471" r="11.327"/><circle cx="69.059" cy="77.779" r="11.327"/><circle cx="31.088" cy="53.125" r="11.327"/><path d="M31.088,37.631c-8.552,0 -15.494,6.943 -15.494,15.494c-0,8.551 6.942,15.494 15.494,15.494c8.551,-0 15.493,-6.943 15.493,-15.494c0,-8.551 -6.942,-15.494 -15.493,-15.494Zm-0,4.167c6.251,0 11.327,5.075 11.327,11.327c-0,6.252 -5.076,11.327 -11.327,11.327c-6.252,-0 -11.327,-5.075 -11.327,-11.327c-0,-6.252 5.075,-11.327 11.327,-11.327Z" style="fill:#fff;"/></g></g></svg>