<?xml version="1.0" encoding="UTF-8" standalone="no"?><!DOCTYPE svg PUBLIC "-//W3C//DTD SVG 1.1//EN" "http://www.w3.org/Graphics/SVG/1.1/DTD/svg11.dtd"><svg width="100%" height="100%" viewBox="0 0 332 82" version="1.1" xmlns="http://www.w3.org/2000/svg" xmlns:xlink="http://www.w3.org/1999/xlink" xml:space="preserve" xmlns:serif="http://www.serif.com/" style="fill-rule:evenodd;clip-rule:evenodd;stroke-linejoin:round;stroke-miterlimit:2;"><g><path d="M331.047,20.281c0,-11.193 -9.088,-20.281 -20.281,-20.281l-290.485,0c-11.193,0 -20.281,9.088 -20.281,20.281l-0,40.562c-0,11.194 9.088,20.282 20.281,20.282l290.485,-0c11.193,-0 20.281,-9.088 20.281,-20.282l0,-40.562Z" style="fill:#fff;"/><g><g transform="matrix(1,0,0,1,-247.282,-448.319)"><text x="288.6px" y="507.439px" style="font-family:'Bungee-Regular', 'Bungee';font-size:51.548px;">SIGNAGE</text><path d="M306.222,496.029l-13.138,0c-1.213,0 -2.053,0.384 -2.596,0.927c-0.542,0.542 -0.926,1.383 -0.926,2.596l0,6.031c0,1.213 0.384,2.053 0.926,2.596c0.543,0.543 1.383,0.926 2.596,0.926l16.29,0c3.752,0 6.697,-0.944 8.866,-2.723c2.279,-1.868 3.471,-4.525 3.471,-8.016l-0,-5.412c-0,-3.504 -1.02,-5.962 -2.813,-7.464c-1.693,-1.417 -3.905,-2.35 -6.66,-2.743l-6.782,-0.911l10.877,0c1.213,0 2.053,-0.383 2.596,-0.926c0.543,-0.543 0.926,-1.383 0.926,-2.596c0,-0 0,-6.134 0,-6.134c0,-1.213 -0.383,-2.054 -0.926,-2.596c-0.543,-0.543 -1.383,-0.927 -2.596,-0.927c-0,0 -14.434,0 -14.434,0c-3.793,0 -6.747,0.949 -8.897,2.728c-2.258,1.868 -3.44,4.523 -3.44,8.011l0,5.413c0,3.501 1.009,5.957 2.78,7.458c1.676,1.419 3.881,2.355 6.641,2.749l7.239,1.013Zm3.152,11.41l-16.29,-0c-0.652,-0 -1.125,-0.146 -1.417,-0.438c-0.292,-0.292 -0.438,-0.765 -0.438,-1.418l-0,-6.031c-0,-0.653 0.146,-1.126 0.438,-1.418c0.292,-0.292 0.765,-0.438 1.417,-0.438l13.867,0c0.447,0 0.782,-0.146 1.005,-0.438c0.224,-0.292 0.335,-0.644 0.335,-1.057c0,-0.584 -0.111,-1.014 -0.335,-1.288c-0.223,-0.275 -0.558,-0.43 -1.005,-0.464l-7.732,-1.083c-2.406,-0.344 -4.339,-1.134 -5.799,-2.371c-1.461,-1.237 -2.191,-3.299 -2.191,-6.186l-0,-5.413c-0,-2.921 0.945,-5.163 2.835,-6.727c1.89,-1.563 4.502,-2.345 7.835,-2.345l14.434,-0c0.653,-0 1.125,0.146 1.417,0.438c0.293,0.292 0.439,0.765 0.439,1.418l-0,6.134c-0,0.653 -0.146,1.125 -0.439,1.417c-0.292,0.293 -0.764,0.439 -1.417,0.439l-12.011,-0c-0.447,-0 -0.79,0.146 -1.031,0.438c-0.24,0.292 -0.361,0.661 -0.361,1.108c0,0.447 0.121,0.825 0.361,1.134c0.241,0.309 0.584,0.481 1.031,0.516l7.681,1.031c2.405,0.343 4.347,1.134 5.825,2.371c1.477,1.237 2.216,3.299 2.216,6.186l0,5.412c0,2.921 -0.953,5.164 -2.861,6.727c-1.907,1.564 -4.51,2.346 -7.809,2.346Z" style="fill:#808080;"/><path d="M326.694,509.105l21.96,0c1.213,0 2.053,-0.383 2.596,-0.926c0.542,-0.543 0.926,-1.383 0.926,-2.596l0,-6.134c0,-1.213 -0.384,-2.054 -0.926,-2.596c-0.543,-0.543 -1.383,-0.927 -2.596,-0.927l-3.334,0c0,0 0,-13.987 0,-13.987c0,0 3.334,0 3.334,0c1.213,0 2.053,-0.383 2.596,-0.926c0.542,-0.543 0.926,-1.383 0.926,-2.596l0,-6.237c0,-1.213 -0.384,-2.054 -0.926,-2.596c-0.543,-0.543 -1.383,-0.927 -2.596,-0.927c-0,0 -21.96,0 -21.96,0c-1.213,0 -2.053,0.384 -2.596,0.927c-0.543,0.542 -0.926,1.383 -0.926,2.596l-0,6.237c-0,1.213 0.383,2.053 0.926,2.596c0.543,0.543 1.383,0.926 2.596,0.926l3.437,0c-0,0 -0,13.987 -0,13.987c-0,0 -3.437,0 -3.437,0c-1.213,0 -2.053,0.384 -2.596,0.927c-0.543,0.542 -0.926,1.383 -0.926,2.596l-0,6.134c-0,1.213 0.383,2.053 0.926,2.596c0.543,0.543 1.383,0.926 2.596,0.926Zm0,-1.666c-0.653,-0 -1.125,-0.146 -1.418,-0.438c-0.292,-0.292 -0.438,-0.765 -0.438,-1.418l0,-6.134c0,-0.653 0.146,-1.126 0.438,-1.418c0.293,-0.292 0.765,-0.438 1.418,-0.438l5.103,0l0,-17.32l-5.103,-0c-0.653,-0 -1.125,-0.146 -1.418,-0.438c-0.292,-0.293 -0.438,-0.765 -0.438,-1.418l0,-6.237c0,-0.653 0.146,-1.126 0.438,-1.418c0.293,-0.292 0.765,-0.438 1.418,-0.438l21.96,-0c0.653,-0 1.125,0.146 1.417,0.438c0.292,0.292 0.438,0.765 0.438,1.418l0,6.237c0,0.653 -0.146,1.125 -0.438,1.418c-0.292,0.292 -0.764,0.438 -1.417,0.438l-5,-0l-0,17.32l5,0c0.653,0 1.125,0.146 1.417,0.438c0.292,0.292 0.438,0.765 0.438,1.418l0,6.134c0,0.653 -0.146,1.126 -0.438,1.418c-0.292,0.292 -0.764,0.438 -1.417,0.438l-21.96,-0Z" style="fill:#808080;"/><path d="M385.202,509.105c1.213,0 2.053,-0.383 2.596,-0.926c0.542,-0.543 0.926,-1.383 0.926,-2.596l-0,-15.928c-0,-1.213 -0.384,-2.054 -0.926,-2.597c-0.543,-0.542 -1.383,-0.926 -2.596,-0.926l-7.99,0c-1.213,0 -2.054,0.384 -2.597,0.926c-0.542,0.543 -0.926,1.384 -0.926,2.597l0,6.374c0,0 -3.333,0 -3.333,0c-0.246,0 -0.453,0.023 -0.575,-0.105c-0.152,-0.158 -0.13,-0.425 -0.13,-0.754c0,0 0,-12.32 0,-12.32c0,-0.279 0.006,-0.513 0.174,-0.653c0.279,-0.232 0.727,-0.258 1.304,-0.258l10.722,0c1.213,0 2.053,-0.383 2.596,-0.926c0.543,-0.543 0.926,-1.383 0.926,-2.596c0,0 0,-6.237 0,-6.237c0,-1.213 -0.383,-2.054 -0.926,-2.596c-0.543,-0.543 -1.383,-0.927 -2.596,-0.927c-0,0 -12.887,0 -12.887,0c-4.784,0 -8.309,1.046 -10.624,2.96c-2.425,2.003 -3.724,5.055 -3.724,9.223l0,16.083c0,4.168 1.299,7.219 3.724,9.223c2.315,1.914 5.84,2.959 10.624,2.959l16.238,0Zm-0,-1.666l-16.238,-0c-4.296,-0 -7.483,-0.859 -9.562,-2.578c-2.08,-1.718 -3.119,-4.364 -3.119,-7.938l-0,-16.083c-0,-3.574 1.039,-6.22 3.119,-7.939c2.079,-1.718 5.266,-2.577 9.562,-2.577l12.887,-0c0.653,-0 1.125,0.146 1.418,0.438c0.292,0.292 0.438,0.765 0.438,1.418l-0,6.237c-0,0.653 -0.146,1.125 -0.438,1.418c-0.293,0.292 -0.765,0.438 -1.418,0.438l-10.722,-0c-1.065,-0 -1.856,0.215 -2.371,0.644c-0.516,0.43 -0.774,1.074 -0.774,1.933l0,12.32c0,0.859 0.198,1.495 0.593,1.908c0.395,0.412 0.988,0.618 1.779,0.618l5,0l-0,-8.041c-0,-0.653 0.146,-1.126 0.438,-1.418c0.292,-0.292 0.765,-0.438 1.418,-0.438l7.99,-0c0.653,-0 1.125,0.146 1.417,0.438c0.292,0.292 0.438,0.765 0.438,1.418l0,15.928c0,0.653 -0.146,1.126 -0.438,1.418c-0.292,0.292 -0.764,0.438 -1.417,0.438Z" style="fill:#808080;"/><path d="M402.934,509.105c1.213,0 2.054,-0.383 2.596,-0.926c0.543,-0.543 0.927,-1.383 0.927,-2.596l-0,-12.376c-0,-0 5.481,6.635 5.481,6.635c0,-0 0,5.741 0,5.741c0,1.213 0.384,2.053 0.926,2.596c0.543,0.543 1.384,0.926 2.597,0.926l7.732,0c1.213,0 2.053,-0.383 2.596,-0.926c0.543,-0.543 0.926,-1.383 0.926,-2.596l0,-33.403c0,-1.213 -0.383,-2.054 -0.926,-2.596c-0.543,-0.543 -1.383,-0.927 -2.596,-0.927c-0,0 -7.732,0 -7.732,0c-1.213,0 -2.054,0.384 -2.597,0.927c-0.542,0.542 -0.926,1.383 -0.926,2.596c0,-0 0,6.539 0,6.539c0,0 -7.079,-8.1 -7.079,-8.1c-0.628,-0.725 -1.287,-1.217 -1.944,-1.509c-0.652,-0.29 -1.434,-0.453 -2.352,-0.453c0,0 -5.361,0 -5.361,0c-1.213,0 -2.053,0.384 -2.596,0.927c-0.543,0.542 -0.926,1.383 -0.926,2.596c-0,-0 -0,33.403 -0,33.403c-0,1.213 0.383,2.053 0.926,2.596c0.543,0.543 1.383,0.926 2.596,0.926l7.732,0Zm0,-1.666l-7.732,-0c-0.653,-0 -1.126,-0.146 -1.418,-0.438c-0.292,-0.292 -0.438,-0.765 -0.438,-1.418l0,-33.403c0,-0.653 0.146,-1.126 0.438,-1.418c0.292,-0.292 0.765,-0.438 1.418,-0.438l5.361,-0c0.653,-0 1.211,0.103 1.675,0.309c0.464,0.206 0.92,0.567 1.366,1.083l10.001,11.443l-0,-10.979c-0,-0.653 0.146,-1.126 0.438,-1.418c0.292,-0.292 0.765,-0.438 1.418,-0.438l7.732,-0c0.653,-0 1.125,0.146 1.417,0.438c0.292,0.292 0.439,0.765 0.439,1.418l-0,33.403c-0,0.653 -0.147,1.126 -0.439,1.418c-0.292,0.292 -0.764,0.438 -1.417,0.438l-7.732,-0c-0.653,-0 -1.126,-0.146 -1.418,-0.438c-0.292,-0.292 -0.438,-0.765 -0.438,-1.418l-0,-6.34l-8.815,-10.671l-0,17.011c-0,0.653 -0.146,1.126 -0.438,1.418c-0.292,0.292 -0.765,0.438 -1.418,0.438Z" style="fill:#808080;"/><path d="M444.345,505.583l-0,-5.55c-0,-0 5.79,-0 5.79,-0c0.001,-0 0.001,5.55 0.001,5.55c-0,1.244 0.423,2.103 1.045,2.66c0.571,0.511 1.429,0.862 2.632,0.862l7.783,0c1.213,0 2.054,-0.383 2.596,-0.926c0.543,-0.543 0.927,-1.383 0.927,-2.596l-0,-13.609c-0,-1.145 -0.175,-2.462 -0.537,-3.951c-0.341,-1.398 -0.868,-3.03 -1.585,-4.895c0.001,0.002 -4.477,-11.683 -4.477,-11.683c-0.347,-0.966 -0.905,-1.656 -1.618,-2.112c-0.67,-0.429 -1.505,-0.676 -2.522,-0.676c-0,0 -13.867,0 -13.867,0c-1.06,0 -1.911,0.252 -2.574,0.676c-0.717,0.458 -1.277,1.153 -1.623,2.126c0.005,-0.014 -4.473,11.671 -4.473,11.671c-0.716,1.863 -1.243,3.495 -1.584,4.893c-0.362,1.489 -0.537,2.806 -0.537,3.951l0,13.609c0,1.213 0.384,2.053 0.927,2.596c0.542,0.543 1.383,0.926 2.596,0.926l7.577,0c1.213,0 2.054,-0.383 2.596,-0.926c0.543,-0.543 0.927,-1.383 0.927,-2.596Zm-1.667,0c0,0.653 -0.146,1.126 -0.438,1.418c-0.292,0.292 -0.765,0.438 -1.418,0.438l-7.577,-0c-0.653,-0 -1.126,-0.146 -1.418,-0.438c-0.292,-0.292 -0.438,-0.765 -0.438,-1.418l-0,-13.609c-0,-1.031 0.163,-2.216 0.49,-3.557c0.326,-1.34 0.833,-2.903 1.52,-4.69l4.485,-11.702c0.206,-0.584 0.524,-1.014 0.954,-1.289c0.429,-0.275 0.988,-0.412 1.675,-0.412l13.867,-0c0.653,-0 1.194,0.137 1.623,0.412c0.43,0.275 0.748,0.705 0.954,1.289l4.485,11.702c0.687,1.787 1.194,3.35 1.52,4.69c0.327,1.341 0.49,2.526 0.49,3.557l0,13.609c0,0.653 -0.146,1.126 -0.438,1.418c-0.292,0.292 -0.765,0.438 -1.418,0.438l-7.783,-0c-0.688,-0 -1.195,-0.146 -1.521,-0.438c-0.327,-0.292 -0.49,-0.765 -0.49,-1.418l0,-7.217l-9.124,0l0,7.217Zm2.938,-24.434l-2.422,7.835l8.093,0l-2.423,-7.835c-0.138,-0.309 -0.284,-0.533 -0.438,-0.67c-0.155,-0.138 -0.335,-0.206 -0.542,-0.206l-1.288,-0c-0.206,-0 -0.387,0.068 -0.541,0.206c-0.155,0.137 -0.301,0.361 -0.439,0.67Zm1.747,0.79l1.664,5.379c-0,-0 -3.574,-0 -3.574,-0l1.664,-5.379l0.246,0Z" style="fill:#808080;"/><path d="M498.144,509.105c1.213,0 2.054,-0.383 2.596,-0.926c0.543,-0.543 0.927,-1.383 0.927,-2.596c-0,0 -0,-15.928 -0,-15.928c-0,-1.213 -0.384,-2.054 -0.927,-2.597c-0.542,-0.542 -1.383,-0.926 -2.596,-0.926l-7.99,0c-1.213,0 -2.053,0.384 -2.596,0.926c-0.543,0.543 -0.926,1.384 -0.926,2.597l-0,6.374c-0,0 -3.334,0 -3.334,0c-0.245,0 -0.452,0.023 -0.575,-0.105c-0.151,-0.158 -0.129,-0.425 -0.129,-0.754l-0,-12.32c-0,-0.279 0.006,-0.513 0.173,-0.653c0.279,-0.232 0.728,-0.258 1.305,-0.258l10.722,0c1.213,0 2.053,-0.383 2.596,-0.926c0.542,-0.543 0.926,-1.383 0.926,-2.596l0,-6.237c0,-1.213 -0.384,-2.054 -0.926,-2.596c-0.543,-0.543 -1.383,-0.927 -2.596,-0.927c-0,0 -12.888,0 -12.888,0c-4.783,0 -8.308,1.046 -10.624,2.96c-2.424,2.003 -3.723,5.055 -3.723,9.223l-0,16.083c-0,4.168 1.299,7.219 3.723,9.223c2.316,1.914 5.841,2.959 10.624,2.959l16.238,0Zm0,-1.666l-16.238,-0c-4.295,-0 -7.483,-0.859 -9.562,-2.578c-2.079,-1.718 -3.118,-4.364 -3.118,-7.938l-0,-16.083c-0,-3.574 1.039,-6.22 3.118,-7.939c2.079,-1.718 5.267,-2.577 9.562,-2.577l12.888,-0c0.653,-0 1.125,0.146 1.417,0.438c0.292,0.292 0.438,0.765 0.438,1.418l0,6.237c0,0.653 -0.146,1.125 -0.438,1.418c-0.292,0.292 -0.764,0.438 -1.417,0.438l-10.722,-0c-1.066,-0 -1.856,0.215 -2.372,0.644c-0.515,0.43 -0.773,1.074 -0.773,1.933l0,12.32c0,0.859 0.198,1.495 0.593,1.908c0.395,0.412 0.988,0.618 1.778,0.618l5,0l0,-8.041c0,-0.653 0.147,-1.126 0.439,-1.418c0.292,-0.292 0.764,-0.438 1.417,-0.438l7.99,-0c0.653,-0 1.126,0.146 1.418,0.438c0.292,0.292 0.438,0.765 0.438,1.418l-0,15.928c-0,0.653 -0.146,1.126 -0.438,1.418c-0.292,0.292 -0.765,0.438 -1.418,0.438Z" style="fill:#808080;"/><path d="M532.063,509.105c1.213,0 2.054,-0.383 2.596,-0.926c0.543,-0.543 0.927,-1.383 0.927,-2.596c-0,0 -0,-6.031 -0,-6.031c-0,-1.213 -0.384,-2.054 -0.927,-2.596c-0.542,-0.543 -1.383,-0.927 -2.596,-0.927l-12.561,0c0,0 0,-1.099 0,-1.099c0,-0 8.386,-0 8.386,-0c1.213,-0 2.053,-0.384 2.596,-0.927c0.542,-0.542 0.926,-1.383 0.926,-2.596c0,0 0,-5.515 0,-5.515c0,-1.213 -0.384,-2.054 -0.926,-2.597c-0.543,-0.542 -1.383,-0.926 -2.596,-0.926l-8.386,0c0,0 0,-0.636 0,-0.636c0,0 12.561,0 12.561,0c1.213,0 2.054,-0.383 2.596,-0.926c0.543,-0.543 0.927,-1.383 0.927,-2.596c-0,-0 -0,-6.031 -0,-6.031c-0,-1.213 -0.384,-2.054 -0.927,-2.596c-0.542,-0.543 -1.383,-0.927 -2.596,-0.927c0,0 -23.918,0 -23.918,0c-1.213,0 -2.054,0.384 -2.596,0.927c-0.543,0.542 -0.927,1.383 -0.927,2.596c0,-0 0,33.403 0,33.403c0,1.213 0.384,2.053 0.927,2.596c0.542,0.543 1.383,0.926 2.596,0.926l23.918,0Zm0,-1.666l-23.918,-0c-0.653,-0 -1.126,-0.146 -1.418,-0.438c-0.292,-0.292 -0.438,-0.765 -0.438,-1.418l-0,-33.403c-0,-0.653 0.146,-1.126 0.438,-1.418c0.292,-0.292 0.765,-0.438 1.418,-0.438l23.918,-0c0.653,-0 1.126,0.146 1.418,0.438c0.292,0.292 0.438,0.765 0.438,1.418l-0,6.031c-0,0.653 -0.146,1.125 -0.438,1.417c-0.292,0.293 -0.765,0.439 -1.418,0.439l-14.227,-0l-0,3.969l10.052,-0c0.653,-0 1.125,0.146 1.417,0.438c0.292,0.292 0.438,0.765 0.438,1.418l0,5.515c0,0.653 -0.146,1.126 -0.438,1.418c-0.292,0.292 -0.764,0.438 -1.417,0.438l-10.052,-0l-0,4.433l14.227,0c0.653,0 1.126,0.146 1.418,0.438c0.292,0.292 0.438,0.765 0.438,1.418l-0,6.031c-0,0.653 -0.146,1.126 -0.438,1.418c-0.292,0.292 -0.765,0.438 -1.418,0.438Z" style="fill:#808080;"/></g></g></g></svg>