<?xml version="1.0" encoding="UTF-8" standalone="no"?>
<!DOCTYPE svg PUBLIC "-//W3C//DTD SVG 1.1//EN" "http://www.w3.org/Graphics/SVG/1.1/DTD/svg11.dtd">
<svg width="100%" height="100%" viewBox="0 0 268 42" version="1.1" xmlns="http://www.w3.org/2000/svg" xmlns:xlink="http://www.w3.org/1999/xlink" xml:space="preserve" xmlns:serif="http://www.serif.com/" style="fill-rule:evenodd;clip-rule:evenodd;stroke-linejoin:round;stroke-miterlimit:2;">
    <g transform="matrix(1,0,0,1,-365.493,-431.964)">
        <g>
            <path d="M384.899,471.169L367.478,471.169C366.779,471.169 366.274,471.017 365.962,470.714C365.649,470.411 365.493,469.92 365.493,469.242L365.493,462.98C365.493,462.302 365.649,461.811 365.962,461.508C366.274,461.205 366.779,461.053 367.478,461.053L382.308,461.053C382.786,461.053 383.144,460.901 383.383,460.598C383.622,460.295 383.741,459.929 383.741,459.501C383.741,458.894 383.622,458.448 383.383,458.163C383.144,457.877 382.786,457.716 382.308,457.681L374.038,456.557C371.466,456.2 369.398,455.379 367.836,454.095C366.274,452.81 365.493,450.669 365.493,447.672L365.493,442.051C365.493,439.018 366.504,436.69 368.525,435.066C370.547,433.443 373.34,432.631 376.905,432.631L392.342,432.631C393.04,432.631 393.545,432.783 393.858,433.086C394.17,433.389 394.326,433.88 394.326,434.558L394.326,440.927C394.326,441.605 394.17,442.096 393.858,442.399C393.545,442.703 393.04,442.854 392.342,442.854L379.496,442.854C379.018,442.854 378.651,443.006 378.394,443.309C378.136,443.613 378.008,443.996 378.008,444.46C378.008,444.924 378.136,445.316 378.394,445.638C378.651,445.959 379.018,446.137 379.496,446.173L387.711,447.243C390.283,447.6 392.36,448.421 393.94,449.706C395.521,450.99 396.311,453.131 396.311,456.129L396.311,461.749C396.311,464.782 395.291,467.11 393.251,468.734C391.212,470.357 388.427,471.169 384.899,471.169ZM403.423,471.169C402.725,471.169 402.219,471.017 401.907,470.714C401.594,470.411 401.438,469.92 401.438,469.242L401.438,462.873C401.438,462.195 401.594,461.704 401.907,461.401C402.219,461.097 402.725,460.946 403.423,460.946L408.881,460.946L408.881,442.961L403.423,442.961C402.725,442.961 402.219,442.81 401.907,442.506C401.594,442.203 401.438,441.712 401.438,441.034L401.438,434.558C401.438,433.88 401.594,433.389 401.907,433.086C402.219,432.783 402.725,432.631 403.423,432.631L426.909,432.631C427.607,432.631 428.112,432.783 428.425,433.086C428.737,433.389 428.893,433.88 428.893,434.558L428.893,441.034C428.893,441.712 428.737,442.203 428.425,442.506C428.112,442.81 427.607,442.961 426.909,442.961L421.561,442.961L421.561,460.946L426.909,460.946C427.607,460.946 428.112,461.097 428.425,461.401C428.737,461.704 428.893,462.195 428.893,462.873L428.893,469.242C428.893,469.92 428.737,470.411 428.425,470.714C428.112,471.017 427.607,471.169 426.909,471.169L403.423,471.169ZM465.996,471.169L448.63,471.169C444.036,471.169 440.627,470.277 438.403,468.493C436.18,466.709 435.068,463.961 435.068,460.25L435.068,443.55C435.068,439.839 436.18,437.091 438.403,435.307C440.627,433.523 444.036,432.631 448.63,432.631L462.413,432.631C463.111,432.631 463.616,432.783 463.929,433.086C464.241,433.389 464.397,433.88 464.397,434.558L464.397,441.034C464.397,441.712 464.241,442.203 463.929,442.506C463.616,442.81 463.111,442.961 462.413,442.961L450.946,442.961C449.806,442.961 448.961,443.184 448.41,443.63C447.858,444.076 447.583,444.746 447.583,445.638L447.583,458.43C447.583,459.322 447.794,459.982 448.217,460.411C448.639,460.839 449.273,461.053 450.119,461.053L455.466,461.053L455.466,452.703C455.466,452.025 455.622,451.534 455.935,451.231C456.247,450.928 456.753,450.776 457.451,450.776L465.996,450.776C466.695,450.776 467.2,450.928 467.512,451.231C467.825,451.534 467.981,452.025 467.981,452.703L467.981,469.242C467.981,469.92 467.825,470.411 467.512,470.714C467.2,471.017 466.695,471.169 465.996,471.169ZM484.961,471.169L476.692,471.169C475.993,471.169 475.488,471.017 475.175,470.714C474.863,470.411 474.707,469.92 474.707,469.242L474.707,434.558C474.707,433.88 474.863,433.389 475.175,433.086C475.488,432.783 475.993,432.631 476.692,432.631L482.425,432.631C483.123,432.631 483.721,432.738 484.217,432.952C484.713,433.166 485.2,433.541 485.678,434.076L496.373,445.959L496.373,434.558C496.373,433.88 496.529,433.389 496.842,433.086C497.154,432.783 497.66,432.631 498.358,432.631L506.627,432.631C507.326,432.631 507.831,432.783 508.144,433.086C508.456,433.389 508.612,433.88 508.612,434.558L508.612,469.242C508.612,469.92 508.456,470.411 508.144,470.714C507.831,471.017 507.326,471.169 506.627,471.169L498.358,471.169C497.66,471.169 497.154,471.017 496.842,470.714C496.529,470.411 496.373,469.92 496.373,469.242L496.373,462.659L486.946,451.579L486.946,469.242C486.946,469.92 486.79,470.411 486.477,470.714C486.165,471.017 485.659,471.169 484.961,471.169ZM527.467,469.242C527.467,469.92 527.311,470.411 526.998,470.714C526.686,471.017 526.18,471.169 525.482,471.169L517.378,471.169C516.68,471.169 516.174,471.017 515.862,470.714C515.549,470.411 515.393,469.92 515.393,469.242L515.393,455.112C515.393,454.041 515.568,452.81 515.917,451.418C516.266,450.027 516.808,448.403 517.543,446.548L522.34,434.397C522.56,433.791 522.9,433.345 523.36,433.059C523.819,432.774 524.416,432.631 525.151,432.631L539.982,432.631C540.68,432.631 541.259,432.774 541.718,433.059C542.178,433.345 542.518,433.791 542.738,434.397L547.534,446.548C548.269,448.403 548.812,450.027 549.161,451.418C549.51,452.81 549.685,454.041 549.685,455.112L549.685,469.242C549.685,469.92 549.528,470.411 549.216,470.714C548.903,471.017 548.398,471.169 547.7,471.169L539.375,471.169C538.64,471.169 538.098,471.017 537.749,470.714C537.4,470.411 537.225,469.92 537.225,469.242L537.225,461.749L527.467,461.749L527.467,469.242ZM530.609,443.871L528.018,452.007L536.674,452.007L534.083,443.871C533.936,443.55 533.779,443.318 533.614,443.175C533.449,443.033 533.256,442.961 533.035,442.961L531.657,442.961C531.436,442.961 531.243,443.033 531.078,443.175C530.913,443.318 530.756,443.55 530.609,443.871ZM586.787,471.169L569.421,471.169C564.827,471.169 561.418,470.277 559.195,468.493C556.971,466.709 555.859,463.961 555.859,460.25L555.859,443.55C555.859,439.839 556.971,437.091 559.195,435.307C561.418,433.523 564.827,432.631 569.421,432.631L583.204,432.631C583.902,432.631 584.408,432.783 584.72,433.086C585.032,433.389 585.189,433.88 585.189,434.558L585.189,441.034C585.189,441.712 585.032,442.203 584.72,442.506C584.408,442.81 583.902,442.961 583.204,442.961L571.737,442.961C570.597,442.961 569.752,443.184 569.201,443.63C568.649,444.076 568.374,444.746 568.374,445.638L568.374,458.43C568.374,459.322 568.585,459.982 569.008,460.411C569.43,460.839 570.064,461.053 570.91,461.053L576.257,461.053L576.257,452.703C576.257,452.025 576.414,451.534 576.726,451.231C577.038,450.928 577.544,450.776 578.242,450.776L586.787,450.776C587.486,450.776 587.991,450.928 588.304,451.231C588.616,451.534 588.772,452.025 588.772,452.703L588.772,469.242C588.772,469.92 588.616,470.411 588.304,470.714C587.991,471.017 587.486,471.169 586.787,471.169ZM623.063,471.169L597.483,471.169C596.784,471.169 596.279,471.017 595.967,470.714C595.654,470.411 595.498,469.92 595.498,469.242L595.498,434.558C595.498,433.88 595.654,433.389 595.967,433.086C596.279,432.783 596.784,432.631 597.483,432.631L623.063,432.631C623.762,432.631 624.267,432.783 624.579,433.086C624.892,433.389 625.048,433.88 625.048,434.558L625.048,440.82C625.048,441.498 624.892,441.989 624.579,442.292C624.267,442.596 623.762,442.747 623.063,442.747L607.847,442.747L607.847,446.869L618.598,446.869C619.296,446.869 619.801,447.02 620.114,447.324C620.426,447.627 620.582,448.118 620.582,448.796L620.582,454.523C620.582,455.201 620.426,455.691 620.114,455.995C619.801,456.298 619.296,456.45 618.598,456.45L607.847,456.45L607.847,461.053L623.063,461.053C623.762,461.053 624.267,461.205 624.579,461.508C624.892,461.811 625.048,462.302 625.048,462.98L625.048,469.242C625.048,469.92 624.892,470.411 624.579,470.714C624.267,471.017 623.762,471.169 623.063,471.169Z" style="fill:rgb(255,0,0);"/>
            <path d="M390.899,472.169L373.478,472.169C372.779,472.169 372.274,472.017 371.962,471.714C371.649,471.411 371.493,470.92 371.493,470.242L371.493,463.98C371.493,463.302 371.649,462.811 371.962,462.508C372.274,462.205 372.779,462.053 373.478,462.053L388.308,462.053C388.786,462.053 389.144,461.901 389.383,461.598C389.622,461.295 389.741,460.929 389.741,460.501C389.741,459.894 389.622,459.448 389.383,459.163C389.144,458.877 388.786,458.716 388.308,458.681L380.038,457.557C377.466,457.2 375.398,456.379 373.836,455.095C372.274,453.81 371.493,451.669 371.493,448.672L371.493,443.051C371.493,440.018 372.504,437.69 374.525,436.066C376.547,434.443 379.34,433.631 382.905,433.631L398.342,433.631C399.04,433.631 399.545,433.783 399.858,434.086C400.17,434.389 400.326,434.88 400.326,435.558L400.326,441.927C400.326,442.605 400.17,443.096 399.858,443.399C399.545,443.703 399.04,443.854 398.342,443.854L385.496,443.854C385.018,443.854 384.651,444.006 384.394,444.309C384.136,444.613 384.008,444.996 384.008,445.46C384.008,445.924 384.136,446.316 384.394,446.638C384.651,446.959 385.018,447.137 385.496,447.173L393.711,448.243C396.283,448.6 398.36,449.421 399.94,450.706C401.521,451.99 402.311,454.131 402.311,457.129L402.311,462.749C402.311,465.782 401.291,468.11 399.251,469.734C397.212,471.357 394.427,472.169 390.899,472.169Z" style="fill:white;"/>
            <path d="M385.712,445.521L393.926,446.591C393.931,446.591 393.935,446.592 393.94,446.593C396.857,446.997 399.2,447.956 400.992,449.412C402.902,450.965 403.978,453.506 403.978,457.129L403.978,462.749C403.978,466.357 402.716,469.106 400.289,471.038C397.992,472.866 394.873,473.836 390.899,473.836L373.478,473.836C372.228,473.836 371.36,473.453 370.801,472.91C370.226,472.352 369.826,471.489 369.826,470.242L369.826,463.98C369.826,462.733 370.226,461.87 370.801,461.312C371.36,460.769 372.228,460.386 373.478,460.386L388.069,460.386C388.068,460.367 388.066,460.348 388.064,460.33L379.814,459.208L379.809,459.208C376.888,458.802 374.551,457.841 372.777,456.382C370.891,454.831 369.826,452.291 369.826,448.672L369.826,443.051C369.826,439.445 371.078,436.698 373.482,434.767C375.759,432.938 378.889,431.964 382.905,431.964L398.342,431.964C399.591,431.964 400.46,432.347 401.019,432.89C401.593,433.448 401.993,434.311 401.993,435.558L401.993,441.927C401.993,443.174 401.593,444.038 401.019,444.595C400.46,445.138 399.591,445.521 398.342,445.521L385.712,445.521ZM390.899,472.169C394.427,472.169 397.212,471.357 399.251,469.734C401.291,468.11 402.311,465.782 402.311,462.749L402.311,457.129C402.311,454.131 401.521,451.99 399.94,450.706C398.36,449.421 396.283,448.6 393.711,448.243L385.496,447.173C385.018,447.137 384.651,446.959 384.394,446.638C384.136,446.316 384.008,445.924 384.008,445.46C384.008,444.996 384.136,444.613 384.394,444.309C384.651,444.006 385.018,443.854 385.496,443.854L398.342,443.854C399.04,443.854 399.545,443.703 399.858,443.399C400.17,443.096 400.326,442.605 400.326,441.927L400.326,435.558C400.326,434.88 400.17,434.389 399.858,434.086C399.545,433.783 399.04,433.631 398.342,433.631L382.905,433.631C379.34,433.631 376.547,434.443 374.525,436.066C372.504,437.69 371.493,440.018 371.493,443.051L371.493,448.672C371.493,451.669 372.274,453.81 373.836,455.095C375.398,456.379 377.466,457.2 380.038,457.557L388.308,458.681C388.786,458.716 389.144,458.877 389.383,459.163C389.622,459.448 389.741,459.894 389.741,460.501C389.741,460.929 389.622,461.295 389.383,461.598C389.144,461.901 388.786,462.053 388.308,462.053L373.478,462.053C372.779,462.053 372.274,462.205 371.962,462.508C371.649,462.811 371.493,463.302 371.493,463.98L371.493,470.242C371.493,470.92 371.649,471.411 371.962,471.714C372.274,472.017 372.779,472.169 373.478,472.169L390.899,472.169Z"/>
            <path d="M409.423,472.169C408.725,472.169 408.219,472.017 407.907,471.714C407.594,471.411 407.438,470.92 407.438,470.242L407.438,463.873C407.438,463.195 407.594,462.704 407.907,462.401C408.219,462.097 408.725,461.946 409.423,461.946L414.881,461.946L414.881,443.961L409.423,443.961C408.725,443.961 408.219,443.81 407.907,443.506C407.594,443.203 407.438,442.712 407.438,442.034L407.438,435.558C407.438,434.88 407.594,434.389 407.907,434.086C408.219,433.783 408.725,433.631 409.423,433.631L432.909,433.631C433.607,433.631 434.112,433.783 434.425,434.086C434.737,434.389 434.893,434.88 434.893,435.558L434.893,442.034C434.893,442.712 434.737,443.203 434.425,443.506C434.112,443.81 433.607,443.961 432.909,443.961L427.561,443.961L427.561,461.946L432.909,461.946C433.607,461.946 434.112,462.097 434.425,462.401C434.737,462.704 434.893,463.195 434.893,463.873L434.893,470.242C434.893,470.92 434.737,471.411 434.425,471.714C434.112,472.017 433.607,472.169 432.909,472.169L409.423,472.169Z" style="fill:white;"/>
            <path d="M409.423,473.836C408.173,473.836 407.305,473.453 406.746,472.91C406.172,472.352 405.772,471.489 405.772,470.242L405.772,463.873C405.772,462.626 406.172,461.763 406.746,461.205C407.305,460.662 408.173,460.279 409.423,460.279L413.214,460.279L413.214,445.628L409.423,445.628C408.173,445.628 407.305,445.245 406.746,444.702C406.172,444.145 405.772,443.281 405.772,442.034L405.772,435.558C405.772,434.311 406.172,433.448 406.746,432.89C407.305,432.347 408.173,431.964 409.423,431.964L432.909,431.964C434.158,431.964 435.027,432.347 435.586,432.89C436.16,433.448 436.56,434.311 436.56,435.558L436.56,442.034C436.56,443.281 436.16,444.145 435.586,444.702C435.027,445.245 434.158,445.628 432.909,445.628L429.228,445.628L429.228,460.279L432.909,460.279C434.158,460.279 435.027,460.662 435.586,461.205C436.16,461.763 436.56,462.626 436.56,463.873L436.56,470.242C436.56,471.489 436.16,472.352 435.586,472.91C435.027,473.453 434.158,473.836 432.909,473.836L409.423,473.836ZM409.423,472.169L432.909,472.169C433.607,472.169 434.112,472.017 434.425,471.714C434.737,471.411 434.893,470.92 434.893,470.242L434.893,463.873C434.893,463.195 434.737,462.704 434.425,462.401C434.112,462.097 433.607,461.946 432.909,461.946L427.561,461.946L427.561,443.961L432.909,443.961C433.607,443.961 434.112,443.81 434.425,443.506C434.737,443.203 434.893,442.712 434.893,442.034L434.893,435.558C434.893,434.88 434.737,434.389 434.425,434.086C434.112,433.783 433.607,433.631 432.909,433.631L409.423,433.631C408.725,433.631 408.219,433.783 407.907,434.086C407.594,434.389 407.438,434.88 407.438,435.558L407.438,442.034C407.438,442.712 407.594,443.203 407.907,443.506C408.219,443.81 408.725,443.961 409.423,443.961L414.881,443.961L414.881,461.946L409.423,461.946C408.725,461.946 408.219,462.097 407.907,462.401C407.594,462.704 407.438,463.195 407.438,463.873L407.438,470.242C407.438,470.92 407.594,471.411 407.907,471.714C408.219,472.017 408.725,472.169 409.423,472.169Z"/>
            <path d="M471.996,472.169L454.63,472.169C450.036,472.169 446.627,471.277 444.403,469.493C442.18,467.709 441.068,464.961 441.068,461.25L441.068,444.55C441.068,440.839 442.18,438.091 444.403,436.307C446.627,434.523 450.036,433.631 454.63,433.631L468.413,433.631C469.111,433.631 469.616,433.783 469.929,434.086C470.241,434.389 470.397,434.88 470.397,435.558L470.397,442.034C470.397,442.712 470.241,443.203 469.929,443.506C469.616,443.81 469.111,443.961 468.413,443.961L456.946,443.961C455.806,443.961 454.961,444.184 454.41,444.63C453.858,445.076 453.583,445.746 453.583,446.638L453.583,459.43C453.583,460.322 453.794,460.982 454.217,461.411C454.639,461.839 455.273,462.053 456.119,462.053L461.466,462.053L461.466,453.703C461.466,453.025 461.622,452.534 461.935,452.231C462.247,451.928 462.753,451.776 463.451,451.776L471.996,451.776C472.695,451.776 473.2,451.928 473.512,452.231C473.825,452.534 473.981,453.025 473.981,453.703L473.981,470.242C473.981,470.92 473.825,471.411 473.512,471.714C473.2,472.017 472.695,472.169 471.996,472.169Z" style="fill:white;"/>
            <path d="M471.996,473.836L454.63,473.836C449.557,473.836 445.816,472.763 443.36,470.793C440.777,468.72 439.401,465.562 439.401,461.25L439.401,444.55C439.401,440.238 440.777,437.08 443.36,435.007C445.816,433.037 449.557,431.964 454.63,431.964L468.413,431.964C469.662,431.964 470.531,432.347 471.09,432.89C471.664,433.448 472.064,434.311 472.064,435.558L472.064,442.034C472.064,443.281 471.664,444.145 471.09,444.702C470.531,445.245 469.662,445.628 468.413,445.628L456.946,445.628C456.286,445.628 455.777,445.668 455.458,445.926C455.27,446.078 455.249,446.333 455.249,446.638L455.249,459.43C455.249,459.784 455.235,460.07 455.403,460.24C455.557,460.396 455.811,460.386 456.119,460.386L459.8,460.386L459.8,453.703C459.8,452.456 460.2,451.593 460.774,451.035C461.333,450.492 462.201,450.109 463.451,450.109L471.996,450.109C473.246,450.109 474.114,450.492 474.673,451.035C475.248,451.593 475.648,452.456 475.648,453.703L475.648,470.242C475.648,471.489 475.248,472.352 474.673,472.91C474.114,473.453 473.246,473.836 471.996,473.836ZM471.996,472.169C472.695,472.169 473.2,472.017 473.512,471.714C473.825,471.411 473.981,470.92 473.981,470.242L473.981,453.703C473.981,453.025 473.825,452.534 473.512,452.231C473.2,451.928 472.695,451.776 471.996,451.776L463.451,451.776C462.753,451.776 462.247,451.928 461.935,452.231C461.622,452.534 461.466,453.025 461.466,453.703L461.466,462.053L456.119,462.053C455.273,462.053 454.639,461.839 454.217,461.411C453.794,460.982 453.583,460.322 453.583,459.43L453.583,446.638C453.583,445.746 453.858,445.076 454.41,444.63C454.961,444.184 455.806,443.961 456.946,443.961L468.413,443.961C469.111,443.961 469.616,443.81 469.929,443.506C470.241,443.203 470.397,442.712 470.397,442.034L470.397,435.558C470.397,434.88 470.241,434.389 469.929,434.086C469.616,433.783 469.111,433.631 468.413,433.631L454.63,433.631C450.036,433.631 446.627,434.523 444.403,436.307C442.18,438.091 441.068,440.839 441.068,444.55L441.068,461.25C441.068,464.961 442.18,467.709 444.403,469.493C446.627,471.277 450.036,472.169 454.63,472.169L471.996,472.169Z"/>
            <path d="M490.961,472.169L482.692,472.169C481.993,472.169 481.488,472.017 481.175,471.714C480.863,471.411 480.707,470.92 480.707,470.242L480.707,435.558C480.707,434.88 480.863,434.389 481.175,434.086C481.488,433.783 481.993,433.631 482.692,433.631L488.425,433.631C489.123,433.631 489.721,433.738 490.217,433.952C490.713,434.166 491.2,434.541 491.678,435.076L502.373,446.959L502.373,435.558C502.373,434.88 502.529,434.389 502.842,434.086C503.154,433.783 503.66,433.631 504.358,433.631L512.627,433.631C513.326,433.631 513.831,433.783 514.144,434.086C514.456,434.389 514.612,434.88 514.612,435.558L514.612,470.242C514.612,470.92 514.456,471.411 514.144,471.714C513.831,472.017 513.326,472.169 512.627,472.169L504.358,472.169C503.66,472.169 503.154,472.017 502.842,471.714C502.529,471.411 502.373,470.92 502.373,470.242L502.373,463.659L492.946,452.579L492.946,470.242C492.946,470.92 492.79,471.411 492.477,471.714C492.165,472.017 491.659,472.169 490.961,472.169Z" style="fill:white;"/>
            <path d="M490.961,473.836L482.692,473.836C481.442,473.836 480.574,473.453 480.014,472.91C479.44,472.352 479.04,471.489 479.04,470.242L479.04,435.558C479.04,434.311 479.44,433.448 480.014,432.89C480.574,432.347 481.442,431.964 482.692,431.964L488.425,431.964C489.382,431.964 490.197,432.129 490.877,432.422C491.567,432.719 492.257,433.222 492.917,433.961L500.707,442.616L500.707,435.558C500.707,434.311 501.106,433.448 501.681,432.89C502.24,432.347 503.108,431.964 504.358,431.964L512.627,431.964C513.877,431.964 514.745,432.347 515.305,432.89C515.879,433.448 516.279,434.311 516.279,435.558L516.279,470.242C516.279,471.489 515.879,472.352 515.305,472.91C514.745,473.453 513.877,473.836 512.627,473.836L504.358,473.836C503.108,473.836 502.24,473.453 501.681,472.91C501.106,472.352 500.707,471.489 500.707,470.242L500.707,464.272C500.707,464.272 494.613,457.11 494.613,457.11L494.613,470.242C494.613,471.489 494.213,472.352 493.638,472.91C493.079,473.453 492.211,473.836 490.961,473.836ZM490.961,472.169C491.659,472.169 492.165,472.017 492.477,471.714C492.79,471.411 492.946,470.92 492.946,470.242L492.946,452.579L502.373,463.659L502.373,470.242C502.373,470.92 502.529,471.411 502.842,471.714C503.154,472.017 503.66,472.169 504.358,472.169L512.627,472.169C513.326,472.169 513.831,472.017 514.144,471.714C514.456,471.411 514.612,470.92 514.612,470.242L514.612,435.558C514.612,434.88 514.456,434.389 514.144,434.086C513.831,433.783 513.326,433.631 512.627,433.631L504.358,433.631C503.66,433.631 503.154,433.783 502.842,434.086C502.529,434.389 502.373,434.88 502.373,435.558L502.373,446.959L491.678,435.076C491.2,434.541 490.713,434.166 490.217,433.952C489.721,433.738 489.123,433.631 488.425,433.631L482.692,433.631C481.993,433.631 481.488,433.783 481.175,434.086C480.863,434.389 480.707,434.88 480.707,435.558L480.707,470.242C480.707,470.92 480.863,471.411 481.175,471.714C481.488,472.017 481.993,472.169 482.692,472.169L490.961,472.169Z"/>
            <path d="M533.467,470.242C533.467,470.92 533.311,471.411 532.998,471.714C532.686,472.017 532.18,472.169 531.482,472.169L523.378,472.169C522.68,472.169 522.174,472.017 521.862,471.714C521.549,471.411 521.393,470.92 521.393,470.242L521.393,456.112C521.393,455.041 521.568,453.81 521.917,452.418C522.266,451.027 522.808,449.403 523.543,447.548L528.34,435.397C528.56,434.791 528.9,434.345 529.36,434.059C529.819,433.774 530.416,433.631 531.151,433.631L545.982,433.631C546.68,433.631 547.259,433.774 547.718,434.059C548.178,434.345 548.518,434.791 548.738,435.397L553.534,447.548C554.269,449.403 554.812,451.027 555.161,452.418C555.51,453.81 555.685,455.041 555.685,456.112L555.685,470.242C555.685,470.92 555.528,471.411 555.216,471.714C554.903,472.017 554.398,472.169 553.7,472.169L545.375,472.169C544.64,472.169 544.098,472.017 543.749,471.714C543.4,471.411 543.225,470.92 543.225,470.242L543.225,462.749L533.467,462.749L533.467,470.242Z" style="fill:white;"/>
            <path d="M535.134,470.242C535.134,471.489 534.734,472.352 534.159,472.91C533.6,473.453 532.732,473.836 531.482,473.836L523.378,473.836C522.128,473.836 521.26,473.453 520.701,472.91C520.127,472.352 519.727,471.489 519.727,470.242L519.727,456.112C519.727,454.924 519.913,453.557 520.3,452.013C520.664,450.562 521.227,448.868 521.993,446.936C521.993,446.936 526.783,434.802 526.778,434.816C527.141,433.823 527.726,433.112 528.48,432.644C529.167,432.216 530.052,431.964 531.151,431.964L545.982,431.964C547.037,431.964 547.903,432.212 548.598,432.644C549.348,433.11 549.931,433.816 550.295,434.802L555.084,446.934C555.85,448.868 556.413,450.562 556.777,452.013C557.165,453.557 557.351,454.924 557.351,456.112L557.351,470.242C557.351,471.489 556.951,472.352 556.377,472.91C555.818,473.453 554.949,473.836 553.7,473.836L545.375,473.836C544.133,473.836 543.246,473.485 542.656,472.972C541.998,472.401 541.558,471.519 541.558,470.242L541.558,464.415L535.134,464.415L535.134,470.242ZM533.467,470.242L533.467,462.749L543.225,462.749L543.225,470.242C543.225,470.92 543.4,471.411 543.749,471.714C544.098,472.017 544.64,472.169 545.375,472.169L553.7,472.169C554.398,472.169 554.903,472.017 555.216,471.714C555.528,471.411 555.685,470.92 555.685,470.242L555.685,456.112C555.685,455.041 555.51,453.81 555.161,452.418C554.812,451.027 554.269,449.403 553.534,447.548L548.738,435.397C548.518,434.791 548.178,434.345 547.718,434.059C547.259,433.774 546.68,433.631 545.982,433.631L531.151,433.631C530.416,433.631 529.819,433.774 529.36,434.059C528.9,434.345 528.56,434.791 528.34,435.397L523.543,447.548C522.808,449.403 522.266,451.027 521.917,452.418C521.568,453.81 521.393,455.041 521.393,456.112L521.393,470.242C521.393,470.92 521.549,471.411 521.862,471.714C522.174,472.017 522.68,472.169 523.378,472.169L531.482,472.169C532.18,472.169 532.686,472.017 532.998,471.714C533.311,471.411 533.467,470.92 533.467,470.242Z"/>
            <path d="M536.609,444.871L534.018,453.007L542.674,453.007L540.083,444.871C539.936,444.55 539.779,444.318 539.614,444.175C539.449,444.033 539.256,443.961 539.035,443.961L537.657,443.961C537.436,443.961 537.243,444.033 537.078,444.175C536.913,444.318 536.756,444.55 536.609,444.871Z" style="fill:rgb(255,0,0);"/>
            <path d="M536.609,444.871C536.756,444.55 536.913,444.318 537.078,444.175C537.243,444.033 537.436,443.961 537.657,443.961L539.035,443.961C539.256,443.961 539.449,444.033 539.614,444.175C539.779,444.318 539.936,444.55 540.083,444.871L542.674,453.007L534.018,453.007L536.609,444.871ZM538.574,445.628L538.117,445.628L536.298,451.34L540.394,451.34C540.394,451.34 538.854,446.507 538.574,445.628Z"/>
            <path d="M592.787,472.169L575.421,472.169C570.827,472.169 567.418,471.277 565.195,469.493C562.971,467.709 561.859,464.961 561.859,461.25L561.859,444.55C561.859,440.839 562.971,438.091 565.195,436.307C567.418,434.523 570.827,433.631 575.421,433.631L589.204,433.631C589.902,433.631 590.408,433.783 590.72,434.086C591.032,434.389 591.189,434.88 591.189,435.558L591.189,442.034C591.189,442.712 591.032,443.203 590.72,443.506C590.408,443.81 589.902,443.961 589.204,443.961L577.737,443.961C576.597,443.961 575.752,444.184 575.201,444.63C574.649,445.076 574.374,445.746 574.374,446.638L574.374,459.43C574.374,460.322 574.585,460.982 575.008,461.411C575.43,461.839 576.064,462.053 576.91,462.053L582.257,462.053L582.257,453.703C582.257,453.025 582.414,452.534 582.726,452.231C583.038,451.928 583.544,451.776 584.242,451.776L592.787,451.776C593.486,451.776 593.991,451.928 594.304,452.231C594.616,452.534 594.772,453.025 594.772,453.703L594.772,470.242C594.772,470.92 594.616,471.411 594.304,471.714C593.991,472.017 593.486,472.169 592.787,472.169Z" style="fill:white;"/>
            <path d="M592.787,473.836L575.421,473.836C570.348,473.836 566.607,472.763 564.151,470.793C561.568,468.72 560.192,465.562 560.192,461.25L560.192,444.55C560.192,440.238 561.568,437.08 564.151,435.007C566.607,433.037 570.348,431.964 575.421,431.964L589.204,431.964C590.454,431.964 591.322,432.347 591.881,432.89C592.455,433.448 592.855,434.311 592.855,435.558L592.855,442.034C592.855,443.281 592.455,444.145 591.881,444.702C591.322,445.245 590.454,445.628 589.204,445.628L577.737,445.628C577.078,445.628 576.568,445.668 576.249,445.926C576.061,446.078 576.04,446.333 576.04,446.638L576.04,459.43C576.04,459.784 576.026,460.07 576.194,460.24C576.348,460.396 576.602,460.386 576.91,460.386L580.591,460.386L580.591,453.703C580.591,452.456 580.991,451.593 581.565,451.035C582.124,450.492 582.992,450.109 584.242,450.109L592.787,450.109C594.037,450.109 594.905,450.492 595.464,451.035C596.039,451.593 596.439,452.456 596.439,453.703L596.439,470.242C596.439,471.489 596.039,472.352 595.464,472.91C594.905,473.453 594.037,473.836 592.787,473.836ZM592.787,472.169C593.486,472.169 593.991,472.017 594.304,471.714C594.616,471.411 594.772,470.92 594.772,470.242L594.772,453.703C594.772,453.025 594.616,452.534 594.304,452.231C593.991,451.928 593.486,451.776 592.787,451.776L584.242,451.776C583.544,451.776 583.038,451.928 582.726,452.231C582.414,452.534 582.257,453.025 582.257,453.703L582.257,462.053L576.91,462.053C576.064,462.053 575.43,461.839 575.008,461.411C574.585,460.982 574.374,460.322 574.374,459.43L574.374,446.638C574.374,445.746 574.649,445.076 575.201,444.63C575.752,444.184 576.597,443.961 577.737,443.961L589.204,443.961C589.902,443.961 590.408,443.81 590.72,443.506C591.032,443.203 591.189,442.712 591.189,442.034L591.189,435.558C591.189,434.88 591.032,434.389 590.72,434.086C590.408,433.783 589.902,433.631 589.204,433.631L575.421,433.631C570.827,433.631 567.418,434.523 565.195,436.307C562.971,438.091 561.859,440.839 561.859,444.55L561.859,461.25C561.859,464.961 562.971,467.709 565.195,469.493C567.418,471.277 570.827,472.169 575.421,472.169L592.787,472.169Z"/>
            <path d="M629.063,472.169L603.483,472.169C602.784,472.169 602.279,472.017 601.967,471.714C601.654,471.411 601.498,470.92 601.498,470.242L601.498,435.558C601.498,434.88 601.654,434.389 601.967,434.086C602.279,433.783 602.784,433.631 603.483,433.631L629.063,433.631C629.762,433.631 630.267,433.783 630.579,434.086C630.892,434.389 631.048,434.88 631.048,435.558L631.048,441.82C631.048,442.498 630.892,442.989 630.579,443.292C630.267,443.596 629.762,443.747 629.063,443.747L613.847,443.747L613.847,447.869L624.598,447.869C625.296,447.869 625.801,448.02 626.114,448.324C626.426,448.627 626.582,449.118 626.582,449.796L626.582,455.523C626.582,456.201 626.426,456.691 626.114,456.995C625.801,457.298 625.296,457.45 624.598,457.45L613.847,457.45L613.847,462.053L629.063,462.053C629.762,462.053 630.267,462.205 630.579,462.508C630.892,462.811 631.048,463.302 631.048,463.98L631.048,470.242C631.048,470.92 630.892,471.411 630.579,471.714C630.267,472.017 629.762,472.169 629.063,472.169Z" style="fill:white;"/>
            <path d="M629.063,473.836L603.483,473.836C602.233,473.836 601.365,473.453 600.806,472.91C600.231,472.352 599.831,471.489 599.831,470.242L599.831,435.558C599.831,434.311 600.231,433.448 600.806,432.89C601.365,432.347 602.233,431.964 603.483,431.964L629.063,431.964C630.313,431.964 631.181,432.347 631.74,432.89C632.315,433.448 632.715,434.311 632.715,435.558L632.715,441.82C632.715,443.067 632.315,443.93 631.74,444.488C631.181,445.031 630.313,445.414 629.063,445.414L615.514,445.414C615.514,445.414 615.514,446.202 615.514,446.202L624.598,446.202C625.847,446.202 626.716,446.585 627.275,447.128C627.849,447.686 628.249,448.549 628.249,449.796L628.249,455.523C628.249,456.769 627.849,457.633 627.275,458.191C626.716,458.733 625.847,459.116 624.598,459.116C624.598,459.116 615.514,459.116 615.514,459.116L615.514,460.386L629.063,460.386C630.313,460.386 631.181,460.769 631.74,461.312C632.315,461.87 632.715,462.733 632.715,463.98L632.715,470.242C632.715,471.489 632.315,472.352 631.74,472.91C631.181,473.453 630.313,473.836 629.063,473.836ZM629.063,472.169C629.762,472.169 630.267,472.017 630.579,471.714C630.892,471.411 631.048,470.92 631.048,470.242L631.048,463.98C631.048,463.302 630.892,462.811 630.579,462.508C630.267,462.205 629.762,462.053 629.063,462.053L613.847,462.053L613.847,457.45L624.598,457.45C625.296,457.45 625.801,457.298 626.114,456.995C626.426,456.691 626.582,456.201 626.582,455.523L626.582,449.796C626.582,449.118 626.426,448.627 626.114,448.324C625.801,448.02 625.296,447.869 624.598,447.869L613.847,447.869L613.847,443.747L629.063,443.747C629.762,443.747 630.267,443.596 630.579,443.292C630.892,442.989 631.048,442.498 631.048,441.82L631.048,435.558C631.048,434.88 630.892,434.389 630.579,434.086C630.267,433.783 629.762,433.631 629.063,433.631L603.483,433.631C602.784,433.631 602.279,433.783 601.967,434.086C601.654,434.389 601.498,434.88 601.498,435.558L601.498,470.242C601.498,470.92 601.654,471.411 601.967,471.714C602.279,472.017 602.784,472.169 603.483,472.169L629.063,472.169Z"/>
        </g>
    </g>
</svg>
