<?xml version="1.0" encoding="UTF-8" standalone="no"?><!DOCTYPE svg PUBLIC "-//W3C//DTD SVG 1.1//EN" "http://www.w3.org/Graphics/SVG/1.1/DTD/svg11.dtd"><svg width="100%" height="100%" viewBox="0 0 332 82" version="1.1" xmlns="http://www.w3.org/2000/svg" xmlns:xlink="http://www.w3.org/1999/xlink" xml:space="preserve" xmlns:serif="http://www.serif.com/" style="fill-rule:evenodd;clip-rule:evenodd;stroke-linejoin:round;stroke-miterlimit:2;"><g><path d="M331.047,20.281c0,-11.193 -9.088,-20.281 -20.281,-20.281l-290.485,0c-11.193,0 -20.281,9.088 -20.281,20.281l-0,40.562c-0,11.194 9.088,20.282 20.281,20.282l290.485,-0c11.193,-0 20.281,-9.088 20.281,-20.282l0,-40.562Z" style="fill:#fff;"/><g><g><path d="M62.092,59.12l-16.29,-0c-0.653,-0 -1.125,-0.146 -1.417,-0.438c-0.292,-0.293 -0.438,-0.765 -0.438,-1.418l-0,-6.031c-0,-0.653 0.146,-1.126 0.438,-1.418c0.292,-0.292 0.764,-0.438 1.417,-0.438l13.867,0c0.447,0 0.782,-0.146 1.005,-0.438c0.223,-0.292 0.335,-0.644 0.335,-1.057c0,-0.584 -0.112,-1.014 -0.335,-1.289c-0.223,-0.274 -0.558,-0.429 -1.005,-0.463l-7.732,-1.083c-2.406,-0.344 -4.339,-1.134 -5.8,-2.371c-1.46,-1.237 -2.19,-3.299 -2.19,-6.186l-0,-5.413c-0,-2.921 0.945,-5.163 2.835,-6.727c1.89,-1.563 4.502,-2.345 7.835,-2.345l14.434,-0c0.653,-0 1.125,0.146 1.417,0.438c0.292,0.292 0.438,0.765 0.438,1.418l0,6.134c0,0.653 -0.146,1.125 -0.438,1.417c-0.292,0.293 -0.764,0.439 -1.417,0.439l-12.011,-0c-0.447,-0 -0.791,0.146 -1.031,0.438c-0.241,0.292 -0.361,0.661 -0.361,1.108c0,0.447 0.12,0.825 0.361,1.134c0.24,0.309 0.584,0.481 1.031,0.516l7.681,1.031c2.405,0.343 4.347,1.134 5.825,2.371c1.477,1.237 2.216,3.299 2.216,6.186l0,5.412c0,2.921 -0.954,5.164 -2.861,6.727c-1.907,1.564 -4.51,2.346 -7.809,2.346Z" style="fill-rule:nonzero;"/><path d="M58.94,47.71l-13.138,0c-1.213,0 -2.053,0.384 -2.596,0.927c-0.542,0.542 -0.926,1.383 -0.926,2.596l-0,6.031c-0,1.213 0.384,2.053 0.926,2.596c0.543,0.543 1.383,0.926 2.596,0.926l16.29,0c3.752,0 6.696,-0.944 8.866,-2.723c2.279,-1.868 3.471,-4.525 3.471,-8.016l-0,-5.412c-0,-3.504 -1.02,-5.962 -2.814,-7.464c-1.692,-1.417 -3.904,-2.35 -6.659,-2.743l-6.782,-0.911l10.877,0c1.213,0 2.053,-0.383 2.596,-0.926c0.542,-0.543 0.926,-1.383 0.926,-2.596c0,-0 0,-6.134 0,-6.134c0,-1.213 -0.384,-2.054 -0.926,-2.596c-0.543,-0.543 -1.383,-0.927 -2.596,-0.927c-0,0 -14.434,0 -14.434,0c-3.793,0 -6.747,0.949 -8.898,2.728c-2.257,1.868 -3.439,4.523 -3.439,8.011l-0,5.413c-0,3.501 1.009,5.957 2.78,7.458c1.676,1.419 3.881,2.355 6.641,2.749l7.239,1.013Zm3.152,11.41l-16.29,-0c-0.653,-0 -1.125,-0.146 -1.417,-0.438c-0.292,-0.293 -0.438,-0.765 -0.438,-1.418l-0,-6.031c-0,-0.653 0.146,-1.126 0.438,-1.418c0.292,-0.292 0.764,-0.438 1.417,-0.438l13.867,0c0.447,0 0.782,-0.146 1.005,-0.438c0.223,-0.292 0.335,-0.644 0.335,-1.057c0,-0.584 -0.112,-1.014 -0.335,-1.289c-0.223,-0.274 -0.558,-0.429 -1.005,-0.463l-7.732,-1.083c-2.406,-0.344 -4.339,-1.134 -5.8,-2.371c-1.46,-1.237 -2.19,-3.299 -2.19,-6.186l-0,-5.413c-0,-2.921 0.945,-5.163 2.835,-6.727c1.89,-1.563 4.502,-2.345 7.835,-2.345l14.434,-0c0.653,-0 1.125,0.146 1.417,0.438c0.292,0.292 0.438,0.765 0.438,1.418l0,6.134c0,0.653 -0.146,1.125 -0.438,1.417c-0.292,0.293 -0.764,0.439 -1.417,0.439l-12.011,-0c-0.447,-0 -0.791,0.146 -1.031,0.438c-0.241,0.292 -0.361,0.661 -0.361,1.108c0,0.447 0.12,0.825 0.361,1.134c0.24,0.309 0.584,0.481 1.031,0.516l7.681,1.031c2.405,0.343 4.347,1.134 5.825,2.371c1.477,1.237 2.216,3.299 2.216,6.186l0,5.412c0,2.921 -0.954,5.164 -2.861,6.727c-1.907,1.564 -4.51,2.346 -7.809,2.346Z" style="fill:#808080;"/><path d="M79.412,59.12c-0.653,-0 -1.126,-0.146 -1.418,-0.438c-0.292,-0.293 -0.438,-0.765 -0.438,-1.418l0,-6.134c0,-0.653 0.146,-1.126 0.438,-1.418c0.292,-0.292 0.765,-0.438 1.418,-0.438l5.103,0l0,-17.32l-5.103,-0c-0.653,-0 -1.126,-0.146 -1.418,-0.438c-0.292,-0.293 -0.438,-0.765 -0.438,-1.418l0,-6.237c0,-0.653 0.146,-1.126 0.438,-1.418c0.292,-0.292 0.765,-0.438 1.418,-0.438l21.96,-0c0.652,-0 1.125,0.146 1.417,0.438c0.292,0.292 0.438,0.765 0.438,1.418l0,6.237c0,0.653 -0.146,1.125 -0.438,1.418c-0.292,0.292 -0.765,0.438 -1.417,0.438l-5.001,-0l0,17.32l5.001,0c0.652,0 1.125,0.146 1.417,0.438c0.292,0.292 0.438,0.765 0.438,1.418l0,6.134c0,0.653 -0.146,1.125 -0.438,1.418c-0.292,0.292 -0.765,0.438 -1.417,0.438l-21.96,-0Z" style="fill-rule:nonzero;"/><path d="M79.412,60.786l21.96,0c1.213,0 2.053,-0.383 2.596,-0.926c0.542,-0.543 0.926,-1.383 0.926,-2.596l-0,-6.134c-0,-1.213 -0.384,-2.054 -0.926,-2.596c-0.543,-0.543 -1.383,-0.927 -2.596,-0.927l-3.334,0c-0,0 -0,-13.987 -0,-13.987c-0,0 3.334,0 3.334,0c1.213,0 2.053,-0.383 2.596,-0.926c0.542,-0.543 0.926,-1.383 0.926,-2.596l-0,-6.237c-0,-1.213 -0.384,-2.054 -0.926,-2.596c-0.543,-0.543 -1.383,-0.927 -2.596,-0.927c-0,0 -21.96,0 -21.96,0c-1.213,0 -2.054,0.384 -2.596,0.927c-0.543,0.542 -0.927,1.383 -0.927,2.596l0,6.237c0,1.213 0.384,2.053 0.927,2.596c0.542,0.543 1.383,0.926 2.596,0.926l3.437,0c-0,0 -0,13.987 -0,13.987c-0,0 -3.437,0 -3.437,0c-1.213,0 -2.054,0.384 -2.596,0.927c-0.543,0.542 -0.927,1.383 -0.927,2.596l0,6.134c0,1.213 0.384,2.053 0.927,2.596c0.542,0.543 1.383,0.926 2.596,0.926Zm-0,-1.666c-0.653,-0 -1.126,-0.146 -1.418,-0.438c-0.292,-0.293 -0.438,-0.765 -0.438,-1.418l0,-6.134c0,-0.653 0.146,-1.126 0.438,-1.418c0.292,-0.292 0.765,-0.438 1.418,-0.438l5.103,0l0,-17.32l-5.103,-0c-0.653,-0 -1.126,-0.146 -1.418,-0.438c-0.292,-0.293 -0.438,-0.765 -0.438,-1.418l0,-6.237c0,-0.653 0.146,-1.126 0.438,-1.418c0.292,-0.292 0.765,-0.438 1.418,-0.438l21.96,-0c0.652,-0 1.125,0.146 1.417,0.438c0.292,0.292 0.438,0.765 0.438,1.418l0,6.237c0,0.653 -0.146,1.125 -0.438,1.418c-0.292,0.292 -0.765,0.438 -1.417,0.438l-5.001,-0l0,17.32l5.001,0c0.652,0 1.125,0.146 1.417,0.438c0.292,0.292 0.438,0.765 0.438,1.418l0,6.134c0,0.653 -0.146,1.125 -0.438,1.418c-0.292,0.292 -0.765,0.438 -1.417,0.438l-21.96,-0Z" style="fill:#808080;"/><path d="M137.919,59.12l-16.237,-0c-4.296,-0 -7.484,-0.859 -9.563,-2.578c-2.079,-1.718 -3.118,-4.364 -3.118,-7.938l-0,-16.083c-0,-3.574 1.039,-6.22 3.118,-7.939c2.079,-1.718 5.267,-2.577 9.563,-2.577l12.887,-0c0.653,-0 1.125,0.146 1.417,0.438c0.292,0.292 0.438,0.765 0.438,1.418l0,6.237c0,0.653 -0.146,1.125 -0.438,1.418c-0.292,0.292 -0.764,0.438 -1.417,0.438l-10.722,-0c-1.066,-0 -1.856,0.215 -2.372,0.644c-0.515,0.43 -0.773,1.074 -0.773,1.933l0,12.32c0,0.859 0.198,1.495 0.593,1.908c0.395,0.412 0.988,0.618 1.778,0.618l5.001,0l-0,-8.041c-0,-0.653 0.146,-1.126 0.438,-1.418c0.292,-0.292 0.764,-0.438 1.417,-0.438l7.99,-0c0.653,-0 1.126,0.146 1.418,0.438c0.292,0.292 0.438,0.765 0.438,1.418l0,15.928c0,0.653 -0.146,1.125 -0.438,1.418c-0.292,0.292 -0.765,0.438 -1.418,0.438Z" style="fill-rule:nonzero;"/><path d="M137.919,60.786c1.213,0 2.054,-0.383 2.596,-0.926c0.543,-0.543 0.927,-1.383 0.927,-2.596l-0,-15.928c-0,-1.213 -0.384,-2.054 -0.927,-2.597c-0.542,-0.542 -1.383,-0.926 -2.596,-0.926l-7.99,0c-1.213,0 -2.053,0.384 -2.596,0.926c-0.542,0.543 -0.926,1.384 -0.926,2.597l-0,6.374c-0,0 -3.334,0 -3.334,0c-0.245,0 -0.452,0.023 -0.575,-0.105c-0.151,-0.158 -0.129,-0.425 -0.129,-0.754c-0,0 -0,-12.32 -0,-12.32c-0,-0.279 0.006,-0.513 0.173,-0.653c0.279,-0.232 0.728,-0.258 1.305,-0.258l10.722,0c1.213,0 2.053,-0.383 2.596,-0.926c0.542,-0.543 0.926,-1.383 0.926,-2.596c0,-0 0,-6.237 0,-6.237c0,-1.213 -0.384,-2.054 -0.926,-2.596c-0.543,-0.543 -1.383,-0.927 -2.596,-0.927c-0,0 -12.887,0 -12.887,0c-4.784,0 -8.309,1.046 -10.624,2.96c-2.425,2.003 -3.724,5.055 -3.724,9.223l0,16.083c0,4.168 1.299,7.219 3.724,9.223c2.315,1.914 5.84,2.959 10.624,2.959l16.237,0Zm0,-1.666l-16.237,-0c-4.296,-0 -7.484,-0.859 -9.563,-2.578c-2.079,-1.718 -3.118,-4.364 -3.118,-7.938l-0,-16.083c-0,-3.574 1.039,-6.22 3.118,-7.939c2.079,-1.718 5.267,-2.577 9.563,-2.577l12.887,-0c0.653,-0 1.125,0.146 1.417,0.438c0.292,0.292 0.438,0.765 0.438,1.418l0,6.237c0,0.653 -0.146,1.125 -0.438,1.418c-0.292,0.292 -0.764,0.438 -1.417,0.438l-10.722,-0c-1.066,-0 -1.856,0.215 -2.372,0.644c-0.515,0.43 -0.773,1.074 -0.773,1.933l0,12.32c0,0.859 0.198,1.495 0.593,1.908c0.395,0.412 0.988,0.618 1.778,0.618l5.001,0l-0,-8.041c-0,-0.653 0.146,-1.126 0.438,-1.418c0.292,-0.292 0.764,-0.438 1.417,-0.438l7.99,-0c0.653,-0 1.126,0.146 1.418,0.438c0.292,0.292 0.438,0.765 0.438,1.418l0,15.928c0,0.653 -0.146,1.125 -0.438,1.418c-0.292,0.292 -0.765,0.438 -1.418,0.438Z" style="fill:#808080;"/><path d="M155.652,59.12l-7.732,-0c-0.653,-0 -1.126,-0.146 -1.418,-0.438c-0.292,-0.293 -0.438,-0.765 -0.438,-1.418l0,-33.403c0,-0.653 0.146,-1.126 0.438,-1.418c0.292,-0.292 0.765,-0.438 1.418,-0.438l5.361,-0c0.653,-0 1.211,0.103 1.675,0.309c0.464,0.206 0.919,0.567 1.366,1.083l10.001,11.443l-0,-10.979c-0,-0.653 0.146,-1.126 0.438,-1.418c0.292,-0.292 0.764,-0.438 1.417,-0.438l7.733,-0c0.653,-0 1.125,0.146 1.417,0.438c0.292,0.292 0.438,0.765 0.438,1.418l0,33.403c0,0.653 -0.146,1.125 -0.438,1.418c-0.292,0.292 -0.764,0.438 -1.417,0.438l-7.733,-0c-0.653,-0 -1.125,-0.146 -1.417,-0.438c-0.292,-0.293 -0.438,-0.765 -0.438,-1.418l-0,-6.34l-8.815,-10.671l-0,17.011c-0,0.653 -0.146,1.125 -0.438,1.418c-0.292,0.292 -0.765,0.438 -1.418,0.438Z" style="fill-rule:nonzero;"/><path d="M155.652,60.786c1.213,0 2.053,-0.383 2.596,-0.926c0.543,-0.543 0.926,-1.383 0.926,-2.596l0,-12.377c0,0 5.482,6.636 5.482,6.636c-0,-0 -0,5.741 -0,5.741c-0,1.213 0.384,2.053 0.926,2.596c0.543,0.543 1.383,0.926 2.596,0.926l7.733,0c1.213,0 2.053,-0.383 2.596,-0.926c0.542,-0.543 0.926,-1.383 0.926,-2.596l-0,-33.403c-0,-1.213 -0.384,-2.054 -0.926,-2.596c-0.543,-0.543 -1.383,-0.927 -2.596,-0.927c-0,0 -7.733,0 -7.733,0c-1.213,0 -2.053,0.384 -2.596,0.927c-0.542,0.542 -0.926,1.383 -0.926,2.596c-0,-0 -0,6.539 -0,6.539c-0,0 -7.079,-8.1 -7.079,-8.1c-0.628,-0.725 -1.287,-1.217 -1.944,-1.509c-0.652,-0.29 -1.434,-0.453 -2.352,-0.453c-0,0 -5.361,0 -5.361,0c-1.213,0 -2.054,0.384 -2.596,0.927c-0.543,0.542 -0.927,1.383 -0.927,2.596c0,-0 0,33.403 0,33.403c0,1.213 0.384,2.053 0.927,2.596c0.542,0.543 1.383,0.926 2.596,0.926l7.732,0Zm0,-1.666l-7.732,-0c-0.653,-0 -1.126,-0.146 -1.418,-0.438c-0.292,-0.293 -0.438,-0.765 -0.438,-1.418l0,-33.403c0,-0.653 0.146,-1.126 0.438,-1.418c0.292,-0.292 0.765,-0.438 1.418,-0.438l5.361,-0c0.653,-0 1.211,0.103 1.675,0.309c0.464,0.206 0.919,0.567 1.366,1.083l10.001,11.443l-0,-10.979c-0,-0.653 0.146,-1.126 0.438,-1.418c0.292,-0.292 0.764,-0.438 1.417,-0.438l7.733,-0c0.653,-0 1.125,0.146 1.417,0.438c0.292,0.292 0.438,0.765 0.438,1.418l0,33.403c0,0.653 -0.146,1.125 -0.438,1.418c-0.292,0.292 -0.764,0.438 -1.417,0.438l-7.733,-0c-0.653,-0 -1.125,-0.146 -1.417,-0.438c-0.292,-0.293 -0.438,-0.765 -0.438,-1.418l-0,-6.34l-8.815,-10.671l-0,17.011c-0,0.653 -0.146,1.125 -0.438,1.418c-0.292,0.292 -0.765,0.438 -1.418,0.438Z" style="fill:#808080;"/><path d="M198.334,32.83l-2.423,7.835l8.093,0l-2.422,-7.835c-0.138,-0.309 -0.284,-0.533 -0.438,-0.67c-0.155,-0.138 -0.336,-0.206 -0.542,-0.206l-1.288,-0c-0.207,-0 -0.387,0.068 -0.542,0.206c-0.154,0.137 -0.3,0.361 -0.438,0.67Zm-2.938,24.434c-0,0.653 -0.146,1.125 -0.438,1.418c-0.292,0.292 -0.765,0.438 -1.418,0.438l-7.577,-0c-0.653,-0 -1.126,-0.146 -1.418,-0.438c-0.292,-0.293 -0.438,-0.765 -0.438,-1.418l-0,-13.609c-0,-1.031 0.163,-2.216 0.489,-3.557c0.327,-1.34 0.834,-2.904 1.521,-4.691l4.485,-11.701c0.206,-0.584 0.524,-1.014 0.954,-1.289c0.429,-0.275 0.988,-0.412 1.675,-0.412l13.866,-0c0.653,-0 1.195,0.137 1.624,0.412c0.43,0.275 0.748,0.705 0.954,1.289l4.485,11.701c0.687,1.787 1.194,3.351 1.52,4.691c0.327,1.341 0.49,2.526 0.49,3.557l-0,13.609c-0,0.653 -0.146,1.125 -0.438,1.418c-0.292,0.292 -0.765,0.438 -1.418,0.438l-7.784,-0c-0.687,-0 -1.194,-0.146 -1.52,-0.438c-0.327,-0.293 -0.49,-0.765 -0.49,-1.418l-0,-7.217l-9.124,0l-0,7.217Z" style="fill-rule:nonzero;"/><path d="M197.063,57.264l-0,-5.55c-0,-0 5.79,-0 5.79,-0c0,-0 0,5.55 0,5.55c0,1.244 0.423,2.103 1.045,2.66c0.572,0.511 1.429,0.862 2.632,0.862l7.784,0c1.213,0 2.054,-0.383 2.596,-0.926c0.543,-0.543 0.927,-1.383 0.927,-2.596l-0,-13.609c-0,-1.145 -0.175,-2.463 -0.537,-3.951c-0.341,-1.398 -0.868,-3.03 -1.585,-4.895c0.001,0.002 -4.478,-11.683 -4.478,-11.683c-0.346,-0.966 -0.904,-1.656 -1.617,-2.113c-0.67,-0.428 -1.505,-0.675 -2.523,-0.675c0,0 -13.866,0 -13.866,0c-1.06,0 -1.911,0.251 -2.574,0.675c-0.717,0.459 -1.277,1.154 -1.623,2.127c0.005,-0.014 -4.473,11.671 -4.473,11.671c-0.716,1.863 -1.243,3.495 -1.584,4.893c-0.362,1.488 -0.537,2.806 -0.537,3.951l0,13.609c0,1.213 0.384,2.053 0.926,2.596c0.543,0.543 1.384,0.926 2.597,0.926l7.577,0c1.213,0 2.054,-0.383 2.596,-0.926c0.543,-0.543 0.927,-1.383 0.927,-2.596Zm-1.667,0c-0,0.653 -0.146,1.125 -0.438,1.418c-0.292,0.292 -0.765,0.438 -1.418,0.438l-7.577,-0c-0.653,-0 -1.126,-0.146 -1.418,-0.438c-0.292,-0.293 -0.438,-0.765 -0.438,-1.418l-0,-13.609c-0,-1.031 0.163,-2.216 0.489,-3.557c0.327,-1.34 0.834,-2.904 1.521,-4.691l4.485,-11.701c0.206,-0.584 0.524,-1.014 0.954,-1.289c0.429,-0.275 0.988,-0.412 1.675,-0.412l13.866,-0c0.653,-0 1.195,0.137 1.624,0.412c0.43,0.275 0.748,0.705 0.954,1.289l4.485,11.701c0.687,1.787 1.194,3.351 1.52,4.691c0.327,1.341 0.49,2.526 0.49,3.557l-0,13.609c-0,0.653 -0.146,1.125 -0.438,1.418c-0.292,0.292 -0.765,0.438 -1.418,0.438l-7.784,-0c-0.687,-0 -1.194,-0.146 -1.52,-0.438c-0.327,-0.293 -0.49,-0.765 -0.49,-1.418l-0,-7.217l-9.124,0l-0,7.217Zm2.938,-24.434l-2.423,7.835l8.093,0l-2.422,-7.835c-0.138,-0.309 -0.284,-0.533 -0.438,-0.67c-0.155,-0.138 -0.336,-0.206 -0.542,-0.206l-1.288,-0c-0.207,-0 -0.387,0.068 -0.542,0.206c-0.154,0.137 -0.3,0.361 -0.438,0.67Zm1.747,0.79l1.664,5.379c-0,-0 -3.574,-0 -3.574,-0l1.663,-5.379l0.247,0Z" style="fill:#808080;"/><path d="M250.862,59.12l-16.238,-0c-4.295,-0 -7.483,-0.859 -9.562,-2.578c-2.079,-1.718 -3.119,-4.364 -3.119,-7.938l0,-16.083c0,-3.574 1.04,-6.22 3.119,-7.939c2.079,-1.718 5.267,-2.577 9.562,-2.577l12.887,-0c0.653,-0 1.126,0.146 1.418,0.438c0.292,0.292 0.438,0.765 0.438,1.418l0,6.237c0,0.653 -0.146,1.125 -0.438,1.418c-0.292,0.292 -0.765,0.438 -1.418,0.438l-10.722,-0c-1.065,-0 -1.855,0.215 -2.371,0.644c-0.515,0.43 -0.773,1.074 -0.773,1.933l-0,12.32c-0,0.859 0.197,1.495 0.593,1.908c0.395,0.412 0.988,0.618 1.778,0.618l5,0l0,-8.041c0,-0.653 0.146,-1.126 0.438,-1.418c0.293,-0.292 0.765,-0.438 1.418,-0.438l7.99,-0c0.653,-0 1.126,0.146 1.418,0.438c0.292,0.292 0.438,0.765 0.438,1.418l-0,15.928c-0,0.653 -0.146,1.125 -0.438,1.418c-0.292,0.292 -0.765,0.438 -1.418,0.438Z" style="fill-rule:nonzero;"/><path d="M250.862,60.786c1.213,0 2.053,-0.383 2.596,-0.926c0.543,-0.543 0.926,-1.383 0.926,-2.596c0,0 0,-15.928 0,-15.928c0,-1.213 -0.383,-2.054 -0.926,-2.597c-0.543,-0.542 -1.383,-0.926 -2.596,-0.926l-7.99,0c-1.213,0 -2.053,0.384 -2.596,0.926c-0.543,0.543 -0.926,1.384 -0.926,2.597l-0,6.374c-0,0 -3.334,0 -3.334,0c-0.245,0 -0.452,0.023 -0.575,-0.105c-0.151,-0.158 -0.129,-0.425 -0.129,-0.754l-0,-12.32c-0,-0.279 0.006,-0.513 0.173,-0.653c0.279,-0.232 0.728,-0.258 1.304,-0.258l10.722,0c1.213,0 2.054,-0.383 2.596,-0.926c0.543,-0.543 0.927,-1.383 0.927,-2.596l-0,-6.237c-0,-1.213 -0.384,-2.054 -0.927,-2.596c-0.542,-0.543 -1.383,-0.927 -2.596,-0.927c0,0 -12.887,0 -12.887,0c-4.783,0 -8.308,1.046 -10.624,2.96c-2.424,2.003 -3.723,5.055 -3.723,9.223l-0,16.083c-0,4.168 1.299,7.219 3.723,9.223c2.316,1.914 5.841,2.959 10.624,2.959l16.238,0Zm0,-1.666l-16.238,-0c-4.295,-0 -7.483,-0.859 -9.562,-2.578c-2.079,-1.718 -3.119,-4.364 -3.119,-7.938l0,-16.083c0,-3.574 1.04,-6.22 3.119,-7.939c2.079,-1.718 5.267,-2.577 9.562,-2.577l12.887,-0c0.653,-0 1.126,0.146 1.418,0.438c0.292,0.292 0.438,0.765 0.438,1.418l0,6.237c0,0.653 -0.146,1.125 -0.438,1.418c-0.292,0.292 -0.765,0.438 -1.418,0.438l-10.722,-0c-1.065,-0 -1.855,0.215 -2.371,0.644c-0.515,0.43 -0.773,1.074 -0.773,1.933l-0,12.32c-0,0.859 0.197,1.495 0.593,1.908c0.395,0.412 0.988,0.618 1.778,0.618l5,0l0,-8.041c0,-0.653 0.146,-1.126 0.438,-1.418c0.293,-0.292 0.765,-0.438 1.418,-0.438l7.99,-0c0.653,-0 1.126,0.146 1.418,0.438c0.292,0.292 0.438,0.765 0.438,1.418l-0,15.928c-0,0.653 -0.146,1.125 -0.438,1.418c-0.292,0.292 -0.765,0.438 -1.418,0.438Z" style="fill:#808080;"/><path d="M284.781,59.12l-23.919,-0c-0.653,-0 -1.125,-0.146 -1.417,-0.438c-0.292,-0.293 -0.438,-0.765 -0.438,-1.418l-0,-33.403c-0,-0.653 0.146,-1.126 0.438,-1.418c0.292,-0.292 0.764,-0.438 1.417,-0.438l23.919,-0c0.653,-0 1.125,0.146 1.418,0.438c0.292,0.292 0.438,0.765 0.438,1.418l-0,6.031c-0,0.653 -0.146,1.125 -0.438,1.417c-0.293,0.292 -0.765,0.439 -1.418,0.439l-14.227,-0l-0,3.969l10.051,-0c0.653,-0 1.126,0.146 1.418,0.438c0.292,0.292 0.438,0.765 0.438,1.418l0,5.515c0,0.653 -0.146,1.126 -0.438,1.418c-0.292,0.292 -0.765,0.438 -1.418,0.438l-10.051,-0l-0,4.433l14.227,0c0.653,0 1.125,0.146 1.418,0.438c0.292,0.292 0.438,0.765 0.438,1.418l-0,6.031c-0,0.653 -0.146,1.125 -0.438,1.418c-0.293,0.292 -0.765,0.438 -1.418,0.438Z" style="fill-rule:nonzero;"/><path d="M284.781,60.786c1.213,0 2.053,-0.383 2.596,-0.926c0.543,-0.543 0.926,-1.383 0.926,-2.596c0,0 0,-6.031 0,-6.031c0,-1.213 -0.383,-2.054 -0.926,-2.596c-0.543,-0.543 -1.383,-0.927 -2.596,-0.927l-12.561,0c0,0 0,-1.099 0,-1.099c0,-0 8.385,-0 8.385,-0c1.213,-0 2.054,-0.384 2.597,-0.927c0.542,-0.542 0.926,-1.383 0.926,-2.596c-0,0 -0,-5.515 -0,-5.515c-0,-1.213 -0.384,-2.054 -0.926,-2.597c-0.543,-0.542 -1.384,-0.926 -2.597,-0.926l-8.385,0c0,0 0,-0.636 0,-0.636c0,0 12.561,0 12.561,0c1.213,0 2.053,-0.383 2.596,-0.926c0.543,-0.543 0.926,-1.383 0.926,-2.596c0,-0 0,-6.031 0,-6.031c0,-1.213 -0.383,-2.054 -0.926,-2.596c-0.543,-0.543 -1.383,-0.927 -2.596,-0.927c-0,0 -23.919,0 -23.919,0c-1.213,0 -2.053,0.384 -2.596,0.927c-0.542,0.542 -0.926,1.383 -0.926,2.596c0,-0 0,33.403 0,33.403c0,1.213 0.384,2.053 0.926,2.596c0.543,0.543 1.383,0.926 2.596,0.926l23.919,0Zm-0,-1.666l-23.919,-0c-0.653,-0 -1.125,-0.146 -1.417,-0.438c-0.292,-0.293 -0.438,-0.765 -0.438,-1.418l-0,-33.403c-0,-0.653 0.146,-1.126 0.438,-1.418c0.292,-0.292 0.764,-0.438 1.417,-0.438l23.919,-0c0.653,-0 1.125,0.146 1.418,0.438c0.292,0.292 0.438,0.765 0.438,1.418l-0,6.031c-0,0.653 -0.146,1.125 -0.438,1.417c-0.293,0.292 -0.765,0.439 -1.418,0.439l-14.227,-0l-0,3.969l10.051,-0c0.653,-0 1.126,0.146 1.418,0.438c0.292,0.292 0.438,0.765 0.438,1.418l0,5.515c0,0.653 -0.146,1.126 -0.438,1.418c-0.292,0.292 -0.765,0.438 -1.418,0.438l-10.051,-0l-0,4.433l14.227,0c0.653,0 1.125,0.146 1.418,0.438c0.292,0.292 0.438,0.765 0.438,1.418l-0,6.031c-0,0.653 -0.146,1.125 -0.438,1.418c-0.293,0.292 -0.765,0.438 -1.418,0.438Z" style="fill:#808080;"/></g></g></g></svg>