<?xml version="1.0" encoding="UTF-8" standalone="no"?><!DOCTYPE svg PUBLIC "-//W3C//DTD SVG 1.1//EN" "http://www.w3.org/Graphics/SVG/1.1/DTD/svg11.dtd"><svg width="100%" height="100%" viewBox="0 0 332 82" version="1.1" xmlns="http://www.w3.org/2000/svg" xmlns:xlink="http://www.w3.org/1999/xlink" xml:space="preserve" xmlns:serif="http://www.serif.com/" style="fill-rule:evenodd;clip-rule:evenodd;stroke-linejoin:round;stroke-miterlimit:2;"><g><path d="M331.047,20.281c0,-11.193 -9.088,-20.281 -20.281,-20.281l-290.485,0c-11.193,0 -20.281,9.088 -20.281,20.281l-0,40.562c-0,11.194 9.088,20.282 20.281,20.282l290.485,-0c11.193,-0 20.281,-9.088 20.281,-20.282l0,-40.562Z" style="fill:#fff;"/><g><g><path d="M49.668,59.12l-16.289,-0c-0.653,-0 -1.125,-0.146 -1.417,-0.438c-0.293,-0.293 -0.439,-0.765 -0.439,-1.418l0,-6.031c0,-0.653 0.146,-1.126 0.439,-1.418c0.292,-0.292 0.764,-0.438 1.417,-0.438l13.867,0c0.446,0 0.781,-0.146 1.005,-0.438c0.223,-0.292 0.335,-0.644 0.335,-1.057c-0,-0.584 -0.112,-1.014 -0.335,-1.289c-0.224,-0.274 -0.559,-0.429 -1.005,-0.463l-7.733,-1.083c-2.405,-0.344 -4.338,-1.134 -5.799,-2.371c-1.46,-1.237 -2.191,-3.299 -2.191,-6.186l0,-5.413c0,-2.921 0.945,-5.163 2.836,-6.727c1.89,-1.563 4.501,-2.345 7.835,-2.345l14.433,-0c0.653,-0 1.126,0.146 1.418,0.438c0.292,0.292 0.438,0.765 0.438,1.418l0,6.134c0,0.653 -0.146,1.125 -0.438,1.417c-0.292,0.293 -0.765,0.439 -1.418,0.439l-12.01,-0c-0.447,-0 -0.791,0.146 -1.031,0.438c-0.241,0.292 -0.361,0.661 -0.361,1.108c-0,0.447 0.12,0.825 0.361,1.134c0.24,0.309 0.584,0.481 1.031,0.516l7.68,1.031c2.406,0.343 4.348,1.134 5.825,2.371c1.478,1.237 2.217,3.299 2.217,6.186l-0,5.412c-0,2.921 -0.954,5.164 -2.861,6.727c-1.907,1.564 -4.51,2.346 -7.81,2.346Z" style="fill-rule:nonzero;"/><path d="M43.526,47.502l-10.147,0c-1.283,0 -2.169,0.413 -2.743,0.987c-0.574,0.574 -0.988,1.461 -0.988,2.744l0,6.031c0,1.283 0.414,2.169 0.988,2.743c0.574,0.574 1.46,0.988 2.743,0.988c0,-0 16.289,-0 16.289,-0c3.81,-0 6.797,-0.965 8.999,-2.771c2.325,-1.906 3.547,-4.615 3.547,-8.177c-0,0 -0,-5.412 -0,-5.412c-0,-3.582 -1.055,-6.089 -2.888,-7.624c-1.719,-1.439 -3.965,-2.39 -6.763,-2.79l-3.694,-0.495l7.758,-0c1.284,-0 2.17,-0.414 2.744,-0.988c0.574,-0.574 0.987,-1.46 0.987,-2.743c0,-0 0,-6.134 0,-6.134c0,-1.283 -0.413,-2.17 -0.987,-2.744c-0.574,-0.574 -1.46,-0.987 -2.744,-0.987c0,-0 -14.433,-0 -14.433,-0c-3.851,-0 -6.847,0.969 -9.031,2.776c-2.303,1.905 -3.515,4.612 -3.515,8.171l0,5.413c0,3.578 1.044,6.083 2.854,7.617c1.703,1.442 3.942,2.396 6.746,2.796l4.278,0.599Zm6.142,11.618l-16.289,-0c-0.653,-0 -1.125,-0.146 -1.417,-0.438c-0.293,-0.293 -0.439,-0.765 -0.439,-1.418l0,-6.031c0,-0.653 0.146,-1.126 0.439,-1.418c0.292,-0.292 0.764,-0.438 1.417,-0.438l13.867,0c0.446,0 0.781,-0.146 1.005,-0.438c0.223,-0.292 0.335,-0.644 0.335,-1.057c-0,-0.584 -0.112,-1.014 -0.335,-1.289c-0.224,-0.274 -0.559,-0.429 -1.005,-0.463l-7.733,-1.083c-2.405,-0.344 -4.338,-1.134 -5.799,-2.371c-1.46,-1.237 -2.191,-3.299 -2.191,-6.186l0,-5.413c0,-2.921 0.945,-5.163 2.836,-6.727c1.89,-1.563 4.501,-2.345 7.835,-2.345l14.433,-0c0.653,-0 1.126,0.146 1.418,0.438c0.292,0.292 0.438,0.765 0.438,1.418l0,6.134c0,0.653 -0.146,1.125 -0.438,1.417c-0.292,0.293 -0.765,0.439 -1.418,0.439l-12.01,-0c-0.447,-0 -0.791,0.146 -1.031,0.438c-0.241,0.292 -0.361,0.661 -0.361,1.108c-0,0.447 0.12,0.825 0.361,1.134c0.24,0.309 0.584,0.481 1.031,0.516l7.68,1.031c2.406,0.343 4.348,1.134 5.825,2.371c1.478,1.237 2.217,3.299 2.217,6.186l-0,5.412c-0,2.921 -0.954,5.164 -2.861,6.727c-1.907,1.564 -4.51,2.346 -7.81,2.346Z" style="fill:#808080;"/><path d="M82.969,59.12l-8.351,-0c-0.653,-0 -1.126,-0.146 -1.418,-0.438c-0.292,-0.293 -0.438,-0.765 -0.438,-1.418l0,-25.31l-7.577,-0c-0.653,-0 -1.126,-0.146 -1.418,-0.438c-0.292,-0.293 -0.438,-0.765 -0.438,-1.418l-0,-6.237c-0,-0.653 0.146,-1.126 0.438,-1.418c0.292,-0.292 0.765,-0.438 1.418,-0.438l27.217,-0c0.653,-0 1.126,0.146 1.418,0.438c0.292,0.292 0.438,0.765 0.438,1.418l-0,6.237c-0,0.653 -0.146,1.125 -0.438,1.418c-0.292,0.292 -0.765,0.438 -1.418,0.438l-7.578,-0l0,25.31c0,0.653 -0.146,1.125 -0.438,1.418c-0.292,0.292 -0.764,0.438 -1.417,0.438Z" style="fill-rule:nonzero;"/><path d="M82.969,60.995c1.283,-0 2.169,-0.414 2.743,-0.988c0.574,-0.574 0.987,-1.46 0.987,-2.743l0,-23.435c0,-0 5.703,-0 5.703,-0c1.283,-0 2.169,-0.414 2.743,-0.988c0.575,-0.574 0.988,-1.46 0.988,-2.743l-0,-6.237c-0,-1.283 -0.413,-2.17 -0.988,-2.744c-0.574,-0.574 -1.46,-0.987 -2.743,-0.987c0,-0 -27.217,-0 -27.217,-0c-1.284,-0 -2.17,0.413 -2.744,0.987c-0.574,0.574 -0.987,1.461 -0.987,2.744c-0,-0 -0,6.237 -0,6.237c-0,1.283 0.413,2.169 0.987,2.743c0.574,0.574 1.46,0.988 2.744,0.988c-0,-0 5.702,-0 5.702,-0c0,-0 0,23.435 0,23.435c0,1.283 0.413,2.169 0.987,2.743c0.574,0.574 1.461,0.988 2.744,0.988c-0,-0 8.351,-0 8.351,-0Zm-0,-1.875l-8.351,-0c-0.653,-0 -1.126,-0.146 -1.418,-0.438c-0.292,-0.293 -0.438,-0.765 -0.438,-1.418l0,-25.31l-7.577,-0c-0.653,-0 -1.126,-0.146 -1.418,-0.438c-0.292,-0.293 -0.438,-0.765 -0.438,-1.418l-0,-6.237c-0,-0.653 0.146,-1.126 0.438,-1.418c0.292,-0.292 0.765,-0.438 1.418,-0.438l27.217,-0c0.653,-0 1.126,0.146 1.418,0.438c0.292,0.292 0.438,0.765 0.438,1.418l-0,6.237c-0,0.653 -0.146,1.125 -0.438,1.418c-0.292,0.292 -0.765,0.438 -1.418,0.438l-7.578,-0l0,25.31c0,0.653 -0.146,1.125 -0.438,1.418c-0.292,0.292 -0.764,0.438 -1.417,0.438Z" style="fill:#808080;"/><path d="M125.032,59.12l-23.918,-0c-0.653,-0 -1.126,-0.146 -1.418,-0.438c-0.292,-0.293 -0.438,-0.765 -0.438,-1.418l0,-33.403c0,-0.653 0.146,-1.126 0.438,-1.418c0.292,-0.292 0.765,-0.438 1.418,-0.438l23.918,-0c0.653,-0 1.126,0.146 1.418,0.438c0.292,0.292 0.438,0.765 0.438,1.418l0,6.031c0,0.653 -0.146,1.125 -0.438,1.417c-0.292,0.292 -0.765,0.439 -1.418,0.439l-14.227,-0l-0,3.969l10.052,-0c0.653,-0 1.125,0.146 1.417,0.438c0.293,0.292 0.439,0.765 0.439,1.418l-0,5.515c-0,0.653 -0.146,1.126 -0.439,1.418c-0.292,0.292 -0.764,0.438 -1.417,0.438l-10.052,-0l-0,4.433l14.227,0c0.653,0 1.126,0.146 1.418,0.438c0.292,0.292 0.438,0.765 0.438,1.418l0,6.031c0,0.653 -0.146,1.125 -0.438,1.418c-0.292,0.292 -0.765,0.438 -1.418,0.438Z" style="fill-rule:nonzero;"/><path d="M125.032,60.995c1.283,-0 2.17,-0.414 2.744,-0.988c0.574,-0.574 0.987,-1.46 0.987,-2.743c0,0 0,-6.031 0,-6.031c0,-1.283 -0.413,-2.17 -0.987,-2.744c-0.574,-0.574 -1.461,-0.987 -2.744,-0.987c0,0 -12.352,0 -12.352,0c-0,0 -0,-0.683 -0,-0.683c-0,-0 8.177,-0 8.177,-0c1.283,-0 2.169,-0.413 2.743,-0.987c0.574,-0.574 0.988,-1.461 0.988,-2.744c-0,0 -0,-5.515 -0,-5.515c-0,-1.284 -0.414,-2.17 -0.988,-2.744c-0.574,-0.574 -1.46,-0.987 -2.743,-0.987l-8.177,-0c-0,-0 -0,-0.219 -0,-0.219c-0,-0 12.352,-0 12.352,-0c1.283,-0 2.17,-0.414 2.744,-0.988c0.574,-0.574 0.987,-1.46 0.987,-2.743c0,-0 0,-6.031 0,-6.031c0,-1.283 -0.413,-2.17 -0.987,-2.744c-0.574,-0.574 -1.461,-0.987 -2.744,-0.987c0,-0 -23.918,-0 -23.918,-0c-1.283,-0 -2.17,0.413 -2.744,0.987c-0.574,0.574 -0.987,1.461 -0.987,2.744l0,33.403c0,1.283 0.413,2.169 0.987,2.743c0.574,0.574 1.461,0.988 2.744,0.988c-0,-0 23.918,-0 23.918,-0Zm0,-1.875l-23.918,-0c-0.653,-0 -1.126,-0.146 -1.418,-0.438c-0.292,-0.293 -0.438,-0.765 -0.438,-1.418l0,-33.403c0,-0.653 0.146,-1.126 0.438,-1.418c0.292,-0.292 0.765,-0.438 1.418,-0.438l23.918,-0c0.653,-0 1.126,0.146 1.418,0.438c0.292,0.292 0.438,0.765 0.438,1.418l0,6.031c0,0.653 -0.146,1.125 -0.438,1.417c-0.292,0.292 -0.765,0.439 -1.418,0.439l-14.227,-0l-0,3.969l10.052,-0c0.653,-0 1.125,0.146 1.417,0.438c0.293,0.292 0.439,0.765 0.439,1.418l-0,5.515c-0,0.653 -0.146,1.126 -0.439,1.418c-0.292,0.292 -0.764,0.438 -1.417,0.438l-10.052,-0l-0,4.433l14.227,0c0.653,0 1.126,0.146 1.418,0.438c0.292,0.292 0.438,0.765 0.438,1.418l0,6.031c0,0.653 -0.146,1.125 -0.438,1.418c-0.292,0.292 -0.765,0.438 -1.418,0.438Z" style="fill:#808080;"/><path d="M142.559,59.12l-7.733,-0c-0.652,-0 -1.125,-0.146 -1.417,-0.438c-0.292,-0.293 -0.438,-0.765 -0.438,-1.418l-0,-33.403c-0,-0.653 0.146,-1.126 0.438,-1.418c0.292,-0.292 0.765,-0.438 1.417,-0.438l5.362,-0c0.652,-0 1.211,0.103 1.675,0.309c0.464,0.206 0.919,0.567 1.366,1.083l10,11.443l0,-10.979c0,-0.653 0.146,-1.126 0.438,-1.418c0.293,-0.292 0.765,-0.438 1.418,-0.438l7.732,-0c0.653,-0 1.126,0.146 1.418,0.438c0.292,0.292 0.438,0.765 0.438,1.418l0,33.403c0,0.653 -0.146,1.125 -0.438,1.418c-0.292,0.292 -0.765,0.438 -1.418,0.438l-7.732,-0c-0.653,-0 -1.125,-0.146 -1.418,-0.438c-0.292,-0.293 -0.438,-0.765 -0.438,-1.418l0,-6.34l-8.815,-10.671l0,17.011c0,0.653 -0.146,1.125 -0.438,1.418c-0.292,0.292 -0.764,0.438 -1.417,0.438Z" style="fill-rule:nonzero;"/><path d="M142.559,60.995c1.283,-0 2.169,-0.414 2.743,-0.988c0.574,-0.574 0.987,-1.46 0.987,-2.743c0,0 0,-11.797 0,-11.797c0,-0 5.065,6.131 5.065,6.131c0,-0 0,5.666 0,5.666c0,1.283 0.414,2.169 0.988,2.743c0.574,0.574 1.46,0.988 2.743,0.988c0,-0 7.732,-0 7.732,-0c1.283,-0 2.17,-0.414 2.744,-0.988c0.574,-0.574 0.987,-1.46 0.987,-2.743c0,0 0,-33.403 0,-33.403c0,-1.283 -0.413,-2.17 -0.987,-2.744c-0.574,-0.574 -1.461,-0.987 -2.744,-0.987c0,-0 -7.732,-0 -7.732,-0c-1.283,-0 -2.169,0.413 -2.743,0.987c-0.574,0.574 -0.988,1.461 -0.988,2.744l0,5.984c0,0 -6.713,-7.682 -6.713,-7.682c-0.651,-0.751 -1.336,-1.26 -2.017,-1.562c-0.676,-0.301 -1.485,-0.471 -2.436,-0.471c-0,-0 -5.362,-0 -5.362,-0c-1.283,-0 -2.169,0.413 -2.743,0.987c-0.574,0.574 -0.987,1.461 -0.987,2.744l-0,33.403c-0,1.283 0.413,2.169 0.987,2.743c0.574,0.574 1.46,0.988 2.743,0.988c0,-0 7.733,-0 7.733,-0Zm-0,-1.875l-7.733,-0c-0.652,-0 -1.125,-0.146 -1.417,-0.438c-0.292,-0.293 -0.438,-0.765 -0.438,-1.418l-0,-33.403c-0,-0.653 0.146,-1.126 0.438,-1.418c0.292,-0.292 0.765,-0.438 1.417,-0.438l5.362,-0c0.652,-0 1.211,0.103 1.675,0.309c0.464,0.206 0.919,0.567 1.366,1.083l10,11.443l0,-10.979c0,-0.653 0.146,-1.126 0.438,-1.418c0.293,-0.292 0.765,-0.438 1.418,-0.438l7.732,-0c0.653,-0 1.126,0.146 1.418,0.438c0.292,0.292 0.438,0.765 0.438,1.418l0,33.403c0,0.653 -0.146,1.125 -0.438,1.418c-0.292,0.292 -0.765,0.438 -1.418,0.438l-7.732,-0c-0.653,-0 -1.125,-0.146 -1.418,-0.438c-0.292,-0.293 -0.438,-0.765 -0.438,-1.418l0,-6.34l-8.815,-10.671l0,17.011c0,0.653 -0.146,1.125 -0.438,1.418c-0.292,0.292 -0.764,0.438 -1.417,0.438Z" style="fill:#808080;"/><path d="M196.478,59.12l-12.577,-0c-4.296,-0 -7.484,-0.859 -9.563,-2.578c-2.079,-1.718 -3.118,-4.364 -3.118,-7.938l-0,-16.032c-0,-3.574 1.039,-6.228 3.118,-7.964c2.079,-1.735 5.267,-2.603 9.563,-2.603l12.577,-0c0.653,-0 1.126,0.146 1.418,0.438c0.292,0.292 0.438,0.765 0.438,1.418l0,6.237c0,0.653 -0.146,1.125 -0.438,1.418c-0.292,0.292 -0.765,0.438 -1.418,0.438l-10.361,-0c-1.065,-0 -1.856,0.215 -2.371,0.644c-0.516,0.43 -0.773,1.074 -0.773,1.933l-0,12.269c-0,0.859 0.257,1.486 0.773,1.881c0.515,0.395 1.306,0.593 2.371,0.593l10.361,0c0.653,0 1.126,0.146 1.418,0.438c0.292,0.292 0.438,0.765 0.438,1.418l0,6.134c0,0.653 -0.146,1.125 -0.438,1.418c-0.292,0.292 -0.765,0.438 -1.418,0.438Z" style="fill-rule:nonzero;"/><path d="M196.478,60.995c1.283,-0 2.17,-0.414 2.744,-0.988c0.574,-0.574 0.987,-1.46 0.987,-2.743c0,0 0,-6.134 0,-6.134c0,-1.283 -0.413,-2.17 -0.987,-2.744c-0.574,-0.574 -1.461,-0.987 -2.744,-0.987c0,0 -10.361,0 -10.361,0c-0.544,0 -0.967,-0.004 -1.23,-0.206c-0.1,-0.077 -0.039,-0.226 -0.039,-0.393l-0,-12.269c-0,-0.207 -0.026,-0.389 0.098,-0.493c0.25,-0.207 0.655,-0.209 1.171,-0.209c0,-0 10.361,-0 10.361,-0c1.283,-0 2.17,-0.414 2.744,-0.988c0.574,-0.574 0.987,-1.46 0.987,-2.743c0,-0 0,-6.237 0,-6.237c0,-1.283 -0.413,-2.17 -0.987,-2.744c-0.574,-0.574 -1.461,-0.987 -2.744,-0.987c0,-0 -12.577,-0 -12.577,-0c-4.848,-0 -8.418,1.08 -10.764,3.039c-2.465,2.057 -3.792,5.166 -3.792,9.403l-0,16.032c-0,4.242 1.331,7.344 3.799,9.384c2.345,1.938 5.912,3.007 10.757,3.007c-0,-0 12.577,-0 12.577,-0Zm0,-1.875l-12.577,-0c-4.296,-0 -7.484,-0.859 -9.563,-2.578c-2.079,-1.718 -3.118,-4.364 -3.118,-7.938l-0,-16.032c-0,-3.574 1.039,-6.228 3.118,-7.964c2.079,-1.735 5.267,-2.603 9.563,-2.603l12.577,-0c0.653,-0 1.126,0.146 1.418,0.438c0.292,0.292 0.438,0.765 0.438,1.418l0,6.237c0,0.653 -0.146,1.125 -0.438,1.418c-0.292,0.292 -0.765,0.438 -1.418,0.438l-10.361,-0c-1.065,-0 -1.856,0.215 -2.371,0.644c-0.516,0.43 -0.773,1.074 -0.773,1.933l-0,12.269c-0,0.859 0.257,1.486 0.773,1.881c0.515,0.395 1.306,0.593 2.371,0.593l10.361,0c0.653,0 1.126,0.146 1.418,0.438c0.292,0.292 0.438,0.765 0.438,1.418l0,6.134c0,0.653 -0.146,1.125 -0.438,1.418c-0.292,0.292 -0.765,0.438 -1.418,0.438Z" style="fill:#808080;"/><path d="M205.19,59.12c-0.653,-0 -1.125,-0.146 -1.417,-0.438c-0.293,-0.293 -0.439,-0.765 -0.439,-1.418l0,-6.134c0,-0.653 0.146,-1.126 0.439,-1.418c0.292,-0.292 0.764,-0.438 1.417,-0.438l5.103,0l0,-17.32l-5.103,-0c-0.653,-0 -1.125,-0.146 -1.417,-0.438c-0.293,-0.293 -0.439,-0.765 -0.439,-1.418l0,-6.237c0,-0.653 0.146,-1.126 0.439,-1.418c0.292,-0.292 0.764,-0.438 1.417,-0.438l21.96,-0c0.653,-0 1.125,0.146 1.417,0.438c0.292,0.292 0.438,0.765 0.438,1.418l0,6.237c0,0.653 -0.146,1.125 -0.438,1.418c-0.292,0.292 -0.764,0.438 -1.417,0.438l-5,-0l-0,17.32l5,0c0.653,0 1.125,0.146 1.417,0.438c0.292,0.292 0.438,0.765 0.438,1.418l0,6.134c0,0.653 -0.146,1.125 -0.438,1.418c-0.292,0.292 -0.764,0.438 -1.417,0.438l-21.96,-0Z" style="fill-rule:nonzero;"/><path d="M205.19,60.995l21.96,-0c1.283,-0 2.169,-0.414 2.743,-0.988c0.574,-0.574 0.987,-1.46 0.987,-2.743c0,0 0,-6.134 0,-6.134c0,-1.283 -0.413,-2.17 -0.987,-2.744c-0.574,-0.574 -1.46,-0.987 -2.743,-0.987c-0,0 -3.125,0 -3.125,0c-0,-0 -0,-13.57 -0,-13.57c-0,-0 3.125,-0 3.125,-0c1.283,-0 2.169,-0.414 2.743,-0.988c0.574,-0.574 0.987,-1.46 0.987,-2.743c0,-0 0,-6.237 0,-6.237c0,-1.283 -0.413,-2.17 -0.987,-2.744c-0.574,-0.574 -1.46,-0.987 -2.743,-0.987c-0,-0 -21.96,-0 -21.96,-0c-1.283,-0 -2.169,0.413 -2.743,0.987c-0.574,0.574 -0.988,1.461 -0.988,2.744l0,6.237c0,1.283 0.414,2.169 0.988,2.743c0.574,0.574 1.46,0.988 2.743,0.988c0,-0 3.228,-0 3.228,-0c0,-0 0,13.57 0,13.57c0,0 -3.228,0 -3.228,0c-1.283,0 -2.169,0.413 -2.743,0.987c-0.574,0.574 -0.988,1.461 -0.988,2.744l0,6.134c0,1.283 0.414,2.169 0.988,2.743c0.574,0.574 1.46,0.988 2.743,0.988Zm0,-1.875c-0.653,-0 -1.125,-0.146 -1.417,-0.438c-0.293,-0.293 -0.439,-0.765 -0.439,-1.418l0,-6.134c0,-0.653 0.146,-1.126 0.439,-1.418c0.292,-0.292 0.764,-0.438 1.417,-0.438l5.103,0l0,-17.32l-5.103,-0c-0.653,-0 -1.125,-0.146 -1.417,-0.438c-0.293,-0.293 -0.439,-0.765 -0.439,-1.418l0,-6.237c0,-0.653 0.146,-1.126 0.439,-1.418c0.292,-0.292 0.764,-0.438 1.417,-0.438l21.96,-0c0.653,-0 1.125,0.146 1.417,0.438c0.292,0.292 0.438,0.765 0.438,1.418l0,6.237c0,0.653 -0.146,1.125 -0.438,1.418c-0.292,0.292 -0.764,0.438 -1.417,0.438l-5,-0l-0,17.32l5,0c0.653,0 1.125,0.146 1.417,0.438c0.292,0.292 0.438,0.765 0.438,1.418l0,6.134c0,0.653 -0.146,1.125 -0.438,1.418c-0.292,0.292 -0.764,0.438 -1.417,0.438l-21.96,-0Z" style="fill:#808080;"/><path d="M263.44,59.12l-26.238,-0c-0.653,-0 -1.126,-0.146 -1.418,-0.438c-0.292,-0.293 -0.438,-0.765 -0.438,-1.418l-0,-33.403c-0,-0.653 0.146,-1.126 0.438,-1.418c0.292,-0.292 0.765,-0.438 1.418,-0.438l7.99,-0c0.653,-0 1.125,0.146 1.417,0.438c0.292,0.292 0.438,0.765 0.438,1.418l0,25.516l7.063,0l-0,-8.351c-0,-0.653 0.146,-1.125 0.438,-1.417c0.292,-0.292 0.764,-0.438 1.417,-0.438l7.475,-0c0.653,-0 1.125,0.146 1.417,0.438c0.293,0.292 0.439,0.764 0.439,1.417l-0,16.238c-0,0.653 -0.146,1.125 -0.439,1.418c-0.292,0.292 -0.764,0.438 -1.417,0.438Z" style="fill-rule:nonzero;"/><path d="M263.44,60.995c1.283,-0 2.169,-0.414 2.743,-0.988c0.574,-0.574 0.988,-1.46 0.988,-2.743l-0,-16.238c-0,-1.283 -0.414,-2.169 -0.988,-2.743c-0.574,-0.574 -1.46,-0.987 -2.743,-0.987l-7.475,-0c-1.283,-0 -2.169,0.413 -2.743,0.987c-0.574,0.574 -0.987,1.46 -0.987,2.743l-0,6.476c-0,0 -3.313,0 -3.313,0c0,0 0,-23.641 0,-23.641c0,-1.283 -0.413,-2.17 -0.987,-2.744c-0.574,-0.574 -1.46,-0.987 -2.743,-0.987c-0,-0 -7.99,-0 -7.99,-0c-1.283,-0 -2.17,0.413 -2.744,0.987c-0.574,0.574 -0.987,1.461 -0.987,2.744c-0,-0 -0,33.403 -0,33.403c-0,1.283 0.413,2.169 0.987,2.743c0.574,0.574 1.461,0.988 2.744,0.988c-0,-0 26.238,-0 26.238,-0Zm-0,-1.875l-26.238,-0c-0.653,-0 -1.126,-0.146 -1.418,-0.438c-0.292,-0.293 -0.438,-0.765 -0.438,-1.418l-0,-33.403c-0,-0.653 0.146,-1.126 0.438,-1.418c0.292,-0.292 0.765,-0.438 1.418,-0.438l7.99,-0c0.653,-0 1.125,0.146 1.417,0.438c0.292,0.292 0.438,0.765 0.438,1.418l0,25.516l7.063,0l-0,-8.351c-0,-0.653 0.146,-1.125 0.438,-1.417c0.292,-0.292 0.764,-0.438 1.417,-0.438l7.475,-0c0.653,-0 1.125,0.146 1.417,0.438c0.293,0.292 0.439,0.764 0.439,1.417l-0,16.238c-0,0.653 -0.146,1.125 -0.439,1.418c-0.292,0.292 -0.764,0.438 -1.417,0.438Z" style="fill:#808080;"/><path d="M288.389,59.12l-16.289,-0c-0.653,-0 -1.125,-0.146 -1.418,-0.438c-0.292,-0.293 -0.438,-0.765 -0.438,-1.418l0,-6.031c0,-0.653 0.146,-1.126 0.438,-1.418c0.293,-0.292 0.765,-0.438 1.418,-0.438l13.867,0c0.446,0 0.781,-0.146 1.005,-0.438c0.223,-0.292 0.335,-0.644 0.335,-1.057c-0,-0.584 -0.112,-1.014 -0.335,-1.289c-0.224,-0.274 -0.559,-0.429 -1.005,-0.463l-7.733,-1.083c-2.405,-0.344 -4.338,-1.134 -5.799,-2.371c-1.46,-1.237 -2.191,-3.299 -2.191,-6.186l0,-5.413c0,-2.921 0.945,-5.163 2.835,-6.727c1.891,-1.563 4.502,-2.345 7.836,-2.345l14.433,-0c0.653,-0 1.126,0.146 1.418,0.438c0.292,0.292 0.438,0.765 0.438,1.418l0,6.134c0,0.653 -0.146,1.125 -0.438,1.417c-0.292,0.293 -0.765,0.439 -1.418,0.439l-12.01,-0c-0.447,-0 -0.791,0.146 -1.031,0.438c-0.241,0.292 -0.361,0.661 -0.361,1.108c-0,0.447 0.12,0.825 0.361,1.134c0.24,0.309 0.584,0.481 1.031,0.516l7.68,1.031c2.406,0.343 4.348,1.134 5.825,2.371c1.478,1.237 2.217,3.299 2.217,6.186l-0,5.412c-0,2.921 -0.954,5.164 -2.861,6.727c-1.907,1.564 -4.511,2.346 -7.81,2.346Z" style="fill-rule:nonzero;"/><path d="M282.247,47.502l-10.147,0c-1.283,0 -2.169,0.413 -2.743,0.987c-0.574,0.574 -0.988,1.461 -0.988,2.744c0,-0 0,6.031 0,6.031c0,1.283 0.414,2.169 0.988,2.743c0.574,0.574 1.46,0.988 2.743,0.988c0,-0 16.289,-0 16.289,-0c3.81,-0 6.796,-0.965 8.999,-2.771c2.325,-1.906 3.547,-4.615 3.547,-8.177c-0,0 -0,-5.412 -0,-5.412c-0,-3.582 -1.055,-6.089 -2.888,-7.624c-1.719,-1.439 -3.965,-2.39 -6.764,-2.79l-3.693,-0.495l7.758,-0c1.283,-0 2.17,-0.414 2.744,-0.988c0.574,-0.574 0.987,-1.46 0.987,-2.743c0,-0 0,-6.134 0,-6.134c0,-1.283 -0.413,-2.17 -0.987,-2.744c-0.574,-0.574 -1.461,-0.987 -2.744,-0.987c0,-0 -14.433,-0 -14.433,-0c-3.851,-0 -6.847,0.969 -9.031,2.776c-2.303,1.905 -3.515,4.612 -3.515,8.171c0,0 0,5.413 0,5.413c0,3.578 1.044,6.083 2.854,7.617c1.703,1.442 3.942,2.396 6.746,2.796l4.278,0.599Zm6.142,11.618l-16.289,-0c-0.653,-0 -1.125,-0.146 -1.418,-0.438c-0.292,-0.293 -0.438,-0.765 -0.438,-1.418l0,-6.031c0,-0.653 0.146,-1.126 0.438,-1.418c0.293,-0.292 0.765,-0.438 1.418,-0.438l13.867,0c0.446,0 0.781,-0.146 1.005,-0.438c0.223,-0.292 0.335,-0.644 0.335,-1.057c-0,-0.584 -0.112,-1.014 -0.335,-1.289c-0.224,-0.274 -0.559,-0.429 -1.005,-0.463l-7.733,-1.083c-2.405,-0.344 -4.338,-1.134 -5.799,-2.371c-1.46,-1.237 -2.191,-3.299 -2.191,-6.186l0,-5.413c0,-2.921 0.945,-5.163 2.835,-6.727c1.891,-1.563 4.502,-2.345 7.836,-2.345l14.433,-0c0.653,-0 1.126,0.146 1.418,0.438c0.292,0.292 0.438,0.765 0.438,1.418l0,6.134c0,0.653 -0.146,1.125 -0.438,1.417c-0.292,0.293 -0.765,0.439 -1.418,0.439l-12.01,-0c-0.447,-0 -0.791,0.146 -1.031,0.438c-0.241,0.292 -0.361,0.661 -0.361,1.108c-0,0.447 0.12,0.825 0.361,1.134c0.24,0.309 0.584,0.481 1.031,0.516l7.68,1.031c2.406,0.343 4.348,1.134 5.825,2.371c1.478,1.237 2.217,3.299 2.217,6.186l-0,5.412c-0,2.921 -0.954,5.164 -2.861,6.727c-1.907,1.564 -4.511,2.346 -7.81,2.346Z" style="fill:#808080;"/></g></g></g></svg>