<?xml version="1.0" encoding="UTF-8" standalone="no"?><!DOCTYPE svg PUBLIC "-//W3C//DTD SVG 1.1//EN" "http://www.w3.org/Graphics/SVG/1.1/DTD/svg11.dtd"><svg width="100%" height="100%" viewBox="0 0 332 82" version="1.1" xmlns="http://www.w3.org/2000/svg" xmlns:xlink="http://www.w3.org/1999/xlink" xml:space="preserve" xmlns:serif="http://www.serif.com/" style="fill-rule:evenodd;clip-rule:evenodd;stroke-linejoin:round;stroke-miterlimit:2;"><g><path d="M331.047,20.281c0,-11.193 -9.088,-20.281 -20.281,-20.281l-290.485,0c-11.193,0 -20.281,9.088 -20.281,20.281l-0,40.562c-0,11.194 9.088,20.282 20.281,20.282l290.485,-0c11.193,-0 20.281,-9.088 20.281,-20.282l0,-40.562Z" style="fill:#fff;"/><g><g transform="matrix(1,0,0,1,-246.457,-448.319)"><text x="275.352px" y="507.439px" style="font-family:'Bungee-Regular', 'Bungee';font-size:51.548px;">S<tspan x="308.343px " y="507.439px ">T</tspan>ENCILS</text><path d="M289.984,495.821l-10.147,0c-1.284,0 -2.17,0.413 -2.744,0.987c-0.574,0.574 -0.987,1.461 -0.987,2.744l-0,6.031c-0,1.283 0.413,2.169 0.987,2.743c0.574,0.574 1.46,0.988 2.744,0.988c-0,-0 16.289,-0 16.289,-0c3.809,-0 6.796,-0.965 8.998,-2.771c2.326,-1.906 3.547,-4.615 3.547,-8.177c0,0 0,-5.412 0,-5.412c0,-3.582 -1.054,-6.089 -2.888,-7.624c-1.719,-1.439 -3.965,-2.39 -6.763,-2.79l-3.694,-0.495l7.759,-0c1.283,-0 2.169,-0.414 2.743,-0.988c0.574,-0.574 0.988,-1.46 0.988,-2.743c-0,-0 -0,-6.134 -0,-6.134c-0,-1.283 -0.414,-2.17 -0.988,-2.744c-0.574,-0.574 -1.46,-0.987 -2.743,-0.987c-0,-0 -14.434,-0 -14.434,-0c-3.85,-0 -6.847,0.969 -9.03,2.776c-2.303,1.905 -3.515,4.612 -3.515,8.171l-0,5.413c-0,3.578 1.043,6.083 2.854,7.617c1.702,1.442 3.942,2.396 6.746,2.796l4.278,0.599Zm6.142,11.618l-16.289,-0c-0.653,-0 -1.126,-0.146 -1.418,-0.438c-0.292,-0.292 -0.438,-0.765 -0.438,-1.418l-0,-6.031c-0,-0.653 0.146,-1.126 0.438,-1.418c0.292,-0.292 0.765,-0.438 1.418,-0.438l13.866,0c0.447,0 0.782,-0.146 1.005,-0.438c0.224,-0.292 0.335,-0.644 0.335,-1.057c0,-0.584 -0.111,-1.014 -0.335,-1.288c-0.223,-0.275 -0.558,-0.43 -1.005,-0.464l-7.732,-1.083c-2.406,-0.344 -4.339,-1.134 -5.799,-2.371c-1.461,-1.237 -2.191,-3.299 -2.191,-6.186l-0,-5.413c-0,-2.921 0.945,-5.163 2.835,-6.727c1.89,-1.563 4.502,-2.345 7.835,-2.345l14.434,-0c0.653,-0 1.125,0.146 1.417,0.438c0.293,0.292 0.439,0.765 0.439,1.418l-0,6.134c-0,0.653 -0.146,1.125 -0.439,1.417c-0.292,0.293 -0.764,0.439 -1.417,0.439l-12.011,-0c-0.447,-0 -0.79,0.146 -1.031,0.438c-0.24,0.292 -0.361,0.661 -0.361,1.108c0,0.447 0.121,0.825 0.361,1.134c0.241,0.309 0.584,0.481 1.031,0.516l7.681,1.031c2.405,0.343 4.347,1.134 5.825,2.371c1.478,1.237 2.216,3.299 2.216,6.186l0,5.412c0,2.921 -0.953,5.164 -2.861,6.727c-1.907,1.564 -4.51,2.346 -7.809,2.346Z" style="fill:#808080;"/><path d="M329.426,509.314c1.283,-0 2.17,-0.414 2.744,-0.988c0.574,-0.574 0.987,-1.46 0.987,-2.743l-0,-23.435c-0,-0 5.703,-0 5.703,-0c1.283,-0 2.169,-0.414 2.743,-0.988c0.574,-0.574 0.987,-1.46 0.987,-2.743l0,-6.237c0,-1.283 -0.413,-2.17 -0.987,-2.744c-0.574,-0.574 -1.46,-0.987 -2.743,-0.987c-0,-0 -27.218,-0 -27.218,-0c-1.283,-0 -2.169,0.413 -2.743,0.987c-0.574,0.574 -0.988,1.461 -0.988,2.744c0,-0 0,6.237 0,6.237c0,1.283 0.414,2.169 0.988,2.743c0.574,0.574 1.46,0.988 2.743,0.988c-0,-0 5.703,-0 5.703,-0c-0,-0 -0,23.435 -0,23.435c-0,1.283 0.413,2.169 0.987,2.743c0.574,0.574 1.46,0.988 2.743,0.988c0,-0 8.351,-0 8.351,-0Zm0,-1.875l-8.351,-0c-0.653,-0 -1.125,-0.146 -1.417,-0.438c-0.292,-0.292 -0.438,-0.765 -0.438,-1.418l-0,-25.31l-7.578,-0c-0.653,-0 -1.126,-0.146 -1.418,-0.438c-0.292,-0.293 -0.438,-0.765 -0.438,-1.418l0,-6.237c0,-0.653 0.146,-1.126 0.438,-1.418c0.292,-0.292 0.765,-0.438 1.418,-0.438l27.218,-0c0.652,-0 1.125,0.146 1.417,0.438c0.292,0.292 0.438,0.765 0.438,1.418l0,6.237c0,0.653 -0.146,1.125 -0.438,1.418c-0.292,0.292 -0.765,0.438 -1.417,0.438l-7.578,-0l-0,25.31c-0,0.653 -0.146,1.126 -0.438,1.418c-0.292,0.292 -0.765,0.438 -1.418,0.438Z" style="fill:#808080;"/><path d="M371.49,509.314c1.283,-0 2.169,-0.414 2.743,-0.988c0.574,-0.574 0.987,-1.46 0.987,-2.743c0,0 0,-6.031 0,-6.031c0,-1.283 -0.413,-2.17 -0.987,-2.744c-0.574,-0.574 -1.46,-0.987 -2.743,-0.987c-0,0 -12.353,0 -12.353,0c0,0 0,-0.683 0,-0.683c0,-0 8.177,-0 8.177,-0c1.283,-0 2.17,-0.413 2.744,-0.987c0.574,-0.574 0.987,-1.461 0.987,-2.744c0,0 0,-5.515 0,-5.515c0,-1.284 -0.413,-2.17 -0.987,-2.744c-0.574,-0.574 -1.461,-0.987 -2.744,-0.987l-8.177,-0c0,-0 0,-0.219 0,-0.219c0,-0 12.353,-0 12.353,-0c1.283,-0 2.169,-0.414 2.743,-0.988c0.574,-0.574 0.987,-1.46 0.987,-2.743c0,-0 0,-6.031 0,-6.031c0,-1.283 -0.413,-2.17 -0.987,-2.744c-0.574,-0.574 -1.46,-0.987 -2.743,-0.987c-0,-0 -23.919,-0 -23.919,-0c-1.283,-0 -2.169,0.413 -2.743,0.987c-0.574,0.574 -0.988,1.461 -0.988,2.744l0,33.403c0,1.283 0.414,2.169 0.988,2.743c0.574,0.574 1.46,0.988 2.743,0.988c0,-0 23.919,-0 23.919,-0Zm-0,-1.875l-23.919,-0c-0.653,-0 -1.125,-0.146 -1.417,-0.438c-0.292,-0.292 -0.439,-0.765 -0.439,-1.418l0,-33.403c0,-0.653 0.147,-1.126 0.439,-1.418c0.292,-0.292 0.764,-0.438 1.417,-0.438l23.919,-0c0.653,-0 1.125,0.146 1.417,0.438c0.292,0.292 0.438,0.765 0.438,1.418l0,6.031c0,0.653 -0.146,1.125 -0.438,1.417c-0.292,0.293 -0.764,0.439 -1.417,0.439l-14.228,-0l0,3.969l10.052,-0c0.653,-0 1.126,0.146 1.418,0.438c0.292,0.292 0.438,0.765 0.438,1.418l0,5.515c0,0.653 -0.146,1.126 -0.438,1.418c-0.292,0.292 -0.765,0.438 -1.418,0.438l-10.052,-0l0,4.433l14.228,0c0.653,0 1.125,0.146 1.417,0.438c0.292,0.292 0.438,0.765 0.438,1.418l0,6.031c0,0.653 -0.146,1.126 -0.438,1.418c-0.292,0.292 -0.764,0.438 -1.417,0.438Z" style="fill:#808080;"/><path d="M389.016,509.314c1.283,-0 2.17,-0.414 2.744,-0.988c0.574,-0.574 0.987,-1.46 0.987,-2.743c-0,0 -0,-11.797 -0,-11.797c-0,-0 5.065,6.131 5.065,6.131c-0,-0 -0,5.666 -0,5.666c-0,1.283 0.413,2.169 0.987,2.743c0.574,0.574 1.46,0.988 2.743,0.988c0,-0 7.733,-0 7.733,-0c1.283,-0 2.169,-0.414 2.743,-0.988c0.574,-0.574 0.987,-1.46 0.987,-2.743c0,0 0,-33.403 0,-33.403c0,-1.283 -0.413,-2.17 -0.987,-2.744c-0.574,-0.574 -1.46,-0.987 -2.743,-0.987c-0,-0 -7.733,-0 -7.733,-0c-1.283,-0 -2.169,0.413 -2.743,0.987c-0.574,0.574 -0.987,1.461 -0.987,2.744l-0,5.984c-0,0 -6.714,-7.682 -6.714,-7.682c-0.651,-0.751 -1.335,-1.26 -2.016,-1.562c-0.676,-0.301 -1.486,-0.471 -2.437,-0.471c-0,-0 -5.361,-0 -5.361,-0c-1.283,-0 -2.17,0.413 -2.744,0.987c-0.574,0.574 -0.987,1.461 -0.987,2.744l0,33.403c0,1.283 0.413,2.169 0.987,2.743c0.574,0.574 1.461,0.988 2.744,0.988c-0,-0 7.732,-0 7.732,-0Zm0,-1.875l-7.732,-0c-0.653,-0 -1.126,-0.146 -1.418,-0.438c-0.292,-0.292 -0.438,-0.765 -0.438,-1.418l0,-33.403c0,-0.653 0.146,-1.126 0.438,-1.418c0.292,-0.292 0.765,-0.438 1.418,-0.438l5.361,-0c0.653,-0 1.211,0.103 1.675,0.309c0.464,0.206 0.92,0.567 1.366,1.083l10.001,11.443l-0,-10.979c-0,-0.653 0.146,-1.126 0.438,-1.418c0.292,-0.292 0.764,-0.438 1.417,-0.438l7.733,-0c0.653,-0 1.125,0.146 1.417,0.438c0.292,0.292 0.438,0.765 0.438,1.418l0,33.403c0,0.653 -0.146,1.126 -0.438,1.418c-0.292,0.292 -0.764,0.438 -1.417,0.438l-7.733,-0c-0.653,-0 -1.125,-0.146 -1.417,-0.438c-0.292,-0.292 -0.438,-0.765 -0.438,-1.418l-0,-6.34l-8.815,-10.671l-0,17.011c-0,0.653 -0.146,1.126 -0.438,1.418c-0.292,0.292 -0.765,0.438 -1.418,0.438Z" style="fill:#808080;"/><path d="M442.936,509.314c1.283,-0 2.169,-0.414 2.743,-0.988c0.574,-0.574 0.988,-1.46 0.988,-2.743c-0,0 -0,-6.134 -0,-6.134c-0,-1.283 -0.414,-2.17 -0.988,-2.744c-0.574,-0.574 -1.46,-0.987 -2.743,-0.987c-0,0 -10.361,0 -10.361,0c-0.544,0 -0.968,-0.004 -1.231,-0.206c-0.1,-0.077 -0.039,-0.226 -0.039,-0.393l0,-12.269c0,-0.207 -0.026,-0.389 0.099,-0.492c0.249,-0.208 0.655,-0.21 1.171,-0.21c-0,-0 10.361,-0 10.361,-0c1.283,-0 2.169,-0.414 2.743,-0.988c0.574,-0.574 0.988,-1.46 0.988,-2.743c-0,0 -0,-6.237 -0,-6.237c-0,-1.283 -0.414,-2.17 -0.988,-2.744c-0.574,-0.574 -1.46,-0.987 -2.743,-0.987c-0,-0 -12.578,-0 -12.578,-0c-4.848,-0 -8.417,1.08 -10.764,3.039c-2.464,2.057 -3.792,5.166 -3.792,9.403l0,16.032c0,4.242 1.331,7.344 3.799,9.384c2.345,1.938 5.912,3.007 10.757,3.007c0,-0 12.578,-0 12.578,-0Zm-0,-1.875l-12.578,-0c-4.296,-0 -7.483,-0.859 -9.562,-2.578c-2.079,-1.718 -3.119,-4.364 -3.119,-7.938l0,-16.032c0,-3.574 1.04,-6.228 3.119,-7.964c2.079,-1.735 5.266,-2.603 9.562,-2.603l12.578,-0c0.653,-0 1.125,0.146 1.417,0.438c0.293,0.292 0.439,0.765 0.439,1.418l-0,6.237c-0,0.653 -0.146,1.125 -0.439,1.418c-0.292,0.292 -0.764,0.438 -1.417,0.438l-10.361,-0c-1.066,-0 -1.856,0.215 -2.372,0.644c-0.515,0.43 -0.773,1.074 -0.773,1.933l0,12.269c0,0.859 0.258,1.486 0.773,1.881c0.516,0.395 1.306,0.593 2.372,0.593l10.361,0c0.653,0 1.125,0.146 1.417,0.438c0.293,0.292 0.439,0.765 0.439,1.418l-0,6.134c-0,0.653 -0.146,1.126 -0.439,1.418c-0.292,0.292 -0.764,0.438 -1.417,0.438Z" style="fill:#808080;"/><path d="M451.648,509.314l21.959,-0c1.283,-0 2.17,-0.414 2.744,-0.988c0.574,-0.574 0.987,-1.46 0.987,-2.743c-0,0 -0,-6.134 -0,-6.134c-0,-1.283 -0.413,-2.17 -0.987,-2.744c-0.574,-0.574 -1.461,-0.987 -2.744,-0.987c0,0 -3.125,0 -3.125,0c-0,0 -0,-13.57 -0,-13.57c-0,-0 3.125,-0 3.125,-0c1.283,-0 2.17,-0.414 2.744,-0.988c0.574,-0.574 0.987,-1.46 0.987,-2.743c-0,0 -0,-6.237 -0,-6.237c-0,-1.283 -0.413,-2.17 -0.987,-2.744c-0.574,-0.574 -1.461,-0.987 -2.744,-0.987c0,-0 -21.959,-0 -21.959,-0c-1.284,-0 -2.17,0.413 -2.744,0.987c-0.574,0.574 -0.987,1.461 -0.987,2.744l-0,6.237c-0,1.283 0.413,2.169 0.987,2.743c0.574,0.574 1.46,0.988 2.744,0.988c-0,-0 3.228,-0 3.228,-0c-0,-0 -0,13.57 -0,13.57c-0,0 -3.228,0 -3.228,0c-1.284,0 -2.17,0.413 -2.744,0.987c-0.574,0.574 -0.987,1.461 -0.987,2.744l-0,6.134c-0,1.283 0.413,2.169 0.987,2.743c0.574,0.574 1.46,0.988 2.744,0.988Zm-0,-1.875c-0.653,-0 -1.126,-0.146 -1.418,-0.438c-0.292,-0.292 -0.438,-0.765 -0.438,-1.418l-0,-6.134c-0,-0.653 0.146,-1.126 0.438,-1.418c0.292,-0.292 0.765,-0.438 1.418,-0.438l5.103,0l-0,-17.32l-5.103,-0c-0.653,-0 -1.126,-0.146 -1.418,-0.438c-0.292,-0.293 -0.438,-0.765 -0.438,-1.418l-0,-6.237c-0,-0.653 0.146,-1.126 0.438,-1.418c0.292,-0.292 0.765,-0.438 1.418,-0.438l21.959,-0c0.653,-0 1.126,0.146 1.418,0.438c0.292,0.292 0.438,0.765 0.438,1.418l-0,6.237c-0,0.653 -0.146,1.125 -0.438,1.418c-0.292,0.292 -0.765,0.438 -1.418,0.438l-5,-0l-0,17.32l5,0c0.653,0 1.126,0.146 1.418,0.438c0.292,0.292 0.438,0.765 0.438,1.418l-0,6.134c-0,0.653 -0.146,1.126 -0.438,1.418c-0.292,0.292 -0.765,0.438 -1.418,0.438l-21.959,-0Z" style="fill:#808080;"/><path d="M509.897,509.314c1.283,-0 2.17,-0.414 2.744,-0.988c0.574,-0.574 0.987,-1.46 0.987,-2.743l0,-16.238c0,-1.283 -0.413,-2.169 -0.987,-2.743c-0.574,-0.574 -1.461,-0.987 -2.744,-0.987l-7.474,-0c-1.283,-0 -2.17,0.413 -2.744,0.987c-0.574,0.574 -0.987,1.46 -0.987,2.743l0,6.476c0,0 -3.312,0 -3.312,0c-0,0 -0,-23.641 -0,-23.641c-0,-1.283 -0.413,-2.17 -0.987,-2.744c-0.574,-0.574 -1.461,-0.987 -2.744,-0.987c0,-0 -7.99,-0 -7.99,-0c-1.283,-0 -2.169,0.413 -2.743,0.987c-0.574,0.574 -0.988,1.461 -0.988,2.744c0,-0 0,33.403 0,33.403c0,1.283 0.414,2.169 0.988,2.743c0.574,0.574 1.46,0.988 2.743,0.988c0,-0 26.238,-0 26.238,-0Zm0,-1.875l-26.238,-0c-0.653,-0 -1.125,-0.146 -1.417,-0.438c-0.293,-0.292 -0.439,-0.765 -0.439,-1.418l0,-33.403c0,-0.653 0.146,-1.126 0.439,-1.418c0.292,-0.292 0.764,-0.438 1.417,-0.438l7.99,-0c0.653,-0 1.126,0.146 1.418,0.438c0.292,0.292 0.438,0.765 0.438,1.418l-0,25.516l7.062,0l0,-8.351c0,-0.653 0.146,-1.125 0.438,-1.417c0.292,-0.292 0.765,-0.438 1.418,-0.438l7.474,-0c0.653,-0 1.126,0.146 1.418,0.438c0.292,0.292 0.438,0.764 0.438,1.417l0,16.238c0,0.653 -0.146,1.126 -0.438,1.418c-0.292,0.292 -0.765,0.438 -1.418,0.438Z" style="fill:#808080;"/><path d="M528.704,495.821l-10.147,0c-1.283,0 -2.169,0.413 -2.743,0.987c-0.574,0.574 -0.987,1.461 -0.987,2.744c-0,-0 -0,6.031 -0,6.031c-0,1.283 0.413,2.169 0.987,2.743c0.574,0.574 1.46,0.988 2.743,0.988c0,-0 16.29,-0 16.29,-0c3.809,-0 6.796,-0.965 8.998,-2.771c2.326,-1.906 3.547,-4.615 3.547,-8.177c0,0 0,-5.412 0,-5.412c0,-3.582 -1.054,-6.089 -2.888,-7.624c-1.719,-1.439 -3.965,-2.39 -6.763,-2.79l-3.694,-0.495l7.759,-0c1.283,-0 2.169,-0.414 2.743,-0.988c0.574,-0.574 0.988,-1.46 0.988,-2.743c-0,-0 -0,-6.134 -0,-6.134c-0,-1.283 -0.414,-2.17 -0.988,-2.744c-0.574,-0.574 -1.46,-0.987 -2.743,-0.987c-0,-0 -14.434,-0 -14.434,-0c-3.85,-0 -6.847,0.969 -9.03,2.776c-2.304,1.905 -3.515,4.612 -3.515,8.171c-0,0 -0,5.413 -0,5.413c-0,3.578 1.043,6.083 2.854,7.617c1.702,1.442 3.942,2.396 6.746,2.796l4.277,0.599Zm6.143,11.618l-16.29,-0c-0.653,-0 -1.125,-0.146 -1.417,-0.438c-0.292,-0.292 -0.438,-0.765 -0.438,-1.418l-0,-6.031c-0,-0.653 0.146,-1.126 0.438,-1.418c0.292,-0.292 0.764,-0.438 1.417,-0.438l13.867,0c0.447,0 0.782,-0.146 1.005,-0.438c0.224,-0.292 0.335,-0.644 0.335,-1.057c0,-0.584 -0.111,-1.014 -0.335,-1.288c-0.223,-0.275 -0.558,-0.43 -1.005,-0.464l-7.732,-1.083c-2.406,-0.344 -4.339,-1.134 -5.8,-2.371c-1.46,-1.237 -2.19,-3.299 -2.19,-6.186l-0,-5.413c-0,-2.921 0.945,-5.163 2.835,-6.727c1.89,-1.563 4.502,-2.345 7.835,-2.345l14.434,-0c0.653,-0 1.125,0.146 1.417,0.438c0.292,0.292 0.439,0.765 0.439,1.418l-0,6.134c-0,0.653 -0.147,1.125 -0.439,1.417c-0.292,0.293 -0.764,0.439 -1.417,0.439l-12.011,-0c-0.447,-0 -0.79,0.146 -1.031,0.438c-0.241,0.292 -0.361,0.661 -0.361,1.108c0,0.447 0.12,0.825 0.361,1.134c0.241,0.309 0.584,0.481 1.031,0.516l7.681,1.031c2.405,0.343 4.347,1.134 5.825,2.371c1.477,1.237 2.216,3.299 2.216,6.186l0,5.412c0,2.921 -0.953,5.164 -2.861,6.727c-1.907,1.564 -4.51,2.346 -7.809,2.346Z" style="fill:#808080;"/></g></g></g></svg>