<?xml version="1.0" encoding="UTF-8" standalone="no"?>
<!DOCTYPE svg PUBLIC "-//W3C//DTD SVG 1.1//EN" "http://www.w3.org/Graphics/SVG/1.1/DTD/svg11.dtd">
<svg width="100%" height="100%" viewBox="0 0 294 42" version="1.1" xmlns="http://www.w3.org/2000/svg" xmlns:xlink="http://www.w3.org/1999/xlink" xml:space="preserve" xmlns:serif="http://www.serif.com/" style="fill-rule:evenodd;clip-rule:evenodd;stroke-linejoin:round;stroke-miterlimit:2;">
    <g transform="matrix(1,0,0,1,-365.493,-580.753)">
        <g>
            <path d="M384.899,619.957L367.478,619.957C366.779,619.957 366.274,619.806 365.962,619.503C365.649,619.199 365.493,618.709 365.493,618.031L365.493,611.768C365.493,611.09 365.649,610.6 365.962,610.296C366.274,609.993 366.779,609.841 367.478,609.841L382.308,609.841C382.786,609.841 383.144,609.69 383.383,609.386C383.622,609.083 383.741,608.717 383.741,608.289C383.741,607.682 383.622,607.236 383.383,606.951C383.144,606.665 382.786,606.505 382.308,606.469L374.038,605.345C371.466,604.988 369.398,604.168 367.836,602.883C366.274,601.598 365.493,599.457 365.493,596.46L365.493,590.84C365.493,587.807 366.504,585.478 368.525,583.855C370.547,582.231 373.34,581.419 376.905,581.419L392.342,581.419C393.04,581.419 393.545,581.571 393.858,581.874C394.17,582.178 394.326,582.668 394.326,583.346L394.326,589.716C394.326,590.394 394.17,590.884 393.858,591.188C393.545,591.491 393.04,591.643 392.342,591.643L379.496,591.643C379.018,591.643 378.651,591.794 378.394,592.098C378.136,592.401 378.008,592.785 378.008,593.248C378.008,593.712 378.136,594.105 378.394,594.426C378.651,594.747 379.018,594.926 379.496,594.961L387.711,596.032C390.283,596.389 392.36,597.209 393.94,598.494C395.521,599.779 396.311,601.92 396.311,604.917L396.311,610.537C396.311,613.57 395.291,615.899 393.251,617.522C391.212,619.146 388.427,619.957 384.899,619.957ZM420.53,619.957L411.598,619.957C410.9,619.957 410.395,619.806 410.082,619.503C409.77,619.199 409.614,618.709 409.614,618.031L409.614,591.75L401.509,591.75C400.811,591.75 400.306,591.598 399.993,591.295C399.681,590.991 399.525,590.501 399.525,589.823L399.525,583.346C399.525,582.668 399.681,582.178 399.993,581.874C400.306,581.571 400.811,581.419 401.509,581.419L430.618,581.419C431.317,581.419 431.822,581.571 432.135,581.874C432.447,582.178 432.603,582.668 432.603,583.346L432.603,589.823C432.603,590.501 432.447,590.991 432.135,591.295C431.822,591.598 431.317,591.75 430.618,591.75L422.514,591.75L422.514,618.031C422.514,618.709 422.358,619.199 422.046,619.503C421.733,619.806 421.228,619.957 420.53,619.957ZM465.516,619.957L439.935,619.957C439.237,619.957 438.732,619.806 438.419,619.503C438.107,619.199 437.951,618.709 437.951,618.031L437.951,583.346C437.951,582.668 438.107,582.178 438.419,581.874C438.732,581.571 439.237,581.419 439.935,581.419L465.516,581.419C466.214,581.419 466.72,581.571 467.032,581.874C467.345,582.178 467.501,582.668 467.501,583.346L467.501,589.609C467.501,590.287 467.345,590.777 467.032,591.081C466.72,591.384 466.214,591.536 465.516,591.536L450.3,591.536L450.3,595.657L461.051,595.657C461.749,595.657 462.254,595.809 462.567,596.112C462.879,596.415 463.035,596.906 463.035,597.584L463.035,603.311C463.035,603.989 462.879,604.48 462.567,604.783C462.254,605.086 461.749,605.238 461.051,605.238L450.3,605.238L450.3,609.841L465.516,609.841C466.214,609.841 466.72,609.993 467.032,610.296C467.345,610.6 467.501,611.09 467.501,611.768L467.501,618.031C467.501,618.709 467.345,619.199 467.032,619.503C466.72,619.806 466.214,619.957 465.516,619.957ZM484.261,619.957L475.991,619.957C475.293,619.957 474.787,619.806 474.475,619.503C474.162,619.199 474.006,618.709 474.006,618.031L474.006,583.346C474.006,582.668 474.162,582.178 474.475,581.874C474.787,581.571 475.293,581.419 475.991,581.419L481.724,581.419C482.423,581.419 483.02,581.526 483.516,581.741C484.012,581.955 484.499,582.329 484.977,582.865L495.673,594.747L495.673,583.346C495.673,582.668 495.829,582.178 496.141,581.874C496.454,581.571 496.959,581.419 497.657,581.419L505.927,581.419C506.625,581.419 507.131,581.571 507.443,581.874C507.755,582.178 507.912,582.668 507.912,583.346L507.912,618.031C507.912,618.709 507.755,619.199 507.443,619.503C507.131,619.806 506.625,619.957 505.927,619.957L497.657,619.957C496.959,619.957 496.454,619.806 496.141,619.503C495.829,619.199 495.673,618.709 495.673,618.031L495.673,611.447L486.245,600.367L486.245,618.031C486.245,618.709 486.089,619.199 485.777,619.503C485.464,619.806 484.959,619.957 484.261,619.957ZM541.927,619.957L528.475,619.957C523.881,619.957 520.472,619.065 518.249,617.281C516.025,615.497 514.913,612.749 514.913,609.038L514.913,592.392C514.913,588.681 516.025,585.924 518.249,584.122C520.472,582.32 523.881,581.419 528.475,581.419L541.927,581.419C542.625,581.419 543.131,581.571 543.443,581.874C543.756,582.178 543.912,582.668 543.912,583.346L543.912,589.823C543.912,590.501 543.756,590.991 543.443,591.295C543.131,591.598 542.625,591.75 541.927,591.75L530.846,591.75C529.707,591.75 528.861,591.973 528.31,592.419C527.759,592.865 527.483,593.534 527.483,594.426L527.483,607.165C527.483,608.057 527.759,608.708 528.31,609.119C528.861,609.529 529.707,609.734 530.846,609.734L541.927,609.734C542.625,609.734 543.131,609.886 543.443,610.189C543.756,610.492 543.912,610.983 543.912,611.661L543.912,618.031C543.912,618.709 543.756,619.199 543.443,619.503C543.131,619.806 542.625,619.957 541.927,619.957ZM551.244,619.957C550.546,619.957 550.041,619.806 549.728,619.503C549.416,619.199 549.26,618.709 549.26,618.031L549.26,611.661C549.26,610.983 549.416,610.492 549.728,610.189C550.041,609.886 550.546,609.734 551.244,609.734L556.702,609.734L556.702,591.75L551.244,591.75C550.546,591.75 550.041,591.598 549.728,591.295C549.416,590.991 549.26,590.501 549.26,589.823L549.26,583.346C549.26,582.668 549.416,582.178 549.728,581.874C550.041,581.571 550.546,581.419 551.244,581.419L574.73,581.419C575.428,581.419 575.934,581.571 576.246,581.874C576.558,582.178 576.715,582.668 576.715,583.346L576.715,589.823C576.715,590.501 576.558,590.991 576.246,591.295C575.934,591.598 575.428,591.75 574.73,591.75L569.382,591.75L569.382,609.734L574.73,609.734C575.428,609.734 575.934,609.886 576.246,610.189C576.558,610.492 576.715,610.983 576.715,611.661L576.715,618.031C576.715,618.709 576.558,619.199 576.246,619.503C575.934,619.806 575.428,619.957 574.73,619.957L551.244,619.957ZM613.542,619.957L585.48,619.957C584.782,619.957 584.277,619.806 583.964,619.503C583.652,619.199 583.496,618.709 583.496,618.031L583.496,583.346C583.496,582.668 583.652,582.178 583.964,581.874C584.277,581.571 584.782,581.419 585.48,581.419L594.026,581.419C594.724,581.419 595.229,581.571 595.542,581.874C595.854,582.178 596.01,582.668 596.01,583.346L596.01,609.841L603.563,609.841L603.563,601.17C603.563,600.492 603.719,600.002 604.032,599.698C604.344,599.395 604.85,599.243 605.548,599.243L613.542,599.243C614.24,599.243 614.746,599.395 615.058,599.698C615.37,600.002 615.527,600.492 615.527,601.17L615.527,618.031C615.527,618.709 615.37,619.199 615.058,619.503C614.746,619.806 614.24,619.957 613.542,619.957ZM640.225,619.957L622.804,619.957C622.105,619.957 621.6,619.806 621.288,619.503C620.975,619.199 620.819,618.709 620.819,618.031L620.819,611.768C620.819,611.09 620.975,610.6 621.288,610.296C621.6,609.993 622.105,609.841 622.804,609.841L637.634,609.841C638.112,609.841 638.47,609.69 638.709,609.386C638.948,609.083 639.067,608.717 639.067,608.289C639.067,607.682 638.948,607.236 638.709,606.951C638.47,606.665 638.112,606.505 637.634,606.469L629.364,605.345C626.792,604.988 624.724,604.168 623.162,602.883C621.6,601.598 620.819,599.457 620.819,596.46L620.819,590.84C620.819,587.807 621.83,585.478 623.851,583.855C625.873,582.231 628.666,581.419 632.231,581.419L647.668,581.419C648.366,581.419 648.871,581.571 649.184,581.874C649.496,582.178 649.652,582.668 649.652,583.346L649.652,589.716C649.652,590.394 649.496,590.884 649.184,591.188C648.871,591.491 648.366,591.643 647.668,591.643L634.822,591.643C634.344,591.643 633.977,591.794 633.72,592.098C633.462,592.401 633.334,592.785 633.334,593.248C633.334,593.712 633.462,594.105 633.72,594.426C633.977,594.747 634.344,594.926 634.822,594.961L643.037,596.032C645.609,596.389 647.686,597.209 649.266,598.494C650.847,599.779 651.637,601.92 651.637,604.917L651.637,610.537C651.637,613.57 650.617,615.899 648.577,617.522C646.538,619.146 643.753,619.957 640.225,619.957Z" style="fill:rgb(255,0,0);fill-rule:nonzero;"/>
            <path d="M390.899,620.957L373.478,620.957C372.779,620.957 372.274,620.806 371.962,620.503C371.649,620.199 371.493,619.709 371.493,619.031L371.493,612.768C371.493,612.09 371.649,611.6 371.962,611.296C372.274,610.993 372.779,610.841 373.478,610.841L388.308,610.841C388.786,610.841 389.144,610.69 389.383,610.386C389.622,610.083 389.741,609.717 389.741,609.289C389.741,608.682 389.622,608.236 389.383,607.951C389.144,607.665 388.786,607.505 388.308,607.469L380.038,606.345C377.466,605.988 375.398,605.168 373.836,603.883C372.274,602.598 371.493,600.457 371.493,597.46L371.493,591.84C371.493,588.807 372.504,586.478 374.525,584.855C376.547,583.231 379.34,582.419 382.905,582.419L398.342,582.419C399.04,582.419 399.545,582.571 399.858,582.874C400.17,583.178 400.326,583.668 400.326,584.346L400.326,590.716C400.326,591.394 400.17,591.884 399.858,592.188C399.545,592.491 399.04,592.643 398.342,592.643L385.496,592.643C385.018,592.643 384.651,592.794 384.394,593.098C384.136,593.401 384.008,593.785 384.008,594.248C384.008,594.712 384.136,595.105 384.394,595.426C384.651,595.747 385.018,595.926 385.496,595.961L393.711,597.032C396.283,597.389 398.36,598.209 399.94,599.494C401.521,600.779 402.311,602.92 402.311,605.917L402.311,611.537C402.311,614.57 401.291,616.899 399.251,618.522C397.212,620.146 394.427,620.957 390.899,620.957ZM426.53,620.957L417.598,620.957C416.9,620.957 416.395,620.806 416.082,620.503C415.77,620.199 415.614,619.709 415.614,619.031L415.614,592.75L407.509,592.75C406.811,592.75 406.306,592.598 405.993,592.295C405.681,591.991 405.525,591.501 405.525,590.823L405.525,584.346C405.525,583.668 405.681,583.178 405.993,582.874C406.306,582.571 406.811,582.419 407.509,582.419L436.618,582.419C437.317,582.419 437.822,582.571 438.135,582.874C438.447,583.178 438.603,583.668 438.603,584.346L438.603,590.823C438.603,591.501 438.447,591.991 438.135,592.295C437.822,592.598 437.317,592.75 436.618,592.75L428.514,592.75L428.514,619.031C428.514,619.709 428.358,620.199 428.046,620.503C427.733,620.806 427.228,620.957 426.53,620.957ZM471.516,620.957L445.935,620.957C445.237,620.957 444.732,620.806 444.419,620.503C444.107,620.199 443.951,619.709 443.951,619.031L443.951,584.346C443.951,583.668 444.107,583.178 444.419,582.874C444.732,582.571 445.237,582.419 445.935,582.419L471.516,582.419C472.214,582.419 472.72,582.571 473.032,582.874C473.345,583.178 473.501,583.668 473.501,584.346L473.501,590.609C473.501,591.287 473.345,591.777 473.032,592.081C472.72,592.384 472.214,592.536 471.516,592.536L456.3,592.536L456.3,596.657L467.051,596.657C467.749,596.657 468.254,596.809 468.567,597.112C468.879,597.415 469.035,597.906 469.035,598.584L469.035,604.311C469.035,604.989 468.879,605.48 468.567,605.783C468.254,606.086 467.749,606.238 467.051,606.238L456.3,606.238L456.3,610.841L471.516,610.841C472.214,610.841 472.72,610.993 473.032,611.296C473.345,611.6 473.501,612.09 473.501,612.768L473.501,619.031C473.501,619.709 473.345,620.199 473.032,620.503C472.72,620.806 472.214,620.957 471.516,620.957ZM490.261,620.957L481.991,620.957C481.293,620.957 480.787,620.806 480.475,620.503C480.162,620.199 480.006,619.709 480.006,619.031L480.006,584.346C480.006,583.668 480.162,583.178 480.475,582.874C480.787,582.571 481.293,582.419 481.991,582.419L487.724,582.419C488.423,582.419 489.02,582.526 489.516,582.741C490.012,582.955 490.499,583.329 490.977,583.865L501.673,595.747L501.673,584.346C501.673,583.668 501.829,583.178 502.141,582.874C502.454,582.571 502.959,582.419 503.657,582.419L511.927,582.419C512.625,582.419 513.131,582.571 513.443,582.874C513.755,583.178 513.912,583.668 513.912,584.346L513.912,619.031C513.912,619.709 513.755,620.199 513.443,620.503C513.131,620.806 512.625,620.957 511.927,620.957L503.657,620.957C502.959,620.957 502.454,620.806 502.141,620.503C501.829,620.199 501.673,619.709 501.673,619.031L501.673,612.447L492.245,601.367L492.245,619.031C492.245,619.709 492.089,620.199 491.777,620.503C491.464,620.806 490.959,620.957 490.261,620.957ZM547.927,620.957L534.475,620.957C529.881,620.957 526.472,620.065 524.249,618.281C522.025,616.497 520.913,613.749 520.913,610.038L520.913,593.392C520.913,589.681 522.025,586.924 524.249,585.122C526.472,583.32 529.881,582.419 534.475,582.419L547.927,582.419C548.625,582.419 549.131,582.571 549.443,582.874C549.756,583.178 549.912,583.668 549.912,584.346L549.912,590.823C549.912,591.501 549.756,591.991 549.443,592.295C549.131,592.598 548.625,592.75 547.927,592.75L536.846,592.75C535.707,592.75 534.861,592.973 534.31,593.419C533.759,593.865 533.483,594.534 533.483,595.426L533.483,608.165C533.483,609.057 533.759,609.708 534.31,610.119C534.861,610.529 535.707,610.734 536.846,610.734L547.927,610.734C548.625,610.734 549.131,610.886 549.443,611.189C549.756,611.492 549.912,611.983 549.912,612.661L549.912,619.031C549.912,619.709 549.756,620.199 549.443,620.503C549.131,620.806 548.625,620.957 547.927,620.957ZM557.244,620.957C556.546,620.957 556.041,620.806 555.728,620.503C555.416,620.199 555.26,619.709 555.26,619.031L555.26,612.661C555.26,611.983 555.416,611.492 555.728,611.189C556.041,610.886 556.546,610.734 557.244,610.734L562.702,610.734L562.702,592.75L557.244,592.75C556.546,592.75 556.041,592.598 555.728,592.295C555.416,591.991 555.26,591.501 555.26,590.823L555.26,584.346C555.26,583.668 555.416,583.178 555.728,582.874C556.041,582.571 556.546,582.419 557.244,582.419L580.73,582.419C581.428,582.419 581.934,582.571 582.246,582.874C582.558,583.178 582.715,583.668 582.715,584.346L582.715,590.823C582.715,591.501 582.558,591.991 582.246,592.295C581.934,592.598 581.428,592.75 580.73,592.75L575.382,592.75L575.382,610.734L580.73,610.734C581.428,610.734 581.934,610.886 582.246,611.189C582.558,611.492 582.715,611.983 582.715,612.661L582.715,619.031C582.715,619.709 582.558,620.199 582.246,620.503C581.934,620.806 581.428,620.957 580.73,620.957L557.244,620.957ZM619.542,620.957L591.48,620.957C590.782,620.957 590.277,620.806 589.964,620.503C589.652,620.199 589.496,619.709 589.496,619.031L589.496,584.346C589.496,583.668 589.652,583.178 589.964,582.874C590.277,582.571 590.782,582.419 591.48,582.419L600.026,582.419C600.724,582.419 601.229,582.571 601.542,582.874C601.854,583.178 602.01,583.668 602.01,584.346L602.01,610.841L609.563,610.841L609.563,602.17C609.563,601.492 609.719,601.002 610.032,600.698C610.344,600.395 610.85,600.243 611.548,600.243L619.542,600.243C620.24,600.243 620.746,600.395 621.058,600.698C621.37,601.002 621.527,601.492 621.527,602.17L621.527,619.031C621.527,619.709 621.37,620.199 621.058,620.503C620.746,620.806 620.24,620.957 619.542,620.957ZM646.225,620.957L628.804,620.957C628.105,620.957 627.6,620.806 627.288,620.503C626.975,620.199 626.819,619.709 626.819,619.031L626.819,612.768C626.819,612.09 626.975,611.6 627.288,611.296C627.6,610.993 628.105,610.841 628.804,610.841L643.634,610.841C644.112,610.841 644.47,610.69 644.709,610.386C644.948,610.083 645.067,609.717 645.067,609.289C645.067,608.682 644.948,608.236 644.709,607.951C644.47,607.665 644.112,607.505 643.634,607.469L635.364,606.345C632.792,605.988 630.724,605.168 629.162,603.883C627.6,602.598 626.819,600.457 626.819,597.46L626.819,591.84C626.819,588.807 627.83,586.478 629.851,584.855C631.873,583.231 634.666,582.419 638.231,582.419L653.668,582.419C654.366,582.419 654.871,582.571 655.184,582.874C655.496,583.178 655.652,583.668 655.652,584.346L655.652,590.716C655.652,591.394 655.496,591.884 655.184,592.188C654.871,592.491 654.366,592.643 653.668,592.643L640.822,592.643C640.344,592.643 639.977,592.794 639.72,593.098C639.462,593.401 639.334,593.785 639.334,594.248C639.334,594.712 639.462,595.105 639.72,595.426C639.977,595.747 640.344,595.926 640.822,595.961L649.037,597.032C651.609,597.389 653.686,598.209 655.266,599.494C656.847,600.779 657.637,602.92 657.637,605.917L657.637,611.537C657.637,614.57 656.617,616.899 654.577,618.522C652.538,620.146 649.753,620.957 646.225,620.957Z" style="fill:white;fill-rule:nonzero;"/>
            <path d="M385.712,594.309L393.926,595.379C393.931,595.38 393.935,595.38 393.94,595.381C396.857,595.785 399.2,596.744 400.992,598.201C402.902,599.753 403.978,602.295 403.978,605.917L403.978,611.537C403.978,615.146 402.716,617.894 400.289,619.826C397.992,621.655 394.873,622.624 390.899,622.624L373.478,622.624C372.228,622.624 371.36,622.241 370.801,621.698C370.226,621.141 369.826,620.277 369.826,619.031L369.826,612.768C369.826,611.522 370.226,610.658 370.801,610.1C371.36,609.558 372.228,609.175 373.478,609.175L388.069,609.175C388.068,609.156 388.066,609.137 388.064,609.118L379.814,607.997L379.809,607.996C376.888,607.591 374.551,606.629 372.777,605.17C370.891,603.619 369.826,601.079 369.826,597.46L369.826,591.84C369.826,588.233 371.078,585.486 373.482,583.555C375.759,581.726 378.889,580.753 382.905,580.753L398.342,580.753C399.591,580.753 400.46,581.136 401.019,581.679C401.593,582.236 401.993,583.1 401.993,584.346L401.993,590.716C401.993,591.962 401.593,592.826 401.019,593.384C400.46,593.926 399.591,594.309 398.342,594.309L385.712,594.309ZM390.899,620.957C394.427,620.957 397.212,620.146 399.251,618.522C401.291,616.899 402.311,614.57 402.311,611.537L402.311,605.917C402.311,602.92 401.521,600.779 399.94,599.494C398.36,598.209 396.283,597.389 393.711,597.032L385.496,595.961C385.018,595.926 384.651,595.747 384.394,595.426C384.136,595.105 384.008,594.712 384.008,594.248C384.008,593.785 384.136,593.401 384.394,593.098C384.651,592.794 385.018,592.643 385.496,592.643L398.342,592.643C399.04,592.643 399.545,592.491 399.858,592.188C400.17,591.884 400.326,591.394 400.326,590.716L400.326,584.346C400.326,583.668 400.17,583.178 399.858,582.874C399.545,582.571 399.04,582.419 398.342,582.419L382.905,582.419C379.34,582.419 376.547,583.231 374.525,584.855C372.504,586.478 371.493,588.807 371.493,591.84L371.493,597.46C371.493,600.457 372.274,602.598 373.836,603.883C375.398,605.168 377.466,605.988 380.038,606.345L388.308,607.469C388.786,607.505 389.144,607.665 389.383,607.951C389.622,608.236 389.741,608.682 389.741,609.289C389.741,609.717 389.622,610.083 389.383,610.386C389.144,610.69 388.786,610.841 388.308,610.841L373.478,610.841C372.779,610.841 372.274,610.993 371.962,611.296C371.649,611.6 371.493,612.09 371.493,612.768L371.493,619.031C371.493,619.709 371.649,620.199 371.962,620.503C372.274,620.806 372.779,620.957 373.478,620.957L390.899,620.957ZM641.038,594.309L649.252,595.379C649.257,595.38 649.261,595.38 649.266,595.381C652.183,595.785 654.526,596.744 656.318,598.201C658.228,599.753 659.304,602.295 659.304,605.917L659.304,611.537C659.304,615.146 658.042,617.894 655.615,619.826C653.318,621.655 650.199,622.624 646.225,622.624L628.804,622.624C627.554,622.624 626.686,622.241 626.127,621.698C625.552,621.141 625.152,620.277 625.152,619.031L625.152,612.768C625.152,611.522 625.552,610.658 626.127,610.1C626.686,609.558 627.554,609.175 628.804,609.175L643.395,609.175C643.394,609.156 643.392,609.137 643.39,609.118L635.14,607.997L635.135,607.996C632.214,607.591 629.877,606.629 628.103,605.17C626.217,603.619 625.152,601.079 625.152,597.46L625.152,591.84C625.152,588.233 626.404,585.486 628.808,583.555C631.085,581.726 634.215,580.753 638.231,580.753L653.668,580.753C654.917,580.753 655.786,581.136 656.345,581.679C656.919,582.236 657.319,583.1 657.319,584.346L657.319,590.716C657.319,591.962 656.919,592.826 656.345,593.384C655.786,593.926 654.917,594.309 653.668,594.309L641.038,594.309ZM646.225,620.957C649.753,620.957 652.538,620.146 654.577,618.522C656.617,616.899 657.637,614.57 657.637,611.537L657.637,605.917C657.637,602.92 656.847,600.779 655.266,599.494C653.686,598.209 651.609,597.389 649.037,597.032L640.822,595.961C640.344,595.926 639.977,595.747 639.72,595.426C639.462,595.105 639.334,594.712 639.334,594.248C639.334,593.785 639.462,593.401 639.72,593.098C639.977,592.794 640.344,592.643 640.822,592.643L653.668,592.643C654.366,592.643 654.871,592.491 655.184,592.188C655.496,591.884 655.652,591.394 655.652,590.716L655.652,584.346C655.652,583.668 655.496,583.178 655.184,582.874C654.871,582.571 654.366,582.419 653.668,582.419L638.231,582.419C634.666,582.419 631.873,583.231 629.851,584.855C627.83,586.478 626.819,588.807 626.819,591.84L626.819,597.46C626.819,600.457 627.6,602.598 629.162,603.883C630.724,605.168 632.792,605.988 635.364,606.345L643.634,607.469C644.112,607.505 644.47,607.665 644.709,607.951C644.948,608.236 645.067,608.682 645.067,609.289C645.067,609.717 644.948,610.083 644.709,610.386C644.47,610.69 644.112,610.841 643.634,610.841L628.804,610.841C628.105,610.841 627.6,610.993 627.288,611.296C626.975,611.6 626.819,612.09 626.819,612.768L626.819,619.031C626.819,619.709 626.975,620.199 627.288,620.503C627.6,620.806 628.105,620.957 628.804,620.957L646.225,620.957ZM426.53,622.624L417.598,622.624C416.349,622.624 415.48,622.241 414.921,621.698C414.347,621.141 413.947,620.277 413.947,619.031L413.947,594.416L407.509,594.416C406.26,594.416 405.391,594.033 404.832,593.491C404.258,592.933 403.858,592.069 403.858,590.823L403.858,584.346C403.858,583.1 404.258,582.236 404.832,581.679C405.391,581.136 406.26,580.753 407.509,580.753L436.618,580.753C437.868,580.753 438.736,581.136 439.295,581.679C439.87,582.236 440.27,583.1 440.27,584.346L440.27,590.823C440.27,592.069 439.87,592.933 439.295,593.491C438.736,594.033 437.868,594.416 436.618,594.416L430.181,594.416L430.181,619.031C430.181,620.277 429.781,621.141 429.207,621.698C428.648,622.241 427.779,622.624 426.53,622.624ZM426.53,620.957C427.228,620.957 427.733,620.806 428.046,620.503C428.358,620.199 428.514,619.709 428.514,619.031L428.514,592.75L436.618,592.75C437.317,592.75 437.822,592.598 438.135,592.295C438.447,591.991 438.603,591.501 438.603,590.823L438.603,584.346C438.603,583.668 438.447,583.178 438.135,582.874C437.822,582.571 437.317,582.419 436.618,582.419L407.509,582.419C406.811,582.419 406.306,582.571 405.993,582.874C405.681,583.178 405.525,583.668 405.525,584.346L405.525,590.823C405.525,591.501 405.681,591.991 405.993,592.295C406.306,592.598 406.811,592.75 407.509,592.75L415.614,592.75L415.614,619.031C415.614,619.709 415.77,620.199 416.082,620.503C416.395,620.806 416.9,620.957 417.598,620.957L426.53,620.957ZM471.516,622.624L445.935,622.624C444.686,622.624 443.817,622.241 443.258,621.698C442.684,621.141 442.284,620.277 442.284,619.031L442.284,584.346C442.284,583.1 442.684,582.236 443.258,581.679C443.817,581.136 444.686,580.753 445.935,580.753L471.516,580.753C472.766,580.753 473.634,581.136 474.193,581.679C474.768,582.236 475.167,583.1 475.167,584.346L475.167,590.609C475.167,591.855 474.768,592.719 474.193,593.276C473.634,593.819 472.766,594.202 471.516,594.202L457.967,594.202C457.967,594.202 457.967,594.99 457.967,594.99L467.051,594.99C468.3,594.99 469.169,595.373 469.728,595.916C470.302,596.474 470.702,597.337 470.702,598.584L470.702,604.311C470.702,605.558 470.302,606.421 469.728,606.979C469.169,607.522 468.3,607.905 467.051,607.905C467.051,607.905 457.967,607.905 457.967,607.905L457.967,609.175L471.516,609.175C472.766,609.175 473.634,609.558 474.193,610.1C474.768,610.658 475.167,611.522 475.167,612.768L475.167,619.031C475.167,620.277 474.768,621.141 474.193,621.698C473.634,622.241 472.766,622.624 471.516,622.624ZM471.516,620.957C472.214,620.957 472.72,620.806 473.032,620.503C473.345,620.199 473.501,619.709 473.501,619.031L473.501,612.768C473.501,612.09 473.345,611.6 473.032,611.296C472.72,610.993 472.214,610.841 471.516,610.841L456.3,610.841L456.3,606.238L467.051,606.238C467.749,606.238 468.254,606.086 468.567,605.783C468.879,605.48 469.035,604.989 469.035,604.311L469.035,598.584C469.035,597.906 468.879,597.415 468.567,597.112C468.254,596.809 467.749,596.657 467.051,596.657L456.3,596.657L456.3,592.536L471.516,592.536C472.214,592.536 472.72,592.384 473.032,592.081C473.345,591.777 473.501,591.287 473.501,590.609L473.501,584.346C473.501,583.668 473.345,583.178 473.032,582.874C472.72,582.571 472.214,582.419 471.516,582.419L445.935,582.419C445.237,582.419 444.732,582.571 444.419,582.874C444.107,583.178 443.951,583.668 443.951,584.346L443.951,619.031C443.951,619.709 444.107,620.199 444.419,620.503C444.732,620.806 445.237,620.957 445.935,620.957L471.516,620.957ZM490.261,622.624L481.991,622.624C480.741,622.624 479.873,622.241 479.314,621.698C478.739,621.141 478.34,620.277 478.34,619.031L478.34,584.346C478.34,583.1 478.739,582.236 479.314,581.679C479.873,581.136 480.741,580.753 481.991,580.753L487.724,580.753C488.681,580.753 489.497,580.917 490.177,581.21C490.866,581.508 491.557,582.011 492.216,582.75L500.006,591.404L500.006,584.346C500.006,583.1 500.406,582.236 500.98,581.679C501.539,581.136 502.408,580.753 503.657,580.753L511.927,580.753C513.177,580.753 514.045,581.136 514.604,581.679C515.178,582.236 515.578,583.1 515.578,584.346L515.578,619.031C515.578,620.277 515.178,621.141 514.604,621.698C514.045,622.241 513.177,622.624 511.927,622.624L503.657,622.624C502.408,622.624 501.539,622.241 500.98,621.698C500.406,621.141 500.006,620.277 500.006,619.031L500.006,613.06C500.006,613.06 493.912,605.898 493.912,605.898L493.912,619.031C493.912,620.277 493.512,621.141 492.938,621.698C492.379,622.241 491.51,622.624 490.261,622.624ZM490.261,620.957C490.959,620.957 491.464,620.806 491.777,620.503C492.089,620.199 492.245,619.709 492.245,619.031L492.245,601.367L501.673,612.447L501.673,619.031C501.673,619.709 501.829,620.199 502.141,620.503C502.454,620.806 502.959,620.957 503.657,620.957L511.927,620.957C512.625,620.957 513.131,620.806 513.443,620.503C513.755,620.199 513.912,619.709 513.912,619.031L513.912,584.346C513.912,583.668 513.755,583.178 513.443,582.874C513.131,582.571 512.625,582.419 511.927,582.419L503.657,582.419C502.959,582.419 502.454,582.571 502.141,582.874C501.829,583.178 501.673,583.668 501.673,584.346L501.673,595.747L490.977,583.865C490.499,583.329 490.012,582.955 489.516,582.741C489.02,582.526 488.423,582.419 487.724,582.419L481.991,582.419C481.293,582.419 480.787,582.571 480.475,582.874C480.162,583.178 480.006,583.668 480.006,584.346L480.006,619.031C480.006,619.709 480.162,620.199 480.475,620.503C480.787,620.806 481.293,620.957 481.991,620.957L490.261,620.957ZM547.927,622.624L534.475,622.624C529.402,622.624 525.661,621.551 523.205,619.581C520.622,617.508 519.246,614.35 519.246,610.038L519.246,593.392C519.246,589.085 520.618,585.919 523.199,583.828C525.656,581.836 529.399,580.753 534.475,580.753L547.927,580.753C549.177,580.753 550.045,581.136 550.604,581.679C551.179,582.236 551.579,583.1 551.579,584.346L551.579,590.823C551.579,592.069 551.179,592.933 550.604,593.491C550.045,594.033 549.177,594.416 547.927,594.416L536.846,594.416C536.187,594.416 535.677,594.456 535.358,594.714C535.17,594.867 535.15,595.121 535.15,595.426L535.15,608.165C535.15,608.432 535.14,608.659 535.305,608.782C535.636,609.028 536.162,609.068 536.846,609.068L547.927,609.068C549.177,609.068 550.045,609.451 550.604,609.993C551.179,610.551 551.579,611.415 551.579,612.661L551.579,619.031C551.579,620.277 551.179,621.141 550.604,621.698C550.045,622.241 549.177,622.624 547.927,622.624ZM547.927,620.957C548.625,620.957 549.131,620.806 549.443,620.503C549.756,620.199 549.912,619.709 549.912,619.031L549.912,612.661C549.912,611.983 549.756,611.492 549.443,611.189C549.131,610.886 548.625,610.734 547.927,610.734L536.846,610.734C535.707,610.734 534.861,610.529 534.31,610.119C533.759,609.708 533.483,609.057 533.483,608.165L533.483,595.426C533.483,594.534 533.759,593.865 534.31,593.419C534.861,592.973 535.707,592.75 536.846,592.75L547.927,592.75C548.625,592.75 549.131,592.598 549.443,592.295C549.756,591.991 549.912,591.501 549.912,590.823L549.912,584.346C549.912,583.668 549.756,583.178 549.443,582.874C549.131,582.571 548.625,582.419 547.927,582.419L534.475,582.419C529.881,582.419 526.472,583.32 524.249,585.122C522.025,586.924 520.913,589.681 520.913,593.392L520.913,610.038C520.913,613.749 522.025,616.497 524.249,618.281C526.472,620.065 529.881,620.957 534.475,620.957L547.927,620.957ZM557.244,622.624C555.995,622.624 555.126,622.241 554.567,621.698C553.993,621.141 553.593,620.277 553.593,619.031L553.593,612.661C553.593,611.415 553.993,610.551 554.567,609.993C555.126,609.451 555.995,609.068 557.244,609.068L561.035,609.068L561.035,594.416L557.244,594.416C555.995,594.416 555.126,594.033 554.567,593.491C553.993,592.933 553.593,592.069 553.593,590.823L553.593,584.346C553.593,583.1 553.993,582.236 554.567,581.679C555.126,581.136 555.995,580.753 557.244,580.753L580.73,580.753C581.98,580.753 582.848,581.136 583.407,581.679C583.981,582.236 584.381,583.1 584.381,584.346L584.381,590.823C584.381,592.069 583.981,592.933 583.407,593.491C582.848,594.033 581.98,594.416 580.73,594.416L577.049,594.416L577.049,609.068L580.73,609.068C581.98,609.068 582.848,609.451 583.407,609.993C583.981,610.551 584.381,611.415 584.381,612.661L584.381,619.031C584.381,620.277 583.981,621.141 583.407,621.698C582.848,622.241 581.98,622.624 580.73,622.624L557.244,622.624ZM557.244,620.957L580.73,620.957C581.428,620.957 581.934,620.806 582.246,620.503C582.558,620.199 582.715,619.709 582.715,619.031L582.715,612.661C582.715,611.983 582.558,611.492 582.246,611.189C581.934,610.886 581.428,610.734 580.73,610.734L575.382,610.734L575.382,592.75L580.73,592.75C581.428,592.75 581.934,592.598 582.246,592.295C582.558,591.991 582.715,591.501 582.715,590.823L582.715,584.346C582.715,583.668 582.558,583.178 582.246,582.874C581.934,582.571 581.428,582.419 580.73,582.419L557.244,582.419C556.546,582.419 556.041,582.571 555.728,582.874C555.416,583.178 555.26,583.668 555.26,584.346L555.26,590.823C555.26,591.501 555.416,591.991 555.728,592.295C556.041,592.598 556.546,592.75 557.244,592.75L562.702,592.75L562.702,610.734L557.244,610.734C556.546,610.734 556.041,610.886 555.728,611.189C555.416,611.492 555.26,611.983 555.26,612.661L555.26,619.031C555.26,619.709 555.416,620.199 555.728,620.503C556.041,620.806 556.546,620.957 557.244,620.957ZM619.542,622.624L591.48,622.624C590.231,622.624 589.362,622.241 588.803,621.698C588.229,621.141 587.829,620.277 587.829,619.031L587.829,584.346C587.829,583.1 588.229,582.236 588.803,581.679C589.362,581.136 590.231,580.753 591.48,580.753L600.026,580.753C601.275,580.753 602.144,581.136 602.703,581.679C603.277,582.236 603.677,583.1 603.677,584.346L603.677,609.175C603.677,609.175 607.897,609.175 607.897,609.175L607.897,602.17C607.897,600.924 608.296,600.06 608.871,599.502C609.43,598.96 610.298,598.577 611.548,598.577L619.542,598.577C620.792,598.577 621.66,598.96 622.219,599.502C622.793,600.06 623.193,600.924 623.193,602.17L623.193,619.031C623.193,620.277 622.793,621.141 622.219,621.698C621.66,622.241 620.792,622.624 619.542,622.624ZM619.542,620.957C620.24,620.957 620.746,620.806 621.058,620.503C621.37,620.199 621.527,619.709 621.527,619.031L621.527,602.17C621.527,601.492 621.37,601.002 621.058,600.698C620.746,600.395 620.24,600.243 619.542,600.243L611.548,600.243C610.85,600.243 610.344,600.395 610.032,600.698C609.719,601.002 609.563,601.492 609.563,602.17L609.563,610.841L602.01,610.841L602.01,584.346C602.01,583.668 601.854,583.178 601.542,582.874C601.229,582.571 600.724,582.419 600.026,582.419L591.48,582.419C590.782,582.419 590.277,582.571 589.964,582.874C589.652,583.178 589.496,583.668 589.496,584.346L589.496,619.031C589.496,619.709 589.652,620.199 589.964,620.503C590.277,620.806 590.782,620.957 591.48,620.957L619.542,620.957Z"/>
        </g>
    </g>
</svg>
