<?xml version="1.0" encoding="UTF-8" standalone="no"?><!DOCTYPE svg PUBLIC "-//W3C//DTD SVG 1.1//EN" "http://www.w3.org/Graphics/SVG/1.1/DTD/svg11.dtd"><svg width="100%" height="100%" viewBox="0 0 332 82" version="1.1" xmlns="http://www.w3.org/2000/svg" xmlns:xlink="http://www.w3.org/1999/xlink" xml:space="preserve" xmlns:serif="http://www.serif.com/" style="fill-rule:evenodd;clip-rule:evenodd;stroke-linejoin:round;stroke-miterlimit:2;"><g><path d="M331.047,20.281c0,-11.193 -9.088,-20.281 -20.281,-20.281l-290.485,0c-11.193,0 -20.281,9.088 -20.281,20.281l-0,40.562c-0,11.194 9.088,20.282 20.281,20.282l290.485,-0c11.193,-0 20.281,-9.088 20.281,-20.282l0,-40.562Z" style="fill:#fff;"/><g><g><path d="M48.844,59.12l-16.29,-0c-0.653,-0 -1.125,-0.146 -1.417,-0.438c-0.292,-0.293 -0.438,-0.765 -0.438,-1.418l-0,-6.031c-0,-0.653 0.146,-1.126 0.438,-1.418c0.292,-0.292 0.764,-0.438 1.417,-0.438l13.867,0c0.447,0 0.782,-0.146 1.005,-0.438c0.223,-0.292 0.335,-0.644 0.335,-1.057c0,-0.584 -0.112,-1.014 -0.335,-1.289c-0.223,-0.274 -0.558,-0.429 -1.005,-0.463l-7.732,-1.083c-2.406,-0.344 -4.339,-1.134 -5.8,-2.371c-1.46,-1.237 -2.19,-3.299 -2.19,-6.186l-0,-5.413c-0,-2.921 0.945,-5.163 2.835,-6.727c1.89,-1.563 4.502,-2.345 7.835,-2.345l14.434,-0c0.653,-0 1.125,0.146 1.417,0.438c0.292,0.292 0.438,0.765 0.438,1.418l0,6.134c0,0.653 -0.146,1.125 -0.438,1.417c-0.292,0.293 -0.764,0.439 -1.417,0.439l-12.011,-0c-0.447,-0 -0.791,0.146 -1.031,0.438c-0.241,0.292 -0.361,0.661 -0.361,1.108c0,0.447 0.12,0.825 0.361,1.134c0.24,0.309 0.584,0.481 1.031,0.516l7.681,1.031c2.405,0.343 4.347,1.134 5.825,2.371c1.477,1.237 2.216,3.299 2.216,6.186l0,5.412c0,2.921 -0.953,5.164 -2.861,6.727c-1.907,1.564 -4.51,2.346 -7.809,2.346Z" style="fill-rule:nonzero;"/><path d="M42.701,47.502l-10.147,0c-1.283,0 -2.169,0.413 -2.743,0.987c-0.574,0.574 -0.987,1.461 -0.987,2.744l-0,6.031c-0,1.283 0.413,2.169 0.987,2.743c0.574,0.574 1.46,0.988 2.743,0.988l16.29,-0c3.809,-0 6.796,-0.965 8.998,-2.771c2.326,-1.906 3.547,-4.615 3.547,-8.177c0,0 0,-5.412 0,-5.412c0,-3.582 -1.054,-6.089 -2.888,-7.624c-1.719,-1.439 -3.965,-2.39 -6.763,-2.79l-3.694,-0.495l7.759,-0c1.283,-0 2.169,-0.414 2.743,-0.988c0.574,-0.574 0.987,-1.46 0.987,-2.743l0,-6.134c0,-1.283 -0.413,-2.17 -0.987,-2.744c-0.574,-0.574 -1.46,-0.987 -2.743,-0.987l-14.434,-0c-3.85,-0 -6.847,0.969 -9.03,2.776c-2.304,1.905 -3.515,4.612 -3.515,8.171l-0,5.413c-0,3.578 1.043,6.083 2.853,7.617c1.703,1.442 3.943,2.396 6.746,2.796l4.278,0.599Zm6.143,11.618l-16.29,-0c-0.653,-0 -1.125,-0.146 -1.417,-0.438c-0.292,-0.293 -0.438,-0.765 -0.438,-1.418l-0,-6.031c-0,-0.653 0.146,-1.126 0.438,-1.418c0.292,-0.292 0.764,-0.438 1.417,-0.438l13.867,0c0.447,0 0.782,-0.146 1.005,-0.438c0.223,-0.292 0.335,-0.644 0.335,-1.057c0,-0.584 -0.112,-1.014 -0.335,-1.289c-0.223,-0.274 -0.558,-0.429 -1.005,-0.463l-7.732,-1.083c-2.406,-0.344 -4.339,-1.134 -5.8,-2.371c-1.46,-1.237 -2.19,-3.299 -2.19,-6.186l-0,-5.413c-0,-2.921 0.945,-5.163 2.835,-6.727c1.89,-1.563 4.502,-2.345 7.835,-2.345l14.434,-0c0.653,-0 1.125,0.146 1.417,0.438c0.292,0.292 0.438,0.765 0.438,1.418l0,6.134c0,0.653 -0.146,1.125 -0.438,1.417c-0.292,0.293 -0.764,0.439 -1.417,0.439l-12.011,-0c-0.447,-0 -0.791,0.146 -1.031,0.438c-0.241,0.292 -0.361,0.661 -0.361,1.108c0,0.447 0.12,0.825 0.361,1.134c0.24,0.309 0.584,0.481 1.031,0.516l7.681,1.031c2.405,0.343 4.347,1.134 5.825,2.371c1.477,1.237 2.216,3.299 2.216,6.186l0,5.412c0,2.921 -0.953,5.164 -2.861,6.727c-1.907,1.564 -4.51,2.346 -7.809,2.346Z" style="fill:#808080;"/><path d="M82.144,59.12l-8.351,-0c-0.653,-0 -1.125,-0.146 -1.417,-0.438c-0.293,-0.293 -0.439,-0.765 -0.439,-1.418l0,-25.31l-7.577,-0c-0.653,-0 -1.126,-0.146 -1.418,-0.438c-0.292,-0.293 -0.438,-0.765 -0.438,-1.418l-0,-6.237c-0,-0.653 0.146,-1.126 0.438,-1.418c0.292,-0.292 0.765,-0.438 1.418,-0.438l27.217,-0c0.653,-0 1.126,0.146 1.418,0.438c0.292,0.292 0.438,0.765 0.438,1.418l0,6.237c0,0.653 -0.146,1.125 -0.438,1.418c-0.292,0.292 -0.765,0.438 -1.418,0.438l-7.577,-0l-0,25.31c-0,0.653 -0.146,1.125 -0.438,1.418c-0.293,0.292 -0.765,0.438 -1.418,0.438Z" style="fill-rule:nonzero;"/><path d="M82.144,60.995c1.283,-0 2.169,-0.414 2.743,-0.988c0.574,-0.574 0.988,-1.46 0.988,-2.743c-0,0 -0,-23.435 -0,-23.435c-0,-0 5.702,-0 5.702,-0c1.283,-0 2.17,-0.414 2.744,-0.988c0.574,-0.574 0.987,-1.46 0.987,-2.743l0,-6.237c0,-1.283 -0.413,-2.17 -0.987,-2.744c-0.574,-0.574 -1.461,-0.987 -2.744,-0.987l-27.217,-0c-1.283,-0 -2.17,0.413 -2.744,0.987c-0.574,0.574 -0.987,1.461 -0.987,2.744l-0,6.237c-0,1.283 0.413,2.169 0.987,2.743c0.574,0.574 1.461,0.988 2.744,0.988l5.702,-0c0,-0 0,23.435 0,23.435c0,1.283 0.414,2.169 0.988,2.743c0.574,0.574 1.46,0.988 2.743,0.988l8.351,-0Zm-0,-1.875l-8.351,-0c-0.653,-0 -1.125,-0.146 -1.417,-0.438c-0.293,-0.293 -0.439,-0.765 -0.439,-1.418l0,-25.31l-7.577,-0c-0.653,-0 -1.126,-0.146 -1.418,-0.438c-0.292,-0.293 -0.438,-0.765 -0.438,-1.418l-0,-6.237c-0,-0.653 0.146,-1.126 0.438,-1.418c0.292,-0.292 0.765,-0.438 1.418,-0.438l27.217,-0c0.653,-0 1.126,0.146 1.418,0.438c0.292,0.292 0.438,0.765 0.438,1.418l0,6.237c0,0.653 -0.146,1.125 -0.438,1.418c-0.292,0.292 -0.765,0.438 -1.418,0.438l-7.577,-0l-0,25.31c-0,0.653 -0.146,1.125 -0.438,1.418c-0.293,0.292 -0.765,0.438 -1.418,0.438Z" style="fill:#808080;"/><path d="M99.464,59.12c-0.653,-0 -1.125,-0.146 -1.417,-0.438c-0.292,-0.293 -0.439,-0.765 -0.439,-1.418l0,-6.134c0,-0.653 0.147,-1.126 0.439,-1.418c0.292,-0.292 0.764,-0.438 1.417,-0.438l5.104,0l-0,-17.32l-5.104,-0c-0.653,-0 -1.125,-0.146 -1.417,-0.438c-0.292,-0.293 -0.439,-0.765 -0.439,-1.418l0,-6.237c0,-0.653 0.147,-1.126 0.439,-1.418c0.292,-0.292 0.764,-0.438 1.417,-0.438l21.96,-0c0.653,-0 1.125,0.146 1.417,0.438c0.293,0.292 0.439,0.765 0.439,1.418l-0,6.237c-0,0.653 -0.146,1.125 -0.439,1.418c-0.292,0.292 -0.764,0.438 -1.417,0.438l-5,-0l-0,17.32l5,0c0.653,0 1.125,0.146 1.417,0.438c0.293,0.292 0.439,0.765 0.439,1.418l-0,6.134c-0,0.653 -0.146,1.125 -0.439,1.418c-0.292,0.292 -0.764,0.438 -1.417,0.438l-21.96,-0Z" style="fill-rule:nonzero;"/><path d="M99.464,60.995l21.96,-0c1.283,-0 2.169,-0.414 2.743,-0.988c0.574,-0.574 0.988,-1.46 0.988,-2.743c-0,0 -0,-6.134 -0,-6.134c-0,-1.283 -0.414,-2.17 -0.988,-2.744c-0.574,-0.574 -1.46,-0.987 -2.743,-0.987l-3.125,0c-0,-0 -0,-13.57 -0,-13.57c-0,-0 3.125,-0 3.125,-0c1.283,-0 2.169,-0.414 2.743,-0.988c0.574,-0.574 0.988,-1.46 0.988,-2.743c-0,-0 -0,-6.237 -0,-6.237c-0,-1.283 -0.414,-2.17 -0.988,-2.744c-0.574,-0.574 -1.46,-0.987 -2.743,-0.987l-21.96,-0c-1.283,-0 -2.169,0.413 -2.743,0.987c-0.574,0.574 -0.988,1.461 -0.988,2.744c0,-0 0,6.237 0,6.237c0,1.283 0.414,2.169 0.988,2.743c0.574,0.574 1.46,0.988 2.743,0.988l3.229,-0c-0,-0 -0,13.57 -0,13.57c-0,0 -3.229,0 -3.229,0c-1.283,0 -2.169,0.413 -2.743,0.987c-0.574,0.574 -0.988,1.461 -0.988,2.744c0,-0 0,6.134 0,6.134c0,1.283 0.414,2.169 0.988,2.743c0.574,0.574 1.46,0.988 2.743,0.988Zm0,-1.875c-0.653,-0 -1.125,-0.146 -1.417,-0.438c-0.292,-0.293 -0.439,-0.765 -0.439,-1.418l0,-6.134c0,-0.653 0.147,-1.126 0.439,-1.418c0.292,-0.292 0.764,-0.438 1.417,-0.438l5.104,0l-0,-17.32l-5.104,-0c-0.653,-0 -1.125,-0.146 -1.417,-0.438c-0.292,-0.293 -0.439,-0.765 -0.439,-1.418l0,-6.237c0,-0.653 0.147,-1.126 0.439,-1.418c0.292,-0.292 0.764,-0.438 1.417,-0.438l21.96,-0c0.653,-0 1.125,0.146 1.417,0.438c0.293,0.292 0.439,0.765 0.439,1.418l-0,6.237c-0,0.653 -0.146,1.125 -0.439,1.418c-0.292,0.292 -0.764,0.438 -1.417,0.438l-5,-0l-0,17.32l5,0c0.653,0 1.125,0.146 1.417,0.438c0.293,0.292 0.439,0.765 0.439,1.418l-0,6.134c-0,0.653 -0.146,1.125 -0.439,1.418c-0.292,0.292 -0.764,0.438 -1.417,0.438l-21.96,-0Z" style="fill:#808080;"/><path d="M154.312,59.12l-12.578,-0c-4.296,-0 -7.483,-0.859 -9.562,-2.578c-2.079,-1.718 -3.119,-4.364 -3.119,-7.938l0,-16.032c0,-3.574 1.04,-6.228 3.119,-7.964c2.079,-1.735 5.266,-2.603 9.562,-2.603l12.578,-0c0.653,-0 1.125,0.146 1.417,0.438c0.292,0.292 0.439,0.765 0.439,1.418l-0,6.237c-0,0.653 -0.147,1.125 -0.439,1.418c-0.292,0.292 -0.764,0.438 -1.417,0.438l-10.361,-0c-1.066,-0 -1.856,0.215 -2.372,0.644c-0.515,0.43 -0.773,1.074 -0.773,1.933l0,12.269c0,0.859 0.258,1.486 0.773,1.881c0.516,0.395 1.306,0.593 2.372,0.593l10.361,0c0.653,0 1.125,0.146 1.417,0.438c0.292,0.292 0.439,0.765 0.439,1.418l-0,6.134c-0,0.653 -0.147,1.125 -0.439,1.418c-0.292,0.292 -0.764,0.438 -1.417,0.438Z" style="fill-rule:nonzero;"/><path d="M154.312,60.995c1.283,-0 2.169,-0.414 2.743,-0.988c0.574,-0.574 0.988,-1.46 0.988,-2.743l-0,-6.134c-0,-1.283 -0.414,-2.17 -0.988,-2.744c-0.574,-0.574 -1.46,-0.987 -2.743,-0.987l-10.361,0c-0.544,0 -0.968,-0.004 -1.231,-0.206c-0.1,-0.077 -0.039,-0.226 -0.039,-0.393c0,-0 0,-12.269 0,-12.269c0,-0.207 -0.026,-0.389 0.099,-0.493c0.249,-0.207 0.655,-0.209 1.171,-0.209l10.361,-0c1.283,-0 2.169,-0.414 2.743,-0.988c0.574,-0.574 0.988,-1.46 0.988,-2.743l-0,-6.237c-0,-1.283 -0.414,-2.17 -0.988,-2.744c-0.574,-0.574 -1.46,-0.987 -2.743,-0.987l-12.578,-0c-4.848,-0 -8.417,1.08 -10.764,3.039c-2.465,2.057 -3.792,5.166 -3.792,9.403l0,16.032c0,4.242 1.331,7.344 3.799,9.384c2.345,1.938 5.912,3.007 10.757,3.007l12.578,-0Zm-0,-1.875l-12.578,-0c-4.296,-0 -7.483,-0.859 -9.562,-2.578c-2.079,-1.718 -3.119,-4.364 -3.119,-7.938l0,-16.032c0,-3.574 1.04,-6.228 3.119,-7.964c2.079,-1.735 5.266,-2.603 9.562,-2.603l12.578,-0c0.653,-0 1.125,0.146 1.417,0.438c0.292,0.292 0.439,0.765 0.439,1.418l-0,6.237c-0,0.653 -0.147,1.125 -0.439,1.418c-0.292,0.292 -0.764,0.438 -1.417,0.438l-10.361,-0c-1.066,-0 -1.856,0.215 -2.372,0.644c-0.515,0.43 -0.773,1.074 -0.773,1.933l0,12.269c0,0.859 0.258,1.486 0.773,1.881c0.516,0.395 1.306,0.593 2.372,0.593l10.361,0c0.653,0 1.125,0.146 1.417,0.438c0.292,0.292 0.439,0.765 0.439,1.418l-0,6.134c-0,0.653 -0.147,1.125 -0.439,1.418c-0.292,0.292 -0.764,0.438 -1.417,0.438Z" style="fill:#808080;"/><path d="M171.838,59.12l-7.99,-0c-0.653,-0 -1.125,-0.146 -1.417,-0.438c-0.292,-0.293 -0.438,-0.765 -0.438,-1.418l-0,-33.403c-0,-0.653 0.146,-1.126 0.438,-1.418c0.292,-0.292 0.764,-0.438 1.417,-0.438l7.99,-0c0.653,-0 1.126,0.146 1.418,0.438c0.292,0.292 0.438,0.765 0.438,1.418l0,11.856l2.062,-0l5.309,-12.011c0.241,-0.619 0.567,-1.057 0.98,-1.315c0.412,-0.257 0.945,-0.386 1.598,-0.386l7.938,-0c0.585,-0 0.98,0.146 1.186,0.438c0.206,0.292 0.189,0.713 -0.052,1.263l-5.258,12.011c1.925,0.103 3.463,0.782 4.614,2.036c1.151,1.254 1.727,2.912 1.727,4.974l-0,14.537c-0,0.653 -0.146,1.125 -0.438,1.418c-0.292,0.292 -0.765,0.438 -1.418,0.438l-7.938,-0c-0.653,-0 -1.126,-0.146 -1.418,-0.438c-0.292,-0.293 -0.438,-0.765 -0.438,-1.418l-0,-10.052c-0,-0.55 -0.138,-0.979 -0.412,-1.289c-0.275,-0.309 -0.688,-0.464 -1.238,-0.464l-6.804,0l0,11.805c0,0.653 -0.146,1.125 -0.438,1.418c-0.292,0.292 -0.765,0.438 -1.418,0.438Z" style="fill-rule:nonzero;"/><path d="M180.273,47.334l-0,9.93c-0,1.283 0.413,2.169 0.987,2.743c0.574,0.574 1.461,0.988 2.744,0.988l7.938,-0c1.283,-0 2.17,-0.414 2.744,-0.988c0.574,-0.574 0.987,-1.46 0.987,-2.743c-0,0 -0,-14.537 -0,-14.537c-0,-2.594 -0.772,-4.664 -2.221,-6.242c-0.921,-1.004 -2.03,-1.733 -3.334,-2.17l4.315,-9.857c0.59,-1.348 0.371,-2.38 -0.134,-3.096c-0.487,-0.69 -1.339,-1.232 -2.718,-1.232l-7.938,-0c-1.063,-0 -1.92,0.252 -2.592,0.671c-0.705,0.441 -1.311,1.151 -1.725,2.204l-3.757,8.498l0,-7.642c0,-1.283 -0.413,-2.17 -0.987,-2.744c-0.574,-0.574 -1.461,-0.987 -2.744,-0.987l-7.99,-0c-1.283,-0 -2.169,0.413 -2.743,0.987c-0.574,0.574 -0.987,1.461 -0.987,2.744c-0,-0 -0,33.403 -0,33.403c-0,1.283 0.413,2.169 0.987,2.743c0.574,0.574 1.46,0.988 2.743,0.988l7.99,-0c1.283,-0 2.17,-0.414 2.744,-0.988c0.574,-0.574 0.987,-1.46 0.987,-2.743c0,0 0,-9.93 0,-9.93l4.704,0Zm-8.435,11.786l-7.99,-0c-0.653,-0 -1.125,-0.146 -1.417,-0.438c-0.292,-0.293 -0.438,-0.765 -0.438,-1.418l-0,-33.403c-0,-0.653 0.146,-1.126 0.438,-1.418c0.292,-0.292 0.764,-0.438 1.417,-0.438l7.99,-0c0.653,-0 1.126,0.146 1.418,0.438c0.292,0.292 0.438,0.765 0.438,1.418l0,11.856l2.062,-0l5.309,-12.011c0.241,-0.619 0.567,-1.057 0.98,-1.315c0.412,-0.257 0.945,-0.386 1.598,-0.386l7.938,-0c0.585,-0 0.98,0.146 1.186,0.438c0.206,0.292 0.189,0.713 -0.052,1.263l-5.258,12.011c1.925,0.103 3.463,0.782 4.614,2.036c1.151,1.254 1.727,2.912 1.727,4.974l-0,14.537c-0,0.653 -0.146,1.125 -0.438,1.418c-0.292,0.292 -0.765,0.438 -1.418,0.438l-7.938,-0c-0.653,-0 -1.126,-0.146 -1.418,-0.438c-0.292,-0.293 -0.438,-0.765 -0.438,-1.418l-0,-10.052c-0,-0.55 -0.138,-0.979 -0.412,-1.289c-0.275,-0.309 -0.688,-0.464 -1.238,-0.464l-6.804,0l0,11.805c0,0.653 -0.146,1.125 -0.438,1.418c-0.292,0.292 -0.765,0.438 -1.418,0.438Z" style="fill:#808080;"/><path d="M226.222,59.12l-23.919,-0c-0.653,-0 -1.125,-0.146 -1.417,-0.438c-0.292,-0.293 -0.438,-0.765 -0.438,-1.418l-0,-33.403c-0,-0.653 0.146,-1.126 0.438,-1.418c0.292,-0.292 0.764,-0.438 1.417,-0.438l23.919,-0c0.653,-0 1.125,0.146 1.417,0.438c0.293,0.292 0.439,0.765 0.439,1.418l-0,6.031c-0,0.653 -0.146,1.125 -0.439,1.417c-0.292,0.292 -0.764,0.439 -1.417,0.439l-14.227,-0l-0,3.969l10.051,-0c0.653,-0 1.126,0.146 1.418,0.438c0.292,0.292 0.438,0.765 0.438,1.418l0,5.515c0,0.653 -0.146,1.126 -0.438,1.418c-0.292,0.292 -0.765,0.438 -1.418,0.438l-10.051,-0l-0,4.433l14.227,0c0.653,0 1.125,0.146 1.417,0.438c0.293,0.292 0.439,0.765 0.439,1.418l-0,6.031c-0,0.653 -0.146,1.125 -0.439,1.418c-0.292,0.292 -0.764,0.438 -1.417,0.438Z" style="fill-rule:nonzero;"/><path d="M226.222,60.995c1.283,-0 2.169,-0.414 2.743,-0.988c0.574,-0.574 0.988,-1.46 0.988,-2.743c-0,0 -0,-6.031 -0,-6.031c-0,-1.283 -0.414,-2.17 -0.988,-2.744c-0.574,-0.574 -1.46,-0.987 -2.743,-0.987c-0,0 -12.352,0 -12.352,0c-0,0 -0,-0.683 -0,-0.683c-0,-0 8.176,-0 8.176,-0c1.284,-0 2.17,-0.413 2.744,-0.987c0.574,-0.574 0.987,-1.461 0.987,-2.744l0,-5.515c0,-1.284 -0.413,-2.17 -0.987,-2.744c-0.574,-0.574 -1.46,-0.987 -2.744,-0.987l-8.176,-0c-0,-0 -0,-0.219 -0,-0.219c-0,-0 12.352,-0 12.352,-0c1.283,-0 2.169,-0.414 2.743,-0.988c0.574,-0.574 0.988,-1.46 0.988,-2.743c-0,-0 -0,-6.031 -0,-6.031c-0,-1.283 -0.414,-2.17 -0.988,-2.744c-0.574,-0.574 -1.46,-0.987 -2.743,-0.987l-23.919,-0c-1.283,-0 -2.169,0.413 -2.743,0.987c-0.574,0.574 -0.987,1.461 -0.987,2.744l-0,33.403c-0,1.283 0.413,2.169 0.987,2.743c0.574,0.574 1.46,0.988 2.743,0.988l23.919,-0Zm-0,-1.875l-23.919,-0c-0.653,-0 -1.125,-0.146 -1.417,-0.438c-0.292,-0.293 -0.438,-0.765 -0.438,-1.418l-0,-33.403c-0,-0.653 0.146,-1.126 0.438,-1.418c0.292,-0.292 0.764,-0.438 1.417,-0.438l23.919,-0c0.653,-0 1.125,0.146 1.417,0.438c0.293,0.292 0.439,0.765 0.439,1.418l-0,6.031c-0,0.653 -0.146,1.125 -0.439,1.417c-0.292,0.292 -0.764,0.439 -1.417,0.439l-14.227,-0l-0,3.969l10.051,-0c0.653,-0 1.126,0.146 1.418,0.438c0.292,0.292 0.438,0.765 0.438,1.418l0,5.515c0,0.653 -0.146,1.126 -0.438,1.418c-0.292,0.292 -0.765,0.438 -1.418,0.438l-10.051,-0l-0,4.433l14.227,0c0.653,0 1.125,0.146 1.417,0.438c0.293,0.292 0.439,0.765 0.439,1.418l-0,6.031c-0,0.653 -0.146,1.125 -0.439,1.418c-0.292,0.292 -0.764,0.438 -1.417,0.438Z" style="fill:#808080;"/><path d="M245.81,31.284l0,6.598l3.866,-0c0.894,-0 1.495,-0.232 1.805,-0.696c0.309,-0.464 0.464,-1.04 0.464,-1.727l-0,-1.753c-0,-0.687 -0.155,-1.263 -0.464,-1.727c-0.31,-0.463 -0.911,-0.695 -1.805,-0.695l-3.866,-0Zm-1.855,27.836l-7.939,-0c-0.653,-0 -1.125,-0.146 -1.417,-0.438c-0.293,-0.293 -0.439,-0.765 -0.439,-1.418l0,-33.403c0,-0.653 0.146,-1.126 0.439,-1.418c0.292,-0.292 0.764,-0.438 1.417,-0.438l17.166,-0c3.849,-0 6.503,0.799 7.964,2.397c1.46,1.598 2.191,3.668 2.191,6.211l-0,2.372c-0,1.443 -0.215,2.672 -0.645,3.685c-0.429,1.014 -1.177,1.744 -2.242,2.191c1.856,0.206 3.359,0.962 4.511,2.268c1.151,1.306 1.726,3.042 1.726,5.207l0,10.928c0,0.653 -0.146,1.125 -0.438,1.418c-0.292,0.292 -0.764,0.438 -1.417,0.438l-7.99,-0c-0.653,-0 -1.126,-0.146 -1.418,-0.438c-0.292,-0.293 -0.438,-0.765 -0.438,-1.418l-0,-7.887c-0,-0.756 -0.146,-1.314 -0.438,-1.675c-0.292,-0.361 -0.799,-0.541 -1.521,-0.541l-7.217,-0l0,10.103c0,0.653 -0.146,1.125 -0.438,1.418c-0.292,0.292 -0.765,0.438 -1.417,0.438Z" style="fill-rule:nonzero;"/><path d="M253.082,49.038c0.015,0.107 0.029,0.234 0.029,0.339l-0,7.887c-0,1.283 0.413,2.169 0.987,2.743c0.574,0.574 1.461,0.988 2.744,0.988l7.99,-0c1.283,-0 2.169,-0.414 2.743,-0.988c0.574,-0.574 0.987,-1.46 0.987,-2.743c0,0 0,-10.928 0,-10.928c0,-2.688 -0.766,-4.825 -2.195,-6.447c-0.665,-0.754 -1.421,-1.367 -2.269,-1.835c0.118,-0.208 0.225,-0.425 0.321,-0.652c0.515,-1.216 0.793,-2.686 0.793,-4.417c-0,-0 -0,-2.372 -0,-2.372c-0,-3.066 -0.921,-5.549 -2.682,-7.476c-1.724,-1.887 -4.804,-3.007 -9.348,-3.007l-17.166,-0c-1.283,-0 -2.169,0.413 -2.743,0.987c-0.574,0.574 -0.988,1.461 -0.988,2.744l0,33.403c0,1.283 0.414,2.169 0.988,2.743c0.574,0.574 1.46,0.988 2.743,0.988l7.939,-0c1.283,-0 2.169,-0.414 2.743,-0.988c0.574,-0.574 0.987,-1.46 0.987,-2.743c0,0 0,-8.228 0,-8.228c0,-0 5.342,-0 5.342,-0l0.055,0.002Zm-9.127,10.082l-7.939,-0c-0.653,-0 -1.125,-0.146 -1.417,-0.438c-0.293,-0.293 -0.439,-0.765 -0.439,-1.418l0,-33.403c0,-0.653 0.146,-1.126 0.439,-1.418c0.292,-0.292 0.764,-0.438 1.417,-0.438l17.166,-0c3.849,-0 6.503,0.799 7.964,2.397c1.46,1.598 2.191,3.668 2.191,6.211l-0,2.372c-0,1.443 -0.215,2.672 -0.645,3.685c-0.429,1.014 -1.177,1.744 -2.242,2.191c1.856,0.206 3.359,0.962 4.511,2.268c1.151,1.306 1.726,3.042 1.726,5.207l0,10.928c0,0.653 -0.146,1.125 -0.438,1.418c-0.292,0.292 -0.764,0.438 -1.417,0.438l-7.99,-0c-0.653,-0 -1.126,-0.146 -1.418,-0.438c-0.292,-0.293 -0.438,-0.765 -0.438,-1.418l-0,-7.887c-0,-0.756 -0.146,-1.314 -0.438,-1.675c-0.292,-0.361 -0.799,-0.541 -1.521,-0.541l-7.217,-0l0,10.103c0,0.653 -0.146,1.125 -0.438,1.418c-0.292,0.292 -0.765,0.438 -1.417,0.438Zm1.855,-27.836l0,6.598l3.866,-0c0.894,-0 1.495,-0.232 1.805,-0.696c0.309,-0.464 0.464,-1.04 0.464,-1.727l-0,-1.753c-0,-0.687 -0.155,-1.263 -0.464,-1.727c-0.31,-0.463 -0.911,-0.695 -1.805,-0.695l-3.866,-0Zm4.192,1.904c0.054,0.151 0.068,0.325 0.068,0.518l-0,1.753c-0,0.193 -0.014,0.368 -0.068,0.518c-0.093,0.014 -0.225,0.03 -0.326,0.03l-1.991,-0l0,-2.848l1.991,-0c0.101,-0 0.233,0.015 0.326,0.029Z" style="fill:#808080;"/><path d="M289.678,59.12l-16.289,-0c-0.653,-0 -1.126,-0.146 -1.418,-0.438c-0.292,-0.293 -0.438,-0.765 -0.438,-1.418l-0,-6.031c-0,-0.653 0.146,-1.126 0.438,-1.418c0.292,-0.292 0.765,-0.438 1.418,-0.438l13.866,0c0.447,0 0.782,-0.146 1.005,-0.438c0.224,-0.292 0.336,-0.644 0.336,-1.057c-0,-0.584 -0.112,-1.014 -0.336,-1.289c-0.223,-0.274 -0.558,-0.429 -1.005,-0.463l-7.732,-1.083c-2.406,-0.344 -4.339,-1.134 -5.799,-2.371c-1.461,-1.237 -2.191,-3.299 -2.191,-6.186l-0,-5.413c-0,-2.921 0.945,-5.163 2.835,-6.727c1.89,-1.563 4.502,-2.345 7.836,-2.345l14.433,-0c0.653,-0 1.126,0.146 1.418,0.438c0.292,0.292 0.438,0.765 0.438,1.418l-0,6.134c-0,0.653 -0.146,1.125 -0.438,1.417c-0.292,0.293 -0.765,0.439 -1.418,0.439l-12.011,-0c-0.446,-0 -0.79,0.146 -1.031,0.438c-0.24,0.292 -0.361,0.661 -0.361,1.108c0,0.447 0.121,0.825 0.361,1.134c0.241,0.309 0.585,0.481 1.031,0.516l7.681,1.031c2.406,0.343 4.347,1.134 5.825,2.371c1.478,1.237 2.217,3.299 2.217,6.186l-0,5.412c-0,2.921 -0.954,5.164 -2.861,6.727c-1.908,1.564 -4.511,2.346 -7.81,2.346Z" style="fill-rule:nonzero;"/><path d="M283.536,47.502l-10.147,0c-1.283,0 -2.17,0.413 -2.744,0.987c-0.574,0.574 -0.987,1.461 -0.987,2.744l-0,6.031c-0,1.283 0.413,2.169 0.987,2.743c0.574,0.574 1.461,0.988 2.744,0.988l16.289,-0c3.809,-0 6.796,-0.965 8.998,-2.771c2.326,-1.906 3.548,-4.615 3.548,-8.177l-0,-5.412c-0,-3.582 -1.055,-6.089 -2.888,-7.624c-1.719,-1.439 -3.965,-2.39 -6.764,-2.79l-3.693,-0.495l7.758,-0c1.283,-0 2.169,-0.414 2.743,-0.988c0.574,-0.574 0.988,-1.46 0.988,-2.743l-0,-6.134c-0,-1.283 -0.414,-2.17 -0.988,-2.744c-0.574,-0.574 -1.46,-0.987 -2.743,-0.987l-14.433,-0c-3.851,-0 -6.848,0.969 -9.031,2.776c-2.303,1.905 -3.515,4.612 -3.515,8.171l-0,5.413c-0,3.578 1.044,6.083 2.854,7.617c1.702,1.442 3.942,2.396 6.746,2.796l4.278,0.599Zm6.142,11.618l-16.289,-0c-0.653,-0 -1.126,-0.146 -1.418,-0.438c-0.292,-0.293 -0.438,-0.765 -0.438,-1.418l-0,-6.031c-0,-0.653 0.146,-1.126 0.438,-1.418c0.292,-0.292 0.765,-0.438 1.418,-0.438l13.866,0c0.447,0 0.782,-0.146 1.005,-0.438c0.224,-0.292 0.336,-0.644 0.336,-1.057c-0,-0.584 -0.112,-1.014 -0.336,-1.289c-0.223,-0.274 -0.558,-0.429 -1.005,-0.463l-7.732,-1.083c-2.406,-0.344 -4.339,-1.134 -5.799,-2.371c-1.461,-1.237 -2.191,-3.299 -2.191,-6.186l-0,-5.413c-0,-2.921 0.945,-5.163 2.835,-6.727c1.89,-1.563 4.502,-2.345 7.836,-2.345l14.433,-0c0.653,-0 1.126,0.146 1.418,0.438c0.292,0.292 0.438,0.765 0.438,1.418l-0,6.134c-0,0.653 -0.146,1.125 -0.438,1.417c-0.292,0.293 -0.765,0.439 -1.418,0.439l-12.011,-0c-0.446,-0 -0.79,0.146 -1.031,0.438c-0.24,0.292 -0.361,0.661 -0.361,1.108c0,0.447 0.121,0.825 0.361,1.134c0.241,0.309 0.585,0.481 1.031,0.516l7.681,1.031c2.406,0.343 4.347,1.134 5.825,2.371c1.478,1.237 2.217,3.299 2.217,6.186l-0,5.412c-0,2.921 -0.954,5.164 -2.861,6.727c-1.908,1.564 -4.511,2.346 -7.81,2.346Z" style="fill:#808080;"/></g></g></g></svg>