<?xml version="1.0" encoding="UTF-8" standalone="no"?>
<!DOCTYPE svg PUBLIC "-//W3C//DTD SVG 1.1//EN" "http://www.w3.org/Graphics/SVG/1.1/DTD/svg11.dtd">
<svg width="100%" height="100%" viewBox="0 0 297 42" version="1.1" xmlns="http://www.w3.org/2000/svg" xmlns:xlink="http://www.w3.org/1999/xlink" xml:space="preserve" xmlns:serif="http://www.serif.com/" style="fill-rule:evenodd;clip-rule:evenodd;stroke-linejoin:round;stroke-miterlimit:2;">
    <g transform="matrix(1,0,0,1,-365.493,-286.361)">
        <g>
            <path d="M384.899,325.566L367.478,325.566C366.779,325.566 366.274,325.415 365.962,325.111C365.649,324.808 365.493,324.317 365.493,323.639L365.493,317.377C365.493,316.699 365.649,316.208 365.962,315.905C366.274,315.602 366.779,315.45 367.478,315.45L382.308,315.45C382.786,315.45 383.144,315.298 383.383,314.995C383.622,314.692 383.741,314.326 383.741,313.898C383.741,313.291 383.622,312.845 383.383,312.56C383.144,312.274 382.786,312.114 382.308,312.078L374.038,310.954C371.466,310.597 369.398,309.776 367.836,308.492C366.274,307.207 365.493,305.066 365.493,302.069L365.493,296.449C365.493,293.415 366.504,291.087 368.525,289.464C370.547,287.84 373.34,287.028 376.905,287.028L392.342,287.028C393.04,287.028 393.545,287.18 393.858,287.483C394.17,287.786 394.326,288.277 394.326,288.955L394.326,295.325C394.326,296.003 394.17,296.493 393.858,296.797C393.545,297.1 393.04,297.251 392.342,297.251L379.496,297.251C379.018,297.251 378.651,297.403 378.394,297.706C378.136,298.01 378.008,298.393 378.008,298.857C378.008,299.321 378.136,299.714 378.394,300.035C378.651,300.356 379.018,300.534 379.496,300.57L387.711,301.641C390.283,301.997 392.36,302.818 393.94,304.103C395.521,305.387 396.311,307.528 396.311,310.526L396.311,316.146C396.311,319.179 395.291,321.507 393.251,323.131C391.212,324.754 388.427,325.566 384.899,325.566ZM420.53,325.566L411.598,325.566C410.9,325.566 410.395,325.415 410.082,325.111C409.77,324.808 409.614,324.317 409.614,323.639L409.614,297.359L401.509,297.359C400.811,297.359 400.306,297.207 399.993,296.904C399.681,296.6 399.525,296.11 399.525,295.432L399.525,288.955C399.525,288.277 399.681,287.786 399.993,287.483C400.306,287.18 400.811,287.028 401.509,287.028L430.618,287.028C431.317,287.028 431.822,287.18 432.135,287.483C432.447,287.786 432.603,288.277 432.603,288.955L432.603,295.432C432.603,296.11 432.447,296.6 432.135,296.904C431.822,297.207 431.317,297.359 430.618,297.359L422.514,297.359L422.514,323.639C422.514,324.317 422.358,324.808 422.046,325.111C421.733,325.415 421.228,325.566 420.53,325.566ZM439.053,325.566C438.355,325.566 437.85,325.415 437.537,325.111C437.225,324.808 437.069,324.317 437.069,323.639L437.069,317.27C437.069,316.592 437.225,316.101 437.537,315.798C437.85,315.495 438.355,315.343 439.053,315.343L444.511,315.343L444.511,297.359L439.053,297.359C438.355,297.359 437.85,297.207 437.537,296.904C437.225,296.6 437.069,296.11 437.069,295.432L437.069,288.955C437.069,288.277 437.225,287.786 437.537,287.483C437.85,287.18 438.355,287.028 439.053,287.028L462.539,287.028C463.237,287.028 463.743,287.18 464.055,287.483C464.368,287.786 464.524,288.277 464.524,288.955L464.524,295.432C464.524,296.11 464.368,296.6 464.055,296.904C463.743,297.207 463.237,297.359 462.539,297.359L457.191,297.359L457.191,315.343L462.539,315.343C463.237,315.343 463.743,315.495 464.055,315.798C464.368,316.101 464.524,316.592 464.524,317.27L464.524,323.639C464.524,324.317 464.368,324.808 464.055,325.111C463.743,325.415 463.237,325.566 462.539,325.566L439.053,325.566ZM497.712,325.566L484.261,325.566C479.666,325.566 476.257,324.674 474.034,322.89C471.81,321.106 470.698,318.358 470.698,314.647L470.698,298.001C470.698,294.29 471.81,291.533 474.034,289.731C476.257,287.929 479.666,287.028 484.261,287.028L497.712,287.028C498.411,287.028 498.916,287.18 499.228,287.483C499.541,287.786 499.697,288.277 499.697,288.955L499.697,295.432C499.697,296.11 499.541,296.6 499.228,296.904C498.916,297.207 498.411,297.359 497.712,297.359L486.631,297.359C485.492,297.359 484.646,297.582 484.095,298.028C483.544,298.474 483.268,299.143 483.268,300.035L483.268,312.774C483.268,313.666 483.544,314.317 484.095,314.727C484.646,315.138 485.492,315.343 486.631,315.343L497.712,315.343C498.411,315.343 498.916,315.495 499.228,315.798C499.541,316.101 499.697,316.592 499.697,317.27L499.697,323.639C499.697,324.317 499.541,324.808 499.228,325.111C498.916,325.415 498.411,325.566 497.712,325.566ZM516.457,325.566L507.912,325.566C507.213,325.566 506.708,325.415 506.395,325.111C506.083,324.808 505.927,324.317 505.927,323.639L505.927,288.955C505.927,288.277 506.083,287.786 506.395,287.483C506.708,287.18 507.213,287.028 507.912,287.028L516.457,287.028C517.155,287.028 517.66,287.18 517.973,287.483C518.285,287.786 518.441,288.277 518.441,288.955L518.441,301.266L520.647,301.266L526.325,288.794C526.582,288.152 526.932,287.697 527.373,287.43C527.814,287.162 528.383,287.028 529.082,287.028L537.572,287.028C538.197,287.028 538.619,287.18 538.84,287.483C539.06,287.786 539.042,288.224 538.785,288.794L533.161,301.266C535.22,301.373 536.864,302.078 538.096,303.38C539.327,304.683 539.942,306.404 539.942,308.545L539.942,323.639C539.942,324.317 539.786,324.808 539.474,325.111C539.161,325.415 538.656,325.566 537.958,325.566L529.468,325.566C528.769,325.566 528.264,325.415 527.952,325.111C527.639,324.808 527.483,324.317 527.483,323.639L527.483,313.202C527.483,312.631 527.336,312.185 527.042,311.864C526.748,311.543 526.307,311.382 525.719,311.382L518.441,311.382L518.441,323.639C518.441,324.317 518.285,324.808 517.973,325.111C517.66,325.415 517.155,325.566 516.457,325.566ZM574.62,325.566L549.039,325.566C548.341,325.566 547.835,325.415 547.523,325.111C547.21,324.808 547.054,324.317 547.054,323.639L547.054,288.955C547.054,288.277 547.21,287.786 547.523,287.483C547.835,287.18 548.341,287.028 549.039,287.028L574.62,287.028C575.318,287.028 575.823,287.18 576.136,287.483C576.448,287.786 576.604,288.277 576.604,288.955L576.604,295.218C576.604,295.895 576.448,296.386 576.136,296.689C575.823,296.993 575.318,297.144 574.62,297.144L559.404,297.144L559.404,301.266L570.154,301.266C570.852,301.266 571.358,301.418 571.67,301.721C571.983,302.024 572.139,302.515 572.139,303.193L572.139,308.92C572.139,309.598 571.983,310.089 571.67,310.392C571.358,310.695 570.852,310.847 570.154,310.847L559.404,310.847L559.404,315.45L574.62,315.45C575.318,315.45 575.823,315.602 576.136,315.905C576.448,316.208 576.604,316.699 576.604,317.377L576.604,323.639C576.604,324.317 576.448,324.808 576.136,325.111C575.823,325.415 575.318,325.566 574.62,325.566ZM593.585,325.566L585.094,325.566C584.396,325.566 583.891,325.415 583.578,325.111C583.266,324.808 583.11,324.317 583.11,323.639L583.11,288.955C583.11,288.277 583.266,287.786 583.578,287.483C583.891,287.18 584.396,287.028 585.094,287.028L603.453,287.028C607.569,287.028 610.409,287.858 611.971,289.517C613.533,291.176 614.314,293.326 614.314,295.967L614.314,298.429C614.314,299.928 614.084,301.203 613.625,302.256C613.165,303.309 612.366,304.067 611.226,304.531C613.211,304.745 614.819,305.53 616.05,306.886C617.282,308.242 617.897,310.044 617.897,312.292L617.897,323.639C617.897,324.317 617.741,324.808 617.429,325.111C617.116,325.415 616.611,325.566 615.912,325.566L607.367,325.566C606.669,325.566 606.164,325.415 605.851,325.111C605.539,324.808 605.382,324.317 605.382,323.639L605.382,315.45C605.382,314.665 605.226,314.085 604.914,313.71C604.601,313.336 604.059,313.148 603.288,313.148L595.569,313.148L595.569,323.639C595.569,324.317 595.413,324.808 595.101,325.111C594.788,325.415 594.283,325.566 593.585,325.566ZM595.569,296.663L595.569,303.514L599.704,303.514C600.66,303.514 601.303,303.273 601.634,302.791C601.964,302.31 602.13,301.712 602.13,300.998L602.13,299.178C602.13,298.465 601.964,297.867 601.634,297.385C601.303,296.904 600.66,296.663 599.704,296.663L595.569,296.663ZM642.485,325.566L625.064,325.566C624.366,325.566 623.86,325.415 623.548,325.111C623.236,324.808 623.079,324.317 623.079,323.639L623.079,317.377C623.079,316.699 623.236,316.208 623.548,315.905C623.86,315.602 624.366,315.45 625.064,315.45L639.894,315.45C640.372,315.45 640.73,315.298 640.969,314.995C641.208,314.692 641.328,314.326 641.328,313.898C641.328,313.291 641.208,312.845 640.969,312.56C640.73,312.274 640.372,312.114 639.894,312.078L631.625,310.954C629.052,310.597 626.985,309.776 625.422,308.492C623.86,307.207 623.079,305.066 623.079,302.069L623.079,296.449C623.079,293.415 624.09,291.087 626.112,289.464C628.133,287.84 630.926,287.028 634.491,287.028L649.928,287.028C650.626,287.028 651.132,287.18 651.444,287.483C651.757,287.786 651.913,288.277 651.913,288.955L651.913,295.325C651.913,296.003 651.757,296.493 651.444,296.797C651.132,297.1 650.626,297.251 649.928,297.251L637.083,297.251C636.605,297.251 636.237,297.403 635.98,297.706C635.723,298.01 635.594,298.393 635.594,298.857C635.594,299.321 635.723,299.714 635.98,300.035C636.237,300.356 636.605,300.534 637.083,300.57L645.297,301.641C647.87,301.997 649.946,302.818 651.527,304.103C653.107,305.387 653.897,307.528 653.897,310.526L653.897,316.146C653.897,319.179 652.878,321.507 650.838,323.131C648.798,324.754 646.014,325.566 642.485,325.566Z" style="fill:rgb(255,0,0);"/>
            <path d="M390.899,326.566L373.478,326.566C372.779,326.566 372.274,326.415 371.962,326.111C371.649,325.808 371.493,325.317 371.493,324.639L371.493,318.377C371.493,317.699 371.649,317.208 371.962,316.905C372.274,316.602 372.779,316.45 373.478,316.45L388.308,316.45C388.786,316.45 389.144,316.298 389.383,315.995C389.622,315.692 389.741,315.326 389.741,314.898C389.741,314.291 389.622,313.845 389.383,313.56C389.144,313.274 388.786,313.114 388.308,313.078L380.038,311.954C377.466,311.597 375.398,310.776 373.836,309.492C372.274,308.207 371.493,306.066 371.493,303.069L371.493,297.449C371.493,294.415 372.504,292.087 374.525,290.464C376.547,288.84 379.34,288.028 382.905,288.028L398.342,288.028C399.04,288.028 399.545,288.18 399.858,288.483C400.17,288.786 400.326,289.277 400.326,289.955L400.326,296.325C400.326,297.003 400.17,297.493 399.858,297.797C399.545,298.1 399.04,298.251 398.342,298.251L385.496,298.251C385.018,298.251 384.651,298.403 384.394,298.706C384.136,299.01 384.008,299.393 384.008,299.857C384.008,300.321 384.136,300.714 384.394,301.035C384.651,301.356 385.018,301.534 385.496,301.57L393.711,302.641C396.283,302.997 398.36,303.818 399.94,305.103C401.521,306.387 402.311,308.528 402.311,311.526L402.311,317.146C402.311,320.179 401.291,322.507 399.251,324.131C397.212,325.754 394.427,326.566 390.899,326.566Z" style="fill:white;"/>
            <path d="M385.712,299.918L393.926,300.988C393.931,300.988 393.935,300.989 393.94,300.99C396.857,301.394 399.2,302.353 400.992,303.809C402.902,305.362 403.978,307.903 403.978,311.526L403.978,317.146C403.978,320.754 402.716,323.503 400.289,325.435C397.992,327.263 394.873,328.233 390.899,328.233L373.478,328.233C372.228,328.233 371.36,327.85 370.801,327.307C370.226,326.749 369.826,325.886 369.826,324.639L369.826,318.377C369.826,317.13 370.226,316.267 370.801,315.709C371.36,315.166 372.228,314.783 373.478,314.783L388.069,314.783C388.068,314.764 388.066,314.745 388.064,314.727L379.814,313.605L379.809,313.605C376.888,313.2 374.551,312.238 372.777,310.779C370.891,309.228 369.826,306.688 369.826,303.069L369.826,297.449C369.826,293.842 371.078,291.095 373.482,289.164C375.759,287.335 378.889,286.361 382.905,286.361L398.342,286.361C399.591,286.361 400.46,286.745 401.019,287.287C401.593,287.845 401.993,288.709 401.993,289.955L401.993,296.325C401.993,297.571 401.593,298.435 401.019,298.992C400.46,299.535 399.591,299.918 398.342,299.918L385.712,299.918ZM390.899,326.566C394.427,326.566 397.212,325.754 399.251,324.131C401.291,322.507 402.311,320.179 402.311,317.146L402.311,311.526C402.311,308.528 401.521,306.387 399.94,305.103C398.36,303.818 396.283,302.997 393.711,302.641L385.496,301.57C385.018,301.534 384.651,301.356 384.394,301.035C384.136,300.714 384.008,300.321 384.008,299.857C384.008,299.393 384.136,299.01 384.394,298.706C384.651,298.403 385.018,298.251 385.496,298.251L398.342,298.251C399.04,298.251 399.545,298.1 399.858,297.797C400.17,297.493 400.326,297.003 400.326,296.325L400.326,289.955C400.326,289.277 400.17,288.786 399.858,288.483C399.545,288.18 399.04,288.028 398.342,288.028L382.905,288.028C379.34,288.028 376.547,288.84 374.525,290.464C372.504,292.087 371.493,294.415 371.493,297.449L371.493,303.069C371.493,306.066 372.274,308.207 373.836,309.492C375.398,310.776 377.466,311.597 380.038,311.954L388.308,313.078C388.786,313.114 389.144,313.274 389.383,313.56C389.622,313.845 389.741,314.291 389.741,314.898C389.741,315.326 389.622,315.692 389.383,315.995C389.144,316.298 388.786,316.45 388.308,316.45L373.478,316.45C372.779,316.45 372.274,316.602 371.962,316.905C371.649,317.208 371.493,317.699 371.493,318.377L371.493,324.639C371.493,325.317 371.649,325.808 371.962,326.111C372.274,326.415 372.779,326.566 373.478,326.566L390.899,326.566Z"/>
            <path d="M426.53,326.566L417.598,326.566C416.9,326.566 416.395,326.415 416.082,326.111C415.77,325.808 415.614,325.317 415.614,324.639L415.614,298.359L407.509,298.359C406.811,298.359 406.306,298.207 405.993,297.904C405.681,297.6 405.525,297.11 405.525,296.432L405.525,289.955C405.525,289.277 405.681,288.786 405.993,288.483C406.306,288.18 406.811,288.028 407.509,288.028L436.618,288.028C437.317,288.028 437.822,288.18 438.135,288.483C438.447,288.786 438.603,289.277 438.603,289.955L438.603,296.432C438.603,297.11 438.447,297.6 438.135,297.904C437.822,298.207 437.317,298.359 436.618,298.359L428.514,298.359L428.514,324.639C428.514,325.317 428.358,325.808 428.046,326.111C427.733,326.415 427.228,326.566 426.53,326.566Z" style="fill:white;"/>
            <path d="M426.53,328.233L417.598,328.233C416.349,328.233 415.48,327.85 414.921,327.307C414.347,326.749 413.947,325.886 413.947,324.639L413.947,300.025L407.509,300.025C406.26,300.025 405.391,299.642 404.832,299.099C404.258,298.542 403.858,297.678 403.858,296.432L403.858,289.955C403.858,288.709 404.258,287.845 404.832,287.287C405.391,286.745 406.26,286.361 407.509,286.361L436.618,286.361C437.868,286.361 438.736,286.745 439.295,287.287C439.87,287.845 440.27,288.709 440.27,289.955L440.27,296.432C440.27,297.678 439.87,298.542 439.295,299.099C438.736,299.642 437.868,300.025 436.618,300.025L430.181,300.025L430.181,324.639C430.181,325.886 429.781,326.749 429.207,327.307C428.648,327.85 427.779,328.233 426.53,328.233ZM426.53,326.566C427.228,326.566 427.733,326.415 428.046,326.111C428.358,325.808 428.514,325.317 428.514,324.639L428.514,298.359L436.618,298.359C437.317,298.359 437.822,298.207 438.135,297.904C438.447,297.6 438.603,297.11 438.603,296.432L438.603,289.955C438.603,289.277 438.447,288.786 438.135,288.483C437.822,288.18 437.317,288.028 436.618,288.028L407.509,288.028C406.811,288.028 406.306,288.18 405.993,288.483C405.681,288.786 405.525,289.277 405.525,289.955L405.525,296.432C405.525,297.11 405.681,297.6 405.993,297.904C406.306,298.207 406.811,298.359 407.509,298.359L415.614,298.359L415.614,324.639C415.614,325.317 415.77,325.808 416.082,326.111C416.395,326.415 416.9,326.566 417.598,326.566L426.53,326.566Z"/>
            <path d="M445.053,326.566C444.355,326.566 443.85,326.415 443.537,326.111C443.225,325.808 443.069,325.317 443.069,324.639L443.069,318.27C443.069,317.592 443.225,317.101 443.537,316.798C443.85,316.495 444.355,316.343 445.053,316.343L450.511,316.343L450.511,298.359L445.053,298.359C444.355,298.359 443.85,298.207 443.537,297.904C443.225,297.6 443.069,297.11 443.069,296.432L443.069,289.955C443.069,289.277 443.225,288.786 443.537,288.483C443.85,288.18 444.355,288.028 445.053,288.028L468.539,288.028C469.237,288.028 469.743,288.18 470.055,288.483C470.368,288.786 470.524,289.277 470.524,289.955L470.524,296.432C470.524,297.11 470.368,297.6 470.055,297.904C469.743,298.207 469.237,298.359 468.539,298.359L463.191,298.359L463.191,316.343L468.539,316.343C469.237,316.343 469.743,316.495 470.055,316.798C470.368,317.101 470.524,317.592 470.524,318.27L470.524,324.639C470.524,325.317 470.368,325.808 470.055,326.111C469.743,326.415 469.237,326.566 468.539,326.566L445.053,326.566Z" style="fill:white;"/>
            <path d="M445.053,328.233C443.804,328.233 442.935,327.85 442.376,327.307C441.802,326.749 441.402,325.886 441.402,324.639L441.402,318.27C441.402,317.023 441.802,316.16 442.376,315.602C442.935,315.059 443.804,314.676 445.053,314.676L448.845,314.676L448.845,300.025L445.053,300.025C443.804,300.025 442.935,299.642 442.376,299.099C441.802,298.542 441.402,297.678 441.402,296.432L441.402,289.955C441.402,288.709 441.802,287.845 442.376,287.287C442.935,286.745 443.804,286.361 445.053,286.361L468.539,286.361C469.789,286.361 470.657,286.745 471.216,287.287C471.79,287.845 472.19,288.709 472.19,289.955L472.19,296.432C472.19,297.678 471.79,298.542 471.216,299.099C470.657,299.642 469.789,300.025 468.539,300.025L464.858,300.025L464.858,314.676L468.539,314.676C469.789,314.676 470.657,315.059 471.216,315.602C471.79,316.16 472.19,317.023 472.19,318.27L472.19,324.639C472.19,325.886 471.79,326.749 471.216,327.307C470.657,327.85 469.789,328.233 468.539,328.233L445.053,328.233ZM445.053,326.566L468.539,326.566C469.237,326.566 469.743,326.415 470.055,326.111C470.368,325.808 470.524,325.317 470.524,324.639L470.524,318.27C470.524,317.592 470.368,317.101 470.055,316.798C469.743,316.495 469.237,316.343 468.539,316.343L463.191,316.343L463.191,298.359L468.539,298.359C469.237,298.359 469.743,298.207 470.055,297.904C470.368,297.6 470.524,297.11 470.524,296.432L470.524,289.955C470.524,289.277 470.368,288.786 470.055,288.483C469.743,288.18 469.237,288.028 468.539,288.028L445.053,288.028C444.355,288.028 443.85,288.18 443.537,288.483C443.225,288.786 443.069,289.277 443.069,289.955L443.069,296.432C443.069,297.11 443.225,297.6 443.537,297.904C443.85,298.207 444.355,298.359 445.053,298.359L450.511,298.359L450.511,316.343L445.053,316.343C444.355,316.343 443.85,316.495 443.537,316.798C443.225,317.101 443.069,317.592 443.069,318.27L443.069,324.639C443.069,325.317 443.225,325.808 443.537,326.111C443.85,326.415 444.355,326.566 445.053,326.566Z"/>
            <path d="M503.712,326.566L490.261,326.566C485.666,326.566 482.257,325.674 480.034,323.89C477.81,322.106 476.698,319.358 476.698,315.647L476.698,299.001C476.698,295.29 477.81,292.533 480.034,290.731C482.257,288.929 485.666,288.028 490.261,288.028L503.712,288.028C504.411,288.028 504.916,288.18 505.228,288.483C505.541,288.786 505.697,289.277 505.697,289.955L505.697,296.432C505.697,297.11 505.541,297.6 505.228,297.904C504.916,298.207 504.411,298.359 503.712,298.359L492.631,298.359C491.492,298.359 490.646,298.582 490.095,299.028C489.544,299.474 489.268,300.143 489.268,301.035L489.268,313.774C489.268,314.666 489.544,315.317 490.095,315.727C490.646,316.138 491.492,316.343 492.631,316.343L503.712,316.343C504.411,316.343 504.916,316.495 505.228,316.798C505.541,317.101 505.697,317.592 505.697,318.27L505.697,324.639C505.697,325.317 505.541,325.808 505.228,326.111C504.916,326.415 504.411,326.566 503.712,326.566Z" style="fill:white;"/>
            <path d="M503.712,328.233L490.261,328.233C485.187,328.233 481.446,327.16 478.991,325.19C476.407,323.117 475.032,319.959 475.032,315.647L475.032,299.001C475.032,294.694 476.404,291.528 478.984,289.436C481.441,287.445 485.184,286.361 490.261,286.361L503.712,286.361C504.962,286.361 505.83,286.745 506.389,287.287C506.964,287.845 507.364,288.709 507.364,289.955L507.364,296.432C507.364,297.678 506.964,298.542 506.389,299.099C505.83,299.642 504.962,300.025 503.712,300.025L492.631,300.025C491.972,300.025 491.462,300.065 491.143,300.323C490.955,300.476 490.935,300.73 490.935,301.035L490.935,313.774C490.935,314.041 490.925,314.267 491.09,314.39C491.421,314.637 491.947,314.676 492.631,314.676L503.712,314.676C504.962,314.676 505.83,315.059 506.389,315.602C506.964,316.16 507.364,317.023 507.364,318.27L507.364,324.639C507.364,325.886 506.964,326.749 506.389,327.307C505.83,327.85 504.962,328.233 503.712,328.233ZM503.712,326.566C504.411,326.566 504.916,326.415 505.228,326.111C505.541,325.808 505.697,325.317 505.697,324.639L505.697,318.27C505.697,317.592 505.541,317.101 505.228,316.798C504.916,316.495 504.411,316.343 503.712,316.343L492.631,316.343C491.492,316.343 490.646,316.138 490.095,315.727C489.544,315.317 489.268,314.666 489.268,313.774L489.268,301.035C489.268,300.143 489.544,299.474 490.095,299.028C490.646,298.582 491.492,298.359 492.631,298.359L503.712,298.359C504.411,298.359 504.916,298.207 505.228,297.904C505.541,297.6 505.697,297.11 505.697,296.432L505.697,289.955C505.697,289.277 505.541,288.786 505.228,288.483C504.916,288.18 504.411,288.028 503.712,288.028L490.261,288.028C485.666,288.028 482.257,288.929 480.034,290.731C477.81,292.533 476.698,295.29 476.698,299.001L476.698,315.647C476.698,319.358 477.81,322.106 480.034,323.89C482.257,325.674 485.666,326.566 490.261,326.566L503.712,326.566Z"/>
            <path d="M522.457,326.566L513.912,326.566C513.213,326.566 512.708,326.415 512.395,326.111C512.083,325.808 511.927,325.317 511.927,324.639L511.927,289.955C511.927,289.277 512.083,288.786 512.395,288.483C512.708,288.18 513.213,288.028 513.912,288.028L522.457,288.028C523.155,288.028 523.66,288.18 523.973,288.483C524.285,288.786 524.441,289.277 524.441,289.955L524.441,302.266L526.647,302.266L532.325,289.794C532.582,289.152 532.932,288.697 533.373,288.43C533.814,288.162 534.383,288.028 535.082,288.028L543.572,288.028C544.197,288.028 544.619,288.18 544.84,288.483C545.06,288.786 545.042,289.224 544.785,289.794L539.161,302.266C541.22,302.373 542.864,303.078 544.096,304.38C545.327,305.683 545.942,307.404 545.942,309.545L545.942,324.639C545.942,325.317 545.786,325.808 545.474,326.111C545.161,326.415 544.656,326.566 543.958,326.566L535.468,326.566C534.769,326.566 534.264,326.415 533.952,326.111C533.639,325.808 533.483,325.317 533.483,324.639L533.483,314.202C533.483,313.631 533.336,313.185 533.042,312.864C532.748,312.543 532.307,312.382 531.719,312.382L524.441,312.382L524.441,324.639C524.441,325.317 524.285,325.808 523.973,326.111C523.66,326.415 523.155,326.566 522.457,326.566Z" style="fill:white;"/>
            <path d="M526.108,299.427C527.438,296.506 530.792,289.14 530.785,289.158C531.2,288.131 531.801,287.434 532.508,287.005C533.175,286.6 534.026,286.361 535.082,286.361L543.572,286.361C544.896,286.361 545.721,286.86 546.188,287.503C546.688,288.191 546.888,289.184 546.304,290.479C546.304,290.479 541.571,300.976 541.571,300.976C543.046,301.398 544.288,302.158 545.307,303.235C546.814,304.83 547.609,306.924 547.609,309.545L547.609,324.639C547.609,325.886 547.209,326.749 546.635,327.307C546.076,327.85 545.207,328.233 543.958,328.233L535.468,328.233C534.218,328.233 533.35,327.85 532.791,327.307C532.216,326.749 531.816,325.886 531.816,324.639L531.816,314.202C531.816,314.158 531.81,314.102 531.803,314.054C531.774,314.051 531.744,314.049 531.719,314.049C531.719,314.049 526.108,314.049 526.108,314.049L526.108,324.639C526.108,325.886 525.708,326.749 525.134,327.307C524.575,327.85 523.706,328.233 522.457,328.233L513.912,328.233C512.662,328.233 511.794,327.85 511.234,327.307C510.66,326.749 510.26,325.886 510.26,324.639L510.26,289.955C510.26,288.709 510.66,287.845 511.234,287.287C511.794,286.745 512.662,286.361 513.912,286.361L522.457,286.361C523.706,286.361 524.575,286.745 525.134,287.287C525.708,287.845 526.108,288.709 526.108,289.955L526.108,299.427ZM522.457,326.566C523.155,326.566 523.66,326.415 523.973,326.111C524.285,325.808 524.441,325.317 524.441,324.639L524.441,312.382L531.719,312.382C532.307,312.382 532.748,312.543 533.042,312.864C533.336,313.185 533.483,313.631 533.483,314.202L533.483,324.639C533.483,325.317 533.639,325.808 533.952,326.111C534.264,326.415 534.769,326.566 535.468,326.566L543.958,326.566C544.656,326.566 545.161,326.415 545.474,326.111C545.786,325.808 545.942,325.317 545.942,324.639L545.942,309.545C545.942,307.404 545.327,305.683 544.096,304.38C542.864,303.078 541.22,302.373 539.161,302.266L544.785,289.794C545.042,289.224 545.06,288.786 544.84,288.483C544.619,288.18 544.197,288.028 543.572,288.028L535.082,288.028C534.383,288.028 533.814,288.162 533.373,288.43C532.932,288.697 532.582,289.152 532.325,289.794L526.647,302.266L524.441,302.266L524.441,289.955C524.441,289.277 524.285,288.786 523.973,288.483C523.66,288.18 523.155,288.028 522.457,288.028L513.912,288.028C513.213,288.028 512.708,288.18 512.395,288.483C512.083,288.786 511.927,289.277 511.927,289.955L511.927,324.639C511.927,325.317 512.083,325.808 512.395,326.111C512.708,326.415 513.213,326.566 513.912,326.566L522.457,326.566Z"/>
            <path d="M580.62,326.566L555.039,326.566C554.341,326.566 553.835,326.415 553.523,326.111C553.21,325.808 553.054,325.317 553.054,324.639L553.054,289.955C553.054,289.277 553.21,288.786 553.523,288.483C553.835,288.18 554.341,288.028 555.039,288.028L580.62,288.028C581.318,288.028 581.823,288.18 582.136,288.483C582.448,288.786 582.604,289.277 582.604,289.955L582.604,296.218C582.604,296.895 582.448,297.386 582.136,297.689C581.823,297.993 581.318,298.144 580.62,298.144L565.404,298.144L565.404,302.266L576.154,302.266C576.852,302.266 577.358,302.418 577.67,302.721C577.983,303.024 578.139,303.515 578.139,304.193L578.139,309.92C578.139,310.598 577.983,311.089 577.67,311.392C577.358,311.695 576.852,311.847 576.154,311.847L565.404,311.847L565.404,316.45L580.62,316.45C581.318,316.45 581.823,316.602 582.136,316.905C582.448,317.208 582.604,317.699 582.604,318.377L582.604,324.639C582.604,325.317 582.448,325.808 582.136,326.111C581.823,326.415 581.318,326.566 580.62,326.566Z" style="fill:white;"/>
            <path d="M580.62,328.233L555.039,328.233C553.789,328.233 552.921,327.85 552.362,327.307C551.788,326.749 551.388,325.886 551.388,324.639L551.388,289.955C551.388,288.709 551.788,287.845 552.362,287.287C552.921,286.745 553.789,286.361 555.039,286.361L580.62,286.361C581.869,286.361 582.738,286.745 583.297,287.287C583.871,287.845 584.271,288.709 584.271,289.955L584.271,296.218C584.271,297.464 583.871,298.328 583.297,298.885C582.738,299.428 581.869,299.811 580.62,299.811L567.07,299.811C567.07,299.811 567.07,300.599 567.07,300.599L576.154,300.599C577.404,300.599 578.272,300.982 578.831,301.525C579.405,302.083 579.805,302.946 579.805,304.193L579.805,309.92C579.805,311.166 579.405,312.03 578.831,312.588C578.272,313.13 577.404,313.514 576.154,313.514C576.154,313.514 567.07,313.514 567.07,313.514L567.07,314.783L580.62,314.783C581.869,314.783 582.738,315.166 583.297,315.709C583.871,316.267 584.271,317.13 584.271,318.377L584.271,324.639C584.271,325.886 583.871,326.749 583.297,327.307C582.738,327.85 581.869,328.233 580.62,328.233ZM580.62,326.566C581.318,326.566 581.823,326.415 582.136,326.111C582.448,325.808 582.604,325.317 582.604,324.639L582.604,318.377C582.604,317.699 582.448,317.208 582.136,316.905C581.823,316.602 581.318,316.45 580.62,316.45L565.404,316.45L565.404,311.847L576.154,311.847C576.852,311.847 577.358,311.695 577.67,311.392C577.983,311.089 578.139,310.598 578.139,309.92L578.139,304.193C578.139,303.515 577.983,303.024 577.67,302.721C577.358,302.418 576.852,302.266 576.154,302.266L565.404,302.266L565.404,298.144L580.62,298.144C581.318,298.144 581.823,297.993 582.136,297.689C582.448,297.386 582.604,296.895 582.604,296.218L582.604,289.955C582.604,289.277 582.448,288.786 582.136,288.483C581.823,288.18 581.318,288.028 580.62,288.028L555.039,288.028C554.341,288.028 553.835,288.18 553.523,288.483C553.21,288.786 553.054,289.277 553.054,289.955L553.054,324.639C553.054,325.317 553.21,325.808 553.523,326.111C553.835,326.415 554.341,326.566 555.039,326.566L580.62,326.566Z"/>
            <path d="M599.585,326.566L591.094,326.566C590.396,326.566 589.891,326.415 589.578,326.111C589.266,325.808 589.11,325.317 589.11,324.639L589.11,289.955C589.11,289.277 589.266,288.786 589.578,288.483C589.891,288.18 590.396,288.028 591.094,288.028L609.453,288.028C613.569,288.028 616.409,288.858 617.971,290.517C619.533,292.176 620.314,294.326 620.314,296.967L620.314,299.429C620.314,300.928 620.084,302.203 619.625,303.256C619.165,304.309 618.366,305.067 617.226,305.531C619.211,305.745 620.819,306.53 622.05,307.886C623.282,309.242 623.897,311.044 623.897,313.292L623.897,324.639C623.897,325.317 623.741,325.808 623.429,326.111C623.116,326.415 622.611,326.566 621.912,326.566L613.367,326.566C612.669,326.566 612.164,326.415 611.851,326.111C611.539,325.808 611.382,325.317 611.382,324.639L611.382,316.45C611.382,315.665 611.226,315.085 610.914,314.71C610.601,314.336 610.059,314.148 609.288,314.148L601.569,314.148L601.569,324.639C601.569,325.317 601.413,325.808 601.101,326.111C600.788,326.415 600.283,326.566 599.585,326.566Z" style="fill:white;"/>
            <path d="M609.681,315.858C609.591,315.842 609.417,315.815 609.288,315.815L603.236,315.815L603.236,324.639C603.236,325.886 602.836,326.749 602.262,327.307C601.703,327.85 600.834,328.233 599.585,328.233L591.094,328.233C589.845,328.233 588.976,327.85 588.417,327.307C587.843,326.749 587.443,325.886 587.443,324.639L587.443,289.955C587.443,288.709 587.843,287.845 588.417,287.287C588.976,286.745 589.845,286.361 591.094,286.361L609.453,286.361C614.178,286.361 617.391,287.47 619.184,289.375C621.026,291.331 621.98,293.854 621.98,296.967L621.98,299.429C621.98,301.19 621.692,302.686 621.152,303.923C621.017,304.231 620.862,304.522 620.686,304.795C621.666,305.279 622.532,305.937 623.284,306.766C624.774,308.406 625.564,310.572 625.564,313.292L625.564,324.639C625.564,325.886 625.164,326.749 624.59,327.307C624.03,327.85 623.162,328.233 621.912,328.233L613.367,328.233C612.118,328.233 611.249,327.85 610.69,327.307C610.116,326.749 609.716,325.886 609.716,324.639L609.716,316.45C609.716,316.205 609.74,316.001 609.681,315.858ZM599.585,326.566C600.283,326.566 600.788,326.415 601.101,326.111C601.413,325.808 601.569,325.317 601.569,324.639L601.569,314.148L609.288,314.148C610.059,314.148 610.601,314.336 610.914,314.71C611.226,315.085 611.382,315.665 611.382,316.45L611.382,324.639C611.382,325.317 611.539,325.808 611.851,326.111C612.164,326.415 612.669,326.566 613.367,326.566L621.912,326.566C622.611,326.566 623.116,326.415 623.429,326.111C623.741,325.808 623.897,325.317 623.897,324.639L623.897,313.292C623.897,311.044 623.282,309.242 622.05,307.886C620.819,306.53 619.211,305.745 617.226,305.531C618.366,305.067 619.165,304.309 619.625,303.256C620.084,302.203 620.314,300.928 620.314,299.429L620.314,296.967C620.314,294.326 619.533,292.176 617.971,290.517C616.409,288.858 613.569,288.028 609.453,288.028L591.094,288.028C590.396,288.028 589.891,288.18 589.578,288.483C589.266,288.786 589.11,289.277 589.11,289.955L589.11,324.639C589.11,325.317 589.266,325.808 589.578,326.111C589.891,326.415 590.396,326.566 591.094,326.566L599.585,326.566Z"/>
            <path d="M601.569,297.663L601.569,304.514L605.704,304.514C606.66,304.514 607.303,304.273 607.634,303.791C607.964,303.31 608.13,302.712 608.13,301.998L608.13,300.178C608.13,299.465 607.964,298.867 607.634,298.385C607.303,297.904 606.66,297.663 605.704,297.663L601.569,297.663Z" style="fill:rgb(255,0,0);"/>
            <path d="M601.569,297.663L605.704,297.663C606.66,297.663 607.303,297.904 607.634,298.385C607.964,298.867 608.13,299.465 608.13,300.178L608.13,301.998C608.13,302.712 607.964,303.31 607.634,303.791C607.303,304.273 606.66,304.514 605.704,304.514L601.569,304.514L601.569,297.663ZM606.308,302.77C606.425,302.556 606.463,302.296 606.463,301.998L606.463,300.178C606.463,299.881 606.425,299.62 606.308,299.407C606.207,299.386 605.918,299.329 605.704,299.329L603.236,299.329L603.236,302.847L605.704,302.847C605.918,302.847 606.207,302.791 606.308,302.77Z"/>
            <path d="M648.485,326.566L631.064,326.566C630.366,326.566 629.86,326.415 629.548,326.111C629.236,325.808 629.079,325.317 629.079,324.639L629.079,318.377C629.079,317.699 629.236,317.208 629.548,316.905C629.86,316.602 630.366,316.45 631.064,316.45L645.894,316.45C646.372,316.45 646.73,316.298 646.969,315.995C647.208,315.692 647.328,315.326 647.328,314.898C647.328,314.291 647.208,313.845 646.969,313.56C646.73,313.274 646.372,313.114 645.894,313.078L637.625,311.954C635.052,311.597 632.985,310.776 631.422,309.492C629.86,308.207 629.079,306.066 629.079,303.069L629.079,297.449C629.079,294.415 630.09,292.087 632.112,290.464C634.133,288.84 636.926,288.028 640.491,288.028L655.928,288.028C656.626,288.028 657.132,288.18 657.444,288.483C657.757,288.786 657.913,289.277 657.913,289.955L657.913,296.325C657.913,297.003 657.757,297.493 657.444,297.797C657.132,298.1 656.626,298.251 655.928,298.251L643.083,298.251C642.605,298.251 642.237,298.403 641.98,298.706C641.723,299.01 641.594,299.393 641.594,299.857C641.594,300.321 641.723,300.714 641.98,301.035C642.237,301.356 642.605,301.534 643.083,301.57L651.297,302.641C653.87,302.997 655.946,303.818 657.527,305.103C659.107,306.387 659.897,308.528 659.897,311.526L659.897,317.146C659.897,320.179 658.878,322.507 656.838,324.131C654.798,325.754 652.014,326.566 648.485,326.566Z" style="fill:white;"/>
            <path d="M643.298,299.918L651.512,300.988C651.517,300.988 651.522,300.989 651.526,300.99C654.443,301.394 656.786,302.353 658.578,303.809C660.488,305.362 661.564,307.903 661.564,311.526L661.564,317.146C661.564,320.754 660.302,323.503 657.876,325.435C655.578,327.263 652.459,328.233 648.485,328.233L631.064,328.233C629.814,328.233 628.946,327.85 628.387,327.307C627.813,326.749 627.413,325.886 627.413,324.639L627.413,318.377C627.413,317.13 627.813,316.267 628.387,315.709C628.946,315.166 629.814,314.783 631.064,314.783L645.656,314.783C645.654,314.764 645.652,314.745 645.65,314.727L637.4,313.605L637.396,313.605C634.474,313.2 632.138,312.238 630.364,310.779C628.478,309.228 627.413,306.688 627.413,303.069L627.413,297.449C627.413,293.842 628.664,291.095 631.068,289.164C633.345,287.335 636.475,286.361 640.491,286.361L655.928,286.361C657.178,286.361 658.046,286.745 658.605,287.287C659.179,287.845 659.579,288.709 659.579,289.955L659.579,296.325C659.579,297.571 659.179,298.435 658.605,298.992C658.046,299.535 657.178,299.918 655.928,299.918L643.298,299.918ZM648.485,326.566C652.014,326.566 654.798,325.754 656.838,324.131C658.878,322.507 659.897,320.179 659.897,317.146L659.897,311.526C659.897,308.528 659.107,306.387 657.527,305.103C655.946,303.818 653.87,302.997 651.297,302.641L643.083,301.57C642.605,301.534 642.237,301.356 641.98,301.035C641.723,300.714 641.594,300.321 641.594,299.857C641.594,299.393 641.723,299.01 641.98,298.706C642.237,298.403 642.605,298.251 643.083,298.251L655.928,298.251C656.626,298.251 657.132,298.1 657.444,297.797C657.757,297.493 657.913,297.003 657.913,296.325L657.913,289.955C657.913,289.277 657.757,288.786 657.444,288.483C657.132,288.18 656.626,288.028 655.928,288.028L640.491,288.028C636.926,288.028 634.133,288.84 632.112,290.464C630.09,292.087 629.079,294.415 629.079,297.449L629.079,303.069C629.079,306.066 629.86,308.207 631.422,309.492C632.985,310.776 635.052,311.597 637.625,311.954L645.894,313.078C646.372,313.114 646.73,313.274 646.969,313.56C647.208,313.845 647.328,314.291 647.328,314.898C647.328,315.326 647.208,315.692 646.969,315.995C646.73,316.298 646.372,316.45 645.894,316.45L631.064,316.45C630.366,316.45 629.86,316.602 629.548,316.905C629.236,317.208 629.079,317.699 629.079,318.377L629.079,324.639C629.079,325.317 629.236,325.808 629.548,326.111C629.86,326.415 630.366,326.566 631.064,326.566L648.485,326.566Z"/>
        </g>
    </g>
</svg>
