<?xml version="1.0" encoding="UTF-8" standalone="no"?>
<!DOCTYPE svg PUBLIC "-//W3C//DTD SVG 1.1//EN" "http://www.w3.org/Graphics/SVG/1.1/DTD/svg11.dtd">
<svg width="100%" height="100%" viewBox="0 0 332 82" version="1.1" xmlns="http://www.w3.org/2000/svg" xmlns:xlink="http://www.w3.org/1999/xlink" xml:space="preserve" xmlns:serif="http://www.serif.com/" style="fill-rule:evenodd;clip-rule:evenodd;stroke-linejoin:round;stroke-miterlimit:2;">
    <g transform="matrix(1,0,0,1,-396.971,-631.353)">
        <g transform="matrix(1,0,0,1,-376.46,35.3392)">
            <g transform="matrix(1,0,0,1,527.367,146.014)">
                <g transform="matrix(1.51401,0,0,1,-126.48,0)">
                    <path d="M464.72,470.281C464.72,459.088 458.718,450 451.325,450L259.46,450C252.067,450 246.065,459.088 246.065,470.281L246.065,510.843C246.065,522.037 252.067,531.125 259.46,531.125L451.325,531.125C458.718,531.125 464.72,522.037 464.72,510.843L464.72,470.281Z" style="fill:white;"/>
                </g>
                <g>
                    <g transform="matrix(1.6673,0,0,0.94954,-269.69,-146.512)">
                        <path d="M374.924,690.473L359.537,690.473C359.144,690.473 358.86,690.319 358.684,690.011C358.508,689.704 358.42,689.206 358.42,688.518L358.42,681.244C358.42,680.556 358.482,679.95 358.606,679.425C358.73,678.9 358.927,678.385 359.196,677.878L366.734,661.863L360.095,661.863C359.702,661.863 359.418,661.709 359.242,661.402C359.066,661.094 358.978,660.596 358.978,659.909L358.978,653.34C358.978,652.652 359.066,652.155 359.242,651.847C359.418,651.539 359.702,651.386 360.095,651.386L374.365,651.386C374.758,651.386 375.042,651.539 375.218,651.847C375.394,652.155 375.482,652.652 375.482,653.34L375.482,661.429C375.482,662.153 375.42,662.777 375.296,663.302C375.172,663.826 374.975,664.342 374.706,664.849L367.509,680.104L374.924,680.104C375.316,680.104 375.601,680.258 375.777,680.565C375.952,680.873 376.04,681.37 376.04,682.058L376.04,688.518C376.04,689.206 375.952,689.704 375.777,690.011C375.601,690.319 375.316,690.473 374.924,690.473Z" style="stroke:rgb(128,128,128);stroke-width:1.23px;"/>
                    </g>
                    <g transform="matrix(1.6673,0,0,0.94954,-269.69,-146.512)">
                        <path d="M380.228,690.473C379.835,690.473 379.551,690.319 379.375,690.011C379.199,689.704 379.111,689.206 379.111,688.518L379.111,682.058C379.111,681.37 379.199,680.873 379.375,680.565C379.551,680.258 379.835,680.104 380.228,680.104L383.299,680.104L383.299,661.863L380.228,661.863C379.835,661.863 379.551,661.709 379.375,661.402C379.199,661.094 379.111,660.596 379.111,659.909L379.111,653.34C379.111,652.652 379.199,652.155 379.375,651.847C379.551,651.539 379.835,651.386 380.228,651.386L393.443,651.386C393.836,651.386 394.121,651.539 394.297,651.847C394.472,652.155 394.56,652.652 394.56,653.34L394.56,659.909C394.56,660.596 394.472,661.094 394.297,661.402C394.121,661.709 393.836,661.863 393.443,661.863L390.434,661.863L390.434,680.104L393.443,680.104C393.836,680.104 394.121,680.258 394.297,680.565C394.472,680.873 394.56,681.37 394.56,682.058L394.56,688.518C394.56,689.206 394.472,689.704 394.297,690.011C394.121,690.319 393.836,690.473 393.443,690.473L380.228,690.473Z" style="stroke:rgb(128,128,128);stroke-width:1.23px;"/>
                    </g>
                    <g transform="matrix(1.6673,0,0,0.94954,-269.69,-146.512)">
                        <path d="M404.146,690.473L399.493,690.473C399.1,690.473 398.815,690.319 398.64,690.011C398.464,689.704 398.376,689.206 398.376,688.518L398.376,653.34C398.376,652.652 398.464,652.155 398.64,651.847C398.815,651.539 399.1,651.386 399.493,651.386L402.719,651.386C403.112,651.386 403.448,651.494 403.727,651.711C404.006,651.928 404.28,652.308 404.549,652.851L410.567,664.903L410.567,653.34C410.567,652.652 410.655,652.155 410.831,651.847C411.007,651.539 411.291,651.386 411.684,651.386L416.337,651.386C416.73,651.386 417.015,651.539 417.19,651.847C417.366,652.155 417.454,652.652 417.454,653.34L417.454,688.518C417.454,689.206 417.366,689.704 417.19,690.011C417.015,690.319 416.73,690.473 416.337,690.473L411.684,690.473C411.291,690.473 411.007,690.319 410.831,690.011C410.655,689.704 410.567,689.206 410.567,688.518L410.567,681.841L405.263,670.603L405.263,688.518C405.263,689.206 405.175,689.704 404.999,690.011C404.823,690.319 404.539,690.473 404.146,690.473Z" style="stroke:rgb(128,128,128);stroke-width:1.23px;"/>
                    </g>
                    <g transform="matrix(1.6673,0,0,0.94954,-269.69,-146.512)">
                        <path d="M437.246,690.473L422.852,690.473C422.459,690.473 422.175,690.319 421.999,690.011C421.823,689.704 421.735,689.206 421.735,688.518L421.735,653.34C421.735,652.652 421.823,652.155 421.999,651.847C422.175,651.539 422.459,651.386 422.852,651.386L437.246,651.386C437.639,651.386 437.923,651.539 438.099,651.847C438.275,652.155 438.363,652.652 438.363,653.34L438.363,659.692C438.363,660.379 438.275,660.877 438.099,661.184C437.923,661.492 437.639,661.646 437.246,661.646L428.684,661.646L428.684,665.826L434.733,665.826C435.126,665.826 435.41,665.98 435.586,666.288C435.762,666.595 435.85,667.093 435.85,667.78L435.85,673.589C435.85,674.277 435.762,674.775 435.586,675.082C435.41,675.39 435.126,675.544 434.733,675.544L428.684,675.544L428.684,680.212L437.246,680.212C437.639,680.212 437.923,680.366 438.099,680.674C438.275,680.981 438.363,681.479 438.363,682.167L438.363,688.518C438.363,689.206 438.275,689.704 438.099,690.011C437.923,690.319 437.639,690.473 437.246,690.473Z" style="stroke:rgb(128,128,128);stroke-width:1.23px;"/>
                    </g>
                    <g transform="matrix(1.6673,0,0,0.94954,-269.69,-146.512)">
                        <path d="M452.384,690.473L442.582,690.473C442.189,690.473 441.904,690.319 441.729,690.011C441.553,689.704 441.465,689.206 441.465,688.518L441.465,682.167C441.465,681.479 441.553,680.981 441.729,680.674C441.904,680.366 442.189,680.212 442.582,680.212L450.926,680.212C451.195,680.212 451.397,680.059 451.531,679.751C451.666,679.443 451.733,679.072 451.733,678.638C451.733,678.023 451.666,677.57 451.531,677.281C451.397,676.991 451.195,676.828 450.926,676.792L446.273,675.652C444.826,675.29 443.662,674.458 442.783,673.155C441.904,671.852 441.465,669.681 441.465,666.64L441.465,660.94C441.465,657.864 442.034,655.502 443.171,653.856C444.309,652.209 445.88,651.386 447.886,651.386L456.572,651.386C456.965,651.386 457.25,651.539 457.425,651.847C457.601,652.155 457.689,652.652 457.689,653.34L457.689,659.8C457.689,660.488 457.601,660.985 457.425,661.293C457.25,661.601 456.965,661.754 456.572,661.754L449.344,661.754C449.076,661.754 448.869,661.908 448.724,662.216C448.579,662.524 448.507,662.913 448.507,663.383C448.507,663.854 448.579,664.252 448.724,664.577C448.869,664.903 449.076,665.084 449.344,665.12L453.967,666.206C455.414,666.568 456.583,667.4 457.472,668.703C458.361,670.006 458.806,672.178 458.806,675.218L458.806,680.918C458.806,683.994 458.232,686.356 457.084,688.003C455.936,689.649 454.37,690.473 452.384,690.473Z" style="stroke:rgb(128,128,128);stroke-width:1.23px;"/>
                    </g>
                </g>
            </g>
        </g>
    </g>
</svg>
