<?xml version="1.0" encoding="UTF-8" standalone="no"?>
<!DOCTYPE svg PUBLIC "-//W3C//DTD SVG 1.1//EN" "http://www.w3.org/Graphics/SVG/1.1/DTD/svg11.dtd">
<svg width="100%" height="100%" viewBox="0 0 332 82" version="1.1" xmlns="http://www.w3.org/2000/svg" xmlns:xlink="http://www.w3.org/1999/xlink" xml:space="preserve" xmlns:serif="http://www.serif.com/" style="fill-rule:evenodd;clip-rule:evenodd;stroke-linejoin:round;stroke-miterlimit:2;">
    <g transform="matrix(1,0,0,1,-396.971,-631.353)">
        <g transform="matrix(1,0,0,1,-376.46,35.3392)">
            <g transform="matrix(1,0,0,1,527.367,146.014)">
                <g transform="matrix(1.51401,0,0,1,-126.48,0)">
                    <path d="M464.72,470.281C464.72,459.088 458.718,450 451.325,450L259.46,450C252.067,450 246.065,459.088 246.065,470.281L246.065,510.843C246.065,522.037 252.067,531.125 259.46,531.125L451.325,531.125C458.718,531.125 464.72,522.037 464.72,510.843L464.72,470.281Z" style="fill:white;"/>
                </g>
                <g transform="matrix(1.6673,0,0,0.94954,-269.69,-146.512)">
                    <g>
                        <g transform="matrix(0.571429,0,0,1,152.997,0)">
                            <g transform="matrix(54.2878,0,0,54.2878,537.337,690.473)">
                            </g>
                            <text x="356.993px" y="690.473px" style="font-family:'Bungee-Regular', 'Bungee';font-size:54.288px;">ZINES</text>
                        </g>
                        <path d="M450.027,663.51L454.099,664.466C454.102,664.467 454.105,664.468 454.107,664.468C455.764,664.883 457.095,665.865 458.112,667.356C459.192,668.938 459.806,671.527 459.806,675.218L459.806,680.918C459.806,684.595 459.089,687.394 457.717,689.362C456.412,691.234 454.641,692.228 452.384,692.228L442.582,692.228C441.853,692.228 441.349,691.825 441.023,691.255C440.696,690.683 440.465,689.797 440.465,688.518L440.465,682.167C440.465,680.888 440.696,680.003 441.023,679.431C441.349,678.86 441.853,678.457 442.582,678.457L450.488,678.457L446.135,677.391L446.132,677.39C444.473,676.975 443.146,675.99 442.138,674.496C441.072,672.916 440.465,670.328 440.465,666.64L440.465,660.94C440.465,657.265 441.176,654.468 442.535,652.501C443.829,650.629 445.605,649.63 447.886,649.63L456.572,649.63C457.301,649.63 457.805,650.034 458.131,650.604C458.458,651.176 458.689,652.061 458.689,653.34L458.689,659.8C458.689,661.079 458.458,661.964 458.131,662.536C457.805,663.106 457.301,663.51 456.572,663.51L450.027,663.51ZM452.384,690.473C454.37,690.473 455.936,689.649 457.084,688.003C458.232,686.356 458.806,683.994 458.806,680.918L458.806,675.218C458.806,672.178 458.361,670.006 457.472,668.703C456.583,667.4 455.414,666.568 453.967,666.206L449.344,665.12C449.076,665.084 448.869,664.903 448.724,664.577C448.579,664.252 448.507,663.854 448.507,663.383C448.507,662.913 448.579,662.524 448.724,662.216C448.869,661.908 449.076,661.754 449.344,661.754L456.572,661.754C456.965,661.754 457.25,661.601 457.425,661.293C457.601,660.985 457.689,660.488 457.689,659.8L457.689,653.34C457.689,652.652 457.601,652.155 457.425,651.847C457.25,651.539 456.965,651.386 456.572,651.386L447.886,651.386C445.88,651.386 444.309,652.209 443.171,653.856C442.034,655.502 441.465,657.864 441.465,660.94L441.465,666.64C441.465,669.681 441.904,671.852 442.783,673.155C443.662,674.458 444.826,675.29 446.273,675.652L450.926,676.792C451.195,676.828 451.397,676.991 451.531,677.281C451.666,677.57 451.733,678.023 451.733,678.638C451.733,679.072 451.666,679.443 451.531,679.751C451.397,680.059 451.195,680.212 450.926,680.212L442.582,680.212C442.189,680.212 441.904,680.366 441.729,680.674C441.553,680.981 441.465,681.479 441.465,682.167L441.465,688.518C441.465,689.206 441.553,689.704 441.729,690.011C441.904,690.319 442.189,690.473 442.582,690.473L452.384,690.473ZM374.924,692.228L359.537,692.228C358.809,692.228 358.304,691.825 357.978,691.255C357.651,690.683 357.42,689.797 357.42,688.518L357.42,681.244C357.42,680.301 357.513,679.472 357.683,678.752C357.845,678.066 358.095,677.385 358.443,676.722L364.611,663.618L360.095,663.618C359.367,663.618 358.862,663.215 358.536,662.645C358.21,662.073 357.979,661.187 357.979,659.909L357.979,653.34C357.979,652.061 358.21,651.176 358.536,650.604C358.862,650.034 359.367,649.63 360.095,649.63L374.365,649.63C375.093,649.63 375.598,650.034 375.924,650.604C376.251,651.176 376.482,652.061 376.482,653.34L376.482,661.429C376.482,662.414 376.388,663.261 376.219,663.975C376.057,664.661 375.806,665.343 375.459,666.006L369.636,678.349L374.924,678.349C375.652,678.349 376.156,678.752 376.482,679.322C376.809,679.894 377.04,680.78 377.04,682.058L377.04,688.518C377.04,689.797 376.809,690.683 376.482,691.255C376.156,691.825 375.652,692.228 374.924,692.228ZM374.924,690.473C375.316,690.473 375.601,690.319 375.777,690.011C375.952,689.704 376.04,689.206 376.04,688.518L376.04,682.058C376.04,681.37 375.952,680.873 375.777,680.565C375.601,680.258 375.316,680.104 374.924,680.104L367.509,680.104L374.706,664.849C374.975,664.342 375.172,663.826 375.296,663.302C375.42,662.777 375.482,662.153 375.482,661.429L375.482,653.34C375.482,652.652 375.394,652.155 375.218,651.847C375.042,651.539 374.758,651.386 374.365,651.386L360.095,651.386C359.702,651.386 359.418,651.539 359.242,651.847C359.066,652.155 358.978,652.652 358.978,653.34L358.978,659.909C358.978,660.596 359.066,661.094 359.242,661.402C359.418,661.709 359.702,661.863 360.095,661.863L366.734,661.863L359.196,677.878C358.927,678.385 358.73,678.9 358.606,679.425C358.482,679.95 358.42,680.556 358.42,681.244L358.42,688.518C358.42,689.206 358.508,689.704 358.684,690.011C358.86,690.319 359.144,690.473 359.537,690.473L374.924,690.473ZM380.228,692.228C379.5,692.228 378.995,691.825 378.669,691.255C378.343,690.683 378.112,689.797 378.112,688.518L378.112,682.058C378.112,680.78 378.343,679.894 378.669,679.322C378.995,678.752 379.5,678.349 380.228,678.349L382.3,678.349C382.3,678.349 382.3,663.618 382.3,663.618L380.228,663.618C379.5,663.618 378.995,663.215 378.669,662.645C378.343,662.073 378.112,661.187 378.112,659.909L378.112,653.34C378.112,652.061 378.343,651.176 378.669,650.604C378.995,650.034 379.5,649.63 380.228,649.63L393.443,649.63C394.172,649.63 394.676,650.034 395.002,650.604C395.329,651.176 395.56,652.061 395.56,653.34L395.56,659.909C395.56,661.187 395.329,662.073 395.002,662.645C394.676,663.215 394.172,663.618 393.443,663.618L391.434,663.618L391.434,678.349L393.443,678.349C394.172,678.349 394.676,678.752 395.002,679.322C395.329,679.894 395.56,680.78 395.56,682.058L395.56,688.518C395.56,689.797 395.329,690.683 395.002,691.255C394.676,691.825 394.172,692.228 393.443,692.228L380.228,692.228ZM380.228,690.473L393.443,690.473C393.836,690.473 394.121,690.319 394.297,690.011C394.472,689.704 394.56,689.206 394.56,688.518L394.56,682.058C394.56,681.37 394.472,680.873 394.297,680.565C394.121,680.258 393.836,680.104 393.443,680.104L390.434,680.104L390.434,661.863L393.443,661.863C393.836,661.863 394.121,661.709 394.297,661.402C394.472,661.094 394.56,660.596 394.56,659.909L394.56,653.34C394.56,652.652 394.472,652.155 394.297,651.847C394.121,651.539 393.836,651.386 393.443,651.386L380.228,651.386C379.835,651.386 379.551,651.539 379.375,651.847C379.199,652.155 379.111,652.652 379.111,653.34L379.111,659.909C379.111,660.596 379.199,661.094 379.375,661.402C379.551,661.709 379.835,661.863 380.228,661.863L383.299,661.863L383.299,680.104L380.228,680.104C379.835,680.104 379.551,680.258 379.375,680.565C379.199,680.873 379.111,681.37 379.111,682.058L379.111,688.518C379.111,689.206 379.199,689.704 379.375,690.011C379.551,690.319 379.835,690.473 380.228,690.473ZM404.146,692.228L399.493,692.228C398.764,692.228 398.26,691.825 397.934,691.255C397.607,690.683 397.376,689.797 397.376,688.518L397.376,653.34C397.376,652.061 397.607,651.176 397.934,650.604C398.26,650.034 398.764,649.63 399.493,649.63L402.719,649.63C403.27,649.63 403.74,649.802 404.132,650.106C404.527,650.414 404.923,650.932 405.301,651.694C405.301,651.694 409.568,660.239 409.568,660.239L409.568,653.34C409.568,652.061 409.799,651.176 410.125,650.604C410.451,650.034 410.956,649.63 411.684,649.63L416.337,649.63C417.066,649.63 417.57,650.034 417.896,650.604C418.223,651.176 418.454,652.061 418.454,653.34L418.454,688.518C418.454,689.797 418.223,690.683 417.896,691.255C417.57,691.825 417.066,692.228 416.337,692.228L411.684,692.228C410.956,692.228 410.451,691.825 410.125,691.255C409.799,690.683 409.568,689.797 409.568,688.518L409.568,682.474L406.262,675.471L406.262,688.518C406.262,689.797 406.031,690.683 405.705,691.255C405.379,691.825 404.874,692.228 404.146,692.228ZM404.146,690.473C404.539,690.473 404.823,690.319 404.999,690.011C405.175,689.704 405.263,689.206 405.263,688.518L405.263,670.603L410.567,681.841L410.567,688.518C410.567,689.206 410.655,689.704 410.831,690.011C411.007,690.319 411.291,690.473 411.684,690.473L416.337,690.473C416.73,690.473 417.015,690.319 417.19,690.011C417.366,689.704 417.454,689.206 417.454,688.518L417.454,653.34C417.454,652.652 417.366,652.155 417.19,651.847C417.015,651.539 416.73,651.386 416.337,651.386L411.684,651.386C411.291,651.386 411.007,651.539 410.831,651.847C410.655,652.155 410.567,652.652 410.567,653.34L410.567,664.903L404.549,652.851C404.28,652.308 404.006,651.928 403.727,651.711C403.448,651.494 403.112,651.386 402.719,651.386L399.493,651.386C399.1,651.386 398.815,651.539 398.64,651.847C398.464,652.155 398.376,652.652 398.376,653.34L398.376,688.518C398.376,689.206 398.464,689.704 398.64,690.011C398.815,690.319 399.1,690.473 399.493,690.473L404.146,690.473ZM437.246,692.228L422.852,692.228C422.124,692.228 421.619,691.825 421.293,691.255C420.966,690.683 420.736,689.797 420.736,688.518L420.736,653.34C420.736,652.061 420.966,651.176 421.293,650.604C421.619,650.034 422.124,649.63 422.852,649.63L437.246,649.63C437.974,649.63 438.479,650.034 438.805,650.604C439.132,651.176 439.362,652.061 439.362,653.34L439.362,659.692C439.362,660.97 439.132,661.856 438.805,662.428C438.479,662.998 437.974,663.401 437.246,663.401L429.684,663.401L429.684,664.071L434.733,664.071C435.461,664.071 435.966,664.474 436.292,665.044C436.619,665.616 436.85,666.502 436.85,667.78L436.85,673.589C436.85,674.868 436.619,675.753 436.292,676.325C435.966,676.896 435.461,677.299 434.733,677.299L429.684,677.299L429.684,678.457L437.246,678.457C437.974,678.457 438.479,678.86 438.805,679.431C439.132,680.003 439.362,680.888 439.362,682.167L439.362,688.518C439.362,689.797 439.132,690.683 438.805,691.255C438.479,691.825 437.974,692.228 437.246,692.228ZM437.246,690.473C437.639,690.473 437.923,690.319 438.099,690.011C438.275,689.704 438.363,689.206 438.363,688.518L438.363,682.167C438.363,681.479 438.275,680.981 438.099,680.674C437.923,680.366 437.639,680.212 437.246,680.212L428.684,680.212L428.684,675.544L434.733,675.544C435.126,675.544 435.41,675.39 435.586,675.082C435.762,674.775 435.85,674.277 435.85,673.589L435.85,667.78C435.85,667.093 435.762,666.595 435.586,666.288C435.41,665.98 435.126,665.826 434.733,665.826L428.684,665.826L428.684,661.646L437.246,661.646C437.639,661.646 437.923,661.492 438.099,661.184C438.275,660.877 438.363,660.379 438.363,659.692L438.363,653.34C438.363,652.652 438.275,652.155 438.099,651.847C437.923,651.539 437.639,651.386 437.246,651.386L422.852,651.386C422.459,651.386 422.175,651.539 421.999,651.847C421.823,652.155 421.735,652.652 421.735,653.34L421.735,688.518C421.735,689.206 421.823,689.704 421.999,690.011C422.175,690.319 422.459,690.473 422.852,690.473L437.246,690.473Z" style="fill:rgb(128,128,128);"/>
                    </g>
                </g>
            </g>
        </g>
    </g>
</svg>
