<?xml version="1.0" encoding="UTF-8" standalone="no"?>
<!DOCTYPE svg PUBLIC "-//W3C//DTD SVG 1.1//EN" "http://www.w3.org/Graphics/SVG/1.1/DTD/svg11.dtd">
<svg width="100%" height="100%" viewBox="0 0 187 42" version="1.1" xmlns="http://www.w3.org/2000/svg" xmlns:xlink="http://www.w3.org/1999/xlink" xml:space="preserve" xmlns:serif="http://www.serif.com/" style="fill-rule:evenodd;clip-rule:evenodd;stroke-linejoin:round;stroke-miterlimit:2;">
    <g transform="matrix(1,0,0,1,-371.493,-652.908)">
        <g>
            <path d="M400.823,692.113L373.478,692.113C372.779,692.113 372.274,691.962 371.962,691.658C371.649,691.355 371.493,690.864 371.493,690.186L371.493,683.014C371.493,682.336 371.603,681.738 371.824,681.221C372.044,680.703 372.394,680.195 372.871,679.695L386.268,663.905L374.47,663.905C373.772,663.905 373.266,663.754 372.954,663.451C372.642,663.147 372.485,662.657 372.485,661.979L372.485,655.502C372.485,654.824 372.642,654.333 372.954,654.03C373.266,653.727 373.772,653.575 374.47,653.575L399.83,653.575C400.529,653.575 401.034,653.727 401.346,654.03C401.659,654.333 401.815,654.824 401.815,655.502L401.815,663.477C401.815,664.191 401.705,664.807 401.484,665.324C401.264,665.841 400.914,666.35 400.437,666.849L387.646,681.89L400.823,681.89C401.521,681.89 402.026,682.042 402.339,682.345C402.651,682.648 402.807,683.139 402.807,683.817L402.807,690.186C402.807,690.864 402.651,691.355 402.339,691.658C402.026,691.962 401.521,692.113 400.823,692.113ZM410.25,692.113C409.552,692.113 409.046,691.962 408.734,691.658C408.421,691.355 408.265,690.864 408.265,690.186L408.265,683.817C408.265,683.139 408.421,682.648 408.734,682.345C409.046,682.042 409.552,681.89 410.25,681.89L415.708,681.89L415.708,663.905L410.25,663.905C409.552,663.905 409.046,663.754 408.734,663.451C408.421,663.147 408.265,662.657 408.265,661.979L408.265,655.502C408.265,654.824 408.421,654.333 408.734,654.03C409.046,653.727 409.552,653.575 410.25,653.575L433.736,653.575C434.434,653.575 434.939,653.727 435.252,654.03C435.564,654.333 435.72,654.824 435.72,655.502L435.72,661.979C435.72,662.657 435.564,663.147 435.252,663.451C434.939,663.754 434.434,663.905 433.736,663.905L428.388,663.905L428.388,681.89L433.736,681.89C434.434,681.89 434.939,682.042 435.252,682.345C435.564,682.648 435.72,683.139 435.72,683.817L435.72,690.186C435.72,690.864 435.564,691.355 435.252,691.658C434.939,691.962 434.434,692.113 433.736,692.113L410.25,692.113ZM452.756,692.113L444.486,692.113C443.788,692.113 443.282,691.962 442.97,691.658C442.658,691.355 442.501,690.864 442.501,690.186L442.501,655.502C442.501,654.824 442.658,654.333 442.97,654.03C443.282,653.727 443.788,653.575 444.486,653.575L450.22,653.575C450.918,653.575 451.515,653.682 452.011,653.896C452.508,654.11 452.995,654.485 453.472,655.02L464.168,666.903L464.168,655.502C464.168,654.824 464.324,654.333 464.636,654.03C464.949,653.727 465.454,653.575 466.152,653.575L474.422,653.575C475.12,653.575 475.626,653.727 475.938,654.03C476.25,654.333 476.407,654.824 476.407,655.502L476.407,690.186C476.407,690.864 476.25,691.355 475.938,691.658C475.626,691.962 475.12,692.113 474.422,692.113L466.152,692.113C465.454,692.113 464.949,691.962 464.636,691.658C464.324,691.355 464.168,690.864 464.168,690.186L464.168,683.603L454.74,672.523L454.74,690.186C454.74,690.864 454.584,691.355 454.272,691.658C453.959,691.962 453.454,692.113 452.756,692.113ZM511.58,692.113L485.999,692.113C485.301,692.113 484.796,691.962 484.483,691.658C484.171,691.355 484.015,690.864 484.015,690.186L484.015,655.502C484.015,654.824 484.171,654.333 484.483,654.03C484.796,653.727 485.301,653.575 485.999,653.575L511.58,653.575C512.278,653.575 512.784,653.727 513.096,654.03C513.409,654.333 513.565,654.824 513.565,655.502L513.565,661.764C513.565,662.442 513.409,662.933 513.096,663.236C512.784,663.54 512.278,663.691 511.58,663.691L496.364,663.691L496.364,667.813L507.114,667.813C507.813,667.813 508.318,667.964 508.631,668.268C508.943,668.571 509.099,669.062 509.099,669.74L509.099,675.467C509.099,676.145 508.943,676.636 508.631,676.939C508.318,677.242 507.813,677.394 507.114,677.394L496.364,677.394L496.364,681.997L511.58,681.997C512.278,681.997 512.784,682.149 513.096,682.452C513.409,682.755 513.565,683.246 513.565,683.924L513.565,690.186C513.565,690.864 513.409,691.355 513.096,691.658C512.784,691.962 512.278,692.113 511.58,692.113ZM538.484,692.113L521.062,692.113C520.364,692.113 519.859,691.962 519.546,691.658C519.234,691.355 519.078,690.864 519.078,690.186L519.078,683.924C519.078,683.246 519.234,682.755 519.546,682.452C519.859,682.149 520.364,681.997 521.062,681.997L535.893,681.997C536.37,681.997 536.729,681.845 536.968,681.542C537.207,681.239 537.326,680.873 537.326,680.445C537.326,679.838 537.207,679.392 536.968,679.107C536.729,678.821 536.37,678.661 535.893,678.625L527.623,677.501C525.05,677.144 522.983,676.323 521.421,675.039C519.859,673.754 519.078,671.613 519.078,668.616L519.078,662.996C519.078,659.962 520.088,657.634 522.11,656.011C524.131,654.387 526.925,653.575 530.49,653.575L545.926,653.575C546.625,653.575 547.13,653.727 547.442,654.03C547.755,654.333 547.911,654.824 547.911,655.502L547.911,661.872C547.911,662.55 547.755,663.04 547.442,663.343C547.13,663.647 546.625,663.798 545.926,663.798L533.081,663.798C532.603,663.798 532.236,663.95 531.978,664.253C531.721,664.557 531.592,664.94 531.592,665.404C531.592,665.868 531.721,666.261 531.978,666.582C532.236,666.903 532.603,667.081 533.081,667.117L541.295,668.188C543.868,668.544 545.945,669.365 547.525,670.65C549.106,671.934 549.896,674.075 549.896,677.073L549.896,682.693C549.896,685.726 548.876,688.054 546.836,689.678C544.796,691.301 542.012,692.113 538.484,692.113Z" style="fill:rgb(255,0,0);"/>
            <path d="M406.823,693.113L379.478,693.113C378.779,693.113 378.274,692.962 377.962,692.658C377.649,692.355 377.493,691.864 377.493,691.186L377.493,684.014C377.493,683.336 377.603,682.738 377.824,682.221C378.044,681.703 378.394,681.195 378.871,680.695L392.268,664.905L380.47,664.905C379.772,664.905 379.266,664.754 378.954,664.451C378.642,664.147 378.485,663.657 378.485,662.979L378.485,656.502C378.485,655.824 378.642,655.333 378.954,655.03C379.266,654.727 379.772,654.575 380.47,654.575L405.83,654.575C406.529,654.575 407.034,654.727 407.346,655.03C407.659,655.333 407.815,655.824 407.815,656.502L407.815,664.477C407.815,665.191 407.705,665.807 407.484,666.324C407.264,666.841 406.914,667.35 406.437,667.849L393.646,682.89L406.823,682.89C407.521,682.89 408.026,683.042 408.339,683.345C408.651,683.648 408.807,684.139 408.807,684.817L408.807,691.186C408.807,691.864 408.651,692.355 408.339,692.658C408.026,692.962 407.521,693.113 406.823,693.113ZM416.25,693.113C415.552,693.113 415.046,692.962 414.734,692.658C414.421,692.355 414.265,691.864 414.265,691.186L414.265,684.817C414.265,684.139 414.421,683.648 414.734,683.345C415.046,683.042 415.552,682.89 416.25,682.89L421.708,682.89L421.708,664.905L416.25,664.905C415.552,664.905 415.046,664.754 414.734,664.451C414.421,664.147 414.265,663.657 414.265,662.979L414.265,656.502C414.265,655.824 414.421,655.333 414.734,655.03C415.046,654.727 415.552,654.575 416.25,654.575L439.736,654.575C440.434,654.575 440.939,654.727 441.252,655.03C441.564,655.333 441.72,655.824 441.72,656.502L441.72,662.979C441.72,663.657 441.564,664.147 441.252,664.451C440.939,664.754 440.434,664.905 439.736,664.905L434.388,664.905L434.388,682.89L439.736,682.89C440.434,682.89 440.939,683.042 441.252,683.345C441.564,683.648 441.72,684.139 441.72,684.817L441.72,691.186C441.72,691.864 441.564,692.355 441.252,692.658C440.939,692.962 440.434,693.113 439.736,693.113L416.25,693.113ZM458.756,693.113L450.486,693.113C449.788,693.113 449.282,692.962 448.97,692.658C448.658,692.355 448.501,691.864 448.501,691.186L448.501,656.502C448.501,655.824 448.658,655.333 448.97,655.03C449.282,654.727 449.788,654.575 450.486,654.575L456.22,654.575C456.918,654.575 457.515,654.682 458.011,654.896C458.508,655.11 458.995,655.485 459.472,656.02L470.168,667.903L470.168,656.502C470.168,655.824 470.324,655.333 470.636,655.03C470.949,654.727 471.454,654.575 472.152,654.575L480.422,654.575C481.12,654.575 481.626,654.727 481.938,655.03C482.25,655.333 482.407,655.824 482.407,656.502L482.407,691.186C482.407,691.864 482.25,692.355 481.938,692.658C481.626,692.962 481.12,693.113 480.422,693.113L472.152,693.113C471.454,693.113 470.949,692.962 470.636,692.658C470.324,692.355 470.168,691.864 470.168,691.186L470.168,684.603L460.74,673.523L460.74,691.186C460.74,691.864 460.584,692.355 460.272,692.658C459.959,692.962 459.454,693.113 458.756,693.113ZM517.58,693.113L491.999,693.113C491.301,693.113 490.796,692.962 490.483,692.658C490.171,692.355 490.015,691.864 490.015,691.186L490.015,656.502C490.015,655.824 490.171,655.333 490.483,655.03C490.796,654.727 491.301,654.575 491.999,654.575L517.58,654.575C518.278,654.575 518.784,654.727 519.096,655.03C519.409,655.333 519.565,655.824 519.565,656.502L519.565,662.764C519.565,663.442 519.409,663.933 519.096,664.236C518.784,664.54 518.278,664.691 517.58,664.691L502.364,664.691L502.364,668.813L513.114,668.813C513.813,668.813 514.318,668.964 514.631,669.268C514.943,669.571 515.099,670.062 515.099,670.74L515.099,676.467C515.099,677.145 514.943,677.636 514.631,677.939C514.318,678.242 513.813,678.394 513.114,678.394L502.364,678.394L502.364,682.997L517.58,682.997C518.278,682.997 518.784,683.149 519.096,683.452C519.409,683.755 519.565,684.246 519.565,684.924L519.565,691.186C519.565,691.864 519.409,692.355 519.096,692.658C518.784,692.962 518.278,693.113 517.58,693.113ZM544.484,693.113L527.062,693.113C526.364,693.113 525.859,692.962 525.546,692.658C525.234,692.355 525.078,691.864 525.078,691.186L525.078,684.924C525.078,684.246 525.234,683.755 525.546,683.452C525.859,683.149 526.364,682.997 527.062,682.997L541.893,682.997C542.37,682.997 542.729,682.845 542.968,682.542C543.207,682.239 543.326,681.873 543.326,681.445C543.326,680.838 543.207,680.392 542.968,680.107C542.729,679.821 542.37,679.661 541.893,679.625L533.623,678.501C531.05,678.144 528.983,677.323 527.421,676.039C525.859,674.754 525.078,672.613 525.078,669.616L525.078,663.996C525.078,660.962 526.088,658.634 528.11,657.011C530.131,655.387 532.925,654.575 536.49,654.575L551.926,654.575C552.625,654.575 553.13,654.727 553.442,655.03C553.755,655.333 553.911,655.824 553.911,656.502L553.911,662.872C553.911,663.55 553.755,664.04 553.442,664.343C553.13,664.647 552.625,664.798 551.926,664.798L539.081,664.798C538.603,664.798 538.236,664.95 537.978,665.253C537.721,665.557 537.592,665.94 537.592,666.404C537.592,666.868 537.721,667.261 537.978,667.582C538.236,667.903 538.603,668.081 539.081,668.117L547.295,669.188C549.868,669.544 551.945,670.365 553.525,671.65C555.106,672.934 555.896,675.075 555.896,678.073L555.896,683.693C555.896,686.726 554.876,689.054 552.836,690.678C550.796,692.301 548.012,693.113 544.484,693.113Z" style="fill:white;"/>
            <path d="M539.296,666.465L547.511,667.535C547.515,667.535 547.52,667.536 547.524,667.537C550.441,667.941 552.785,668.9 554.576,670.356C556.486,671.909 557.562,674.45 557.562,678.073L557.562,683.693C557.562,687.301 556.301,690.05 553.874,691.982C551.577,693.81 548.457,694.78 544.484,694.78L527.062,694.78C525.813,694.78 524.944,694.397 524.385,693.854C523.811,693.296 523.411,692.433 523.411,691.186L523.411,684.924C523.411,683.677 523.811,682.814 524.385,682.256C524.944,681.713 525.813,681.33 527.062,681.33L541.654,681.33C541.652,681.311 541.651,681.292 541.649,681.274L533.399,680.152L533.394,680.152C530.472,679.746 528.136,678.785 526.362,677.326C524.476,675.775 523.411,673.235 523.411,669.616L523.411,663.996C523.411,660.389 524.662,657.642 527.066,655.711C529.344,653.882 532.473,652.908 536.49,652.908L551.926,652.908C553.176,652.908 554.044,653.292 554.603,653.834C555.178,654.392 555.578,655.256 555.578,656.502L555.578,662.872C555.578,664.118 555.178,664.982 554.603,665.539C554.044,666.082 553.176,666.465 551.926,666.465L539.296,666.465ZM544.484,693.113C548.012,693.113 550.796,692.301 552.836,690.678C554.876,689.054 555.896,686.726 555.896,683.693L555.896,678.073C555.896,675.075 555.106,672.934 553.525,671.65C551.945,670.365 549.868,669.544 547.295,669.188L539.081,668.117C538.603,668.081 538.236,667.903 537.978,667.582C537.721,667.261 537.592,666.868 537.592,666.404C537.592,665.94 537.721,665.557 537.978,665.253C538.236,664.95 538.603,664.798 539.081,664.798L551.926,664.798C552.625,664.798 553.13,664.647 553.442,664.343C553.755,664.04 553.911,663.55 553.911,662.872L553.911,656.502C553.911,655.824 553.755,655.333 553.442,655.03C553.13,654.727 552.625,654.575 551.926,654.575L536.49,654.575C532.925,654.575 530.131,655.387 528.11,657.011C526.088,658.634 525.078,660.962 525.078,663.996L525.078,669.616C525.078,672.613 525.859,674.754 527.421,676.039C528.983,677.323 531.05,678.144 533.623,678.501L541.893,679.625C542.37,679.661 542.729,679.821 542.968,680.107C543.207,680.392 543.326,680.838 543.326,681.445C543.326,681.873 543.207,682.239 542.968,682.542C542.729,682.845 542.37,682.997 541.893,682.997L527.062,682.997C526.364,682.997 525.859,683.149 525.546,683.452C525.234,683.755 525.078,684.246 525.078,684.924L525.078,691.186C525.078,691.864 525.234,692.355 525.546,692.658C525.859,692.962 526.364,693.113 527.062,693.113L544.484,693.113ZM406.823,694.78L379.478,694.78C378.228,694.78 377.36,694.397 376.801,693.854C376.226,693.296 375.826,692.433 375.826,691.186L375.826,684.014C375.826,683.088 375.989,682.274 376.291,681.567C376.577,680.896 377.018,680.23 377.631,679.582L388.668,666.572L380.47,666.572C379.22,666.572 378.352,666.189 377.793,665.646C377.219,665.089 376.819,664.225 376.819,662.979L376.819,656.502C376.819,655.256 377.219,654.392 377.793,653.834C378.352,653.292 379.22,652.908 380.47,652.908L405.83,652.908C407.08,652.908 407.948,653.292 408.507,653.834C409.082,654.392 409.482,655.256 409.482,656.502L409.482,664.477C409.482,665.445 409.316,666.276 409.017,666.977C408.731,667.649 408.29,668.315 407.677,668.964L397.251,681.223L406.823,681.223C408.072,681.223 408.941,681.606 409.5,682.149C410.074,682.707 410.474,683.57 410.474,684.817L410.474,691.186C410.474,692.433 410.074,693.296 409.5,693.854C408.941,694.397 408.072,694.78 406.823,694.78ZM406.823,693.113C407.521,693.113 408.026,692.962 408.339,692.658C408.651,692.355 408.807,691.864 408.807,691.186L408.807,684.817C408.807,684.139 408.651,683.648 408.339,683.345C408.026,683.042 407.521,682.89 406.823,682.89L393.646,682.89L406.437,667.849C406.914,667.35 407.264,666.841 407.484,666.324C407.705,665.807 407.815,665.191 407.815,664.477L407.815,656.502C407.815,655.824 407.659,655.333 407.346,655.03C407.034,654.727 406.529,654.575 405.83,654.575L380.47,654.575C379.772,654.575 379.266,654.727 378.954,655.03C378.642,655.333 378.485,655.824 378.485,656.502L378.485,662.979C378.485,663.657 378.642,664.147 378.954,664.451C379.266,664.754 379.772,664.905 380.47,664.905L392.268,664.905L378.871,680.695C378.394,681.195 378.044,681.703 377.824,682.221C377.603,682.738 377.493,683.336 377.493,684.014L377.493,691.186C377.493,691.864 377.649,692.355 377.962,692.658C378.274,692.962 378.779,693.113 379.478,693.113L406.823,693.113ZM416.25,694.78C415,694.78 414.132,694.397 413.573,693.854C412.998,693.296 412.599,692.433 412.599,691.186L412.599,684.817C412.599,683.57 412.998,682.707 413.573,682.149C414.132,681.606 415,681.223 416.25,681.223L420.041,681.223L420.041,666.572L416.25,666.572C415,666.572 414.132,666.189 413.573,665.646C412.998,665.089 412.599,664.225 412.599,662.979L412.599,656.502C412.599,655.256 412.998,654.392 413.573,653.834C414.132,653.292 415,652.908 416.25,652.908L439.736,652.908C440.985,652.908 441.854,653.292 442.413,653.834C442.987,654.392 443.387,655.256 443.387,656.502L443.387,662.979C443.387,664.225 442.987,665.089 442.413,665.646C441.854,666.189 440.985,666.572 439.736,666.572L436.055,666.572L436.055,681.223L439.736,681.223C440.985,681.223 441.854,681.606 442.413,682.149C442.987,682.707 443.387,683.57 443.387,684.817L443.387,691.186C443.387,692.433 442.987,693.296 442.413,693.854C441.854,694.397 440.985,694.78 439.736,694.78L416.25,694.78ZM416.25,693.113L439.736,693.113C440.434,693.113 440.939,692.962 441.252,692.658C441.564,692.355 441.72,691.864 441.72,691.186L441.72,684.817C441.72,684.139 441.564,683.648 441.252,683.345C440.939,683.042 440.434,682.89 439.736,682.89L434.388,682.89L434.388,664.905L439.736,664.905C440.434,664.905 440.939,664.754 441.252,664.451C441.564,664.147 441.72,663.657 441.72,662.979L441.72,656.502C441.72,655.824 441.564,655.333 441.252,655.03C440.939,654.727 440.434,654.575 439.736,654.575L416.25,654.575C415.552,654.575 415.046,654.727 414.734,655.03C414.421,655.333 414.265,655.824 414.265,656.502L414.265,662.979C414.265,663.657 414.421,664.147 414.734,664.451C415.046,664.754 415.552,664.905 416.25,664.905L421.708,664.905L421.708,682.89L416.25,682.89C415.552,682.89 415.046,683.042 414.734,683.345C414.421,683.648 414.265,684.139 414.265,684.817L414.265,691.186C414.265,691.864 414.421,692.355 414.734,692.658C415.046,692.962 415.552,693.113 416.25,693.113ZM458.756,694.78L450.486,694.78C449.236,694.78 448.368,694.397 447.809,693.854C447.235,693.296 446.835,692.433 446.835,691.186L446.835,656.502C446.835,655.256 447.235,654.392 447.809,653.834C448.368,653.292 449.236,652.908 450.486,652.908L456.22,652.908C457.177,652.908 457.992,653.073 458.672,653.366C459.361,653.664 460.052,654.167 460.711,654.905L468.501,663.56L468.501,656.502C468.501,655.256 468.901,654.392 469.475,653.834C470.034,653.292 470.903,652.908 472.152,652.908L480.422,652.908C481.672,652.908 482.54,653.292 483.099,653.834C483.673,654.392 484.073,655.256 484.073,656.502L484.073,691.186C484.073,692.433 483.673,693.296 483.099,693.854C482.54,694.397 481.672,694.78 480.422,694.78L472.152,694.78C470.903,694.78 470.034,694.397 469.475,693.854C468.901,693.296 468.501,692.433 468.501,691.186L468.501,685.216C468.501,685.216 462.407,678.054 462.407,678.054L462.407,691.186C462.407,692.433 462.007,693.296 461.433,693.854C460.874,694.397 460.005,694.78 458.756,694.78ZM458.756,693.113C459.454,693.113 459.959,692.962 460.272,692.658C460.584,692.355 460.74,691.864 460.74,691.186L460.74,673.523L470.168,684.603L470.168,691.186C470.168,691.864 470.324,692.355 470.636,692.658C470.949,692.962 471.454,693.113 472.152,693.113L480.422,693.113C481.12,693.113 481.626,692.962 481.938,692.658C482.25,692.355 482.407,691.864 482.407,691.186L482.407,656.502C482.407,655.824 482.25,655.333 481.938,655.03C481.626,654.727 481.12,654.575 480.422,654.575L472.152,654.575C471.454,654.575 470.949,654.727 470.636,655.03C470.324,655.333 470.168,655.824 470.168,656.502L470.168,667.903L459.472,656.02C458.995,655.485 458.508,655.11 458.011,654.896C457.515,654.682 456.918,654.575 456.22,654.575L450.486,654.575C449.788,654.575 449.282,654.727 448.97,655.03C448.658,655.333 448.501,655.824 448.501,656.502L448.501,691.186C448.501,691.864 448.658,692.355 448.97,692.658C449.282,692.962 449.788,693.113 450.486,693.113L458.756,693.113ZM517.58,694.78L491.999,694.78C490.75,694.78 489.881,694.397 489.322,693.854C488.748,693.296 488.348,692.433 488.348,691.186L488.348,656.502C488.348,655.256 488.748,654.392 489.322,653.834C489.881,653.292 490.75,652.908 491.999,652.908L517.58,652.908C518.83,652.908 519.698,653.292 520.257,653.834C520.831,654.392 521.231,655.256 521.231,656.502L521.231,662.764C521.231,664.011 520.831,664.875 520.257,665.432C519.698,665.975 518.83,666.358 517.58,666.358L504.031,666.358C504.031,666.358 504.031,667.146 504.031,667.146L513.114,667.146C514.364,667.146 515.232,667.529 515.791,668.072C516.366,668.63 516.766,669.493 516.766,670.74L516.766,676.467C516.766,677.713 516.366,678.577 515.791,679.135C515.232,679.677 514.364,680.06 513.114,680.06C513.114,680.06 504.031,680.06 504.031,680.061L504.031,681.33L517.58,681.33C518.83,681.33 519.698,681.713 520.257,682.256C520.831,682.814 521.231,683.677 521.231,684.924L521.231,691.186C521.231,692.433 520.831,693.296 520.257,693.854C519.698,694.397 518.83,694.78 517.58,694.78ZM517.58,693.113C518.278,693.113 518.784,692.962 519.096,692.658C519.409,692.355 519.565,691.864 519.565,691.186L519.565,684.924C519.565,684.246 519.409,683.755 519.096,683.452C518.784,683.149 518.278,682.997 517.58,682.997L502.364,682.997L502.364,678.394L513.114,678.394C513.813,678.394 514.318,678.242 514.631,677.939C514.943,677.636 515.099,677.145 515.099,676.467L515.099,670.74C515.099,670.062 514.943,669.571 514.631,669.268C514.318,668.964 513.813,668.813 513.114,668.813L502.364,668.813L502.364,664.691L517.58,664.691C518.278,664.691 518.784,664.54 519.096,664.236C519.409,663.933 519.565,663.442 519.565,662.764L519.565,656.502C519.565,655.824 519.409,655.333 519.096,655.03C518.784,654.727 518.278,654.575 517.58,654.575L491.999,654.575C491.301,654.575 490.796,654.727 490.483,655.03C490.171,655.333 490.015,655.824 490.015,656.502L490.015,691.186C490.015,691.864 490.171,692.355 490.483,692.658C490.796,692.962 491.301,693.113 491.999,693.113L517.58,693.113Z"/>
        </g>
    </g>
</svg>
